<?xml version="1.0" standalone="no"?><!DOCTYPE svg PUBLIC "-//W3C//DTD SVG 1.1//EN" "http://www.w3.org/Graphics/SVG/1.1/DTD/svg11.dtd"><svg class="icon" width="256px" height="256.00px" viewBox="0 0 1024 1024" version="1.1" xmlns="http://www.w3.org/2000/svg"><path d="M434.56 150.690133l33.408 23.406934-46.7712 33.4592c4.352 32.366933 52.283733 8.3712 63.4624-10.112 5.077333-8.388267 2.542933-21.265067 13.781333-26.615467 31.2832 8.021333 64.7424 17.2288 39.594667 53.265067-10.120533 14.498133-45.986133 31.829333-23.227733 53.649066-30.148267 16.0256-48.349867 34.628267-73.557334 53.495467-14.805333 11.076267-31.121067 20.1216-46.813866 33.4336-21.674667 18.389333-43.8272 36.548267-60.1856 60.1856-18.850133 16.904533-43.946667 51.285333-53.495467 73.557333-19.7888 1.774933-35.712 51.3024-40.123733 53.495467-28.202667 14.0288-51.933867 57.361067-73.557334 86.9376-25.2928 34.594133-32.2816 35.524267-46.813866 80.247467-7.202133 22.178133-13.866667 44.3904-20.061867 66.875733l-13.371733 6.690133c-14.3616-24.064-29.346133-39.893333-43.178667-60.4672-21.870933-32.5376-49.774933-66.807467-42.4448-108.791466 7.338667-42.069333 68.48-121.736533 95.940267-158.1312C192.785067 338.491733 290.5856 222.805333 434.568533 150.690133z" fill="#A2A6AA" /><path d="M1023.035733 418.184533c1.527467 18.107733 1.015467 41.796267 0 60.1856l-5.956266 4.053334-0.733867 22.698666c-3.899733 14.165333-8.567467 26.461867-13.371733 40.123734-19.012267 12.296533-11.989333 5.8624-13.201067-10.180267-2.3808-31.470933-16.4096-48.3328-33.339733-73.6768l-47.0784-29.815467c37.0176 50.3296 71.424 108.561067 66.875733 173.8496-26.487467 47.214933-44.535467 71.082667-80.247467 106.999467-21.700267 2.8416-12.322133-7.620267-10.094933-20.1216 10.487467-58.717867 8.866133-96.930133-4.352-156.014933l-32.349867-57.9072c-1.962667 30.3104 16.6144 62.020267 19.882667 90.427733 4.795733 41.6512-2.474667 134.9632-21.1456 172.4672-6.254933 12.561067-20.1728 18.2528-25.506133 31.3344-19.831467 13.7472-39.159467 28.100267-60.1856 40.123733-13.064533-1.237333-23.355733 5.9392-36.5056 6.980267-56.866133 4.5056-125.320533-3.165867-177.749334-23.441067-18.2016-7.04-72.0896-43.127467-86.673066-37.034666 28.6464-13.917867 62.702933-37.3248 86.9376-60.1856-1.3312 13.7728-1.399467 18.286933 10.871466 25.9072 44.322133 27.528533 124.910933 30.651733 169.642667 4.138666 6.340267-3.754667 10.717867-12.100267 16.648533-16.989866 5.128533-4.224 12.740267-5.0432 15.453867-7.748267 2.9184-2.9184 23.1936-33.732267 25.0368-38.485333 10.299733-26.581333 25.813333-96.341333 13.294933-120.797867-1.757867-3.438933-15.2576-15.223467-16.878933-13.201067 0.827733 37.435733 1.962667 71.330133-9.787733 107.246934-10.103467 30.8736-26.0864 56.618667-54.587734 72.4736-26.0608 14.4896-63.317333 17.962667-92.672 14.097066-15.2832-2.005333-72.482133-31.0784-77.013333-26.641066 30.702933-28.962133 44.5184-62.848 40.123733-106.999467 2.909867 6.161067 7.176533 13.704533 10.299734 20.334933 35.950933 0.750933 63.291733 4.445867 86.4768-27.204266 20.727467-28.296533 10.752-59.946667 43.656533-80.059734 46.737067-28.578133 95.342933-64.631467 144.802133-92.5952 52.48-29.678933 105.053867-49.527467 149.444267 5.666134z" fill="#FCA47E" /><path d="M568.302933 565.2992c16.1024 3.106133 15.940267 18.0224 20.061867 26.752 4.394667 44.142933-9.4208 78.037333-40.123733 106.999467-24.226133 22.852267-58.282667 46.267733-86.9376 60.1856-20.6592 10.0352-73.3696 33.92-93.6192 40.123733-33.220267 10.180267-80.6656 12.4416-115.6352 21.4528-17.015467 4.386133-66.432 22.084267-77.098667 33.2032-7.68 7.995733-3.549867 35.029333-21.256533 38.9632-28.3136-33.6128-45.4144-64.3328-66.875734-100.309333l13.371734-6.690134c19.968 22.946133 25.309867 41.659733 60.535466 30.421334 55.022933-17.553067 86.673067-78.856533 126.711467-117.3504l4.2496-5.700267c11.204267 3.1488 19.5072-6.664533 22.493867-7.671467 44.706133-15.121067 83.1488-23.739733 122.7776-53.3504 5.896533-4.4032 3.626667-9.813333 5.6832-11.793066 3.541333-3.421867 10.5984-3.217067 15.317333-8.260267 4.078933-4.360533 7.210667-14.0544 10.018133-20.215467 2.346667-5.1456 8.0896-3.9424 6.690134-20.061866 25.6-6.434133 68.0192-11.630933 93.6192-6.690134z" fill="#F07F53" /><path d="M962.850133 271.061333l-6.690133 6.690134c-11.502933-10.5984-25.3696-14.592-33.4336-20.061867-17.527467-11.8784-29.687467-24.900267-53.495467-33.4336-42.666667-15.291733-95.189333-16.298667-140.433066-13.371733-50.372267 3.2512-83.029333 18.0736-127.061334 33.4336-24.0128 8.3712-49.570133 15.172267-73.557333 26.752-4.488533 2.167467-8.968533 4.343467-13.371733 6.690133-22.7584-21.819733 13.1072-39.150933 23.227733-53.649067 25.147733-36.036267-8.32-45.243733-39.594667-53.265066-11.229867 5.3504-8.704 18.2272-13.781333 26.615466-11.178667 18.4832-59.1104 42.478933-63.4624 10.112l46.7712-33.4592-33.408-23.406933c207.6928-104.021333 402.696533-89.088 528.290133 120.3712z" fill="#666D6F" /><path d="M367.684267 799.351467c0.674133 4.215467-1.006933 9.787733 0 13.371733l-20.027734 3.3024c4.317867 16.622933 19.140267 18.884267 25.233067 25.2416 2.2528 2.3552 15.0272 22.126933 16.315733 23.159467 15.633067 12.5184 43.127467 26.837333 62.0288 35.259733l-9.984 13.3376c-75.690667 12.3904-159.906133 30.592-237.3888 20.053333-23.620267-3.217067-36.3776-23.748267-50.167466-40.1152 17.706667-3.9424 13.576533-30.967467 21.256533-38.9632 10.6752-11.1104 60.0832-28.808533 77.098667-33.2032 34.961067-9.019733 82.414933-11.272533 115.6352-21.4528z" fill="#FDA882" /><path d="M461.303467 759.236267c-3.908267 11.016533-9.634133 6.1184-0.085334 16.785066 17.339733 19.362133 64.085333 30.813867 86.920534 46.839467l127.1552 29.994667c-44.987733 17.979733-79.829333 28.808533-127.061334 40.123733-28.4416-0.426667-55.543467 3.771733-82.210133-8.064-23.901867-10.606933-91.4176-47.496533-98.346667-72.183467-1.006933-3.592533 0.674133-9.156267 0-13.371733 20.2496-6.203733 72.96-30.088533 93.6192-40.123733z" fill="#FCA680" /><path d="M956.16 277.751467c5.2736 4.855467 8.644267 18.295467 20.061867 20.061866 20.360533 38.869333 43.008 75.306667 46.813866 120.3712-44.381867-55.1936-96.955733-35.345067-149.444266-5.666133-49.4592 27.963733-98.065067 64.0256-144.802134 92.5952 7.432533-9.531733 11.1872-20.1472-6.903466-10.257067-18.065067 9.8816-74.581333 0.7936-100.096 3.566934 5.572267-11.588267 25.8304-6.596267 36.804266-6.664534 63.9488-0.426667 54.741333-5.205333 103.936-36.497066 15.2576-9.7024 29.073067-20.027733 44.066134-29.499734 23.5264-14.856533 109.1072-57.540267 115.3024-78.626133l0.8192-89.454933c8.064 5.469867 21.930667 9.463467 33.4336 20.061866z" fill="#FBD0C1" /><path d="M762.231467 812.731733c-31.650133 18.0992-54.033067 26.973867-86.9376 40.123734l-127.1552-29.994667c-22.8352-16.0256-69.5808-27.477333-86.920534-46.839467-9.557333-10.666667-3.831467-5.768533 0.085334-16.785066 14.583467-6.084267 68.471467 29.994667 86.673066 37.034666 52.420267 20.2752 120.874667 27.946667 177.749334 23.441067 13.149867-1.041067 23.441067-8.2176 36.5056-6.980267z" fill="#FCCDB9" /><path d="M822.417067 772.608c5.333333-13.090133 19.2512-18.773333 25.506133-31.3344 18.670933-37.504 25.941333-130.816 21.1456-172.4672-3.268267-28.407467-21.853867-60.117333-19.882667-90.427733l32.349867 57.9072c13.218133 59.093333 14.839467 97.3056 4.352 156.014933-2.235733 12.501333-11.605333 22.9632 10.094933 20.1216-28.893867 29.056-41.608533 38.0416-73.557333 60.1856z" fill="#FCC6AF" /><path d="M367.684267 812.731733c6.929067 24.686933 74.4448 61.576533 98.346666 72.183467 26.666667 11.835733 53.768533 7.637333 82.210134 8.064-34.696533 8.311467-69.5296 13.9264-106.999467 20.061867l9.984-13.3376c-18.901333-8.430933-46.404267-22.741333-62.0288-35.259734-1.28-1.024-14.062933-20.804267-16.315733-23.159466-6.084267-6.357333-20.9152-8.618667-25.233067-25.2416l20.027733-3.3024z" fill="#FBC1AA" /><path d="M976.221867 605.422933c4.5568-65.288533-29.858133-123.52-66.875734-173.8496l47.0784 29.815467c16.938667 25.352533 30.967467 42.205867 33.339734 73.6768 1.211733 16.042667-5.8112 22.4768 13.201066 10.180267-10.274133 29.226667-11.810133 33.553067-26.752 60.1856z" fill="#FBBEA5" /><path d="M976.221867 297.813333c-11.4176-1.7664-14.788267-15.2064-20.061867-20.061866l6.690133-6.690134c6.775467 11.306667 8.584533 17.604267 13.371734 26.752z" fill="#9E8F89" /><path d="M1016.3456 505.1136l0.733867-22.698667 5.956266-4.053333c-0.9472 17.109333-4.420267 18.5088-6.690133 26.752z" fill="#FBD0C1" /><path d="M728.797867 210.875733c12.945067 11.016533 32.0768 13.2096 46.634666 23.586134 6.920533 4.923733 34.500267 26.888533 38.920534 31.300266 6.826667 6.818133 27.9552 41.736533 31.701333 51.882667 5.742933 15.573333 9.5488 36.949333 9.813333 53.725867 11.2896 1.7408 6.997333-15.880533 6.715734-23.441067-0.708267-18.9696-3.310933-38.971733-9.838934-57.0368-7.790933-21.563733-28.381867-36.266667-16.8192-59.776l33.297067-6.8608c23.816533 8.533333 35.968 21.5552 53.495467 33.4336l-0.8192 89.454933c-6.1952 21.0944-91.776 63.778133-115.3024 78.626134-14.993067 9.463467-28.808533 19.797333-44.066134 29.499733-49.194667 31.2832-39.995733 36.0704-103.936 36.497067-10.973867 0.0768-31.223467-4.923733-36.804266 6.664533-22.2208 2.423467-56.789333 42.2656-53.495467 66.875733-25.6-4.949333-68.0192 0.247467-93.6192 6.690134-0.913067-10.538667-7.261867-19.234133-7.2448-30.114134 0.008533-9.924267 6.254933-46.856533 8.541867-58.862933 4.206933-22.024533 27.409067-61.764267 45.687466-74.683733 63.240533-44.680533 130.577067-18.645333 193.7408 9.856l-7.458133-25.984c-17.288533 2.0736-25.9072-13.371733-38.971733-17.8432-56.0128-19.157333-126.6944-12.194133-172.8 25.5488-1.877333 1.536-0.708267 7.552-3.1232 9.9072-2.466133 2.4064-8.302933 1.245867-9.915734 3.114666-11.008 12.808533-26.350933 38.9376-28.416 55.517867-1.578667 12.689067-4.497067 99.7376-0.110933 103.543467-18.935467 12.9024-40.891733 21.162667-60.1856 33.4336-22.229333 0.6912-19.4304 4.539733-20.061867-16.622934-2.030933-67.797333 13.474133-161.629867 45.3632-222.225066 7.048533-13.397333 21.8368-19.456 21.504-35.336534 25.216-18.8672 43.409067-37.469867 73.557334-53.495466 4.4032-2.338133 8.8832-4.522667 13.371733-6.690134 5.572267 11.588267 25.8304 6.596267 36.795733 6.664534 111.3088 0.725333 124.9792 24.593067 200.6016 93.636266 5.384533 4.923733 11.511467 15.6672 20.036267 13.371734 9.250133-2.500267 10.1888-8.1408 3.370667-16.708267-12.219733-15.351467-51.857067-55.901867-67.0464-66.705067-12.373333-8.797867-50.116267-29.021867-64.699734-35.6096-17.024-7.688533-41.378133-8.285867-55.5008-21.4016 44.032-15.36 76.689067-30.1824 127.061334-33.4336z" fill="#FCA680" /><path d="M240.631467 551.927467l1.493333 42.197333 18.389333 94.148267 26.922667 10.769066c-40.029867 38.5024-71.68 99.797333-126.711467 117.3504-35.2256 11.2384-40.567467-7.4752-60.535466-30.421333 6.1952-22.485333 12.859733-44.6976 20.061866-66.875733l33.450667-50.133334 13.3632-30.114133c21.623467-29.568 45.354667-72.900267 73.557333-86.9376z" fill="#FCA37E" /><path d="M387.746133 391.432533c-19.7632 53.632-37.7856 117.8368-33.732266 177.501867 1.220267 17.979733 11.707733 36.1216 6.980266 56.5504-4.676267 3.5584-20.104533 20.3008-26.752 26.752l-40.123733 30.1056c-4.224 6.545067-11.3664-3.694933-12.629333-7.4496-17.092267-50.8672-21.794133-127.3856-0.750934-176.469333 9.557333-22.280533 34.645333-56.661333 53.495467-73.557334 0.64-0.571733 8.192 1.092267 13.277867-3.1744 12.928-10.837333 22.459733-30.378667 40.2176-30.2592z" fill="#FCA681" /><path d="M441.2416 331.246933c0.324267 15.880533-14.455467 21.930667-21.504 35.336534-31.889067 60.5952-47.394133 154.427733-45.3632 222.225066 0.631467 21.154133-2.176 17.314133 20.061867 16.622934-10.624 6.7584-25.5488 14.062933-33.4336 20.061866 4.727467-20.4288-5.76-38.570667-6.980267-56.5504-4.053333-59.665067 13.960533-123.869867 33.732267-177.501866 2.816-7.637333 4.701867-18.4576 6.690133-26.752 15.6928-13.312 32.008533-22.357333 46.813867-33.4336z" fill="#FCC8B5" /><path d="M334.250667 652.2368c-1.160533 1.1264-2.688 5.794133-6.792534 9.915733-4.616533 4.6336-16.136533 3.908267-19.908266 20.1984l6.638933 3.319467c-2.986667 1.015467-11.298133 10.820267-22.493867 7.671467l-4.2496 5.700266-26.922666-10.769066-18.389334-94.148267-1.493333-42.197333c4.411733-2.193067 20.334933-51.729067 40.123733-53.495467-21.051733 49.083733-16.349867 125.5936 0.750934 176.469333 1.262933 3.754667 8.405333 13.994667 12.629333 7.4496l40.123733-30.1056z" fill="#FAC2AD" /><path d="M387.746133 391.432533c-17.757867-0.119467-27.2896 19.4304-40.2176 30.2592-5.0944 4.266667-12.6464 2.602667-13.277866 3.1744 16.3584-23.637333 38.510933-41.796267 60.1856-60.1856-1.979733 8.285867-3.874133 19.106133-6.690134 26.752z" fill="#E0AA98" /><path d="M120.260267 719.112533c14.532267-44.7232 21.512533-45.653333 46.813866-80.247466l-13.3632 30.114133-33.450666 50.133333z" fill="#CEA393" /><path d="M621.7984 498.432c25.514667-2.781867 82.030933 6.306133 100.096-3.566933 18.090667-9.890133 14.336 0.725333 6.903467 10.257066-32.904533 20.113067-22.920533 51.7632-43.656534 80.059734-23.185067 31.650133-50.525867 27.963733-86.4768 27.204266-3.1232-6.6304-7.389867-14.173867-10.299733-20.334933-4.1216-8.721067-3.959467-23.637333-20.061867-26.752-3.285333-24.6016 31.274667-64.452267 53.495467-66.875733z" fill="#FCDACF" /><path d="M548.241067 699.050667c4.5312-4.437333 61.730133 24.6272 77.013333 26.641066 29.354667 3.857067 66.619733 0.392533 92.672-14.097066 28.509867-15.854933 44.484267-41.591467 54.587733-72.4736 11.7504-35.925333 10.615467-69.8112 9.787734-107.246934 1.621333-2.030933 15.112533 9.7536 16.878933 13.201067 12.5184 24.456533-2.9952 94.216533-13.294933 120.797867-1.8432 4.753067-22.1184 35.566933-25.0368 38.485333-2.7136 2.7136-10.3168 3.524267-15.453867 7.748267-5.930667 4.8896-10.3168 13.2352-16.648533 16.989866-44.731733 26.513067-125.320533 23.389867-169.642667-4.138666-12.270933-7.620267-12.202667-12.1344-10.871467-25.9072z" fill="#FDC3AD" /><path d="M454.621867 571.989333c-4.386133-3.805867-1.467733-90.8544 0.110933-103.543466 2.065067-16.5888 17.408-42.717867 28.416-55.517867 1.6128-1.877333 7.4496-0.7168 9.915733-3.114667 2.414933-2.3552 1.237333-8.3712 3.1232-9.9072 46.1056-37.742933 116.778667-44.714667 172.8-25.5488 13.064533 4.471467 21.6832 19.9168 38.971734 17.8432l7.458133 25.984c-63.163733-28.501333-130.500267-54.536533-193.7408-9.856-18.2784 12.910933-41.480533 52.650667-45.687467 74.683734-2.295467 12.0064-8.533333 48.938667-8.541866 58.862933-0.008533 10.88 6.331733 19.584 7.2448 30.114133 1.399467 16.119467-4.343467 14.916267-6.690134 20.061867l-0.896-19.456-12.475733-0.605867z" fill="#FCC2AB" /><path d="M454.621867 571.989333l12.475733 0.605867 0.896 19.456c-2.807467 6.161067-5.9392 15.854933-10.018133 20.215467-4.718933 5.0432-11.776 4.8384-15.317334 8.260266-2.056533 1.988267 0.213333 7.389867-5.6832 11.793067-39.637333 29.610667-78.08 38.229333-122.7776 53.3504l-6.638933-3.319467c3.780267-16.298667 15.300267-15.5648 19.908267-20.1984 4.104533-4.1216 5.632-8.789333 6.792533-9.915733 6.647467-6.442667 22.075733-23.1936 26.752-26.752 7.8848-5.998933 22.8096-13.303467 33.4336-20.061867 19.293867-12.270933 41.250133-20.539733 60.1856-33.4336z" fill="#FAF9F6" /><path d="M601.736533 244.317867c14.122667 13.124267 38.468267 13.7216 55.5008 21.4016 14.583467 6.587733 52.3264 26.811733 64.699734 35.6096 15.189333 10.8032 54.826667 51.345067 67.0464 66.705066 6.826667 8.576 5.879467 14.216533-3.370667 16.708267-8.5248 2.304-14.651733-8.448-20.036267-13.371733-75.6224-69.0432-89.2928-92.910933-200.6016-93.636267-10.973867-0.068267-31.223467 4.923733-36.795733-6.664533 23.995733-11.579733 49.553067-18.372267 73.557333-26.752z" fill="#FDC2AC" /><path d="M869.230933 224.256l-33.297066 6.8608c-11.562667 23.509333 9.028267 38.212267 16.8192 59.776 6.528 18.065067 9.122133 38.075733 9.838933 57.0368 0.2816 7.552 4.573867 25.173333-6.715733 23.441067-0.264533-16.776533-4.0704-38.152533-9.813334-53.725867-3.746133-10.154667-24.874667-45.064533-31.701333-51.882667-4.420267-4.411733-32-26.368-38.920533-31.300266-14.557867-10.368-33.6896-12.5696-46.634667-23.586134 45.243733-2.926933 97.7664-1.92 140.433067 13.371734z" fill="#FAB99F" /></svg>