<?xml version="1.0" standalone="no"?><!DOCTYPE svg PUBLIC "-//W3C//DTD SVG 1.1//EN" "http://www.w3.org/Graphics/SVG/1.1/DTD/svg11.dtd"><svg class="icon" width="256px" height="256.00px" viewBox="0 0 1024 1024" version="1.1" xmlns="http://www.w3.org/2000/svg"><path d="M995.618133 278.229333l6.468267 7.944534-3.6608 36.650666c-1.954133 19.5072-4.744533 33.783467 0.7936 50.133334l-3.729067 0.1536c-32.392533-23.1936-33.8432-2.2272-72.5504-22.0928-67.541333-34.6624-124.177067-28.936533-200.439466-18.5856l-132.3008 17.9712-85.188267 7.5776c-23.3984 2.082133-48.8448 10.666667-68.104533 23.031466l-66.0736 42.4192c-26.709333 17.143467-99.157333 38.869333-132.736 40.738134-89.642667 4.992-124.0576-28.714667-186.052267-2.594134l-32.520533 13.696 8.388266-12.544c6.587733-9.847467-10.24-12.893867-16.452266-43.639466l39.936-13.789867c16.136533-5.572267 37.060267-11.8528 54.2464-12.100267l101.512533-1.467733c33.117867-0.477867 89.472-15.522133 120.516267-29.4912l28.16-12.663467c23.5008-10.5728 47.010133-23.227733 71.671466-31.428266 34.4832-11.477333 71.159467-20.292267 107.281067-25.224534l114.747733-15.650133 36.7616-4.8128 36.078934-3.7888 77.090133-6.0416c11.938133-0.938667 25.437867-1.501867 37.316267 0.008533l45.909333 5.8624c23.2704 2.9696 64.5888 16.494933 84.906667 25.506134l27.912533 12.373333 0.119467-28.151467z" fill="#FDF7F1" /><path d="M995.490133 373.12l0.401067 36.189867-41.002667-4.2496-45.9776-4.7872c-29.1584-3.037867-52.770133-39.005867-94.6688-35.712l-55.1424 4.334933c-10.658133 0.836267-21.461333 2.6368-32.136533 4.334933-75.323733 11.9808-187.0592 35.259733-244.369067 85.162667-39.799467 34.6624-82.500267 59.972267-135.2192 70.442667-26.436267 1.041067-53.6064 1.2288-79.633066-1.6128l-61.098667-6.656-50.978133 6.894933c-27.844267 3.7632-56.558933 2.3296-85.905067 1.7664-43.997867-0.836267-44.834133 15.479467-57.2672 5.76-1.015467-12.808533-1.595733-37.248-1.518933-51.285333l8.567466-8.430934 32.520534-13.696c61.994667-26.120533 96.4096 7.586133 186.052266 2.594134 33.578667-1.8688 106.026667-23.586133 132.736-40.738134l66.0736-42.4192c19.268267-12.3648 44.706133-20.949333 68.104534-23.031466l85.188266-7.5776 132.3008-17.9712c76.2624-10.359467 132.8896-16.085333 200.439467 18.5856 38.7072 19.8656 40.157867-1.1008 72.5504 22.0928z" fill="#F78D8A" /><path d="M12.4928 534.9888c0.213333 2.756267 1.8944 7.381333 3.072 11.588267l4.2496 15.223466c0.6912 2.474667 4.130133 6.818133 5.8368 8.6784 19.165867 20.855467 68.283733 66.3552 100.4288 51.2256 21.725867-10.222933 41.053867-17.390933 62.020267-20.181333l15.8208 4.437333c3.234133 0.904533 7.773867 8.772267 7.671466 12.228267-0.3584 12.0832-28.603733 15.701333-17.8688 26.5472 3.029333 3.054933 8.942933 6.007467 13.508267 7.7568 39.355733 15.086933 80.401067 25.924267 124.416 29.824 9.028267 0.802133 92.689067 6.7584 89.9584-1.902933 53.896533-3.822933 96.887467-14.250667 132.206933-59.767467l22.024534-28.381867c19.242667-24.797867 46.020267-39.296 73.181866-49.501866 5.333333-0.759467 12.509867-1.988267 19.208534-3.584l24.823466-5.9392c17.467733 21.691733-14.088533 15.214933-11.639466 32.5888-5.9904 6.8096 4.0704 29.841067 12.6208 33.0752 15.479467 5.853867 28.842667 9.642667 41.693866 12.8768 36.096 9.070933 92.356267 21.674667 114.030934 58.734933l-0.605867 13.124267-36.497067 3.703466c-25.838933 2.628267-54.314667 2.696533-80.315733-0.631466l-31.36-4.0192c-11.886933-1.518933-23.074133-2.500267-33.706667-2.978134-21.649067-0.059733-44.928 0.4096-68.181333 3.652267L567.406933 687.786667l-28.245333 4.258133-31.9232 4.829867c-28.1344 4.2496-55.210667 9.105067-81.493333 11.52-42.1632 3.882667-106.3936 6.638933-149.7344-3.029334l-66.372267-14.7968c-14.967467-3.336533-31.530667-8.388267-46.660267-13.0816l-46.0288-14.276266c-16.674133-5.1712-33.553067-13.713067-49.757866-21.538134-31.453867-15.197867-36.3264-26.2912-58.9312-52.096-0.9728 5.896533-2.449067 15.633067-2.6112 21.922134l-5.640534-4.7872 3.0464-61.422934 3.1488-53.819733 4.778667-7.765333c-0.0768 14.037333 0.512 38.4768 1.518933 51.285333z" fill="#FDF8F1" /><path d="M995.490133 373.12l3.729067-0.1536c4.1472 12.253867-0.1792 32.964267-0.238933 46.865067-0.034133 7.168 5.7344 21.1968 7.927466 28.970666l7.227734 25.668267c-60.7232-37.248-67.797333-17.749333-132.488534-44.7232-50.901333-21.2224-83.217067-38.0928-145.1776-24.098133l-105.386666 23.799466c-21.188267 4.7872-67.242667 18.176-70.161067 41.207467-2.568533 20.2496-9.258667 39.125333-29.141333 45.917867l-64.802134 22.126933c-17.698133 6.0416-36.104533 15.112533-50.9184 25.9584l-26.24 19.234133c-24.251733-6.3744-5.376-22.8608-28.5184-22.775466l-17.5616 0.059733c-41.770667 0.145067-81.501867-0.836267-123.127466-4.369067-26.274133-2.2272-51.5584-3.208533-77.653334-3.063466l-82.346666 0.469333c-12.117333 0.068267-23.202133 0.802133-35.490134 1.570133l0.546134 14.702934c-1.706667-1.860267-5.1456-6.203733-5.8368-8.6784l-4.2496-15.223467c-1.1776-4.206933-2.858667-8.840533-3.072-11.588267 12.4416 9.719467 13.269333-6.596267 57.2672-5.76 29.3376 0.554667 58.0608 1.9968 85.905066-1.7664l50.978134-6.894933 61.098666 6.656c26.026667 2.833067 53.1968 2.645333 79.633067 1.6128 52.718933-10.4704 95.419733-35.780267 135.2192-70.442667 57.301333-49.902933 169.045333-73.1904 244.369067-85.162666 10.6752-1.698133 21.486933-3.498667 32.136533-4.334934l55.1424-4.334933c41.898667-3.293867 65.5104 32.674133 94.6688 35.712l45.9776 4.7872 41.002667 4.2496-0.401067-36.189867z" fill="#FDF4ED" /><path d="M995.618133 278.229333l-0.119466 28.151467-27.912534-12.373333c-20.317867-9.0112-61.636267-22.536533-84.906666-25.506134l-45.909334-5.8624c-11.8784-1.518933-25.378133-0.9472-37.316266-0.008533l-77.090134 6.0416-36.078933 3.7888-36.7616 4.8128-114.747733 15.650133c-36.1216 4.923733-72.797867 13.7472-107.281067 25.224534-24.6528 8.200533-48.170667 20.855467-71.671467 31.428266l-28.16 12.663467c-31.044267 13.969067-87.3984 29.013333-120.516266 29.4912l-101.512534 1.467733c-17.194667 0.247467-38.1184 6.528-54.2464 12.100267l-39.936 13.789867c-1.570133-7.773867 0.733867-21.572267 2.8672-31.453867 138.120533-66.321067 134.613333 4.8896 319.735467-73.1136l61.653333-25.984c43.554133-18.3552 109.5424-31.479467 157.2864-36.539733l41.472-4.394667 41.309867-4.309333 41.821867-4.2752 43.076266-3.396267 56.618667-4.3264c52.027733-3.976533 109.149867-0.2048 157.8752 16.904533l26.589867 9.335467c13.2608 4.6592 26.7008 11.0592 33.8432 20.701867z" fill="#FCEADD" /><path d="M425.745067 708.4032l-8.32 8.311467-0.5888 71.5008 28.032 1.160533-4.488534 4.770133-27.912533-0.110933-92.032-0.938667c-3.925333-0.042667-65.8688-8.695467-74.205867-10.564266-68.898133-15.470933-146.8928-33.348267-204.765866-74.3424-29.841067-21.137067-36.6592-65.4848-35.831467-96.682667 0.170667-6.289067 1.6384-16.034133 2.6112-21.922133 22.6048 25.8048 27.477333 36.898133 58.9312 52.096 16.2048 7.8336 33.083733 16.366933 49.757867 21.538133l46.0288 14.276267c15.1296 4.693333 31.6928 9.736533 46.660266 13.0816l66.372267 14.7968c43.3408 9.668267 107.5712 6.903467 149.7344 3.029333z" fill="#FDEBDD" /><path d="M836.573867 502.459733c6.801067 1.527467 19.413333 4.4032 26.615466 4.181334l47.121067-1.4592c27.0848-0.836267 91.374933 6.6816 113.032533 19.899733l0.264534 67.754667-3.703467 6.237866c-6.596267 23.406933-45.021867 51.345067-64.622933 57.301334-14.139733 8.541867-35.908267-24.9856-43.246934-37.5808-7.7056-13.218133-9.941333-25.4976-52.181333-23.773867-10.4192 0.426667-23.04 1.7408-32.128 3.584l-64.896 13.141333c-6.391467 1.297067-21.000533 0.093867-27.1104 0.0512-12.859733-3.234133-26.222933-7.022933-41.693867-12.8768-8.5504-3.234133-18.6112-26.257067-12.6208-33.0752 7.8336-8.9088 21.7088-16.315733 33.4592-21.5552 57.1648-25.4976 63.2576-45.2352 98.286934-43.1872l23.415466 1.365334z" fill="#F98986" /><path d="M667.272533 679.7312c2.619733 10.5728 29.4656-0.110933 29.9008 7.893333l1.152 21.495467 1.0752 34.449067c0.136533 4.309333-9.540267 13.559467-13.687466 13.576533l-67.5072 0.298667c-2.594133 0.008533-10.666667 4.5056-9.992534 4.9664l-68.471466 12.544-67.797334 11.3152c-8.763733 1.4592-20.036267 3.396267-27.067733 3.106133l-28.032-1.160533 0.5888-71.5008 8.32-8.311467c26.282667-2.423467 53.358933-7.2704 81.493333-11.52l31.9232-4.829867 28.245334-4.258133 31.684266-4.420267c23.261867-3.242667 46.5408-3.712 68.181334-3.652266z" fill="#FBD5C3" /><path d="M854.766933 675.2512l0.571734 89.1136 18.082133 2.269867c-0.4096 0.64-7.330133 3.882667-9.787733 4.078933l-36.846934 2.909867c-20.642133 1.629867-42.760533 2.6368-62.8992 0.708266l-41.6768-3.9936c-11.332267-1.083733-28.7488-7.645867-40.046933-7.68l-73.949867-0.247466c-0.674133-0.4608 7.3984-4.957867 9.992534-4.9664l67.5072-0.298667c4.1472-0.017067 13.824-9.275733 13.687466-13.576533L698.325333 709.12 697.173333 687.624533c-0.426667-7.995733-27.281067 2.679467-29.9008-7.893333 10.632533 0.477867 21.828267 1.450667 33.706667 2.978133l31.36 4.0192c26.001067 3.328 54.468267 3.259733 80.315733 0.631467l36.497067-3.703467 0.605867-13.124266c1.5872 0.8448 4.992 2.798933 5.009066 4.727466z" fill="#FDDCCE" /><path d="M932.053333 666.205867c2.5856 0.384 9.198933 0.648533 9.352534 3.345066l0.5632 10.308267c0.5632 10.248533 1.7408 22.596267 1.339733 30.941867l-1.4848 30.976 13.738667 1.7408c-1.390933 6.869333-74.231467 23.918933-82.133334 23.099733l-18.082133-2.269867-0.571733-89.1136c0.085333 0.452267 12.2368 5.888 15.778133 5.0688l61.499733-14.114133z" fill="#FCBDAB" /><path d="M1014.126933 474.4704c0.938667 3.328 6.254933 9.659733 5.7088 12.962133l-3.566933 21.512534c3.054933 5.998933 7.057067 12.288 7.074133 16.136533-21.6576-13.218133-85.956267-20.736-113.032533-19.899733l-47.121067 1.4592c-7.202133 0.221867-19.8144-2.653867-26.615466-4.181334l-3.84-5.162666-33.006934-0.512 3.908267-13.098667c75.8528-42.965333 131.857067-14.788267 210.193067 9.489067l0.298666-18.696534z" fill="#FDF3EB" /><path d="M955.554133 743.5264l-13.738666-1.7408 1.4848-30.976c0.401067-8.3456-0.776533-20.693333-1.339734-30.941867l-0.5632-10.308266c-0.145067-2.705067-6.766933-2.961067-9.352533-3.345067l13.8496-4.565333c2.8928-0.955733 8.507733-4.3776 9.386667-5.282134 19.601067-5.956267 58.026667-33.885867 64.622933-57.301333l3.703467-6.237867c0.264533 68.3776 8.610133 127.889067-68.061867 150.698667z" fill="#F9ADA0" /><path d="M1014.126933 474.4704l-0.298666 18.696533c-78.336-24.277333-134.3488-52.445867-210.193067-9.489066l-52.855467 0.477866c-7.517867 45.508267-36.471467 34.090667-101.76 58.615467-27.1616 10.205867-53.947733 24.704-73.181866 49.501867L553.813333 620.654933c-35.319467 45.5168-78.318933 55.953067-132.206933 59.767467l-47.812267-1.339733c-6.314667-30.890667-40.942933-16.6656-19.447466-39.150934l17.732266-18.551466c2.901333-3.037867 6.8608-7.8592 8.695467-10.4192 4.1984-5.853867 8.832-18.730667 9.045333-27.0592l26.24-19.234134c14.805333-10.8544 33.220267-19.9168 50.9184-25.9584l64.802134-22.126933c19.882667-6.784 26.5728-25.668267 29.141333-45.917867 2.9184-23.04 48.9728-36.420267 70.161067-41.207466l105.386666-23.799467c61.960533-13.994667 94.2848 2.875733 145.1776 24.098133 64.699733 26.973867 71.765333 7.4752 132.488534 44.7232z" fill="#F98986" /><path d="M361.2928 561.117867l8.7296 10.589866c-22.1184 57.480533-81.390933 29.7984-145.117867 28.040534l-31.2832-0.861867c-1.152-0.034133-6.254933 2.8416-5.521066 2.645333-20.9664 2.7904-40.2944 9.949867-62.020267 20.181334-32.145067 15.121067-81.2544-30.378667-100.4288-51.2256l-0.546133-14.702934c12.288-0.759467 23.3728-1.501867 35.490133-1.570133l82.346667-0.469333c26.094933-0.145067 51.387733 0.836267 77.653333 3.063466 41.6256 3.5328 81.3568 4.522667 123.127467 4.369067l17.5616-0.059733z" fill="#F68E8C" /><path d="M955.2896 656.366933c-0.878933 0.896-6.493867 4.3264-9.386667 5.282134l-13.8496 4.565333-61.499733 14.114133c-3.541333 0.810667-15.6928-4.616533-15.778133-5.0688-0.008533-1.928533-3.421867-3.882667-5.009067-4.727466-21.6832-37.060267-77.943467-49.664-114.030933-58.734934 6.109867 0.0512 20.718933 1.245867 27.1104-0.0512l64.896-13.141333c9.079467-1.8432 21.7088-3.157333 32.128-3.584 42.24-1.723733 44.475733 10.555733 52.181333 23.773867 7.338667 12.5952 29.1072 46.122667 43.246933 37.5808z" fill="#FB9D99" /><path d="M380.7744 610.961067c-1.8432 2.56-5.802667 7.381333-8.695467 10.4192l-17.732266 18.551466c-21.495467 22.485333 13.1328 8.2688 19.447466 39.150934l47.812267 1.339733c2.730667 8.661333-80.930133 2.705067-89.9584 1.902933-44.014933-3.908267-85.060267-14.7456-124.416-29.824l-10.9568-14.856533c19.473067-9.053867 35.387733-12.091733 56.576-12.16l94.6432-0.273067c6.493867-0.017067 19.7888-10.129067 25.506133-11.869866l7.773867-2.372267z" fill="#F7918F" /><path d="M389.8112 583.893333c-0.2048 8.337067-4.846933 21.213867-9.045333 27.0592l-7.773867 2.372267c-5.717333 1.749333-19.003733 11.8528-25.506133 11.869867l-94.6432 0.273066c-21.179733 0.059733-37.0944 3.0976-56.576 12.16l10.9568 14.856534c-4.5568-1.749333-10.478933-4.701867-13.508267-7.7568-10.734933-10.837333 17.5104-14.455467 17.8688-26.5472 0.1024-3.456-4.437333-11.3152-7.671467-12.228267l-15.8208-4.437333c-0.733867 0.196267 4.3776-2.679467 5.521067-2.645334l31.2832 0.861867c63.726933 1.757867 122.999467 29.44 145.117867-28.040533l-8.7296-10.589867c23.1424-0.085333 4.266667 16.401067 28.5184 22.775467z" fill="#FCEBE1" /><path d="M803.6352 483.677867l-3.908267 13.098666 33.006934 0.512 3.84 5.162667-23.415467-1.365333c-35.029333-2.048-41.1136 17.698133-98.286933 43.1872-11.7504 5.239467-25.6256 12.6464-33.4592 21.5552-2.449067-17.373867 29.1072-10.897067 11.639466-32.5888l-24.823466 5.9392c-6.690133 1.604267-13.8752 2.824533-19.208534 3.584 65.288533-24.5248 94.242133-13.1072 101.76-58.615467l52.855467-0.477867z" fill="#FAE7DF" /></svg>