<?xml version="1.0" standalone="no"?><!DOCTYPE svg PUBLIC "-//W3C//DTD SVG 1.1//EN" "http://www.w3.org/Graphics/SVG/1.1/DTD/svg11.dtd"><svg class="icon" width="256px" height="256.00px" viewBox="0 0 1024 1024" version="1.1" xmlns="http://www.w3.org/2000/svg"><path d="M333.531843 464.299937c1.314125 12.825522-2.380786 24.439318-9.898606 34.704857-22.195065 30.29315-59.784171 51.404488-90.913582 70.621438-23.884655 14.754044-39.073896 27.289434-59.784171 45.874921-14.088448 12.63779-27.775831 25.343846-41.326682 38.502167-48.349573 46.975715-70.629972 99.93326-61.047097 168.11418-5.623433-1.979721-9.130611-4.633572-13.166853-8.900213-22.365731-23.654256-35.908049-59.016175-38.5107-91.101314-1.399458-17.220162-1.809056-38.630166 2.090654-55.235931 7.918885-33.697929 23.048394-60.808164 45.781056-85.674147 23.66279-25.881443 50.858358-41.275483 80.22138-59.750038 16.375367-10.308204 32.878734-20.787074 49.262634-31.086744l0.170666-1.655457c4.053309-0.759462 8.746614-3.652245 12.53539-5.777032 34.11606-19.16575 67.873722-39.03123 102.040981-58.086047l2.218654 0.093866c4.514106 5.913564 10.214338 12.58659 13.610584 19.293749 3.310913 6.536494 4.31784 13.644717 6.707159 20.061745z" fill="#F9FEE0" /><path d="M386.130991 449.272829l0.102399-3.191448 0.836262-0.57173c-0.281598 1.595724-0.853328 3.268247-0.938661 3.754644zM385.19233 453.974667l0.102399-3.191448 0.836262-0.571729c-0.290132 1.63839-0.836262 3.191447-0.938661 3.754643zM384.253669 458.667972l0.102399-2.23572 0.836262-0.588797c-0.315731 1.578657-0.913061 2.653851-0.938661 2.815983zM383.315008 463.361276c0.042666-0.733862-0.145066-1.501858 0.102399-2.235719l0.836262-0.588797c-0.127999 0.62293 0.204799 1.518924-0.1024 2.23572l-0.836261 0.588796z" fill="#B0ED8C" /><path d="M131.617335 654.020386c1.305592 3.643711 3.891176 4.718905 2.858649 9.352477l5.5893 0.981327c-41.719214 72.44756-16.870298 148.342567 40.874418 201.905975 21.614802 20.053212 54.152205 37.674438 82.858164 44.867995 25.958243 6.502361 69.068381 7.372755 92.278907-7.287423l0.059733 1.800523 2.75625 1.01546c-43.186938 33.714995-77.132332 58.751644-134.731983 57.249786-13.994582-0.366931-26.154508-1.544524-39.705359-5.401567-1.11786-0.315731-2.431985 0-3.063448-0.187732-13.252186-4.130108-38.425367-18.832952-49.757565-27.724632-32.196071-25.292647-55.398064-68.12972-61.072696-108.449475-9.582875-68.172386 12.697523-121.138465 61.047097-168.11418z" fill="#E2F0CE" /><path d="M447.178087 278.342666c9.318343 25.949709 19.566815 51.575154 27.707565 77.96006 0.290132 0.930128 0.196265 2.13332 1.407992 1.868789l20.667608-105.189762 2.696517 2.466118c-0.119466 13.405785 0.563197 26.905437 0.162132 40.302689-0.674129 22.391331-2.867183 45.132526-3.839977 67.540923-0.836262 19.26815 0 39.065363-1.877322 58.231114-0.110933 1.14346-0.017067 2.602651 0.042667 3.805843 0.162132 3.293847 2.065054 0.383998 3.421846-0.341331 29.405688-15.564706 57.505784-33.586996 86.77494-49.4077 2.619717-1.416525 8.21755-2.628251 9.821807-5.205302 0.904528-1.459191 1.672523-5.333301 2.13332-7.261822 1.971188-8.251683 3.182914-16.844698 4.881038-25.173181 6.673026-32.673935 12.595124-65.484403 22.766795-97.450076 0.665596-2.099187 2.338119-3.669311 1.689589-6.297561 1.996788-0.0768 1.783456-0.426664 1.877322 1.407991 0.0768 1.484791 0.170666 3.310913 0.042667 4.744505-2.901316 32.853134-6.178096 67.540924-7.594621 100.411124-0.204799 4.838371 0.230399 9.762074 0.042667 14.600445 14.643111-7.850619 28.748626-16.716699 43.246671-24.848916 44.373064-24.891582 88.925327-49.834364 133.648255-73.915285 2.21012-1.186126 15.351374-9.497542 16.580167-8.302883l-3.30238 7.500754-77.46513 114.593438c9.224477 0.213332 18.517221-0.273065 27.750231-0.042666 36.479779 0.913061 73.232622 3.387713 109.823334 3.814377l5.188235 1.390925c-2.124787 2.406385-5.316234 1.945588-7.953018 2.380785-22.766795 3.737577-46.352785 4.113042-69.512112 5.623433-17.382295 1.134926-35.122987 3.140248-52.573548 3.780244-7.782353 0.281598-15.624439-0.392531-23.398258 0.076799-0.759462 0.221865-2.372252 1.971188-2.909849 2.722117-3.310913 4.590905-6.220762 10.436203-9.437809 14.984442-18.312422 25.855843-36.667511 51.660487-54.42527 77.994194l-7.065557 12.185526c5.828231-0.648529 11.502864-1.271459 17.416428-0.981327 48.119175 2.355186 96.528481 2.338119 144.613522 4.718904l16.418034 0.486397c-2.423452 2.363719-5.043169 5.418634-8.123684 6.903425-5.478367 2.636784-12.66339 2.18452-18.628154 2.978115-55.628463 7.355689-112.187053 12.944988-168.105647 17.843092-1.740789 0.153599-3.805844 1.476258-6.03303 1.006927l-7.15089 12.100194-59.613505 87.363736c2.636784-0.110933 5.324768 0.179199 7.961552-0.017066 13.909249-1.023994 28.356095-4.061842 42.299477-5.597833 19.199884-2.116254 38.4851-3.029315 57.744716-5.657566 4.31784-0.230399 0.62293 3.25118 0.170666 4.39464-1.04106 2.602651-0.153599 3.780244-3.592512 5.802632-2.636784 1.553057-5.666099 0.085333-6.911958 2.943982-9.215944 0.964261-19.404682 3.046382-28.612093 4.727438-26.180108 4.787171-54.442336 9.292744-80.067781 15.726838-1.134926 0.281598-2.295453 0.153599-3.447446 0.315731-2.70505 3.908243-7.884752 8.669814-9.028211 13.047388-1.501858 1.023994-3.106114 3.22558-4.181308 4.735971-46.096787 64.682274-89.50559 131.873333-138.57196 194.371088-10.513003 13.388719-21.290538 28.535294-34.781655 38.95443-0.827728 0.639996-1.681056 2.26132-1.851722 2.372252-23.210526 14.660178-66.329198 13.789783-92.278907 7.287423-28.705959-7.193556-61.243362-24.814783-82.858164-44.867995-57.736183-53.563408-82.593632-129.458415-40.874419-201.905975 9.28421-16.119369 29.678753-35.464318 44.142666-46.958648 20.863873-16.571633 46.10532-32.016872 68.539317-46.506385 34.645123-22.382798 70.928636-43.024806 106.102823-64.82734 6.613293-4.095975 12.748723-9.301277 19.686281-12.714589-0.145066-4.283707 1.211726-8.430882 1.945588-12.620724 0.238932-1.373858-0.204799-2.943982 0.017066-4.198374 0.657063-3.788777 2.269853-7.927419 2.815983-12.211126 0.042666-0.307198-0.017067-0.631463 0-0.938661l0.836262-0.588797c0.307198-0.716796-0.017067-1.604257 0.102399-2.23572 0.110933-0.57173-0.102399-1.297059 0-1.877321 0.0256-0.162132 0.62293-1.237326 0.938661-2.815983 0.110933-0.57173-0.110933-1.297059 0-1.877322s0.648529-2.116254 0.938661-3.754644c0.0512-0.307198-0.0512-0.631463 0-0.938661 0.085333-0.49493 0.657063-2.15892 0.938661-3.754644 2.329586-13.072987 4.556772-26.111842 7.483688-39.00563l5.196769-35.191253c0.52053 0 1.331192 2.559984 1.399458 3.293846 2.918382 29.968885 2.295453 60.893497 0.904528 91.050115-0.204799 4.522639 0.230399 9.130611 0.042666 13.661783 5.631966-3.259714 11.289532-6.57916 16.947097-9.821807 6.510894-3.729044 12.876722-7.790886 19.353483-11.639396 3.430379-2.039454 19.234017-9.489009 19.933746-11.997794l2.961048-20.522542c1.66399-6.877825 3.660778-14.583378 4.650639-21.640402 1.339725-9.506076 0.196265-12.313525-2.28692-21.154005-8.285816-29.405688-15.880437-59.536705-23.987054-89.181325 0.221865-5.478367 2.15892-10.956734 0.102399-16.315635l2.252786-3.413312 5.162636 4.693305z" fill="#F7FEDD" /><path d="M333.531843 464.299937c3.524245 9.454876 0.042666 22.587596-3.558378 31.658475-1.126393 2.841583-0.836262 3.831443-0.119466 6.766892l3.25118 0.981328 1.407992 3.336513-1.544524 2.244253-3.191448 0.102399 0.947195 5.631966c6.451161 1.459191 7.611687-2.380786 12.228192-5.171169l0.750929-0.904527-0.776529-4.258108c2.70505-0.486397 5.265035 1.63839 7.927419 0.878928 2.090654-0.59733 0.853328-3.87411 2.380785-5.128502 3.481579-2.867183 6.997291-1.646923 10.402071-2.747717 1.877322-0.605863 2.798916-2.346652 4.300774-3.217047 1.71519-0.989861 4.829837-1.314125 6.015963-2.440519 1.518924-1.442125 3.336513-9.181811 4.206908-11.758862 0.49493-1.467724 0.460797-3.336513 2.338119-3.763177-0.221865 1.262926 0.221865 2.833049-0.017067 4.198375-0.733862 4.189841-2.090654 8.337016-1.945588 12.620723-6.937558 3.413313-13.072987 8.618614-19.68628 12.71459-35.174187 21.802534-71.4577 42.444543-106.102823 64.82734-22.433997 14.498045-47.675444 29.934752-68.539318 46.506384-2.141854-0.759462-3.174381 1.390925-4.351973 1.774923-1.817589 0.588796-7.517821-0.878928-6.911959-3.652245 20.710274-18.585487 35.899516-31.120878 59.784171-45.874921 31.129411-19.225483 68.718516-40.328289 90.913582-70.621438 7.526354-10.265538 11.212732-21.879334 9.898607-34.704857z m-6.570627 45.08986l-1.407991-4.701838-3.285313 4.693305h4.693304z" fill="#B0ED8C" /><path d="M184.207949 617.387009c-14.463912 11.49433-34.858455 30.83928-44.142665 46.958648l-5.5893-0.981327c1.032527-4.633572-1.553057-5.700232-2.858649-9.352477 13.550851-13.166853 27.238235-25.864376 41.326682-38.502166-0.605863 2.773317 5.094369 4.241041 6.911959 3.652244 1.186126-0.383998 2.218653-2.534385 4.351973-1.774922z" fill="#B5E3A8" /><path d="M578.658889 772.351402c-1.971188 0.034133-3.27678-1.604257-5.162635-1.877322-5.666099-0.810662-6.015964 2.969582-8.908746 6.126896-6.724226 7.330089-10.845801 11.784462-16.477767 20.147078-15.34284 22.800928-30.625948 45.781056-45.379991 69.19638-30.395549 48.221574-55.858861 101.426585-105.00203 132.607196-38.092569 24.166253-83.506693 31.496342-127.154428 20.377476-29.013157-7.389822-62.310022-25.633978-81.689105-48.86157-2.901316-3.481579-5.247968-7.825019-7.492221-11.758862 0.631463 0.196265 1.945588-0.127999 3.063448 0.187732 13.559384 3.857043 25.710777 5.034636 39.705359 5.401567 57.608184 1.501858 91.545045-23.534791 134.731983-57.249786 16.008436-12.492724 29.294756-23.876122 44.142666-37.563505 34.03926-31.402476 64.946806-64.631075 92.039975-102.373779 1.16906-1.629857 1.655457-1.723723 2.815982-2.815983 1.860255-1.749323 4.437306-3.165847 5.631966-5.631966l1.877322-1.877322c3.788777-3.370646 13.977515-9.241544 18.781753-10.333804 2.252786-0.511997 11.835662-0.290132 14.591911-0.034133 9.565809 0.887461 31.197677 20.25801 39.876025 26.333707z" fill="#F2FCDA" /><path d="M913.009928 621.141653c0.136533 1.766389 4.88957-0.059733 3.754644 2.346652-0.972794 2.065054-9.070878 1.194659-5.785565 6.60476l-10.171672 4.667705c4.488506 3.652245 0.093866 4.505573-1.407991 7.04849-0.793595 1.339725-0.776529 3.438912-1.877322 4.693305s-4.266641 2.218653-5.000503 2.978116c-1.433591 1.501858-1.698123 5.930631-2.952516 7.850619-1.851722 2.833049-6.732759 3.080515-9.710874 4.377573-1.049594 0.452264-1.766389 1.442125-2.798916 1.894389-1.407991 0.614396-7.244756 1.962655-7.244757 3.080514 1.578657 1.885855 3.788777 1.279992 5.973298 2.474652 5.410101 2.961049 3.293847 10.623936 2.995181 15.88897-2.833049 2.568518-7.509288 2.577051-9.813273-0.614396l-0.093867-10.700735c-1.706656-0.255998-4.96637-0.102399-4.556772 2.15892 0.204799 1.134926 1.655457 1.902922-0.136532 3.012248-0.162132 0.102399-0.307198 0.230399-0.452264 0.375465l-2.696517-0.776529-2.491718 2.278386c1.493324 2.901316 6.357295-0.426664 5.631965 3.285314-3.268247-0.238932-7.20209-0.49493-7.509287 3.754644 1.04106-0.221865 3.310913 0.674129 3.74611-0.614397 1.314125-3.865577 8.200484-0.989861 7.517821 1.083727-1.604257 2.278386-3.25118 2.517318-5.947697 2.508785l-10.018073 4.070375c-0.042666 3.933843 7.935952 3.626645 8.456482 5.640499l-1.817589 2.80745c1.894389 3.259714 4.155708 1.937055 6.963158 2.363719 5.734365 0.870395 11.033533 1.288526 16.964164 0.964261 2.363719-0.127999 5.930631-2.474652 7.944485-0.042667-4.505573 0.725329-7.64582 0.861861-12.211126 0.938661-2.491718 0.042666-5.239435-0.409598-7.517821 0.452264v0.486397c-5.307701 0.0512-10.658069-0.034133-15.96577 0 0.750929 5.427167 3.35358 10.359404 4.479973 15.709772 13.823916 65.9964-34.167259 133.332524-97.219677 151.235349-62.898818 17.860158-122.879255-16.998297-153.180937-71.764898-2.739183-4.949303-5.623433-10.726335-6.715693-16.290035 3.208514 1.740789 8.516215 4.070375 11.920995 5.452767 59.553772 24.302786 113.467045 12.509791 160.44276-29.857952 27.758765-25.036648 47.79491-64.665208 51.148489-101.938581 0.639996-7.07409-0.426664-14.890576 0.017067-22.05 5.137036-0.179199 10.342337 0.264532 15.479373-0.017067 21.9988-1.211726 52.249283-7.364222 71.867297-17.826025z" fill="#60B861" /><path d="M994.716099 517.837746c1.271459 3.754644 4.070375 7.850619 5.444233 11.938061 8.072484 24.115054 7.526354 54.860467 0.691196 79.188853-13.644717 48.545839-60.492433 89.573857-110.377997 97.646341-2.013854-2.431985-5.580766-0.085333-7.944485 0.042666-5.922097 0.324265-11.229799-0.093866-16.964164-0.964261-2.80745-0.426664-5.060236 0.895995-6.963158-2.363719l1.817589-2.807449c-0.52053-2.013854-8.499148-1.706656-8.456482-5.640499l10.018073-4.070376c2.696517 0.008533 4.334907-0.230399 5.947697-2.508785 0.682663-2.082121-6.212229-4.949303-7.517821-1.083726-0.435197 1.288526-2.70505 0.401064-3.74611 0.614396 0.307198-4.249574 4.249574-3.993576 7.509287-3.754644 0.725329-3.711977-4.138642-0.383998-5.631965-3.285313l2.491718-2.278386 2.696517 0.776528c0.136533-0.136533 0.281598-0.273065 0.452264-0.375464 1.791989-1.11786 0.341331-1.877322 0.136532-3.012249-0.409598-2.26132 2.850116-2.414919 4.556772-2.15892l0.093867 10.700735c2.303986 3.191447 6.980224 3.182914 9.813273 0.614396 0.298665-5.265035 2.414919-12.927922-2.995181-15.88897-2.18452-1.194659-4.39464-0.588796-5.973298-2.474651 0-1.126393 5.828231-2.466118 7.244757-3.080515 1.04106-0.452264 1.757856-1.442125 2.798916-1.894389 2.978115-1.297059 7.867686-1.544524 9.710874-4.377573 1.254392-1.919988 1.518924-6.348761 2.952516-7.850619 0.733862-0.767995 3.891176-1.71519 5.000503-2.978115s1.09226-3.35358 1.877322-4.693305c1.493324-2.542918 5.887964-3.396246 1.407991-7.048491l10.171672-4.667705c-3.27678-5.410101 4.812771-4.539706 5.785565-6.60476 1.134926-2.406385-3.618111-0.580263-3.754644-2.346652 23.645723-12.61219 45.994388-32.947 60.560699-55.457797 7.441022-11.511397 15.837771-29.456888 19.21695-43.681868 0.366931-1.553057-0.529063-3.566912 1.928522-4.172775zM878.253872 707.549662v0.486397c-2.269853 0.844795-5.026103 0.426664-7.509288 0.452264v-0.486397c2.269853-0.861861 5.026103-0.409598 7.509288-0.452264z" fill="#65BD5D" /><path d="M535.454885 663.406996c-1.979721 7.586087-10.086339 18.64522-14.583378 25.335313-2.978115 4.437306-7.133823 9.634075-8.089551 14.446846-0.349865 1.757856-4.625039 5.845298-6.00743 7.15089-2.065054 1.945588-1.058127 2.926916-1.399459 5.162635-0.153599 1.015461-0.904528 1.954121-0.913061 2.850116-0.034133 3.046382 4.155708 9.156211 2.739184 13.072987-0.972794 2.18452-3.174381 1.134926-4.932237 1.638391-3.763177 1.09226-6.621826 3.27678-6.690093 7.398355l-1.09226 0.793595c-3.788777-0.443731-2.585584 0.639996-3.652244 1.919988-3.754644 4.497039-1.71519 2.875716-1.365325 7.133824 0.127999 1.527457-0.836262 2.508785-0.981328 3.737577-0.358398 3.071981 1.314125 4.479973 2.397852 6.980224 1.134926 2.628251-0.127999 4.650638 4.189842 5.674632-27.093169 37.742704-58.000715 70.971303-92.039975 102.373779h-8.456482c0.375464-2.80745-0.059733-4.479973-1.877322-6.570626 49.066369-62.489221 92.466639-129.688813 138.571959-194.371088 1.075193-1.510391 2.67945-3.711977 4.181308-4.735971z" fill="#A3DE8B" /><path d="M824.724597 592.034629c0.947194-0.196265 3.703444-1.425058 5.256501-1.791989 1.416525-0.332798 1.544524-0.085333 1.331192 1.339725-0.358398 2.457585-2.952515 9.011145-3.950909 12.014861-0.947194 2.850116-0.836262 1.484791-1.126393 4.872503-0.401064 4.812771-9.087945 17.843092-12.347659 22.041467-6.502361 8.388216-17.390828 7.005824-27.255301 6.638893-27.024903-1.006927-53.913273-5.009036-80.707777-7.569021-3.592512-0.341331-6.417028-0.793595-10.350871-0.921594-1.843189-0.059733-3.79731 0.972794-3.285313-1.877322 16.947097-2.167454 35.67765-8.251683 53.034345-11.298065 22.766795-4.002109 46.950115-5.546633 69.298779-11.468731 1.766389-0.46933 10.120472-2.73065 10.615403-3.473045 0.213332-1.757856 1.083727-3.532779 1.331191-5.239435s0.810662-3.82291-1.860255-3.268247z" fill="#99DC7D" /><path d="M824.724597 592.034629c2.670917-0.554663 2.107721 1.535991 1.860255 3.268247s-1.11786 3.490112-1.331192 5.239435c-0.49493 0.742395-8.84048 3.003715-10.615402 3.473045-22.357198 5.922097-46.540518 7.466621-69.29878 11.468731-17.356695 3.054915-36.087248 9.130611-53.034345 11.298065-11.511397 1.476258-24.038254 1.595724-35.686183 2.815983 1.245859-2.858649 4.275174-1.399458 6.911958-2.943983 3.438912-2.022388 2.551451-3.199981 3.592511-5.802631 0.452264-1.14346 4.147175-4.625039-0.170665-4.39464 21.589202-2.943982 44.347464-7.048491 66.226798-10.316737 30.156617-4.497039 61.738292-8.021285 91.553578-14.105515z" fill="#F7FEDD" /><path d="M524.190953 746.051828c-4.804238 1.09226-14.992976 6.954624-18.781752 10.333804-1.075193-1.476258-2.619717-0.196265-1.450658-2.858649 2.790383-6.374361 7.236223-4.795704 12.074593-6.715693 3.131714-1.245859 4.138642-4.718905 8.166351-0.759462zM497.891379 763.903453c-1.075193-1.484791-2.611184-0.196265-1.450657-2.858649 1.220259-2.790383 4.94077-7.236223 7.091157-2.78185-1.203193 2.466118-3.77171 3.891176-5.631966 5.631966z" fill="#A3DE8B" /><path d="M392.701618 862.514055c1.817589 2.099187 2.252786 3.763177 1.877322 6.57916h8.456482c-14.839377 13.687384-28.134229 25.070781-44.142666 37.563505l-2.75625-1.01546-0.059733-1.800523c0.162132-0.102399 1.023994-1.732256 1.851722-2.372252 13.482585-10.419137 24.260119-25.565712 34.781656-38.95443z" fill="#B5E3A8" /><path d="M994.716099 517.837746c-2.457585 0.605863-1.561591 2.628251-1.928522 4.172775-3.387713 14.22498-11.775929 32.170471-19.21695 43.681868-14.557778 22.510797-36.914976 42.845607-60.560699 55.457797-19.618014 10.461803-49.868497 16.614299-71.867298 17.826025-5.137036 0.281598-10.342337-0.162132-15.479372 0.017067-0.443731 7.159423 0.62293 14.975909-0.017067 22.049999-3.35358 37.273374-23.389725 76.901933-51.14849 101.938582-46.967182 42.367743-100.888988 54.152205-160.44276 29.857952-3.396246-1.390925-8.71248-3.711977-11.920994-5.452767-7.67142-4.172775-16.469233-10.111939-23.483591-15.027109-8.678347-6.075696-30.318749-25.446246-39.876025-26.333707-2.75625-0.255998-12.347658-0.46933-14.591911 0.034133-4.019176-3.959443-5.026103-0.486397-8.16635 0.759462-4.838371 1.919988-9.28421 0.341331-12.074594 6.715693-1.160526 2.653851 0.383998 1.373858 1.450658 2.858649l-1.877322 1.877322c-2.150387-4.454373-5.870898 0-7.091157 2.78185-1.160526 2.653851 0.383998 1.373858 1.450658 2.858649-1.160526 1.09226-1.646923 1.194659-2.815983 2.815983-4.31784-1.023994-3.054915-3.054915-4.189841-5.674632-1.075193-2.491718-2.747717-3.908243-2.397852-6.980224 0.145066-1.228793 1.109327-2.21012 0.981327-3.737578-0.349865-4.266641-2.389319-2.645317 1.365325-7.133823 1.075193-1.279992-0.127999-2.363719 3.652245-1.919988l1.09226-0.793595c0.068266-4.121575 2.926916-6.306095 6.690092-7.398356 1.757856-0.511997 3.959443 0.54613 4.932237-1.63839 1.416525-3.916776-2.773317-10.026606-2.739183-13.072987 0.008533-0.895995 0.759462-1.834656 0.913061-2.850116 0.349865-2.23572-0.665596-3.217047 1.399458-5.162635 1.382392-1.297059 5.657566-5.393034 6.00743-7.15089 0.955728-4.821304 5.102902-10.018073 8.089551-14.446846 4.497039-6.690093 12.603657-17.749226 14.583378-25.335313 1.14346-4.377573 6.323162-9.139145 9.028212-13.047388 1.14346-0.162132 2.312519-0.0256 3.447446-0.315731 25.633978-6.434094 53.887673-10.939667 80.067781-15.726838 9.207411-1.681056 19.396149-3.763177 28.612093-4.727438 11.647929-1.220259 24.18332-1.339725 35.686184-2.815983-0.511997 2.850116 1.442125 1.817589 3.285313 1.877322 3.933843 0.119466 6.766892 0.580263 10.35087 0.921595 26.794504 2.568518 53.682874 6.570627 80.707777 7.56902 9.864473 0.366931 20.744407 1.749323 27.255302-6.638893 3.259714-4.198375 11.938061-17.228695 12.347658-22.041466 0.281598-3.396246 0.179199-2.030921 1.126393-4.872504 0.998394-3.012248 3.592512-9.565809 3.95091-12.01486 0.204799-1.416525 0.0768-1.672523-1.331192-1.339725-1.553057 0.366931-4.309307 1.595724-5.256502 1.791989-29.815286 6.08423-61.396961 9.599942-91.553578 14.105514-21.879334 3.268247-44.646129 7.372755-66.226798 10.316738-19.251083 2.628251-38.544833 3.541312-57.744716 5.657565-13.943382 1.535991-28.390228 4.573839-42.299477 5.597833-2.636784 0.196265-5.333301-0.093866-7.961552 0.017066l59.613506-87.363736 7.150889-12.100193c2.23572 0.46933 4.292241-0.853328 6.033031-1.006928 55.918594-4.906637 112.477184-10.495936 168.105646-17.843091 5.964764-0.785062 13.149787-0.341331 18.628154-2.978116 3.080515-1.484791 5.700232-4.539706 8.123684-6.903424l-16.418034-0.486398c-48.085042-2.380786-96.494348-2.363719-144.613522-4.718904-5.913564-0.290132-11.588196 0.324265-17.416428 0.981327l7.065557-12.185526c17.757759-26.333707 36.121381-52.13835 54.42527-77.994193 3.217047-4.539706 6.126896-10.385004 9.437809-14.984443 0.537597-0.750929 2.150387-2.500251 2.909849-2.722117 7.782353-0.46933 15.624439 0.204799 23.398258-0.076799 17.450561-0.639996 35.191253-2.645317 52.573548-3.780244 23.159326-1.510391 46.736783-1.885855 69.512112-5.623432 2.636784-0.435197 5.828231 0.0256 7.953018-2.380786l-5.188235-1.390925c-36.590711-0.426664-73.343555-2.909849-109.823334-3.814377-9.233011-0.230399-18.517221 0.255998-27.750231 0.042667l77.46513-114.593439 3.30238-7.500754c-1.228793-1.194659-14.370046 7.116757-16.580166 8.302883-44.722929 24.080921-89.266658 49.015169-133.648256 73.915285-14.489512 8.132217-28.595027 16.989764-43.246671 24.848916 0.187732-4.838371-0.247465-9.753541-0.042667-14.600445 1.416525-32.870201 4.693305-67.55799 7.594621-100.411124 0.127999-1.433591 0.034133-3.259714-0.042667-4.744505-0.093866-1.826122 0.119466-1.476258-1.877321-1.407991 0.648529 2.628251-1.023994 4.198375-1.68959 6.297562-10.171672 31.965673-16.093769 64.77614-22.766795 97.450075-1.698123 8.328483-2.909849 16.921497-4.881038 25.173181-0.460797 1.919988-1.228793 5.794098-2.13332 7.261822-1.595724 2.577051-7.20209 3.788777-9.821807 5.205302-29.269156 15.820704-57.369252 33.842995-86.77494 49.4077-1.365325 0.725329-3.259714 3.626645-3.421846 0.341332-0.059733-1.203193-0.153599-2.662384-0.042667-3.805844 1.877322-19.157217 1.04106-38.962964 1.877322-58.231113 0.972794-22.408397 3.165847-45.141059 3.839977-67.540924 0.401064-13.397252-0.281598-26.896903-0.162132-40.302689l-2.696517-2.466118-20.667608 105.189762c-1.211726 0.264532-1.11786-0.947194-1.407992-1.868789-8.132217-26.384907-18.380688-52.001818-27.707565-77.96006-0.170666-0.46933 0.204799-1.501858-0.153599-2.150387l-13.934849-36.35178 0.110933-2.696517c74.11155-46.62585 152.950539-81.578172 236.84123-106.444154 27.204102-8.063951 55.46633-14.148181 82.371767-23.287325 8.959946-3.037848 17.800425-6.741292 26.990769-9.164745 66.132932-17.442028 129.885079 11.170066 164.453403 68.948915 26.359307 44.057333 26.291041 96.673547 6.263428 143.094599-3.089048 7.15089-7.466621 14.114048-10.658068 21.264937-1.322659 5.589299 3.106114 9.770607 5.333301 14.079915 17.160429 33.202999 39.304295 61.268962 47.829043 98.687401 3.942376 17.296962 5.708765 37.665905 3.950909 55.176199-0.682663 6.801025-4.36904 10.956734-1.860255 18.338022z" fill="#99DC7D" /><path d="M636.890003 51.067244v0.486397c1.962655 0.861861 4.386107 0.401064 6.570627 0.452264 1.237326 0.0256 2.534385-0.102399 3.754644 0l0.588796 0.836262 2.23572 0.102399c0.59733 0.085333 1.279992-0.093866 1.877322 0l0.57173 0.836262 3.191447 0.102399c0.57173 0.110933 1.305592-0.119466 1.877322 0l0.59733 0.776529c1.561591 0.802128 3.566912 0.725329 5.034636 1.100793 18.261223 4.710371 39.986957 13.772716 55.41513 24.422252 0.102399 0.0768 0.264532 0.878928 0.964261 1.382392 9.941273 7.108224 17.971091 15.803637 27.204102 24.447851 1.382392 1.297059 2.082121 2.628251 1.877322-0.46933 0.477864 0.54613 0.989861 0.819195 1.058126 1.740789l2.696517 0.136533c-26.905437 9.130611-55.167665 15.223374-82.371767 23.287325-83.890691 24.865982-162.729679 59.818304-236.841229 106.444154l-0.110933 2.696517-2.75625 1.006928-0.998394 12.142859c-0.017067-0.093866-0.742395-0.238932-0.785062-0.657062-0.358398-3.618111-0.699729-8.24315 0.785062-11.554064-1.723723-1.467724-7.765286 4.846904-9.429276 6.05863-38.322968 27.997697-68.983048 56.746322-73.232622 107.084151-2.75625 32.673935 11.664996 61.542027 23.295858 91.323179L381.437686 467.11592l1.877322-2.815983c-0.54613 4.283707-2.15892 8.422349-2.815983 12.211126-1.877322 0.426664-1.851722 2.303986-2.338119 3.763177-0.861861 2.577051-2.67945 10.316737-4.206908 11.758862-1.186126 1.11786-4.300774 1.442125-6.015963 2.440519-1.501858 0.870395-2.423452 2.611184-4.300774 3.217047-3.404779 1.100793-6.920491-0.119466-10.402071 2.747717-1.527457 1.254392-0.290132 4.531173-2.380785 5.128502-2.653851 0.767995-5.222368-1.365325-7.927419-0.878928l0.776529 4.258108-0.750929 0.904527c-4.607972 2.790383-5.777032 6.621826-12.228192 5.171169l-0.947195-5.631966 3.191448-0.102399 1.544524-2.244253-1.407992-3.336513-3.25118-0.981328c-0.716796-2.935449-1.006927-3.92531 0.119466-6.766892 3.601045-9.070878 7.082624-22.203599 3.558378-31.658475-2.389319-6.417028-3.404779-13.516718-6.707159-20.061745-3.396246-6.707159-9.096478-13.380185-13.610584-19.293749l-2.218653-0.093866c1.083727-1.681056 2.764783-0.0512 0.930127-2.338119-10.700735-13.405785-23.509191-36.914976-29.107023-53.068478-26.717705-77.123799 7.918885-166.108859 84.513621-197.707601 28.05743-11.579663 63.385215-13.20952 92.295973-4.923704 6.126896 1.757856 12.023394 4.266641 18.030824 6.340229 2.23572-1.254392 1.075193-3.27678 1.467724-5.137036 11.135932-52.479682 48.93837-93.4053 99.532196-109.439336l2.184521-0.119466 0.631462-0.819195c2.312519-0.699729 4.232508-1.279992 6.570627-1.877322l2.227187-0.102399 0.588796-0.836262c0.605863-0.0768 1.331192 0.119466 1.877322 0l2.23572-0.102399 0.588796-0.836262c0.588796-0.102399 1.288526 0.093866 1.877322 0l3.191447-0.102399 0.57173-0.836262c1.237326-0.085333 2.525851 0.127999 3.754644 0l2.23572-0.102399 0.588796-0.836262c1.553057-0.085333 3.140248 0.0512 4.693305 0 3.30238-0.119466 7.133823-0.844795 9.395143-0.938661 4.957837-0.196265 10.060739-0.0512 15.027109 0z" fill="#B0ED8C" /><path d="M748.650392 105.535181c0.204799 3.097581-0.49493 1.766389-1.877322 0.46933-9.241544-8.635681-17.262829-17.331095-27.204102-24.447852-0.708262-0.503464-0.861861-1.305592-0.964261-1.382391l2.23572-0.1024 0.580263-0.836261c8.823413 9.011145 18.952418 16.853231 27.238235 26.299574z" fill="#99DC7D" /><path d="M447.178087 278.342666l-5.162635-4.693305-2.252787 3.413312c2.065054 5.358901 0.119466 10.828734-0.102399 16.315635-2.952515-10.786068-7.338622-21.930534-9.395143-32.870201-0.307198-1.646923-0.913061-2.653851-0.938661-2.815983-0.238932-1.416525 0.213332-3.234114 0-4.693305l0.998394-12.142859 2.75625-1.006928 13.934849 36.35178c0.366931 0.657063-0.017067 1.681056 0.153599 2.150387z" fill="#F7FEDD" /><path d="M383.315008 464.299937l-1.877322 2.815983-11.477264-21.862267c-11.622329-29.781153-26.052109-58.649244-23.295858-91.323179 4.249574-50.346361 34.909655-79.086454 73.232622-107.084151 1.66399-1.211726 7.705553-7.526354 9.429276-6.05863-1.484791 3.310913-1.14346 7.935952-0.785062 11.554064 0.042666 0.409598 0.767995 0.563197 0.785062 0.657062 0.213332 1.459191-0.238932 3.27678 0 4.693305l0.102399 2.23572 0.836262 0.588796c2.056521 10.939667 6.442628 22.084133 9.395143 32.870201 8.115151 29.64462 15.709771 59.775637 23.987055 89.181326 2.491718 8.84048 3.626645 11.647929 2.286919 21.154005-0.998394 7.057024-2.986649 14.762577-4.650638 21.640402l-2.961049 20.522542c-0.699729 2.508785-16.503367 9.966873-19.933746 11.997794-6.476761 3.84851-12.851122 7.910352-19.353482 11.639396-5.657566 3.242647-11.306598 6.55356-16.947098 9.821807 0.187732-4.522639-0.247465-9.130611-0.042666-13.661784 1.390925-30.156617 2.013854-61.089763-0.904528-91.050114-0.068266-0.733862-0.878928-3.293847-1.399458-3.293847l-5.196769 35.191253c-2.926916 12.902322-5.145569 25.932643-7.483688 39.00563l-0.836261 0.57173-0.102399 3.191447c-0.0512 0.307198 0.0512 0.631463 0 0.938661l-0.836262 0.57173-0.102399 3.191448c-0.110933 0.580263 0.110933 1.305592 0 1.877321l-0.836262 0.588797-0.102399 2.23572c-0.102399 0.588796 0.110933 1.305592 0 1.877322l-0.836262 0.588796c-0.247465 0.733862-0.059733 1.493324-0.102399 2.23572-0.017067 0.307198 0.042666 0.631463 0 0.938661z" fill="#9ADD7E" /><path d="M721.412157 79.24414l-0.580263 0.836262-2.23572 0.102399c-15.428173-10.641002-37.145375-19.71188-55.415131-24.422252l-0.605863-0.776528c-1.629857-0.759462-3.421846-0.767995-5.034636-1.100794-0.57173-0.119466-1.305592 0.110933-1.877322 0-0.682663-0.136533-1.911455-0.665596-3.754644-0.938661-0.59733-0.093866-1.279992 0.085333-1.877322 0-0.162132-0.0256-0.62293-0.750929-2.815982-0.938661-1.220259-0.102399-2.517318 0.0256-3.754644 0v-0.486397c-1.962655-0.836262-4.39464-0.426664-6.570627-0.452264-4.96637-0.0512-10.069272-0.196265-15.027109 0-3.097581 0.221865-6.493827-0.537597-9.395143 0.452264v0.486397c-1.553057 0.0512-3.140248-0.085333-4.693305 0-2.346652 0.127999-2.653851 0.921594-2.815983 0.938661-1.228793 0.127999-2.517318-0.085333-3.754644 0-2.167454 0.153599-3.32798 0.870395-3.754644 0.938661-0.588796 0.093866-1.288526-0.102399-1.877321 0-1.732256 0.290132-2.662384 0.904528-2.815983 0.938661-0.54613 0.119466-1.271459-0.0768-1.877322 0l-2.23572 0.1024c-0.853328 0.213332-0.537597 0.819195-0.588797 0.836261-2.338119 0.605863-4.258108 1.177593-6.570626 1.877322-1.04106 0.315731-2.141854 0.725329-2.815983 0.938661-50.593826 16.034036-88.396264 56.959654-99.532196 109.439336-0.392531 1.860255 0.759462 3.882643-1.467725 5.137036-6.00743-2.073587-11.912461-4.582372-18.030824-6.340229-28.910758-8.29435-64.238544-6.65596-92.295973 4.923704-76.594735 31.607275-111.231325 120.583802-84.513621 197.707601-1.68959 0.665596-1.297059 2.116254-3.421846 1.109326-3.003715-1.416525-4.761571-5.606366-6.886358-8.174884-23.841989-28.723026-48.921303-56.242859-74.196883-83.583493-2.551451-2.75625-5.503967-5.666099-8.473549-7.961551 11.323665-13.047388 25.002515-26.000909 40.063757-34.602457 2.867183-1.63839 6.459694-3.618111 9.693808-3.933843 1.186126-0.989861-2.397852-13.883649-2.773316-16.426567-6.809559-45.345858 3.054915-86.587208 34.773122-120.182737 38.937364-41.249883 96.050617-54.877534 149.298294-31.965673 3.985042 1.71519 7.901819 4.036242 11.733262 6.092763 0.776529 0.008533 7.441022-10.9226 8.900213-12.66339C476.703241 15.022663 534.593023-9.314256 589.282825 3.357667c35.984848 8.345549 86.066678 30.805146 113.390245 55.662596 6.929025 6.306095 12.313525 13.636184 18.764687 20.215344zM273.431941 308.396883h-0.938661v14.088448h0.938661V308.396883z" fill="#64B966" /><path d="M189.839915 270.833378c2.969582 2.295453 5.922097 5.205302 8.473549 7.961551 25.267047 27.340634 50.346361 54.869 74.196883 83.583493 2.124787 2.559984 3.882643 6.749826 6.886358 8.174884 2.13332 1.006927 1.740789-0.443731 3.421846-1.109326 5.597833 16.153502 18.414822 39.662693 29.107023 53.068478 1.826122 2.295453 0.145066 0.657063-0.930127 2.338119-34.175793 19.046284-67.933455 38.920297-102.040981 58.086047-3.788777 2.124787-8.482082 5.01757-12.535391 5.777032-6.161029-8.678347-13.900716-16.998297-19.575348-25.975309-38.032836-60.168168-33.919794-137.855164 13.004721-191.913503z" fill="#4FAC60" /><path d="M621.862894 51.067244c-2.26132 0.093866-6.092763 0.819195-9.395143 0.938661v-0.486397c2.901316-0.989861 6.297562-0.230399 9.395143-0.452264zM643.46063 52.005905c-2.18452-0.0512-4.607972 0.409598-6.570627-0.452264v-0.486397c2.18452 0.0256 4.616505-0.392531 6.57916 0.452264v0.486397zM601.203819 52.944566l-0.57173 0.836262-3.191447 0.102399c0.435197-0.068266 1.58719-0.785062 3.754644-0.938661zM655.671756 53.883227l-3.191448-0.102399-0.57173-0.836262c1.843189 0.273065 3.071981 0.802128 3.754644 0.938661zM650.03979 52.944566l-2.23572-0.102399-0.588796-0.836262c2.193053 0.187732 2.653851 0.913061 2.815982 0.938661zM581.474872 57.637871l-0.631462 0.819195-2.184521 0.119466c0.674129-0.213332 1.774923-0.62293 2.815983-0.938661zM663.189577 55.760549c-1.467724-0.375464-3.473046-0.298665-5.034636-1.100793l-0.59733-0.776529c1.61279 0.332798 3.404779 0.341331 5.034636 1.100794l0.605863 0.776528zM590.870015 54.821888l-0.588796 0.836262-2.227187 0.102399c0.0512-0.008533-0.264532-0.62293 0.588797-0.836261l2.23572-0.1024zM607.774446 52.005905l-0.588796 0.836262-2.23572 0.102399c0.162132-0.017067 0.46933-0.810662 2.815983-0.938661zM595.56332 53.883227l-0.588796 0.836262-2.23572 0.102399c0.162132-0.034133 1.083727-0.648529 2.815983-0.938661z" fill="#99DC7D" /><path d="M272.49328 308.396883h0.938661v14.088448h-0.938661z" fill="#4FAC60" /><path d="M430.273656 260.499574l-0.836261-0.588797-0.1024-2.235719c0.0256 0.162132 0.631463 1.16906 0.938661 2.815982zM326.961216 509.389797l-4.693304-0.008533 3.285313-4.693305 1.407991 4.701838z" fill="#B0ED8C" /></svg>