<?xml version="1.0" standalone="no"?><!DOCTYPE svg PUBLIC "-//W3C//DTD SVG 1.1//EN" "http://www.w3.org/Graphics/SVG/1.1/DTD/svg11.dtd"><svg class="icon" width="256px" height="256.00px" viewBox="0 0 1024 1024" version="1.1" xmlns="http://www.w3.org/2000/svg"><path d="M615.9104 389.154133c6.894933 0.9216 14.250667 0.170667 21.358933 0.64 5.333333 0.3584 11.101867 0.9984 16.4352 0.674134 1.757867-0.110933 1.262933 0.110933 2.269867-1.314134 0.085333 12.544 0.520533 24.891733-0.0256 37.085867-0.401067 8.814933 0.384 17.664 0 26.274133-0.4096 9.1136 1.143467 18.798933 0.7168 28.305067-0.315733 6.954667 0.213333 13.883733 0 21.0176-2.525867 85.358933 0.443733 171.323733-0.657067 256.8448-1.5872 6.075733-0.366933 13.627733-2.1248 19.549867-1.390933 4.693333-1.297067 8.8576-2.6368 13.781333-2.295467 8.413867-4.872533 17.8432-7.876266 25.6256-4.727467 12.279467-11.639467 23.099733-18.5856 33.9712-1.518933 2.3808-2.807467 3.754667-3.950934 5.888-0.733867 1.3824-5.154133 5.768533-6.237866 6.903467-1.979733 2.0736-3.694933 4.539733-5.6064 6.203733a372.324693 372.324693 0 0 0-20.010667 18.7648c-1.339733 1.3568-2.500267 3.114667-4.573867 2.9952 0.3328 2.321067-0.520533 1.5872-1.314133 2.261333-2.2272 1.877333-3.703467 3.950933-5.256533 5.256534-2.295467 1.937067-3.054933 2.56-4.3008 4.906666-0.6656 1.245867-3.771733 3.5328-4.949334 4.923734-5.316267 6.272-12.4928 15.061333-16.093866 21.333333-3.626667 6.314667-8.226133 11.844267-10.299734 18.986667l-1.0752 0.162133c-3.4816 9.122133-7.842133 18.670933-10.5216 27.938133-2.065067 7.125333-3.114667 14.8992-5.248 21.691734-1.211733 3.848533-3.234133 15.7184-5.4784 18.525866-0.136533 0.1792-0.785067 0.008533-1.015466 0.2304l-2.9184 4.343467c-1.749333 0.878933-3.857067 0.989867-5.794134 0.776533 0.298667-8.405333-0.392533-16.913067-0.0256-25.3184 0.7936-18.304-1.348267-41.258667-7.5008-58.786133-9.642667-27.4688-32.085333-43.195733-50.261333-64.034133-29.3632-33.655467-43.008-69.230933-49.954133-113.604267-0.904533-5.751467-1.536-17.467733-3.259734-22.024533 0.878933-3.6608-2.116267-12.3904 0-15.112534l37.128534 0.017067c3.293867-1.544533 3.6608-5.102933 0.981333-7.586133-1.595733-0.042667-3.601067-0.836267-4.957867-0.955734-10.112-0.904533-20.983467 0.64-30.8736 0-1.2032-0.0768-2.4064-0.008533-3.601066-0.017066l-1.339734-18.039467V487.9872c-0.093867-0.546133 0.733867-1.621333 1.015467-1.621333h47.291733l2.798934-2.935467c-0.059733-1.194667-1.7152-4.949333-2.798934-4.949333h-47.291733c-0.273067 0-1.109333-1.0752-1.006933-1.621334l0.017066-86.4c0.2816-0.170667 0.657067-0.170667 0.657067-0.657066 4.539733-0.128 11.067733-0.170667 15.419733-0.674134 1.621333-0.187733 3.473067-1.160533 5.239467-1.322666 2.517333-0.2304 5.3504 0.273067 7.893333 0.008533 9.198933-0.930133 19.1488-3.618133 28.279467-5.2224 5.973333-1.0496 11.6736-2.500267 17.860267-3.8144 21.717333-4.642133 45.960533-6.101333 68.0448-1.314133 3.6864 0.802133 7.6544 2.193067 11.451733 2.9952 21.282133 4.497067 43.0848 5.8112 64.554667 8.686933z m27.588267 14.122667c0.699733-3.0976-0.512-8.4224 0-11.8272l-0.981334-0.981333h-20.360533c-0.247467 0-1.058133 0.9216-0.9472 1.595733 0.093867 0.546133 1.058133 1.288533 1.0752 2.005333 0.017067 0.7424-0.8448 2.3552-0.861867 3.3024-0.0768 3.831467 0.9728 7.483733 2.670934 10.871467l2.269866 0.682667 0.674134 2.2784c3.438933 1.143467 7.005867 1.3312 10.368-0.221867 0.904533-0.418133 3.959467-3.268267 4.445866-4.087467 0.196267-0.324267 1.604267-3.413333 1.646934-3.6096z m-1.220267 63.3344c0.187733-2.577067-0.4864-4.718933-2.363733-6.536533-2.2016-2.1248-3.4048-1.621333-5.930667-1.954134-0.8704-0.110933-1.553067-0.7424-2.6112-0.674133-0.964267 0.059733-3.933867 1.262933-4.625067 2.005333-0.6144 0.657067-3.1744 3.720533-3.5328 4.352-0.247467 0.443733-1.928533 4.983467-1.9712 5.256534-0.085333 0.631467 0.554667 1.245867 0.554667 1.877333 0 0.725333-0.631467 1.553067-0.674133 2.594133-0.699733 17.450667 0.750933 35.328 0 52.548267v76.842667c1.954133 1.937067 3.677867 0.4096 5.5808 0.341333 5.4528-0.196267 10.9568 0.1792 16.4096 0.059733l0.341333-0.059733c0.964267-2.978133 0.8448-6.331733 0.674133-9.480533-0.9728-18.116267 0.213333-36.5568-0.674133-54.5024-0.648533-13.090133 1.015467-26.257067 0.7168-39.466667-0.0256-1.160533-0.6912-2.0736-0.7168-3.2256-0.170667-9.838933 0.162133-19.712 0.068267-29.550933l-1.2544-0.418134zM579.584 604.091733c-5.623467 1.3056-5.930667 6.1184-0.802133 8.4224 13.585067-0.221867 27.1872 0.2304 40.772266 0.008534 9.1904-0.1536 17.5872-0.494933 26.871467 0 1.988267 0.1024 5.418667 0.238933 7.2704-0.008534 0.5632-0.0768 0.9728-0.1536 1.322667-0.648533 1.9456-8.704-2.0224-8.311467-9.207467-7.893333-13.952 0.810667-28.245333 0.580267-42.026667-0.042667-8.021333-0.366933-16.1792 0.221867-24.200533 0.162133z m41.582933 9.0624v111.342934c0 0.256 1.4848 4.650667 1.629867 4.9408 0.469333 0.896 5.0688 4.881067 6.016 5.154133h8.362667c0.443733-0.119467 3.2768-2.926933 3.712-3.5072 0.4864-0.657067 2.542933-5.307733 2.628266-5.9136 0.418133-2.858667-0.1792-6.826667-0.042666-9.898667 0.2816-6.178133 0.315733-12.202667 0-18.338133-0.733867-14.190933 0.4608-28.654933 0-42.7008-0.341333-10.461867 0.964267-20.650667 0.042666-30.916267-0.324267-3.584 1.4592-6.493867-0.085333-10.094933-7.278933-2.056533-14.805333 0.6912-22.263467-0.068267z m29.2352 172.1088H546.6112c-0.213333 0-2.423467 1.527467-2.645333 1.954134-1.134933 2.218667-0.119467 5.9136 2.645333 5.922133 29.2864 1.066667 59.537067-1.408 88.704-0.0256 3.106133 0.145067 3.976533 0.2304 7.210667 0.042667 1.6384-0.093867 5.9648 0.366933 6.920533-0.3072l1.851733-6.0672c0.256-0.529067-0.605867-1.450667-0.904533-1.527467zM547.003733 876.629333l0.2304 4.573867 3.3024 1.954133 43.716267-0.324266 7.202133-6.587734c-0.699733-1.041067-1.211733-0.913067-2.2784-0.9984-4.770133-0.375467-10.2656 0.085333-15.146666 0.042667-1.826133-0.017067-3.387733 0-5.1968 0-8.234667 0-16.861867-1.3824-25.019734-0.7168-2.3552 0.187733-4.744533 1.024-6.8096 2.056533z" fill="#F6F4EC" /><path d="M368.264533 358.9376c-0.187733 10.274133 0.136533 20.599467 0 30.8736 9.181867-0.162133 18.414933 0.221867 27.588267 0 0.4352-0.008533 0.878933 0.008533 1.314133 0 0 0.4864-0.375467 0.4864-0.657066 0.657067-0.3072 0.187733-0.768 0.221867-1.006934 0.6144l-0.3328 84.48c0.017067 1.041067 0.520533 1.911467 0.682667 2.926933l-27.588267 0.341333v7.534934h27.588267c0.034133 66.696533-2.619733 134.9632 0.0256 201.309866 0.426667 10.632533 0.836267 19.003733 1.937067 29.2608 0.068267 0.64-0.042667 1.322667 0 1.9712-1.262933-0.5632 0.2304-1.8688-1.6128-1.979733-7.748267-0.443733-15.906133 0.324267-23.7056 0.034133l-4.241067-0.682666c-0.5376-117.333333-1.544533-235.946667-0.657067-353.732267 0-1.0752-0.4864-3.072 0.657067-3.618133z" fill="#D9D5CB" /><path d="M397.824 724.829867c0.145067 4.6848-0.264533 10.948267 1.314133 15.112533 1.723733 4.5568 2.363733 16.2816 3.259734 22.024533 6.954667 44.373333 20.599467 79.9488 49.954133 113.604267 18.176 20.8384 40.618667 36.565333 50.261333 64.034133 6.152533 17.527467 8.285867 40.482133 7.5008 58.786134-0.3584 8.405333 0.324267 16.913067 0.0256 25.3184-1.297067-0.145067-4.701867-2.781867-5.563733-3.959467-6.203733-8.4736-6.229333-19.217067-8.362667-29.0816-4.48-20.667733-12.561067-39.9616-23.611733-57.838933-2.850133-4.608-6.766933-10.3424-10.3936-13.6192l0.6144-1.220267c-1.536 0.238933-1.211733-0.938667-1.92-1.698133-3.652267-3.959467-6.801067-7.8848-10.2144-11.460267-9.386667-9.796267-19.003733-18.2016-28.885333-27.648-12.032-11.4944-24.388267-25.147733-32-40.6016l-1.0496-0.187733c-11.741867-23.808-19.396267-50.3808-20.522667-77.064534-0.443733-10.461867 0.1792-21.358933 0.0256-31.889066 1.262933-0.554667-0.2304-1.885867 1.6128-1.979734 2.082133-0.1024 3.5328-0.452267 5.290667-0.631466 2.781867-0.2816 5.4528 0.904533 8.558933 0.674133 1.595733-0.119467 2.696533-0.853333 4.599467-0.7168 2.909867 0.2048 6.459733 1.723733 9.4976 0.034133z" fill="#DAD7CD" /><path d="M368.264533 716.288l4.241067 0.682667c7.799467 0.290133 15.9488-0.477867 23.7056-0.034134 1.851733 0.1024 0.349867 1.416533 1.6128 1.979734 0.128 1.9456-0.059733 3.959467 0 5.9136-3.0464 1.698133-6.587733 0.1792-9.4976-0.034134-1.8944-0.136533-3.003733 0.597333-4.599467 0.7168-3.106133 0.238933-5.777067-0.9472-8.558933-0.674133-1.7664 0.1792-3.217067 0.529067-5.290667 0.631467-1.8432 0.093867-0.349867 1.425067-1.6128 1.979733-0.0512-3.712 0.042667-7.458133 0-11.170133z" fill="#C8C5BF" /><path d="M642.2784 466.6112l1.2544 0.418133c0.093867 9.847467-0.238933 19.712-0.068267 29.550934 0.017067 1.152 0.6912 2.0736 0.7168 3.2256 0.298667 13.2096-1.365333 26.376533-0.7168 39.466666 0.887467 17.954133-0.298667 36.386133 0.674134 54.5024 0.170667 3.1488 0.290133 6.5024-0.674134 9.480534l-0.341333 0.059733c-5.4528 0.128-10.9568-0.247467-16.4096-0.059733-1.902933 0.068267-3.626667 1.595733-5.5808-0.341334v-76.842666c0.750933-17.220267-0.708267-35.0976 0-52.548267 0.042667-1.041067 0.674133-1.877333 0.674133-2.594133 0-0.631467-0.64-1.245867-0.554666-1.877334 0.034133-0.2816 1.723733-4.8128 1.9712-5.256533 0.349867-0.631467 2.909867-3.694933 3.5328-4.352 0.6912-0.7424 3.6608-1.937067 4.625066-2.005333 1.058133-0.068267 1.732267 0.5632 2.6112 0.674133 2.525867 0.3328 3.720533-0.170667 5.930667 1.954133 1.885867 1.8176 2.551467 3.959467 2.363733 6.536534zM621.166933 613.154133c7.458133 0.768 14.984533-1.988267 22.263467 0.068267 1.544533 3.601067-0.238933 6.510933 0.085333 10.094933 0.9216 10.2656-0.384 20.4544-0.042666 30.916267 0.4608 14.037333-0.733867 28.509867 0 42.7008 0.315733 6.126933 0.2816 12.16 0 18.338133-0.136533 3.072 0.4608 7.04 0.042666 9.898667-0.085333 0.605867-2.141867 5.248-2.628266 5.9136-0.426667 0.580267-3.259733 3.387733-3.712 3.515733h-8.362667c-0.9472-0.2816-5.546667-4.266667-6.016-5.162666-0.145067-0.2816-1.629867-4.676267-1.629867-4.9408V613.154133z" fill="#FBFAF8" /><path d="M396.509867 390.468267l-0.017067 86.4c-0.1024 0.546133 0.733867 1.621333 1.006933 1.621333h47.291734c1.083733 0 2.7392 3.754667 2.798933 4.949333l-2.798933 2.935467h-47.291734c-0.273067 0-1.109333 1.0752-1.006933 1.621333v210.2528l1.3312 18.039467c1.194667 0.008533 2.397867-0.059733 3.601067 0.017067 9.890133 0.631467 20.7616-0.913067 30.8736 0 1.3568 0.119467 3.362133 0.913067 4.957866 0.955733 2.679467 2.4832 2.304 6.0416-0.981333 7.586133l-37.128533-0.017066c0.657067-0.836267 0.597333-0.6144 1.621333-0.674134 10.948267-0.64 22.519467 0.503467 33.536 0.034134l3.3024-1.9456c1.348267-3.473067-0.878933-4.369067-3.950933-4.6592-9.949867-0.938667-21.930667 0.315733-32.213334 0.034133-1.297067-0.034133-2.474667 0.196267-3.6096-0.657067-1.109333-10.257067-1.518933-18.6368-1.937066-29.2608-2.645333-66.338133 0-134.613333-0.0256-201.309866 1.518933-2.577067 0.401067-5.410133 0-7.8848-0.170667-1.015467-0.6656-1.885867-0.682667-2.926934l0.3328-84.48c0.238933-0.384 0.699733-0.426667 1.006933-0.6144z" fill="#E0DED9" /><path d="M650.402133 785.262933c0.298667 0.085333 1.160533 0.9984 0.904534 1.527467l-1.851734 6.0672c-0.964267 0.674133-5.282133 0.2048-6.920533 0.3072-3.234133 0.187733-4.104533 0.1024-7.210667-0.042667-29.166933-1.3824-59.426133 1.092267-88.704 0.0256-2.773333-0.008533-3.7888-3.712-2.645333-5.922133 0.221867-0.426667 2.432-1.954133 2.645333-1.954133H650.410667z" fill="#DFDCD8" /><path d="M579.584 604.091733c8.029867 0.059733 16.1792-0.520533 24.200533-0.162133 13.781333 0.622933 28.074667 0.853333 42.026667 0.042667 7.185067-0.418133 11.153067-0.810667 9.207467 7.893333-0.349867 0.494933-0.759467 0.571733-1.322667 0.648533-1.851733 0.247467-5.282133 0.110933-7.2704 0.008534-9.2928-0.494933-17.681067-0.1536-26.871467 0-13.585067 0.221867-27.1872-0.238933-40.772266-0.008534-5.128533-2.312533-4.821333-7.1168 0.802133-8.4224z" fill="#DFDED8" /><path d="M643.498667 403.2768c-0.042667 0.196267-1.450667 3.285333-1.646934 3.6096-0.4864 0.8192-3.541333 3.669333-4.445866 4.087467-3.362133 1.553067-6.929067 1.373867-10.368 0.221866l-0.674134-2.2784-2.269866-0.682666c-1.698133-3.387733-2.747733-7.031467-2.670934-10.871467 0.017067-0.9472 0.878933-2.56 0.861867-3.3024-0.017067-0.7168-0.981333-1.4592-1.0752-2.005333-0.119467-0.674133 0.6912-1.595733 0.9472-1.595734h20.360533l0.981334 0.981334c-0.512 3.396267 0.699733 8.7296 0 11.8272z" fill="#FBFAF8" /><path d="M547.003733 876.629333c2.065067-1.041067 4.4544-1.8688 6.8096-2.056533 8.157867-0.6656 16.785067 0.708267 25.019734 0.7168 1.809067 0 3.3792-0.017067 5.1968 0 4.881067 0.042667 10.385067-0.426667 15.146666-0.042667 1.0752 0.085333 1.578667-0.034133 2.2784 0.9984l-7.202133 6.587734-43.716267 0.324266-3.3024-1.954133-0.2304-4.573867z" fill="#E0DED8" /><path d="M399.138133 724.829867c-2.116267 2.722133 0.878933 11.451733 0 15.112533-1.578667-4.155733-1.169067-10.427733-1.314133-15.112533-0.059733-1.954133 0.128-3.968 0-5.9136-0.042667-0.648533 0.068267-1.3312 0-1.9712 1.143467 0.853333 2.312533 0.622933 3.6096 0.657066 10.2912 0.290133 22.263467-0.9728 32.213333-0.034133 3.072 0.290133 5.290667 1.186133 3.950934 4.6592l-3.3024 1.9456c-11.016533 0.469333-22.587733-0.674133-33.536-0.034133-1.024 0.059733-0.964267-0.162133-1.621334 0.674133z" fill="#DEDBD7" /><path d="M395.8528 478.4896c0.401067 2.474667 1.518933 5.307733 0 7.8848h-27.588267v-7.534933l27.588267-0.341334z" fill="#C8C6BF" /><path d="M539.972267 51.140267l3.3024 0.128 3.6096-0.8448h3.165866l3.464534-0.989867 0.597333-2.176-0.119467-3.0208-0.145066-4.565333 0.580266-4.0704 1.5616-3.933867 0.5888-1.8944 1.1008-1.536 5.060267-5.307733 12.305067-8.046934 15.735466-5.0176 11.648 2.901334 5.888 4.155733s3.8144 5.8112 5.205334 10.786133c1.3824 4.974933 1.314133 8.977067 1.314133 8.977067l-0.392533 12.689067-0.989867 5.905066-1.5872 5.640534-1.749333 4.983466-2.013867 4.548267 0.264533 4.292267 17.8432 27.1104-12.0064 37.137066-13.986133 32.725334-10.752 39.3216s-27.050667 23.8848-27.579733 24.149333c-0.529067 0.264533-21.239467 3.4304-21.239467 3.4304s-61.7472 0.128-62.805333 0.529067-13.064533-0.392533-13.064534-0.392534l-2.901333-6.331733 46.967467-117.4272 31.138133-63.863467z" fill="#86A846" /><path d="M473.3696 124.433067c1.134933-1.322667 4.096-5.205333 3.857067-6.792534-0.1536-0.989867-4.565333-7.5264-5.5296-8.942933-0.529067-0.768-1.390933-1.2544-1.911467-2.0224-6.3488-9.4464-12.893867-22.741333-7.918933-34.141867 3.2-7.330133 9.0368-11.690667 15.377066-16.1536 0.8704-3.857067-0.981333-7.5008-1.28-11.076266-1.297067-15.522133 4.343467-34.466133 18.193067-42.2912 13.422933-7.586133 27.426133 1.373867 35.336533 12.407466 7.3728 10.282667 10.734933 22.912 11.528534 35.447467 1.365333 0.392533 2.5344-0.5376 3.626666-0.648533 2.491733-0.238933 8.405333 0.366933 8.866134-2.952534 0.750933-5.307733-1.006933-10.069333 1.4336-15.6416 0.4352-0.9984 1.3312-1.672533 1.834666-2.432 0.622933 1.578667 1.066667 1.450667 2.414934 0.768 1.749333-0.887467 1.024-2.116267 2.517333-2.082133l1.646933 2.628267c-1.271467 0.597333-2.926933 0.366933-4.181333 0.750933-1.160533 0.349867-1.425067 2.4064-2.986667 1.2544-1.954133 4.181333-2.312533 8.200533-2.013866 12.791467 0.042667 0.708267 0.605867 1.288533 0.64 1.6384 0.059733 0.580267 0.059733 1.3824 0 1.9712-0.0256 0.2304 0.0512 0.4864 0 0.657066l-1.314134-0.657066-0.657066 1.9712c-1.467733-0.119467-2.4832 0.341333-3.6096 0.401066-0.477867 0.0256-1.143467-0.4864-1.937067-0.418133-1.3824 0.110933-3.131733 1.1776-4.932267 0.725333-0.187733 0.392533 0.085333 1.024-0.034133 1.262934-0.034133 0.0768-0.955733 0.2048-1.220267 1.0752-0.2304 0.750933-0.017067 1.5104-0.093866 2.210133 0 0.034133-0.546133 0.059733-0.5376 0.324267 0.0768 0.264533 0.426667 0.213333 0.5376 0.3328-0.836267 1.792-0.4352 3.549867-0.657067 5.256533-0.0256 0.213333 0.0256 0.443733 0 0.657067-0.042667 0.392533-0.520533 1.8688-0.657067 3.285333-0.068267 0.7424 0.119467 1.536 0 2.2784-0.273067 1.664-1.851733 2.961067-1.314133 4.949333-1.152 3.080533-1.9968 6.186667-1.322667 9.4464l7.236267 6.971734c1.152 3.285333 4.258133 7.082667 5.777067 10.3168 0.810667 1.7152 1.015467 3.9168 1.570133 5.6576 0.2048 0.631467 0.938667 0.9984 1.092267 1.527466 0.298667 0.981333 0.6144 6.7584 0.733866 8.456534 0.768 10.368-4.0192 23.867733-9.275733 32.7424-0.622933 1.0496-1.732267 1.425067-1.902933 2.705066-0.290133 2.133333 0.733867 2.193067 1.211733 3.421867 1.800533 4.599467 4.6848 8.354133 6.690133 12.689067 0.128 0.2816-0.145067 1.134933 0.315734 1.962666 0.341333 0.605867 1.595733 1.664 2.312533 1.979734l1.314133-3.9424c-0.145067 1.646933 0.503467 4.565333-1.698133 5.213866-1.732267 0.512-2.2272-1.476267-3.549867-1.928533-0.145067 1.5872 0.213333 3.387733 0 4.923733-0.170667 1.2288-1.143467 2.048-1.314133 3.285334-0.6144 4.386133 1.1776 12.501333-0.989867 16.085333-0.648533 1.0752-2.1504 1.681067-2.653866 3.259733-0.4352 1.365333-0.068267 2.551467-0.3584 3.584s-2.3808 1.297067-2.909867 2.346667c-0.622933 1.211733-0.068267 2.440533-0.392533 3.549867-0.477867 1.664-2.449067 3.421867-3.191467 7.3216-0.887467 4.650667-1.476267 4.846933-2.978133 8.849066-0.810667 2.167467-0.597333 3.857067-1.066667 5.495467-0.2304 0.7936-1.672533 1.578667-1.245867 3.029333-1.732267 0.059733-3.490133 0.008533-5.230933 0.0256-4.155733 0.0256-8.328533-0.008533-12.484267 0v-0.657066c2.4832-0.017067 12.8256 0.64 13.832534-1.0496 0.443733-1.8432 1.783467-3.84 1.194666-5.76-0.264533-0.8448-1.800533-1.467733-1.2288-3.037867l3.857067-2.389333c-0.341333-3.601067 0.887467-6.9632 1.3824-10.4448 0.418133-2.952533-0.8192-4.736 1.962667-7.236267 0.725333-0.648533 1.8176-0.930133 1.92-1.032533 0.264533-0.290133 1.937067-6.715733 2.0224-7.5008 0.546133-4.727467-1.297067-4.0704-1.8688-5.981867-0.682667-2.295467-0.128-4.4288-3.029334-6.024533-1.024 0.392533-2.235733 1.041067-3.310933 1.1776-1.681067 0.213333-5.674667-0.6912-6.1696 1.0496-0.7936 5.418667 0.9216 13.124267-0.170667 18.2272-0.776533 3.643733-3.9424 1.7152-4.846933 3.037866l-0.597333 4.6592c-0.443733 0.657067-3.720533 1.809067-4.642134 1.928534-3.456 0.426667-3.950933-1.621333-6.903466 1.646933-0.622933 0.6912-0.861867 1.6384-1.604267 2.338133-1.1776 1.109333-3.345067 1.92-4.258133 3.652267l1.297066 4.522667-1.186133 0.452266-1.467733 7.773867c1.092267 0.008533 2.193067-0.008533 3.285333 0v0.657067c-1.527467 0-3.072-0.017067-4.599467 0-1.1776 0.017067-2.372267-0.1024-3.5584 0.068266l-0.384 0.5888c-1.092267 0.017067-2.193067-0.008533-3.285333 0l2.653867-2.321066c0.119467-1.348267 0.0512-2.875733-1.664-2.935467l-1.467734 2.619733-0.827733 2.6368h-0.657067c-1.1776 0.0256-2.372267-0.1024-3.5584 0.068267l-0.384 0.5888c-0.4352 0.042667-0.878933-0.034133-1.314133 0-0.887467 0.0768-1.544533 0.554667-2.304 0.648533-1.954133 0.2304-4.8128-0.8448-5.5808 1.322667-4.5056 0.9216-9.207467 3.729067-13.7984 1.9712l-8.541867-4.599467c0.2816 0.128 1.186133-0.059733 1.979734 0.298667 3.217067 1.4336 6.126933 3.4048 9.540266 4.3264l8.183467-2.321067c-2.363733-1.288533-4.394667-3.0976-6.5792-4.590933-16.170667-11.0592-28.458667-25.821867-34.261333-44.928-1.3312-0.682667-2.8928-5.794133-3.524267-7.944533-1.877333-6.4256-2.4832-13.218133-3.908267-19.7376-0.648533-0.682667-1.3056-1.322667-2.0736-1.8688-4.3008-3.114667-8.209067-5.76-12.100266-9.6-2.901333-2.858667-6.3744-6.161067-8.823467-9.5488-1.245867-1.723733-2.440533-4.846933-3.805867-6.417067-1.143467-1.314133-0.682667-0.802133-1.655466-2.577067-7.099733-12.9792-11.118933-26.837333-7.236267-41.762133 0.836267-3.208533 2.8928-6.357333 3.447467-9.685333l5.742933-9.0624 1.1776-0.759467c-4.010667-0.4608-7.261867 0.5632-10.965333 1.8432-0.785067 0.273067-2.2272 1.706667-2.833067 0.128 4.138667-1.979733 6.1952-2.2784 10.820267-2.6368 0.674133-0.0512 1.322667-0.64 1.988266-0.64s1.314133 0.5888 1.988267 0.64c11.869867 0.896 22.391467 8.4224 29.883733 17.408 1.809067 2.167467 3.473067 5.239467 5.239467 7.569067-0.145067 2.176 1.706667 2.875733 2.628267 3.9424 10.845867 12.475733 18.4576 34.4064 26.5984 49.271466 0.392533 0.708267 0.597333 1.467733 1.322666 1.962667l1.1264-11.357867c0.7168-2.9952 1.8688-5.896533 3.805867-8.3456 0.273067-0.341333 1.6896-0.5888 1.314133-1.9712z" fill="#86A846" /><path d="M608.682667 18.013867c10.274133 14.805333 7.296 31.940267 1.834666 48.145066-0.503467 1.493333-1.621333 2.56-1.1776 4.411734h1.314134c4.4032-0.042667 10.3168-6.203733 15.086933-2.935467 2.6112 1.783467 8.610133 10.0096 10.0096 12.9792 8.3456 17.723733 2.269867 42.026667-9.984 56.644267-3.259733 3.882667-7.9616 8.576-11.861333 11.784533-2.8672 2.3552-11.630933 7.4496-13.021867 9.975467-1.066667 1.937067-0.4608 2.7904-0.759467 4.497066-0.861867 4.855467-2.116267 9.489067-3.2768 14.1312 0.605867-2.653867-0.836267-3.0976-1.211733-4.369066-0.2304-0.768 0.034133-1.664-0.196267-2.432-0.375467-1.2544-2.1504-1.629867-0.5376-4.053334l-1.058133-1.578666c-1.271467-0.375467-6.971733 0.802133-8.379733 1.373866-1.220267 0.494933-2.286933 2.517333-4.053334 2.5344-2.3552-0.0256-2.235733-1.8432-2.9184-2.338133-1.544533-1.1264-7.569067-1.245867-9.582933-0.981333-0.5632 0.0768-0.9728 0.1536-1.322667 0.648533l-0.298666 5.9392c3.131733-1.322667 0.733867-5.512533 5.256533-4.599467-0.3328 1.800533 1.7408 5.1456 0.0256 6.272-1.518933 0.9984-3.4816-0.861867-5.188267 2.039467-1.2544 2.133333-0.4096 3.6608-0.853333 5.717333-0.162133 0.733867-1.109333 1.723733-1.092267 2.090667 0.017067 0.324267 2.926933 4.189867 3.524267 5.546667 0.477867 1.092267 0.298667 2.2784 1.0496 3.549866 0.4864 0.8192 1.604267 1.467733 1.800533 2.141867 0.657067 2.244267-0.0256 4.573867-1.220266 6.442667l2.56 2.747733c-1.8432 4.411733 2.116267 5.9392 5.870933 4.104533l0.750933-3.191466c1.194667 0.657067 1.664 1.6896 3.285334 1.314133-0.008533-2.6624 2.653867-4.693333 4.539733-6.306133l0.093867-3.515734 2.500266-0.785066c1.152-1.681067 0.392533-3.84 0.836267-5.410134 0.264533-0.930133 1.962667-1.655467 2.432-2.824533 0.699733-1.723733 0.4352-4.189867 0.861867-5.7088 0.213333-0.759467 2.269867-3.182933 2.5344-4.360533-2.875733 11.562667-5.649067 19.464533-12.125867 29.585066-1.544533 2.414933-8.686933 12.245333-10.871467 13.1072-0.273067 0.110933-0.989867-0.196267-1.245866 0.059734s0.0512 1.041067-0.059734 1.2544c-0.0256 0.042667-0.401067 0.273067-0.657066 0.657066-1.365333-0.392533-2.295467 1.783467-2.935467 1.8176-0.2816 0.008533-0.802133-0.469333-1.339733-0.477866-1.425067-0.034133-2.850133-0.034133-4.266667-0.017067l0.503467 3.6352c-0.9728 0.6144-1.476267 2.312533-1.9456 2.798933-0.964267 0.9728-3.771733 1.245867-3.899734 3.319467l-6.468266 2.0736c-0.418133-0.059733-0.887467 0.034133-1.314134 0-0.7424-1.3824-3.037867 0.298667-2.679466-1.928533l-1.5872 0.6144-3.618134-0.981334c0.776533-1.015467 1.954133-0.913067 2.986667-1.6128 2.176-1.467733 2.210133-4.795733 5.5552-3.968l0.059733-2.568533 5.845334-3.0208c3.029333-2.013867 2.158933-3.063467 2.7392-5.794133 0.349867-1.629867 2.176-2.594133 2.432-3.4816 0.221867-0.768-0.042667-1.681067 0.170666-2.449067 0.426667-1.4848 3.182933-1.399467 3.217067-4.027733 0.128-1.655467-2.304-3.0976-2.5856-4.0192-0.4352-1.416533 1.262933-5.0688 0.503467-7.714134-0.221867-0.759467-1.5104-1.6384-1.774934-2.824533s0.008533-2.244267-0.401066-3.541333c-0.648533-2.048-2.6368-1.937067-2.3296-4.872534 0.3328-3.157333 0.042667-1.3824-0.571734-3.396266-1.5104-4.9152 2.210133-7.5264 1.8688-11.716267-0.068267-0.836267-0.8704-1.578667-0.597333-2.551467 0.571733-2.013867 4.027733-2.670933 5.8368-3.072v-6.5024c-1.6896-0.597333-3.063467-1.0752-4.573867 0.290134-0.546133 0.494933-0.6144 1.237333-0.989866 1.655466-0.520533 0.571733-1.373867 0.546133-1.536 0.7424-0.145067 0.170667-1.134933 3.6352-1.288534 4.292267-0.648533 2.7648 0.9728 2.551467-2.756266 3.490133 0.187733-1.809067 0.8704-4.3008 1.629866-5.922133 2.107733-4.514133 6.698667-6.468267 10.88-8.840533 1.646933-0.930133 3.8912-2.167467 5.563734-3.6096 5.853867-5.051733 8.192-10.4704 12.049066-16.853334 0.546133-10.504533-0.4096-21.2992 0.093867-31.761066 1.962667-1.365333 2.141867-3.899733 3.643733-5.879467 3.4304-4.548267 6.724267-7.876267 10.120534-12.868267 1.3568-1.9968 5.0688-5.8624 7.176533-6.954666l0.093867-1.8944 1.6384 0.042666c0.503467-1.314133 0.443733-2.909867 1.083733-4.181333 0.964267-1.911467 1.979733-1.220267 1.851733-4.394667 1.536-1.041067 1.390933-2.978133 1.314134-4.599466 2.858667-5.248 2.602667-10.4704 2.628266-16.418134l0.6912-0.981333-0.6912-0.981333c-0.0256-1.954133 0.128-3.968 0-5.9136-0.2048-3.157333-1.7152-8.302933-2.926933-11.195734-0.6912-1.646933-2.346667-3.089067-2.3296-5.2224z" fill="#86A846" /><path d="M386.6624 68.599467c0.597333 1.578667 2.039467 0.145067 2.833067-0.128 3.694933-1.28 6.954667-2.304 10.965333-1.8432l-1.1776 0.759466-5.742933 9.0624c-0.554667 3.328-2.619733 6.4768-3.447467 9.685334-3.8912 14.933333 0.136533 28.782933 7.236267 41.762133 0.9728 1.774933 0.503467 1.262933 1.655466 2.577067 1.365333 1.570133 2.551467 4.693333 3.805867 6.417066 2.449067 3.387733 5.922133 6.690133 8.823467 9.5488 3.8912 3.831467 7.799467 6.485333 12.100266 9.6 0.768 0.554667 1.425067 1.194667 2.0736 1.8688 1.425067 6.519467 2.039467 13.312 3.908267 19.7376 0.622933 2.141867 2.184533 7.261867 3.524267 7.944534 5.802667 19.106133 18.082133 33.8688 34.261333 44.928 2.184533 1.493333 4.206933 3.3024 6.5792 4.590933l-8.183467 2.321067c-3.413333-0.9216-6.3232-2.8928-9.540266-4.3264-0.7936-0.349867-1.698133-0.170667-1.979734-0.298667-7.406933-3.285333-15.0784-9.4464-20.394666-15.428267-7.125333-8.0128-13.098667-20.829867-15.598934-31.675733-1.9712-8.5504-1.578667-17.2544-3.054933-25.847467-3.456-2.005333-7.0656-3.848533-10.4448-5.981866-13.312-8.3968-25.386667-19.9936-31.6416-35.362134-4.334933-10.641067-6.818133-28.7744 0.9984-38.109866 0.170667-0.2048 0.887467-0.443733 1.3312-0.955734 1.109333-1.3056 2.858667-3.473067 3.268267-4.957866 2.978133-2.978133 3.882667-4.002133 7.8848-5.9136z" fill="#6F8E39" /><path d="M610.653867 70.562133c7.808-5.435733 18.423467-6.144 27.127466-2.491733 0.6656 0.2816 4.1216 1.809067 4.309334 1.962667 0.1792 0.136533 0.008533 0.785067 0.2304 1.015466 2.261333 2.414933 5.4016 3.8912 7.7568 7.057067 8.96 12.032 6.5536 29.329067 0.981333 42.3936-4.061867 9.531733-11.605333 18.858667-19.387733 25.608533-0.9984-0.128-1.706667 0.366933-1.9712 1.314134-1.2288 0.9984-2.568533 2.602667-3.968 3.584-2.602667 1.826133-17.2288 9.8816-17.629867 11.272533-0.273067 1.706667 0.0768 3.447467-0.093867 5.162667-0.836267 8.516267-0.878933 17.169067-3.4048 25.4976-5.905067 19.473067-19.5072 34.3296-37.9648 42.504533-1.339733 0.5888-4.736 2.312533-5.691733 2.517333-3.754667 0.827733-12.782933-1.9968-17.297067-2.517333l-4.9408-1.297067c-11.528533-1.314133-23.0656-1.425067-34.798933-1.322666-1.083733 0.008533-3.072-0.4864-3.618133 0.657066-0.221867 0.008533-0.4352-0.017067-0.657067 0-2.056533 0.136533-4.232533-0.1792-6.272-0.0256-2.7904 0.2048-6.101333 0.375467-8.840533 0.682667v-0.657067c0.4352-0.034133 0.878933 0.042667 1.314133 0 1.169067-0.110933 2.3808 0.170667 3.5584-0.068266l0.384-0.5888h1.9712c1.092267-0.008533 2.193067 0.017067 3.285333 0 1.1776-0.017067 2.372267 0.1024 3.5584-0.068267l0.384-0.5888c1.527467-0.017067 3.072 0 4.599467 0 3.498667-0.008533 7.0144 0.008533 10.513067 0 4.155733-0.008533 8.328533 0.0256 12.484266 0 0.554667 1.152 2.525867 0.622933 3.6096 0.657067 3.157333 0.085333 6.016 0.768 9.181867 0.674133l10.8544 1.954133c0.426667 0.034133 0.896-0.059733 1.314133 0 0.042667 0 0.136533 0.494933 0.443734 0.571734 1.450667 0.349867 2.781867-0.443733 4.1216-0.930134 4.1728-3.9936 12.7232-8.192 15.7952-12.782933 0.256-0.384 0.631467-0.6144 0.657066-0.657067l1.314134-1.314133c2.184533-0.8704 9.3184-10.692267 10.871466-13.1072 6.4768-10.120533 9.250133-18.0224 12.125867-29.585067 1.152-4.642133 2.414933-9.275733 3.2768-14.1312 0.298667-1.706667-0.3072-2.56 0.759467-4.497066 1.390933-2.525867 10.146133-7.611733 13.021866-9.975467 3.908267-3.208533 8.610133-7.901867 11.861334-11.784533 12.253867-14.6176 18.3296-38.929067 9.984-56.644267-1.399467-2.9696-7.406933-11.195733-10.0096-12.9792-4.778667-3.268267-10.692267 2.8928-15.086934 2.935467z" fill="#A1C05F" /><path d="M608.682667 18.013867c-0.017067 2.133333 1.6384 3.575467 2.3296 5.2224 1.211733 2.8928 2.722133 8.0384 2.926933 11.195733l-2.628267-3.9424-0.674133 4.5824c-2.030933 0.1536-4.010667 0.196267-5.572267-1.288533-1.015467-0.733867-0.776533-3.882667-1.322666-3.959467-3.387733-0.443733-2.338133 0.162133-3.566934 1.672533-1.988267 2.449067-6.178133-0.256-8.849066 0.3584-1.664 0.477867-0.503467 4.8384-2.747734 5.794134l-4.829866-0.622934-0.034134-3.2512h-3.9424c0.699733 6.459733-4.7872 5.2224-9.463466 5.3248-1.024 0.3072-1.297067 2.3808-2.346667 2.909867-1.211733 0.622933-2.432 0.068267-3.549867 0.392533-0.913067 0.264533-1.595733 1.826133-2.372266 2.2272-1.220267 0.631467-4.701867 0.4352-4.6336 2.602667l0.682666 1.655467h-1.954133l-0.674133-1.9712h-0.657067c-0.034133-0.341333-0.597333-0.930133-0.64-1.6384-0.298667-4.590933 0.0512-8.6016 2.013867-12.791467 1.570133 1.160533 1.834667-0.904533 2.986666-1.2544 1.2544-0.384 2.909867-0.1536 4.181334-0.750933l-1.646934-2.628267c-1.493333-0.034133-0.759467 1.194667-2.517333 2.082133-1.339733 0.682667-1.792 0.810667-2.414933-0.768 1.4592-2.2272 2.2528-3.387733 4.258133-5.282133 6.306133-5.9648 19.106133-13.696 28.228267-14.446933 7.168-0.597333 14.472533 1.4848 19.089066 7.2704 0.375467 0.469333 0.221867 1.152 0.324267 1.297066z" fill="#82A442" /><path d="M374.178133 80.418133l0.093867-0.887466c1.041067-2.295467 2.909867-3.438933 4.5056-5.026134-0.4096 1.4848-2.158933 3.652267-3.268267 4.957867-0.4352 0.512-1.152 0.750933-1.3312 0.955733z" fill="#8A9D64" /><path d="M439.210667 94.8736c-0.9216-1.066667-2.773333-1.7664-2.628267-3.9424 0.068267 0.093867 0.605867 0.196267 0.955733 0.657067 0.6656 0.887467 1.604267 2.218667 1.672534 3.285333z" fill="#A6BC78" /><path d="M472.055467 126.404267c-0.298667-1.390933 0.9472-1.544533 1.314133-1.9712 0.375467 1.3824-1.041067 1.629867-1.314133 1.9712z" fill="#ABBC88" /><path d="M631.68 146.107733c-0.989867 0.861867-1.664 1.066667-1.9712 1.314134 0.264533-0.9472 0.9728-1.442133 1.9712-1.314134z" fill="#BFCD96" /><path d="M490.4448 232.814933l0.827733-2.6368 1.467734-2.619733c1.7152 0.059733 1.783467 1.5872 1.664 2.935467l-2.653867 2.321066h-1.314133zM484.5312 233.472v0.657067c-2.2016 0.247467-5.589333 0.8448-7.8848 1.314133 0.768-2.167467 3.618133-1.092267 5.5808-1.322667 0.759467-0.093867 1.425067-0.571733 2.304-0.648533zM514.090667 231.5008v0.657067c-3.498667 0.008533-7.0144-0.008533-10.513067 0v-0.657067c3.490133 0.034133 7.0144 0.0256 10.513067 0z" fill="#89AB45" /><path d="M540.373333 62.0288c0.221867-1.706667-0.1792-3.464533 0.657067-5.256533 0.187733 0.2048 0.733867 0.093867 0.6912 0.955733l-1.348267 4.3008zM541.0304 56.1152c0.0768-0.699733-0.145067-1.450667 0.093867-2.210133 0.273067-0.8704 1.186133-0.9984 1.220266-1.0752 0.085333 1.3568 0.256 2.875733-1.314133 3.285333zM554.820267 49.544533c-0.2304 0.733867-0.8192 1.160533-1.3312 1.681067l-0.324267 0.170667c-0.221867 0.017067-0.2816-0.5376-0.315733-0.5376l0.657066-1.9712 1.314134 0.657066z" fill="#82A442" /><path d="M489.787733 232.814933l-0.384 0.5888c-1.1776 0.238933-2.389333-0.034133-3.5584 0.068267l0.384-0.5888c1.1776-0.1792 2.372267-0.0512 3.5584-0.068267zM498.986667 232.157867l-0.384 0.5888c-1.1776 0.1792-2.372267 0.0512-3.5584 0.068266l0.384-0.5888c1.1776-0.170667 2.372267-0.0512 3.5584-0.068266z" fill="#89AB45" /><path d="M539.716267 65.9712c0.136533-1.416533 0.6144-2.8928 0.657066-3.285333l-0.068266 2.8928-0.5888 0.384z" fill="#82A442" /><path d="M554.820267 48.887467c0.059733-0.580267 0.059733-1.390933 0-1.9712h0.657066l-0.068266 1.5616-0.5888 0.4096z" fill="#7B9E3E" /><path d="M571.904 222.3104c-3.072 4.590933-11.6224 8.789333-15.7952 12.782933-1.339733 0.4864-2.670933 1.28-4.1216 0.930134-0.315733-0.0768-0.401067-0.571733-0.443733-0.571734l6.468266-2.0736c0.128-2.0736 2.944-2.346667 3.899734-3.319466 0.477867-0.477867 0.981333-2.184533 1.9456-2.798934l-0.503467-3.6352c1.416533-0.017067 2.8416-0.008533 4.266667 0.017067 0.5376 0.008533 1.058133 0.4864 1.339733 0.477867 0.64-0.0256 1.5616-2.2016 2.935467-1.8176z" fill="#89AB45" /><path d="M611.310933 58.743467c0.0768 1.621333 0.221867 3.5584-1.314133 4.599466-0.059733-1.408-0.2304-2.961067 0-4.599466h1.314133zM613.9392 42.3168c0-0.657067 0.008533-1.314133 0-1.9712l0.6912 0.981333-0.6912 0.981334z" fill="#82A442" /><path d="M573.8752 220.3392l-1.314133 1.314133c0.119467-0.213333-0.2048-0.989867 0.059733-1.2544s0.981333 0.0512 1.245867-0.059733z" fill="#89AB45" /><path d="M543.658667 235.4432c4.514133 0.529067 13.550933 3.345067 17.297066 2.517333 0.955733-0.213333 4.352-1.928533 5.691734-2.517333-0.597333 1.373867-2.466133 1.954133-3.746134 2.517333-0.8704 0.384-1.066667-0.0768-0.853333 1.425067 1.314133 0.128 2.491733 0.8192 3.746133 1.1776 14.122667 4.053333 33.066667 12.945067 43.682134 22.2976 2.500267 2.2016 5.794133 3.8912 8.0896 6.058667 1.8176 1.723733 3.669333 3.601067 5.256533 5.256533 17.911467 18.730667 29.9008 44.945067 31.8464 71.6288 0.2048 2.7904 0.5888 6.254933 0.682667 8.840533 0.4096 11.118933-0.315733 22.3488-0.085334 33.476267-0.477867 1.664-5.0688 0.981333-6.826666 1.058133-1.5616 0.068267-2.756267 1.3824-4.650667-0.64-0.930133-8.081067 0.221867-16.546133-0.264533-24.695466-0.349867-5.7856-2.141867-11.630933-1.3056-17.672534l-1.3824-0.725333c-0.529067-14.0288-4.7616-27.52-10.3424-40.1664-0.571733-1.297067-2.0224-5.896533-2.9184-6.656-1.851733-1.5616-0.554667-0.512-1.245867-2.978133-0.256-0.896-4.497067-6.698667-5.2992-7.509334-0.128-0.128-2.594133-1.834667-2.909867-2.013866-1.425067-0.7936-3.490133-1.117867-5.0688-0.648534-0.128 0.034133-2.184533 1.237333-2.2784 1.3312-0.315733 0.315733-1.425067 5.111467-1.365333 5.384534 0.273067 1.2288 2.286933 3.328 1.211733 5.9648l1.373867 0.750933c0.264533 4.334933 2.858667 7.5264 3.8144 11.861333 3.4304 15.4624 5.572267 31.0784 6.0416 47.163734 0.238933 8.2432 0.8704 21.0944-0.034133 28.928-0.093867 0.7936-0.682667 1.450667-0.6912 2.269866l-5.2224 0.034134c-21.461333-2.875733-43.272533-4.189867-64.554667-8.686934-3.805867-0.802133-7.765333-2.193067-11.451733-2.9952-22.084267-4.7872-46.318933-3.328-68.0448 1.314134-6.186667 1.322667-11.886933 2.7648-17.860267 3.8144-9.122133 1.604267-19.072 4.292267-28.279467 5.2224-2.542933 0.256-5.376-0.247467-7.893333-0.008534-1.774933 0.162133-3.618133 1.134933-5.239467 1.322667-4.352 0.503467-10.88 0.5376-15.419733 0.674133-0.4352 0.008533-0.878933-0.008533-1.314133 0 0.853333-1.143467 0.622933-2.312533 0.657066-3.6096 0.989867-35.396267 4.625067-68.309333 23.748267-99.089066 12.672-20.4032 29.0816-35.336533 49.792-47.428267 7.662933-4.471467 12.8768-3.976533 21.367467-4.906667 2.449067-0.273067 6.084267-1.152 8.226133-1.297066 0.221867-0.017067 0.4352 0.008533 0.657067 0 14.097067-0.810667 29.525333 0.3584 43.357866 1.9712z m-50.6368 42.0864c-1.5104 0.1536-2.7648-0.622933-4.189867-0.733867-8.917333-0.708267-18.158933 0.392533-26.9312 0-4.053333-0.187733-14.327467-0.529067-17.655467 0.802134-1.9456 0.776533-2.039467 2.9696-1.774933 4.829866 0.247467 1.749333 2.781867 2.338133 4.283733 2.935467h42.026667c4.471467-0.861867 6.126933-3.5072 4.232533-7.8336z m63.573333 33.5872c-3.7632 0.648533-4.4544 2.926933-3.447467 6.4768l3.3024 1.954133h48.64c2.952533-0.930133 3.6096-3.746133 2.628267-6.596266l-3.3024-1.954134-47.8208 0.128z m-102.3232 24.226133c-1.655467-0.366933-3.114667-1.2288-4.855467-1.390933-11.656533-1.092267-24.9856 0.887467-36.829866 0.008533l-3.5584 1.365334c-0.546133 2.875733-0.622933 4.9664 1.92 6.877866l39.7568 0.3072c2.304-0.273067 1.860267-1.194667 2.466133-1.809066 0.247467-0.256 0.7936 0 1.169067-0.554667 1.066667-1.604267-0.196267-2.9952-0.059734-4.804267z" fill="#E2ECB7" /><path d="M499.643733 233.472c-2.141867 0.1536-5.777067 1.032533-8.226133 1.297067-8.490667 0.930133-13.704533 0.4352-21.367467 4.906666-20.7104 12.091733-37.12 27.016533-49.792 47.428267-19.1232 30.779733-22.7584 63.701333-23.748266 99.089067-0.034133 1.297067 0.196267 2.474667-0.657067 3.6096-9.173333 0.221867-18.4064-0.162133-27.588267 0 0.136533-10.274133-0.187733-20.599467 0-30.8736 0.546133-30.139733 8.3968-56.797867 28.074667-79.624534 10.752-12.4672 24.977067-23.8336 40.8064-30.208l1.937067-1.0752c2.909867-1.7408 3.882667-2.210133 6.5024-3.259733 5.265067-2.107733 11.7504-3.396267 16.605866-5.742933 1.322667-0.64 1.809067 0.187733 0.674134-1.6128 4.590933 1.757867 9.284267-1.0496 13.7984-1.9712 2.295467-0.469333 5.6832-1.066667 7.8848-1.314134 2.7392-0.3072 6.050133-0.477867 8.840533-0.682666 2.039467-0.1536 4.215467 0.162133 6.272 0.0256z" fill="#C2CE9B" /><path d="M615.9104 389.154133l5.2224-0.034133c0-0.8192 0.597333-1.476267 0.6912-2.269867 0.904533-7.8336 0.273067-20.6848 0.034133-28.928-0.469333-16.093867-2.6112-31.709867-6.0416-47.163733-0.964267-4.334933-3.5584-7.534933-3.8144-11.861333l-1.373866-0.750934c1.0752-2.6368-0.938667-4.736-1.211734-5.9648-0.059733-0.273067 1.0496-5.060267 1.365334-5.384533 0.093867-0.093867 2.1504-1.297067 2.2784-1.3312 1.578667-0.469333 3.643733-0.145067 5.0688 0.648533 0.315733 0.1792 2.781867 1.8944 2.909866 2.013867 0.802133 0.810667 5.051733 6.613333 5.2992 7.509333 0.6912 2.466133-0.597333 1.416533 1.245867 2.978134 0.896 0.759467 2.338133 5.3504 2.9184 6.656 5.5808 12.6464 9.813333 26.1376 10.3424 40.1664l1.3824 0.725333c-0.836267 6.0416 0.955733 11.886933 1.3056 17.672533 0.494933 8.149333-0.6656 16.6144 0.264533 24.695467 1.8944 2.0224 3.080533 0.708267 4.650667 0.64 1.749333-0.0768 6.3488 0.605867 6.826667-1.058133-0.2304-11.127467 0.494933-22.357333 0.085333-33.476267-0.093867-2.5856-0.4864-6.050133-0.682667-8.840533l1.339734 8.840533c0 11.502933-0.1024 23.022933-0.0256 34.517333-1.015467 1.4336-0.512 1.211733-2.269867 1.314134-5.333333 0.324267-11.101867-0.315733-16.4352-0.674134-7.1168-0.477867-14.472533 0.2816-21.358933-0.64z" fill="#EEF5D3" /><path d="M556.5952 311.1168l47.8208-0.128 3.3024 1.954133c0.981333 2.858667 0.324267 5.666133-2.628267 6.6048h-48.64l-3.3024-1.954133c-0.9984-3.549867-0.315733-5.819733 3.447467-6.4768z" fill="#D1DFA3" /><path d="M493.021867 277.5296c1.8944 4.3264 0.238933 6.980267-4.232534 7.825067h-42.026666c-1.5104-0.5888-4.036267-1.1776-4.283734-2.926934-0.264533-1.860267-0.1792-4.053333 1.774934-4.829866 3.319467-1.322667 13.5936-0.981333 17.655466-0.802134 8.772267 0.401067 18.013867-0.699733 26.9312 0 1.425067 0.110933 2.679467 0.878933 4.189867 0.733867zM454.272 335.342933c-0.136533 1.809067 1.1264 3.2 0.059733 4.804267-0.375467 0.5632-0.9216 0.3072-1.169066 0.554667-0.605867 0.605867-0.162133 1.536-2.466134 1.809066l-39.7568-0.3072c-2.5344-1.911467-2.4576-4.002133-1.92-6.877866l3.5584-1.365334c11.844267 0.8704 25.173333-1.109333 36.829867-0.008533 1.732267 0.162133 3.191467 1.024 4.855467 1.390933z" fill="#D0DFA2" /><path d="M543.658667 235.4432c-13.832533-1.6128-29.252267-2.773333-43.357867-1.9712 0.546133-1.143467 2.5344-0.648533 3.618133-0.657067 11.733333-0.1024 23.2704 0 34.798934 1.322667l4.9408 1.297067z" fill="#C2CE9B" /></svg>