<?xml version="1.0" standalone="no"?><!DOCTYPE svg PUBLIC "-//W3C//DTD SVG 1.1//EN" "http://www.w3.org/Graphics/SVG/1.1/DTD/svg11.dtd"><svg class="icon" width="256px" height="256.00px" viewBox="0 0 1024 1024" version="1.1" xmlns="http://www.w3.org/2000/svg"><path d="M883.515306 613.932974l-1.817581 2.28691 0.034133 308.28914c0 2.542908 0.29013 4.923683 0.452262 6.25487 0 1.066656-0.085332 3.020769-0.307197 4.010626l-2.517308 1.518918 0.639994 6.664466c-3.822895 16.665431-14.711317 33.987922-26.512798 46.437929-1.382386-0.349863-7.93592-1.126389-9.301239 0.58026l-7.56899 9.454838c-0.187731-0.913057-0.571728-4.343423-0.477862-5.59781l0.281597-3.805828c0.076799-1.015456-1.723716-0.503462-4.369022-0.435196l-10.316695 6.050072c-2.559974 1.501851-8.243116 1.99678-12.074545 1.510385l-14.643051-1.877314c-3.157301-0.401063-8.959909-0.580261-11.724681-0.298664l7.961519-3.037836c13.559329-5.179681 25.633873-13.448397 37.128157-22.220575 11.400418-8.695378 15.923039-16.238769 20.633391-30.088228 2.645307-7.782321 4.497021-16.494766 4.497021-24.746415v-38.612942l-0.136532-314.142948-0.264531-18.34648-0.708259-30.659956-0.68266-33.492994 0.162131-2.440508-0.426662-39.995328 0.614394-49.953627 1.203188-37.938815-0.324264-18.10755-0.469328-25.872804-0.136532-7.432458-0.349863-11.110287c-0.733859-23.082433-13.072934-44.458216-31.402348-58.461274-2.295443-1.749316-7.449524-4.249557-9.8815-5.478344l-12.424408-6.297536-12.09161-6.408469c-3.558364-1.885848-8.703912-5.384479-10.862823-8.456447l-6.715666-9.531637c-1.587184-2.252777-2.850104-8.848977-2.858637-11.562549l-0.136532-47.862982c0-1.65545-2.636773-5.88794-4.403156-5.879407l-77.652545 0.187732-28.663176 0.059732-9.898567 1.032523-37.776683-0.127998-8.439381-0.059733-37.751084-0.034133-10.018032-0.554661-12.16841-0.204798-37.862016 0.34133-16.921428 0.29013-21.426983 0.238931c-5.333279 0.059733-10.717758 0.153598-16.042504-0.102399l-16.042504-0.759459-84.197546-0.145065-26.188534 0.759459-58.026079-0.981323c-1.851715-0.034133-6.399935 1.297054-8.285782 2.013846l0.136532 44.125419c0.059733 20.223795-6.587667 30.762355-23.841892 39.909995-5.802608 0.878924-13.951859 4.113025-19.413136 6.818064-10.410561 5.145548-6.314603-5.375945-16.366768 5.777009-6.681532 7.415391-5.026082-1.117855-14.685717 6.613266-2.534374 2.030913-4.514088 3.583964-6.118338 4.497021l-7.244727 4.130091c-9.634036-12.663338 17.843019-26.538398 13.405731-28.620509l-3.490098-1.638384c3.430365-5.000483 9.028175-9.267106 15.009981-12.578006l17.894219-9.907099c3.60103-1.99678 9.087908-8.260183 9.232973-12.859603 0.520528-16.511833 0.324263-31.888743-0.452262-47.086456-7.756721-1.510385-13.269199-2.841571-19.353404-5.86234-15.863306-7.867654-17.808886-31.129284-13.081467-41.531313 2.013846-4.420222 12.578006-7.731122 12.697471-13.235065 0.170665-8.072451-12.441474-9.258573-13.226533-33.160197-0.426662-12.876669 6.732732-28.671709 21.196585-30.898887 16.4009-2.525841 33.066331-2.28691 50.01336-2.303977L400.542071 0.853325l190.299937 0.110932 46.36113 0.110932L761.344812 0.605861C787.618679 0.503462 825.617227-5.043149 834.295539 19.797133c2.329576 6.672999 1.928514 15.871839 0.136532 22.9203-5.265013 20.73579-15.13798 19.285138-7.295926 28.074382 9.821767 10.999355 12.944935 27.067459 6.83513 40.225726-9.318305 20.07873-29.968763 9.318305-29.951696 20.257928l0.059733 43.016097c0.017066 12.970535 19.566735 18.05635 31.487681 24.490418 13.491063 7.287393 23.927224 19.191272 32.895666 31.53888 8.652712 11.912413 14.873449 33.049265 14.933182 46.540328l0.34133 80.545317-0.059733 182.201885-0.136532 74.32458zM216.121542 24.661083v25.924004l590.099615 0.042666V24.703749l-590.099615-0.042666z m587.258044 46.122199l-587.906571 0.102399v30.156494l587.915104-0.102399V70.783282z" fill="#BFCFD0" /><path d="M230.124599 212.819175c-15.095314 8.012719-30.85622 15.735307-41.036383 30.924486-3.020769 4.505554-7.133794 10.470294-9.079375 15.18918-3.2853 7.978586-7.850587 24.217354-7.83352 32.178873l0.332796 150.261943 0.119466 14.267589 0.810658 6.545-0.452262 31.282883-0.750926 38.280145 0.162132 68.197708 0.554661 11.554016 0.068266 20.411527 0.179198 10.410561 0.580261 13.909192 0.136532 3.635163-1.186121 10.239896 0.349863 14.318788-0.059733 16.221703c0.204798 3.2597 0.65706 7.816454 0.674126 11.417484l0.127999 38.433743v3.592497l0.034133 10.461761c0 1.809048-0.759459 5.794075-0.639993 7.611656l0.520528 8.038318-1.945581 1.834648 0.477862 20.522459-0.127998 27.91225-0.221865 32.24714-0.162132 67.506515c0 3.404765 2.397842 10.606826 3.70343 13.252133l6.485267 13.1156-6.93753 2.107712c-6.88633 2.090645-15.368377-3.353566-15.974238 0.349863l-1.023989 6.237803 1.860248 3.720496c0.375463 0.750926-3.660763 0.819192-3.490098 0.60586-8.012719-6.502334-15.155046-26.2568-15.214779-38.612941l-0.36693-74.367246-0.0256-110.659144-0.486395-204.243262 0.298664-222.436145c0.034133-28.27918 0.750926-65.458536 17.203025-86.219925 0.878924-0.733859 3.089035-2.833038 3.891161-3.91676l5.521011-7.415392c0.870391-1.169055 2.210111-3.771695 2.679439-4.966349 1.783449-2.116245 4.206891-4.556754 6.323136-6.382869l3.490098 1.638383c4.437288 2.082112-23.031233 15.957172-13.405731 28.62051l7.244727-4.130091c1.60425-0.913057 3.57543-2.466108 6.118338-4.497021 9.659635-7.731122 8.004185 0.802125 14.685717-6.613267 10.052165-11.152954 5.956206-0.63146 16.366768-5.777008 5.469811-2.705039 13.610529-5.93914 19.413136-6.818064z" fill="#CCD9D9" /><path d="M181.937355 956.585499l2.056512 2.073579 0.648527 5.102881 8.985509 7.790855c1.425052 1.237321 4.770085 2.739172 6.408468 3.404765 1.544518 1.228788 4.718885 3.618097 6.749799 4.684752l12.45854 6.527934c7.312993 3.831428 23.722426 8.140717 30.941553 8.285783l48.059246 0.97279 15.897438 0.170665 31.965543 0.281597 14.497986 0.324263 70.151822 0.65706 334.358209-0.127998c6.20367 0 13.601995-1.279987 18.175816-1.749316 2.764772-0.281597 8.56738-0.102399 11.724681 0.298664l14.643051 1.877314c3.831428 0.494928 9.51457 0 12.074545-1.510385l10.316695-6.050072c2.645307-0.068266 4.445822-0.580261 4.369022 0.435196l-0.281597 3.805828c-0.093866 1.254387 0.298664 4.684752 0.477862 5.59781l7.56899-9.454837c1.365319-1.706649 7.91032-0.930124 9.301239-0.580261-19.643534 20.71019-53.520524 34.781514-83.779417 34.593782l-56.575426-0.358396-166.116716-0.264531-24.319753 0.102399-134.176773-0.622927-76.278693-0.153598c-38.228946-0.076799-66.465459 2.380776-103.653348-10.333762-17.518756-5.990339-44.987277-26.077602-52.197871-42.743033-0.162132 0.221864 3.865561 0.145065 3.490098-0.605861l-1.860248-3.720495 1.02399-6.237804c0.605861-3.703429 9.096441 1.740782 15.974238-0.349863l6.937529-2.107712z" fill="#B0C5C6" /><path d="M851.447365 437.200899l-7.59459-5.86234c-8.85751-6.835131 0.034133-3.848494-12.057477-12.023345-5.734342-3.882627-12.987602-2.346643-18.124617 2.193045l-10.308162-6.050072c-7.304459-4.292223 6.408468-8.712445 2.500242-16.255836l-5.819675-11.221219c-2.824505-5.444211-10.478827-4.343423-15.863306-2.210111-18.286748 7.244727-12.85107 0.844791-20.360326 12.066011-0.853325 1.279987-4.428755 4.454355-5.555144 3.438898-7.210594-6.502334-0.034133-5.529544-6.084205-16.588631-5.478344-10.018032-12.057478-18.355014-22.715503-21.580582l-9.890033 9.130575c-8.695378 8.029785-14.344388-7.056995-19.788599 0.930123-3.541297 5.196747-10.777491 5.853807-13.525196 1.877315l-2.380776-3.438899c-1.382386-1.99678-6.161004 5.324746-11.571083 0.136532-3.737562-3.583964-2.739172-11.758814-1.31412-17.143293l2.824505-10.658025c0.546128-2.056512 1.28852-5.759942 1.399452-7.56899 0.324263-5.28208-11.46015-0.119465-15.948638-7.108194-1.791982-2.781838-5.384479-6.161004-7.59459-6.289003-15.129447-0.844791-13.542263 12.979068-17.39929 10.606826l-4.684752-2.884238 7.330059-10.470294-6.041539-6.732731-14.131057-2.474642-2.346643 10.623892c-2.295443 10.419094-1.851715 3.464498-23.346963 1.450652-2.124778-0.196265-5.444211-1.527451-5.188214-3.020769l2.039446-11.690548c-3.089035-7.901787-20.513925-20.496859-27.263724-13.84946-5.23088 5.154081-8.388182 10.53856-11.972145 16.716631-2.030913-0.0256-7.51779-3.319433-6.843664-5.28208 0.844791-2.483175 2.687973-7.944453 2.201578-10.393495-1.083722-5.486878-8.063918-13.48253-15.504909-12.552406-4.334889 0.537595-11.562549 5.009016-12.868137 8.464981l-3.626629 9.582836-9.497504-1.928513c-14.335855-2.909837-9.898566 12.100144-16.929962 13.260665-18.483013-9.531637-14.79665 3.097569-26.316533 5.93914l-5.91354 4.974883-13.311865-3.950894-11.46015 10.120431c-4.531154-4.30929-13.721461-6.690065-18.209949-2.645306l-9.523103 8.575913c-20.471259 18.431813-0.836258 1.826115-16.494767 18.337947-2.986636-2.167445-5.461278-4.206891-6.724198-4.292223l-21.350183-1.467719c-10.734824-0.733859-1.834648 20.462726-9.420705 20.923522l-15.923038-5.179681-14.515053-4.855418c-6.161004-2.056512-18.636611 15.018514-20.821122 17.527289-0.733859 0.836258-3.447432 2.244244-4.445822 2.525841-1.33972 0.375463-3.413299-4.036226-3.387699-5.54661l0.767992-48.264044c0.145065-9.378038 7.970053-35.276442 13.021735-42.521169l11.613749-16.665431 7.440991-10.606825 13.943325-18.611012c-2.065046-2.457575-5.503944-6.562067-7.210593-8.166317-10.393495-2.380776-25.778939-1.979713-36.957492-0.435196-15.547576 2.150378-7.654322 2.150378-28.390112 9.045242-11.716148 3.891161-22.246174 13.1668-27.946383 23.986957l-7.364192 13.968925c-1.194655 2.278377-2.193044 9.284173-2.252778 11.895346l-0.708259 30.113828-0.435196 66.07293-1.31412 16.545965c-0.691193 8.695378-10.692158 4.531154-11.374818 8.686845-2.013846 12.322008 1.791982 16.247302-0.435195 16.545966-9.54017 1.271454-7.20206-5.393012-14.327322-2.33811-13.79826 5.905007-13.815327 6.289003-16.844629 15.888906-1.33972 4.249557-3.711962 10.811624-3.430365 14.369987l1.100789 13.82386 9.651102 12.680405-1.868781 9.676702c4.28369 10.384961-3.114635 24.541618 1.169055 32.844467l-0.819192 7.893253c-0.204798 2.005313 1.698116 7.184994 1.937047 9.369505 0.281597 2.491708-2.747705 8.388182-2.713572 11.050555l0.426662 38.194812c0.213331 19.336337 2.065046-0.187731 0.213331 21.68298l-1.211721 14.250523-7.645789 7.056995 2.193044 4.386088c2.466108 4.923683 2.517308 12.757204-1.023989 16.776364l-3.217034 3.660763-0.580261-13.909193-0.179198-10.410561-0.068266-20.411526-0.554661-11.554016-0.162132-68.197709 0.750926-38.280145 0.452262-31.282883-0.810659-6.545-0.119465-14.267588-0.332797-150.261943c-0.017066-7.970053 4.548221-24.208821 7.833521-32.178874 1.94558-4.718885 6.050072-10.683625 9.079374-15.189179 10.180163-15.180646 25.94107-22.911768 41.036384-30.924487 17.245692-9.147641 23.901624-19.6862 23.841892-39.909995l-0.136532-44.125419c1.885848-0.716793 6.434068-2.039446 8.285782-2.013846l58.026079 0.981323 26.188534-0.759459 84.197546 0.145065 16.042504 0.759459c5.324746 0.255997 10.709225 0.162132 16.042504 0.102399l21.426983-0.238931 16.921428-0.29013 37.862016-0.34133 12.16841 0.204798 10.018032 0.554661 37.751084 0.034133 8.439381 0.059733 37.776683 0.127999 9.898567-1.032523 28.663176-0.059733 77.652545-0.187731c1.766382 0 4.403155 4.223957 4.403156 5.879407l0.136532 47.862981c0 2.705039 1.271454 9.309772 2.858637 11.562549l6.715666 9.531637c2.158911 3.071969 7.304459 6.5706 10.862823 8.456447l12.09161 6.408469 12.424408 6.297536c2.431975 1.228788 7.586056 3.729029 9.8815 5.478344 18.329414 14.003058 30.668489 35.370308 31.402348 58.461274l0.349863 11.110288 0.136532 7.432457 0.469328 25.872805 0.324264 18.107549-1.203188 37.938816-0.614394 49.953626zM696.312938 363.721111l7.756722 1.535985c3.686363-1.911447 6.340202-8.499114 4.505554-13.064401-4.241024-10.521493-14.045724-15.556109-23.99549-11.85268l-5.700209 15.940105 11.818547 5.62341c1.02399 0.486395 4.266623 1.544518 5.614876 1.809048z" fill="#E7EDEB" /><path d="M215.473015 70.834482h587.906571v30.156494H215.473015z" fill="#EBF6F5" /><path d="M216.087409 50.602153V24.67815h590.099615V50.602153z" fill="#E9F2F2" /><path d="M173.813704 750.499055l-0.127999-38.433743c-0.008533-3.60103-0.469329-8.157784-0.674126-11.417484l0.059732-16.221703-0.349863-14.318788 1.186122-10.239896c2.679439-0.65706 1.766382 11.280952 3.063435 21.444049 1.28852 10.120431 0.332797 19.020607-0.435195 29.123972-0.955724 12.603606-0.648527 24.848815-0.68266 38.024147l-2.047979 2.030913zM173.847837 764.553313l-0.017067-10.461761c2.961037-2.94397 2.91837 13.465463 0.017067 10.461761z" fill="#E7EDEB" /><path d="M200.036371 974.957579c-1.638383-0.65706-4.983416-2.167445-6.408468-3.404765l-8.985509-7.790855-0.648527-5.102881 10.726292 9.8047c1.578651 1.442119 4.138625 4.829818 5.316212 6.485268z" fill="#CCD9D9" /><path d="M851.447365 437.200899l0.426662 39.995328c-1.484785 0.068266-5.503944-0.204798-6.88633-1.058123-18.175816-11.255353-6.015939 1.390919-20.36886-7.927386-4.002093-2.60264-12.757204 9.318305-11.792947 11.664949l8.362582 20.249394c-3.413299 5.580743-12.48414 13.252132-19.029141 8.558847l-9.429237-6.758332-7.637256 5.350346-5.529544 3.848494-1.749316 20.010464-8.507647-0.034133-5.137014 0.085333c-7.415391 0.119465 9.872967 18.491546 9.813234 18.414746 2.500241 2.841571 2.815971 12.236676 0.520528 15.214779s-5.247947 7.381258-4.889551 10.086298l1.732249 13.149733c1.015456 7.731122-2.26131 11.912413-10.589759 14.216389-4.96635 1.373853-18.209949 14.881982-16.699564 21.435516l-7.500724 7.62019 4.241024 13.303331c6.075672 19.037674 4.548221 5.350346 8.166317 25.497342l-12.791337 10.837223c-0.247464 2.107712-0.383996 8.601513-1.28852 10.777491l-4.812751 11.53695c-1.544518 3.694896-5.725809 6.417002-10.615359 7.935919l6.800997 8.772178c1.68105 2.167445 0.94719 7.773788-1.203188 9.403638l-8.319915 6.323136-15.803573 2.483174c-1.638383 0.255997-5.631943 1.092256-5.930607 1.203188l5.589277 13.619062c1.100789 2.670906-4.881017 7.876187-7.338592 9.51457-14.497986 9.685235 2.056512 16.179036-24.951214 27.579454l-1.979713 10.265496-13.090001 10.786024c-2.329576 1.919981-4.923683 7.039929-7.355659 10.666558-2.559974 3.814361-8.806311 7.500724-12.757204 11.101754-3.891161 3.549831-6.928996 12.919336-10.862823 15.948639l-10.632425 8.183383c-3.217034 2.474642-5.956206 5.060215-8.925776 7.125261l-12.407341 8.627113 5.427145 8.678312-10.504427 8.080985-8.038318-5.350346c-2.278377-1.518918-8.83191-2.440509-11.289486-1.254387-0.836258 0.401063-2.278377 5.273547-1.954114 4.932216 2.850104 5.57221 3.089035 10.325229 1.459186 16.324101l5.435678 7.551924c-0.110932 4.548221-6.178071 10.308162-11.639349 9.232973-3.225567-0.639994-5.589277-1.373853-6.997262-2.244244s-2.303977-6.5962-0.964257-7.560457c6.562067-4.676219 18.628078-7.773788 7.526324-8.558846l-14.011592-0.99839-8.046851 9.036708c-11.767347 13.217999-5.555144 12.944935-11.886813 15.735307-2.133312 0.938657-7.748188-0.554661-9.48897-2.124778l-9.685236-8.772178c-3.225567 2.116245-6.775398 4.872484-10.077764 7.696989l-6.6218 3.967959c-15.146513 21.563515-19.720333-6.545-41.061983-0.093865 2.218644 3.822895 3.669296 6.101271 4.710352 9.693768 1.305587 4.497021-2.355176 9.454837-5.563677 11.972145l-9.360972 7.372726c-1.885848 0.358396-7.790854-1.28852-9.241506-3.071969l-5.640476-6.946063c-1.33972-1.646917-5.239414-4.070359-7.312992-4.275157-9.207373-0.895991-4.778618 13.294799-19.165673 9.028175-1.390919-0.409596-5.922073-0.802125-6.289003 0.435196s-0.887458 3.353566-1.382386 5.495411l-2.005313 8.712445-2.26131 9.48897-7.833521 5.742875c-1.911447-0.196265-6.246337-1.211721-7.978585-2.508774l-14.148123-10.572693c-5.102882 4.906617-7.927386 9.104974-10.939623 14.881982-2.124778 1.160522-9.847367 2.645307-12.014811 2.184512l-5.188214-7.927387-8.379649-0.529061c-0.383996-0.819192-2.909837-4.437288-4.292223-4.855417-1.919981-0.588794-6.672999 2.457575-7.389792 3.686362l-5.998872 0.076799-22.297374-0.503461-1.766382 1.65545-10.214296-0.426663-23.67976-1.663983c-3.140235-0.221864-8.925776-4.403155-11.53695-5.666076l-9.625502-4.642086-9.872967-4.761552c-1.476252-0.716793-3.959427-3.131702-5.009016-4.215424l-6.20367-6.399935c-6.903397-7.125261-15.018514-17.177426-15.317178-27.920783l-1.066656-39.389467-1.937047-10.862823 0.665593-77.92561c0.0256-3.191434 0.477862-7.364192 0.31573-10.103364l-1.297053-21.785379c-0.238931-4.053292-0.418129-8.166317-0.290131-12.364675l0.494929-16.08517c0.29013-9.506037 1.902914-18.568345 3.89116-27.835451l-1.834648-12.031878c-0.554661-3.609563-1.02399-8.976976-0.435195-12.031878l2.030912-10.615359c-5.614876-25.67654 1.689583-11.920946 0.401063-34.482851l-7.59459 0.68266-2.193044-4.386089 7.645789-7.056995 1.211721-14.250522c1.851715-21.870712 0-2.346643-0.213331-21.68298l-0.426662-38.194813c-0.0256-2.65384 2.99517-8.550313 2.713572-11.050554-0.247464-2.175978-2.150378-7.355659-1.937047-9.369505l0.819192-7.893253c-4.28369-8.302849 3.114635-22.450972-1.169055-32.844467l1.868781-9.676702-9.651102-12.680405-1.100789-13.82386c-0.281597-3.558364 2.090645-10.120431 3.430365-14.369987 3.029303-9.599903 3.046369-9.983899 16.844629-15.888906 7.125261-3.054902 4.795685 3.618097 14.327322 2.33811 2.227177-0.298664-1.578651-4.223957 0.435195-16.545966 0.68266-4.155691 10.683625 0 11.374818-8.686845l1.31412-16.545966 0.435196-66.072929 0.708259-30.113828c0.059733-2.611174 1.058123-9.625502 2.252778-11.895346l7.364192-13.968925c5.708742-10.82869 16.230235-20.095796 27.946383-23.986957 20.73579-6.88633 12.842536-6.88633 28.390112-9.045242 11.178553-1.544518 26.555464-1.94558 36.957492 0.435196 1.706649 1.60425 5.145548 5.708742 7.210593 8.166317l-13.943325 18.611011-7.440991 10.606826-11.613749 16.665431c-5.051682 7.25326-12.868136 33.151664-13.021735 42.521169l-0.767992 48.264044c-0.0256 1.510385 2.047979 5.922073 3.387699 5.54661 0.99839-0.281597 3.720496-1.689583 4.445822-2.525841 2.184511-2.508775 14.660118-19.583801 20.821122-17.527289l14.515053 4.855418 15.923038 5.17968c7.586056-0.452262-1.31412-21.65738 9.420705-20.923521l21.350183 1.467719c1.262921 0.085332 3.737562 2.124778 6.724198 4.292223 15.658508-16.503299-3.976493 0.093866 16.494767-18.337948l9.523103-8.575913c4.488488-4.044759 13.678795-1.672516 18.209949 2.645307l11.46015-10.120431 13.311865 3.950893 5.91354-4.974882c11.519883-2.841571 7.824987-15.470776 26.316533-5.93914 7.031395-1.160522 2.60264-16.170503 16.929962-13.260666l9.497504 1.928514 3.626629-9.582836c1.305587-3.455965 8.54178-7.927386 12.868137-8.464981 7.440991-0.930124 14.42972 7.065528 15.504909 12.552406 0.486395 2.449042-1.356786 7.918853-2.201578 10.393495-0.665593 1.97118 4.821284 5.265013 6.843664 5.282079 3.583964-6.178071 6.741265-11.562549 11.972145-16.71663 6.758331-6.647399 24.174688 5.947673 27.263724 13.84946l-2.039446 11.690548c-0.264531 1.493318 3.063436 2.824505 5.188214 3.020769 21.495249 2.013846 21.05152 8.968442 23.346963-1.450652l2.346643-10.623892 14.131057 2.474641 6.041539 6.732732-7.330059 10.470294 4.684752 2.884237c3.857028 2.372243 2.269844-11.451617 17.39929-10.606825 2.218644 0.119465 5.811141 3.498631 7.59459 6.289002 4.488488 6.980196 16.272902 1.826115 15.948638 7.108195-0.110932 1.809048-0.853325 5.512477-1.399452 7.56899l-2.824505 10.658025c-1.425052 5.384479-2.431975 13.559329 1.31412 17.143293 5.410078 5.188214 10.188697-2.133312 11.571083-0.136532l2.380776 3.438899c2.747705 3.976493 9.983899 3.327966 13.525196-1.877315 5.435678-7.987119 11.084688 7.099661 19.788599-0.930124l9.890033-9.130574c10.658025 3.225567 17.237159 11.554016 22.715503 21.580581 6.050072 11.059088-1.126389 10.077764 6.084205 16.588632 1.126389 1.015456 4.701819-2.158911 5.555144-3.438898 7.509257-11.22122 2.073579-4.821284 20.360326-12.066011 5.384479-2.133312 13.038801-3.234101 15.863306 2.210111l5.819675 11.221219c3.908227 7.54339-9.813234 11.963612-2.500242 16.255835l10.308162 6.050072c5.137015-4.539687 12.390274-6.075672 18.124617-2.193044 12.083077 8.17485 3.199968 5.179681 12.057477 12.023345l7.59459 5.86234z" fill="#FDFDFC" /><path d="M851.874027 477.20476l-0.162131 2.440509c-1.382386 0.452262-5.085815 4.787151-5.461278 7.125261l-2.978104 18.414747c-0.955724 5.930607-3.191434 14.369988-0.938657 19.31927 12.53534 27.587987-2.773305 14.557719 6.374336 37.52922l-0.921591 13.892125c-1.68105 25.318143 0.486395 18.073417-1.484785 38.374011-0.511995 5.265013-0.426662 11.895346 0.059733 17.168893 2.013846 21.99871 0.179198 6.894863 0.776525 26.563997l0.989857 32.289806c0.179198 5.802608-0.136532 11.408951-1.262921 17.177426-4.070359 20.829655 1.65545 3.3109-0.469328 27.067459-0.605861 6.758331-1.143455 14.890516-0.170665 21.358716 1.484785 9.838834 0.699726 17.39929 0.213331 26.96506l-1.382386 27.28079c-0.452262 8.823377-2.329576 16.051037 0.324263 24.473352l-1.416519 8.072451c1.851715 10.709225 1.937047 21.145386 0.401063 31.854611l-1.937047 13.550796c-2.94397 20.616324 7.099661 9.215907 2.210111 35.74577l-10.956689 15.385444c-12.373208 17.365157-17.305424 19.532602-34.585249 29.038639-2.867171 1.578651-7.628723 4.923683-10.128964 5.768475-6.161004 2.073579-13.951859 4.300756-19.558202 4.582354l-24.089355 1.194654c-5.427145 0.264531-10.905489 0.511995-16.16197 0.358397l-15.957171-0.469329c-7.432458-0.221864-14.651585 0.102399-22.032844 0.255997l-14.13959 0.290131-37.990014 0.31573-31.991142-0.97279-32.119141-1.02399-20.138463-0.503461-18.175815-0.196265-18.030751-0.955724 3.908227-2.850104c3.071969-2.244244 7.816454-8.755111 8.388182-13.030268 0.665593-4.949283-19.216872-9.557236-25.761872-1.877314l1.510384 8.123651c0.426662 2.321043 3.814361 6.357269 5.503944 7.654322 1.94558 1.33972 2.713572 1.868781 2.70504 1.860248-5.768475 0.110932-17.023827 0.213331-23.65416-0.546128-31.547413-3.643696-9.932699 2.235711-40.882786-0.563194-32.059408-2.901304-42.504102 3.925294-65.944931-0.691193l2.26131-9.488971 2.005313-8.712445c0.494928-2.141845 1.02399-4.25809 1.382386-5.495411s4.898084-0.844791 6.289003-0.435195c14.387054 4.25809 9.958299-9.924166 19.165673-9.028175 2.082112 0.204798 5.981806 2.62824 7.312992 4.275156l5.640476 6.946063c1.450652 1.783449 7.355659 3.430365 9.241506 3.071969l9.360972-7.372725c3.199968-2.525841 6.869264-7.483657 5.563677-11.972145-1.041056-3.583964-2.500241-5.862341-4.710352-9.693769 21.34165-6.451135 25.924004 21.65738 41.061983 0.093866l6.6218-3.96796c3.302367-2.824505 6.852197-5.580743 10.077764-7.696988l9.685236 8.772177c1.740782 1.578651 7.355659 3.063436 9.48897 2.124779 6.331669-2.790372 0.119465-2.517308 11.886813-15.735307l8.046851-9.036709 14.011592 0.99839c11.101754 0.793592-0.964257 3.882627-7.526324 8.558847-1.348253 0.955724-0.443729 6.690065 0.964257 7.560456s3.771695 1.60425 6.997262 2.244244c5.469811 1.075189 11.528416-4.676219 11.639349-9.232973l-5.435678-7.551923c1.621317-5.998872 1.390919-10.760424-1.459186-16.324101-0.324263 0.34133 1.109322-4.531154 1.954114-4.932217 2.457575-1.177588 9.011109-0.255997 11.289486 1.254387l8.038318 5.350346 10.504427-8.080985-5.427145-8.678312 12.407341-8.627112c2.96957-2.065046 5.708742-4.65062 8.925776-7.125261l10.632425-8.183384c3.94236-3.029303 6.971663-12.407341 10.862823-15.948638 3.950893-3.60103 10.19723-7.287393 12.757204-11.101754s5.034616-8.746578 7.355659-10.666559l13.090001-10.786024 1.979713-10.265496c27.007726-11.400418 10.453227-17.894219 24.951214-27.579453 2.449042-1.638383 8.430848-6.843664 7.338592-9.51457l-5.589277-13.619062c0.298664-0.110932 4.28369-0.938657 5.930607-1.203188l15.803573-2.483175 8.319915-6.323136c2.141845-1.62985 2.884237-7.22766 1.203188-9.403638l-6.800997-8.772177c4.88955-1.518918 9.070841-4.241024 10.615359-7.93592l4.812751-11.53695c0.913057-2.175978 1.049589-8.669779 1.28852-10.77749l12.791337-10.837224c-3.618097-20.146996-2.090645-6.451135-8.166317-25.497341l-4.241024-13.303332 7.500724-7.620189c-1.501851-6.553534 11.741748-20.061663 16.699564-21.435516 8.328449-2.303977 11.605216-6.485268 10.589759-14.216389l-1.732249-13.149734c-0.358396-2.713572 2.696506-7.236193 4.889551-10.086297s1.97118-12.373208-0.520528-15.214779c0.068266 0.076799-17.220092-18.303814-9.813234-18.414747l5.137014-0.085332 8.507647 0.034133 1.749316-20.010464 5.529544-3.848494 7.637256-5.350346 9.429237 6.758331c6.545 4.693286 15.615842-2.978103 19.029141-8.558846l-8.362582-20.249395c-0.964257-2.33811 7.790854-14.267589 11.792947-11.664948 14.344388 9.326839 2.193044-3.319433 20.36886 7.927386 1.382386 0.853325 5.410078 1.126389 6.88633 1.058123z m-19.182739 16.656898c0.392529-0.99839 0.981323-5.043149 0.093866-4.684752l-4.309289 1.732249c-1.006923 0.401063 0.145065 3.046369 0.571727 4.027692 0.281597 0.648527 3.379166-0.418129 3.643696-1.075189z m-11.588149 34.969245c-1.689583-5.580743-9.318305-6.997262-12.492673-4.590886-1.612784 1.220254 0.36693 6.766865 2.321043 7.586056 4.351956 1.817582 7.56899 0.742392 10.17163-2.986636z m-4.445821 36.343099c4.676219 1.843181 11.80148-0.94719 14.054257-4.369023 1.425052-2.158911-1.365319-8.379648-3.711962-9.403638-11.571083-5.026082-3.822895-13.448397-12.910803-11.46015l-10.402027 2.278377c-1.254387 0.273064-4.718885 2.090645-4.394622 3.157301s1.578651 3.524231 2.491708 4.095958l9.326838 5.811141c0.887458 3.071969 3.387699 9.036708 5.555144 9.890034z m-21.426983 37.367087c2.440509-4.078892 3.660763-11.263886 0.989857-12.398807-3.353566-1.433585-7.167927-2.28691-8.029786-0.70826l-3.191434 5.879407 10.231363 7.22766z m-32.008209 22.34004c0.759459-1.860248 0-8.328449-1.612783-9.011108-2.28691-0.97279-6.135404-1.851715-8.430848-1.962647-1.800515-0.085332-3.217034 4.633553-2.807438 6.408468 0.930124 4.002093 11.152954 8.686845 12.842536 4.565287z m30.61729 26.350666c-3.063436-1.382386-9.318305-1.774915-10.999355-0.204797-1.228788 1.151988-2.295443 6.664466-0.759459 7.261793l5.717275 2.23571c1.553051 0.605861 5.614876-1.433585 7.031395-2.278377s0.503462-6.340202-0.989856-7.014329z m22.442439 48.494442c0-4.181291-3.387699-7.577523-7.577523-7.577523s-7.577523 3.387699-7.577523 7.577523 3.387699 7.577523 7.577523 7.577523 7.577523-3.387699 7.577523-7.577523z m-80.511184 47.641117c-2.935437-3.96796-6.724198-7.27886-10.478827-7.398325-2.065046-0.059733-5.734342 5.759942-4.25809 7.108194 1.186121 1.083722 4.113025 2.952503 6.323136 3.874094 1.740782 0.733859 5.751408-1.476252 8.413781-3.592496z m-58.555139 67.540648c0.281597-1.715183-1.578651-6.306069-3.174368-6.647399-1.587184-0.34133-5.580743 0.861858-6.451134 2.235711-1.467718 2.303977-3.089035 5.154081-2.517308 6.587666s2.91837 4.172758 4.215424 5.30768c0.981323 0.861858 6.545 0.989857 6.758331-0.315731l1.169055-7.159394z m9.318305-3.370632c-1.962647 1.245854-0.750926 7.85912 0.930124 9.446304s7.304459 1.322653 8.814844-0.426662l4.241024-4.898084c1.911447-2.210111-7.27886-8.396715-13.994525-4.130092z m-16.614231 58.230876l-9.070841-8.712445c1.65545-4.454355 15.018514-0.093866 14.890515-7.338592-0.093866-5.54661-13.951859-16.580099-18.670744-16.059571-4.795685 0.529061-11.946546 7.347125-10.896956 11.101754l3.413299 12.236676c-0.102399 5.060215 1.894381 10.640959 6.707132 11.886813l8.780711 2.269843c0.94719 0.247464 5.119948-1.211721 5.077282-2.269843-0.0256-0.699726-0.136532-2.158911-0.230398-3.123168z m24.362419-10.777491c1.68105 1.783449 7.082595 2.739172 8.942843 1.698116 4.28369-2.389309 6.852197-7.423925 5.956206-10.871356-1.015456-3.908227-8.25165-7.031395-10.640958-4.804218l-6.826598 6.365802c-1.032523 0.964257 0.529061 5.444211 2.568507 7.611656z m-68.67557 25.36081l-2.346643-20.846722 11.784414 1.988246c1.382386 0.230398 4.753018-3.985026 4.241024-5.367412-1.467718-3.91676-10.794557-8.627113-13.755594-3.524231-1.962647 3.379166-4.403155 5.503944-7.116728 7.25326l-9.454837 6.084205 0.588794 17.220092c0.068266 2.116245 6.459668 2.013846 8.413781 1.032523l7.662856-3.839961z m74.751242 21.230718c1.416519-3.780228-2.116245-8.550313-4.539687-9.019642-2.935437-0.571728-7.645789 2.517308-6.93753 6.587666 0.580261 3.362099 10.308162 5.538077 11.477217 2.423442z m-52.163737 0.460795c0-2.585574-2.099179-4.684752-4.684753-4.684753s-4.684752 2.099179-4.684752 4.684753 2.099179 4.684752 4.684752 4.684752 4.684752-2.099179 4.684753-4.684752z m-63.572689 19.908065c2.91837-2.346643 5.017549-5.956206 4.804218-7.970053-0.179198-1.612784-3.3109-5.666076-4.923683-5.418612-2.747705 0.418129-8.447914 3.788762-9.514571 5.802608-0.605861 4.57382 6.161004 10.384961 9.634036 7.59459z m-32.426338 0.204798c-1.254387-0.119465-4.787151 1.075189-5.401545 2.193044-1.297054 2.355176-2.107712 6.519401-1.305587 8.268716s5.026082 4.411689 6.766865 3.592497c4.62502-2.201578 3.532764-13.704394-0.059733-14.045724z m61.669775 15.146513c2.662373-2.380776 3.976493-7.739655 2.619706-10.828691-1.169055-2.65384-8.678312-5.324746-11.519883-3.464498-6.015939 3.925294-9.992432 10.453227-13.098534 17.902752-1.60425 3.848494 5.853807 10.402028 11.178554 10.384961 8.550313-0.017066 2.107712-6.20367 10.82869-13.994524z" fill="#EDEDEA" /><path d="M783.28379 994.985109c-4.57382 0.460795-11.972145 1.740782-18.175816 1.749316l-334.358209 0.127998-70.151822-0.65706-14.497986-0.324263-31.965543-0.281597-15.897439-0.170665-48.059246-0.97279c-7.219127-0.145065-23.62856-4.454355-30.941552-8.285783l-12.458541-6.527934c-2.030913-1.058123-5.205281-3.455965-6.749798-4.684752-1.177588-1.65545-3.737562-5.043149-5.316213-6.485268l-10.726291-9.8047-2.056512-2.073579-6.485268-13.1156c-1.305587-2.645307-3.711962-9.838834-3.703429-13.252133l0.162132-67.506515 0.221864-32.24714 0.127999-27.91225-0.477862-20.522459 1.94558-1.834648 0.401063 14.19079c0.051199 1.94558 0.904524 6.178071 1.331186 8.029785l3.498631 14.950248c0.776525 3.327966 0.238931 10.163097-0.443728 13.175334-6.698599 1.177588-4.539687 25.62534-3.831428 29.303169 1.160522 6.067138 5.111415 12.979068 4.795685 18.747543l-0.648527 11.835613c-0.409596 7.440991 1.322653 14.82225 0.213331 21.36725-1.049589 6.169537-0.938657 10.393495 2.218644 14.984382l7.85912 11.434551 3.2853 10.256962c0.435196 1.356786 2.619707 4.906617 4.036226 5.111415l9.762034 1.373853c1.049589 1.083722 3.532764 3.498631 5.009016 4.215424l9.872967 4.761551 9.625502 4.642087c2.619707 1.262921 8.405248 5.444211 11.53695 5.666075l23.67976 1.663984 10.214296 0.426662 23.620027 0.776525 0.443729-1.928513 5.998873-0.0768c3.720496 0.844791 7.714055 1.109322 11.682014 1.169055l8.379649 0.529062c-0.435196 2.491708 1.766382 8.336982 4.215424 9.335372 2.389309 0.97279 7.88472 1.937047 9.599902 0.981323l9.787634-5.427145c18.491546 3.805828 11.87828-3.677829 23.944291 1.621317l2.713572-2.568507 7.833521-5.742876c23.440829 4.616487 33.885523-2.201578 65.944931 0.691193 30.958619 2.798905 9.335372-3.089035 40.882786 0.563195 6.630333 0.767992 17.885685 0.65706 23.65416 0.546128 0.938657-0.017066 2.730639 0.068266 3.754628 0.119465l18.030751 0.955724 18.175815 0.196264 20.138463 0.503462 32.119141 1.023989 31.991142 0.972791 37.990015-0.315731 14.13959-0.29013c7.389792-0.153598 14.600385-0.477862 22.032843-0.255997l15.957171 0.469328c5.25648 0.153598 10.734824-0.093866 16.16197-0.358396l24.089355-1.194655c5.606343-0.281597 13.405731-2.508775 19.558202-4.582353 2.500241-0.844791 7.261793-4.189824 10.128964-5.768475 17.288358-9.506037 22.220575-11.682015 34.585249-29.038639l10.956689-15.385444c4.88955-26.538398-5.162614-15.129447-2.210111-35.745771l1.937047-13.550796c1.527451-10.709225 1.450652-21.145386-0.401062-31.85461l1.416519-8.072451c-2.662373-8.422315-0.776525-15.649975-0.324264-24.473352l1.382386-27.28079c0.486395-9.56577 1.262921-17.126226-0.213331-26.96506-0.97279-6.468201-0.435196-14.591852 0.170665-21.358717 2.124778-23.765092-3.60103-6.246337 0.469329-27.067458 1.126389-5.768475 1.442119-11.374818 1.26292-17.177426l-0.989856-32.289806c-0.605861-19.677667 1.228788-4.565287-0.776526-26.563997-0.486395-5.273547-0.571728-11.912413-0.059733-17.168893 1.97118-20.300594-0.204798-13.055868 1.484785-38.374011l0.921591-13.892126c-9.147641-22.9715 6.161004-9.941233-6.374335-37.529219-2.252777-4.949283-0.017066-13.380131 0.938657-19.319271l2.978103-18.414746c0.375463-2.33811 4.087425-6.672999 5.461278-7.125261l0.68266 33.492993 0.708259 30.659956 0.264531 18.346481 0.145065 314.142947v38.612942c-0.017066 8.25165-1.860248 16.964095-4.514088 24.746415-4.718885 13.857993-9.232973 21.39285-20.63339 30.088229-11.502817 8.772178-23.568828 17.040894-37.128157 22.220574l-7.961519 3.037836z" fill="#E7EDEB" /><path d="M206.197375 954.955648l-9.762034-1.373852c-1.407986-0.196265-3.60103-3.746095-4.036226-5.111415l-3.2853-10.256963-7.85912-11.43455c-3.157301-4.590887-3.268234-8.814844-2.218644-14.984382 1.117855-6.553534-0.622927-13.926259-0.213331-21.36725l0.648527-11.835613c0.31573-5.759942-3.62663-12.680405-4.795685-18.747543-0.708259-3.677829-2.867171-28.125581 3.831428-29.30317 0.68266-3.012236 1.220254-9.847367 0.443728-13.175333l-3.498631-14.950248c-0.435196-1.851715-1.279987-6.084205-1.331186-8.029785l-0.401063-14.19079-0.520528-8.038318c-0.119465-1.817582 0.639994-5.794075 0.639994-7.611656 2.892771 3.003703 2.94397-13.405731-0.017067-10.461761v-3.592497l2.030913-2.030913c0.034133-13.175333-0.264531-25.420542 0.68266-38.024147 0.759459-10.103364 1.723716-19.003541 0.435195-29.123972-1.297054-10.163097-0.383996-22.101109-3.063435-21.444049l-0.136532-3.635163 3.217034-3.660763c3.532764-4.019159 3.481565-11.85268 1.023989-16.776363l7.59459-0.68266c1.28852 22.561905-6.024472 8.814844-0.401063 34.482851l-2.030912 10.615359c-0.580261 3.054902-0.110932 8.422315 0.435195 12.031878l1.834648 12.031877c-1.988247 9.267106-3.60103 18.329414-3.89116 27.835452l-0.494929 16.08517c-0.127999 4.198357 0.051199 8.311382 0.290131 12.364674l1.297053 21.785379c0.162132 2.730639-0.281597 6.903397-0.31573 10.103365l-0.665593 77.925609 1.937047 10.862823 1.066656 39.389468c0.29013 10.743358 8.405248 20.804056 15.317178 27.920783l6.20367 6.399935zM376.520981 980.74312l-2.713572 2.568508c-12.066011-5.299146-5.452745 2.184511-23.944291-1.621317l-9.787634 5.427145c-1.715183 0.94719-7.210594-0.008533-9.599902-0.981324-2.449042-0.99839-4.65062-6.843664-4.215424-9.335372l5.188214 7.927387c2.158911 0.460795 9.890033-1.02399 12.014811-2.184512 3.012236-5.785541 5.836741-9.975365 10.939623-14.881982l14.148123 10.572693c1.732249 1.297054 6.067138 2.31251 7.978586 2.508774zM300.199622 975.179443l-0.443729 1.928514-23.620027-0.776525 1.766382-1.65545 22.297374 0.503461zM317.880509 976.271699c-3.959427-0.059733-7.961519-0.324263-11.682014-1.169055 0.716793-1.228788 5.469811-4.275157 7.389791-3.686362 1.382386 0.418129 3.908227 4.036226 4.292223 4.855417z" fill="#EDEDEA" /><path d="M696.312938 363.721111c-1.356786-0.264531-4.590887-1.322653-5.614876-1.809048l-11.818547-5.62341 5.700209-15.940105c9.949766-3.703429 19.754466 1.331186 23.99549 11.85268 1.834648 4.565287-0.819192 11.152954-4.505554 13.064401l-7.756722-1.535984zM669.919606 869.768246c0.093866 0.955724 0.196265 2.414909 0.230398 3.123168 0.042666 1.058123-4.121558 2.508775-5.077282 2.269844l-8.780711-2.269844c-4.821284-1.245854-6.818064-6.835131-6.707132-11.886813l-3.413299-12.236676c-1.049589-3.746095 6.109805-10.56416 10.896956-11.101754 4.718885-0.520528 18.568345 10.504427 18.670744 16.059571 0.127999 7.244727-13.235066 2.884237-14.890515 7.338592l9.070841 8.712445zM816.657318 565.174002c-2.167445-0.853325-4.667686-6.818064-5.555144-9.890034l-9.326839-5.811141c-0.913057-0.571728-2.167445-3.020769-2.491708-4.095958s3.140235-2.884237 4.394622-3.157301l10.402028-2.278377c9.079375-1.988247 1.33972 6.434068 12.910803 11.46015 2.346643 1.02399 5.137015 7.244727 3.711962 9.403638-2.252777 3.421832-9.378038 6.212204-14.054258 4.369023zM613.864708 941.302454c-8.712445 7.790854-2.278377 13.968925-10.82869 13.994524-5.324746 0.008533-12.782804-6.545-11.178554-10.384961 3.106102-7.449524 7.082595-13.977458 13.098534-17.902752 2.850104-1.860248 10.350828 0.810658 11.519883 3.464498 1.356786 3.089035 0.042666 8.447914-2.619707 10.828691zM518.591007 976.920226c-1.02399-0.051199-2.807438-0.136532-3.754628-0.119466 0.008533 0-0.750926-0.520528-2.70504-1.860248-1.689583-1.297054-5.068749-5.333279-5.503944-7.654322l-1.510384-8.123651c6.545-7.679922 26.427465-3.071969 25.761872 1.877314-0.580261 4.28369-5.316213 10.794557-8.388182 13.030268l-3.908227 2.850105zM625.606455 884.351565l-7.662855 3.839961c-1.954114 0.97279-8.345515 1.075189-8.413782-1.032523l-0.588794-17.220092 9.454838-6.084205c2.722106-1.749316 5.162614-3.874094 7.116728-7.25326 2.961037-5.111415 12.287875-0.392529 13.755593 3.524231 0.520528 1.382386-2.858638 5.59781-4.241023 5.367412l-11.784414-1.988246 2.346643 20.846722zM694.282025 858.990755c-2.039446-2.167445-3.609563-6.638866-2.568507-7.611656l6.826598-6.365802c2.389309-2.227177 9.625502 0.895991 10.640958 4.804218 0.895991 3.447432-1.672516 8.482047-5.956206 10.871356-1.860248 1.032523-7.25326 0.085332-8.942843-1.698116z" fill="#FDFDFC" /><path d="M808.704332 699.726237m-7.577523 0a7.577523 7.577523 0 1 0 15.155046 0 7.577523 7.577523 0 1 0-15.155046 0Z" fill="#FDFDFC" /><path d="M584.621271 925.951143c-3.481565 2.798905-10.239896-3.012236-9.634036-7.59459 1.066656-2.013846 6.766865-5.384479 9.514571-5.802608 1.612784-0.247464 4.744485 3.805828 4.923683 5.418612 0.221864 2.013846-1.877314 5.62341-4.804218 7.970052zM763.222126 624.881129c-1.689583 4.121558-11.903879-0.563194-12.842536-4.565287-0.418129-1.774915 1.006923-6.493801 2.807438-6.408468 2.295443 0.102399 6.135404 0.981323 8.430848 1.962647 1.60425 0.68266 2.372243 7.150861 1.612784 9.011108zM686.533837 811.53737c6.715665-4.275157 15.905972 1.919981 13.994525 4.130091l-4.241024 4.898084c-1.510385 1.749316-7.125261 2.013846-8.814843 0.426662s-2.892771-8.20045-0.930124-9.446304zM677.215532 814.908002l-1.169055 7.159394c-0.213331 1.305587-5.777008 1.177588-6.758331 0.31573-1.297054-1.126389-3.635163-3.874094-4.215424-5.307679s1.049589-4.28369 2.517308-6.587667c0.870391-1.373853 4.863951-2.577041 6.451134-2.23571 1.587184 0.34133 3.447432 4.932217 3.174368 6.647399zM793.839416 651.231795c1.493318 0.674126 2.406376 6.169537 0.989856 7.014329s-5.469811 2.892771-7.031395 2.278377l-5.717275-2.23571c-1.535984-0.597327-0.469329-6.109805 0.759459-7.261793 1.672516-1.570117 7.927386-1.169055 10.999355 0.204797zM795.230335 602.541089l-10.231363-7.22766 3.191434-5.879407c0.861858-1.578651 4.676219-0.725326 8.029786 0.70826 2.670906 1.143455 1.450652 8.319916-0.989857 12.398807zM552.194933 926.155941c3.60103 0.349863 4.693286 11.85268 0.059733 14.045724-1.732249 0.827725-5.956206-1.843181-6.766865-3.592497s0-5.91354 1.305587-8.268716c0.614394-1.109322 4.138625-2.31251 5.401545-2.193045zM735.770671 747.367354c-2.662373 2.107712-6.672999 4.317823-8.413781 3.592497-2.210111-0.930124-5.128481-2.790372-6.323136-3.874094-1.476252-1.348253 2.193044-7.167927 4.25809-7.108195 3.754629 0.119465 7.54339 3.430365 10.478827 7.398325zM821.103139 528.830903c-2.60264 3.729029-5.819674 4.804218-10.17163 2.986637-1.954114-0.810658-3.933827-6.365802-2.321043-7.586057 3.174368-2.406376 10.80309-0.989857 12.492673 4.590887zM700.357697 905.582283c-1.169055 3.106102-10.896956 0.938657-11.477217-2.423443-0.708259-4.078892 4.002093-7.159394 6.93753-6.587666 2.423442 0.469329 5.96474 5.239414 4.539687 9.019642z" fill="#FDFDFC" /><path d="M643.509207 906.043078m-4.684752 0a4.684752 4.684752 0 1 0 9.369505 0 4.684752 4.684752 0 1 0-9.369505 0Z" fill="#FDFDFC" /><path d="M832.691288 493.861658c-0.255997 0.65706-3.362099 1.723716-3.643696 1.075189-0.426662-0.97279-1.578651-3.618097-0.571727-4.027692l4.309289-1.732249c0.887458-0.358396 0.298664 3.686363-0.093866 4.684752z" fill="#FDFDFC" /></svg>