<?xml version="1.0" standalone="no"?><!DOCTYPE svg PUBLIC "-//W3C//DTD SVG 1.1//EN" "http://www.w3.org/Graphics/SVG/1.1/DTD/svg11.dtd"><svg class="icon" width="256px" height="256.00px" viewBox="0 0 1024 1024" version="1.1" xmlns="http://www.w3.org/2000/svg"><path d="M340.360533 844.356267l13.3632-11.153067c6.843733-5.7088 13.832533-11.076267 19.165867-16.418133l4.369067 0.2048c8.277333-8.669867 15.547733-17.928533 23.4752-24.2432l26.837333-21.4016 11.4944-8.354134c0.145067 0.324267 5.205333-1.194667 6.126933-2.184533l13.422934-14.395733c7.159467-5.034667 15.3344-11.067733 23.074133-17.288534l15.428267-12.407466c2.5856 4.906667 19.063467-16.580267 21.597866-18.4064l21.111467-15.1808c3.882667-2.7904 9.002667-6.408533 11.272533-8.704l4.215467 0.546133 21.6832-22.545067c10.9824-2.261333 30.523733-18.141867 40.081067-28.049066 2.6624-2.756267-0.247467-10.692267-0.810667-14.062934-0.699733-4.224 4.4032-11.511467 7.970133-13.559466 10.103467 10.9824 40.354133-10.8032 46.941867-26.564267l-0.4864 7.552c4.343467-2.184533 11.195733-5.5808 16.0768-9.0112l32.085333-22.519467 36.9152-23.492266c14.464-9.207467 29.073067-17.109333 44.125867-24.541867 2.850133-1.408 9.1648-2.312533 11.5712-4.096 2.184533-1.621333 7.04-5.085867 9.9584-6.3744l23.927467-10.5728c44.9536-19.8656 79.547733-32.605867 128.213333-42.914133l3.703467 3.8912-8.004267 6.1184-118.1184 93.294933-47.044267 37.930667L762.88 609.0496l-33.245867 27.306667-35.677866 29.312-36.6592 30.916266-75.2128 61.2864-56.874667 46.728534-35.899733 29.610666-80.0256 66.218667-17.834667 14.805333c-52.9152 43.921067-107.357867 74.154667-178.2016 62.865067-8.584533-1.365333-18.056533-5.674667-26.205867-8.388267l-7.586133 1.518934c1.706667-2.2784 6.528-5.742933 9.181867-4.829867l24.337066 8.337067c0.554667-9.856 15.598933-17.834667 26.299734-19.652267 3.976533-0.674133 7.978667-11.153067 4.974933-13.755733l-10.308267-8.9344c1.0752-3.003733 9.685333-7.389867 14.737067-8.379734l14.250667-9.984 11.895466-8.311466c1.792-1.2544 3.874133-6.903467 4.983467-9.472 1.262933-2.935467 7.5008-6.186667 9.975467-8.2432 23.031467-19.1744 11.6736 2.013867 29.192533-24.900267l21.384533-18.7136z" fill="#E3E0B4" /><path d="M534.8608 81.809067c3.0976-3.831467 9.813333-8.721067 15.0528-13.021867-0.0256 1.826133-0.776533 7.722667-1.9712 9.856l-17.604267 31.607467-29.243733 49.8944-31.701333 52.727466c-30.3104 50.4064-72.234667 108.100267-105.216 153.915734-1.698133 2.363733-1.792 7.620267-1.211734 6.894933l-11.4944 10.248533c-11.5712 10.3168-19.387733 28.3648-6.510933 40.285867-0.4096 0.674133-1.8944 3.3536-0.887467 3.4816l5.384534 0.682667 9.4976 9.437866c-1.877333 1.979733-5.3504 4.957867-7.560534 4.292267-1.979733-0.5888-6.5792-1.988267-6.408533-1.928533l-10.2912-9.659734c-3.720533-3.490133-16.7424-5.1968-20.9152-1.7664-11.2384 9.250133-29.482667 25.565867-22.2464 41.3696-2.645333 4.8896-6.1184 9.728-9.873067 14.1312l-7.253333-0.64c-4.1984-0.366933-11.562667 2.952533-14.404267 6.562134l-11.127466 14.1568c-6.724267 8.558933-8.772267 18.8672-3.370667 27.656533l-6.741333 10.2912c-4.625067-1.2032-13.4144-1.160533-16.494934 2.440533l-16.8704 19.720534-3.345066-1.9456c-0.861867-0.503467-3.242667 1.937067-3.8656 2.875733l-15.5648 23.3984-7.850667 12.612267c-5.495467 4.4288-8.9088 8.157867-11.741867 14.0544l-8.234666 5.026133-8.9856 14.600533c-18.525867 4.002133-4.8128 10.180267-20.189867 14.165334-4.804267 1.245867-8.448 3.669333-8.465067 6.280533-0.136533 19.447467-9.207467 7.927467-7.543466 24.763733s-1.7664 11.3408-11.810134 22.007467l-5.7856 6.144c-1.476267 1.570133-6.596267-4.0448-5.085866-5.649067l11.3152-12.091733c1.160533-1.237333-0.674133-6.587733-2.090667-7.552s-5.879467-0.529067-7.210667 0.4864l-12.245333 9.335467c-11.229867 8.558933-6.673067-4.258133-15.991467 3.805866 5.896533-18.8416 32.298667-57.335467 47.2832-76.714666l103.287467-133.572267 19.336533-24.490667 32.256-40.098133 40.7808-51.3024 21.376-26.6752 36.420267-45.917867 45.201067-56.465066 48.384-61.064534 34.926933-43.178666 44.8768-55.4752z" fill="#E5E2B8" /><path d="M815.0784 378.197333c15.0272 6.203733 33.5104-14.225067 37.0944-24.277333 0.836267-2.346667 1.1776-7.8592 1.877333-10.077867l1.2288 4.096c3.669333-1.570133 8.661333-3.652267 11.946667-5.504l36.514133-20.6592 29.508267-15.470933c24.9088-13.064533 48.836267-23.492267 78.404267-29.013333-9.693867 14.250667-35.7632 28.8256-51.771734 44.757333l-72.3968 72.081067c-31.616 31.479467-57.975467 65.143467-85.725866 98.807466l9.719466 1.1264c-2.397867 1.783467-8.721067 2.688-11.5712 4.096-15.0528 7.432533-29.661867 15.342933-44.125866 24.541867l-36.9152 23.492267c-0.1792-0.247467-1.450667-4.6848-1.4592-6.1952l-0.093867-19.9168c2.824533-6.715733 3.677867-14.464 2.056533-21.4784l0.145067-7.441067 8.226133-1.083733c11.221333 4.189867 29.764267-11.0848 36.2496-22.4256 5.282133-9.2416 3.703467-21.768533-0.887466-29.636267l6.0672-6.109867c18.730667 8.558933 41.147733-15.522133 43.264-34.167466 0.452267-3.959467-2.961067-12.416-4.514134-15.744l7.168-3.797334z" fill="#8CA352" /><path d="M565.794133 167.9616l-24.081066 23.9872c-1.954133 1.9456-0.750933 11.460267 0.0512 12.689067l-1.800534 7.552c-0.375467 1.5616-4.437333 2.798933-6.0416 2.679466l-7.168-0.529066c-13.9264-1.024-41.096533 14.984533-37.265066 41.514666 0.631467 4.369067-1.297067 10.001067-4.104534 12.3904-17.365333-9.966933-35.2512 4.343467-44.381866 20.036267-3.549867 6.101333-1.749333 16.349867 0.827733 24.448l-6.4256 9.480533c-2.082133-2.116267-8.277333-3.498667-12.0576-3.456-21.367467 0.247467-41.873067 24.6272-34.3552 41.147734l0.9984 6.877866c0.384 2.619733-3.8656 6.698667-6.135467 7.6288-6.314667-0.989867-12.893867-1.066667-20.872533-0.7168-0.571733 0.725333-0.4864-4.5312 1.211733-6.894933 32.981333-45.815467 74.9056-103.509333 105.216-153.915733l31.701334-52.727467 29.243733-49.8944 17.604267-31.607467c1.194667-2.141867 1.9456-8.029867 1.9712-9.856-5.239467 4.3008-11.9552 9.181867-15.0528 13.021867-4.974933 1.220267 11.588267-14.446933 20.061866-25.8304l17.8176-23.953067c0.648533-0.8704 5.410133-3.8912 5.649067-2.961066 0.3584 1.416533 1.365333 5.358933 1.1008 7.0656l-7.662933 49.476266-10.3936 58.325334c-1.783467 10.018133-4.795733 18.432-7.850667 29.687466-1.365333 1.143467-0.093867 0.0768 3.319467-2.781866l8.891733-2.8672z" fill="#BAC480" /><path d="M60.782933 847.633067c3.857067-0.904533 13.789867 0 17.834667 2.705066l24.661333 16.452267c20.096 13.4144 86.0928 77.627733 76.928 97.297067-1.058133 2.261333-5.572267 6.784-7.287466 8.6016l-5.998934 6.357333c-7.5776 5.5552-21.7088 7.662933-29.124266 0.264533l-60.962134-60.8-19.387733-19.2c-2.466133-2.440533-5.538133-6.237867-6.459733-8.593066-9.053867-23.099733-3.8656-25.864533 9.8048-43.0848z" fill="#FBF1D5" /><path d="M50.9696 890.709333c0.9216 2.3552 3.9936 6.152533 6.459733 8.593067l19.387734 19.2 60.962133 60.8-30.225067 32.930133c-6.178133 6.7328-16.622933 10.5216-24.533333 2.653867l-64.418133-64.042667c-7.748267-7.697067-8.576-17.979733-0.964267-25.565866l26.154667-26.077867c2.3808-2.372267 5.495467-6.3488 7.159466-8.490667z" fill="#E6D9B3" /><path d="M58.939733 698.333867l5.265067 10.180266 4.650667 8.994134 12.8512-1.681067-4.292267 13.0304c15.428267 5.819733 25.540267-8.977067 26.8544-1.681067l1.4336 7.953067-9.1136 5.307733c-5.1456-3.037867-21.418667-5.444267-20.334933 0.0512 1.578667 5.384533 0.401067 13.909333-3.6608 18.2528 2.158933 13.090133-0.187733 24.738133-11.733334 34.858667l-16.64-9.378133-1.262933 10.8288c-6.545067-20.232533 3.456-76.279467 15.982933-96.725334z" fill="#E5E2B8" /><path d="M172.919467 972.689067l2.218666 2.218666c-1.834667 1.578667-6.0928 3.592533-8.226133 4.138667l5.998933-6.357333z" fill="#E3E0B4" /><path d="M541.764267 204.637867l9.856 7.330133 2.8416-12.458667c0.6912-3.012267 7.842133-2.961067 10.606933-1.979733l9.770667 3.473067-7.4752 17.3312-8.593067 1.749333c4.6848 11.067733 20.3008 22.673067 34.5344 14.702933 7.287467-4.078933 18.542933-15.479467 22.4768-22.8096 2.1248-3.959467-0.145067-16.059733-3.029333-19.9168-7.1424-9.5488-23.125333-21.828267-32.443734-25.966933l8.1664-3.242667 3.746134-3.950933 3.182933-7.168c0.759467 3.950933 4.3776 11.409067 7.739733 14.301867l15.854934 13.602133c6.843733 5.870933 17.092267 8.541867 26.222933 2.833067 6.6048-4.130133 16.8704-13.730133 20.608-20.539734 1.8688-3.4048 1.672533-14.933333-0.930133-17.757866l-17.390934-18.8416c-1.92-2.082133 3.2512-11.502933 5.444267-9.480534l15.0784 13.943467c17.902933 16.546133 35.950933 1.3312 48.768-13.841067 9.668267-11.4432-6.869333-34.944-20.4032-39.2192l-8.8832-2.807466 8.6528-0.699734c16.068267-1.288533 1.604267-14.5408 26.2912-31.914666 11.153067-7.850667 19.8144-12.288 33.851733-3.5584l19.959467-23.0656c42.581333-28.637867 48.247467 14.148267 65.314133 6.459733 7.6032-3.421867 19.694933-8.4224 27.707734-7.927467 18.0992 1.117867 32.6144 14.011733 36.078933 31.317334 0.913067 4.5568 5.282133 8.055467 10.299733 9.207466 16.8448 3.857067 31.163733 21.8112 28.117334 39.995734-1.578667 9.4464-4.497067 20.411733-6.4512 29.277866 14.1056 13.1072 23.082667 33.706667 14.6176 47.232-3.328-8.337067 3.4048-32.699733-15.3344-38.929066-2.397867-0.7936-9.728 3.054933-10.999467 4.821333l-11.3408 15.7696c-8.260267 11.485867-3.985067 25.361067 5.418667 33.7152l12.501333 11.1104 13.8752-12.6976-0.1792 3.882667c-4.795733 5.461333-12.407467 12.8768-14.071467 17.902933l-4.061866 12.305067 0.0256-14.8736-14.8992-10.7008c-3.626667-2.602667-15.266133-2.961067-19.106134-0.0256-8.840533 6.775467-26.9056 29.969067-14.856533 45.525333l15.616 20.155733c-4.6848 11.426133-22.408533-18.141867-36.283733-9.378133-15.223467 9.608533-36.881067 32.341333-19.822934 49.390933l17.732267 17.723734-6.6048 7.543466-12.5952-11.861333c-5.316267-5.000533-17.621333-9.122133-24.994133-5.128533-9.770667 5.282133-18.56 14.139733-22.7072 24.064-3.985067 9.5488 2.926933 21.316267 9.079466 28.3904l16.733867 19.234133-7.168 3.797333-19.234133-17.732266c-16.366933-15.086933-34.6368 1.988267-45.405867 18.286933-9.233067 13.994667 18.013867 41.1392 25.8816 49.3568l-6.0672 6.109867-14.173867-12.962134c-8.704-7.9616-23.074133-14.609067-32.6912-9.0368-15.163733 8.8064-29.5168 32.648533-22.254933 40.277334l22.912 24.072533c3.925333 4.1216 7.867733 7.3216 10.845867 9.710933l-8.226134 1.083734-0.145066 7.441066-26.461867-24.874666c-4.5568-4.283733-19.2256-9.156267-24.6784-5.6832-8.593067 5.461333-16.8192 14.6176-23.876267 22.434133-2.039467 12.919467 2.005333 23.005867 11.025067 32.0512l21.393067 21.469867-9.5488 5.956266-9.992534-9.719466c-17.416533-16.938667-14.122667-15.726933-36.189866-18.944-7.9104 7.210667-17.723733 16.264533-24.814934 24.704-3.387733 4.027733-2.295467 17.783467 1.527467 21.9392l26.496 28.808533c-3.566933 2.048-8.669867 9.335467-7.970133 13.559467-10.231467-19.165867-22.954667-37.376-48.5888-32.4352l-18.7136 19.029333c-4.522667 4.599467-6.6816 20.155733-1.800534 25.122133l29.832534 30.395734-21.6832 22.545066-4.215467-0.546133 12.475733-12.6208-15.086933-16.6912c-7.389867-8.174933-17.4336-19.925333-31.1296-11.6224-12.7488 7.722667-28.202667 27.195733-22.314667 38.954667 4.573867 9.122133 16.1024 19.336533 23.68 25.873066-2.5344 1.826133-19.012267 23.313067-21.597866 18.4064l9.309866-10.624c-8.354133-13.2096-30.634667-26.043733-40.994133-17.501866-7.168 5.905067-15.837867 14.72-21.6576 22.570666-3.464533 4.676267-1.0752 19.208533 2.926933 23.2448l11.921067 12.0064-13.422933 14.395734c-0.9216 0.989867-5.981867 2.5088-6.126934 2.184533l7.953067-9.0624c-4.974933-5.410133-13.815467-14.08-21.674667-13.764267-11.8784 0.477867-35.0464 17.408-35.447466 40.8576-0.0768 4.437333 6.673067 10.683733 10.837333 11.7248-7.927467 6.3232-15.197867 15.581867-23.4752 24.2432l-4.369067-0.2048 12.663467-12.680533c-2.2016-2.944-11.5712-10.658133-16.2816-9.480533-12.842667 3.217067-46.72 34.269867-28.910933 49.723733l-21.384534 18.7136c-17.518933 26.914133-6.161067 5.7344-29.192533 24.900267-2.474667 2.056533-8.712533 5.307733-9.975467 8.2432-1.109333 2.568533-3.191467 8.226133-4.983466 9.472l-11.895467 8.311466-14.250667 9.984c-5.051733 0.989867-13.6704 5.367467-14.737066 8.379734l10.308266 8.9344c3.003733 2.602667-0.9984 13.0816-4.974933 13.755733-10.7008 1.8176-25.745067 9.796267-26.299733 19.652267l-24.337067-8.337067c-2.653867-0.913067-7.4752 2.551467-9.181867 4.829867l-4.3008 3.703466-2.218666-2.218666c1.7152-1.8176 6.229333-6.340267 7.287466-8.6016 9.1648-19.669333-56.832-83.882667-76.928-97.297067l-24.661333-16.452267c-4.0448-2.696533-13.9776-3.6096-17.834667-2.705066-2.005333-6.715733-4.983467-13.038933-8.0896-21.367467l-7.970133-21.393067c0.068267-2.082133 0.068267-5.674667 0-7.799466-0.017067-0.657067-1.570133-1.390933-1.7664-2.013867l1.262933-10.8288 16.64 9.378133c11.5456-10.120533 13.883733-21.777067 11.733334-34.858666 4.061867-4.343467 5.239467-12.868267 3.6608-18.2528-1.092267-5.495467 15.189333-3.089067 20.334933-0.0512-4.9152 1.774933-10.333867 6.894933-11.5712 11.8272l-4.036267 16.017066c-3.5328 14.037333-5.111467 29.294933 0.759467 44.407467 5.853867 15.095467 33.348267-14.242133 42.257067-42.453333 4.053333-12.817067-18.816-24.7296-27.409067-29.806934l9.1136-5.307733-1.4336-7.953067c-1.314133-7.296-11.426133 7.5008-26.8544 1.681067l4.292267-13.0304-12.8512 1.681067-4.650667-8.994134-5.265067-10.180266 1.783467-1.578667c9.326933-8.064 4.7616 4.753067 15.991467-3.805867l12.245333-9.335466c1.3312-1.015467 5.802667-1.450667 7.210667-0.4864s3.2512 6.314667 2.090666 7.552l-11.3152 12.091733c-1.501867 1.604267 3.618133 7.2192 5.085867 5.649067l5.7856-6.144c10.043733-10.6752 13.508267-4.872533 11.810133-22.007467s7.3984-5.316267 7.543467-24.763733c0.017067-2.6112 3.6608-5.034667 8.465067-6.280534 15.368533-3.985067 1.664-10.1632 20.189866-14.165333l8.9856-14.600533 8.234667-5.026134c2.833067-5.896533 6.237867-9.6256 11.741867-14.0544l7.850666-12.612266 15.5648-23.3984c0.622933-0.930133 3.003733-3.3792 3.8656-2.875734l3.345067 1.9456-8.814933 14.165334c-5.5552 8.925867 20.334933 30.062933 27.0848 35.3536 4.010667 3.1488 17.4848 1.6384 21.384533-1.7152 5.998933-5.162667 14.651733-14.062933 19.413333-20.3776 3.7632-4.983467 2.56-20.514133-1.646933-24.917334l-24.055467-24.6784 6.741334-10.2912 19.968 19.848534c2.628267 2.6112 9.710933 6.459733 13.636266 8.951466l19.208534-3.780266c13.448533-17.143467 19.490133-15.6672 20.317866-38.510934l-17.792-18.474666c-5.3504-5.5552-12.1344-10.948267-19.2-15.761067 3.754667-4.4032 7.227733-9.2416 9.873067-14.1312 1.3568 2.961067 5.358933 8.968533 7.867733 11.281067l16.9984 15.675733c10.7264 9.898667 23.611733 12.177067 35.677867 2.2016 12.526933-10.350933 17.851733-19.652267 15.5392-36.5056l-22.6304-22.6048c-0.1792-0.0512 4.4288 1.339733 6.408533 1.928533 2.210133 0.6656 5.691733-2.312533 7.560534-4.292266 1.3824 1.373867 4.676267 3.694933 6.9888 5.691733 12.672 10.9568 28.680533 10.811733 39.637333-3.6352 10.0096-6.434133 17.2288-25.079467 7.790933-35.805867-9.1904-10.4448-18.944-20.0704-29.533866-29.661866 2.269867-0.930133 6.519467-5.009067 6.135466-7.6288l-0.9984-6.877867 28.151467 29.354667c3.285333 3.421867 12.6464 7.944533 17.237333 7.978666 9.7536 0.085333 29.8752-16.170667 31.778134-29.252266 0.768-5.2992-2.978133-17.5872-6.7328-21.4016l-24.021334-24.379734 6.4256-9.480533 31.854934 27.2128c3.8144 3.259733 16.136533 1.288533 21.205333 1.024L513.706667 321.092267c6.775467-7.1424 2.568533-22.3488-3.712-28.509867l-24.6016-24.3968c2.807467-2.389333 4.736-8.021333 4.104533-12.3904 7.304533 10.4192 28.9792 33.672533 44.194133 35.456 5.384533 0.631467 15.291733-6.485333 20.113067-10.5984 12.040533-10.248533 16.477867-28.885333 5.265067-40.7808l-12.7488-13.5168c-2.321067-2.4576-10.5472-4.1728-14.2336-4.701867l-5.3248-7.3728 7.168 0.529067c1.6128 0.119467 5.674667-1.117867 6.0416-2.679467l1.800533-7.552zM217.728 644.437333c-1.450667-6.741333-2.0992-14.506667-4.206933-17.706666-5.888-8.9344-22.237867-24.1408-34.9696-24.6784l-12.672 15.9744-11.758934 16.418133c-3.456 4.821333-5.230933 11.008-6.545066 18.2272 8.507733 8.379733 14.762667 14.634667 23.9104 20.343467 8.405333 5.239467 21.410133 0.964267 27.298133-6.0416l18.944-22.536534zM761.9584 39.773867l-16.2048 1.911466c-5.486933 0.648533-30.711467 21.367467-34.978133 30.327467 6.178133 7.099733 13.013333 14.1056 21.0432 17.390933 17.826133 7.287467 43.972267-16.930133 41.796266-32.989866-0.6656-4.898133-8.021333-12.910933-11.656533-16.64zM163.694933 701.815467c3.310933-14.0032-7.842133-22.434133-16.768-28.842667-21.7856-15.6416-35.157333 27.0848-44.945066 44.066133 0.0768 10.0608 24.260267 29.832533 39.620266 16.341334 9.3184-8.183467 19.336533-19.9168 22.0928-31.5648zM802.773333 49.024c12.680533-5.341867 21.512533-13.781333 26.888534-25.028267l-14.1056-11.178666c-2.210133-1.749333-8.8576-4.369067-12.091734-4.642134-7.338667-0.631467-13.346133 6.877867-13.397333 13.141334l-13.994667 20.573866c6.1952 8.772267 15.556267 11.8272 26.709334 7.133867zM685.397333 259.7632l-34.048-33.339733c-12.373333-12.117333-29.6704-8.226133-40.379733 3.421866-4.7872 5.205333-10.018133 13.0816-10.769067 19.2512-0.622933 5.111467 4.3776 14.6688 8.772267 18.8416l31.1552 29.627734c12.151467 11.554133 28.612267 9.864533 40.106667-3.259734 8.405333-9.608533 14.600533-25.309867 5.1712-34.542933z m48.896-53.691733l-34.218666-32.785067c-3.2256-3.089067-14.2592-7.1424-18.5088-6.024533-17.083733 4.48-35.5072 23.296-27.426134 43.639466l39.893334 36.736c11.093333 10.2144 28.032 2.773333 35.857066-6.8864 9.0624-11.195733 11.170133-22.5536 4.411734-34.679466z m-140.228266 67.072c-14.344533-2.141867-23.68 0.657067-33.3312 10.606933-8.866133 9.1392-14.848 22.459733-4.625067 34.039467 12.757333 14.446933 27.963733 27.3408 43.178667 39.6544 13.166933 3.8656 24.183467-0.3328 33.109333-10.538667 26.461867-30.293333-18.952533-53.8368-38.331733-73.7536z m182.109866-123.707734c-13.474133-13.781333-29.8752-35.874133-50.2784-26.0608-8.814933 4.241067-18.218667 12.603733-22.7072 21.0688-2.389333 4.514133 2.176 16.298667 6.075734 20.010667l33.058133 31.419733c8.439467 8.021333 23.005867 2.577067 30.941867-3.626666 14.404267-11.264 15.5136-29.9264 2.9184-42.811734zM582.562133 361.019733l-31.607466-29.422933c-4.676267-4.352-19.259733-8.5248-25.1392-5.6064-7.517867 3.729067-17.518933 13.44-21.2992 20.2496-6.8352 12.305067 0.520533 25.301333 9.258666 33.297067l35.720534 32.6912c15.104 4.565333 28.3392-2.039467 37.0944-14.5152 8.081067-11.511467 8.226133-25.301333-4.0192-36.701867z m-38.852266 77.124267l-2.218667-14.3872-43.963733-42.0864c-12.910933-3.8656-23.176533-3.319467-32.904534 5.640533-10.299733 9.480533-14.728533 19.4304-13.397333 33.518934l31.121067 30.609066c8.866133 8.721067 22.178133 22.664533 38.434133 14.958934 10.641067-5.0432 19.080533-17.7152 22.9376-28.253867z m287.197866-310.9632c1.117867-13.755733-1.681067-24.797867-11.588266-32.785067l-20.036267-16.162133c-13.0048-4.164267-24.064-0.546133-34.722133 9.335467-4.804267 4.4544-12.544 17.6128-6.9376 23.534933l26.0352 27.4944c5.8112 6.135467 19.396267 12.885333 27.025066 6.954667 7.0656-5.486933 12.868267-11.264 20.232534-18.372267zM493.1328 492.305067c-1.5872-5.461333-3.968-15.8208-7.8848-19.541334l-38.852267-36.9408c-13.755733-5.444267-24.302933-2.551467-34.286933 7.338667-10.9312 10.820267-13.806933 23.7312-6.6816 37.998933l40.695467 37.905067c5.1712 4.821333 18.261333 5.5808 24.558933 1.954133 11.4432-6.587733 17.536-16.938667 22.4512-28.7232z m-54.946133 38.510933l-42.837334-41.557333-26.154666 2.269866-14.173867 15.872c-4.821333 5.393067-3.771733 22.8096 1.792 28.305067l36.9664 36.539733c10.257067 10.146133 29.3376 5.12 37.546667-5.376 7.765333-9.924267 17.322667-25.898667 6.852266-36.053333z m-46.592 69.794133c1.2544-4.7872-3.5584-15.342933-7.278934-18.935466l-36.5056-35.2c-3.6864-3.549867-16.1536-4.778667-20.590933-3.677867-11.767467 2.9184-36.206933 26.820267-23.671467 48.1792l43.451734 40.328533c23.7824 4.898133 39.1424-9.9328 44.586666-30.6944z m-51.968 49.066667c-1.4848-6.8096-7.7568-15.1296-12.014934-19.054933l-32.443733-29.917867c-9.787733-9.028267-31.453867 0.64-41.557333 18.013867-8.8064 15.146667-3.712 31.6672 11.4176 39.381333l30.0288 28.091733c24.96 10.052267 47.7184-22.084267 44.578133-36.5056zM868.6848 63.744c-9.352533-12.552533-19.754667-23.330133-31.317333-22.306133-6.715733 0.597333-13.056 3.584-18.235734 7.7568-7.927467 6.382933-11.733333 17.237333-4.701866 25.352533 7.1168 8.209067 15.778133 16.896 25.258666 22.024533 8.064 4.360533 19.8912-1.937067 24.9344-7.517866 4.386133-4.864 9.472-18.048 4.0704-25.309867zM286.865067 718.6432c6.664533-21.461333-20.9152-41.130667-39.133867-57.3184-10.6752-9.480533-25.4208-7.8592-35.131733 2.773333-6.442667 7.057067-12.740267 15.138133-15.479467 24.686934-1.749333 6.1184 4.693333 17.5104 9.130667 21.751466l31.5392 30.122667c16.136533 15.4112 39.1936-8.362667 49.0752-22.024533z m-55.210667 58.948267c9.480533-20.881067-17.041067-40.0128-34.4832-55.406934-12.356267-10.9056-27.656533-6.365867-37.768533 5.12-9.0368 10.274133-20.0192 27.2896-10.274134 41.198934 6.229333 8.8832 34.670933 39.022933 47.189334 36.821333 15.726933-2.773333 28.373333-12.424533 35.328-27.733333z m-52.206933 60.356266c3.8912-20.6848-12.16-33.9712-26.9568-44.074666-4.155733-2.8416-16.392533-3.080533-20.7616-1.092267-13.303467 6.058667-29.320533 32.5376-24.917334 51.9168 18.312533 18.491733 19.874133 24.200533 45.994667 20.3264l26.641067-27.076267z m734.830933-698.197333c10.350933-13.892267 7.850667-25.1136 0.426667-36.2752-8.123733-12.2112-21.8624-22.126933-37.384534-13.781333-6.263467 3.370667-12.859733 13.277867-16.708266 20.206933 0.682667 15.0528 18.210133 29.8752 29.422933 37.461333 7.048533 4.770133 19.413333-1.134933 24.2432-7.611733z m-33.3312 57.053867c7.5264-9.403733 12.535467-24.6272 5.666133-33.9968-11.2896-15.402667-32.896-40.695467-52.7872-25.821867-7.048533 5.2736-16.238933 15.761067-16.622933 25.216-0.247467 6.050133 8.106667 16.7168 12.578133 20.898133l22.741334 21.2736c7.287467 6.818133 21.0944 1.595733 28.424533-7.560533z m-36.0704 18.1504l-25.787733-24.8064c-4.1984-4.036267-16.349867-8.354133-21.307734-6.2976-9.258667 3.84-16.341333 10.453333-22.442666 18.0992-6.237867 7.816533-6.331733 20.104533 0.878933 26.990933l37.188267 35.4816c9.685333 1.826133 18.048-0.512 24.695466-7.517867 11.246933-11.869867 14.5408-26.5984 6.775467-41.949866z m-42.001067 60.945066c-9.3952-12.6464-21.794133-24.584533-32.750933-33.390933-12.6976-10.205867-27.008-6.109867-37.154133 5.393067-6.613333 7.5008-15.573333 22.4768-6.698667 32.315733 10.88 12.0576 23.185067 24.072533 35.054933 35.114667 10.180267 9.472 23.594667 6.2208 32.657067-3.2512 8.123733-8.490667 18.269867-23.560533 8.8832-36.181334zM745.122133 368.554667c12.0576-10.410667 15.914667-21.973333 12.885334-36.821334l-40.5248-40.277333c-21.333333 0.512-25.352533-0.085333-37.8624 16.3072-6.997333 9.173333-7.5008 20.932267 0.682666 29.397333l21.9136 22.656c4.6336 4.795733 11.451733 9.3952 18.158934 14.250667 6.0416 4.3776 19.234133-0.7424 24.7552-5.512533z m-41.3696 11.050666l-27.016533-26.9568c-8.183467-8.157867-21.230933-10.385067-31.044267-5.239466-16.162133 8.482133-23.466667 24.413867-17.152 41.122133l39.7312 37.051733c11.869867 11.067733 29.499733 0.068267 36.189867-10.862933 6.510933-10.632533 10.120533-24.311467-0.708267-35.114667z m-48.674133 52.829867l-27.7248-27.1872c-4.292267-4.206933-13.3376-7.3728-19.677867-8.9088-13.0048 5.998933-24.064 13.2864-30.1312 26.624-2.4064 5.290667 1.032533 18.705067 5.154134 22.766933l30.779733 30.3104c13.1072 12.9024 28.808533 8.285867 40.183467-3.0976 11.682133-11.690667 15.598933-26.606933 1.425066-40.507733z m-46.378667 56.046933l-20.283733-19.822933c-3.933867-3.84-9.838933-8.0128-15.8208-12.424533-15.581867-11.502933-39.458133 6.3232-47.573333 25.941333 1.646933 5.8368 4.1728 14.549333 7.8848 18.210133l36.693333 36.241067 20.206933 3.1744c7.3728-7.082667 14.199467-13.602133 21.265067-21.956267 5.674667-6.715733 3.6864-23.441067-2.3552-29.354666z m-51.438933 89.122134c19.072-24.695467-6.9888-41.514667-33.9968-67.0976-11.707733-11.093333-38.331733-0.093867-46.301867 23.978666-5.307733 16.034133 12.9536 30.711467 23.5008 39.901867l23.022934 20.061867c14.250667 2.8672 23.970133-4.155733 33.774933-16.8448z m-45.201067 45.149866c2.184533-5.341867-1.476267-16.1792-2.952533-21.9392l-37.640533-34.7904c-9.856-9.1136-24.584533-4.292267-32.2304 3.7376l-8.388267 8.814934c-6.954667 7.313067-9.284267 21.384533-1.041067 29.678933l30.0032 30.1824c7.509333 7.552 18.773333 9.924267 29.1328 9.216 8.891733-7.227733 18.449067-13.4912 23.1168-24.9088z m-115.456 77.0048l-34.414933-31.018666-19.328 2.466133c-6.510933 7.125333-14.481067 15.3856-19.080533 23.253333-7.210667 12.3392 1.322667 25.480533 9.719466 33.3312l22.920534 21.4272c12.791467 11.963733 28.091733 12.2624 41.053866-0.964266 6.417067-6.545067 12.2624-16.247467 11.810134-24.6784-0.426667-7.9872-5.418667-17.271467-12.680534-23.808z m64.913067-19.712c1.339733-10.248533 1.518933-20.462933-4.983467-26.8032l-32.768-31.9232c-9.975467-9.719467-26.026667-6.801067-34.816 2.5344-12.7488 13.533867-18.167467 14.660267-13.405866 36.872534l37.051733 36.650666c2.619733 2.594133 10.914133 6.468267 14.318933 5.853867l14.353067-2.568533 20.241067-20.616534zM352.9984 792.2432c7.031467-11.5712 2.909867-23.586133-4.667733-31.0528l-31.837867-31.368533c-5.341867-5.265067-19.2-5.768533-24.763733-1.1008l-12.5696 10.5216c-9.745067 8.157867-15.428267 27.963733-6.459734 36.983466l34.602667 34.798934c17.885867 7.509333 35.780267-2.466133 45.696-18.773334z m-59.7504 64.452267c9.975467-9.147733 13.713067-25.070933 3.447467-35.6864l-27.904-28.868267c-4.8128-4.983467-16.3072-10.478933-23.0912-8.4992-19.677867 5.742933-41.992533 37.6832-28.040534 52.650667l19.447467 20.855466c6.5792 7.048533 17.834667 14.1312 27.793067 14.2336 10.888533 0.119467 20.386133-7.406933 28.3392-14.6944z m-65.578667 61.269333c5.802667-1.646933 9.659733-6.016 11.0336-12.9536 11.912533-26.3936-14.813867-44.202667-33.860266-59.758933-28.288 2.8672-41.821867 22.434133-45.482667 49.518933 8.106667 13.0048 28.032 34.6112 42.8288 30.4128l25.489067-7.227733z" fill="#E5DDC4" /><path d="M927.761067 218.146133c0 4.283733-0.648533 14.08-3.4304 17.390934l-17.851734 21.2224c-4.0448 4.8128-8.337067 10.692267-11.716266 15.274666-3.464533 39.697067-32.622933 45.960533-36.3008 57.719467l-4.411734 14.08c-0.699733 2.218667-1.041067 7.7312-1.877333 10.077867-3.584 10.052267-22.0672 30.481067-37.0944 24.277333l-16.733867-19.234133c-6.152533-7.0656-13.064533-18.8416-9.079466-28.3904 4.1472-9.924267 12.945067-18.781867 22.7072-24.064 7.3728-3.9936 19.677867 0.128 24.994133 5.128533l12.5952 11.861333 6.6048-7.543466-17.732267-17.723734c-17.058133-17.0496 4.599467-39.7824 19.822934-49.390933 13.8752-8.763733 31.598933 20.804267 36.283733 9.378133l-15.616-20.155733c-12.0576-15.556267 6.016-38.741333 14.856533-45.525333 3.831467-2.944 15.479467-2.5856 19.106134 0.0256l14.8992 10.7008-0.0256 14.8736z" fill="#FCF7E5" /><path d="M687.530667 73.9328l8.8832 2.807467c13.533867 4.2752 30.062933 27.776 20.4032 39.2192-12.817067 15.172267-30.865067 30.3872-48.768 13.841066l-15.0784-13.943466c-2.193067-2.030933-7.364267 7.3984-5.444267 9.480533l17.390933 18.8416c2.602667 2.816 2.798933 14.353067 0.930134 17.757867-3.7376 6.8096-14.0032 16.4096-20.608 20.539733-9.1392 5.7088-19.3792 3.0464-26.222934-2.833067l-15.854933-13.602133c-3.362133-2.884267-6.980267-10.350933-7.739733-14.301867l-2.107734-3.8656c8.5504-15.761067 21.717333-30.344533 42.0096-32.5632 10.2912-1.1264 6.8608-10.077867 27.153067-30.276266 7.364267-7.330133 16.145067-12.885333 25.0624-11.101867z" fill="#FBF7E4" /><path d="M565.794133 167.9616c1.518933-1.5104 5.290667-3.182933 7.415467-4.078933 1.9456 0.580267 5.410133 1.450667 7.1168 2.210133 9.3184 4.1472 25.301333 16.426667 32.443733 25.966933 2.884267 3.857067 5.154133 15.957333 3.029334 19.9168-3.933867 7.330133-15.189333 18.730667-22.4768 22.8096-14.2336 7.970133-29.8496-3.6352-34.5344-14.702933l8.593066-1.749333 7.4752-17.3312-9.770666-3.473067c-2.7648-0.981333-9.915733-1.032533-10.606934 1.979733l-2.8416 12.458667-9.856-7.330133c-0.802133-1.2288-2.005333-10.743467-0.0512-12.689067l24.081067-23.9872z" fill="#F6F3DF" /><path d="M951.9616 170.2656c-0.2304 4.4544-2.619733 10.811733-5.888 13.7984l-13.8752 12.6976-12.501333-11.1104c-9.403733-8.354133-13.678933-22.229333-5.418667-33.7152l11.3408-15.7696c1.271467-1.7664 8.6016-5.614933 10.999467-4.821333 18.7392 6.229333 11.997867 30.592 15.3344 38.929066z" fill="#F6EFDC" /><path d="M593.314133 147.8656l2.107734 3.8656-3.182934 7.168-3.746133 3.950933-8.1664 3.242667c-1.706667-0.759467-5.1712-1.629867-7.1168-2.210133l14.788267-6.2208 5.316266-9.796267z" fill="#E5DDC4" /><path d="M231.6544 777.591467c-6.954667 15.3088-19.6096 24.968533-35.328 27.733333-12.5184 2.2016-40.96-27.938133-47.189333-36.821333-9.745067-13.909333 1.2288-30.9248 10.274133-41.198934 10.112-11.485867 25.412267-16.0256 37.768533-5.12 17.442133 15.394133 43.963733 34.525867 34.4832 55.406934z" fill="#FEFCEB" /><path d="M293.248 856.695467c-7.953067 7.287467-17.450667 14.813867-28.3392 14.6944-9.9584-0.110933-21.213867-7.185067-27.793067-14.2336l-19.447466-20.855467c-13.960533-14.967467 8.362667-46.907733 28.040533-52.650667 6.784-1.979733 18.2784 3.515733 23.0912 8.4992l27.904 28.868267c10.2656 10.615467 6.528 26.538667-3.447467 35.6864z" fill="#FCF9E9" /><path d="M339.626667 649.6768c3.140267 14.421333-19.618133 46.557867-44.578134 36.5056l-30.0288-28.091733c-15.1296-7.714133-20.224-24.234667-11.4176-39.381334 10.103467-17.373867 31.7696-27.0336 41.557334-18.013866L327.6032 630.613333c4.258133 3.925333 10.530133 12.245333 12.014933 19.054934z" fill="#FDFBEB" /><path d="M391.594667 600.610133c-5.4528 20.7616-20.8128 35.592533-44.586667 30.6944l-43.451733-40.328533c-12.544-21.358933 11.904-45.2608 23.671466-48.1792 4.437333-1.1008 16.904533 0.128 20.590934 3.677867l36.5056 35.2c3.720533 3.592533 8.533333 14.148267 7.278933 18.935466z" fill="#FEFCED" /><path d="M286.865067 718.6432c-9.8816 13.661867-32.938667 37.435733-49.0752 22.024533l-31.5392-30.122666c-4.437333-4.232533-10.88-15.633067-9.130667-21.751467 2.7392-9.557333 9.028267-17.629867 15.479467-24.686933 9.710933-10.632533 24.456533-12.253867 35.131733-2.773334 18.2272 16.187733 45.7984 35.857067 39.133867 57.3184z" fill="#FDFAE9" /><path d="M493.1328 492.305067c-4.9152 11.776-11.008 22.135467-22.4512 28.7232-6.306133 3.626667-19.387733 2.8672-24.558933-1.954134l-40.695467-37.905066c-7.125333-14.267733-4.241067-27.178667 6.6816-37.998934 9.984-9.890133 20.5312-12.782933 34.286933-7.338666l38.852267 36.9408c3.908267 3.720533 6.289067 14.071467 7.8848 19.541333z" fill="#FDFCEE" /><path d="M543.709867 438.144c-3.8656 10.5472-12.305067 23.210667-22.9376 28.253867-16.256 7.7056-29.568-6.237867-38.434134-14.958934l-31.121066-30.609066c-1.3312-14.088533 3.0976-24.0384 13.397333-33.518934 9.728-8.96 19.9936-9.506133 32.904533-5.640533l43.963734 42.0864 2.218666 14.3872z" fill="#FDFBEC" /><path d="M438.186667 530.816c10.461867 10.154667 0.904533 26.129067-6.852267 36.053333-8.209067 10.487467-27.2896 15.5136-37.546667 5.376l-36.9664-36.539733c-5.563733-5.495467-6.613333-22.912-1.792-28.305067l14.173867-15.872 26.154667-2.269866 42.837333 41.557333z" fill="#FEFCED" /><path d="M352.9984 792.2432c-9.9072 16.315733-27.810133 26.282667-45.696 18.773333l-34.602667-34.798933c-8.968533-9.019733-3.285333-28.8256 6.459734-36.983467l12.5696-10.5216c5.572267-4.6592 19.4304-4.155733 24.763733 1.1008l31.837867 31.368534c7.5776 7.466667 11.6992 19.4816 4.667733 31.0528z" fill="#FDF9E9" /><path d="M582.562133 361.019733c12.245333 11.400533 12.100267 25.1904 4.0192 36.701867-8.7552 12.4672-21.9904 19.080533-37.0944 14.5152l-35.720533-32.6912c-8.738133-7.995733-16.093867-20.992-9.258667-33.297067 3.7888-6.818133 13.781333-16.520533 21.2992-20.2496 5.879467-2.9184 20.462933 1.2544 25.1392 5.6064l31.607467 29.422934z" fill="#FDFBEC" /><path d="M396.603733 699.758933c7.253333 6.545067 12.253867 15.8208 12.680534 23.808 0.443733 8.430933-5.4016 18.133333-11.810134 24.6784-12.970667 13.226667-28.2624 12.928-41.053866 0.964267l-22.920534-21.4272c-8.3968-7.850667-16.9216-20.992-9.719466-33.3312 4.599467-7.867733 12.5696-16.128 19.080533-23.253333l19.328-2.466134 34.414933 31.018667z" fill="#FDFAEA" /><path d="M461.5168 680.046933l-20.241067 20.616534-14.353066 2.568533c-3.4048 0.6144-11.6992-3.259733-14.318934-5.853867l-37.051733-36.650666c-4.7616-22.212267 0.657067-23.338667 13.405867-36.872534 8.789333-9.326933 24.840533-12.253867 34.816-2.5344l32.768 31.9232c6.510933 6.340267 6.331733 16.554667 4.983466 26.8032z" fill="#FDFBEB" /><path d="M557.2608 577.604267c-9.8048 12.689067-19.515733 19.712-33.774933 16.8448l-23.022934-20.061867c-10.538667-9.1904-28.808533-23.867733-23.5008-39.901867 7.970133-24.081067 34.594133-35.072 46.301867-23.978666 27.008 25.582933 53.0688 42.402133 33.9968 67.0976z" fill="#FDFBED" /><path d="M594.065067 273.143467c19.387733 19.9168 64.7936 43.460267 38.331733 73.7536-8.925867 10.2144-19.9424 14.4128-33.109333 10.538666-15.214933-12.3136-30.429867-25.207467-43.178667-39.6544-10.2144-11.5712-4.241067-24.891733 4.625067-34.039466 9.6512-9.949867 18.978133-12.7488 33.3312-10.606934z" fill="#FDFCEE" /><path d="M685.397333 259.7632c9.429333 9.2416 3.234133 24.942933-5.1712 34.542933-11.485867 13.124267-27.9552 14.813867-40.106666 3.259734l-31.1552-29.627734c-4.394667-4.181333-9.386667-13.730133-8.772267-18.8416 0.750933-6.1696 5.981867-14.045867 10.769067-19.2512 10.709333-11.648 28.014933-15.5392 40.379733-3.421866l34.048 33.339733z" fill="#FEFBEA" /><path d="M608.699733 488.482133c6.050133 5.905067 8.0384 22.638933 2.3552 29.354667-7.0656 8.362667-13.892267 14.8736-21.265066 21.956267l-20.206934-3.1744-36.693333-36.241067c-3.703467-3.6608-6.237867-12.373333-7.8848-18.210133 8.1152-19.618133 31.991467-37.444267 47.573333-25.941334 5.981867 4.411733 11.895467 8.584533 15.8208 12.424534l20.283734 19.822933z" fill="#FEFCED" /><path d="M512.059733 622.754133c-4.667733 11.4176-14.2336 17.681067-23.1168 24.9088-10.359467 0.708267-21.623467-1.664-29.1328-9.216l-30.0032-30.1824c-8.2432-8.2944-5.9136-22.365867 1.041067-29.678933l8.388267-8.814933c7.645867-8.0384 22.3744-12.8512 32.2304-3.7376l37.640533 34.7904c1.467733 5.768533 5.137067 16.597333 2.952533 21.9392z" fill="#FDFAE9" /><path d="M655.0784 432.4352c14.173867 13.9008 10.257067 28.817067-1.425067 40.507733-11.374933 11.374933-27.076267 16-40.183466 3.0976l-30.779734-30.3104c-4.1216-4.061867-7.560533-17.476267-5.154133-22.766933 6.058667-13.329067 17.1264-20.625067 30.1312-26.624 6.340267 1.536 15.3856 4.701867 19.677867 8.9088l27.7248 27.1872z" fill="#FBF7E8" /><path d="M703.752533 379.605333c10.8288 10.8032 7.210667 24.482133 0.708267 35.114667-6.690133 10.9312-24.32 21.930667-36.189867 10.862933l-39.7312-37.051733c-6.314667-16.708267 0.989867-32.64 17.152-41.122133 9.813333-5.1456 22.8608-2.926933 31.044267 5.239466l27.016533 26.9568z" fill="#FDFAE9" /><path d="M734.293333 206.071467c6.7584 12.117333 4.650667 23.4752-4.411733 34.679466-7.816533 9.659733-24.763733 17.1008-35.857067 6.8864l-39.893333-36.736c-8.081067-20.343467 10.3424-39.159467 27.426133-43.639466 4.2496-1.117867 15.2832 2.935467 18.5088 6.024533l34.218667 32.785067z" fill="#FEFBEA" /><path d="M227.669333 917.9648l-25.489066 7.227733c-14.7968 4.1984-34.722133-17.416533-42.8288-30.4128 3.6608-27.0848 17.186133-46.651733 45.482666-49.518933 19.0464 15.547733 45.7728 33.365333 33.860267 59.758933-1.373867 6.9376-5.2224 11.306667-11.0336 12.9536z" fill="#FDFBED" /><path d="M745.122133 368.554667c-5.521067 4.770133-18.7136 9.890133-24.7552 5.512533-6.698667-4.855467-13.5168-9.454933-18.158933-14.250667l-21.9136-22.656c-8.183467-8.456533-7.688533-20.224-0.682667-29.397333 12.509867-16.401067 16.529067-15.7952 37.8624-16.3072l40.5248 40.277333c3.029333 14.848-0.827733 26.410667-12.885333 36.821334z" fill="#FDFAE7" /><path d="M802.875733 275.899733c9.386667 12.629333-0.759467 27.6992-8.8832 36.181334-9.0624 9.472-22.4768 12.7232-32.657066 3.2512-11.869867-11.042133-24.174933-23.057067-35.054934-35.114667-8.8832-9.847467 0.0768-24.814933 6.698667-32.315733 10.146133-11.502933 24.456533-15.598933 37.154133-5.393067 10.9568 8.8064 23.355733 20.753067 32.750934 33.390933z" fill="#FEFAEC" /><path d="M776.174933 149.435733c12.5952 12.8768 11.485867 31.5392-2.9184 42.811734-7.936 6.203733-22.5024 11.648-30.941866 3.626666l-33.058134-31.419733c-3.899733-3.703467-8.465067-15.496533-6.075733-20.010667 4.488533-8.465067 13.892267-16.827733 22.7072-21.0688 20.4032-9.821867 36.804267 12.279467 50.2784 26.0608z" fill="#FDFAE9" /><path d="M362.965333 373.691733c7.9872-0.341333 14.5664-0.273067 20.872534 0.7168 10.581333 9.591467 20.343467 19.217067 29.533866 29.661867 9.437867 10.7264 2.218667 29.380267-7.790933 35.805867-10.948267 14.446933-26.9568 14.592-39.637333 3.6352-2.312533-1.9968-5.6064-4.317867-6.9888-5.691734l-9.4976-9.437866-4.497067-4.155734c-12.885333-11.921067-5.060267-29.969067 6.510933-40.285866l11.4944-10.248534z" fill="#FBF9EA" /><path d="M344.994133 440.183467l22.6304 22.6048c2.304 16.8448-3.0208 26.154667-15.5392 36.5056-12.066133 9.975467-24.951467 7.697067-35.677866-2.2016l-16.9984-15.675734c-2.5088-2.312533-6.510933-8.328533-7.867734-11.281066-7.236267-15.803733 10.999467-32.119467 22.2464-41.3696 4.1728-3.4304 17.194667-1.723733 20.9152 1.7664l10.2912 9.659733z" fill="#FDFBEB" /><path d="M844.8768 214.954667c7.765333 15.351467 4.48 30.08-6.775467 41.949866-6.638933 7.0144-15.010133 9.352533-24.695466 7.517867l-37.188267-35.4816c-7.210667-6.8864-7.1168-19.1744-0.878933-26.990933 6.101333-7.645867 13.184-14.2592 22.442666-18.0992 4.957867-2.056533 17.109333 2.261333 21.307734 6.2976l25.787733 24.8064z" fill="#FEFBEA" /><path d="M485.376 268.245333l24.6016 24.3968c6.280533 6.161067 10.487467 21.367467 3.712 28.509867l-18.807467 19.822933c-5.0688 0.264533-17.390933 2.235733-21.205333-1.024l-31.854933-27.2128c-2.577067-8.098133-4.3776-18.346667-0.827734-24.448 9.130667-15.701333 27.016533-30.0032 44.381867-20.036266z" fill="#FCF9E6" /><path d="M435.396267 322.210133l24.021333 24.379734c3.754667 3.8144 7.5008 16.1024 6.7328 21.4016-1.902933 13.0816-22.016 29.346133-31.778133 29.252266-4.599467-0.042667-13.960533-4.5568-17.237334-7.978666l-28.151466-29.354667c-7.517867-16.520533 12.987733-40.900267 34.3552-41.147733 3.780267-0.042667 9.975467 1.339733 12.0576 3.456z" fill="#FDFAE9" /><path d="M719.351467 498.6112c1.621333 7.0144 0.768 14.754133-2.056534 21.4784-0.8192 1.8688-4.078933 7.8336-6.0416 9.540267l-13.969066 12.142933c-4.4544 3.8656-15.3856 4.215467-20.5312 2.235733L655.36 522.538667c-9.019733-9.053867-13.064533-19.140267-11.025067-32.0512 7.048533-7.808 15.2832-16.9728 23.876267-22.434134 5.4528-3.464533 20.1216 1.399467 24.6784 5.6832l26.461867 24.874667z" fill="#FDFBE9" /><path d="M667.2128 549.956267c2.961067 6.178133 4.394667 13.550933 3.968 20.224-6.587733 15.761067-36.8384 37.546667-46.941867 26.564266l-26.496-28.808533c-3.822933-4.155733-4.906667-17.911467-1.527466-21.9392 7.082667-8.430933 16.904533-17.493333 24.814933-24.704 22.0672 3.217067 18.773333 2.005333 36.189867 18.944l9.992533 9.719467z" fill="#FCF9EA" /><path d="M179.447467 837.947733l-26.641067 27.076267c-26.112 3.874133-27.682133-1.8432-45.994667-20.3264-4.4032-19.3792 11.613867-45.858133 24.917334-51.9168 4.369067-1.988267 16.597333-1.749333 20.7616 1.092267 14.788267 10.112 30.848 23.389867 26.9568 44.074666z" fill="#FEFCEB" /><path d="M281.668267 484.258133c7.0656 4.8128 13.8496 10.205867 19.2 15.761067l17.792 18.474667c-0.827733 22.852267-6.869333 21.367467-20.317867 38.510933l-19.208533 3.780267c-3.925333-2.491733-11.008-6.331733-13.636267-8.951467l-19.968-19.848533c-5.4016-8.797867-3.3536-19.106133 3.370667-27.656534l11.127466-14.1568c2.833067-3.6096 10.205867-6.929067 14.404267-6.562133l7.253333 0.64z" fill="#FDFAEB" /><path d="M763.0848 438.024533c4.590933 7.867733 6.1696 20.394667 0.887467 29.636267-6.485333 11.3408-25.028267 26.615467-36.2496 22.4256-2.978133-2.389333-6.920533-5.589333-10.845867-9.710933l-22.912-24.072534c-7.261867-7.6288 7.082667-31.470933 22.254933-40.277333 9.617067-5.5808 23.9872 1.0752 32.6912 9.0368l14.173867 12.962133z" fill="#FDFDEC" /><path d="M526.7456 214.340267l5.3248 7.3728c3.6864 0.529067 11.912533 2.235733 14.2336 4.701866l12.7488 13.5168c11.2128 11.886933 6.775467 30.532267-5.265067 40.7808-4.829867 4.113067-14.728533 11.229867-20.113066 10.5984-15.214933-1.783467-36.8896-25.0368-44.194134-35.456-3.831467-26.530133 23.3472-42.530133 37.265067-41.514666z" fill="#FCFAE6" /><path d="M880.9472 196.804267c-7.330133 9.156267-21.137067 14.370133-28.424533 7.560533l-22.741334-21.2736c-4.471467-4.189867-12.8256-14.848-12.578133-20.898133 0.384-9.4464 9.5744-19.9424 16.622933-25.216 19.8912-14.8736 41.4976 10.4192 52.7872 25.821866 6.869333 9.3696 1.860267 24.593067-5.666133 33.9968z" fill="#FEFBEA" /><path d="M807.901867 381.994667c1.553067 3.328 4.9664 11.793067 4.514133 15.744-2.116267 18.645333-24.533333 42.7264-43.264 34.167466-7.867733-8.2176-35.1232-35.362133-25.8816-49.3568 10.760533-16.3072 29.0304-33.3824 45.405867-18.286933l19.234133 17.732267z" fill="#FDF9E3" /><path d="M616.2688 610.304c0.5632 3.370667 3.464533 11.306667 0.810667 14.062933-9.565867 9.9072-29.098667 25.787733-40.081067 28.049067l-29.832533-30.395733c-4.872533-4.9664-2.722133-20.522667 1.800533-25.122134l18.7136-19.029333c25.634133-4.9408 38.357333 13.2608 48.5888 32.4352zM830.907733 127.1808c-7.364267 7.108267-13.166933 12.885333-20.232533 18.372267-7.620267 5.922133-21.205333-0.8192-27.025067-6.954667l-26.0352-27.4944c-5.6064-5.922133 2.133333-19.089067 6.9376-23.534933 10.658133-9.8816 21.725867-13.508267 34.722134-9.335467l20.036266 16.162133c9.9072 7.995733 12.714667 19.037867 11.588267 32.785067z" fill="#FDFAEB" /><path d="M238.779733 542.2848l24.055467 24.6784c4.215467 4.4032 5.410133 19.933867 1.646933 24.917333-4.7616 6.314667-13.4144 15.214933-19.413333 20.3776-3.899733 3.3536-17.373867 4.864-21.384533 1.7152-6.741333-5.2992-32.64-26.427733-27.0848-35.3536l8.814933-14.165333 16.8704-19.720533c3.080533-3.601067 11.869867-3.643733 16.494933-2.440534z" fill="#FCF8EA" /><path d="M217.728 644.437333l-18.944 22.536534c-5.888 7.005867-18.8928 11.272533-27.298133 6.0416-9.147733-5.700267-15.402667-11.9552-23.9104-20.343467 1.314133-7.2192 3.089067-13.397333 6.545066-18.2272l11.758934-16.418133 12.672-15.9744c12.731733 0.5376 29.0816 15.735467 34.9696 24.6784 2.107733 3.2 2.756267 10.973867 4.206933 17.706666z" fill="#FDFBEE" /><path d="M163.694933 701.815467c-2.756267 11.648-12.782933 23.381333-22.0928 31.5648-15.36 13.4912-39.552-6.280533-39.620266-16.341334 9.787733-16.981333 23.159467-59.707733 44.945066-44.066133 8.925867 6.408533 20.087467 14.839467 16.768 28.842667z" fill="#FDFBEC" /><path d="M551.0912 674.414933c-2.269867 2.295467-7.389867 5.9136-11.272533 8.704l-21.111467 15.1808c-7.5776-6.536533-19.106133-16.7424-23.68-25.873066-5.888-11.7504 9.5744-31.223467 22.314667-38.954667 13.696-8.302933 23.748267 3.447467 31.1296 11.6224l15.086933 16.6912-12.475733 12.6208z" fill="#FDFAEA" /><path d="M914.2784 139.7504c-4.829867 6.4768-17.194667 12.3904-24.2432 7.611733-11.204267-7.586133-28.740267-22.408533-29.422933-37.461333 3.84-6.929067 10.436267-16.836267 16.708266-20.206933 15.530667-8.354133 29.269333 1.570133 37.384534 13.781333 7.424 11.1616 9.924267 22.382933-0.426667 36.2752z" fill="#FDFBE9" /><path d="M868.6848 63.744c5.410133 7.261867 0.324267 20.445867-4.0704 25.309867-5.0432 5.5808-16.8704 11.8784-24.9344 7.517866-9.480533-5.128533-18.1504-13.815467-25.258667-22.024533-7.031467-8.1152-3.2256-18.9696 4.701867-25.352533 5.179733-4.1728 11.52-7.159467 18.235733-7.7568 11.5712-1.032533 21.973333 9.7536 31.317334 22.306133z" fill="#FDFCE8" /><path d="M96.5888 740.437333c8.593067 5.077333 31.453867 16.981333 27.409067 29.806934-8.917333 28.2112-36.4032 57.5488-42.257067 42.453333-5.8624-15.121067-4.292267-30.370133-0.759467-44.407467l4.036267-16.017066c1.245867-4.932267 6.664533-10.052267 11.5712-11.8272zM497.109333 716.706133l-15.428266 12.407467c-7.739733 6.229333-15.914667 12.253867-23.074134 17.288533l-11.921066-12.0064c-4.002133-4.036267-6.391467-18.568533-2.926934-23.2448 5.819733-7.850667 14.4896-16.6656 21.6576-22.570666 10.359467-8.541867 32.648533 4.292267 40.994134 17.501866l-9.309867 10.624z" fill="#FDFBED" /><path d="M761.9584 39.773867c3.626667 3.729067 10.990933 11.7504 11.656533 16.64 2.176 16.068267-23.970133 40.277333-41.796266 32.989866-8.029867-3.285333-14.865067-10.2912-21.0432-17.390933 4.266667-8.96 29.4912-29.678933 34.978133-30.327467l16.2048-1.911466z" fill="#FAF4E2" /><path d="M439.057067 762.9824l-11.4944 8.354133-26.837334 21.4016c-4.164267-1.041067-10.914133-7.287467-10.837333-11.7248 0.401067-23.4496 23.569067-40.379733 35.447467-40.8576 7.850667-0.315733 16.6912 8.354133 21.674666 13.764267l-7.953066 9.0624z" fill="#FBF8E6" /><path d="M802.773333 49.024c-11.153067 4.701867-20.514133 1.6384-26.709333-7.133867l13.994667-20.573866c0.042667-6.272 6.058667-13.7728 13.397333-13.141334 3.234133 0.2816 9.8816 2.8928 12.091733 4.642134l14.1056 11.178666c-5.376 11.246933-14.208 19.6864-26.888533 25.028267z" fill="#FBF5DF" /><path d="M372.881067 816.785067c-5.333333 5.341867-12.322133 10.709333-19.165867 16.418133l-13.3632 11.153067c-17.809067-15.453867 16.068267-46.506667 28.910933-49.723734 4.7104-1.1776 14.08 6.536533 16.2816 9.480534l-12.663466 12.680533z" fill="#FBF7E8" /><path d="M676.7616 544c5.154133 1.988267 16.085333 1.6384 20.5312-2.235733l13.969067-12.142934c1.962667-1.706667 5.2224-7.671467 6.0416-9.540266l0.093866 19.9168c0 1.518933 1.28 5.947733 1.4592 6.1952l-32.085333 22.519466c-4.881067 3.4304-11.733333 6.826667-16.0768 9.0112l0.4864-7.552c0.426667-6.673067-1.006933-14.045867-3.968-20.224l9.5488-5.956266z" fill="#ABB471" /><path d="M349.4656 428.381867l-5.384533-0.682667c-0.9984-0.128 0.4864-2.807467 0.887466-3.4816l4.497067 4.155733z" fill="#E5DDC4" /></svg>