<?xml version="1.0" standalone="no"?><!DOCTYPE svg PUBLIC "-//W3C//DTD SVG 1.1//EN" "http://www.w3.org/Graphics/SVG/1.1/DTD/svg11.dtd"><svg t="1778769436943" class="icon" viewBox="0 0 1024 1024" version="1.1" xmlns="http://www.w3.org/2000/svg" p-id="2713" xmlns:xlink="http://www.w3.org/1999/xlink" width="256" height="256"><path d="M665.4 349.64c-22.82-10.07-39.32-30.6-43.78-55.14l-0.54-2.95c-3.91-22.15-17.5-39.08-39.08-39.08-12.85 0-24.24 6.2-31.36 15.77-2.86 3.85-8.67 3.85-11.53 0-7.12-9.57-18.52-15.77-31.36-15.77s-24.24 6.2-31.36 15.77c-2.86 3.85-8.67 3.85-11.53 0-7.12-9.57-18.52-15.77-31.36-15.77-21.58 0-36.48 16.93-39.08 39.08-4.57 25.15-21.74 46.09-45.37 55.86C233.76 395.04 192.5 497.75 192.5 602.76c0 143.6 141.14 189.15 315.25 189.15S823 746.36 823 602.76c0-103.39-47.55-204.56-157.6-253.12z" fill="#F7F3E7" p-id="2714"></path><path d="M507.75 729.38c-162.98 0-297.07-39.92-313.54-162.82a378.991 378.991 0 0 0-1.71 36.2c0 143.6 141.14 189.15 315.25 189.15S823 746.36 823 602.76c0-11.75-0.62-23.47-1.87-35.09C804 689.7 670.24 729.38 507.75 729.38z" fill="#FDDCAF" p-id="2715"></path><path d="M507.75 804.41c-97.38 0-174.3-14.17-228.63-42.11C213.35 728.48 180 674.8 180 602.76c0-128.35 58.34-223.14 164.27-266.91 19.78-8.17 33.88-25.42 37.78-46.19 3.62-29.28 24.72-49.69 51.44-49.69 14.02 0 27.47 5.81 37.13 15.79 9.65-9.98 23.11-15.79 37.13-15.79s27.47 5.81 37.13 15.79c9.65-9.98 23.11-15.79 37.13-15.79s25.94 5.25 35.28 15.17c8.11 8.63 13.69 20.47 16.12 34.24l0.53 2.89c3.69 20.3 17.35 37.48 36.53 45.94 54.78 24.17 97.12 61.58 125.84 111.17 25.65 44.3 39.21 97.34 39.21 153.39 0 72.04-33.35 125.72-99.12 159.54-54.33 27.94-131.26 42.11-228.63 42.11zM433.5 264.97c-10.78 0-24.23 7.34-26.67 28.04-0.03 0.26-0.07 0.52-0.12 0.78-5.33 29.33-25.11 53.69-52.9 65.17-51.36 21.22-90.16 55.08-115.34 100.65-22.22 40.22-33.48 88.38-33.48 143.15 0 32.14 7.65 60.16 22.74 83.31 14.13 21.67 35.26 39.83 62.81 54 50.76 26.1 123.84 39.34 217.2 39.34s166.44-13.24 217.2-39.34c27.55-14.17 48.68-32.33 62.81-54 15.09-23.15 22.74-51.17 22.74-83.31 0-51.65-12.4-100.36-35.85-140.86-26.01-44.91-64.47-78.84-114.3-100.82-26.78-11.81-45.86-35.87-51.03-64.34l-0.54-2.95c-4.59-26.02-20.26-28.82-26.78-28.82-8.48 0-16.26 3.91-21.33 10.74-3.69 4.96-9.6 7.92-15.79 7.92s-12.1-2.96-15.79-7.92c-5.07-6.82-12.85-10.74-21.33-10.74s-16.26 3.91-21.33 10.74c-3.69 4.96-9.6 7.92-15.79 7.92s-12.1-2.96-15.79-7.92c-5.07-6.82-12.85-10.74-21.33-10.74z" p-id="2716"></path><path d="M431 500.67a21.85 24.51 0 1 0 43.7 0 21.85 24.51 0 1 0-43.7 0Z" p-id="2717"></path><path d="M542.91 500.67a21.85 24.51 0 1 0 43.7 0 21.85 24.51 0 1 0-43.7 0Z" p-id="2718"></path><path d="M509.33 618.15c-23.97 0-45.86-12.16-58.56-32.53-3.65-5.86-1.87-13.57 3.99-17.22 5.86-3.65 13.57-1.87 17.22 3.99 8.11 13 22.07 20.76 37.35 20.76s29.24-7.76 37.35-20.76c3.65-5.86 11.36-7.65 17.22-3.99 5.86 3.65 7.65 11.36 3.99 17.22-12.7 20.37-34.59 32.53-58.56 32.53z" p-id="2719"></path></svg>