<?xml version="1.0" standalone="no"?><!DOCTYPE svg PUBLIC "-//W3C//DTD SVG 1.1//EN" "http://www.w3.org/Graphics/SVG/1.1/DTD/svg11.dtd"><svg class="icon" width="256px" height="256.00px" viewBox="0 0 1024 1024" version="1.1" xmlns="http://www.w3.org/2000/svg"><path d="M398.373803 241.1008c19.1744 5.205333 32.4608 17.143467 51.336533 17.109333-20.590933 12.629333-43.460267 31.223467-57.045333 51.336534l-22.920534 14.1568c-39.236267 51.396267-73.9328 140.928-79.6416 205.568-7.261867 82.338133-3.319467 181.649067 23.927467 261.0432 8.567467 24.968533 21.358933 48.955733 32.9984 72.516266-48.093867 13.806933-135.8592 0.938667-164.625067-43.562666-9.540267-14.762667-17.4336-40.32-22.229333-57.634134-31.470933-113.681067-26.052267-257.134933 18.491733-366.626133 4.241067-10.4192 35.387733-64.221867 31.453867-68.360533-10.129067-1.629867-17.006933 7.381333-22.920533 14.148266-82.679467 94.600533-96.196267 269.124267-67.157334 386.807467l33.024 89.608533C99.143936 792.32 53.849003 743.773867 21.840469 694.621867c-7.389867-9.122133-5.614933 4.266667-5.666133 8.507733L4.876203 665.941333c-22.417067-138.018133 31.547733-352.4096 180.7872-400.827733 33.390933-10.837333 59.460267-2.653867 90.052266-6.912 18.090667-2.517333 45.1328-20.027733 68.590934-22.6816 19.805867-2.244267 35.456 0.520533 54.050133 5.563733z m-121.847467 69.162667c-12.347733 2.4064-36.983467 26.5984-41.0112 38.9376-19.413333 59.4944 44.3136 47.1296 57.6 6.263466 5.290667-16.264533 8.413867-50.082133-16.597333-45.201066z" fill="#F28725" /><path d="M997.311403 440.7552c-19.549867 8.465067-9.557333 36.864-11.5456 54.050133-3.874133 33.536-26.632533 96.5888-48.571734 122.555734-5.572267 6.587733-9.710933 13.559467-19.7376 11.630933V529.169067c0-1.134933-4.087467-3.268267-4.625066-6.784-12.347733-81.7664-42.282667-161.339733-109.448534-212.829867l37.162667 68.352c43.844267 108.561067 67.6864 238.609067 9.557333 346.308267-32.0768 59.426133-86.954667 102.6048-155.1104 110.122666 5.000533-19.575467 15.522133-35.515733 21.410134-55.586133 41.079467-139.938133 29.5936-335.36-62.336-453.956267-2.0736-2.670933-12.637867-21.623467-16.128-9.540266-19.054933-17.928533-34.338133-42.837333-57.045334-57.045334 4.138667 0.3584 7.739733-0.9472 11.477334-2.5344 9.309867-3.959467 30.3104-19.1488 34.158933-20.283733 24.379733-7.176533 73.5744 4.676267 98.5856 12.6464 27.1104 8.635733 16.136533 10.112 46.600533 9.9328 118.647467-0.6912 189.533867 75.904 225.5872 182.775467z" fill="#F38725" /><path d="M637.947136 315.264c3.490133-12.0832 14.0544 6.869333 16.128 9.540267 91.921067 118.596267 103.406933 314.018133 62.336 453.956266-5.888 20.061867-16.4096 36.010667-21.410133 55.586134 68.155733-7.517867 123.0336-50.696533 155.1104-110.122667 58.129067-107.6992 34.286933-237.7472-9.557334-346.308267l-37.162666-68.352c67.165867 51.4816 97.1008 131.063467 109.448533 212.829867 0.529067 3.524267 4.625067 5.6576 4.625067 6.784v99.822933c10.0352 1.928533 14.173867-5.0432 19.7376-11.630933 21.947733-25.966933 44.6976-89.019733 48.571733-122.555733 1.988267-17.186133-8.004267-45.585067 11.5456-54.050134 36.974933 109.6192 36.8128 229.358933-8.465067 336.64-26.4448 62.651733-90.965333 135.210667-160.896 147.131734-18.184533 3.0976-38.0672-1.7408-55.022933 2.0224-11.537067 2.56-28.834133 18.986667-43.639467 24.814933-40.661333 15.991467-86.8096 19.4048-125.568-2.926933 0.5376-0.5888-0.452267-7.031467 2.8416-11.1616C699.626069 820.625067 709.900203 667.0592 695.094869 523.383467c-2.116267-20.5568 0.776533-46.685867-11.511466-65.501867-2.935467-51.6864-24.081067-97.2544-45.636267-142.609067z" fill="#EB6E1C" /><path d="M392.665003 309.5552c-92.305067 136.6528-85.128533 414.5664-17.109334 559.010133 14.122667 29.994667 28.407467 53.051733 45.636267 79.854934-43.989333 27.613867-105.745067 17.058133-148.1728-8.686934-36.3776-22.075733-33.9968-9.344-71.3472-14.216533-93.2096-12.177067-158.557867-116.258133-179.780267-199.552l-0.622933-13.550933-5.077333-3.5584c-0.273067-1.774933-0.017067-3.874133 0-5.700267 0.0512-4.232533-1.723733-17.629867 5.666133-8.507733 32 49.152 77.303467 97.698133 131.2256 122.589866l-33.024-89.608533c-29.047467-117.674667-15.530667-292.206933 67.157333-386.807467 5.9136-6.766933 12.791467-15.778133 22.920534-14.148266 3.933867 4.138667-27.2128 57.9328-31.453867 68.360533-44.544 109.4912-49.962667 252.945067-18.491733 366.626133 4.795733 17.314133 12.680533 42.871467 22.229333 57.634134 28.7744 44.501333 116.539733 57.3696 164.625067 43.562666-11.639467-23.560533-24.430933-47.556267-32.9984-72.516266-27.246933-79.394133-31.197867-178.705067-23.927467-261.0432 5.700267-64.648533 40.3968-154.171733 79.6416-205.568l22.920533-14.1568z" fill="#EB6E1B" /><path d="M603.719936 948.4288c-0.5376 0.5888-10.0352 1.134933-15.394133 4.411733-37.2224 22.7072-60.100267 30.7712-106.1376 23.0144-23.808-4.010667-38.280533-23.3472-60.996267-27.4176-17.2288-26.811733-31.5136-49.8688-45.636267-79.854933 123.8272 45.841067 232.4736-42.3424 276.744534-153.924267 32.145067-81.024 36.206933-170.308267 31.2832-256.776533 12.279467 18.816 9.386667 44.936533 11.511466 65.501867 14.805333 143.675733 4.539733 297.2416-88.5248 413.9008-3.293867 4.130133-2.304 10.5728-2.8416 11.1616z" fill="#F38528" /><path d="M580.901803 64.273067c-37.444267 19.310933-53.981867 48.4608-62.626134 88.533333-1.757867 8.1408 0.9984 17.937067-1.032533 27.485867-4.437333 20.872533-26.427733 44.100267-39.0144 60.808533-4.360533 1.681067-22.417067 13.3632-28.5184 17.109333-18.875733 0.034133-32.162133-11.904-51.336533-17.109333 7.893333-11.861333 24.558933-10.973867 36.343466-17.8432 44.347733-25.847467 40.8576-107.229867 69.333334-147.4304 19.293867-27.2384 55.918933-46.728533 76.859733-11.562667z" fill="#649A3B" /><path d="M626.538069 235.400533c-3.84 1.134933-24.849067 16.324267-34.158933 20.283734-3.7376 1.5872-7.338667 2.901333-11.477333 2.5344-11.784533-7.3728-31.872-15.5392-45.636267-17.109334l-3.362133-5.077333a205.73952 205.73952 0 0 0-38.903467 0l-3.362133 5.077333c-3.6352 0.298667-9.079467-0.896-11.409067 0 12.586667-16.708267 34.577067-39.936 39.0144-60.808533 2.030933-9.5488-0.725333-19.345067 1.032533-27.485867 8.6528-40.072533 25.181867-69.2224 62.626134-88.533333 0.2048 0.341333 4.1472 0.145067 5.154133 3.3792 6.587733 21.256533-17.015467 36.0448-25.224533 53.5552-24.558933 52.411733 15.138133 100.2496 65.706666 114.193067z" fill="#588D37" /><path d="M21.891669 725.9648c-0.452267-1.774933-4.002133-6.016-5.700266-17.109333l5.077333 3.5584 0.622933 13.550933z" fill="#F28725" /><path d="M489.637803 241.1008c12.919467-1.0752 33.032533-1.442133 45.636266 0 13.755733 1.570133 33.8432 9.736533 45.636267 17.109333 22.7072 14.199467 37.9904 39.1168 57.045333 57.045334 21.5552 45.346133 42.692267 90.922667 45.636267 142.609066 4.9152 86.468267 0.861867 175.752533-31.2832 256.776534-44.270933 111.581867-152.917333 199.765333-276.744533 153.924266-68.010667-144.452267-75.195733-422.357333 17.109333-559.010133 13.585067-20.113067 36.4544-38.715733 57.045333-51.336533 6.109867-3.746133 24.157867-15.4368 28.5184-17.109334 2.3296-0.896 7.773867 0.298667 11.409067 0z m-47.829334 80.5376c-3.601067 1.066667-26.555733 23.586133-29.1328 27.886933-18.474667 30.848-43.835733 131.950933 16.162134 118.818134 20.608-4.514133 44.859733-51.217067 48.290133-71.4752 5.0176-29.568 8.618667-88.285867-35.319467-75.229867z" fill="#FA962A" /><path d="M276.526336 310.263467c25.0112-4.881067 21.879467 28.936533 16.597333 45.201066-13.2864 40.866133-77.013333 53.230933-57.6-6.263466 4.027733-12.3392 28.654933-36.5312 41.0112-38.9376z" fill="#FCA64B" /><path d="M535.274069 241.1008c-12.603733-1.442133-32.7168-1.0752-45.636266 0l3.362133-5.077333c12.885333-1.2288 26.043733-1.2288 38.903467 0l3.362133 5.077333z" fill="#649A3B" /><path d="M441.808469 321.6384c43.938133-13.056 40.337067 45.661867 35.319467 75.229867-3.438933 20.258133-27.690667 66.961067-48.290133 71.4752-59.997867 13.141333-34.6368-87.9616-16.162134-118.818134 2.577067-4.3008 25.531733-26.820267 29.1328-27.886933z" fill="#FCAC4F" /></svg>