<?xml version="1.0" standalone="no"?><!DOCTYPE svg PUBLIC "-//W3C//DTD SVG 1.1//EN" "http://www.w3.org/Graphics/SVG/1.1/DTD/svg11.dtd"><svg t="1778769538709" class="icon" viewBox="0 0 1024 1024" version="1.1" xmlns="http://www.w3.org/2000/svg" p-id="3771" xmlns:xlink="http://www.w3.org/1999/xlink" width="256" height="256"><path d="M456.47 656.06l-11.53 173.37c-1.7 25.64 17.44 47.92 43.04 50.09 25.38 2.15 47.88-16.25 50.8-41.56l19.99-173.23-102.3-8.67z" fill="#E89C4E" p-id="3772"></path><path d="M492.05 892.19c-1.7 0-3.4-0.07-5.11-0.22-15.67-1.33-29.94-8.63-40.19-20.55-10.25-11.92-15.32-27.13-14.27-42.82l11.53-173.37c0.46-6.89 6.4-12.1 13.3-11.64 6.89 0.46 12.1 6.41 11.64 13.3l-11.53 173.37c-1.24 18.71 12.94 35.22 31.63 36.8 18.77 1.59 35.17-11.82 37.32-30.54l19.99-173.23c0.79-6.86 6.99-11.78 13.85-10.99 6.86 0.79 11.78 6.99 10.99 13.85l-19.99 173.23c-1.79 15.48-9.41 29.45-21.48 39.32-10.74 8.78-23.95 13.48-37.68 13.48z" p-id="3773"></path><path d="M666.16 746.41c-75.93-0.44-221.39-3.87-338.89-22.02-30.33-4.68-52.06-31.74-50.14-62.37 5.78-92.09 20.38-259.52 31.36-318.25 0 0 17.02-145.27 158.86-167.94 0 0 98.17-16.33 188.17 21.67 0 0 92 41 91.5 165.72 0 0-5.57 199.42-21.56 330.93-3.64 29.95-29.11 52.43-59.29 52.25z" fill="#FFDB53" p-id="3774"></path><path d="M314.27 385.33c2.13-16.7 4.22-30.9 6.18-41.41 0 0 16.08-137.21 150.04-158.62 0 0 92.72-15.43 177.73 20.46 0 0 86.9 34 86.42 156.53 0 0-0.56 19.92-1.83 51.08-0.98 23.97-21.23 42.58-45.2 41.54l-9.57-0.41c-17.95-0.78-32.08-15.61-31.97-33.58 0.14-23.56-18.49-42.96-42.03-43.78-22.17-0.77-41.38 15.25-44.61 37.2l-6.89 26.94c-4.18 28.47-28.61 49.57-57.38 49.57-33.27 0-59.72-27.93-57.91-61.14l2.58-27.51c0.86-15.9-10.8-29.72-26.62-31.53l-2.84-0.33c-14.76-1.69-28.15 8.78-30.06 23.51-2.94 22.64-27.27 35.67-47.74 25.57-12.75-6.29-20.09-19.98-18.29-34.08z" fill="#F7F3E7" p-id="3775"></path><path d="M454.951241 585.67672a22.8 25.58 3.3 1 0 2.944975-51.075167 22.8 25.58 3.3 1 0-2.944975 51.075167Z" p-id="3776"></path><path d="M571.5422 592.397143a22.8 25.58 3.3 1 0 2.944975-51.075168 22.8 25.58 3.3 1 0-2.944975 51.075168Z" p-id="3777"></path><path d="M512.43 685.49c-1.39 0-2.79-0.04-4.2-0.12-24.78-1.43-46.7-15.31-58.62-37.13-3.31-6.06-1.08-13.65 4.98-16.96 6.06-3.31 13.65-1.08 16.96 4.98 7.76 14.2 22.01 23.23 38.12 24.15 16.11 0.93 31.3-6.41 40.64-19.62 3.98-5.64 11.78-6.98 17.42-2.99 5.64 3.98 6.98 11.78 2.99 17.42-13.54 19.15-35.09 30.27-58.29 30.27z" p-id="3778"></path><path d="M666.51 758.91h-0.42c-76.52-0.44-222.54-3.91-340.73-22.16-17.76-2.74-33.74-11.97-45-25.98a71.662 71.662 0 0 1-15.71-49.53c5.83-92.76 20.37-259.61 31.47-319.39 0.61-4.71 5.84-40.75 27.7-79.67 21.41-38.12 63.34-86.19 141.54-98.69 4.07-0.68 102.65-16.46 194.9 22.45 2.63 1.07 26.69 11.27 50.43 37.36 22.42 24.65 49.09 68.94 48.82 139.97v0.3c-0.06 2-5.77 201.51-21.64 332.09-4.39 36.12-35.03 63.24-71.35 63.25z m-146.92-574c-29.77 0-49.78 3.18-50.22 3.25-54.63 8.73-96.1 37.49-123.33 85.5-20.75 36.58-25.11 71.23-25.15 71.58-0.03 0.27-0.08 0.56-0.13 0.82-10.93 58.49-25.37 224.41-31.17 316.74-1.53 24.35 15.48 45.51 39.57 49.23 116.6 18.01 261.23 21.43 337.06 21.87 23.77 0.11 43.93-17.6 46.81-41.26 15.55-127.9 21.28-323.16 21.47-329.62 0.16-49.97-13.79-91-41.47-121.96-20.73-23.19-41.93-31.86-42.14-31.94-0.1-0.04-0.16-0.06-0.26-0.11-46.42-19.6-95.63-24.1-131.04-24.1z" p-id="3779"></path></svg>