<?xml version="1.0" standalone="no"?><!DOCTYPE svg PUBLIC "-//W3C//DTD SVG 1.1//EN" "http://www.w3.org/Graphics/SVG/1.1/DTD/svg11.dtd"><svg class="icon" width="256px" height="256.00px" viewBox="0 0 1024 1024" version="1.1" xmlns="http://www.w3.org/2000/svg"><path d="M705.186133 58.299733c94.506667 47.726933 126.250667 194.56 116.872534 292.181334l-5.307734 4.642133c-5.1968 64.648533-52.1216 116.010667-59.4688 180.565333-2.346667 20.650667 2.2016 42.496-1.399466 63.530667-12.202667 71.304533-82.7904 119.611733-151.5008 127.701333-47.522133 5.597867-85.495467-18.474667-130.082134-12.928-8.1664 1.015467-8.8064 6.459733-9.361066 6.596267-21.8112 5.2736-26.069333 3.780267-45.448534 19.4816-12.194133-3.003733-0.785067-20.241067 1.681067-27.554133 23.927467-70.971733 59.3664-114.218667 130.141867-142.549334 21.930667-8.7808 44.305067-11.093333 66.133333-18.2784 18.312533-6.024533 22.766933-24.738133 13.056-25.898666-36.744533-4.3776-102.340267 14.762667-132.932267 35.882666-9.1904 6.3488-15.146667 18.961067-26.120533 22.562134l58.820267-155.434667c19.925333-2.176 41.3952 1.655467 61.124266-0.546133 29.7728-3.319467 127.624533-43.6736 132.898134-74.948267l-15.453867-15.453867c-48.768 33.672533-97.152 65.544533-159.488 58.069334l74.990933-155.477334c5.623467-10.410667 1.5872-22.3488 2.926934-32.802133 4.667733-36.309333 39.773867-78.208 48.9472-116.625067l28.970666-32.708266z" fill="#6EAC49" /><path d="M705.186133 58.299733l-28.970666 32.708267c-9.173333 38.417067-44.279467 80.315733-48.9472 116.625067-32.494933-2.8928-68.241067 110.3872-81.160534 110.353066-13.9264-17.390933-30.762667-40.721067-34.4576-62.907733-3.182933-19.1232 7.108267-60.450133-17.4848-60.450133-28.117333 0-14.472533 60.945067-8.362666 79.803733 9.668267 29.815467 36.701867 55.739733 37.6832 85.76-10.5728 15.8464-55.0912 124.501333-61.806934 126.634667-8.456533 2.679467-24.772267-22.971733-29.2352-29.175467-5.6064-7.790933-14.574933-19.242667-18.090666-27.357867-9.335467-21.521067-8.004267-56.7552-17.390934-73.514666-6.272-11.204267-19.882667-5.4784-22.434133 3.925333-8.192 30.2336 13.6704 91.665067 29.0048 119.364267 7.620267 13.764267 35.805867 40.1152 35.771733 48.904533-25.941333 53.905067-46.754133 109.8752-68.744533 165.444267-5.725867 14.472533 0.836267 17.117867-16 6.673066-1.3568-23.3216-8.891733-21.956267-12.987733-32.4608-1.109333-2.850133 1.245867-9.813333-1.194667-14.762666-19.6096-39.808-61.832533-57.489067-89.821867-92.245334-45.2096-56.132267-53.947733-132.334933-9.344-191.377066 18.2784-24.192 49.109333-44.740267 68.010667-68.343467 29.841067-37.265067 45.4144-89.181867 70.3744-130.082133-2.807467-2.414933-3.8912-7.662933-5.563733-9.634134 22.391467 1.390933 30.984533-28.330667 40.2944-37.614933 2.696533-2.688 10.094933-3.3024 15.0016-7.5264 68.829867-59.2128 190.037333-102.075733 275.84-58.743467z" fill="#83B953" /><path d="M198.741333 71.287467l0.128 68.0448 12.7232 58.7264c0.059733 9.531733 1.058133 19.6608 0.136534 29.056-1.954133 19.8144-8.900267 36.4032-6.775467 61.960533 0.9472 11.3664 5.316267 33.493333 13.2608 41.9328-5.819733 8.661333-14.08 22.954667-19.4816 32.4608l-65.2288-68.027733-6.818133-15.761067-25.335467-0.6144c-0.964267 9.4464-0.119467 17.211733 2.9184 26.2912 6.980267 20.881067 61.354667 71.901867 87.978667 71.099733-37.358933 74.487467-40.8832 142.651733 16.290133 207.889067 11.067733 12.6208 33.8944 25.685333 48.64 38.8352-18.594133-3.857067-13.969067 10.7008-13.175467 22.894933 0.981333 14.993067 5.7856 25.3952 6.9632 38.5024 0.9728 10.88 3.6864 35.882667-6.766933 42.487467-33.7408-54.766933-91.690667-42.615467-144.708267-59.818667-24.968533-8.098133-53.333333-26.692267-69.674666-47.197866C-1.732267 580.471467-5.034667 539.2128 5.188267 491.2896 17.664 432.8192 24.0384 438.340267 17.066667 373.077333c-6.698667-62.685867-9.3184-93.226667 16.008533-152.584533C59.972267 157.457067 124.9024 75.349333 198.7584 71.2704z" fill="#6AA84A" /><path d="M536.3712 837.4528c-0.546133-0.170667-0.6656-5.444267-9.3184-6.6304l-42.615467-3.106133c22.101333-19.421867 45.704533-37.495467 71.185067-52.317867 11.392-6.621867 18.952533 2.978133 6.724267-15.863467 27.5712 2.798933 50.082133 9.898667 81.006933 6.340267 60.484267-6.9632 123.605333-51.421867 143.325867-109.892267 3.8912-11.528533-1.041067-27.434667 9.412266-32.7936-0.093867 6.365867-0.622933 12.8256 0.315734 19.131734 33.5616 12.305067 69.1968 7.543467 103.389866 0.119466l0.196267-25.736533H796.091733c1.169067-10.478933 4.8896-20.360533 6.493867-32.469333l64.9216-48.682667v-29.226667c3.003733-1.152 9.344 0.913067 12.893867-3.080533l110.472533-94.3104c55.790933 71.611733 35.515733 214.203733-19.362133 282.555733-29.568 36.8384-74.018133 58.717867-104.123734 90.666667-34.261333 36.369067-47.095467 96.247467-95.342933 118.920533-21.973333 10.325333-52.292267 16.9216-76.458667 14.1312-70.016-8.0896-100.104533-59.195733-159.223466-77.7472z" fill="#6BA84B" /><path d="M627.2768 207.6416c-1.348267 10.453333 2.696533 22.391467-2.926933 32.802133l-74.990934 155.477334c62.336 7.4752 110.72-24.3968 159.488-58.069334l15.453867 15.453867c-5.2736 31.274667-103.1168 71.6288-132.898133 74.948267-19.7376 2.2016-41.198933-1.629867-61.124267 0.546133l-58.820267 155.434667c10.973867-3.601067 16.930133-16.213333 26.120534-22.562134 30.583467-21.12 96.1792-40.2688 132.932266-35.882666 9.710933 1.160533 5.256533 19.8656-13.056 25.898666-21.828267 7.185067-44.202667 9.4976-66.133333 18.2784-70.766933 28.330667-106.205867 71.5776-130.141867 142.549334-2.466133 7.313067-13.8752 24.5504-1.681066 27.554133-4.352 3.524267-10.999467 7.159467-13.269334 10.641067-9.659733 14.848-20.462933 55.6288-27.204266 75.4944-4.104533 12.091733-12.928 20.104533 8.0128 17.749333-27.204267 28.023467-34.978133 42.973867-44.9024 81.6896-1.937067 7.543467-11.511467 26.0608-0.546134 28.6976-5.5552 5.0176-10.205867 17.066667-19.4816 22.7072-19.2512 11.6992-53.026133 7.227733-64.119466-13.7728l-0.810667-190.728533c0.110933 0.5632 5.751467 1.527467 6.596267 9.378133 4.0448 37.888-3.165867 81.826133-0.085334 120.4736 6.562133 0.768 13.269333-14.523733 15.863467-19.831467 4.864-9.9584 28.168533-56.823467 27.963733-61.533866-0.264533-5.930667-16-10.9056-11.2128-22.331734l12.8256-0.187733c9.173333 17.152 16.1024-1.3312 19.7376-9.480533 11.810133-26.487467 27.357867-59.613867 25.719467-87.9104 16.827733 10.4448 10.274133 7.799467 16-6.673067 21.9904-55.569067 42.8032-111.5392 68.744533-165.444267 0.034133-8.789333-28.151467-35.140267-35.771733-48.904533-15.3344-27.690667-37.1968-89.130667-29.0048-119.364267 2.551467-9.403733 16.162133-15.1296 22.434133-3.925333 9.386667 16.750933 8.055467 51.985067 17.390934 73.514667 3.515733 8.1152 12.4928 19.566933 18.090666 27.357866 4.4544 6.1952 20.770133 31.854933 29.2352 29.175467 6.715733-2.1248 51.234133-110.779733 61.806934-126.634667-0.981333-30.020267-28.014933-55.944533-37.6832-85.76-6.109867-18.858667-19.754667-79.803733 8.362666-79.803733 24.593067 0 14.301867 41.326933 17.4848 60.450133 3.694933 22.186667 20.5312 45.5168 34.4576 62.907734 12.919467 0.034133 48.6656-113.245867 81.160534-110.353067z" fill="#B1D86F" /><path d="M374.050133 162.193067c1.681067 1.9712 2.756267 7.2192 5.563734 9.634133-24.968533 40.900267-40.533333 92.817067-70.3744 130.082133-18.901333 23.594667-49.732267 44.142933-68.010667 68.343467-44.612267 59.042133-35.8656 135.2448 9.344 191.377067 27.989333 34.756267 70.212267 52.445867 89.821867 92.245333 2.440533 4.957867 0.085333 11.912533 1.194666 14.762667-11.4688 16.964267-24.5504 25.250133-32.4608 45.448533l-25.685333-67.473067c-11.776-5.8624-16.170667-14.421333-26.257067-23.424-14.737067-13.1584-37.572267-26.2144-48.64-38.8352-57.181867-65.245867-53.6576-133.4016-16.290133-207.889066 2.167467-4.317867 4.104533-8.789333 6.493867-12.987734 5.4016-9.506133 13.653333-23.808 19.4816-32.4608 8.3712-12.450133 16.247467-12.578133 25.693866-23.304533-8.977067-21.717333-3.7888-42.564267-12.373333-64.776533-5.4272-14.062933-7.176533-9.685333-19.8144-15.803734 0.930133-9.403733-0.0768-19.524267-0.136533-29.056l-12.7232-58.7264-0.128-68.0448c41.873067-2.312533 100.676267 25.489067 133.2224 51.822934 9.275733 7.509333 35.217067 30.984533 42.0864 39.074133z" fill="#468B41" /><path d="M990.882133 408.917333l-110.472533 94.3104c-3.549867 3.9936-9.890133 1.928533-12.893867 3.080534-19.8144 7.620267-51.421867 18.141867-61.8496 38.784-6.4512 12.765867-1.373867 26.231467-3.080533 39.133866-1.595733 12.1088-5.3248 21.9904-6.493867 32.4608-0.238933 2.0992 0.034133 4.352 0 6.493867-10.453333 5.358933-5.521067 21.265067-9.412266 32.7936-19.720533 58.4704-82.850133 102.929067-143.325867 109.892267-30.9248 3.5584-53.435733-3.541333-81.006933-6.340267-18.2272-1.851733-35.831467-0.2304-54.203734-5.947733l-43.5712 28.782933-6.109866-3.3536 6.493866-58.436267c0.554667-0.136533 1.194667-5.5808 9.361067-6.596266 44.586667-5.538133 82.56 18.525867 130.082133 12.928 68.7104-8.0896 139.298133-56.3968 151.5008-127.701334 3.601067-21.0432-0.955733-42.88 1.399467-63.530666 7.3472-64.554667 54.272-115.9168 59.4688-180.565334l5.307733-4.642133c52.539733-1.783467 135.637333 15.854933 168.814934 58.436267z" fill="#478B40" /><path d="M562.346667 759.534933c12.2368 18.8416 4.667733 9.2416-6.724267 15.863467-25.480533 14.8224-49.083733 32.896-71.185067 52.317867l42.615467 3.106133c8.6528 1.186133 8.772267 6.459733 9.3184 6.6304-17.570133 1.792-38.485333-2.602667-55.330133-0.136533-25.002667 3.652267-114.065067 94.1056-139.460267 117.009066-10.965333-2.628267-1.390933-21.154133 0.546133-28.6976 9.9328-38.715733 17.706667-53.666133 44.9024-81.6896 2.679467-2.7648 4.4032-8.5248 9.4208-13.115733 18.781867-17.194667 46.754133-29.943467 62.0032-51.8144l6.109867 3.3536 43.5712-28.782933c18.372267 5.717333 35.976533 4.096 54.203733 5.947733z" fill="#A0C964" /><path d="M257.1776 623.189333c10.094933 9.002667 14.4896 17.570133 26.257067 23.424l25.685333 67.473067c-11.537067 29.44 5.128533 52.010667 0 84.411733l-12.8256 0.187734c-4.795733 11.434667 10.948267 16.401067 11.2128 22.331733 0.2048 4.7104-23.099733 51.584-27.963733 61.533867-2.594133 5.307733-9.301333 20.599467-15.863467 19.831466-3.080533-38.647467 4.130133-82.5856 0.085333-120.4736-0.836267-7.850667-6.485333-8.814933-6.596266-9.378133-3.7376-18.9184-0.7936-25.659733-12.987734-45.448533 10.453333-6.6048 7.748267-31.607467 6.766934-42.487467-1.1776-13.1072-5.981867-23.509333-6.9632-38.5024-0.7936-12.194133-5.418667-26.743467 13.175466-22.894933z" fill="#A2CC65" /><path d="M464.9472 720.580267l-6.493867 58.436266c-15.249067 21.8624-43.221333 34.619733-62.0032 51.8144-5.009067 4.590933-6.741333 10.350933-9.4208 13.115734-20.9408 2.3552-12.117333-5.6576-8.0128-17.749334 6.741333-19.8656 17.544533-60.6464 27.204267-75.4944 2.269867-3.4816 8.9088-7.1168 13.269333-10.641066 19.3792-15.6928 23.637333-14.208 45.448534-19.4816z" fill="#F8FAF5" /><path d="M354.568533 701.098667c1.6384 28.296533-13.909333 61.422933-25.719466 87.9104-3.6352 8.157867-10.564267 26.632533-19.7376 9.480533 5.128533-32.392533-11.537067-54.971733 0-84.411733 7.918933-20.206933 20.992-28.484267 32.4608-45.448534 4.096 10.504533 11.630933 9.147733 12.987733 32.4608z" fill="#F8FAF4" /><path d="M192.247467 376.456533c-26.624 0.810667-80.989867-50.218667-87.978667-71.099733-3.037867-9.079467-3.882667-16.8448-2.9184-26.2912l25.335467 0.6144 6.818133 15.761067 65.2288 68.027733c-2.389333 4.1984-4.3264 8.669867-6.493867 12.987733z" fill="#9ECE60" /><path d="M211.729067 227.114667c12.637867 6.1184 14.3872 1.7408 19.8144 15.803733 8.576 22.212267 3.396267 43.0592 12.373333 64.776533-9.437867 10.734933-17.322667 10.8544-25.693867 23.304534-7.953067-8.439467-12.3136-30.557867-13.2608-41.9328-2.133333-25.557333 4.821333-42.146133 6.775467-61.960534z" fill="#93C55F" /><path d="M796.091733 616.695467h103.901867l-0.196267 25.745066c-34.193067 7.432533-69.828267 12.1856-103.389866-0.119466-0.938667-6.306133-0.4096-12.7744-0.315734-19.131734 0.034133-2.141867-0.238933-4.386133 0-6.493866z" fill="#99CC61" /><path d="M867.515733 506.3168v29.226667l-64.930133 48.682666c1.706667-12.9024-3.370667-26.359467 3.080533-39.133866 10.427733-20.642133 42.0352-31.163733 61.8496-38.784z" fill="#90C260" /></svg>