<?xml version="1.0" standalone="no"?><!DOCTYPE svg PUBLIC "-//W3C//DTD SVG 1.1//EN" "http://www.w3.org/Graphics/SVG/1.1/DTD/svg11.dtd"><svg class="icon" width="256px" height="256.00px" viewBox="0 0 1024 1024" version="1.1" xmlns="http://www.w3.org/2000/svg"><path d="M851.219436 238.921952l-4.633567 1.766387c-18.107602-2.218651-15.726819 46.335664-11.511383 65.637925 13.755634 63.052343-5.785558 110.727731-53.350014 151.226638l-16.503347 14.054298c-15.556154 13.243637-30.967242 29.072856-42.598091 45.985801l-38.26319 55.696663c-20.394519 29.678718-70.126426 51.745759-104.720308 56.643856l-97.356095 13.7983c-22.442504 3.18291-45.158073 9.360999-67.028848 16.546014-39.628513 13.021772-65.296594 47.36819-88.984956 80.946614l-12.304977 17.433474-10.555657-5.640493 18.4148-27.920864 31.854702-41.719165c16.528947-21.64891 34.133086-41.318101 51.575094-62.241683l15.786552-18.935329c12.202578-14.634561 26.21421-27.758732 45.106873-35.438677 79.009561-32.102168 123.442306-1.203191 187.638108-47.069526l-5.290628-5.845291c-74.017597 33.996554-97.458494 9.019668-176.37419 29.269122 6.459687-13.542302 14.643094-27.041938 23.859028-38.715453l11.272451-14.276164c1.33119-1.689588 3.413309-5.196762 5.879424-9.147667 19.310793-13.738567 43.24662-23.654229 67.592044-27.835531l62.608614-10.760456c38.041325-6.536486 71.210151-23.355564 97.219562-50.295102-76.970109 38.391189-108.423748 34.849881-191.623145 48.870046l-1.518923-5.887957 23.961427-30.378447 15.223356-18.704931c24.021159-29.508053 36.351737-42.342093 79.879955-50.772966 26.197144-5.077297 92.449464-24.712354 99.199282-53.025749-20.573718 9.369532-37.264797 21.094247-57.514251 26.299543l-77.763703 19.976388 15.163623-19.293727 18.07347-23.603029 16.98121-21.793975 28.92779-34.431751 20.129988-23.073966c6.655952-7.628745 10.965254-14.719893 14.114031-26.401942-13.252171 7.569012-22.271839 15.385489-31.880302 25.864346l-14.37003 15.675619-17.97107 19.805724-31.632837 35.754407-27.280869 31.538972-5.213829-0.921593c18.261201-60.116898 1.945586-69.0427 26.333676-124.193234 3.114644-6.289021 4.164237-9.62553-3.839972-5.97329-9.198867 15.743886-19.157195 34.107486-21.742776 51.148429l-7.441013 49.049245c-4.189836 27.588067-12.987639 53.145215-30.079782 75.135456l-68.027241 87.500166c13.858033-91.869201-20.838249-121.735652 24.627022-212.000598l-6.894884-4.863965c-63.240075 106.128298-6.476753 156.338068-49.740439 248.787532-3.839972 3.037845-9.113534 7.782344-13.081506 12.168445l-19.003595 21.000382c-6.570619 7.261814-15.786552 15.419622-24.507556 22.963033-0.213332-22.579036-0.563196-38.365589-2.875713-60.620361l-5.597826-53.879076c-0.247465-2.389316 3.071978-11.272452 4.889565-17.424941 1.032526-4.360502-9.779129-4.266636-8.81487-0.034133-16.341215 53.290281 12.083112 124.884429-20.676117 168.91611-25.565682 34.363484-55.508931 63.351008-86.860171 91.946001l-11.42605 10.419125-0.435197-9.215934 15.300156-23.688361c18.099069-28.01473 24.123559-65.066195 22.06704-98.422754l-3.950905-63.973937c-1.689588-27.306469 12.432977-49.868439 28.347528-69.657096 27.698999-34.448817 18.192935-69.025633 39.858912-122.921776 28.100063-69.90456 93.729455-84.214857 113.910641-105.01044l40.669572-41.906896c10.862855-11.195652 33.501624-14.224964 49.894039-14.975892 8.396739-0.383997 68.479504-3.080511 65.288061-15.283089l-2.065052-7.910343c4.531167 3.140244 14.899092 4.906631 19.79719 2.79038l27.041937-11.673515c34.815748-15.027091 73.249603-10.58979 103.610983 11.775914 37.281863 27.477134 55.406532 73.326402 38.954385 120.225263-2.338116 6.673018-1.177591 15.999884 2.261317 21.12838z" fill="#5FB03B" /><path d="M278.577183 387.452076l9.105 6.434087c14.830826-2.81598-2.116251 2.090652 18.320934 11.707649l6.408487 3.012244-18.696398 20.010522c-12.671908 22.391305-22.544903 45.089807-32.324032 68.547771l-16.776412 40.268508-21.350245 49.236977c-0.290131 0.119466-3.336509 1.834653-3.618108 2.278383l-23.466496 38.101058c-81.731675 132.709439-58.393177 105.343237-82.260738 260.273315 9.096467-7.543412 15.795086-18.841464 18.116136-30.054183l8.456472-40.840237c3.737573-18.047869 22.11824-34.329351 36.317603-46.275932l46.241799-38.911718 40.021043-36.172538c10.154593-9.1818 19.507059-18.423333 27.605134-27.451535l11.42605-10.419124c31.359773-28.594993 61.294489-57.582516 86.860171-91.946001 32.759229-44.031681 4.326369-115.617296 20.676117-168.91611-0.96426-4.232503 9.847395-4.326369 8.81487 0.034133-1.817587 6.152489-5.137029 15.035624-4.889565 17.424941l5.597826 53.879076c2.312517 22.254772 2.653847 38.041325 2.875713 60.620361 8.721004-7.551945 17.936937-15.70122 24.507556-22.963034l19.003595-21.000381c3.967971-4.386102 9.241533-9.139134 13.081506-12.168445l19.285193 5.640492c2.71358 0.793594 8.840469 3.18291 9.173267 5.572227 0.221865 1.578655 0.179199 5.341828 0.179199 6.749817l-11.272452 14.276164c-9.2074 11.664982-17.390807 25.173151-23.859027 38.715453 78.915695-20.249453 102.348059 4.735966 176.374189-29.269122l5.290629 5.845291c-64.195802 45.866335-108.628547 14.967358-187.638108 47.069526-18.892663 7.679944-32.904295 20.795583-45.106873 35.438677l-15.786553 18.935329c-17.442007 20.923582-35.046146 40.592773-51.575093 62.241683l-31.854703 41.719165-18.4148 27.920864c-21.614777 32.767763-42.111695 66.124321-60.355829 103.875514l-15.556154 32.187501c-5.145563 10.649523-43.69035 9.608464-49.083378 33.083493l55.969728-14.540694c21.281979-5.52956 43.835416-13.712967 62.113683-25.693681l46.668462-30.600312c15.044158-9.864462 29.252055-21.811042 42.691958-33.817355l27.135803-24.243024c3.993571-3.566908 9.173267-8.610071 12.176979-10.862855l32.409365-24.285691 72.712007-54.459339c2.824513-2.116251 8.627138-5.102896 10.530057-5.930623l16.187616-3.28531c3.106111-0.631462 7.645811-0.86186 9.907128-0.085333 1.587189 0.546129 6.877817 14.105498 5.768492 15.539088l-5.785558 7.458079 9.821795-0.179198c15.530554-0.238932 32.426432 1.459189 48.989512 5.444227l64.537133 15.530554c-31.658437 13.030306-62.676879-3.950905-78.156234-5.179696-22.877701-1.817587-46.002867 0.409597-68.283239 4.138637-4.940764 3.148777-16.016951 10.61539-20.437185 14.864959L462.503317 810.489013l2.406383 5.188229-12.543909 6.502353c-13.755634 7.133815-29.175255 24.592889-41.3949 37.059998l-39.918645 40.746372-19.165728 19.549725c-28.125663 28.697392-52.462553 46.625796-90.205213 63.248608-53.495079 23.568896-59.058772-2.611181-98.004624 27.920865l-17.783338 6.306088c6.604752-43.306353-32.452032-72.592541-63.38514-96.187037-28.006197-21.358779-57.659316-3.430375-54.860403-20.582251l6.638885-14.498028c10.12046-22.126773-12.151379-90.879342 45.294605-166.492661l35.063213-46.156466c27.349135-36.010406 50.064704-62.062484 61.448088-103.047787l1.595722 8.098074 22.485171-32.375232c10.965254-15.786552 24.558755-33.766155 30.054182-52.624685 16.912944-58.000647-19.635058-107.126691-27.698999-165.690534l9.668196-6.408487c11.178586 55.389466 31.948569 79.231426 39.15065 130.294523l15.735353-35.822674c4.275169-9.736463 8.337006-19.583858 11.519916-28.048863zM74.12853 862.9345c5.666092-2.491715 8.277273-18.80733 8.200474-25.642481-0.665595-59.280637 6.707151-47.760721 9.642597-97.279296-23.86756 9.446332-38.450922 71.78188-38.877585 101.213134-0.145066 9.796196 10.803122 26.21421 21.034514 21.717176z" fill="#A2DE50" /><path d="M957.245335 430.997361c5.606359 1.954119 15.62442 3.882639 21.307579 7.679944 21.290512 14.250563 32.443498 37.802393 24.712354 63.214476-14.626027 48.093518-51.609226 57.872648-55.2956 110.497333-3.012245 43.101555-22.689969 81.885274-61.251823 104.242445-62.668346 36.33467-98.43982 9.309799-150.074646 60.603295-34.892547 34.662149-82.704468 49.859906-130.243324 36.599201l-30.028582-8.379672c-19.993455-5.58076-47.009793-11.434584-66.883783-4.761566l-44.60341 14.967358-2.406382-5.188229 60.884892-58.512643c4.420235-4.249569 15.496421-11.716182 20.437185-14.864959 22.280372-3.72904 45.405538-5.94769 68.283239-4.138636 15.479355 1.228791 46.497797 18.210001 78.156234 5.179695l-64.537132-15.530554c-16.56308-3.985038-33.458958-5.683159-48.989512-5.444227 5.03463-8.209007 13.883633-14.591894 23.910226-20.983315 39.850378-25.403549 60.424096-38.587454 112.656251-30.446713l48.272717 7.526346c23.637162 3.686373 48.315383 1.715188 69.503497-8.447939l-79.990887-8.644204-62.830479-11.443117 29.124056-18.483066c68.778169-43.647684 65.458726-31.786436 152.549295-37.443996 6.545019-0.426664 16.605746-4.462901 22.152373-8.29434l-82.474069-4.821298 94.523049-63.786205-1.006926-9.096467-43.886616 24.85742-82.875133 44.202346c5.341828-37.648794 34.653616-62.676879 49.288176-97.55236-14.233497 10.231393-25.813146 20.65905-35.694674 34.278152-30.566179 42.128762-22.485171 66.115788-55.705197 83.301797l-85.281516 44.117013-42.453026 23.150766-54.322806 29.644585c-3.746106 2.047985-9.557264 7.150882-11.357785 8.925802-1.911453 0.827727-7.705544 3.805839-10.530057 5.930624l-72.712007 54.459339-32.409365 24.285691-6.425553-1.561589 18.039336-22.451037c2.380783-2.969578 5.845291-10.154593 6.86075-12.868174 14.310296 2.500249 46.753795-69.46083 48.77618-85.494847 48.178851-3.933838 114.337305-11.468717 156.790331-36.454136 74.674659-43.963415 64.912597-83.617528 119.926599-130.320123 8.703937-7.389813 18.175868-14.498028 25.369416-21.802509l34.141619-34.687749c5.222362-5.307695 12.902307-17.89427 19.558259-21.811042 8.456472-4.974897 27.826998-4.300769 34.713348 0.452264 10.751922 7.43248 25.77048 17.911337 36.914933 21.956107 2.184518 0.793594 33.894155 7.662878 37.418396-6.34022z" fill="#419B35" /><path d="M406.149592 35.053562c-17.100676-3.396242-28.842458 40.387974-33.672289 52.795351l-14.114031 36.223737c0.588796-1.203191-8.977002 4.036237-9.582864 6.212222l-18.551333 67.071514-19.285193 69.648563-10.402058 35.003479c-23.048366-42.30796-27.963531-70.42509-33.868555-116.189025 2.141851-5.99889-1.450656-4.5909-7.33008 0.153599-1.143458 19.694791-0.486396 40.353841 4.915164 58.649175l17.433474 59.02464c8.191941 27.724599 6.510886 58.222512-3.123178 83.805259-3.18291 8.465005-7.244748 18.303867-11.519916 28.048864l-15.735353 35.822674c-7.210614-51.063097-27.972064-74.905058-39.15065-130.294523l-9.668196 6.408487c8.072475 58.563843 44.611944 107.681354 27.698999 165.690533-5.495427 18.85853-19.088928 36.8296-30.054182 52.624686l-22.485171 32.375232-1.595722-8.098075c2.201584-28.381661-0.674128-56.933988-13.30337-84.496455l-32.170434-70.169091c-14.284697-31.154974-15.23189-70.723755 3.959438-100.00141l33.69789-51.404427c29.038723-44.304746 7.82501-126.283885 89.061755-161.355632 10.547124-4.556767 25.941145-12.279378 32.827495-19.959322l28.415795-31.709637c23.645695-26.384876 59.587835-31.837636 87.594032-15.871885z" fill="#5FAF3A" /><path d="M406.149592 35.053562c37.76826 21.520911 17.954003 26.837139 37.614661 39.12505-3.669307 6.289021 0.145066 22.570503 3.430375 30.583245 14.276163 34.841348 21.17958 36.804 16.298549 76.910376l-31.752304 20.462785c-45.815135 29.52512-60.680094 72.788806-71.022419 124.3639l-8.584471 42.854089c-0.554663 2.773313-4.462901 8.73807-6.084222 10.163127l-1.211725-11.613783-42.504225 27.963531 5.42716-29.746985c4.846898-26.538474 9.1562-52.078556 15.820686-78.1989 11.758848-46.071133 75.519453-63.035277 85.170583-116.052493l-35.285078 35.285078c-12.953506 12.962039-25.062219 22.903301-40.985303 35.302144l25.872879-118.399142 14.114031-36.223738c4.829832-12.407377 16.571613-56.191593 33.67229-52.795351z" fill="#409B35" /><path d="M957.245335 430.997361l-23.338498-8.140741c-45.610336-15.897485-26.154477-27.229669-69.896027-28.526727l-12.02338-0.358397 6.399954-45.456738c3.089044-21.896375-14.950292-77.567438-11.810048-107.834952l4.633566-1.766387c39.875978 5.410094 85.315649-22.331572 116.692489 13.021772 13.499636 15.214823 20.863849 38.066924 13.311903 58.649175l-13.508168 36.846667c-9.062334 24.703821 3.447442 28.236596-6.536486 67.941908l-3.925305 15.615887z" fill="#439C35" /><path d="M659.536557 94.658463c-11.187119 2.858646-24.004093 4.607967-37.503728 5.666093l-42.965022 3.379175c-20.027588 1.578655-43.29782 9.932728-55.824663 23.304365l-30.480846 32.554431c-1.459189 1.561589-7.816477 6.041556-8.081008 4.130103l-1.390923-9.992461c-2.210117-15.854819-7.142348-31.581638-14.412696-45.115407l-10.760455-20.027588c-2.440516-4.548234-9.983928-11.656449-14.352963-14.387096 5.401561-9.2586 23.338498-21.12838 35.174145-25.028085 55.2956-18.244135 52.462553-38.246123 91.68147-47.248725 40.277042-9.241533 71.261351 16.349748 78.019701 54.971336 1.919986 10.98232 8.507672 28.663259 10.896988 37.785326z" fill="#449D35" /><path d="M163.659615 1010.688096c-3.942371 3.089044-11.400451 12.757241-16.784945 13.141239-39.193316 2.798913-94.437716-30.677111-110.719198-63.897138l-17.126276-34.935213c-2.961045-6.033023 3.319443-21.998774 8.593004-24.772088-2.798913 17.151876 26.854206-0.785061 54.860403 20.582251 30.933109 23.594496 69.989893 52.880684 63.385141 96.187037l17.783338-6.306088z" fill="#C4F077" /><path d="M846.585869 240.688339c-3.140244 30.267514 14.899092 85.938578 11.810048 107.834953l-6.399954 45.456737 12.02338 0.358397c43.74155 1.297057 24.277158 12.620709 69.896027 28.526727l23.338498 8.140741c-3.524241 14.003099-35.225345 7.133815-37.418396 6.340221-11.144453-4.044771-26.163011-14.532161-36.914932-21.956108-6.88635-4.753032-26.256877-5.427161-34.713349-0.452263-6.655952 3.916772-14.335896 16.503347-19.558258 21.811042l-34.14162 34.687749c-7.193548 7.313014-16.665479 14.412696-25.369416 21.802509-55.014002 46.702595-45.251939 86.356708-119.926598 130.320123-42.453026 24.993952-108.61148 32.520298-156.790332 36.454136-2.022385 16.04255-34.465884 88.003629-48.77618 85.494847l-38.254656 2.517315c11.903914-29.781118 45.021541-51.344695 68.752569-82.986066-72.191477 9.65113-58.819841 8.618604-95.393443 42.947956l-24.439289 22.937434c-12.88524 12.091646-25.616881 22.647303-38.143724 32.844562l-2.193051-5.111429 12.304978-17.433474c23.688362-33.56989 49.356443-67.924841 88.984955-80.946614 21.870775-7.185015 44.577811-13.363103 67.028848-16.546014l97.356095-13.7983c34.593883-4.906631 84.325789-26.965138 104.720308-56.643856l38.26319-55.696663c11.622316-16.921477 27.033404-32.742163 42.598091-45.985801l16.503348-14.054298c47.564456-40.498907 67.105647-88.182828 53.350013-151.226638-4.206903-19.30226-6.587686-67.856575 11.511384-65.637925z" fill="#1E822B" /><path d="M507.251793 490.124399c0-1.40799 0.042666-5.171163-0.179198-6.749817-0.332798-2.389316-6.459687-4.778632-9.173267-5.572227l-19.285194-5.640492c43.263687-92.449464-13.491102-142.659234 49.74044-248.787532l6.894883 4.863965c-45.465271 90.264946-10.768989 120.131397-24.627021 212.000598l68.02724-87.500166c17.100676-21.990241 25.898479-47.547389 30.079782-75.135456l7.441013-49.049245c2.585581-17.040943 12.552442-35.404544 21.742776-51.14843 8.004209-3.660773 6.954616-0.315731 3.839972 5.97329-24.379557 55.150534-8.072475 64.076336-26.333676 124.193234l5.213829 0.921594 27.280869-31.538972 31.632838-35.754408 17.97107-19.805723 14.370029-15.67562c9.608464-10.478857 18.636665-18.295334 31.880303-25.864346-3.148777 11.682049-7.458079 18.773197-14.114032 26.401942l-20.129987 23.073967-28.927791 34.43175-16.98121 21.793976-18.073469 23.603029-15.163624 19.293727 77.763704-19.976389c20.249453-5.196762 36.940532-16.930011 57.51425-26.299543-6.749818 28.313395-73.002138 47.948453-99.199282 53.02575-43.528218 8.439406-55.858795 21.264913-79.879954 50.772965l-15.223357 18.704932-23.961426 30.378446 1.518922 5.887958c83.199397-14.020165 114.653036-10.478857 191.623146-48.870046-26.017945 26.939538-59.178238 43.758616-97.219563 50.295102l-62.608613 10.760455c-24.353957 4.181303-48.289784 14.096965-67.592044 27.835532-2.457582 3.950905-4.548234 7.458079-5.879424 9.147667z" fill="#9ADB51" /><path d="M659.536557 94.658463l2.065052 7.910343c3.191444 12.211112-56.891321 14.899092-65.288061 15.283089-16.392415 0.750928-39.031184 3.780239-49.894038 14.975892l-40.669572 41.906896c-20.181187 20.795583-85.802045 35.105879-113.910642 105.01044-21.665976 53.88761-12.159912 88.464426-39.858912 122.921776-15.914551 19.79719-30.037116 42.350627-28.347528 69.657096l3.950905 63.973937c2.056518 33.356558-3.967971 70.408023-22.06704 98.422754l-15.300156 23.688361c-0.49493 0.221865-5.282095 2.278384-5.435694 2.380783-0.127999 0.085333-2.030919-6.374354-1.979719-6.229288l19.532659-64.366467c3.037845-10.009528 4.317835-20.21532 6.067156-34.030687l-34.926681 15.291623c-1.467723 0.639995-7.38128 6.929016-8.849002 7.483679l-20.036122 7.569012c1.015459-4.044771 4.923698-17.211609 9.241533-20.155588l25.215818-17.211609c10.461791-7.142348 20.769983-16.110817 28.151262-24.80622l0.810661-65.526992c0.255998-20.479852 12.108712-41.539966 20.752917-58.555309l17.288408-20.718784c1.621322-1.425056 5.52956-7.389813 6.084222-10.163126l8.584471-42.85409c10.333792-51.575093 25.207284-94.83878 71.022419-124.363899l31.752304-20.462785c4.881031-40.097843-2.030919-42.069029-16.298549-76.910377-3.28531-8.012742-7.099682-24.294224-3.430375-30.583245 4.369035 2.730647 11.912447 9.830329 14.352963 14.387096l10.760455 20.027588c7.270347 13.533769 12.202578 29.269121 14.412696 45.115407l1.390923 9.992461c0.264531 1.90292 6.621819-2.577048 8.081008-4.130104l30.480846-32.55443c12.526843-13.38017 35.788541-21.734243 55.824663-23.304365l42.965022-3.379176c13.499636-1.058126 26.316609-2.807446 37.503728-5.666092z" fill="#1F8229" /><path d="M219.006414 615.572024c7.398346-8.405272-55.107868 78.685297-47.615655 81.168479-1.629855 1.954119-6.801017 8.908735-8.34554 13.081506l-13.269237 35.976272c-2.218651 6.007423-3.686373 16.53748-6.101289 26.879806l7.551945-2.065052 28.637659-23.253165 55.799063-45.687136c17.442007-14.284697 32.332566-31.837636 47.154859-47.120725-0.042666-0.145066 1.860253 6.314621 1.979719 6.229288 0.153599-0.102399 4.940764-2.158918 5.435694-2.380783l0.435196 9.215933c-8.098075 9.028201-17.442007 18.269734-27.605133 27.451535l-40.021044 36.172538-46.241798 38.911718c-14.199364 11.94658-32.580031 28.228062-36.317604 46.275932l-8.456472 40.840237c-2.32105 11.212719-9.019668 22.519304-18.116135 30.054183 23.86756-154.921545 0.537596-127.563876 82.260737-260.273315l23.466497-38.101058c0.281598-0.452263 3.327976-2.167451 3.618107-2.278383-2.969578 6.852217-2.71358 17.94547-9.762062 25.181684l5.50396 3.720506z" fill="#5BAE2E" /><path d="M313.96466 758.657922l2.19305 5.111429c-10.026594 8.157808-20.027588 21.62331-26.666473 34.53415l-35.575209 69.179232c-1.749321 3.404775-0.017067 14.429762 1.288524 14.81376 22.638769-7.278881 42.290894-16.366815 61.294489-29.00459 24.379557-16.204683 37.077065-19.037729 39.022651-26.342209l49.731907-36.769867c4.761566-3.524241 9.685263-6.869284 13.491102-9.352466l6.425553 1.561589c-3.003712 2.252784-8.183407 7.295947-12.176978 10.862854L385.857472 817.494829c-13.439903 12.006313-27.6478 23.952893-42.691957 33.817355l-46.668462 30.600312c-18.278268 11.980713-40.831704 20.164121-62.113684 25.69368l-55.969728 14.540695c5.393028-23.47503 43.937815-22.433971 49.083378-33.083494l15.556154-32.1875c18.244135-37.751193 38.741053-71.107752 60.35583-103.875515l10.555657 5.640493z" fill="#5EB02E" /><path d="M576.72969 717.169155l-9.821795 0.179199 5.785558-7.458079c1.109325-1.43359-4.181303-15.001491-5.768492-15.539088-2.252784-0.767994-6.801017-0.537596-9.907128 0.085333l-16.187616 3.285309c1.80052-1.77492 7.611678-6.88635 11.357784-8.925802l54.322807-29.644585 42.453026-23.150766 85.281516-44.117013c33.220026-17.186009 25.139018-41.173035 55.705196-83.301797 9.881528-13.619101 21.461178-24.046759 35.694675-34.278152-14.634561 34.884014-43.946348 59.903566-49.288176 97.55236l82.875133-44.202346 43.886615-24.85742 1.006926 9.096467-94.523049 63.786205 82.47407 4.821298c-5.538093 3.839972-15.59882 7.867676-22.152373 8.29434-87.099103 5.649026-83.771127-6.203688-152.549295 37.443996l-29.124056 18.483066 62.830478 11.443117 79.990888 8.644204c-21.188113 10.163126-45.857801 12.125779-69.503497 8.447939l-48.272717-7.526346c-52.232155-8.140741-72.805873 5.043163-112.656251 30.446713-10.026594 6.39142-18.875597 12.774307-23.910227 20.983315z" fill="#99DB52" /><path d="M358.363272 124.07265l-25.87288 118.399143c15.923085-12.398844 28.031797-22.340105 40.985303-35.302144l35.285078-35.285078c-9.659663 53.017216-73.411735 69.98136-85.170583 116.052493-6.664485 26.120344-10.973787 51.660426-15.820685 78.1989l-5.427161 29.746985 42.504225-27.963531 1.211725 11.613782-17.288408 20.718784-16.349748 8.362606-6.408487-3.012245c-20.428652-9.616997-3.481575-14.515095-18.320934-11.707649l-9.105001-6.434086c9.634064-25.582748 11.306585-56.080661 3.123177-83.80526l-17.433473-59.024639c-5.401561-18.295334-6.058623-38.954385-4.915165-58.649176 5.879424-4.735966 9.480465-6.152489 7.33008-0.153599 5.905024 45.763935 10.820188 73.872532 33.868555 116.189026l10.402058-35.00348 19.285194-69.648562 18.551332-67.071515c0.605862-2.175984 10.17166-7.415413 9.582864-6.212221z" fill="#96D951" /><path d="M328.761353 400.24345c-8.644204 17.015343-20.505452 38.075458-20.752917 58.55531l-0.810661 65.526992c-7.372747 8.695404-17.689472 17.663872-28.151262 24.80622l-25.215818 17.211609c-4.317835 2.943979-8.226074 16.110817-9.241533 20.155587l-25.582748 29.064323-5.50396-3.720506c7.048482-7.236214 6.792484-18.329467 9.762063-25.181685l21.350245-49.236976 16.776412-40.268509c9.779129-23.466497 19.643591-46.156466 32.324032-68.54777l18.696398-20.010522 16.349749-8.362606z" fill="#439B35" /><path d="M74.12853 862.9345c-10.231393 4.505567-21.17958-11.92098-21.034514-21.717176 0.426664-29.431254 15.010025-91.758269 38.877585-101.213134-2.935445 49.518575-10.308192 37.998658-9.642597 97.279295 0.076799 6.843684-2.534382 23.150766-8.200474 25.642481z" fill="#C0F173" /><path d="M443.636254 745.50815c-1.015459 2.722114-4.479968 9.907128-6.86075 12.868174l-18.039336 22.451037c-3.805839 2.483182-8.721004 5.836758-13.491103 9.352466l-49.731906 36.769867-3.899705-5.512494c16.281482-28.228062 32.076568-52.701485 53.768144-73.420268l38.254656-2.517315z" fill="#F5F9F3" /><path d="M405.381598 748.025465c-21.70011 20.71025-37.495195 45.183673-53.768144 73.420268l3.899705 5.512494c-1.945586 7.295947-14.643094 10.137527-39.022651 26.342209-19.003596 12.629242-38.65572 21.725709-61.294489 29.00459-1.297057-0.383997-3.037845-11.408984-1.288524-14.813759l35.575209-69.179233c6.638885-12.91084 16.639879-26.384876 26.666473-34.53415 12.526843-10.197259 25.258484-20.752916 38.143724-32.844562l24.43929-22.937434c36.573602-34.337885 23.201965-33.296826 95.393442-42.947955-23.731028 31.649904-56.848655 53.213481-68.752569 82.986065z" fill="#8DD23E" /><path d="M282.809685 654.560542c-14.822293 15.283089-29.712851 32.836029-47.154858 47.120725l-55.799063 45.687136-28.637659 23.253165-7.551945 2.065052c2.414916-10.342325 3.882639-20.872382 6.101289-26.879805l13.269237-35.976273c7.483679-1.177591 12.612175-6.647419 18.056403-12.765774l39.167716-44.023148c9.309799-10.461791 50.320702-62.327015 44.364479-74.094397 1.467723-0.554663 7.38128-6.835151 8.849002-7.483679l34.926681-15.291623c-1.749321 13.815367-3.029311 24.029693-6.067156 34.030687l-19.532659 64.366467z" fill="#8ACE40" /><path d="M181.101622 697.047701l-9.710863-0.315731c-7.492212-2.483182 55.022535-89.573751 47.615655-81.168479l25.582748-29.064323 20.036122-7.569012c5.956224 11.767381-35.054679 63.624073-44.364479 74.094397l-39.167716 44.023148z" fill="#F6FAF0" /><path d="M181.101622 697.047701c-5.444227 6.118356-10.572723 11.596716-18.056403 12.765774 1.535989-4.17277 6.715685-11.127386 8.34554-13.081505l9.710863 0.315731z" fill="#D7F1C2" /></svg>