<?xml version="1.0" standalone="no"?><!DOCTYPE svg PUBLIC "-//W3C//DTD SVG 1.1//EN" "http://www.w3.org/Graphics/SVG/1.1/DTD/svg11.dtd"><svg t="1778769605519" class="icon" viewBox="0 0 1024 1024" version="1.1" xmlns="http://www.w3.org/2000/svg" p-id="4827" xmlns:xlink="http://www.w3.org/1999/xlink" width="256" height="256"><path d="M399.5 809.76l-5.88-223.55a162.16 162.16 0 0 0-14.73-63.4C352.54 465.44 296.03 338.78 276 265.46c-2.12-7.78 0.86-16.06 7.43-20.73 22.63-16.07 78.48-52.75 141.47-71.82 7.1-2.15 14.81-0.04 19.81 5.43 18.51 20.27 64.1 76.24 99.78 169.55 0 0 19.21-52.15 33.43-81.41 3.18-6.55 9.79-10.73 17.07-10.84 29.91-0.45 110.02 3.55 154.68 55.64 4.22 4.92 5.6 11.67 3.78 17.89-10.53 35.82-48.33 163.17-69 216.42-4.11 10.58-7.06 21.57-8.86 32.78l-40.73 253.78c-1.31 8.17-7.69 14.59-15.85 15.97-35.52 6-133.07 17.35-209.01-21.69a19.348 19.348 0 0 1-10.5-16.68z" fill="#F7F3E7" p-id="4828"></path><path d="M678.59 557.56s63.23-190.93 74.86-230.47c1.83-6.22 0.44-12.97-3.78-17.89-44.66-52.1-124.78-56.09-154.69-55.64-7.28 0.11-13.88 4.28-17.06 10.83-14.22 29.26-33.44 81.42-33.44 81.42-35.68-93.32-81.27-149.28-99.78-169.55-5-5.48-12.71-7.58-19.8-5.43-62.99 19.07-118.85 55.76-141.48 71.83-6.57 4.67-9.55 12.94-7.43 20.72 26.48 96.94 116.73 287.13 116.73 287.13s157.74 43.75 285.86 7.06z" fill="#879D4B" p-id="4829"></path><path d="M445.09 649.41a22.8 25.58 0 1 0 45.6 0 22.8 25.58 0 1 0-45.6 0Z" p-id="4830"></path><path d="M561.88 649.41a22.8 25.58 0 1 0 45.6 0 22.8 25.58 0 1 0-45.6 0Z" p-id="4831"></path><path d="M526.84 771.47c-24.82 0-47.5-12.6-60.66-33.69-3.65-5.86-1.87-13.57 3.99-17.22 5.86-3.65 13.57-1.87 17.22 3.99 8.56 13.73 23.3 21.92 39.44 21.92s30.88-8.2 39.44-21.92c3.65-5.86 11.36-7.64 17.22-3.99 5.86 3.65 7.65 11.36 3.99 17.22-13.16 21.1-35.83 33.69-60.66 33.69z" p-id="4832"></path><path d="M543.65 866.94c-43.19 0-94.6-6.36-139.36-29.38a31.841 31.841 0 0 1-17.28-27.47l-5.88-223.55c-0.54-20.35-5.11-40.03-13.59-58.51-30.19-65.74-83.8-186.84-103.59-259.27-3.49-12.78 1.43-26.53 12.25-34.21 21.89-15.55 79.85-53.84 145.08-73.6 11.65-3.53 24.47 0 32.67 8.97 16.57 18.15 55.89 66 90.14 144.06 0.05-0.13 0.1-0.27 0.16-0.4 8.85-22.45 16.4-40.14 22.44-52.56 5.27-10.84 16.05-17.69 28.12-17.87 33.52-0.51 116.63 4.32 164.36 60 6.98 8.14 9.33 19.19 6.28 29.55-11.02 37.49-48.59 163.96-69.34 217.42a149.27 149.27 0 0 0-8.17 30.23l-40.73 253.78a31.769 31.769 0 0 1-26.11 26.31c-16.79 2.84-44.76 6.48-77.44 6.48zM412 809.43a6.84 6.84 0 0 0 3.72 5.89c71.96 37 164.69 26.65 201.21 20.48a6.807 6.807 0 0 0 5.59-5.63l40.73-253.78c1.95-12.13 5.16-24.01 9.55-35.32 20.4-52.54 57.71-178.17 68.66-215.42 0.65-2.21 0.17-4.54-1.27-6.23-17.54-20.46-43.27-35.11-76.46-43.54-28.35-7.2-55.11-7.94-68.54-7.73-2.59 0.04-4.9 1.5-6.02 3.8-13.41 27.6-31.65 76.76-32.88 80.09a12.498 12.498 0 0 1-9.53 8.15 12.522 12.522 0 0 1-13.95-7.83c-35.02-91.58-79.73-146.31-97.33-165.58-1.74-1.91-4.47-2.65-6.96-1.9-61.71 18.69-116.96 55.21-137.85 70.05-2.3 1.63-3.35 4.54-2.61 7.24 20.04 73.35 78.14 203.06 102.19 255.43 9.9 21.56 15.24 44.54 15.87 68.28L412 809.43z" p-id="4833"></path><path d="M560.92 422.22c-5.96 0-11.24-4.28-12.3-10.35-0.06-0.32-5.69-32.15-15.86-59.63-2.39-6.47 0.91-13.67 7.39-16.06 6.47-2.39 13.67 0.91 16.06 7.39 10.97 29.67 16.79 62.61 17.03 64 1.19 6.8-3.36 13.28-10.16 14.46-0.73 0.13-1.45 0.19-2.16 0.19z" p-id="4834"></path></svg>