<?xml version="1.0" standalone="no"?><!DOCTYPE svg PUBLIC "-//W3C//DTD SVG 1.1//EN" "http://www.w3.org/Graphics/SVG/1.1/DTD/svg11.dtd"><svg class="icon" width="256px" height="256.00px" viewBox="0 0 1024 1024" version="1.1" xmlns="http://www.w3.org/2000/svg"><path d="M202.231467 124.535467c0.64 0.657067-1.8688 7.031467 1.083733 10.171733 2.466133 2.628267 9.198933 2.4064 13.303467 7.0656 3.2 3.643733 18.2016 24.9856 20.283733 28.9792 1.373867 2.6368-1.1008 9.617067 5.777067 11.554133l12.3648 65.6384c10.3168 15.6672 39.560533 36.241067 44.586666 53.632 10.350933 35.805867-7.227733 92.049067-21.981866 125.687467 11.2384 11.810133 38.101333 43.246933 40.2688 58.24 9.335467 64.597333-25.019733 107.989333-34.653867 167.808-1.723733 10.7264 0.674133 23.005867-0.2304 34.414933-0.4864 6.084267-5.435733 11.784533-5.896533 17.723734-0.247467 3.157333 4.974933 40.541867 6.0672 45.866666 8.738133 42.624 56.311467 151.381333 96.341333 169.6768 4.667733 2.133333 10.6496-0.110933 13.354667 0.836267 4.573867 1.6128 11.042133 2.517333 11.537066 2.8416 11.579733 7.697067 18.6624 26.965333 34.688 26.043733v5.777067c-17.928533 3.498667-16.264533 0.8448-34.6624-5.777067-58.752-21.154133-157.636267-74.683733-196.548266-124.1088-48.0512-61.047467-8.1408-105.847467 14.634666-164.676266 9.514667-24.576 17.4848-48.4096 14.344534-75.1872l-54.971734 109.6704-20.138666 75.204266-22.331734-26.752c-12.151467-26.7264-37.367467-56.362667-41.088-85.973333-3.089067-24.567467 9.361067-72.874667 18.466134-96.896 5.3504-14.114133 15.018667-33.5616 22.766933-46.5664 15.547733-26.094933 40.8064-47.496533 51.106133-75.997867-4.9408-4.8128-17.450667 10.914133-20.369066 14.293334-26.180267 30.250667-53.435733 59.1872-73.326934 94.225066L75.153067 604.074667c-7.637333-51.114667-35.601067-121.429333-2.756267-167.389867 18.321067-25.634133 55.406933-54.382933 74.811733-81.186133 4.906667-6.775467 18.261333-29.090133 11.707734-34.5088-23.842133 33.2544-52.804267 57.762133-83.780267 83.771733-5.8368 4.906667-7.441067 11.042133-17.339733 8.644267l12.757333-70.997334 33.450667-84.983466c-16.7168 13.320533-29.3888 38.212267-37.632 57.685333-31.837867 75.2384-46.1824 168.192-31.701334 248.5248L0.017067 511.633067c0.443733-54.468267 7.099733-105.540267 24.2944-157.696 19.746133-59.912533 60.578133-108.765867 78.498133-169.941334 6.613333-22.5792 2.5088-51.584 24.448-67.9936 26.734933-20.002133 37.973333-1.041067 61.883733 7.4496 4.642133 1.646933 12.637867 0.622933 13.090134 1.092267z" fill="#82C653" /><path d="M1016.866133 609.851733l-34.653866 34.6624 17.186133-130.090666c-3.2-23.3728-2.423467-52.5312-5.768533-74.888534-4.829867-32.256-17.749333-63.325867-22.997334-95.453866-9.352533-1.774933-6.698667 14.976-6.007466 20.4544 4.215467 33.536 14.754133 66.747733 11.784533 100.864l-25.728-29.141334-43.5712-69.0688c-3.114667 55.057067 56.951467 97.792 63.445333 147.421867 6.340267 48.477867-18.116267 95.470933-28.808533 141.448533l-12.765867-53.649066c-14.856533-33.152-34.500267-67.063467-62.3104-90.7776 2.440533 29.166933 27.776 52.949333 37.751467 80.682666 31.547733 87.697067-11.306667 185.838933-89.745067 231.313067 6.903467-37.7088-7.338667-63.428267-15.940266-96.733867-3.7376-14.464-5.0176-30.0288-8.362667-43.639466-1.28-5.1968-3.182933-17.220267-10.359467-15.616 0.785067 14.225067-1.314133 29.013333 0.1024 43.204266 1.467733 14.737067 10.094933 37.691733 11.3152 52.241067 4.9408 58.530133-17.629867 104.081067-67.106133 134.869333-34.372267 21.393067-91.1872 47.086933-129.211733 58.564267 3.925333-25.1904 34.312533-36.1472 49.28-51.822933 52.2752-54.741333 61.499733-139.016533 71.927466-211.1744 6.075733-42.0352-1.160533-85.230933 26.274134-123.946667 9.659733-13.627733 51.575467-46.165333 54.314666-55.790933-8.439467-33.5104-18.5856-53.666133-0.827733-87.159467 10.461867-19.746133 44.0576-36.360533 46.754133-45.678933 9.070933-31.445333-20.471467-61.960533-5.2224-91.912534l0.162134-48.9216c1.9968-2.798933 4.693333-11.050667 5.777066-11.554133 18.944-8.8576 13.243733-11.0336 26.248534-28.6464 7.253333-9.813333 20.7616-15.445333 19.976533-29.1328 20.1728 1.2032 33.245867-17.288533 54.510933-11.1616 14.993067 4.3264 7.748267 58.171733 10.274134 76.373333 6.894933 49.6896 40.465067 109.201067 53.819733 159.9488 17.5616 66.747733 20.232533 146.346667 8.507733 213.930667z" fill="#83C655" /><path d="M889.762133 170.752c0.785067 13.687467-12.7232 19.319467-19.976533 29.1328-13.0048 17.604267-7.304533 19.7888-26.248533 28.6464-51.387733-47.965867-105.4464-88.832-171.6736-114.321067-33.3824-12.842667-76.578133-28.279467-111.428267-30.122666-4.650667-9.8048-22.528-5.981867-31.778133-5.742934-38.6304 0.989867-72.285867 8.823467-106.888534 17.297067-12.757333 3.131733-27.776 3.925333-40.6528 8.456533-37.896533 13.329067-74.0096 36.864-109.568 55.099734 0.2048-6.075733-33.339733-32.674133-23.108266-52.002134 47.812267-13.44 36.795733-24.285867 66.338133-52.104533 33.262933-31.317333 70.2208-39.697067 115.515733-34.423467 29.909333 3.4816 46.190933 20.232533 79.872 10.231467 34.449067-10.222933 52.224-27.195733 93.4912-21.828267 38.3488 4.992 52.9408 46.574933 70.178134 51.4816 15.522133 4.411733 49.536-25.719467 85.102933-4.5568 24.8832 14.813867 39.432533 47.616 58.478933 62.856534 20.744533 16.597333 59.016533 21.111467 72.328534 51.8912z" fill="#66AE41" /><path d="M0.017067 511.633067l34.653866 52.002133c-14.481067-80.3328-0.136533-173.2864 31.701334-248.5248 8.2432-19.4816 20.9152-44.3648 37.632-57.685333l-33.450667 84.983466-12.757333 70.997334c9.898667 2.389333 11.4944-3.746133 17.339733-8.644267 30.976-26.0096 59.9296-50.517333 83.780267-83.771733 6.5536 5.418667-6.801067 27.733333-11.707734 34.5088-19.4048 26.794667-56.490667 55.552-74.811733 81.186133C39.552 482.645333 67.515733 552.96 75.153067 604.074667l21.853866-56.123734c19.899733-35.037867 47.146667-63.965867 73.326934-94.225066 2.926933-3.3792 15.4368-19.0976 20.369066-14.293334-10.299733 28.501333-35.5584 49.902933-51.106133 75.997867-7.748267 12.996267-17.416533 32.452267-22.766933 46.5664-9.105067 24.029867-21.5552 72.337067-18.466134 96.896 3.729067 29.610667 28.945067 59.246933 41.088 85.973333l22.331734 26.752 20.138666-75.204266 54.971734-109.6704c3.140267 26.7776-4.821333 50.6112-14.344534 75.1872-22.784 58.8288-62.685867 103.6288-14.634666 164.676266 38.903467 49.4336 137.787733 102.954667 196.548266 124.1088v3.003734c-12.970667 6.2976-28.629333 0.6144-42.820266 3.396266l-3.4048 5.154134c-69.4016-18.286933-135.022933-56.0896-190.660267-98.218667 11.502933-2.2784-6.0928-14.7712-8.669867-17.3312-76.7744-76.398933-101.239467-174.318933-147.114666-268.919467L5.802667 580.949333C2.235733 556.2368-0.213333 539.613867 0.017067 511.633067z" fill="#B6E681" /><path d="M595.106133 956.501333c38.016-11.4688 94.839467-37.1712 129.211734-58.564266 49.476267-30.788267 72.046933-76.3392 67.106133-134.869334-1.2288-14.549333-9.847467-37.504-11.3152-52.241066-1.416533-14.190933 0.674133-28.9792-0.1024-43.204267 7.168-1.604267 9.079467 10.4192 10.359467 15.616 3.345067 13.610667 4.625067 29.166933 8.362666 43.639467 8.6016 33.3056 22.852267 59.025067 15.940267 96.733866 78.4384-45.474133 121.2928-143.616 89.745067-231.313066-9.975467-27.7248-35.310933-51.515733-37.751467-80.682667 27.810133 23.714133 47.453867 57.634133 62.3104 90.7776l12.765867 53.649067c10.692267-45.9776 35.1488-92.970667 28.808533-141.448534-6.493867-49.629867-66.551467-92.3648-63.445333-147.421866l43.5712 69.0688 25.728 29.141333c2.9696-34.116267-7.569067-67.328-11.784534-100.864-0.6912-5.486933-3.345067-22.229333 6.007467-20.4544 5.248 32.128 18.167467 63.197867 22.997333 95.453867 3.345067 22.357333 2.568533 51.515733 5.768534 74.888533l-17.186134 130.090667 34.653867-34.6624c-5.4016 31.1296-12.014933 47.616-23.108267 75.1104-4.522667-13.653333-7.901867 3.566933-11.400533 8.797866-32.213333 48.093867-98.773333 133.7856-141.5936 170.4192-18.833067 16.110933-43.938133 30.395733-63.7696 46.0032-9.053867 7.125333-14.8224 13.8496 2.9952 11.656534-28.859733 15.4624-132.829867 54.929067-161.774933 52.002133-10.837333-1.1008-25.873067-8.772267-34.6624-11.554133l7.611733-0.964267c2.397867-0.759467 3.0208-4.5312 3.9424-4.8128z" fill="#B8E785" /><path d="M248.448 107.204267c-10.222933 19.328 23.313067 45.9264 23.108267 52.002133-0.128 3.959467-6.749867 10.018133-5.9904 19.925333 1.220267 15.8208 14.276267 36.437333 12.398933 54.536534 57.9328 21.4528 70.8352 79.624533 55.918933 135.1936-4.462933 16.622933-14.711467 30.532267-16.469333 47.445333 8.285867 17.723733 24.302933 30.865067 32.256 48.9728 8.379733 19.089067 11.306667 42.9824 8.541867 63.675733-0.170667 1.2544-4.4032 17.5872-5.777067 23.108267-12.757333 51.4048-40.277333 99.2512-40.439467 155.997867-0.0512 17.2288 3.925333 25.9072 5.777067 40.439466 3.601067 28.288 3.310933 46.609067 14.3616 75.1872 14.557867 37.6576 39.790933 64.8448 60.7488 98.133334-2.705067-0.955733-8.686933 1.288533-13.354667-0.836267-40.029867-18.295467-87.6032-127.0528-96.341333-169.6768-1.092267-5.3248-6.314667-42.709333-6.0672-45.866667 0.4608-5.930667 5.410133-11.630933 5.896533-17.723733 0.904533-11.409067-1.493333-23.688533 0.2304-34.414933 9.634133-59.818667 43.989333-103.210667 34.653867-167.808-2.167467-15.0016-29.0304-46.4384-40.2688-58.24 14.754133-33.6384 32.341333-89.8816 21.981867-125.687467-5.026133-17.390933-34.269867-37.9648-44.586667-53.632l-12.3648-65.6384c6.673067-2.0736 14.378667-20.2752 11.5456-23.099733l-17.322667-0.017067v11.562667c-2.090667-3.9936-17.092267-25.335467-20.292266-28.9792-4.096-4.667733-10.837333-4.437333-13.303467-7.0656-2.944-3.140267-0.4352-9.514667-1.083733-10.171734 13.9264-13.994667 30.08-12.791467 46.216533-17.3312z" fill="#6EB344" /><path d="M439.108267 956.501333c2.705067-0.529067 19.165867 15.598933 31.786666 17.322667 22.980267 3.140267 50.8416-2.449067 74.581334 0.3072 4.138667-0.64 3.447467-7.722667 9.1904-11.8528l8.7552 5.9392c6.306133-0.324267 14.498133-7.722667 20.130133-5.9392 8.789333 2.781867 23.825067 10.453333 34.6624 11.554133-1.4848 17.348267-10.487467 28.936533-27.067733 33.595734-32.136533 9.028267-92.398933 9.9072-126.2848 7.099733-12.407467-1.024-51.012267-8.866133-60.381867-14.728533-12.356267-7.7312-12.1088-17.9712-11.989333-31.3344-10.683733-6.365867-25.5488-3.8912-34.261334-6.186667l3.4048-5.154133c14.1824-2.781867 29.841067 2.901333 42.820267-3.396267v-3.003733c18.397867 6.621867 16.733867 9.275733 34.6624 5.777066z" fill="#B2DA86" /><path d="M167.560533 864.059733C74.112 793.301333 22.690133 698.402133 5.794133 580.957867l5.9904-3.1488c45.866667 94.609067 70.340267 192.520533 147.114667 268.919466 2.577067 2.56 20.1728 15.0528 8.669867 17.3312z" fill="#8AC55D" /><path d="M993.757867 684.962133c-45.2096 112.042667-107.118933 179.746133-213.768534 236.8768-17.8176 2.184533-12.049067-4.5312-2.9952-11.656533 19.831467-15.607467 44.936533-29.892267 63.7696-46.0032 42.820267-36.642133 109.380267-122.325333 141.5936-170.4192 3.498667-5.230933 6.877867-22.4512 11.400534-8.797867z" fill="#8EC462" /><path d="M358.2208 528.964267l46.216533 49.1264c3.157333 5.640533 10.683733-3.84 11.306667-6.0416 2.2272-7.8592-1.0496-19.336533 0.349867-28.535467 10.453333-68.736 28.672-141.312 53.128533-206.865067 6.1952-16.6144 13.115733-36.957867 24.772267-50.338133l2.7648 43.204267c-17.3568 72.021333-10.001067 148.1216-11.426134 222.557866 27.656533-15.086933 61.585067-30.173867 86.4-49.3568 13.533867-10.461867 50.0736-46.6432 58.026667-60.416l5.162667 3.387734 0.6144 8.1664c-17.109333 35.447467-34.619733 60.859733-66.338134 86.766933-27.537067 22.493867-81.2544 42.1888-84.113066 83.9168-0.648533 9.403733 5.1968 15.505067 5.930666 22.9632 2.235733 22.673067 2.705067 45.2864 7.074134 68.0192 1.826133 9.4976 12.8 56.200533 18.986666 56.046933 36.642133-20.0448 79.906133-40.5248 112.4352-66.6368 20.224-16.2304 32.512-38.510933 52.232534-54.638933 2.304 10.5984-3.1232 16.648533-6.7072 25.053867-9.634133 22.587733-32.657067 57.207467-51.054934 73.1648-11.477333 9.949867-37.717333 27.144533-52.138666 37.418666-22.7584 16.2048-49.7664 15.394133-46.114134 51.950934 2.030933 20.258133 12.3904 59.323733 17.518934 80.9216 3.464533 14.6176 11.963733 27.895467 11.400533 43.485866-5.742933 4.138667-5.051733 11.2128-9.1904 11.8528-23.739733-2.756267-51.601067 2.833067-74.581333-0.3072-12.612267-1.723733-29.073067-17.851733-31.786667-17.322666v-5.777067c-14.788267-36.343467-16.930133-75.016533-23.099733-112.674133-5.256533-32.0768-45.934933-46.045867-69.085867-63.7952-10.308267-7.901867-17.109333-20.113067-29.141333-25.745067-1.851733-14.532267-5.828267-23.210667-5.777067-40.439467l92.4416 57.7792V635.861333c-14.208-29.1328-50.8928-50.0736-52.002133-83.771733 1.373867-5.5296 5.6064-21.8624 5.777066-23.108267z" fill="#F2FCEC" /><path d="M439.108267 950.724267c-16.0256 0.9216-23.108267-18.3552-34.688-26.043734-0.494933-0.3328-6.9632-1.2288-11.537067-2.8416-20.957867-33.288533-46.190933-60.475733-60.7488-98.133333-11.050667-28.578133-10.752-46.8992-14.3616-75.1872 12.023467 5.632 18.833067 17.851733 29.141333 25.745067 23.159467 17.749333 63.837867 31.7184 69.085867 63.7952 6.1696 37.649067 8.311467 76.322133 23.099733 112.674133z" fill="#B0E773" /><path d="M236.893867 170.752v-11.562667l17.322666 0.017067c2.833067 2.824533-4.872533 21.026133-11.5456 23.099733-6.877867-1.937067-4.4032-8.917333-5.777066-11.554133z" fill="#66AE41" /><path d="M560.443733 84.087467c34.850133 1.8432 78.045867 17.271467 111.428267 30.122666 66.2272 25.480533 120.277333 66.346667 171.6736 114.321067-1.083733 0.512-3.780267 8.7552-5.777067 11.554133-19.712 27.648-26.052267 67.268267-23.005866 101.000534 0.802133 8.866133 9.309867 17.988267 5.282133 28.526933-2.7648 9.233067-25.6512 14.370133-34.269867 20.693333-10.999467-16.247467-27.3664-29.755733-35.899733-47.872-21.333333-45.294933-16.315733-108.509867-69.845333-132.369066-30.8992-13.7728-59.460267-8.2432-90.948267-18.824534-19.541333-39.671467-32.9216-87.799467-80.6144-101.384533-1.476267-9.514667 7.773867-5.5552 14.3872-5.76 12.305067-0.392533 25.378133-0.648533 37.597867 0z" fill="#A6D671" /><path d="M595.106133 956.501333c-0.930133 0.2816-1.553067 4.0448-3.9424 4.8128l-7.611733 0.964267c-5.632-1.783467-13.824 5.614933-20.130133 5.9392l-8.7552-5.9392c56.4224-40.6272 117.179733-92.509867 127.104-167.552 0.7168-5.418667-0.298667-11.656533 0-17.3312l5.1456-3.387733c1.527467-10.385067 0.4864-20.8896 0.631466-31.274667 0.494933-35.9168 2.670933-66.3552 5.6576-101.2224 1.442133-16.878933-1.621333-33.885867 1.237334-50.7648 7.441067-43.963733 46.711467-68.608 73.514666-100.010667-8.593067-25.838933-9.088-65.467733 6.254934-88.874666 0.443733-0.682667 10.897067-11.067733 11.554133-11.554134 8.618667-6.3232 31.505067-11.460267 34.269867-20.693333 4.027733-10.530133-4.48-19.652267-5.282134-28.526933-3.0464-33.732267 3.3024-73.344 23.005867-101.000534l-0.162133 48.9216c-15.249067 29.952 14.293333 60.4672 5.2224 91.912534-2.688 9.3184-36.283733 25.941333-46.754134 45.678933-17.757867 33.493333-7.611733 53.649067 0.827734 87.159467-2.7392 9.6256-44.654933 42.1632-54.314667 55.790933-27.434667 38.715733-20.1984 81.902933-26.274133 123.946667-10.427733 72.157867-19.652267 156.433067-71.927467 211.1744-14.967467 15.675733-45.3632 26.641067-49.28 51.822933z" fill="#6BB141" /><path d="M421.777067 95.6416c38.357333 7.5264 93.9008 26.129067 114.816 61.405867 11.562667 19.5072 10.120533 47.573333 29.474133 62.967466 34.1504 5.546667 78.2848 4.130133 107.153067 25.728 50.389333 37.700267 38.3488 84.5824 69.376 127.061334 9.591467 13.1328 24.106667 16.059733 31.616 29.047466-15.342933 23.415467-14.848 63.044267-6.254934 88.874667-26.8032 31.402667-66.0736 56.0384-73.514666 100.010667-2.858667 16.8704 0.213333 33.885867-1.237334 50.7648-2.986667 34.875733-5.162667 65.3056-5.6576 101.2224l-5.1456 3.387733c-1.809067 10.376533-0.0768 20.9152-0.631466 31.274667-0.298667 5.674667 0.7168 11.912533 0 17.3312l-57.7792-46.216534c18.397867-15.957333 41.4208-50.568533 51.054933-73.1648 3.584-8.405333 9.0112-14.464 6.7072-25.053866-19.720533 16.119467-32.008533 38.408533-52.232533 54.638933-32.529067 26.112-75.793067 46.592-112.4352 66.6368-6.186667 0.1536-17.169067-46.549333-18.986667-56.046933-4.369067-22.7328-4.8384-45.346133-7.074133-68.0192-0.733867-7.458133-6.5792-13.550933-5.930667-22.9632 2.858667-41.736533 56.576-61.431467 84.113067-83.9168 31.7184-25.9072 49.2288-51.328 66.338133-86.766934 4.164267-8.618667 13.1584-18.013867 11.5456-28.8768h-8.635733c-9.002667 3.6096-7.0656 14.5152-8.686934 17.322667-7.953067 13.7728-44.484267 49.954133-58.026666 60.416-24.814933 19.182933-58.743467 34.269867-86.4 49.3568 1.425067-74.436267-5.930667-150.528 11.426133-222.557867l-2.7648-43.204266c-11.656533 13.380267-18.577067 33.723733-24.772267 50.338133-24.456533 65.553067-42.6752 138.120533-53.128533 206.865067-1.399467 9.198933 1.8688 20.667733-0.349867 28.535466-0.622933 2.2016-8.149333 11.682133-11.306666 6.0416l-46.216534-49.1264c2.7648-20.693333-0.162133-44.586667-8.541866-63.675733-7.953067-18.116267-23.970133-31.2576-32.256-48.9728 1.749333-16.913067 12.0064-30.830933 16.469333-47.445333 14.916267-55.569067 2.013867-113.7408-55.918933-135.1936 1.877333-18.0992-11.178667-38.715733-12.398934-54.536534-0.768-9.915733 5.853867-15.965867 5.9904-19.925333 35.5584-18.235733 71.671467-41.770667 109.568-55.099733 12.8768-4.522667 27.895467-5.3248 40.6528-8.456534z" fill="#ACE66E" /><path d="M560.443733 84.087467c-12.219733-0.648533-25.2928-0.392533-37.597866 0-6.621867 0.213333-15.863467-3.754667-14.3872 5.76 47.6928 13.5936 61.073067 61.713067 80.6144 101.384533 31.488 10.581333 60.049067 5.051733 90.948266 18.824533 53.5296 23.8592 48.520533 87.074133 69.845334 132.369067 8.533333 18.116267 24.900267 31.624533 35.899733 47.872-0.657067 0.4864-11.1104 10.871467-11.554133 11.554133-7.509333-12.9792-22.024533-15.914667-31.616-29.047466-31.0272-42.487467-18.986667-89.361067-69.376-127.061334-28.868267-21.597867-73.002667-20.181333-107.153067-25.728-19.345067-15.394133-17.911467-43.460267-29.474133-62.967466-20.906667-35.268267-76.458667-53.870933-114.816-61.405867 34.594133-8.482133 68.258133-16.315733 106.888533-17.297067 9.250133-0.238933 27.118933-4.061867 31.778133 5.742934z" fill="#84BF48" /><path d="M352.443733 552.072533c1.109333 33.698133 37.794133 54.638933 52.002134 83.771734v129.9968l-92.4416-57.7792c0.170667-56.738133 27.690667-104.584533 40.439466-155.997867z" fill="#ACE66E" /><path d="M681.770667 794.734933c-9.924267 75.042133-70.690133 126.9248-127.104 167.552 0.5632-15.5904-7.936-28.868267-11.400534-43.485866-5.12-21.597867-15.488-60.663467-17.518933-80.9216-3.6608-36.548267 23.355733-35.7376 46.114133-51.950934 14.421333-10.274133 40.661333-27.460267 52.138667-37.418666l57.7792 46.216533z" fill="#ACE56E" /><path d="M629.768533 442.299733c1.621333-2.807467-0.315733-13.7216 8.686934-17.322666h8.635733c1.6128 10.862933-7.381333 20.2496-11.5456 28.8768l-0.6144-8.1664-5.162667-3.387734z" fill="#D1F3AA" /><path d="M681.770667 777.403733c0.554667-10.359467-1.186133-20.906667 0.631466-31.274666l5.1456-3.387734c-0.145067 10.385067 0.896 20.8896-0.631466 31.274667l-5.1456 3.387733z" fill="#ACE56E" /></svg>