<?xml version="1.0" standalone="no"?><!DOCTYPE svg PUBLIC "-//W3C//DTD SVG 1.1//EN" "http://www.w3.org/Graphics/SVG/1.1/DTD/svg11.dtd"><svg class="icon" width="256px" height="256.00px" viewBox="0 0 1024 1024" version="1.1" xmlns="http://www.w3.org/2000/svg"><path d="M35.5072 635.741867C2.909867 588.347733-6.912 527.36 12.279467 472.533333c37.495467-107.1616 182.144-177.314133 281.949866-214.528 59.093333-22.033067 120.4992-40.6016 182.016-53.495466 47.0016-9.856 96-17.058133 143.9232-11.656534 84.061867 9.480533 147.5072 68.0448 164.676267 150.690134 0.1792 0.8448 0.008533 1.749333 0.034133 2.602666 0.469333 0.546133 8.456533-1.851733 10.146134-2.107733 20.164267-3.114667 40.277333-3.549867 60.714666-2.1248l13.346134 3.165867c-26.222933-2.338133-46.6176-3.822933-72.994134 0.017066-3.575467 0.520533-7.458133 2.304-11.2128 2.107734l9.591467 2.133333-2.133333 2.1248h7.458133c-41.0112 6.126933-82.261333 30.0032-108.680533 60.177067-8.285867 9.463467-15.342933 18.6624-21.358934 29.7984l2.423467 1.826133 12.4928 5.085867c7.3216 4.6848 15.488 8.106667 22.775467 12.919466 16.9728 11.195733 27.400533 26.129067 42.248533 37.12v1.066667l-2.133333 0.529067c1.3312 1.672533 3.626667 3.114667 4.770133 4.821333 1.954133 2.9184 2.116267 4.992 4.778667 7.978667 3.669333 4.113067 3.4304 2.176 4.48 7.2704 0.2304 1.1264 3.822933 5.486933 4.616533 7.099733 11.8528 23.944533 19.9424 58.709333 18.7136 85.742933-1.902933 41.770667-16.580267 80.8704-40.064 114.363734-3.217067 4.590933-8.994133 9.531733-10.1632 14.882133-3.84-0.5888-2.619733 1.032533-4.130133 2.747733a188.49024 188.49024 0 0 1-18.218667 18.030934c-19.746133 17.109333-45.858133 32.136533-71.074133 40.8064-14.4128 4.957867-29.5936 7.287467-44.5184 8.772266-22.638933 2.244267-40.413867 1.348267-62.071467-4.061866-2.389333-0.597333-7.867733-0.9984-9.8304-1.8176-3.0464-1.271467-2.397867-0.366933-1.143467 1.595733-19.592533-10.820267-40.388267-18.696533-58.112-32.981333-16.4352-13.243733-31.445333-30.011733-41.924266-48.622934-6.638933-11.793067-11.6736-24.5504-15.112534-37.6064l-11.6992 2.107734c0.093867-0.034133 0.2048-0.631467 0.750934-0.861867 2.568533-1.092267 1.979733-3.2256 4.778666-3.5072 0.401067-0.3328-0.375467-1.365333-0.477866-2.048-1.962667-13.841067-6.0928-31.675733-5.102934-45.269333 0.2304-3.191467 1.7152-5.341867-0.384-8.064-3.669333-1.152-3.106133-0.597333-5.597866-0.034134-14.088533 3.208533-27.989333 7.2192-41.890134 10.325334-30.139733 6.741333-59.093333 11.741867-90.094933 14.344533-5.7344 0.4864-12.996267 0.324267-18.141867 1.041067-1.9968 0.2816-3.328 1.851733-5.3248 2.133333-6.4512 0.896-12.962133-0.0512-20.2752 1.0496-2.551467 0.384-5.947733-0.913067-7.466666 2.1248-1.109333 2.2272 0.170667 3.720533-2.670934 5.845333-3.0464 2.286933-10.3168 2.594133-13.8752 1.134934-2.261333-0.930133-4.4544-3.669333-6.912-3.822934-0.827733-0.0512-7.108267 0.904533-8.4736 1.143467-4.181333 0.733867-8.32 2.722133-12.6208 3.054933-1.5872-0.785067-4.317867-1.988267-4.846933-3.7632-0.2304-0.759467-1.211733-5.674667-1.2288-6.254933-0.042667-2.082133-3.328 4.514133-3.7632 2.389333-5.751467-0.785067-2.756267 4.7104-8.507733 3.4304-4.9152-1.092267-7.850667-3.882667-12.5952-5.085866-3.5584-0.904533-9.4976 0.093867-13.226667 0.512-9.659733-5.6064-9.207467-5.4272-19.080533-8.0128s-17.152-6.229333-26.205867-10.683734c-6.0416-2.9696-15.325867-6.638933-22.434133-9.796266-2.858667-1.271467-11.793067-8.977067-14.583467-8.1408-3.805867 1.143467-4.1472-8.098133-4.2752-6.1696-0.119467 1.8432-2.244267 5.845333-2.0224 7.3472 0.0768 0.520533 4.4288 8.046933 5.179733 9.207466v1.066667z m663.022933-401.3824c0.384-2.261333-0.384-3.4816-2.116266-4.804267-4.718933-0.187733-9.378133-3.857067-13.550934-4.565333-26.1376-4.4544-53.154133-7.227733-79.7184-4.445867-7.261867 0.759467-26.897067 3.6096-32.8704 6.562133-1.646933 0.810667-2.619733 2.338133-3.925333 3.5328 3.0464 3.933867 5.1968 1.7408 8.0128 1.621334 31.8976-1.390933 63.837867-3.464533 95.889067-1.066667l28.270933 3.1744z m-93.7984 75.588266c4.932267 1.774933 9.941333-0.802133 14.609067-1.911466 23.057067-5.461333 46.72-11.793067 70.161067-16.162134 10.248533-1.911467 26.001067-2.6112 35.208533-6.357333 4.317867-1.757867 3.089067-4.010667-1.092267-4.343467-29.431467-2.3552-65.553067 6.536533-93.3376 15.428267-7.765333 2.4832-14.600533 4.6592-21.649066 9.250133l-3.8912 4.096z m147.0976 25.557334c-2.056533-0.290133-3.669333 0.503467-5.2992 1.621333-5.9392 4.087467-12.808533 11.741867-18.6624 16.494933-19.259733 15.633067-40.644267 27.946667-60.288 43.050667-3.592533 2.7648-7.7568 4.599467-10.606933 8.558933 1.339733 1.646933 1.3056 1.595733 3.234133 1.109334 3.464533-0.8704 9.659733-3.498667 13.064534-5.060267 18.116267-8.302933 37.256533-21.896533 52.9408-34.423467 10.624-8.490667 16.477867-16.0512 24.6016-26.530133 1.314133-1.6896 1.152-2.8416 1.024-4.829867zM163.421867 369.578667l-11.707734 3.7376C90.692267 402.321067 23.185067 472.9088 28.040533 544.733867c0.136533 1.962667-0.443733 3.4304 1.6128 4.770133 1.809067 0.802133 2.005333-1.7664 2.397867-2.9184 4.241067-12.330667 5.7856-24.558933 10.077867-36.7872 4.1728-11.895467 9.659733-24.0896 15.914666-35.208533 1.6128-2.8672 2.235733-4.445867 3.566934-7.082667 0.605867-1.2032 3.217067-2.781867 4.258133-4.266667 10.368-14.702933 17.988267-25.250133 30.353067-37.7856 19.285333-19.541333 41.9328-33.7664 63.479466-50.542933 2.235733-1.7408 4.522667-2.133333 3.720534-5.333333zM61.994667 554.658133c0.315733-0.238933 0.298667-1.646933 1.2032-2.4832 31.377067-29.1072 75.528533-56.132267 112.341333-77.3376 23.005867-13.252267 46.779733-26.2912 71.031467-37.649066 1.160533-0.546133 3.703467-1.450667 3.191466-3.2-1.7152-2.346667-1.979733-1.365333-3.976533-0.776534-18.935467 5.538133-36.8128 11.7248-54.638933 19.950934-1.988267 0.9216-4.352 2.116267-6.4512 3.140266-9.079467 4.420267-18.653867 9.429333-26.555734 13.909334-13.934933 7.901867-27.434667 16.2816-40.507733 25.5744-15.232 10.8288-29.704533 23.3984-42.632533 36.1728-6.391467 6.306133-9.540267 10.368-14.455467 17.536-1.518933 2.218667-4.590933 2.986667-3.720533 6.4 0.187733 0.187733 4.957867-1.066667 5.162666-1.2288zM416.059733 684.714667c9.429333 50.705067 60.731733 97.578667 108.6976 112.349866C667.0848 840.917333 809.7024 699.818667 767.829333 558.011733c-1.3312-5.6832-3.601067-11.665067-5.845333-17.058133-35.584-85.674667-133.930667-120.661333-219.374933-90.248533-87.150933 31.010133-145.5104 120.900267-131.848534 213.2224l5.307734 20.778666zM5.8368 518.510933l-1.237333-3.080533c0.785067 3.618133-0.827733 6.8352-1.109334 10.0608-0.315733 3.5584 0.989867 5.640533 1.152 8.5248 0.3328 5.7344-0.187733 11.383467 0.964267 16.989867 3.4048 1.339733 3.4816 3.771733 5.333333 6.536533l6.4512 0.477867c1.015467-3.976533-1.006933-6.212267-1.902933-9.284267-2.8416-9.710933-7.517867-19.217067-7.6288-29.525333l-2.013867-0.708267z m291.899733 16.085334l-14.1824 1.262933c-64.605867 19.387733-129.5616 34.3808-194.389333 50.722133-3.9936 1.006933-9.335467 1.544533-13.184 2.798934-1.6128 0.529067-3.566933 1.681067-3.1488 3.771733 5.8112-0.298667 11.835733 0.401067 17.629867 0.0512 39.8848-2.4064 89.685333-15.812267 128.085333-27.502933 25.2416-7.688533 53.000533-15.9488 76.535467-27.895467 1.544533-0.785067 3.106133-0.6912 2.653866-3.2z m-250.624 76.544c4.266667-6.8352 5.009067-10.461867 3.0976-18.295467-2.3296-9.557333-8.277333-22.954667-17.885866-26.8544-4.462933-1.809067-8.4224-2.056533-11.195734 2.688-3.054933 5.2224-2.756267 10.641067-1.390933 16.273067 2.286933 9.378133 7.6032 20.4544 16.452267 25.088 4.1984 2.2016 6.357333 2.1248 10.914133 1.1008z" fill="#699977" /><path d="M35.5072 634.6752c0.273067 0.418133 2.6624 1.066667 2.133333 3.191467l2.1248-2.1248 0.0768 3.114666c2.432 1.024 7.5008 0.3584 9.326934 2.466134 0.3328 0.384 0.042667 1.4336 0.341333 1.672533 0.247467 0.196267 5.358933 2.048 5.879467 2.158933 2.7136 0.5888 7.790933 1.117867 9.941333-0.384 1.621333-1.134933 2.158933-3.310933 4.7104-2.568533 4.078933 2.688 6.0672 7.739733 9.1392 11.127467 2.858667 3.1488 6.144 4.1216 9.659733 6.3232 10.2912 6.459733 21.7088 14.8224 32.682667 19.524266 8.567467 3.669333 22.673067 7.389867 30.165333 11.9296 14.464 8.763733 35.054933 6.715733 51.720534 8.4992 2.2784 0.247467 4.6336-0.110933 6.903466 0.0256-0.170667 1.902933-2.500267 1.595733-3.242666 2.7904-1.194667 1.911467-1.092267 4.608-1.024 6.792534l-11.101867 0.085333-3.9168 8.328533c-2.2528 0.247467-4.5568 0.059733-6.8352 0.1024-1.288533 0.0256-3.976533-0.7936-3.729067 1.058134 4.778667 0.238933 9.659733-0.298667 14.4384-0.042667 1.902933 0.1024 3.362133 1.092267 5.239467 1.160533 30.779733 1.1008 60.8512-2.722133 91.1872-5.367466l-16.546133 3.1744c-50.065067 4.667733-101.768533 7.227733-149.76-11.136-32.068267-12.270933-55.7568-31.197867-78.865067-55.9104 0.477867-2.5856-2.176-3.157333-3.2-4.258134-3.259733-3.524267-4.898133-6.920533-7.458133-10.6496v-1.066666z m17.058133 18.0992h-2.133333l1.604267 2.1248h0.529066v-2.1248z" fill="#608D6E" /><path d="M163.421867 369.578667c0.7936 3.2-1.493333 3.592533-3.720534 5.333333-21.546667 16.776533-44.194133 31.010133-63.479466 50.542933-12.3648 12.535467-19.9936 23.082667-30.353067 37.7856-1.0496 1.4848-3.652267 3.063467-4.258133 4.266667-1.3312 2.6368-1.954133 4.215467-3.566934 7.082667-6.254933 11.118933-11.741867 23.3216-15.914666 35.208533-4.283733 12.219733-5.8368 24.456533-10.077867 36.7872-0.392533 1.152-0.5888 3.720533-2.397867 2.9184-2.056533-1.339733-1.4848-2.816-1.6128-4.770133-4.855467-71.825067 62.660267-142.404267 123.6736-171.4176l11.707734-3.7376z" fill="#5D8A6A" /><path d="M61.994667 554.658133c-0.213333 0.162133-4.983467 1.425067-5.162667 1.2288-0.8704-3.413333 2.2016-4.181333 3.720533-6.4 4.906667-7.168 8.064-11.229867 14.455467-17.536 12.928-12.765867 27.400533-25.335467 42.632533-36.1728 13.073067-9.2928 26.5728-17.681067 40.507734-25.5744 7.901867-4.48 17.476267-9.480533 26.555733-13.909333 2.0992-1.024 4.462933-2.218667 6.4512-3.140267 17.834667-8.226133 35.703467-14.4128 54.638933-19.950933 1.9968-0.580267 2.2528-1.5616 3.976534 0.776533 0.512 1.749333-2.030933 2.653867-3.191467 3.2-24.251733 11.357867-48.0256 24.388267-71.031467 37.649067-36.8128 21.205333-80.964267 48.2304-112.341333 77.3376-0.904533 0.836267-0.896 2.244267-1.2032 2.4832z" fill="#5C8969" /><path d="M297.736533 534.596267c0.443733 2.500267-1.117867 2.414933-2.653866 3.2-23.534933 11.946667-51.293867 20.206933-76.535467 27.895466-38.4 11.690667-88.209067 25.105067-128.085333 27.502934-5.802667 0.349867-11.818667-0.349867-17.629867-0.0512-0.4096-2.082133 1.544533-3.242667 3.1488-3.771734 3.848533-1.2544 9.198933-1.792 13.184-2.798933 64.827733-16.341333 129.783467-31.3344 194.389333-50.722133l14.1824-1.262934z" fill="#5C8A6A" /><path d="M698.530133 234.359467l-28.270933-3.1744c-32.042667-2.397867-63.991467-0.3328-95.889067 1.066666-2.816 0.119467-4.974933 2.321067-8.0128-1.621333 1.3056-1.186133 2.2784-2.7136 3.925334-3.5328 5.973333-2.961067 25.608533-5.802667 32.8704-6.562133 26.564267-2.7904 53.5808-0.008533 79.7184 4.445866 4.1728 0.708267 8.823467 4.3776 13.550933 4.565334 1.723733 1.3312 2.491733 2.551467 2.116267 4.804266z" fill="#5F8C6D" /><path d="M47.112533 611.140267c-4.5568 1.024-6.715733 1.1008-10.914133-1.1008-8.849067-4.6336-14.165333-15.709867-16.452267-25.088-1.373867-5.632-1.664-11.050667 1.390934-16.273067 2.773333-4.736 6.741333-4.497067 11.195733-2.688 9.608533 3.899733 15.556267 17.297067 17.885867 26.8544 1.911467 7.8336 1.169067 11.460267-3.0976 18.295467z" fill="#A2D88B" /><path d="M604.731733 309.947733l3.8912-4.096c7.048533-4.5824 13.883733-6.766933 21.649067-9.250133 27.793067-8.891733 63.906133-17.783467 93.3376-15.428267 4.181333 0.3328 5.410133 2.594133 1.092267 4.343467-9.207467 3.746133-24.96 4.445867-35.208534 6.357333-23.441067 4.369067-47.095467 10.7008-70.161066 16.162134-4.667733 1.109333-9.6768 3.6864-14.609067 1.911466z" fill="#5F8C6C" /><path d="M751.829333 335.505067c0.128 1.988267 0.290133 3.140267-1.024 4.829866-8.132267 10.478933-13.9776 18.039467-24.6016 26.530134-15.684267 12.526933-34.824533 26.120533-52.9408 34.423466-3.396267 1.5616-9.6 4.189867-13.064533 5.060267-1.928533 0.4864-1.8944 0.5376-3.234133-1.109333 2.858667-3.959467 7.022933-5.802667 10.606933-8.558934 19.652267-15.112533 41.028267-27.4176 60.288-43.050666 5.853867-4.753067 12.7232-12.398933 18.6624-16.494934 1.629867-1.117867 3.242667-1.92 5.2992-1.621333z" fill="#608E6E" /><path d="M5.8368 518.510933l2.013867 0.708267c0.110933 10.308267 4.7872 19.8144 7.6288 29.525333 0.896 3.063467 2.926933 5.2992 1.902933 9.284267l-6.4512-0.477867c-1.851733-2.7648-1.92-5.1968-5.333333-6.536533-1.152-5.6064-0.631467-11.255467-0.964267-16.989867-0.170667-2.875733-1.467733-4.957867-1.152-8.5248 0.290133-3.2256 1.8944-6.442667 1.109333-10.0608l1.237334 3.080534z" fill="#5C876A" /><path d="M20.608 610.619733s132.420267 92.16 377.796267 16.597334c0 0 2.5344 61.397333 8.644266 62.0544 0 0-174.0032 62.651733-286.523733 15.496533-77.661867-36.718933-99.925333-94.1568-99.925333-94.1568z" fill="#5C8969" /><path d="M869.085867 345.088c6.229333 0.554667 11.298133 1.723733 17.3312 3.447467 71.287467 20.343467 124.893867 81.851733 134.016 155.741866 0.853333 6.8864 2.2784 38.178133-1.041067 42.0352-0.136533 0.162133-0.768 0.119467-0.938667 0.657067-0.512 1.621333 0.887467 4.7616-1.194666 4.667733 0.443733-4.599467-1.348267-8.302933 0-12.7744l-4.258134 2.1248 0.017067-33.604266c-0.196267-1.4336-1.066667-1.4336-1.092267-1.527467-0.8448-3.5072-0.5632-6.101333-1.083733-9.028267-17.911467-100.002133-112.366933-160.085333-211.037867-145.348266h-7.458133l2.133333-2.1248-9.591466-2.133334c3.754667 0.196267 7.637333-1.5872 11.2128-2.107733 26.376533-3.848533 46.779733-2.3552 72.994133-0.017067z" fill="#669770" /><path d="M1011.925333 505.856c0.0256 0.093867 0.887467 0.093867 1.092267 1.527467l-0.017067 33.604266 4.258134-2.1248c-1.348267 4.471467 0.443733 8.174933 0 12.7744 2.082133 0.093867 0.682667-3.0464 1.194666-4.667733 0.170667-0.5376 0.7936-0.494933 0.938667-0.657067-0.494933 11.639467-3.362133 24.046933-6.8864 35.1744-5.0176 15.854933-12.808533 30.848-21.896533 44.672-1.544533 0.3328-2.304 1.646933-2.133334 3.191467-31.7696 46.8992-85.922133 77.405867-142.2592 83.089067-14.6688 1.476267-27.2128 0.2816-41.642666-1.092267-2.9696-0.2816-6.528-1.032533-7.970134 2.107733 0.256-2.082133-0.964267-3.191467 1.8688-3.447466l0.341334-1.8176 4.181333 1.015466-0.059733-2.5088 1.1264-2.824533c9.557333-0.896 20.1728 1.604267 30.429866 1.109333 77.329067-3.746133 149.2224-55.586133 170.7776-130.730666 2.833067-9.864533 6.0416-22.673067 6.698667-32.699734 0.759467-11.5968-0.657067-24.029867-0.042667-35.712z" fill="#6B967A" /><path d="M988.475733 629.3504c-0.1792-1.553067 0.5888-2.858667 2.133334-3.191467-0.6656 1.015467-1.467733 2.218667-2.133334 3.191467z" fill="#A6BEB3" /><path d="M684.680533 448.3584c-0.6656-0.426667-1.578667-1.1264-2.193066-1.664-0.4608-3.985067 10.3424-16.3072 12.3648-20.650667 79.479467-101.0688 251.0336-77.730133 293.794133 43.4944l2.0224 0.7168c6.724267 25.096533 10.589867 48.238933 7.381333 74.436267-10.624 86.792533-93.115733 152.2944-179.618133 146.432-3.6864-0.247467-10.257067 1.536-12.2368-2.1504 0.093867-0.341333-0.110933-0.759467 0-1.066667 0.349867-0.9728 0.682667-1.134933 1.066667-3.191466 1.9456-10.410667 4.778667-21.828267 5.376-32.426667 0.7936-14.165333-1.390933-28.433067-1.109334-42.103467 0.059733-2.978133-0.9472-6.7072 1.578667-8.4224 4.898133 2.7136 10.350933-0.375467 15.479467-0.085333v-4.2496l3.0976-0.093867c2.747733-5.205333 0.0256-9.301333-0.9472-14.3104-1.621333-8.413867-2.6368-19.131733-5.5808-27.434666-0.896-2.525867-2.432-4.488533-4.701867-5.947734-8.209067-1.979733-11.537067 2.6624-17.476267 6.792534l-3.182933 4.778666c-1.117867 0.042667-1.578667 0.5632-2.1248-0.674133-0.938667-2.141867-1.621333-1.851733-2.133333-2.517333-2.816-3.618133-4.241067-8.004267-6.391467-11.707734-0.392533-3.549867-0.196267-2.551467 2.133333-3.6864 2.500267-1.211733 3.4304-1.604267 3.2512-4.778666 2.423467 0.503467 6.613333-1.826133 8.251734-3.464534 0.733867-0.725333 1.160533-3.285333 2.9184-4.010666 1.058133-2.030933 0.708267-7.8336-0.8192-9.412267-0.264533-0.273067-1.2288-0.0512-1.6128-0.469333-0.418133-0.452267-0.136533-1.408-0.384-1.6896-0.401067-0.452267-2.3296 0-3.421867-0.3328-7.6288-2.346667-21.725867-7.936-29.201067-11.3152-5.239467-2.372267-2.577067-1.1264-7.057066-1.476267-6.912-0.5376-7.202133-4.113067-11.392-6.7584-0.8704-0.554667-1.954133-0.392533-2.107734-0.512-14.848-10.990933-25.275733-25.924267-42.248533-37.12-7.287467-4.8128-15.453867-8.234667-22.775467-12.919467z m196.923734 29.5936c8.5504-10.862933-4.224-18.244267-12.4928-22.698667-0.8448-0.452267-1.373867-1.7152-2.141867-2.1248-1.1776-0.622933-13.986133-4.5568-15.488-4.753066-8.021333-1.041067-15.675733-0.290133-16.546133 8.9856-0.7168 7.662933 1.408 11.716267 2.1504 18.167466 0.392533 3.396267-0.247467 7.133867 0.0512 10.5984 0.2048 2.3808 1.7664 5.393067 1.1776 8.405334 4.155733 4.488533 6.1696 8.6784 12.6208 5.410133 1.928533-0.981333 4.087467-3.592533 5.3504-4.232533 6.2464-3.191467 7.261867-4.2752 12.859733-8.448 4.923733-3.677867 6.5536-4.155733 10.888533-8.874667 0.298667-0.324267 1.3312-0.110933 1.5872-0.4352z m-74.24 25.608533l9.890133 0.0256 4.8384-5.888c0.494933-1.527467-0.8448-2.747733-0.955733-4.113066-0.503467-5.8112-0.469333-12.433067-1.109334-18.056534-0.298667-2.602667-3.652267-15.684267-4.778666-17.5872-3.080533-5.1712-8.174933-6.203733-13.8752-5.358933-2.056533 0.3072-3.6864 3.054933-6.792534 2.312533l-0.298666 1.723734c-7.278933 4.1728-17.399467 10.530133-21.640534 17.314133-2.935467 4.693333-3.370667 7.057067-0.418133 12.0832 2.3296 3.959467 9.130667 6.929067 13.610667 7.227733l0.7168 2.0224c6.852267 0.213333 13.329067 6.135467 20.608 6.5024l0.213333 1.800534z m97.774933 37.2224c0.392533-0.392533 0.3584-1.570133 1.237333-2.440533 1.3824-1.365333 3.387733-1.1264 4.104534-4.4544 1.066667-4.9664 0.349867-19.080533-1.0752-24.123733-0.6912-2.449067-3.4048-6.0416-3.9168-7.799467-0.674133-2.312533 0.605867-3.413333-1.732267-5.725867-3.9936-3.9424-10.180267-5.213867-15.3344-2.944l-0.315733 1.6896c-9.565867 4.317867-16.1536 11.861333-25.198934 17.476267-1.408 4.1216-6.954667 5.998933-6.519466 10.8032 1.288533 1.220267 1.9712 3.310933 3.063466 4.4544 2.568533 2.688 16.648533 7.3984 21.0432 8.789333 5.077333 1.604267 14.301867 4.590933 19.165867 5.376 1.518933 0.247467 4.4288-0.059733 5.469867-1.1008z m-22.289067 14.1824c-8.712533 0.512-18.9184-7.5264-27.093333-8.6528-4.539733-0.631467-8.9856-0.6912-11.6992 3.217067-2.363733 3.413333-0.802133 3.2256-0.5888 5.853867 0.384 4.650667 1.732267 6.485333 2.158933 9.557333 0.827733 5.905067-0.384 6.570667 1.92 12.987733 1.041067 2.8928 1.570133 6.638933 2.551467 9.1648 0.366933 0.930133 3.925333 7.68 4.2496 7.995734 2.090667 1.988267 9.105067 2.9952 11.904 2.176 7.594667-3.6864 13.192533-8.209067 19.328-13.730134 0.8448-0.759467 4.096-2.833067 4.5312-3.3792 1.373867-1.723733 5.6064-8.465067 6.203733-10.359466 2.286933-7.313067-6.869333-11.648-12.7488-12.782934l-0.725333-2.048z" fill="#EEF6E5" /><path d="M1011.925333 505.856c-0.605867 11.682133 0.802133 24.1152 0.042667 35.712-0.657067 10.0352-3.874133 22.8352-6.698667 32.699733-21.563733 75.144533-93.457067 126.976-170.7776 130.730667-10.248533 0.494933-20.872533-2.005333-30.429866-1.109333-0.375467 0.034133-0.7936-0.085333-1.066667 0-1.885867-2.286933-0.520533-3.925333 0-6.391467 1.544533-1.6128 2.551467-6.2208 3.2-8.516267 1.979733 3.6864 8.5504 1.902933 12.2368 2.1504 86.5024 5.8624 168.994133-59.639467 179.618133-146.432 3.208533-26.205867-0.657067-49.348267-7.381333-74.436266l-2.0224-0.7168c-42.760533-121.216-214.314667-144.5632-293.794133-43.4944-2.0224 4.343467-12.834133 16.6656-12.3648 20.650666 0.622933 0.5376 1.527467 1.237333 2.193066 1.664l-12.4928-5.085866-2.423466-1.826134c6.016-11.127467 13.073067-20.3264 21.358933-29.7984 26.410667-30.173867 67.669333-54.050133 108.680533-60.168533 98.670933-14.737067 193.1264 45.346133 211.037867 145.348267 0.520533 2.926933 0.238933 5.521067 1.083733 9.028266z" fill="#B6E5A1" /><path d="M749.696 498.397867c0.162133 0.119467 1.237333-0.042667 2.107733 0.512 4.189867 2.645333 4.48 6.2208 11.392 6.7584 4.471467 0.349867 1.8176-0.896 7.057067 1.476266 7.4752 3.3792 21.572267 8.968533 29.201067 11.3152 1.092267 0.3328 3.0208-0.119467 3.421866 0.3328 0.247467 0.2816-0.034133 1.237333 0.384 1.6896 0.384 0.418133 1.348267 0.196267 1.6128 0.469334 1.527467 1.578667 1.877333 7.381333 0.8192 9.412266-1.757867 0.725333-2.184533 3.285333-2.9184 4.010667-1.6384 1.6384-5.828267 3.976533-8.251733 3.464533 0.1792 3.1744-0.759467 3.566933-3.2512 4.778667-2.3296 1.134933-2.525867 0.136533-2.133333 3.6864-1.518933-2.619733-4.462933-5.154133-5.333334-8.516267 0.426667 0.170667 1.3824-0.349867 2.005334 0.128l1.194666 2.005334 0.674134-2.184534c1.408-1.041067 5.7344-3.498667 6.596266-4.394666 0.2816-0.290133 2.389333-5.1712 2.3808-5.674667l-2.3552-4.616533c-2.235733 0.341333-3.5328-1.749333-4.795733-2.133334-5.538133-1.655467-11.221333-4.514133-16.913067-5.461333-4.360533-0.725333-5.435733-0.810667-3.703466 3.165867l-19.182934-19.165867v-1.066667z" fill="#E5EFD5" /><path d="M795.537067 558.020267c0.512 0.657067 1.194667 0.375467 2.133333 2.517333 0.546133 1.245867 1.006933 0.7168 2.1248 0.674133l3.182933-4.778666c5.930667-4.138667 9.2672-8.7808 17.476267-6.792534 2.269867 1.467733 3.805867 3.421867 4.701867 5.947734 2.944 8.302933 3.959467 19.0208 5.5808 27.434666 0.964267 5.009067 3.694933 9.105067 0.9472 14.3104l-3.089067 0.093867v4.2496c-5.137067-0.290133-10.589867 2.798933-15.488 0.085333-2.525867 1.7152-1.518933 5.444267-1.578667 8.4224-1.211733-1.041067-1.6128-4.386133-1.902933-6.084266-0.247467-1.416533-0.042667-2.798933-0.264533-3.9936-2.7392-14.600533-8.533333-28.322133-13.824-42.094934z m24.413866 2.2272c-2.858667-0.802133-3.421867-2.653867-6.826666-2.244267-4.4544 0.5376-5.640533 5.7088-10.069334 5.4016 0.477867 2.423467-1.3056 4.7104-1.169066 6.818133 0.213333 3.259733 3.234133 7.236267 4.096 9.8304 0.887467 2.6624 1.570133 10.146133 3.3792 11.588267 3.029333-0.042667 8.098133 1.450667 10.487466-0.8704 0.4352-0.418133 0.0512-1.937067 2.3808-2.466133-0.4608-4.795733 0.4608-10.120533-0.0768-14.813867-0.4864-4.1984-3.131733-8.465067-2.2016-13.2352z" fill="#E4EFD5" /><path d="M768.887467 518.6304c-1.732267-3.985067-0.657067-3.8912 3.703466-3.165867 5.691733 0.9472 11.374933 3.805867 16.913067 5.461334 1.271467 0.375467 2.568533 2.474667 4.795733 2.133333l2.3552 4.616533c0 0.503467-2.0992 5.384533-2.3808 5.674667-0.861867 0.896-5.1968 3.3536-6.596266 4.394667l-0.674134 2.184533-1.194666-2.005333c-0.622933-0.469333-1.578667 0.042667-2.005334-0.128-1.954133-0.759467-11.485867-16.878933-14.9248-19.165867z" fill="#ECF6E2" /><path d="M806.1952 687.914667l0.110933-2.5344 0.9472-0.6656c-0.384 2.056533-0.7168 2.218667-1.066666 3.191466z" fill="#B6E5A1" /><path d="M882.850133 554.965333l0.725334 2.048c5.879467 1.134933 15.035733 5.469867 12.7488 12.782934-0.5888 1.8944-4.829867 8.644267-6.203734 10.359466-0.4352 0.546133-3.6864 2.619733-4.5312 3.3792-6.135467 5.521067-11.733333 10.043733-19.328 13.730134-2.807467 0.8192-9.813333-0.1792-11.904-2.176-0.324267-0.315733-3.8912-7.057067-4.2496-7.995734-0.981333-2.525867-1.5104-6.272-2.551466-9.1648-2.304-6.417067-1.092267-7.082667-1.92-12.987733-0.426667-3.072-1.774933-4.906667-2.158934-9.557333-0.213333-2.628267-1.774933-2.440533 0.5888-5.853867 2.7136-3.9168 7.159467-3.848533 11.6992-3.217067 8.1664 1.134933 18.3808 9.1648 27.093334 8.6528z m-27.989333-2.133333c-4.096 0.64-5.930667 5.060267-4.804267 8.763733 0.2816 0.9216 1.5616 1.5104 1.834667 2.423467 0.5632 1.911467-0.264533 4.1728 0.298667 6.0928 0.375467 1.271467 3.831467 9.019733 4.6592 10.248533 2.824533 4.206933 7.7568 5.563733 12.6464 4.138667 1.3312-0.384 2.542933-2.679467 3.874133-3.584 0.861867-0.5888 2.2272-0.512 3.1744-1.092267 3.959467-2.440533 9.463467-12.586667 4.3008-15.982933-0.8448-0.554667-2.167467-0.503467-3.1744-1.083733-4.360533-2.517333-9.173333-5.6576-13.866667-7.4496-1.1008-0.418133-8.4736-2.56-8.9344-2.4832zM905.1392 540.782933c-1.041067 1.041067-3.9424 1.339733-5.469867 1.1008-4.872533-0.785067-14.097067-3.7632-19.165866-5.376-4.394667-1.390933-18.4832-6.101333-21.0432-8.789333-1.092267-1.143467-1.7664-3.234133-3.063467-4.4544-0.443733-4.804267 5.102933-6.6816 6.519467-10.8032 9.053867-5.614933 15.633067-13.1584 25.198933-17.476267l0.315733-1.6896c5.154133-2.269867 11.3408-0.9984 15.3344 2.944 2.338133 2.304 1.058133 3.413333 1.732267 5.725867 0.512 1.757867 3.2256 5.3504 3.9168 7.799467 1.416533 5.034667 2.141867 19.157333 1.0752 24.123733-0.7168 3.328-2.722133 3.089067-4.104533 4.4544-0.878933 0.8704-0.8448 2.048-1.237334 2.440533z m-5.333333-11.6992c2.875733-2.935467 0.580267-14.1824 0.0512-18.295466l-5.845334-6.9376c-2.176-0.034133-5.1968-0.580267-7.1936 0-1.322667 0.384-2.542933 2.670933-3.874133 3.584-0.878933 0.597333-2.295467 0.4864-3.1744 1.092266-2.944 2.005333-3.285333 4.932267-8.4992 3.754667 0.4096 3.831467-3.268267 5.3248-5.341867 8.0128-0.2816 0.9728 4.266667 5.828267 5.282134 6.340267 1.245867 0.631467 2.568533 0.315733 3.549866 0.708266 3.976533 1.604267 3.8656 1.152 7.637334 1.954134 4.258133 0.904533 9.2928 3.259733 13.7216 1.954133 0.2048-0.059733 3.541333-2.013867 3.694933-2.167467z" fill="#E5EFD5" /><path d="M807.364267 503.560533l-0.213334-1.800533c-7.278933-0.366933-13.7472-6.280533-20.608-6.5024l-0.7168-2.0224c-4.48-0.298667-11.281067-3.268267-13.610666-7.227733-2.952533-5.0176-2.5088-7.389867 0.418133-12.0832 4.241067-6.784 14.3616-13.149867 21.640533-17.314134l0.298667-1.723733c3.106133 0.7424 4.736-2.005333 6.792533-2.312533 5.700267-0.8448 10.794667 0.187733 13.8752 5.358933 1.1264 1.8944 4.48 14.984533 4.778667 17.5872 0.64 5.623467 0.605867 12.2368 1.109333 18.056533 0.119467 1.365333 1.4592 2.5856 0.955734 4.113067l-4.8384 5.888-9.890134-0.0256z m2.304-34.1248c-0.6144-0.5376-0.426667-1.800533-1.988267-2.8672-3.029333-2.065067-9.130667-1.160533-12.501333 0.068267-1.4336 0.520533-7.492267 4.881067-8.661334 6.254933-0.725333 0.853333-3.464533 5.060267-3.4816 5.794134l2.9952 7.901866c7.543467 0.529067 17.604267 12.757333 24.8064 10.589867 1.109333-0.3328 2.056533-2.184533 3.780267-2.0736l-0.904533-16.349867-2.244267-1.169066 0.110933-7.338667c-0.136533-0.9472-1.408-0.375467-1.902933-0.810667zM881.604267 477.952c-0.256 0.324267-1.288533 0.110933-1.5872 0.4352-4.334933 4.727467-5.956267 5.1968-10.888534 8.874667-5.597867 4.181333-6.613333 5.256533-12.859733 8.448-1.262933 0.648533-3.421867 3.259733-5.3504 4.232533-6.4512 3.268267-8.465067-0.9216-12.6208-5.410133 0.5888-3.012267-0.9728-6.024533-1.1776-8.405334-0.290133-3.464533 0.341333-7.202133-0.0512-10.5984-0.7424-6.4512-2.8672-10.504533-2.1504-18.167466 0.8704-9.275733 8.5248-10.0352 16.546133-8.9856 1.501867 0.196267 14.318933 4.130133 15.488 4.753066 0.759467 0.401067 1.297067 1.672533 2.141867 2.1248 8.2688 4.445867 21.0432 11.835733 12.4928 22.698667z m-10.538667-11.3408c-0.1792-0.238933-1.681067-0.426667-2.5344-1.169067-1.1008-0.964267-2.730667-3.336533-3.677867-3.805866-1.646933-0.810667-3.191467-0.2304-4.6592-0.6656-0.896-0.264533-1.4848-1.4592-2.500266-1.7664-1.450667-0.443733-4.8896-1.3568-6.1952-1.3568-0.802133 0-5.376 1.109333-5.700267 1.365333-0.264533 0.213333-0.1024 2.0736-2.346667 2.5088 0.5888 9.762133-1.262933 19.831467 1.595734 29.277867 1.28 1.9456 6.4512 1.621333 8.413866 0.827733s3.310933-3.694933 4.983467-4.625067c1.041067-0.580267 2.525867-0.298667 3.0208-0.682666 0.264533-0.196267 0.443733-1.672533 1.1776-2.517334 1.493333-1.7152 8.302933-7.005867 8.456533-7.552 0.571733-2.065067 1.194667-8.226133-0.034133-9.838933z" fill="#E4EFD5" /><path d="M819.950933 560.247467c-0.930133 4.770133 1.723733 9.0368 2.2016 13.2352 0.5376 4.693333-0.375467 10.026667 0.0768 14.813866-2.338133 0.5376-1.954133 2.048-2.3808 2.466134-2.3808 2.312533-7.458133 0.827733-10.487466 0.8704-1.809067-1.4336-2.491733-8.917333-3.3792-11.588267-0.8704-2.594133-3.882667-6.5792-4.096-9.8304-0.136533-2.107733 1.646933-4.386133 1.169066-6.818133 4.437333 0.3072 5.614933-4.855467 10.069334-5.4016 3.4048-0.4096 3.968 1.442133 6.826666 2.244266z" fill="#EDF7E4" /><path d="M854.8608 552.832c0.4608-0.068267 7.8336 2.065067 8.9344 2.4832 4.6848 1.783467 9.506133 4.932267 13.866667 7.4496 1.006933 0.580267 2.338133 0.529067 3.1744 1.083733 5.162667 3.396267-0.349867 13.5424-4.3008 15.982934-0.9472 0.580267-2.304 0.503467-3.1744 1.092266-1.3312 0.904533-2.551467 3.191467-3.874134 3.584-4.8896 1.416533-9.821867 0.068267-12.6464-4.138666-0.827733-1.2288-4.283733-8.977067-4.6592-10.248534-0.5632-1.911467 0.264533-4.181333-0.298666-6.0928-0.273067-0.913067-1.553067-1.501867-1.834667-2.423466-1.1264-3.703467 0.708267-8.123733 4.804267-8.763734z" fill="#EEF6E5" /><path d="M899.805867 529.083733c-0.1536 0.1536-3.490133 2.107733-3.694934 2.167467-4.4288 1.3056-9.463467-1.0496-13.7216-1.954133-3.771733-0.802133-3.6608-0.349867-7.637333-1.954134-0.981333-0.401067-2.304-0.0768-3.549867-0.708266-1.015467-0.512-5.563733-5.376-5.282133-6.340267 2.0736-2.688 5.751467-4.181333 5.341867-8.0128 5.213867 1.186133 5.5552-1.749333 8.4992-3.754667 0.878933-0.597333 2.295467-0.4864 3.1744-1.092266 1.3312-0.904533 2.551467-3.2 3.874133-3.584 1.9968-0.580267 5.0176-0.042667 7.1936 0l5.845333 6.9376c0.5376 4.113067 2.824533 15.36-0.0512 18.295466z" fill="#EDF6E5" /><path d="M809.668267 469.435733c0.494933 0.4352 1.7664-0.136533 1.902933 0.810667l-0.110933 7.338667 2.244266 1.169066 0.904534 16.349867c-1.723733-0.110933-2.670933 1.7408-3.780267 2.0736-7.202133 2.167467-17.262933-10.052267-24.8064-10.589867l-2.9952-7.901866c0.017067-0.733867 2.756267-4.9408 3.4816-5.794134 1.169067-1.373867 7.2192-5.7344 8.661333-6.254933 3.370667-1.2288 9.472-2.1248 12.501334-0.068267 1.5616 1.066667 1.373867 2.3296 1.988266 2.8672zM871.0656 466.6112c1.237333 1.621333 0.6144 7.7824 0.034133 9.838933-0.1536 0.546133-6.9632 5.8368-8.456533 7.552-0.733867 0.8448-0.913067 2.321067-1.1776 2.517334-0.494933 0.375467-1.979733 0.1024-3.0208 0.682666-1.672533 0.930133-2.952533 3.797333-4.983467 4.625067s-7.133867 1.1264-8.413866-0.827733c-2.850133-9.4464-0.9984-19.515733-1.595734-29.277867 2.244267-0.443733 2.082133-2.295467 2.346667-2.5088 0.324267-0.264533 4.8896-1.365333 5.700267-1.365333 1.3056 0 4.744533 0.913067 6.1952 1.3568 1.015467 0.3072 1.595733 1.501867 2.500266 1.7664 1.476267 0.4352 3.012267-0.145067 4.6592 0.6656 0.9472 0.469333 2.577067 2.8416 3.677867 3.805866 0.853333 0.7424 2.346667 0.930133 2.5344 1.169067z" fill="#EEF6E5" /><path d="M749.696 499.464533l19.182933 19.165867c3.438933 2.286933 12.970667 18.4064 14.9248 19.165867 0.8704 3.362133 3.8144 5.905067 5.333334 8.516266 2.1504 3.712 3.584 8.0896 6.391466 11.707734 5.282133 13.7728 11.0848 27.4944 13.824 42.094933 0.221867 1.194667 0.017067 2.577067 0.264534 3.9936 0.298667 1.698133 0.699733 5.034667 1.902933 6.084267-0.2816 13.6704 1.911467 27.9296 1.109333 42.103466-0.597333 10.5984-3.4304 22.016-5.376 32.426667l-0.9472 0.6656-0.110933 2.5344c-0.110933 0.3072 0.093867 0.725333 0 1.066667-0.648533 2.304-1.646933 6.903467-3.2 8.516266-0.264533 0.2816-1.237333 0.349867-1.629867 0.989867-1.194667 1.92-0.853333 5.256533 1.109334 6.459733 0.324267 0.042667 0.426667-1.032533 0.529066-1.058133 0.273067-0.085333 0.6912 0.034133 1.066667 0l-1.1264 2.824533 0.059733 2.5088-4.181333-1.015466-0.341333 1.8176c-2.8416 0.256-1.621333 1.365333-1.8688 3.447466-0.853333 7.048533-14.0288 28.288-18.705067 35.089067-55.185067 80.2816-166.306133 109.013333-253.141333 61.243733-0.802133-0.4352-0.9216-1.5104-1.041067-1.578666-1.2544-1.962667-1.902933-2.8672 1.143467-1.595734 1.962667 0.8192 7.441067 1.220267 9.8304 1.8176 21.6576 5.410133 39.432533 6.306133 62.071466 4.061867 14.9248-1.476267 30.1056-3.8144 44.5184-8.772267 25.207467-8.669867 51.328-23.697067 71.074134-40.8064 6.673067-5.777067 12.552533-11.613867 18.218666-18.030933 1.5104-1.7152 0.290133-3.336533 4.130134-2.747733 1.169067-5.358933 6.946133-10.299733 10.1632-14.882134 23.483733-33.4848 38.161067-72.593067 40.064-114.363733 1.2288-27.0336-6.8608-61.7984-18.7136-85.742933-0.7936-1.604267-4.386133-5.973333-4.616534-7.099734-1.0496-5.0944-0.810667-3.1488-4.48-7.2704-2.6624-2.978133-2.824533-5.060267-4.778666-7.978666-1.143467-1.706667-3.438933-3.140267-4.770134-4.821334l2.133334-0.529066z" fill="#5D8968" /><path d="M751.829333 550.570667c0.2304 0.290133 1.2544 0.443733 1.9968 1.706666 1.664 2.8416 0.887467 6.852267 3.968 8.891734 3.1232-1.578667 4.795733-0.7936 7.893334 0.0512l-1.058134-7.4496 3.191467 4.258133c41.8816 141.7984-100.736 282.897067-243.072 239.0528-47.965867-14.779733-99.268267-61.653333-108.6976-112.349867-0.418133-2.269867-0.5632-5.085867-1.066667-7.4496l8.516267 2.1248c1.937067-4.736 0.392533-8.8576 0-13.832533l6.621867 22.664533c8.900267 25.514667 23.441067 46.6176 42.922666 64.657067 5.9392 5.504 12.0832 9.105067 18.688 14.336 84.616533 52.804267 192.008533 16.1024 242.474667-63.351467 0.571733-0.896 0.546133-2.176 1.1264-3.131733 1.92-3.114667 4.701867-5.546667 4.9664-9.480533l1.698133-0.3072c16.6656-34.304 23.68-71.1424 18.312534-108.9536l-8.507734-31.428267z" fill="#B7E5A2" /><path d="M767.8208 558.020267l-3.191467-4.258134 1.058134 7.4496c-3.0976-0.8448-4.770133-1.629867-7.893334-0.0512-3.080533-2.039467-2.295467-6.050133-3.968-8.891733-0.7424-1.262933-1.7664-1.416533-1.9968-1.706667-3.131733-3.968-2.935467-6.647467-4.778666-10.658133-13.661867-29.6704-40.7552-58.129067-71.816534-70.468267l-0.8192-1.928533c-115.293867-51.643733-245.6832 36.266667-253.073066 159.138133-0.7936 13.141333 1.186133 26.026667 2.176 38.903467 0.384 4.983467 1.928533 9.096533 0 13.832533l-8.516267-2.1248c0.503467 2.372267 0.64 5.188267 1.066667 7.4496l-5.307734-20.778666c-13.661867-92.3136 44.6976-182.203733 131.848534-213.2224 85.444267-30.404267 183.799467 4.573867 219.374933 90.248533 2.235733 5.393067 4.514133 11.374933 5.845333 17.058133z" fill="#B3E49E" /><path d="M802.9952 703.880533c-0.093867 0.034133-0.196267 1.1008-0.529067 1.058134-1.954133-1.2032-2.304-4.5312-1.109333-6.459734 0.401067-0.64 1.365333-0.708267 1.629867-0.989866-0.520533 2.4576-1.885867 4.104533 0 6.391466z" fill="#6B967A" /><path d="M423.517867 665.557333c-0.989867-12.8768-2.9696-25.762133-2.176-38.903466 7.389867-122.862933 137.7792-210.781867 253.073066-159.138134l0.8192 1.928534c31.061333 12.3392 58.154667 40.797867 71.816534 70.468266 1.851733 4.0192 1.655467 6.690133 4.778666 10.658134l8.507734 31.428266c5.358933 37.8112-1.646933 74.6496-18.312534 108.9536l-1.698133 0.3072c-0.264533 3.933867-3.037867 6.357333-4.9664 9.480534-0.5888 0.955733-0.5632 2.235733-1.1264 3.131733-50.466133 79.453867-157.858133 116.1472-242.474667 63.351467-6.6048-5.230933-12.7488-8.832-18.688-14.336-19.4816-18.048-34.0224-39.1424-42.922666-64.657067l-6.621867-22.664533z m166.1952-123.3664c-1.4336-1.8176-13.448533 1.9968-16.324267 1.954134l-1.220267 2.2272c-4.932267-0.887467-12.603733 3.473067-16.247466 6.613333-1.646933 1.425067-0.418133 0.776533-3.4048 2.363733-1.646933 0.8704-2.645333 3.882667-5.248 3.831467l-0.247467 4.0704-2.039467 0.682667v7.338666c2.4832 0.580267 2.0992 2.269867 3.234134 3.242667 2.6624 2.286933 6.690133 4.1216 9.3952 6.135467 0.324267 0.238933 0.110933 1.3568 0.4352 1.5872 4.9152 3.498667 11.52 5.794133 14.634666 9.3696 3.464533 3.985067 10.538667 5.410133 15.377067 3.5328 1.0752-0.418133 4.497067-5.623467 4.778667-6.9376 1.5616-7.278933 0.836267-14.839467 1.194666-22.229334 0.085333-1.706667 1.006933-2.978133 1.092267-4.232533 0.247467-3.6864 0.0512-14.3616-2.6112-16.5376-0.802133-0.657067-2.0736-0.802133-2.4832-1.288533-0.384-0.443733-0.068267-1.416533-0.3072-1.7152z m51.0464 10.786134c-0.418133-0.4864-10.3168-6.596267-10.9568-6.690134-3.0976-0.452267-12.433067-0.733867-13.9008 2.133334-0.3328 3.9936-3.106133 7.458133-3.694934 11.2128-1.373867 8.704-1.536 18.7392-2.167466 27.648-0.0768 1.109333-0.981333 2.158933-1.083734 3.259733-0.273067 3.140267 2.9952 7.953067 6.050134 8.8576 2.005333 0.5888 4.992 0.1024 7.150933 0 6.340267-3.669333 12.868267-7.2704 19.549867-10.2912 3.541333-1.595733 7.236267-3.208533 10.692266-5.290667 2.056533-1.237333 3.182933-3.182933 5.5296-3.5328 0.264533-4.923733 1.851733-6.8096-0.477866-11.562666-1.3568-2.773333-9.028267-10.939733-11.630934-12.868267-2.56-1.8944-2.4576 0.170667-5.060266-2.8672z m-125.738667 78.6176c-0.0768 5.9136 3.7376 7.970133 8.311467 10.402133 4.4032-0.341333 10.171733-2.5344 14.190933-4.718933 5.674667-3.072 5.3248-3.959467 12.168533-5.947734 1.134933-0.3328 12.270933-7.543467 14.5152-8.917333 4.608-2.833067 5.358933-7.4496 2.167467-11.716267-4.471467-5.981867-14.020267-10.112-20.224-13.866666-2.747733-1.664-10.043733-7.6288-12.288-7.953067-2.824533-0.4096-6.528 0.196267-9.480533 0.1536-1.408 0.401067-4.343467 5.0176-5.137067 6.5792-4.232533 8.32-4.1472 16.768-5.1456 25.736533-0.324267 2.884267-1.834667 6.1184-1.109333 9.540267l2.0224 0.699733z m151.3472-30.7968c-3.259733-3.165867-14.788267-0.3584-18.696533 1.706666-2.5856 1.365333-3.524267 3.985067-7.031467 3.626667-4.923733 4.053333-22.9888 10.402133-24.064 16.503467l2.141867 8.7296c4.386133-0.1536 8.362667 6.493867 11.579733 8.123733 1.348267 0.682667 2.909867 0.341333 4.2752 1.058133 6.408533 3.3792 9.198933 5.998933 16.375467 8.132267 0.9728 0.290133 1.518933 1.553067 2.423466 1.8432 3.2512 1.0496 3.771733-1.3824 5.3504-1.8432 1.467733-0.4352 3.003733 0.1536 4.667734-0.6656 3.0208-1.476267 2.551467-4.266667 3.370666-6.212267 0.426667-0.9984 1.399467-1.5872 1.723734-2.5344 2.824533-8.251733 3.9424-26.282667 0.4352-34.090666-0.256-0.571733-2.372267-4.189867-2.551467-4.369067zM572.654933 693.137067c-1.339733-4.002133 1.92-6.673067 2.2528-8.9344 1.2032-8.132267 1.8688-19.712 1.058134-27.7248-0.443733-4.4288 1.143467-8.3968-3.242667-11.665067-3.5072-2.619733-9.941333-1.408-13.892267-0.0768-2.500267 0.8448-6.9632 5.12-9.1648 5.751467-6.6816 1.911467-6.596267 1.416533-11.144533 6.391466-0.384 0.426667-2.688-0.1024-4.181333 0.657067-0.221867 0.110933-3.84 2.7392-4.010667 2.909867-0.4608 0.4608-3.370667 5.060267-3.447467 5.6064-0.170667 1.220267-0.1536 7.637333 0.136534 7.901866 0.375467 0.349867 1.902933 0.145067 2.594133 1.109334 0.605867 0.853333 0.426667 2.321067 1.041067 3.242666 2.944 4.420267 11.528533 11.170133 16.3584 13.0048l0.2816 1.732267c2.952533-0.605867 4.258133 1.527467 5.9648 2.082133 3.396267 1.109333 6.903467 1.621333 10.410666 2.4064l8.994134-4.4032z m34.107734-46.592l-8.328534-0.017067c0.3072 2.397867-1.706667 1.877333-2.773333 3.0208s-2.449067 7.261867-2.6368 9.105067c-0.7424 7.3984-0.9216 24.686933 0 31.8976 0.136533 1.1008 1.024 3.8912 1.578667 4.804266 1.186133 1.962667 3.694933 1.5872 4.3264 4.309334 3.4048-0.571733 8.4224 0.699733 11.511466-0.2048 0.836267-0.247467 1.493333-1.373867 2.500267-1.757867 9.787733-3.771733 17.92-7.714133 25.9584-14.574933 0.580267-0.494933 1.698133-0.392533 1.954133-0.6656 0.392533-0.418133-0.0768-2.321067 0.273067-3.4304s1.757867-1.604267 2.013867-3.3536c0.605867-4.1472-5.418667-10.274133-8.593067-12.7744-7.057067-5.546667-18.978133-12.7488-27.588267-14.549334l-0.196266-1.8176z" fill="#EEF6E5" /><path d="M515.0208 631.594667l-2.0224-0.699734c-0.733867-3.421867 0.785067-6.664533 1.109333-9.540266 0.9984-8.968533 0.913067-17.416533 5.1456-25.736534 0.7936-1.5616 3.729067-6.178133 5.137067-6.5792 2.952533 0.042667 6.664533-0.5632 9.480533-0.1536 2.244267 0.324267 9.540267 6.2976 12.288 7.953067 6.203733 3.754667 15.752533 7.8848 20.224 13.866667 3.191467 4.266667 2.440533 8.891733-2.167466 11.716266-2.2528 1.3824-13.380267 8.593067-14.5152 8.917334-6.843733 1.988267-6.493867 2.875733-12.168534 5.947733-4.0192 2.176-9.787733 4.3776-14.190933 4.718933-4.565333-2.440533-8.379733-4.488533-8.311467-10.402133z m35.2512-25.5232c-0.4096-0.503467-3.208533 0.128-4.573867-0.273067-1.134933-0.324267-1.800533-1.8944-2.816-2.5088-3.677867-2.235733-6.741333-3.345067-11.195733-2.7136-1.4848 0.213333-5.2736 3.601067-5.6832 4.9664-1.237333 4.096-1.732267 12.629333-1.194667 16.8704 0.469333 3.7376 2.338133 6.673067 6.007467 7.850667 2.295467-1.186133 5.111467-0.4864 7.150933-1.066667 0.827733-0.2304 1.4848-1.373867 2.500267-1.757867 4.9152-1.8944 19.4816-6.459733 17.245867-13.3888-0.068267-0.2048-2.082133-3.490133-2.2272-3.643733-0.802133-0.785067-4.215467-1.8432-4.8896-2.628267-0.384-0.443733-0.068267-1.416533-0.3072-1.706666z" fill="#E5EFD6" /><path d="M572.654933 693.137067l-8.994133 4.4032c-3.498667-0.776533-7.005867-1.288533-10.410667-2.4064-1.706667-0.554667-3.012267-2.688-5.9648-2.082134l-0.2816-1.732266c-4.829867-1.8432-13.405867-8.584533-16.3584-13.0048-0.6144-0.9216-0.4352-2.389333-1.041066-3.242667-0.6912-0.9728-2.218667-0.768-2.594134-1.109333-0.290133-0.273067-0.3072-6.690133-0.136533-7.901867 0.0768-0.546133 2.986667-5.1456 3.447467-5.6064 0.1792-0.1792 3.7888-2.798933 4.010666-2.909867 1.493333-0.759467 3.797333-0.2304 4.181334-0.657066 4.548267-4.974933 4.462933-4.48 11.144533-6.391467 2.2016-0.631467 6.664533-4.906667 9.1648-5.751467 3.950933-1.322667 10.385067-2.5344 13.892267 0.0768 4.386133 3.268267 2.798933 7.236267 3.242666 11.665067 0.802133 8.0128 0.145067 19.601067-1.058133 27.7248-0.3328 2.2528-3.592533 4.923733-2.2528 8.9344z m-4.232533-42.4192c-3.114667-1.501867-5.111467-0.546133-8.1408 0.785066-4.932267 2.167467-12.253867 6.408533-15.7952 9.745067-11.1616 10.513067-4.104533 12.782933 4.7872 20.8384l5.8368 0.443733 1.1776 2.244267c7.159467 0.989867 9.378133-1.7152 10.9312-8.2432 1.245867-5.213867 2.816-14.830933 2.312533-20.002133-0.170667-1.749333-1.527467-3.6608-1.109333-5.8112z" fill="#E4EFD5" /><path d="M606.762667 646.545067l0.196266 1.8176c8.610133 1.800533 20.539733 9.002667 27.588267 14.549333 3.1744 2.491733 9.198933 8.6272 8.593067 12.7744-0.256 1.749333-1.655467 2.2272-2.013867 3.3536s0.119467 3.003733-0.273067 3.4304c-0.256 0.273067-1.373867 0.170667-1.954133 0.6656-8.046933 6.8608-16.170667 10.8032-25.9584 14.574933-1.006933 0.392533-1.672533 1.5104-2.500267 1.757867-3.089067 0.913067-8.106667-0.366933-11.511466 0.2048-0.631467-2.722133-3.140267-2.346667-4.3264-4.309333-0.554667-0.913067-1.442133-3.703467-1.578667-4.804267-0.913067-7.210667-0.733867-24.4992 0-31.8976 0.187733-1.8432 1.570133-7.9616 2.6368-9.105067s3.072-0.622933 2.773333-3.0208l8.328534 0.017067z m3.413333 10.368c-0.3072-0.290133-0.2048-1.698133-1.143467-2.56-3.566933-3.2768-7.9616 0.068267-8.567466 4.2752-0.622933 4.3264-0.597333 17.988267 0 22.357333 0.4352 3.2 3.438933 5.7856 5.819733 7.7312 3.234133-0.955733 6.0672-0.938667 9.3952-2.107733 2.193067-0.768 7.296-3.336533 9.275733-4.573867 2.295467-1.4336 3.473067-4.5312 5.248-6.519467 0.298667-1.348267-2.935467-7.3216-4.1472-8.379733-1.152-0.9984-3.4816-1.169067-4.078933-1.792-1.399467-1.467733-6.3232-6.980267-7.5776-7.842133-1.365333-0.938667-3.703467-0.093867-4.224-0.597334z" fill="#E5EFD5" /><path d="M589.713067 542.190933c0.238933 0.298667-0.0768 1.262933 0.3072 1.7152 0.4096 0.4864 1.6896 0.631467 2.4832 1.288534 2.6624 2.176 2.858667 12.8512 2.6112 16.5376-0.085333 1.262933-1.006933 2.525867-1.092267 4.232533-0.349867 7.3984 0.375467 14.958933-1.194667 22.229333-0.2816 1.314133-3.703467 6.519467-4.778666 6.9376-4.829867 1.885867-11.904 0.452267-15.377067-3.5328-3.114667-3.575467-9.719467-5.8624-14.634667-9.3696-0.324267-0.2304-0.110933-1.339733-0.4352-1.5872-2.705067-2.013867-6.7328-3.848533-9.3952-6.135466-1.134933-0.9728-0.750933-2.6624-3.234133-3.242667v-7.338667l2.030933-0.682666 0.247467-4.0704c2.594133 0.0512 3.601067-2.961067 5.248-3.831467 2.986667-1.5872 1.757867-0.938667 3.4048-2.363733 3.643733-3.140267 11.306667-7.5008 16.247467-6.613334l1.220266-2.2272c2.875733 0.042667 14.890667-3.7632 16.324267-1.954133z m-8.5248 10.6496c-2.952533-1.416533-4.394667 1.373867-5.930667 1.826134-1.262933 0.375467-2.670933-0.042667-3.9424 0.324266-0.4096 0.119467-6.621867 3.677867-7.4752 4.241067-6.0672 4.0448-7.330133 8.362667-2.833067 14.250667 4.608 6.033067 12.996267 9.079467 16.861867 13.568 0.426667 0.494933-0.145067 1.774933 0.802133 1.902933l4.6336-0.1536c0.017067-2.312533 2.389333-3.106133 3.114667-4.872533 3.114667-7.517867 0.861867-21.188267-0.938667-29.047467l-4.1216-0.2048-0.187733-1.834667z" fill="#E5EFD7" /><path d="M666.368 600.797867c0.1792 0.1792 2.295467 3.797333 2.551467 4.369066 3.5072 7.808 2.389333 25.838933-0.4352 34.090667-0.324267 0.9472-1.3056 1.527467-1.723734 2.5344-0.8192 1.9456-0.349867 4.736-3.370666 6.212267-1.655467 0.810667-3.2 0.2304-4.667734 0.6656-1.578667 0.469333-2.0992 2.901333-5.3504 1.8432-0.904533-0.290133-1.450667-1.5616-2.423466-1.8432-7.176533-2.1248-9.966933-4.753067-16.375467-8.132267-1.3568-0.7168-2.9184-0.375467-4.2752-1.058133-3.217067-1.629867-7.202133-8.277333-11.579733-8.123734l-2.141867-8.7296c1.0752-6.101333 19.140267-12.450133 24.064-16.503466 3.5072 0.366933 4.4544-2.261333 7.031467-3.626667 3.908267-2.065067 15.4368-4.864 18.696533-1.706667z m-8.439467 9.489066c-0.264533-0.290133-5.597867-0.221867-6.801066-0.0768-5.521067 0.682667-17.979733 6.161067-21.358934 9.506134-2.0224 2.005333-4.590933 3.626667-3.584 6.8352 0.1024 0.315733 2.824533 4.266667 3.0464 4.420266 1.937067 1.314133 11.127467 5.751467 13.550934 6.690134 1.732267 0.6656 9.019733 2.619733 10.308266 2.210133 0.324267-0.1024 4.283733-2.824533 4.437334-3.0464 0.529067-0.776533 3.601067-7.2192 3.703466-8.0128 0.3072-2.269867 0.4096-11.904-0.128-13.713067-0.443733-1.467733-3.310933-2.551467-3.165866-4.821333z" fill="#E4EFD5" /><path d="M640.759467 552.977067c2.602667 3.037867 2.500267 0.981333 5.060266 2.8672 2.6112 1.928533 10.274133 10.0864 11.630934 12.868266 2.3296 4.753067 0.7424 6.638933 0.477866 11.562667-2.346667 0.341333-3.473067 2.286933-5.5296 3.5328-3.456 2.082133-7.150933 3.694933-10.692266 5.290667-6.6816 3.0208-13.201067 6.621867-19.549867 10.2912-2.158933 0.1024-5.1456 0.5888-7.150933 0-3.054933-0.896-6.331733-5.7088-6.050134-8.8576 0.093867-1.1008 0.9984-2.1504 1.083734-3.259734 0.631467-8.900267 0.7936-18.944 2.167466-27.648 0.5888-3.754667 3.362133-7.2192 3.694934-11.2128 1.4592-2.8672 10.8032-2.5856 13.9008-2.133333 0.631467 0.093867 10.538667 6.203733 10.9568 6.690133z m0.4352 27.690666c1.672533-1.4592 4.667733-1.8944 5.128533-5.051733 0.554667-3.797333-0.4096-6.1696-2.7392-9.028267-1.288533-1.578667-10.350933-9.053867-11.8272-9.480533-1.732267-0.494933-6.3232-0.4352-7.867733 0.349867-0.571733 0.290133-3.9424 3.831467-4.104534 4.420266-0.375467 1.3312 0.1024 2.8416-0.162133 4.096-0.768 3.6608-1.4592 9.941333-2.2528 12.654934-0.298667 1.015467-1.732267 1.518933-2.005333 3.310933-0.776533 5.0688 2.4832 10.8288 7.816533 9.9584 1.706667-0.273067 6.9376-2.986667 8.618667-4.0192 0.9216-0.571733 3.524267-3.438933 6.016-4.821333 2.833067-1.578667 1.7408-0.9728 3.370666-2.397867z" fill="#E5F0D6" /><path d="M550.272 606.071467c0.238933 0.290133-0.0768 1.262933 0.3072 1.706666 0.682667 0.785067 4.096 1.8432 4.8896 2.628267 0.1536 0.1536 2.167467 3.438933 2.2272 3.643733 2.235733 6.929067-12.330667 11.4944-17.245867 13.3888-1.015467 0.392533-1.681067 1.527467-2.500266 1.757867-2.030933 0.580267-4.855467-0.119467-7.150934 1.066667-3.669333-1.186133-5.5296-4.113067-6.007466-7.850667-0.5376-4.241067-0.042667-12.7744 1.194666-16.8704 0.4096-1.3568 4.1984-4.753067 5.6832-4.9664 4.4544-0.64 7.517867 0.469333 11.195734 2.7136 1.015467 0.6144 1.681067 2.184533 2.816 2.5088 1.365333 0.392533 4.155733-0.238933 4.573866 0.273067zM568.4224 650.717867c-0.418133 2.141867 0.9472 4.061867 1.109333 5.8112 0.503467 5.1712-1.066667 14.788267-2.312533 20.002133-1.5616 6.536533-3.780267 9.233067-10.9312 8.2432l-1.1776-2.244267-5.8368-0.443733c-8.891733-8.046933-15.9488-10.325333-4.7872-20.8384 3.541333-3.336533 10.862933-7.5776 15.7952-9.745067 3.0208-1.3312 5.0176-2.2784 8.1408-0.785066zM610.176 656.913067c0.520533 0.503467 2.8672-0.341333 4.224 0.597333 1.2544 0.861867 6.178133 6.3744 7.5776 7.842133 0.597333 0.622933 2.926933 0.7936 4.078933 1.792 1.220267 1.058133 4.445867 7.031467 4.1472 8.379734-1.774933 1.979733-2.952533 5.085867-5.248 6.519466-1.979733 1.237333-7.082667 3.805867-9.275733 4.573867-3.328 1.169067-6.161067 1.143467-9.3952 2.107733-2.3808-1.9456-5.384533-4.522667-5.819733-7.7312-0.597333-4.360533-0.622933-18.030933 0-22.357333 0.605867-4.206933 5.000533-7.560533 8.567466-4.2752 0.938667 0.861867 0.836267 2.261333 1.143467 2.56zM581.188267 552.840533l0.187733 1.834667 4.1216 0.2048c1.792 7.8592 4.053333 21.521067 0.938667 29.047467-0.733867 1.7664-3.0976 2.56-3.114667 4.872533l-4.6336 0.1536c-0.9472-0.136533-0.384-1.416533-0.802133-1.902933-3.874133-4.488533-12.253867-7.534933-16.861867-13.568-4.497067-5.879467-3.234133-10.197333 2.833067-14.250667 0.853333-0.571733 7.0656-4.130133 7.4752-4.241067 1.262933-0.3584 2.679467 0.0512 3.9424-0.324266 1.536-0.452267 2.978133-3.242667 5.930666-1.826134zM657.928533 610.286933c-0.145067 2.269867 2.722133 3.3536 3.165867 4.821334 0.5376 1.800533 0.443733 11.4432 0.128 13.713066-0.110933 0.7936-3.1744 7.236267-3.703467 8.0128-0.1536 0.221867-4.113067 2.944-4.437333 3.0464-1.288533 0.401067-8.576-1.544533-10.308267-2.210133-2.423467-0.938667-11.613867-5.376-13.550933-6.690133-0.221867-0.1536-2.944-4.096-3.0464-4.420267-1.006933-3.208533 1.5616-4.829867 3.584-6.8352 3.387733-3.3536 15.8464-8.823467 21.358933-9.506133 1.211733-0.1536 6.536533-0.213333 6.801067 0.0768z" fill="#EEF6E5" /><path d="M641.194667 580.667733c-1.629867 1.425067-0.5376 0.8192-3.370667 2.397867-2.491733 1.3824-5.0944 4.258133-6.016 4.821333-1.681067 1.032533-6.912 3.746133-8.618667 4.0192-5.333333 0.8704-8.593067-4.8896-7.816533-9.9584 0.273067-1.792 1.7152-2.304 2.005333-3.310933 0.7936-2.722133 1.4848-8.994133 2.2528-12.654933 0.264533-1.2544-0.213333-2.7648 0.162134-4.096 0.162133-0.5888 3.5328-4.130133 4.104533-4.420267 1.553067-0.785067 6.135467-0.853333 7.867733-0.349867 1.4848 0.426667 10.5472 7.893333 11.8272 9.480534 2.321067 2.858667 3.293867 5.230933 2.7392 9.028266-0.4608 3.157333-3.456 3.592533-5.128533 5.051734z" fill="#EDF6E5" /></svg>