<?xml version="1.0" standalone="no"?><!DOCTYPE svg PUBLIC "-//W3C//DTD SVG 1.1//EN" "http://www.w3.org/Graphics/SVG/1.1/DTD/svg11.dtd"><svg class="icon" width="256px" height="221.97px" viewBox="0 0 1181 1024" version="1.1" xmlns="http://www.w3.org/2000/svg"><path d="M656.089035 11.656714v3.836721C595.30161 2.448585 573.540519 10.97791 518.114665 32.906243c-18.426096 7.289769-40.895505 14.08765-58.839551 21.731578C358.093909 97.78617 253.912192 140.157336 149.681286 182.420288c-23.413833 9.493424-46.778476 18.386745-70.516954 25.401057-4.968061 1.465824-9.15894 9.532775-13.999111 12.857932-3.551426 2.449598-9.050725 1.888847-13.615439 5.568163-1.367447 1.101827-12.356207 15.996173-13.094038 17.609564-2.823433 6.178104 2.203655 5.046763 4.909035 6.256805 10.585413 4.761468 20.747804 7.427497 30.654412 11.657728C246.37648 335.377543 418.291069 409.259006 590.85495 483.48479l7.693116 13.271118-0.029513 516.12744c7.584901-0.442699 15.474772 0.619778 23.03016 0-5.292707 4.240068-19.606625 10.014824-25.755215 10.998599-13.369495 2.134791-75.996578-29.05086-93.13393-35.98647-59.695435-24.161501-137.984208-49.788826-191.904887-82.420626-12.907121-7.811169-12.749717-7.447173-26.857043-11.510161-58.691985-16.88157-134.088461-52.897554-191.904887-78.574067-12.208641-5.420597-85.480164-38.249152-88.342948-42.725326L0 234.1865c15.071425 3.09889 24.810792-7.742305 35.602798-12.375882C167.930303 165.017317 304.753657 114.333256 437.445158 59.664909c33.999246-14.008949 92.887986-47.978681 125.264004-55.061858 8.745755-1.91836 48.431217-5.518975 56.872002-4.387634 9.454073 1.269069 25.971646 8.204679 36.507871 11.441297zM65.568569 464.68486c-1.111665 11.923347 0.245944 24.013935-0.432861 35.98647-0.472212 8.352245-4.505687 26.502884-3.935098 34.451782 0.344321 4.781144 4.682767 8.873646 4.161366 15.337044-0.324646 4.0138-3.738343 7.771818-4.122015 11.82497-0.560751 5.912485 13.694141 30.851168 19.350844 34.353404 3.236618 2.0069 7.830845 1.928198 11.313406 4.033476 16.055199 9.739367 32.031697 19.360682 48.716512 27.998221 11.146165 6.365021 33.468008-14.008949 37.835967-22.351356 9.434397-18.022748 12.061075-69.680746 9.473748-90.143255-1.377284-10.880546-9.670503-25.105925-19.144251-30.723277-8.863808-5.253356-58.88874-26.502884-67.860764-28.057248-15.956822-2.764406-21.948009 0.196755-35.347016 7.279931z m282.904026 299.54949c-19.036036-6.925772-61.495742-22.961296-62.68611 7.102852-9.306507 21.052774-5.086114 44.614172-5.587839 67.211472-0.118053 5.341895-4.299094 18.849119-3.492399 22.272654 3.09889 13.025174 63.305887 27.378444 74.37335 39.980594l9.395046-3.157916c3.964611-28.44092 6.512587-61.328501 4.181042-90.133417-0.442699-5.499299-3.089052-21.465959-4.525363-26.158563-1.593715-5.194329-11.136327-9.306507-11.64789-17.107838z" fill="#F1E1C6" /><path d="M1028.260757 828.760118l-15.35672 1.91836c-0.649291-21.741416 4.997574-40.777452-11.392108-57.649184-12.031562-12.385721-29.218102-4.328608-40.462644 5.804269-27.555523 24.82063-8.735917 62.68611-24.869819 92.13048-100.148242 46.257076-201.506526 94.776833-303.012376 140.207538-3.679317 2.31187-7.693116 1.406797-11.608539 1.731443-7.555388 0.619778-15.445259-0.432861-23.03016 0l0.029513-516.127441-7.693117-13.271117c1.023125 0.442699 3.128403-0.196755 5.204167 0.590264 3.472724 1.318258 6.492912 6.502749 8.224355 6.512587 1.829821 0 4.604065-5.450111 8.204679-6.571613 15.396071-4.781144 11.185516-0.118053 28.254003-10.103364 10.939572-6.394534 47.073609-20.275592 60.226673-24.181177 27.693251-8.204679 65.381652-30.477333 94.373486-43.74845 44.594497-20.403483 91.540215-44.810927 136.616761-57.334377l0.777182-6.492911c59.292088-22.744866 115.790256-51.95313 176.282548-71.382676 9.276993-2.980837 13.428522-12.592313 21.623363-16.743842 8.283381-4.190879 18.819606-4.958223 27.978546-4.663091l3.482562-9.503261c0.059026-1.475662-18.573662-19.813218-21.180665-20.560887-16.832381-4.84017-34.245189-10.723142-51.441567-17.619401-33.792653-13.546575-69.287236-35.799553-103.375022-50.083958-30.870843-12.936634-90.517089-26.817692-111.333757-47.890142 73.301036 20.206728 152.475206 63.069782 222.480597 94.04884 15.96666 7.063501 37.07846 11.992211 52.690961 20.206728 8.057113 4.240068 29.375506 22.075899 31.136462 30.251065l-0.108215 493.461277c-2.970999 10.113202-4.220392 15.297693-13.212091 21.318393-37.767102 25.312517-97.373998 45.696324-139.509058 65.755485z m49.218237-418.822308c1.347771-7.85052 8.273543-11.008436 11.460972-17.284917 7.142203-14.067975 6.994637-76.429439-1.062476-89.592342l-7.840683-3.92526c-11.785618-0.668967-42.351491 17.166865-51.854752 25.194465-3.138241 2.656191-2.862784 6.994637-4.564714 8.735917-2.784082 2.862784-12.011886 3.433373-14.077812 10.880546-0.639453 18.455609-6.866746 33.605736-3.551426 52.484368 6.63064 37.708076 45.686487 21.298717 71.481053 13.497386zM823.675017 652.949781c-31.736565 16.389683-101.397635 33.959895-112.140452 72.051643-3.030025 10.742817-2.607002 29.129562-1.898685 40.629886 0.413185 6.699504 3.295644 33.320441 4.564713 37.639211 0.314808 1.09199 9.749205 18.721228 10.73298 19.950946 8.598189 10.821519 27.083311 10.831357 39.764164 8.63754 7.801332-1.347771 41.239826-15.0911 49.847853-19.213115 32.248127-15.415746 37.560509-27.457146 37.403105-62.676272-0.039351-9.001536 0.127891-17.688265 0-26.542235-0.314808-20.875694 2.213493-42.528571-7.653765-61.731849l-20.610075-8.735917z" fill="#FDF1D7" /><path d="M936.179466 870.964043c16.133901-29.44437-2.685704-67.319687 24.869819-92.13048 11.244542-10.132877 28.431082-18.18999 40.462644-5.804269 16.389683 16.871732 10.742817 35.907768 11.392108 57.649184l15.35672-1.91836c-30.044472 14.294243-62.145034 28.372056-92.081291 42.194087z" fill="#F8E9C6" /><path d="M310.774357 905.484689c-8.834295-2.341383-21.534823-3.895747-26.857044-11.510161 14.107326 4.062989 13.949922 3.698992 26.857044 11.510161z" fill="#EDD9B6" /><path d="M65.568569 464.68486c13.399008-7.083176 19.390195-10.044337 35.347017-7.279931 8.972023 1.554364 58.996955 22.803892 67.860763 28.057248 9.473748 5.617352 17.766967 19.842731 19.144251 30.723277 2.597165 20.462509-0.029513 72.120507-9.473748 90.143255-4.367959 8.342408-26.689802 28.716377-37.835966 22.351356-16.684815-8.63754-32.661313-18.258854-48.716512-27.998222-3.472724-2.105277-8.076788-2.026575-11.313407-4.033475-5.656703-3.502237-19.911595-28.44092-19.350844-34.353405 0.383672-4.053151 3.797369-7.811169 4.122015-11.824969 0.5214-6.473236-3.817045-10.5559-4.161366-15.337044-0.580427-7.948898 3.462886-26.099537 3.935098-34.451782 0.678804-11.972535-0.678804-24.072961 0.432861-35.98647z" fill="#EED9B5" /><path d="M348.472595 764.23435c0.511563 7.801332 10.054175 11.903671 11.647889 17.107838 1.436311 4.692604 4.082664 20.659264 4.525363 26.158563 2.321708 28.814754-0.21643 61.702335-4.181042 90.133418l-9.395046 3.157916c-11.067463-12.602151-71.274461-26.945583-74.37335-39.980595-0.816533-3.413697 3.374346-16.930759 3.492399-22.272654 0.501725-22.5973-3.718668-46.158698 5.587839-67.211472 1.190367-30.064148 43.650073-14.028624 62.68611-7.102852z" fill="#EDD9B6" /><path d="M656.089035 15.493435a248.009545 248.009545 0 0 1 15.346882 3.83672c20.19689 5.71573 60.826776 22.361194 76.734409 34.520646 4.003962 3.069376 9.55245 6.473236 11.510161 11.500324-14.461485 3.030025-28.096599 12.582476-41.013558 18.465447-3.256294 1.485499-8.283381 0.324646-12.769392 2.577489-16.556924 8.273543-2.931648 25.322355 10.300119 28.214652 27.398119 5.971511 75.77031-6.433885 87.811709-34.087786 16.468385-1.210043 30.192039 15.120614 42.695812 18.681878 7.752143 2.213493 19.89192 2.262681 28.086762 4.525362 20.816668 21.072449 80.453077 34.953507 111.333757 47.890142 34.087786 14.284405 69.582369 36.537384 103.375022 50.083958 17.196378 6.896259 34.599348 12.77923 51.441567 17.619401 2.61684 0.747669 21.239691 19.085225 21.180665 20.560887l-3.482562 9.503261c-9.15894-0.285295-19.695165 0.482049-27.978546 4.663091-8.194841 4.141691-12.34637 13.763005-21.623363 16.743842-60.492292 19.439384-116.990461 48.647648-176.282548 71.382676l-0.777182 6.492911c-45.076546 12.533287-92.022264 36.930894-136.616761 57.334377-28.991834 13.271118-66.680234 35.533934-94.373486 43.74845-13.153065 3.895747-49.287101 17.786643-60.226673 24.181177-17.068487 9.975473-12.857932 5.312382-28.254003 10.103364-3.600615 1.121503-6.374859 6.581451-8.204679 6.571613-1.741281 0-4.761468-5.194329-8.224355-6.512587-2.075764-0.78702-4.181042-0.147566-5.204167-0.590264C418.310745 409.278682 246.396155 335.397218 74.038867 261.791212c-9.906609-4.23023-20.068999-6.896259-30.654413-11.657727-2.70538-1.21988-7.72263-0.078702-4.909034-6.256806 0.737831-1.61339 11.726592-16.507736 13.094038-17.609563 4.564714-3.679317 10.064013-3.118565 13.615439-5.568164 4.84017-3.334995 9.021212-11.392108 13.99911-12.857932 23.738478-7.014312 47.103122-15.907633 70.516955-25.401057 104.230906-42.262951 208.412623-84.634118 309.593827-127.782466 17.934209-7.643928 40.413455-14.451647 58.839551-21.731579 55.435692-21.928333 77.186945-30.457658 137.974371-17.412808z m-3.039863 334.552185c-1.515013 1.505175-10.388658 15.120614-6.669991 18.435934 4.810657 7.624252 26.188077 14.795968 34.845292 15.415746 6.266643 0.442699 45.391354-9.365533 52.789338-12.366045 26.227428-10.624764 21.347906-24.623875-1.357608-35.55361-18.012911-8.667053-34.46162-11.795456-52.454855-2.911972-3.718668 1.839658-25.371544 15.209153-27.152176 16.979947z" fill="#FDF7DF" /><path d="M874.791939 103.728167c-8.194841-2.262681-20.334618-2.31187-28.086762-4.525362-12.493936-3.561264-26.227428-19.901758-42.695812-18.681878-12.051237 27.6539-60.413591 40.059297-87.811709 34.087786-13.231767-2.882459-26.857043-19.941109-10.300119-28.214652 4.495849-2.243006 9.513099-1.09199 12.769392-2.577489 12.916959-5.882971 26.561911-15.435422 41.013558-18.465447-1.957711-5.027088-7.506199-8.430947-11.510161-11.500324 17.698103 3.000512 36.832516 10.605089 53.753437 17.225892 14.313919 5.597677 65.391489 25.086249 72.858338 32.651474z" fill="#F7EED0" /><path d="M671.435917 19.330155a248.009545 248.009545 0 0 0-15.346882-3.83672v-3.836721c5.194329 1.593715 12.916959 1.278907 15.346882 7.673441z" fill="#F1E1C6" /><path d="M653.049172 350.04562c1.780632-1.770794 23.42367-15.140289 27.152176-16.979947 17.993235-8.883484 34.451782-5.755081 52.454855 2.911972 22.705515 10.929734 27.575199 24.919007 1.357608 35.55361-7.397984 3.000512-46.522695 12.818581-52.789338 12.366045-8.657215-0.619778-30.024797-7.791494-34.845292-15.415746-3.718668-3.31532 5.164816-16.930759 6.669991-18.435934z" fill="#FAEECF" /><path d="M823.675017 652.949781l20.610075 8.735918c9.867258 19.19344 7.348795 40.846316 7.653766 61.731848 0.127891 8.85397-0.039351 17.550537 0 26.542235 0.157404 35.228964-5.145141 47.260526-37.403106 62.676272-8.608027 4.122015-42.046521 17.855507-49.847853 19.213116-12.680853 2.193817-31.156138 2.193817-39.764164-8.63754-0.983774-1.239556-10.418172-18.868794-10.732979-19.950947-1.269069-4.31877-4.151528-30.939707-4.564714-37.639211-0.708318-11.500324-1.131341-29.887069 1.898685-40.629886 10.742817-38.091748 80.403888-55.652122 112.140452-72.051642z" fill="#F6E7C5" /><path d="M1077.478994 409.93781c-25.794567 7.801332-64.850413 24.21069-71.481054-13.497385-3.31532-18.868794 2.902135-34.018921 3.551426-52.484369 2.065926-7.447173 11.293731-8.0276 14.077813-10.880545 1.692092-1.741281 1.416635-6.079726 4.564714-8.735918 9.503261-8.037437 40.078972-25.873269 51.854752-25.194464l7.840683 3.92526c8.057113 13.153065 8.204679 75.514529 1.062476 89.592342-3.187429 6.276481-10.123039 9.444235-11.460973 17.284917z" fill="#F7E8C4" /></svg>