<?xml version="1.0" standalone="no"?><!DOCTYPE svg PUBLIC "-//W3C//DTD SVG 1.1//EN" "http://www.w3.org/Graphics/SVG/1.1/DTD/svg11.dtd"><svg class="icon" width="256px" height="256.00px" viewBox="0 0 1024 1024" version="1.1" xmlns="http://www.w3.org/2000/svg"><path d="M838.033067 531.012267l-34.722134 28.970666-18.722133 15.351467-17.348267 14.813867-15.709866 14.071466-24.448 22.382934-23.978667 22.570666-34.491733 32.162134-17.0752 15.035733-15.581867 14.148267c-5.060267 4.599467-10.257067 9.719467-15.419733 13.943466l-25.745067 21.051734-12.296533 10.094933c-10.8288 8.8832-21.845333 17.3312-33.698134 25.079467l-10.888533 7.1168-17.9968 12.731733c-1.092267 0.776533-2.5856 7.022933-1.262933 7.108267l4.352 0.264533c6.212267-0.503467 13.149867-0.375467 18.6368 1.536l27.9296 9.736533c12.475733 10.7776-4.232533-5.7856 30.702933 5.2736 1.732267 0.546133 7.611733 1.237333 7.517867-0.546133l-0.418134-8.4992c-0.349867-7.133867 2.158933-10.308267 5.469867-13.883733 2.577067-2.781867 3.089067 12.3392 8.072533 23.330133 1.143467 2.517333 8.055467 5.384533 10.5728 7.185067 2.568533 1.8432 1.723733 9.301333 0.247467 12.014933-7.543467-2.670933-15.0784-6.186667-22.510933-9.736533-0.418133-1.211733-0.580267-2.432-1.373867-2.414934l-3.5584 0.0512c-0.887467 0.042667-1.902933 0.2048-2.466133-0.110933-0.605867-1.271467-0.708267-1.954133-1.4592-2.116267-0.853333-0.187733-2.824533-0.443733-3.6096-0.699733l-7.159467-2.321067-3.899733-2.9696c-1.041067-0.7936-3.328 2.176-3.822934 2.926934-6.9888 1.646933-14.122667 6.058667-20.113066 11.4688l-15.726934 14.199466c-5.8368 5.2736-23.5264 20.283733-30.523733 20.394667-20.087467 0.3072-49.1264-25.258667-70.6048-17.749333-11.076267 3.874133-23.6032 12.834133-39.3728-3.9936l-16.9216-18.056534c-5.973333-6.3744-12.2368-12.526933-19.268267-17.988266l-6.587733-5.12-4.138667-8.362667c-2.542933-5.1456-5.6832-11.4176-9.4208-15.044267l-16.512-16.017066c-7.1424-6.929067-13.952-14.4896-21.230933-19.976534-0.273067-2.090667-1.399467-8.4736-2.090667-10.965333l-17.723733-13.764267c-4.846933-3.7632-8.746667-8.354133-13.44-11.067733-26.999467-15.581867-7.304533-11.050667-28.416-19.473067l-17.7664-7.0912c-15.7696-6.289067-14.2336 7.031467-23.808-7.953066-6.468267-10.120533-10.496-0.520533-23.2704-9.770667l-13.329067-9.6512c-9.2928-6.7328-20.804267-12.868267-28.219733-20.130133l3.626667-18.747734c0.605867-3.1488 7.773867-4.650667 11.2896-3.2512 6.775467 2.705067 14.336 2.210133 19.831466 3.643734l44.834134 11.6992c4.010667 1.0496 11.946667 2.056533 16.213333 2.3552l22.519467 1.570133c2.9952 0.2048 7.074133 0.2304 10.043733 0.0512l29.4144-1.792c3.874133-0.238933 10.197333-1.3568 14.626133-2.133333l18.3808-3.2256 87.867734-16.017067 21.956266-4.667733 34.4576-7.057067 23.133867-4.113067 29.0048-6.135466 14.2848-3.029334 41.2928-8.5248 56.123733-12.416 18.321067-4.360533 22.852267-5.521067 27.630933-6.9632 18.542933-4.590933 17.339734-4.3264 57.156266-14.779733c9.9072-2.56 22.784-4.317867 33.152-5.819734 2.193067 0.904533 1.954133 5.632 0.7424 8.593067zM395.8528 815.556267c11.741867-3.9936 17.826133-8.081067 25.9072-13.602134l17.7664-12.151466 16.896-12.3904 19.328-15.1552c8.610133-6.749867 29.115733-24.891733 32.8448-32.9216 0.8192-1.7664-1.834667-7.082667-3.8656-8.4224l-42.3424-27.869867c-8.064-5.307733-28.5952-9.668267-37.768533-6.1184l-35.584 13.755733c-25.668267 16.366933-44.245333 16.571733-66.577067 39.816534l8.456533 9.454933 24.439467 27.357867c12.586667 14.088533 23.381333 25.472 40.516267 38.237866z" fill="#FDE78B" /><path d="M941.866667 596.949333c-0.546133-0.085333-1.4848 0.247467-2.286934 0.443734l-5.819733-0.196267c-2.2272-0.0768-6.331733 3.746133-6.741333 5.367467l-15.624534 6.178133c-23.970133 9.480533-45.2096 22.331733-65.373866 38.254933l-11.050667 8.7296c-11.946667 9.429333-23.611733 18.833067-34.167467 29.7472l-29.175466 30.165334c-5.486933 5.674667-11.2896 12.1856-16.017067 18.2016l-28.288 35.959466-11.904 17.245867c-2.944 4.266667-7.441067 6.894933-7.236267 12.501333-6.749867 1.322667-14.421333 4.932267-19.413333 10.2144l-20.829867 22.016c-12.066133 3.182933-12.194133 14.626133-21.444266 14.600534l-10.4704-0.0256-4.3008-2.261334c1.476267-2.722133 2.312533-10.180267-0.247467-12.014933-2.5088-1.800533-9.429333-4.676267-10.5728-7.185067-4.983467-10.990933-5.486933-26.112-8.072533-23.330133-3.310933 3.566933-5.828267 6.749867-5.469867 13.883733l0.418133 8.4992c0.085333 1.783467-5.794133 1.092267-7.517866 0.546134-34.935467-11.0592-18.218667 5.504-30.702934-5.2736l10.0608-0.145067L614.4 782.421333l14.805333-16.964266 10.3936-11.912534 16.059734-18.423466 17.220266-19.7888L687.786667 698.257067l18.6112-20.864c13.824-15.496533 31.991467-32.768 49.2032-43.912534l27.246933-17.6384c2.218667-1.4336 6.784-3.652267 9.361067-4.829866l16.7424-7.637334 17.3568-7.918933c4.727467-2.158933 10.368-4.7872 14.6944-6.306133l20.522666-7.1936 14.933334-5.5552c5.5552-2.065067 13.294933-5.469867 18.2784-5.888l21.0432-1.757867c6.161067-0.512 13.883733-0.554667 18.670933 0.733867l6.203733 15.266133c1.186133 2.9184 1.501867 9.122133 1.194667 12.219733z" fill="#FDE17E" /><path d="M311.441067 750.4384c7.278933 5.486933 14.088533 13.038933 21.230933 19.976533l16.512 16.017067c3.7376 3.626667 6.877867 9.898667 9.4208 15.044267l4.138667 8.362666c-24.328533-13.713067-45.5168-20.155733-72.4224-34.5344-6.6816-3.575467-13.457067-7.662933-20.232534-10.658133l-42.683733-18.8928-44.893867-19.524267c-18.7136-8.1408-37.572267-15.5136-56.925866-21.418666l-43.656534-13.3376-2.679466-2.6112 9.9584 1.6128 15.300266 3.6352c-1.288533-8.763733-5.922133-11.093333-12.586666-13.448534l-8.593067-3.029333c-11.639467-4.104533-24.0128-7.0656-34.926933-12.672-11.050667-5.6832-21.9392-14.293333-29.192534-24.046933-6.024533-8.098133-11.067733-21.162667-10.112-30.2336l1.4336-13.661867c0.3328-3.191467 4.181333-10.052267 6.510934-12.194133l9.224533-8.516267c7.7824-2.688 21.7856-3.805867 28.791467-2.850133 10.811733 13.550933 13.5168 9.770667 31.4112 26.274133l31.163733 28.740267c28.9792 26.7264 59.485867 45.5936 95.2576 61.678933 11.008 4.949333 21.495467 9.233067 31.9232 15.214933l10.769067 6.178134 11.0592 6.442666c4.437333 2.5856 9.2928 5.7088 13.4144 8.823467l31.377066 23.645867z" fill="#E9A83E" /><path d="M826.2912 794.555733c-0.145067-0.136533-4.036267 2.5344-4.5568 3.601067l-8.541867 17.5104c-10.4704 21.4528-30.276267 4.693333-39.074133 6.152533l-29.755733-9.216c-8.507733-2.6368-16.725333-6.058667-25.1648-9.105066l-10.999467-3.976534c-0.2048-5.6064 4.292267-8.234667 7.236267-12.501333 3.396267 11.502933 6.1952 6.331733 26.052266 14.225067 4.104533 1.629867 9.531733-0.529067 12.9536-3.7888l10.436267-9.9328 17.954133-19.140267 49.809067-51.037867c5.546667-5.6832 11.861333-11.178667 17.834667-16.290133l34.756266-29.7728c4.352-3.729067 9.275733-7.466667 13.184-11.3664l11.153067-11.127467 18.397867-18.628266 16.981333-17.1776c2.423467-2.449067 4.462933-8.4736 7.133867-14.506667l-10.205867-1.544533c0.315733-3.089067 0-9.301333-1.194667-12.219734l-6.203733-15.266133c-4.7872-1.288533-12.501333-1.2544-18.670933-0.733867l-21.0432 1.757867 2.474666-2.167467 11.195734-3.7632 29.0304-9.7536c3.208533-1.0752 7.2704-3.140267 9.531733-4.189866 3.950933-1.527467 10.9568-3.848533 15.121067-6.1184l19.549866-10.666667c5.947733-3.242667 11.588267-8.456533 15.863467-14.1312 12.253867-16.256 14.984533-19.968 6.058667-42.333867l-12.4928-13.431466 11.101866-1.083734-8.6528-10.871466c0.298667 0.034133 4.215467 2.090667 5.051734 3.012266l11.682133 12.8768c4.881067 5.384533 10.018133 16.0256 11.886933 23.7824 4.7104 19.490133-0.4096 33.800533-6.741333 51.720534-6.4256 18.2016-30.344533 39.722667-44.8512 53.179733l-16.5632 15.377067c-9.5232 8.840533-17.92 17.979733-26.845867 27.656533-4.693333 5.085867-11.5456 10.2912-15.744 16.238933-29.2864 41.4464-54.545067 83.712-79.035733 128.008534-1.9456 3.524267-4.992 8.029867-6.101333 10.717866z" fill="#F8CA64" /><path d="M589.602133 826.7264l-7.722666-0.042667c0.4864-0.759467 2.781867-3.720533 3.822933-2.926933l3.899733 2.9696zM609.220267 834.338133l-4.932267-2.363733 3.5584-0.0512c0.802133-0.008533 0.964267 1.2032 1.373867 2.414933zM601.821867 831.863467l-5.060267-2.816c0.785067 0.256 2.747733 0.512 3.6096 0.699733 0.750933 0.170667 0.853333 0.8448 1.4592 2.116267z" fill="#FDE17E" /><path d="M79.402667 422.109867l5.2224-4.718934-5.2224 4.718934z" fill="#F5C251" /><path d="M979.072 459.3408c3.2512 0.008533 9.813333 2.210133 12.023467 4.590933l12.4928 13.431467c8.925867 22.365867 6.1952 26.077867-6.058667 42.333867-4.2752 5.674667-9.915733 10.88-15.863467 14.1312l-19.549866 10.666666c-4.164267 2.2784-11.170133 4.599467-15.121067 6.1184-3.694933 0.017067-10.615467 0.2048-14.267733-0.443733l-25.2672-4.5312-19.310934-3.217067-41.378133-9.5232-1.032533-6.784c1.9712-1.194667 5.051733-3.447467 7.3984-5.282133l24.925866-19.515733 31.778134-22.510934c6.203733-4.394667 14.0032-8.132267 21.469866-10.922666 25.361067-9.489067 22.638933-8.618667 47.752534-8.533334z" fill="#EAA434" /><path d="M993.536 451.985067l8.6528 10.871466-11.101867 1.083734c-2.210133-2.3808-8.772267-4.5824-12.023466-4.590934l-2.321067-2.645333-27.639467 1.134933c-8.994133 0.366933-16.605867 2.116267-25.122133 5.230934l-39.688533 14.506666c-2.56 0.938667-7.611733 4.036267-10.146134 4.8384l-28.3136 8.925867-21.205333 6.289067-52.5568 13.986133-36.3264 8.285867-20.232533 4.420266-26.589867 5.725867-17.553067 3.874133-26.0352 5.802667-19.8144 4.4288-43.648 10.2656-41.2672 9.7024-27.5968 6.775467-53.742933 12.731733-29.218133 6.749867-38.007467 8.797866-22.109867 5.188267-57.9328 13.730133c-4.036267 0.955733-9.4976 1.425067-13.073066 1.698134l-18.013867-0.733867c-5.495467-0.221867-8.558933-9.7536-4.753067-14.378667 0.1792-4.420267 0.5632-11.025067-0.110933-13.9264l-2.875733-12.3392-13.218134-18.9184-15.0528-19.259733c-4.4032-5.640533-8.558933-10.120533-14.1312-15.5392-13.1072-12.740267-2.193067-8.200533-21.674666-24.482133-1.860267-1.553067-5.6576-4.266667-6.929067-5.8368l-9.856-12.1856c-5.6064-6.929067-11.776-13.243733-18.577067-18.397867l-5.640533-4.2752c-1.6384-1.2032-5.0944-3.746133-6.587733-5.4272l-12.740267-14.370133c-0.733867-1.467733-2.602667-4.48-3.857067-5.930667l-10.496-12.177067a197.067947 197.067947 0 0 0-15.453866-15.965866l-11.818667 5.563733c-9.710933 4.573867-24.3456 15.6416-25.924267 13.44l-1.809066-2.525867 5.2224-4.718933c0.750933 0.0768 1.826133 0.426667 2.218666 0.059733l2.7136-2.525866 2.210134 0.0512 2.7136-2.269867c0.802133 0 1.809067 0.2048 2.210133-0.145067l2.6624-2.3552c5.742933-0.3584 12.16-5.358933 12.654933-12.450133-5.828267-5.691733-11.1104-11.101867-16.733866-15.8208l-40.183467-33.732267-20.138667-16.750933c-1.595733-1.3312-3.2256-6.6304-2.312533-8.260267 0.913067-1.629867 5.1712-4.5824 7.108267-4.804266l19.9424-2.244267 27.101866-2.850133 19.575467-1.7664 22.306133-1.365334 36.693334-2.0992 20.0192-1.8432 19.848533-2.2016c26.88-2.986667 79.522133-15.598933 105.966933-23.662933 38.1952-11.656533 103.0656-33.954133 135.381334-55.287467l26.4704-17.476266 12.091733-8.285867 20.309333-14.122667 21.495467-15.3088 14.677333-10.103466c21.8112-15.010133 22.2464 15.829333 45.0048 8.635733l37.572267-11.886933c16.443733-5.205333 34.397867-6.1952 51.5072-4.471467 3.293867 0.3328 10.018133 3.7888 13.568 5.1968 9.019733 3.575467 17.749333 8.567467 24.209067 15.342933l22.0672 23.150934 26.513066 27.264 10.077867 9.361066 27.912533 28.663467 37.777067 38.775467 22.016 22.528 96.4352 94.984533 22.050133 20.548267c5.1712 4.821333 11.3408 9.3184 15.189334 14.1568zM851.643733 342.894933l-14.0544-15.761066-9.224533-10.350934-15.368533-16.8192c-13.713067-15.010133-17.2544-24.541867-31.7696-34.756266l-20.855467-23.424-13.8496-15.5904-29.44-29.960534c-6.075733-6.186667-12.0064-10.589867-20.4288-14.0544l-6.920533-5.248c-12.416-5.0176-44.151467 3.968-41.0624 12.8256 0.4608 1.322667 2.005333 4.343467 2.798933 5.5296l8.456533 12.612267c2.653867 3.959467 9.4976 10.231467 13.696 14.3872l16.401067 16.238933c7.364267 7.287467 15.8976 12.893867 23.722667 20.1984l38.084266 35.515734 13.166934 11.921066 19.131733 17.732267c16.827733 15.598933 15.4368 16.017067 33.6384 32.964267l12.987733 12.100266c7.0912 6.6048 23.458133 21.4272 32.554667 10.606934 8.695467-10.333867-3.473067-27.451733-11.665067-36.642134zM422.237867 558.583467c5.76-6.272 3.968-16.878933-2.551467-20.6592-7.927467-4.599467-15.889067-6.570667-24.584533-7.432534l-13.090134-1.288533c-22.894933-2.2528-47.505067-1.0496-70.997333-0.648533-3.566933 0.059733-8.311467 8.712533-8.1408 12.151466 0.221867 4.334933 2.8416 12.279467 5.845333 14.3104 6.3232 4.283733 15.488 10.871467 21.666134 11.818667 23.3728 3.592533 76.288 8.704 91.8528-8.251733z" fill="#FDE68F" /><path d="M148.7616 439.7056c-1.962667-1.416533-4.718933-3.234133-7.543467-5.768533l-20.1216-18.0224c-2.542933-2.2784-20.650667 3.345067-13.8496 30.353066l2.9952 11.886934 6.203734 3.4816c0.989867 0.554667 3.6864 3.968 2.602666 4.258133l-5.188266 1.416533c-1.544533 0.418133-4.266667 0.776533-3.8912 1.442134l2.653866 4.736c14.011733 24.968533-1.834667 14.3616 15.061334 29.038933l18.346666 15.940267c17.92 15.573333 14.506667 14.523733 32.2048 31.8208l29.943467 29.277866 9.975467 9.966934c3.490133 3.490133 7.799467 7.202133 11.912533 10.3168 12.288 9.309867 38.203733 21.828267 42.350933 3.490133 2.594133-11.502933 0.861867-19.387733-5.845333-27.537067l-24.567467-29.8496-16.187733-18.466133L210.773333 510.404267l-20.736-23.552-20.5056-23.296-1.442133-4.061867 5.640533 4.2752c6.801067 5.154133 12.970667 11.4688 18.577067 18.397867l9.856 12.1856c1.271467 1.570133 5.077333 4.283733 6.929067 5.8368 19.4816 16.2816 8.576 11.741867 21.674666 24.482133 5.572267 5.418667 9.728 9.9072 14.1312 15.5392l15.0528 19.259733 13.218134 18.9184 2.875733 12.3392c0.674133 2.901333 0.290133 9.506133 0.110933 13.9264-3.805867 4.625067-0.750933 14.1568 4.753067 14.378667l18.013867 0.733867c-5.469867 3.933867-49.501867 6.570667-58.359467 3.473066l-17.851733-6.237866c-25.617067-8.951467-51.6608-12.322133-76.945067-22.161067-10.5984-4.1216-21.640533-7.125333-32.802133-9.2672L103.108267 583.68c2.551467 3.498667 5.725867 7.159467 8.055466 8.277333l27.050667 12.996267 13.832533 6.647467c7.441067 3.575467 14.7456 6.357333 23.159467 9.105066l2.9184 1.501867c-5.495467-1.4336-13.056-0.9472-19.831467-3.643733-3.524267-1.408-10.683733 0.1024-11.2896 3.2512l-3.626666 18.747733c7.415467 7.261867 18.926933 13.397333 28.219733 20.130133l13.329067 9.6512c12.7744 9.250133 16.802133-0.349867 23.2704 9.770667 9.582933 14.984533 8.0384 1.664 23.808 7.953067l17.7664 7.0912c21.111467 8.4224 1.416533 3.8912 28.416 19.473066 4.693333 2.705067 8.593067 7.296 13.44 11.067734l17.723733 13.764266c0.6912 2.491733 1.8176 8.874667 2.090667 10.965334L280.064 726.784c-4.1216-3.106133-8.9856-6.237867-13.4144-8.823467l-11.0592-6.442666-10.769067-6.178134c-10.427733-5.973333-20.9152-10.257067-31.9232-15.214933-35.771733-16.085333-66.2784-34.944-95.2576-61.678933l-31.163733-28.740267c-17.8944-16.503467-20.599467-12.7232-31.4112-26.274133-7.005867-0.9472-21.009067 0.170667-28.791467 2.850133l-9.224533 8.516267c-2.321067 2.141867-6.1696 9.002667-6.510933 12.194133l-1.4336 13.661867c-0.955733 9.070933 4.087467 22.135467 10.112 30.2336 7.253333 9.7536 18.141867 18.372267 29.192533 24.046933 10.9056 5.6064 23.287467 8.567467 34.926933 12.672l8.593067 3.029333c6.673067 2.3552 11.298133 4.6848 12.586667 13.448534l-15.300267-3.6352-9.9584-1.6128c-12.296533-1.9968-33.9456-11.733333-46.711467-19.6352-26.308267-16.2816-37.256533-46.498133-30.651733-76.1088 1.527467-6.852267 8.7296-17.2288 13.892267-21.1968l20.0192-15.377067 37.009066-28.040533 36.164267-29.329067c2.141867-1.732267 6.6816-6.869333 4.821333-8.823467-5.6832-5.973333-15.6672-14.6176-20.2752-17.706666l-25.4464-17.0752c-3.703467-2.4832-6.997333-10.368-8.362666-15.675734l11.8784-10.7008c1.621333-1.4592 4.386133-5.367467 5.358933-7.048533 0.546133-0.3584 1.5104-0.128 2.466133-0.034133l1.809067 2.525866c1.578667 2.2016 16.213333-8.866133 25.924267-13.44l11.818666-5.563733a199.995733 199.995733 0 0 1 15.453867 15.965867l10.496 12.177066c1.2544 1.4592 3.1232 4.462933 3.857067 5.930667z" fill="#FDDD78" /><path d="M108.962133 499.1744l2.986667-7.978667c-3.131733-3.677867-9.1904-9.002667-12.8256-11.639466l-10.350933-7.5008c-4.164267-3.0208-8.8832-5.700267-13.6192-8.840534L56.32 450.7136c-14.190933-9.4208 13.687467-23.944533 20.616533-28.5696-0.9728 1.681067-3.7376 5.5808-5.358933 7.048533L59.6992 439.893333c1.3568 5.307733 4.6592 13.192533 8.362667 15.675734l25.4464 17.0752c4.599467 3.089067 14.592 11.741867 20.2752 17.706666 1.860267 1.954133-2.679467 7.0912-4.821334 8.823467zM86.843733 417.450667l2.7136-2.525867-2.7136 2.525867zM91.767467 414.976l2.7136-2.269867-2.7136 2.269867zM96.699733 412.552533l2.6624-2.3552-2.6624 2.3552zM979.072 459.3408c-25.1136-0.085333-22.391467-0.955733-47.752533 8.533333-7.466667 2.7904-15.274667 6.528-21.469867 10.922667l-31.778133 22.510933-24.925867 19.515734c-2.346667 1.834667-5.4272 4.087467-7.3984 5.282133-2.107733 1.271467-5.9392 3.4304-7.7056 4.906667 1.211733-2.961067 1.450667-7.68-0.7424-8.593067-10.368 1.501867-23.2448 3.259733-33.152 5.819733l-57.156267 14.779734-17.339733 4.3264-18.542933 4.590933-27.630934 6.9632-22.852266 5.521067-18.321067 4.360533-56.123733 12.416-41.2928 8.5248-14.2848 3.029333-29.0048 6.135467-23.133867 4.113067-34.4576 7.057066-21.956267 4.667734-87.867733 16.017066-18.3808 3.2256c-4.4288 0.776533-10.752 1.8944-14.626133 2.133334l-29.4144 1.792c-2.9696 0.1792-7.048533 0.1536-10.043734-0.0512l-22.519466-1.570134c-4.266667-0.298667-12.202667-1.3056-16.213334-2.3552l-44.834133-11.6992-2.9184-1.501866c-8.405333-2.756267-15.709867-5.5296-23.159467-9.105067L138.24 604.962133l-27.050667-12.996266c-2.3296-1.117867-5.504-4.778667-8.055466-8.277334l9.856 1.8944c11.1616 2.1504 22.212267 5.1456 32.802133 9.2672 25.284267 9.838933 51.328 13.201067 76.945067 22.161067l17.851733 6.237867c8.8576 3.0976 52.8896 0.4608 58.359467-3.473067 3.566933-0.273067 9.0368-0.7424 13.073066-1.698133l57.9328-13.730134 22.109867-5.188266 38.007467-8.797867 29.218133-6.749867L513.032533 570.88l27.5968-6.775467 41.2672-9.7024 43.648-10.2656 19.8144-4.4288 26.0352-5.802666 17.553067-3.874134 26.589867-5.725866 20.232533-4.420267 36.3264-8.285867 52.5568-13.986133 21.205333-6.289067 28.3136-8.925866c2.525867-0.7936 7.586133-3.899733 10.146134-4.8384l39.688533-14.506667c8.516267-3.114667 16.128-4.855467 25.122133-5.230933l27.639467-1.134934 2.321067 2.645334z" fill="#F5C251" /><path d="M851.643733 342.894933c8.192 9.1904 20.360533 26.308267 11.665067 36.642134-9.105067 10.820267-25.463467-4.002133-32.554667-10.606934l-12.987733-12.100266c-18.2016-16.9472-16.810667-17.365333-33.6384-32.964267l-19.131733-17.732267-13.166934-11.921066-38.084266-35.515734c-7.825067-7.304533-16.3584-12.9024-23.722667-20.1984l-16.401067-16.238933c-4.1984-4.155733-11.042133-10.436267-13.696-14.3872l-8.456533-12.612267c-0.7936-1.186133-2.338133-4.206933-2.798933-5.5296-3.089067-8.8576 28.6464-17.834667 41.0624-12.8256l6.920533 5.248c8.4224 3.464533 14.353067 7.876267 20.4288 14.0544l29.44 29.960534 13.8496 15.5904 20.855467 23.424c14.5152 10.2144 18.056533 19.746133 31.7696 34.756266l15.368533 16.8192 9.224533 10.350934 14.0544 15.761066z" fill="#FDF8D2" /><path d="M148.7616 439.7056l12.740267 14.370133c1.493333 1.681067 4.9408 4.224 6.587733 5.4272l1.442133 4.061867 20.5056 23.296 20.736 23.552 15.044267 17.083733 16.187733 18.466134 24.567467 29.8496c6.7072 8.149333 8.439467 16.034133 5.845333 27.537066-4.138667 18.338133-30.062933 5.819733-42.350933-3.490133-4.113067-3.114667-8.413867-6.826667-11.912533-10.3168l-9.975467-9.966933-29.943467-29.277867c-17.6896-17.297067-14.276267-16.247467-32.2048-31.8208l-18.346666-15.940267c-16.896-14.677333-1.058133-4.078933-15.061334-29.038933l-2.653866-4.736c-0.375467-0.6656 2.346667-1.015467 3.8912-1.442133l5.188266-1.416534c1.083733-0.298667-1.604267-3.703467-2.602666-4.258133l-6.203734-3.4816-2.9952-11.886933c-6.801067-27.008 11.3152-32.631467 13.8496-30.353067l20.1216 18.0224c2.833067 2.5344 5.5808 4.360533 7.543467 5.768533z" fill="#F5C251" /><path d="M422.237867 558.583467c-15.5648 16.964267-68.48 11.844267-91.8528 8.251733-6.178133-0.9472-15.342933-7.543467-21.666134-11.818667-2.9952-2.030933-5.623467-9.984-5.845333-14.3104-0.170667-3.438933 4.573867-12.091733 8.1408-12.151466 23.492267-0.401067 48.093867-1.604267 70.997333 0.648533l13.090134 1.288533c8.695467 0.853333 16.657067 2.833067 24.584533 7.432534 6.519467 3.780267 8.302933 14.3872 2.551467 20.6592z" fill="#FDFEF5" /><path d="M946.986667 550.613333c-2.261333 1.058133-6.3232 3.114667-9.531734 4.189867l-29.0304 9.7536-11.195733 3.7632-2.474667 2.167467c-4.983467 0.418133-12.7232 3.822933-18.2784 5.888l-14.933333 5.5552-20.522667 7.1936c-4.334933 1.518933-9.966933 4.1472-14.6944 6.306133l-17.3568 7.918933-16.7424 7.637334c-2.577067 1.1776-7.1424 3.387733-9.361066 4.829866l-27.246934 17.6384c-17.211733 11.144533-35.3792 28.416-49.2032 43.912534l-18.6112 20.864-14.907733 17.0752-17.220267 19.7888-16.059733 18.423466-10.3936 11.912534-14.805333 16.964266-34.781867 36.650667-10.0608 0.145067-27.9296-9.736534c-5.486933-1.911467-12.424533-2.048-18.6368-1.536l-4.352-0.264533c-1.3312-0.085333 0.170667-6.331733 1.262933-7.108267l17.9968-12.731733 10.888534-7.1168c11.8528-7.748267 22.869333-16.196267 33.698133-25.079467l12.296533-10.094933 25.745067-21.051733c5.1712-4.224 10.359467-9.352533 15.419733-13.943467l15.581867-14.148267 17.0752-15.035733 34.491733-32.162133 23.978667-22.570667 24.448-22.382933 15.709867-14.071467 17.348266-14.813867 18.722134-15.351466 34.722133-28.970667c1.7664-1.476267 5.597867-3.626667 7.7056-4.906667l1.032533 6.784 41.378134 9.5232 19.310933 3.217067 25.2672 4.5312c3.652267 0.657067 10.5728 0.4608 14.267733 0.443733z" fill="#F3BC4D" /><path d="M395.8528 815.556267c-17.134933-12.7744-27.9296-24.149333-40.516267-38.237867l-24.439466-27.357867-8.456534-9.454933c22.340267-23.2448 40.917333-23.4496 66.577067-39.816533l35.584-13.755734c9.173333-3.549867 29.696 0.810667 37.768533 6.1184l42.3424 27.869867c2.039467 1.339733 4.6848 6.656 3.8656 8.4224-3.729067 8.029867-24.234667 26.171733-32.8448 32.9216l-19.328 15.1552-16.896 12.3904-17.7664 12.151467c-8.081067 5.5296-14.1568 9.608533-25.9072 13.602133z" fill="#FDFAD5" /><path d="M715.426133 787.029333l11.904-17.245866 28.288-35.959467c4.727467-6.016 10.530133-12.526933 16.017067-18.2016l29.175467-30.165333c10.555733-10.914133 22.2208-20.317867 34.167466-29.7472l11.050667-8.7296c20.164267-15.9232 41.3952-28.7744 65.373867-38.254934l15.624533-6.178133 12.561067-5.1712c0.802133-0.196267 1.732267-0.520533 2.286933-0.443733l10.205867 1.544533c-2.670933 6.024533-4.7104 12.049067-7.133867 14.506667l-16.981333 17.1776-18.397867 18.628266-11.153067 11.127467c-3.908267 3.899733-8.832 7.637333-13.184 11.3664l-34.756266 29.7728c-5.973333 5.12-12.288 10.606933-17.834667 16.290133l-49.809067 51.037867-17.954133 19.140267-10.436267 9.9328c-3.421867 3.259733-8.849067 5.418667-12.9536 3.7888-19.857067-7.893333-22.656-2.722133-26.052266-14.225067z" fill="#E8A537" /><path d="M939.579733 597.384533l-12.561066 5.1712c0.4096-1.621333 4.514133-5.435733 6.741333-5.367466l5.819733 0.196266z" fill="#F8CA64" /></svg>