<?xml version="1.0" standalone="no"?><!DOCTYPE svg PUBLIC "-//W3C//DTD SVG 1.1//EN" "http://www.w3.org/Graphics/SVG/1.1/DTD/svg11.dtd"><svg class="icon" width="256px" height="256.00px" viewBox="0 0 1024 1024" version="1.1" xmlns="http://www.w3.org/2000/svg"><path d="M500.522667 170.325333l5.009066 3.3024c11.195733 17.041067 13.064533 36.5568 18.952534 54.775467 3.089067 9.557333 2.312533 18.4064 15.607466 15.419733-39.586133 185.4464-55.3216 280.763733-28.3648 472.1408 2.2016 15.616-3.293867 31.931733 6.903467 46.941867 4.992 0.238933 7.995733 5.4528 10.154667 6.656h-11.298134c-3.456 15.351467 6.058667 20.164267 16.955734 28.2624-18.756267-1.7152-7.8592 3.2256-5.870934 14.344533 5.563733 31.061333 12.663467 61.917867 17.1776 93.064534l-11.3152-0.017067c-0.128 5.632 0.1536 11.332267 0 16.981333l-25.710933-11.042133-26.461867-109.192533-15.658666-26.752c4.0448-10.845867 6.877867-15.095467 5.649066-28.2624-1.834667-19.7888-9.122133-45.457067-11.204266-65.109334-10.205867-95.9744-8.96-198.8608 5.666133-293.751466 9.659733-62.651733 29.226667-124.1344 39.5264-186.760534-6.826667-34.909867-24.192-21.981867-48.4864-25.224533-7.569067-1.006933-7.620267-5.6576-8.106667-5.777067h50.875734z" fill="#EAE5D2" /><path d="M297.0112 255.121067c44.672 2.688 86.331733 10.734933 104.814933 56.302933 10.2144 25.181867 10.615467 71.569067 8.132267 99.0464-1.3056 14.4896-9.284267 36.292267-11.093333 51.0976-13.192533 107.963733-20.369067 225.629867 0.1024 333.2352 5.358933 28.151467 30.984533 96.657067 28.3136 118.997333-2.082133 17.425067-20.6336 16.9984-34.491734 11.5456-7.296-5.12-9.275733-29.098667-12.3392-38.6048-3.089067-9.565867-2.304-18.414933-15.607466-15.419733 12.0064-15.351467 0.989867-18.1504 0-22.613333-0.238933-1.092267 5.418667-6.903467 4.420266-12.9536-1.826133-11.101867-8.081067-23.995733-9.873066-35.3024-18.005333-113.3312-14.045867-219.8784-0.1024-333.2352 1.8176-14.805333 9.787733-36.608 11.093333-51.0976 2.670933-29.6704 5.085867-100.445867-25.344-115.7632-12.885333-6.485333-7.287467 17.979733-9.173333 24.712533-0.836267 2.986667-4.753067 3.140267-4.932267 3.541333l-0.708267-47.3344c-6.852267-14.472533-21.6576-17.7152-33.2032-26.154666zM704.034133 221.201067c-14.6688 17.6896-19.9936 33.143467-16.955733 56.533333-1.988267-4.0704-9.233067-7.04-5.666133-16.955733-32.580267 18.338133-36.6592 59.2384-33.792 93.1584 39.168 153.890133 42.786133 294.3744 22.493866 449.544533-0.162133 1.2288-4.232533 16.315733-5.649066 22.613333-0.093867 0.4096-3.652267 1.262933-4.411734 4.2496-3.4048 13.3376-7.970133 48.657067-17.911466 55.389867-8.302933 5.632-31.325867 4.232533-34.0992-6.2208 4.7616-34.363733 16.349867-67.626667 22.306133-101.666133 9.0368-51.618133 20.386133-129.937067 17.399467-180.949334-4.974933-85.077333-29.960533-167.808-34.261334-254.0288-0.341333-6.894933-6.468267-13.115733-5.751466-22.4512 0.750933-9.864533 8.516267-40.3968 12.680533-49.979733 8.4736-19.524267 32.384-43.5968 53.435733-48.3072 10.410667-2.3296 20.770133 0.4352 30.190934-0.9216z" fill="#EAE4D2" /><path d="M557.056 170.325333h-22.621867c-0.085333-9.378133 0.136533-18.875733 0.008534-28.2624-0.0768-5.5552-0.4864-11.460267 0-16.955733 2.653867-30.114133 39.722667-83.473067 65.792-100.974933 31.9232-21.435733 99.3024-40.9856 123.5456-0.725334 28.808533 47.854933-36.497067 97.9712-76.177067 115.925334-21.102933 9.5488-80.4608 20.8896-90.538667 31.0016zM523.136 130.756267c0.904533 2.551467-0.426667 7.671467 0 11.306666 0.4096 3.438933 0.2304 7.773867 0 11.306667-14.762667-12.714667-23.7568-29.585067-39.816533-42.154667-9.949867-7.7824-71.313067-43.5712-78.890667-36.983466-2.5856 12.2624 6.186667 12.8 13.073067 18.005333 12.765867 9.6512 28.740267 17.297067 40.7296 27.1104 16.6912 13.653333 29.5424 33.083733 47.9488 45.329067-3.592533 0.366933-6.237867 1.732267-5.649067 5.649066h-50.875733c-39.8848-9.8816-93.312-24.96-118.826667-59.246933-18.321067-24.618667-23.893333-56.832 3.729067-75.639467 50.286933-34.244267 123.5456 1.570133 157.252266 44.680534 6.152533 7.867733 28.757333 43.349333 31.3344 50.6368z" fill="#89C24A" /><path d="M297.0112 255.121067c11.5456 8.430933 26.359467 11.682133 33.2032 26.154666l0.708267 47.3344c-3.6096 8.004267-8.4736 11.989333-11.306667 16.955734-2.235733-11.255467-14.421333 5.947733-16.955733 8.482133-26.154667 26.129067-47.266133 46.370133-87.5008 48.392533-18.244267 0.913067-24.4224-8.814933-34.039467-9.873066-1.672533-0.187733-2.5856 3.925333-2.824533 3.882666-8.4224-1.365333-13.508267-9.693867-16.955734-11.306666 19.285333 0.657067 16.145067 3.643733 16.938667-14.071467 1.8432-41.079467 26.24-70.724267 60.168533-92.561067 10.180267-6.545067 23.5008-12.6208 35.950934-12.100266l-22.6048-5.640534c0.571733-0.128-2.321067-4.352 8.251733-5.802666 10.001067-1.373867 26.231467-0.494933 36.9664 0.1536z" fill="#89C04A" /><path d="M732.296533 215.552c11.136 9.856 27.810133 10.709333 41.5744 17.783467 44.893867 23.0656 60.6208 56.413867 72.6272 102.613333 0.8192 3.1488 4.4544 3.6864 4.5056 3.976533 0.238933 1.245867-5.597867 21.947733-6.621866 24.490667-1.373867 3.4304-4.539733 3.5072-4.6848 3.771733l-5.623467-19.7632c-8.311467 2.500267-19.1744 12.0832-26.4448 13.482667-8.132267 1.570133-51.003733-16.682667-60.416-22.775467-9.617067-6.2208-18.013867-16.4352-26.231467-24.6528-2.525867-2.525867-14.72-19.7376-16.955733-8.482133-5.76-9.6-11.895467-17.902933-16.955733-28.2624-3.037867-23.389867 2.286933-38.843733 16.955733-56.533333 8.618667-1.245867 14.916267-5.000533 28.2624-5.649067z" fill="#8AC149" /><path d="M851.012267 339.9168c-0.059733-0.298667-3.6864-0.827733-4.5056-3.976533-12.0064-46.199467-27.741867-79.547733-72.6272-102.613334-13.7728-7.074133-30.446933-7.927467-41.5744-17.783466 49.194667-2.423467 116.667733 18.346667 147.0976 59.2384 22.408533 30.1056 12.962133 67.234133-28.381867 65.1264z" fill="#69A03E" /><path d="M251.784533 260.778667l22.6048 5.640533c-12.450133-0.512-25.7792 5.5552-35.950933 12.100267-33.928533 21.8368-58.325333 51.473067-60.168533 92.561066-0.7936 17.7152 2.346667 14.728533-16.938667 14.071467-14.6944-6.852267-25.864533-0.477867-28.253867-25.472-5.3248-55.714133 60.791467-85.0176 105.8816-97.826133 4.9152-1.399467 9.514667-0.315733 12.817067-1.0752z" fill="#68A03B" /><path d="M528.785067 769.5616c15.2576 8.541867 36.155733 12.3904 47.957333 28.356267 24.0384 32.520533 4.906667 90.350933 25.4464 110.225066 17.314133 16.759467 34.6112 12.049067 44.433067 46.011734 1.501867 5.1968 5.000533 20.4544-4.7616 18.901333 0.529067-38.0416-63.863467-46.916267-67.9936-76.168533-4.7872-33.954133 11.067733-64.0256-22.698667-90.4192-5.102933-3.985067-12.347733-5.384533-16.733867-8.6528-10.888533-8.106667-20.4032-12.910933-16.955733-28.2624h11.298133z" fill="#DECDA9" /><path d="M319.624533 345.5744c-5.3248 9.352533-8.1152 20.266667-16.853333 31.197867-29.303467 36.642133-106.7008 92.279467-124.475733 19.6864 0.238933 0.034133 1.152-4.0704 2.824533-3.882667 9.6256 1.058133 15.803733 10.794667 34.039467 9.873067 40.234667-2.0224 61.3376-22.263467 87.5008-48.392534 2.542933-2.5344 14.728533-19.7376 16.955733-8.482133z" fill="#76AD43" /><path d="M704.034133 306.005333c2.235733-11.255467 14.429867 5.956267 16.955734 8.482134 8.2176 8.209067 16.6144 18.423467 26.231466 24.6528 9.412267 6.0928 52.292267 24.3456 60.416 22.775466 7.2704-1.399467 18.133333-10.9824 26.4448-13.482666l5.623467 19.7632c-6.6304 11.656533-13.909333 16.989867-26.4704 21.998933-48.768-3.259733-83.089067-37.6832-108.177067-76.561067-1.629867-2.525867-0.136533-6.152533-1.024-7.6288z" fill="#76B043" /><path d="M534.442667 142.062933c0.128 9.3952-0.093867 18.8928-0.008534 28.279467h22.621867c-13.7216 13.755733-12.706133 53.572267-16.955733 73.480533-13.294933 2.986667-12.5184-5.8624-15.607467-15.419733-5.888-18.218667-7.7568-37.7344-18.952533-54.775467l-5.009067-3.3024c-0.5888-3.9168 2.065067-5.282133 5.649067-5.649066 5.5552-0.571733 11.400533 0.452267 16.981333 0 0.187733-3.7376-0.264533-7.569067-0.017067-11.306667 0.2304-3.5328 0.4096-7.867733 0-11.306667h11.306667z" fill="#B3C880" /><path d="M364.842667 848.699733c0.989867 4.462933 12.0064 7.261867 0 22.613334-23.936 30.592-16.247467 23.168-22.724267 59.246933-4.096 22.826667-12.7232 48.682667-39.458133 53.802667 33.604267-28.663467 14.429867-69.0688 29.44-103.389867 4.846933-11.076267 18.3296-32.964267 32.7424-32.273067z" fill="#D8C7A5" /><path d="M670.114133 803.4816c6.3744 7.918933 15.8208 11.178667 22.715734 19.677867 27.9296 34.432 3.1744 83.7888 33.809066 115.985066-10.248533 1.723733-17.3056-7.1424-21.888-14.839466-18.705067-31.4112-4.650667-76.0832-40.2944-98.210134 1.416533-6.2976 5.495467-21.384533 5.649067-22.613333z" fill="#D8C8A6" /><path d="M466.602667 775.210667c-3.2512 8.712533-9.941333 15.650133-11.306667 25.454933-3.464533 24.814933 7.082667 55.04-14.139733 76.296533l3.054933-42.658133c-12.5184-35.072-5.077333-68.206933 28.040533-87.355733 1.220267 13.166933-1.604267 17.416533-5.649066 28.2624z" fill="#DBCAA8" /><path d="M545.749333 905.233067c2.9696 20.497067 8.251733 35.182933 5.521067 59.221333-2.3296 20.539733-15.624533 38.741333-16.836267 59.511467l-11.281066-2.824534c16.349867-30.5408 10.427733-65.6896 11.2896-98.952533 0.145067-5.640533-0.136533-11.3408 0-16.981333l11.3152 0.017066z" fill="#DECFB1" /><path d="M534.442667 142.062933h-11.306667c-0.426667-3.6352 0.904533-8.7552 0-11.306666l11.306667-5.649067c-0.4864 5.504-0.0768 11.400533 0 16.955733z" fill="#E8F6D4" /><path d="M523.136 153.3696c-0.247467 3.7376 0.2048 7.569067 0.017067 11.306667-5.5808 0.452267-11.4176-0.571733-16.981334 0-18.4064-12.2368-31.2576-31.6672-47.9488-45.329067-11.989333-9.8048-27.963733-17.450667-40.7296-27.1104-6.8864-5.205333-15.658667-5.742933-13.073066-18.005333 7.586133-6.587733 68.949333 29.201067 78.890666 36.983466 16.059733 12.5696 25.053867 29.44 39.816534 42.154667z" fill="#6EAB3C" /></svg>