<?xml version="1.0" standalone="no"?><!DOCTYPE svg PUBLIC "-//W3C//DTD SVG 1.1//EN" "http://www.w3.org/Graphics/SVG/1.1/DTD/svg11.dtd"><svg class="icon" width="256px" height="256.00px" viewBox="0 0 1024 1024" version="1.1" xmlns="http://www.w3.org/2000/svg"><path d="M281.036355 184.618374c14.395711-0.887465 19.891169 7.500788 31.257551 11.255449 28.791421 9.514652 59.11884 17.06664 89.565724 15.607442-10.530117 13.823978-29.115687 20.701834-42.589799 31.231951-17.407972 13.602112-31.197817 31.377017-48.460723 45.508194-4.838392 3.967994-9.215985 4.548259-7.389855 12.731713 34.500212 1.945597 65.706563-0.520533 98.611044-11.007982l66.943894-29.25222c3.976527 39.722604 12.296514 83.643601 42.512999 111.846222 23.41543-31.35995 41.224468-71.970019 38.04154-111.846222 2.449063-2.611196 52.761516 22.732764 61.363103 25.890092 35.447411 12.979179 66.175895 17.314106 104.200368 14.378644 2.824529-11.007983-2.662396-7.176522-5.862391-9.710918-21.572233-17.06664-38.485272-40.797802-58.93964-57.488976-7.475188-6.101324-16.73384-10.342384-24.686894-15.573308 7.415455-11.025049 18.978103-4.932259 28.987688-6.80959 30.293285-5.683191 58.700707-15.965841 87.355595-26.760491 8.012787-0.136533 8.422387 4.34346 8.951452 4.47146-9.821851 1.868797 5.375991 20.915167 6.758389 22.331698 8.823453 9.053852 21.171166 14.745577 31.086884 27.084757 89.403592 111.30009 116.215283 248.66094 82.039337 385.936456-46.352993 186.205572-221.977249 316.270433-408.430286 338.866663-40.191936 4.872526-86.843596 12.885313-125.491002 8.959986-5.913591-0.597332-11.852781 0.0256-17.774905-0.093867l2.252797 8.94292-17.911439-4.479993 2.201597-9.002653-20.104502 9.019719c-132.650457-60.040438-237.166558-180.966113-267.459843-325.460818-35.063411-167.295735 22.408498-353.313574 179.336249-436.129443 18.96957-10.009584 63.504966-29.218087 83.652135-30.455418z m-63.871899 90.188658c-30.805285 4.923726-55.765245 22.408498-74.931081 46.21646-15.018643 18.653837-25.915692 42.794599-22.391431 67.31936 2.995195 20.863967 35.140211 30.993018 53.794048 22.254898 27.519956-12.90238 77.576411-62.8991 80.614272-94.096918 2.073597-21.273566-15.581842-45.124195-37.068741-41.685267zM104.831834 471.576853c-6.562123 1.92853-22.826631 21.939165-24.422361 29.260754-3.532794 16.153574-3.839994 62.591901 12.56958 70.971621 21.503966 7.449588 37.350341-1.245865 46.907659-20.445834 14.301844-28.731688 6.698656-92.057454-35.054878-79.786541z" fill="#E1463A" /><path d="M285.507815 976.664054l20.104501-9.019719-2.201596 9.002652 17.911438 4.479993-2.252797-8.942919c5.922124 0.119466 11.861315-0.503466 17.774906 0.093866 38.655939 3.925327 85.307598-4.095994 125.491001-8.959986 186.444505-22.596231 362.06876-152.661092 408.430287-338.866663 34.175946-137.275516 7.364255-274.636365-82.039337-385.936456-9.915718-12.33918-22.263431-18.030905-31.086884-27.084757-1.382398-1.416531-16.58024-20.462901-6.75839-22.331698 257.979325 65.919896 326.996816 369.774348 209.629535 587.74947-125.491001 233.070564-442.333166 305.13445-675.011198 199.816217z" fill="#D03A2F" /><path d="M531.642892 153.258424c10.504517-2.022397 19.302369 4.36906 28.99622 4.812792 14.70291 0.674132 33.97968-8.183454 49.100723-9.446385 34.346612-2.858662 73.224417 3.507194 107.485696 0.093867 21.538099-2.141863 43.95513-13.158379 64.981231-17.791972l-11.366382 22.186632-28.902355 31.505016c-28.654888 10.79465-57.053776 21.068767-87.355595 26.760491-10.018117 1.87733-21.580766-4.21546-28.987687 6.80959 7.953054 5.230925 17.211706 9.471985 24.686894 15.573308 20.454368 16.691174 37.358874 40.430869 58.93964 57.488976 3.199995 2.534396 8.678386-1.297065 5.862391 9.710918-38.024473 2.943995-68.744424-1.390931-104.200369-14.378644-8.601586-3.148795-58.91404-28.501288-61.363102-25.890092 3.182928 39.86767-14.62611 80.477739-38.04154 111.846222-30.225019-28.202622-38.536472-72.123619-42.513-111.846222l-66.943894 29.25222c-32.904481 10.48745-64.110832 12.953579-98.611043 11.007982-1.82613-8.183454 2.551463-8.772253 7.389855-12.731713 17.262906-14.139711 31.052751-31.906083 48.460723-45.508194 13.474112-10.530117 32.068216-17.407972 42.589799-31.231951-30.446885 1.459198-60.76577-6.09279-89.565725-15.607442-11.366382-3.754661-16.86184-12.142914-31.25755-11.255449l-28.902355-31.505016-11.366382-22.186632c18.005305 4.693326 37.333274 15.658642 56.038312 17.783439 35.157278 4.01066 76.526812-3.327995 111.948622-0.0768 13.209579 1.211731 27.50289 8.883186 40.02127 9.437851 11.980781 0.529066 21.572233-6.37439 33.612747-4.812792 0.136533-18.577037-0.110933-37.256474 0.034134-55.884712 0.059733-7.347188-3.293861-20.8981 4.462926-24.627161-1.314131 32.273016 1.95413 64.571631 2.722129 96.213181 0.110933 4.47146-3.379195 10.71785-3.029329 17.954105 1.023998 21.017567 28.774354 35.225544 38.451139 15.718375 6.698656-13.508245 0.605866-30.591952 2.884262-48.742322" fill="#6F9744" /><path d="M481.919237 73.813216c0.674132-16.511974 5.171192-25.335427 11.613848-41.395134 12.398914-30.907684 25.156227-35.037811 58.205775-31.240484 12.424514 1.425064 18.397838 6.937589 19.626635 19.387703-15.999975 23.603163-26.760491 50.175921-34.414879 77.636144-2.628263 9.437852-0.793599 16.196241-5.316258 28.245288-0.136533 0.366933 0.366933 5.188258-0.409599 11.409049-2.269863 18.158905 0.511999 51.259652-6.186657 64.77643-9.676785 19.507169-37.427141 5.299192-38.451139-15.718375-0.349866-7.236255-3.848527-12.398914-3.95946-16.870373-0.776532-31.64155-2.013863-63.957232-0.699733-96.230248z" fill="#628942" /><path d="M217.164456 274.807032c21.495433-3.438928 39.142338 20.411701 37.068741 41.685267-3.037862 31.197817-53.085783 81.194538-80.614272 94.096918-18.645304 8.746653-50.79032-1.390931-53.794048-22.254899-3.524261-24.516228 7.372788-48.65699 22.391431-67.31936 19.17437-23.807962 44.13433-41.284201 74.931082-46.21646z" fill="#F06A5B" /><path d="M104.831834 471.576853c41.745001-12.279447 49.348189 51.054852 35.054878 79.786541-9.557318 19.19997-25.403693 27.903956-46.907659 20.445834-16.401041-8.388253-16.093841-54.82658-12.56958-70.971621 1.595731-7.321588 17.860238-27.332223 24.422361-29.260754z" fill="#EE7569" /></svg>