<?xml version="1.0" standalone="no"?><!DOCTYPE svg PUBLIC "-//W3C//DTD SVG 1.1//EN" "http://www.w3.org/Graphics/SVG/1.1/DTD/svg11.dtd"><svg t="1778769553780" class="icon" viewBox="0 0 1024 1024" version="1.1" xmlns="http://www.w3.org/2000/svg" p-id="3945" xmlns:xlink="http://www.w3.org/1999/xlink" width="256" height="256"><path d="M840.97 644.18l-41.42-71.74c-6.35-11-9.3-23.58-8.81-36.26 0.04-0.91 0.05-1.83 0.05-2.75v-7.87c0-23.49-11.4-44.44-28.94-57.6-17.3-12.97-27.8-33.14-27.35-54.75 0.01-0.51 0.02-1.02 0.02-1.52v-7.87c0-28.86-17.21-53.89-41.87-65.35-13.47-6.26-24.37-16.77-31.24-29.93-21.18-40.55-78.28-69.6-145.4-69.6s-124.08 28.98-145.33 69.46c-6.77 12.91-17.54 23.3-31 28.91-26.06 10.86-44.51 36.63-44.51 66.51v7.87c0 0.51 0 1.02 0.02 1.52 0.46 21.62-10.05 41.78-27.35 54.75-17.54 13.16-28.94 34.11-28.94 57.6v7.87c0 1.07 0.02 2.14 0.07 3.2 0.57 12.71-2.44 25.31-8.8 36.33l-41.12 71.23c-34.17 59.18 8.54 133.16 76.88 133.16h498.16c68.34 0 111.05-73.98 76.88-133.16z" fill="#F7F3E7" p-id="3946"></path><path d="M437 388.67a21.85 24.51 0 1 0 43.7 0 21.85 24.51 0 1 0-43.7 0Z" p-id="3947"></path><path d="M548.91 388.67a21.85 24.51 0 1 0 43.7 0 21.85 24.51 0 1 0-43.7 0Z" p-id="3948"></path><path d="M515.33 506.15c-23.97 0-45.86-12.16-58.56-32.53-3.65-5.86-1.87-13.57 3.99-17.22 5.86-3.65 13.57-1.87 17.22 3.99 8.11 13 22.07 20.76 37.35 20.76s29.24-7.76 37.35-20.76c3.65-5.86 11.36-7.65 17.22-3.99 5.86 3.65 7.65 11.36 3.99 17.22-12.7 20.37-34.59 32.53-58.56 32.53z" p-id="3949"></path><path d="M400.68 771.84v-156.5c0-22.1 17.91-40.01 40.01-40.01h148.66c22.1 0 40.01 17.91 40.01 40.01v156.5H400.69z" fill="#879D4B" p-id="3950"></path><path d="M764.1 789.83H265.94c-36.61 0-69.4-18.93-87.7-50.64s-18.31-69.57 0-101.27l41.12-71.23c5.14-8.91 7.61-19.11 7.14-29.51-0.06-1.25-0.08-2.51-0.08-3.76v-7.87c0-26.38 12.69-51.65 33.94-67.6 14.35-10.77 22.71-27.4 22.35-44.49-0.01-0.59-0.02-1.19-0.02-1.79v-7.87c0-34.2 20.49-64.84 52.2-78.05 10.37-4.32 19.16-12.55 24.74-23.18 11.81-22.51 32.94-41.65 61.09-55.34 27.99-13.61 60.94-20.81 95.31-20.81s67.39 7.21 95.4 20.86c28.18 13.73 49.3 32.9 61.08 55.46 5.67 10.86 14.46 19.29 25.43 24.38 29.83 13.86 49.11 43.96 49.11 76.69v7.87c0 0.6 0 1.19-0.02 1.79-0.36 17.09 7.99 33.72 22.35 44.49 21.25 15.94 33.94 41.21 33.94 67.6v7.87c0 1.08-0.02 2.17-0.06 3.24-0.41 10.51 2.06 20.72 7.14 29.53l41.42 71.74c18.31 31.71 18.31 69.57 0 101.27-18.31 31.71-51.09 50.64-87.7 50.64zM516.01 251.44c-60.6 0-114.55 25.23-134.26 62.77-8.28 15.78-21.51 28.08-37.26 34.64-22.36 9.32-36.82 30.89-36.82 54.97v7.87c0 0.42 0 0.84 0.01 1.26 0.53 25.12-11.56 49.43-32.34 65.02-14.99 11.25-23.94 29.04-23.94 47.6v7.87c0 0.88 0.02 1.76 0.06 2.64 0.69 15.18-2.93 30.09-10.47 43.14l-41.12 71.23c-13.79 23.88-13.79 52.39 0 76.27s38.48 38.14 66.05 38.14h498.16c27.57 0 52.27-14.26 66.05-38.14s13.79-52.39 0-76.27l-41.42-71.74c-7.44-12.89-11.07-27.76-10.47-43 0.03-0.75 0.04-1.51 0.04-2.27v-7.87c0-18.56-8.95-36.35-23.94-47.6-20.78-15.59-32.87-39.89-32.34-65.01 0-0.42 0.01-0.84 0.01-1.26v-7.87c0-23.04-13.6-44.24-34.64-54.01-16-7.43-28.81-19.7-37.05-35.48-19.65-37.62-73.63-62.89-134.32-62.89z" p-id="3951"></path><path d="M629.35 733.48c-6.9 0-12.5-5.6-12.5-12.5V613.14c0-15.17-12.34-27.51-27.51-27.51H440.68c-15.17 0-27.51 12.34-27.51 27.51v107.84c0 6.9-5.6 12.5-12.5 12.5s-12.5-5.6-12.5-12.5V613.14c0-28.95 23.55-52.51 52.51-52.51h148.66c28.95 0 52.51 23.55 52.51 52.51v107.84c0 6.9-5.6 12.5-12.5 12.5z" p-id="3952"></path></svg>