<?xml version="1.0" standalone="no"?><!DOCTYPE svg PUBLIC "-//W3C//DTD SVG 1.1//EN" "http://www.w3.org/Graphics/SVG/1.1/DTD/svg11.dtd"><svg class="icon" width="256px" height="256.00px" viewBox="0 0 1024 1024" version="1.1" xmlns="http://www.w3.org/2000/svg"><path d="M84.777226 790.856228l4.957783 12.76565 4.334859 9.727835 5.862301 12.560853c14.395489 30.847476 34.013289 62.206943 55.841184 88.617161 12.142727 14.685617 35.446864 34.329017 52.385243 38.604144 7.074013 4.693254 15.607201 9.01958 24.677981 11.391806l13.738433 3.592473c7.500673 1.962633 15.649867 4.727386 23.15054 5.879366l35.984455 5.520973 32.391983 5.11138 16.102127 2.133297 16.27279 1.646905 30.557347 2.679422 18.184225 1.459175 40.233983 1.9541c22.578816 1.100781 44.381113 1.527441 67.224458 1.15198l36.402581-0.605856 8.396657-1.237312 54.339344-0.759454 7.074013-1.186113 49.757021-0.759454 24.293987 0.264529 2.116231 2.056498c2.406359 0.383993 7.031347 1.356777 8.763584 1.220246l15.837598-1.237312c2.218629-0.170664 5.563639-1.271445 6.007365-2.090631l2.030898-0.093865 10.657953-1.01545c6.66442-0.639989 21.879095 8.302792 20.812446-2.030899-0.844786-8.166261 6.707086-1.9797 10.845682-11.332074l4.070331-1.561573c2.218629-0.332794 4.966316-1.271445 6.229228-2.423426l12.637652-5.870833 7.568938-3.780203c19.00341 0.494925 12.475521-14.898947 39.005204-6.715619l2.218629-5.119913c0.443726-1.023983 4.351926 2.252762 5.230844 1.570107 9.156111-7.048414 6.766818-9.292642 15.513336-9.514505l2.491691-4.095931c0.580257-0.955717 3.404742 0.076799 4.420192-0.40106-0.486392 1.322644-2.278361 4.932183-3.447408 6.212162-42.051552 46.224281-69.605217 50.891935-127.622365 63.990379-4.701787 1.058115-10.103295 2.594089-14.770949 3.13168l-32.528514 3.729003c-21.111108 2.414892-41.641959 3.839935-62.778667 4.71032l-38.59561 1.57864-95.324247 1.715171-137.759793-4.812718c-6.749752-0.238929-13.712834-1.066649-20.308988-1.868768l-37.784958-4.556723c-6.87775-0.827719-45.260031-7.432407-50.158081-8.814784l-26.845411-7.586004c-18.977811-5.367375-44.713907-18.909545-60.756301-30.582947-29.337102-21.341504-61.976547-66.857531-78.309069-99.565242l-20.846579-41.735824c-6.246294-12.509654-10.803016-25.548366-15.393872-37.998287l4.983382 3.020748c1.860235-0.895985 4.761519-2.585556 6.10123-1.757837l4.462857 2.75622c1.15198 0.716788 3.677804-1.305578 5.222311-2.252761l3.814336 2.619688z m262.318743 201.47711l-14.002962-3.788736c-3.259678-0.878918-7.782268-0.96425-13.738433-1.220245l-1.20318 15.06961c-0.255996 3.165813 5.879367 8.541722 9.096379 8.328392l19.438603-1.262912c0.648522-6.220694 0.80212-13.158176 0.409593-17.126109z" fill="#B5C0BB" /><path d="M846.808011 204.754187c1.134914 0.127998 3.481541 0.750921 3.984999 1.749304l2.227162 4.454324 0.725321 17.672233c0.247462 5.956165 5.546572 13.721367 10.487289 17.569835l36.197785 28.21072c13.508037 10.529954 24.055058 23.833195 35.131136 36.940173 15.257341 18.056227 27.536599 36.999905 36.266051 59.075263l6.160962 15.581602c6.032964 15.257341 10.393423 30.301352 14.898947 46.138949 5.043114 17.731965 7.372675 35.719926 9.087845 54.083348l1.535974 16.494653 2.210096 32.51998c1.442109 21.247639 1.860235 42.017419 0.290128 63.043196-1.245845 16.588518-8.328392 60.99523-11.7758 78.240804-7.483606 37.400964-15.846131 72.617433-29.243236 108.311759l-6.519356 17.373572c-4.061798 10.820083-8.353991 21.281772-13.14111 31.845859l-8.925715 19.703132c-3.353543 7.389741-6.792418 14.634418-10.606753 21.725497-6.681486 12.415789-32.903974 59.032597-42.36728 63.435722-1.023983 0.477859-3.839935-0.56319-4.420192 0.40106l-2.491691 4.095931c-8.746518 0.221863-6.357225 2.466091-15.513336 9.514505-0.878918 0.674122-4.787119-2.594089-5.230845-1.570107l-2.218629 5.119913c-26.538216-8.183328-20.001793 7.210544-39.005204 6.715619-2.602622-2.303961 14.395489-3.362076 16.016795-9.966764 12.57792-3.9082 33.578096-25.471567 42.444079-37.09377l10.794483-14.156559c2.935417-3.848468 8.260126-9.130512 10.376357-12.910714l6.007365-10.726218 5.640437-10.239826 12.39019-23.935593 5.67457-10.965147c3.020749-5.828168 5.990298-11.878198 8.567321-18.022094l6.749752-16.102126c3.259678-7.782268 5.939099-15.794932 8.712385-23.824662l12.313391-35.634595c0.98985-2.867151 1.928501-6.416958 2.858618-9.659569 11.135811-39.013737 14.062694-52.956967 19.660466-93.284815l2.653822-19.148474c0.913051-6.562022 3.34501-25.864094 2.35516-31.931191l0.981316-8.115062 0.0256-49.611957-1.092248-7.27881c-1.74077-11.605136-1.681038-24.660914-4.172729-36.31725l-9.412107-43.945919c-6.314559-29.490699-21.341504-60.184577-37.503363-85.553747l-10.291025-16.153325c-10.103295-15.854664-34.516747-41.138501-49.978884-51.736721l-19.122875-13.106977c-5.70017-3.9082-13.7043-7.06548-20.462586-10.094762l-64.775433 11.630735c-4.351926 0.785053-9.659569 1.297045-14.071227 1.783437l-18.371955 2.039432-18.22689 1.945567-26.444351 2.321027-16.102126 1.15198-18.679149 1.322645c-2.286894 0.162131-5.631904 0.938651-7.364142 1.52744l-0.614389-37.059637c-0.008533-0.571724 2.926884-4.258061 2.286894-3.242611l1.843169 8.797717 34.593545-2.483158 18.286623-1.561573 26.418751-2.286895 14.224825-1.476241c6.442557-0.665589 13.712834-0.691188 19.720198-1.60424l18.679149-2.858618c5.819634-0.887452 11.37474-2.14183 16.998112-3.421808l15.89733-3.626605c10.350757-2.363693 2.474625-25.326503-0.486392-25.5057l0.093865-2.440492 12.031795-1.800503c2.73062-0.409593 10.163027 1.041049 10.444623-1.996766l3.669271-0.093865z" fill="#C3CCCA" /><path d="M865.384762 192.201867c1.356777 14.301624-15.129343 7.927332-12.36459 18.764481l-2.227162-4.454324c-0.494925-0.998383-2.850085-1.621306-3.984999-1.749304l4.300727-1.9285 7.432407-3.34501c1.774903-0.80212 3.498607-3.498607 6.434024-7.637204-2.16743-1.894368-0.682655-0.597323 0.409593 0.349861z" fill="#DF9449" /><path d="M103.063849 417.776701l-14.011495 43.817922c-1.681038 5.256444-2.406359 8.507589-2.986616 12.296324l-1.945567 12.671785-2.124764 13.91763-1.399443 10.436089c-0.511991 3.788736-1.459175 9.139045-1.510374 12.270725l-0.708255 40.507045c-0.127998 7.295876 0.665589 14.898947 1.416509 22.21189l2.090631 20.300455 2.082098 20.283388c1.348244 13.132577 2.909817 24.549983 5.819635 37.179102l3.746069 16.255724 6.485224 26.026224 3.404742 13.013112 6.749752 21.358571 11.272341 32.050655c2.235695 6.357225 4.71032 13.311774 7.49214 19.088743l17.04931 35.46393c6.869217 14.284557 17.382105 31.675195 27.007541 43.911787l13.362973 16.972512c5.845234 7.432407 12.876581 14.037095 20.104192 20.317522 3.259678 2.833019 7.381208 7.074013 10.581153 9.070779l17.655167 10.99928c10.922481 6.800951 42.000353 17.749032 54.646538 20.300455l20.334588 4.104463c3.848468 0.77652 8.225994 1.356777 12.091528 1.809036l16.315456 1.937034 14.438155 1.646905 19.728731 1.834636 14.591752 1.15198 18.081826 1.237312 48.698906 2.090632 115.522304 0.37546 18.559685-0.77652 40.029186-1.698105 16.605585-1.092248 16.477586-0.981317c30.565881-1.817569 66.746599-6.613221 95.73384-16.289856l21.315905-7.125212c1.510374 0.008533 5.8879-0.059732 7.423874-0.878919l7.952931-4.266594 17.510103-9.403573c2.227162-1.194646 6.519356-4.599389 9.053712-6.47669 7.406807-5.48684 13.968829-11.084612 19.071676-17.518636 1.757837-2.210096 4.292194-4.932183 6.835084-7.312942l7.355609-6.87775c-3.293811 14.165093-12.082995 16.665317-18.977811 25.69343l-9.693702 12.671784c-2.321027 3.037815-12.36459 4.30926-14.002962 7.799335-0.61439 1.305578 1.723704 6.050031 3.140213 5.853767l5.188178-0.716788c0.085332-0.008533 0.18773 1.55304 0.110932 1.655439-0.878918 1.245845-2.841552 4.744453-1.749304 4.915116l3.703404 0.597323c1.996766 0.324261 5.205245 0.37546 5.401508 1.663972l0.725321 4.701787c0.21333 1.382377 2.662355 3.959399 3.575406 4.437258-1.621306 6.604688-18.619417 7.662803-16.016794 9.966764l-7.568938 3.780202-12.637652 5.870834-6.229228 2.423425-4.070331 1.561574c-9.744901 0-16.579985 8.012664-23.935593 9.463305l-14.770949 2.909818-3.609539 2.013832-2.030898 0.093865-32.724778 0.051199-24.293987-0.264528-49.757021 0.759453-7.074013 1.186113-54.339344 0.759454-8.396657 1.237313-36.402581 0.605856c-22.843345 0.37546-44.645641-0.059732-67.224458-1.151981l-40.233983-1.9541-18.184225-1.459175-30.557347-2.679421-16.27279-1.646905-16.102127-2.133297-32.391982-5.11138-35.984456-5.520973c-7.492139-1.15198-15.649867-3.916733-23.15054-5.879367l-13.738433-3.592472c-9.070779-2.372226-17.603968-6.698553-24.677981-11.391807l10.291026 0.110932c2.005299 0.017066 8.891582-2.431959 8.097995-4.189796-1.442109-3.217012-5.11138-6.45109-8.328392-9.249976l5.572172-4.437258c1.36531-1.092248 0.58879-6.425491-1.12638-6.843617-16.921312-4.172729-6.254827-2.94395-16.605585-13.738433l-15.001345-15.641334-9.523038-4.676187c-3.626605-11.920864-8.174794-10.163027-13.721367-19.899396l-6.724152-11.792866c-1.331177-2.338094-7.116679-6.340159-7.969998-8.772118l-5.811102-16.503186c-1.134914-3.225545-5.068714-8.191861-6.340159-11.101678l-5.614837-12.816849c-5.239378-11.96353-3.993532-6.459624-11.332075-23.543066l-4.795651-11.169944c-9.63397-22.433752-5.043114-3.925267-9.65957-22.331354-4.846851-19.302072-6.911883-23.508934-12.501121-45.968285l-5.640437-22.664149-3.780202-6.707086c-1.20318-8.908649-2.013832-17.356505-4.215396-25.591031l-2.909817-10.845683-3.421808-16.323989c-0.469325-2.244229-0.460792-7.270276-0.554658-10.052096l-0.341327-10.376357-0.110932-14.002962-1.186113-31.265602c-0.511991-13.550703 2.346627 0.221863 1.237313-23.270005-0.264529-5.520973 0.469325-24.814512 1.117847-30.267219l1.723704-14.617351c0.520524-4.403125 1.459175-9.412107 2.295428-13.644569l4.539656-23.073741c1.220246-6.186562 3.839935-12.373123 5.72577-18.371954l4.804185-15.325607c-2.474625 7.893199 9.642503-25.556899 6.954548-14.728283 0.051199 2.193029 0.409593 6.357225-0.221863 8.345458zM347.095969 992.333338c0.383993 3.967933 0.238929 10.913948-0.409593 17.126109l-19.438603 1.262912c-3.208479 0.204797-9.343841-5.162579-9.096379-8.328392l1.20318-15.06961c5.956165 0.255996 10.478755 0.341328 13.738433 1.220245l14.002962 3.788736z" fill="#E7E8DF" /><path d="M784.012278 976.845601c-4.138596 9.360908-11.690468 3.165813-10.845682 11.332074 1.066649 10.333691-14.148026 1.399443-20.812446 2.030899l-10.657953 1.01545 3.609539-2.013833 14.770949-2.909817c7.355608-1.450642 14.190692-9.463306 23.935593-9.463306zM739.665299 991.326422c-0.452259 0.819186-3.788736 1.911434-6.007365 2.090631l-15.837598 1.237312c-1.732237 0.136531-6.357225-0.836252-8.763584-1.220246l-2.116231-2.056498 32.724778-0.051199zM794.311837 972.852069c-1.262912 1.143447-4.002065 2.090631-6.229228 2.423426l6.229228-2.423426z" fill="#C3CCCA" /><path d="M891.675516 62.480338c5.08578 1.689571-15.180542 13.098444-15.103744 13.064311-5.375909 2.32956-11.818466 4.880984-17.621034 6.87775l-12.12566 4.172729c-3.899667 1.339711-8.277193 2.670888-12.142727 3.703404l-14.788016 3.925266c-9.719302 2.577023-19.5922 4.787119-29.780827 6.553489l-13.857898 2.397826-47.726122 7.398274c-8.21746 1.271445-17.6637 1.442109-26.128623 1.996766l-23.688131 1.561574-16.144792 0.930117-26.205422 0.375461-24.67798 0.025599-12.193926 1.57864-70.740132 1.20318-82.404999 0.810653-7.236144-0.930118-40.268116-1.467708-18.03916-1.41651-12.535254-0.972783-34.934873-2.022366-27.690196-1.450642c-4.974849-0.264529-11.144344-1.006916-16.195991-1.757837l-14.258958-2.133297-14.361356-2.193029-9.787567-1.356777-26.930743-5.077247-23.909993-4.505524c-3.575406-0.674122-8.353991-1.297045-11.195543-2.107697l-18.508486-5.32471-15.385339-4.846851c-13.960296-4.403125-17.040777-16.230124-26.009158-8.908648 4.624988-38.774808 139.381098-57.957415 171.679217-61.575487l38.049486-4.258061 27.596332-2.338094 34.457014-1.988233 50.82367-1.314111C489.233287 0.145397 525.576136-0.571391 563.139231 0.631789l54.825735 1.757837 36.419648 2.210095 26.427285 1.783437 20.266322 1.774903 52.811902 6.220694c17.731965 2.090631 34.986072 5.904966 52.24018 10.069162l16.579984 4.002066c18.073293 4.360459 42.427012 13.038712 58.213411 22.817745 4.266594 2.645288 8.174794 7.287343 10.751818 11.195543z" fill="#F5C17F" /><path d="M636.36252 115.454371l-2.099164 1.945567-26.299286 0.648522c-2.713554 2.449025-2.38076 10.026496-0.511992 13.149644l8.618521 14.421088 6.954548 11.613669 8.26866 13.217909c1.638372 2.619689 1.501841 10.982213 3.933799 12.629119l10.145961 6.911882-29.840559 0.674122-1.851702 1.689571-32.741844-0.153597c-2.850085-0.017066-9.241443 3.865534-12.134194 4.053264-18.218357 1.194646-39.628127 1.186113-57.940348-0.18773-7.321476-0.546124-13.721367-1.314111-20.710049-1.36531l-66.934329-0.494925-16.204525-0.904518-32.434648-1.425042-26.401685-1.971167-28.432584-2.124764-18.218357-1.245845c-6.212161-0.426659-12.134194-0.895985-18.124492-1.604239l-18.41462-2.175964-31.649596-3.490074c-14.53202-1.604239-28.739778-3.805802-43.297397-6.562021l-16.016795-3.029282c-2.986616-0.56319-7.782268-0.861852-9.753434 0.554657-7.423874 5.341776 1.041049 16.571452-4.624988 18.25249l-1.245846-8.311326c-0.580257-3.848468 3.498607-7.46654 2.670888-14.113893-0.247462-1.9797-33.142904-9.309708-33.586629-42.572077l-0.58879-44.389645c-0.017066-1.493308 1.723704-5.717236 2.193029-6.52789 8.959848-7.321476 12.040329 4.514057 26.009158 8.908649l15.385339 4.846851 18.508485 5.32471c2.841552 0.819186 7.620137 1.433576 11.195543 2.107697l23.909994 4.505524 26.930743 5.077247 9.787567 1.356777 14.361356 2.193029 14.258957 2.133297c5.051647 0.750921 11.212609 1.501841 16.195992 1.757837l27.690196 1.450642 34.934873 2.022365 12.535254 0.972784 18.03916 1.416509 40.268116 1.467709 7.236143 0.930117 82.405-0.810653 70.740131-1.203179 12.193927-1.57864 24.67798-0.0256z" fill="#EDA95F" /><path d="M613.681306 192.363998l20.650316 0.460792c4.787119 0.110931 11.40034-1.314111 16.136259-1.518908l32.153053-1.348244 6.937483-0.494924 21.597499-1.740771 20.41992-1.638372 16.102126-1.271445 46.616808-3.643672c8.763584-3.029282 17.057843-4.394592 26.350486-5.077247 28.466716-2.082098 19.566601-6.160962 37.699626-7.219077 1.9541-0.110931 5.358842 5.742836 5.375909 7.688403l0.068265 12.142727 1.945567-6.306026c1.937034 2.269828 1.476242 7.074013-0.349861 9.7961-1.092248-0.947184-2.56849-2.244229-0.409593-0.349861-2.935417 4.138596-4.650588 6.835084-6.434024 7.637204l-7.432407 3.345009-4.300727 1.928501-3.669271 0.093865-8.746518-0.37546-1.698104 2.372226-12.031796 1.800503-14.549086 1.655438-3.575406 2.338094-2.030899 0.093865c-2.815952 0.127998-6.553489 0.349861-9.855832 0.759454l-14.625885 1.851702-14.50642 1.834635-1.877302 1.655439-3.541273 0.051199-20.240722 0.392527-14.583219 2.14183-14.148027 1.501841-16.204524 1.501841-12.697385 1.894368c-3.797269 0.56319-8.294259 0.844786-11.716067 1.126381 0.819186-1.945567 3.50714-3.925267 5.520973-4.266594l18.858346-3.225546 12.646185-2.201562-5.026048-16.238658c-6.510823-1.851702-10.666485-3.421809-16.323989-4.531123-11.195543-2.201563-29.593097 2.261295-38.382281 11.323541l-7.978531 8.234527-11.818466 12.219526-26.589415 0.844785c-1.570107 0.051199-4.599389 0.878918-6.160962 1.254379l-172.208274 0.093865-10.017963-0.870385-26.341953-1.672505-22.408152-1.732237-24.157456-1.988233-26.452884-2.321027-20.249256-1.996766-18.030627-1.937034-14.540553-1.749304-42.316081-5.828167c-0.452259-0.469325-4.232461-1.79197-6.05003-2.082098l-19.984728-3.242612c-4.377526-0.708255-9.651036-2.585556-15.163475-4.138596l-1.220246 3.438875-5.367376-3.857001c-3.353543-2.406359-6.297493-8.234527-7.133745-12.484055 5.666037-1.672505-2.798886-12.902181 4.624988-18.25249 1.971167-1.416509 6.758285-1.117848 9.753434-0.554657l16.016795 3.029282c14.566152 2.75622 28.765378 4.957782 43.297397 6.562022l31.649596 3.490074 18.41462 2.175963c5.990298 0.708255 11.912331 1.17758 18.124492 1.604239l18.218358 1.245846 28.432583 2.124763 26.401685 1.971167 32.434649 1.425042 16.204524 0.904518 66.93433 0.494925c6.988681 0.051199 13.388573 0.819186 20.710048 1.36531 18.312222 1.36531 39.713459 1.373843 57.940349 0.187731 2.892751-0.18773 9.284109-4.061798 12.134193-4.053265l32.741844 0.153598z" fill="#C87A2E" /><path d="M865.734623 182.405767l-1.945567 6.306026-0.068265-12.142727c-0.008533-1.945567-3.413275-7.799334-5.375909-7.688403-18.133025 1.058115-9.23291 5.136979-37.699626 7.219078-9.284109 0.682655-17.586901 2.047965-26.350486 5.077247l-46.616808 3.643671-16.102126 1.271445-20.41992 1.638372-21.597499 1.740771-6.937483 0.494925-32.153053 1.348243c-4.73592 0.196263-11.34914 1.621306-16.136259 1.518908l-20.650316-0.460792 1.851702-1.689572 29.840559-0.674121-10.145961-6.911883c-2.423425-1.655439-2.286894-10.00943-3.933799-12.629119l-8.26866-13.217908-6.954548-11.61367-8.618521-14.421088c-1.868768-3.123147-2.193029-10.709151 0.511992-13.149643l26.299286-0.648523 2.099164-1.945567 26.205422-0.37546 16.144792-0.930117 23.688131-1.561574c8.464923-0.56319 17.911162-0.725321 26.128623-1.996766l47.726122-7.398274 13.857898-2.397826c10.188627-1.76637 20.052993-3.976466 29.780827-6.553489l14.788016-3.925266c3.865534-1.023983 8.24306-2.35516 12.142727-3.703404l12.12566-4.172729c5.802568-1.996766 12.245125-4.556723 17.621034-6.87775-0.085332 0.034133 20.189524-11.383273 15.103744-13.064311 3.404742 5.179645 6.246294 13.234975 6.195094 20.479652l-0.255995 38.902805c-0.068266 10.862749-4.582322 22.442285-11.571004 30.685346-2.201563 2.594089-7.150812 5.802568-10.035029 7.594537l-12.219526 7.577471 1.945567 14.677084zM843.13874 204.848052c-0.281595 3.037815-7.705469 1.587173-10.444622 1.996766l1.698104-2.372226 8.746518 0.37546z" fill="#DF9449" /><path d="M820.662322 208.645321l-0.093865 2.440492c-2.670888 0.085332-6.050031 0.255996-9.198777 0.597323l-8.83185 0.955717 3.575406-2.338094 14.549086-1.655438zM800.515465 212.732718c0.145064 0.264529-3.089014 1.928501-4.130064 2.065032l-10.393423 1.373843-9.992364 1.254379c-5.802568 0.725321-11.204076 1.339711-16.341055 1.416509l1.877301-1.655439 14.50642-1.834635 14.625885-1.851702c3.293811-0.418126 7.031347-0.639989 9.855833-0.759454z" fill="#F0D264" /><path d="M214.567021 210.855417c-4.010599-0.554657-11.605136-0.059732-16.503186 0.102398 2.534357 13.508037-5.102847 14.31869-0.998383 21.990026 1.186113 2.218629 5.896433 4.155663 8.78065 4.599389l14.412555 2.218629 12.39019 1.843168 14.156559 2.039432 17.970895 2.175964 20.616183 2.107697 8.132129 1.023983c4.112997 0.520524 8.550255 1.271445 12.304857 1.535974l24.11479 1.698104 22.348421 1.826102 16.144792 1.220246 28.500849 1.535974 64.502371 1.339711 8.302792 1.17758 89.948338-0.887452 33.339167-0.793586 0.460792 11.997662c0.017066 0.503458 0.0256 1.518908 0 2.030899l-0.742387 17.373572-1.117848-1.126381-38.638277 0.844785-28.304585 0.622923-34.52528 0.375461-28.534982 0.034132c-6.869217 0.008533-14.241891-0.238929-21.827896-0.716788l-12.52672-0.785053-29.132305-1.612772-23.5772-1.715171-24.32812-1.868769-18.320755-1.399442-18.22689-1.672505-14.037095-1.587173-30.480549-2.500225c-5.461241-0.443726-10.97368-1.032516-16.349589-1.860235l-12.236592-1.877301-24.276921-3.822868-14.395488-2.175963-14.472288-2.227163c-6.766818-1.041049-14.634418 5.11138-20.070059 9.181711l-24.54145 18.371954c-2.500224 1.877301-6.758285 5.264977-8.516122 7.150812l-9.045179 9.676636-13.610436 14.933079c-13.678701 15.009878-17.885563 26.845411-25.275303 37.255901l-6.613221 9.318241c-0.733854 1.032516-2.133297 5.188179-2.764753 6.382825-3.430342 5.785502-6.937482 12.253658-9.60837 18.602351l-4.787119 11.408873c-2.107698 5.017515-4.607922 10.444623-6.135363 15.564535l-6.084163 20.428453c-4.240995 14.250425-10.649419 51.796453-11.664868 66.848998l-1.76637 26.265153c-0.426659 6.340159-0.255996 13.644568-0.008533 20.189524l0.767986 20.274855 1.305578 27.775528c0.18773 4.036198 1.322644 9.284109 1.894368 13.490971l4.386059 32.519981 4.138596 23.636932 2.389293 14.395488c2.474625 14.90748 16.136259 60.756301 21.708431 74.93846l7.048414 17.928229 4.138596 10.401957-3.814335-2.619689c-1.544507 0.947184-4.070331 2.961016-5.222311 2.252762l-4.462858-2.75622c-1.339711-0.827719-4.240995 0.861852-6.10123 1.757837l-4.983382-3.020749c-6.519356-17.672233-13.192309-35.472464-18.363421-54.586806-5.179645-19.148475-10.086229-37.580161-13.362973-57.08703-6.220694-37.102303-9.591304-73.38542-11.135811-111.144778-1.937034-47.435994 4.403125-101.169481 18.354889-146.216182 3.916733-12.629119 7.731069-24.959576 13.345906-36.948706l8.686786-18.534085c4.889517-10.436089 10.308092-20.163924 16.989578-29.635763 29.832026-42.333147 44.423778-52.675372 85.246551-82.908458 2.892751-2.14183 10.59822-7.193478 10.99928-10.837149 1.092248-9.992364 1.186113-23.688131 1.20318-33.731694l1.220246-3.438874c5.51244 1.544507 10.78595 3.430342 15.163475 4.138596l19.984727 3.242611c1.817569 0.290128 5.597772 1.612773 6.050031 2.082098z" fill="#C5CFCB" /><path d="M461.645489 289.753276l1.800503 2.133297 20.855112 0.290129c3.379143 0.051199 5.828168-0.110931 11.724601-0.486392 0.034133-0.409593 2.841552 5.836701 3.259678 8.251593l3.524207 20.274855c0.597323 3.421809 1.484775 10.512888 1.52744 13.16671l-12.765649 5.8623c-1.988233 0.913051-6.937482 0.230396-7.748135-0.870385 1.510374-0.392527 5.819634-1.885835 7.278809-3.063414l7.884666-6.348693-2.815952-14.241891c-0.913051-4.633521-10.948081-6.809484-15.854664-6.741219l-44.645641 0.631456-12.74005-0.025599-32.485848-0.836253-15.888797-3.10608-34.559413-1.467709-16.067993-1.117847-14.591752-1.476242c-6.178028-0.622923-12.492588-1.638372-18.534086-1.962633l-29.738161-1.612773-17.85143-2.500224c-2.491691-0.349861-8.575854 1.800503-11.007813 2.645288-17.936762 6.246294-10.487288-0.051199-20.855112 4.974849l-10.325158 5.000449-10.521421 5.392975c-1.817569 0.930118-3.174346 6.732686-2.577023 8.686785 0.597323 1.9541 3.839935 4.889517 5.990298 5.546573l21.708431 6.630287c10.956614 3.34501 13.013112 5.29911 12.95338 10.768884l-0.273062 24.498783-19.506869 0.853319c-2.645288 0.119465-7.799334 1.425042-10.521421 1.826103l-16.144792 2.406359c-26.162755 3.899667 1.774903-6.391358-24.217189 5.503906l-4.428724 2.022366-17.416238 5.631904c-1.160514 0.37546-17.979428 8.592921-20.155391 9.907032-4.676187 2.824485-9.437706 8.524655-12.620585 12.646185 2.687954-10.828616-9.429173 22.621482-6.954549 14.728283l-4.804185 15.325606c-1.885835 6.007365-4.505523 12.185393-5.725769 18.371955l-4.539656 23.073741c-0.836252 4.232461-1.774903 9.241443-2.295428 13.644568l-1.723704 14.617352c-0.639989 5.461241-1.373843 24.746246-1.117848 30.267219 1.109314 23.491868-1.749304 9.719302-1.237312 23.270004l1.186113 31.265603 0.110932 14.002962 0.341327 10.376357c0.093865 2.781819 0.085332 7.807867 0.554657 10.052095l3.421809 16.32399 2.909817 10.845682c2.210096 8.225994 3.020749 16.682383 4.215395 25.591032l3.780203 6.707086 5.640437 22.664148c5.589238 22.450819 7.65427 26.666214 12.501121 45.968286 4.624988 18.406087 0.034133-0.102398 9.659569 22.331354l4.795652 11.169943c7.330009 17.083443 6.092696 11.579537 11.332074 23.543067l5.614838 12.816849c1.271445 2.909817 5.205245 7.876133 6.340159 11.101678l5.811101 16.503186c0.853319 2.431959 6.638821 6.434024 7.969998 8.772118l6.724153 11.792866c5.546572 9.727835 10.094762 7.978531 13.721367 19.899395l9.523038 4.676187 15.001345 15.641335c10.350757 10.78595-0.307195 9.565704 16.605584 13.738433 1.715171 0.426659 2.491691 5.759902 1.126381 6.843617l-5.572172 4.437258c3.217012 2.790353 6.87775 6.024431 8.328392 9.249976 0.793587 1.757837-6.092696 4.215395-8.097996 4.189795l-10.291025-0.110931c-16.938379-4.275127-40.242516-23.918527-52.385243-38.604144-21.827896-26.410218-41.445696-57.778218-55.841185-88.617161l-5.8623-12.560853-4.33486-9.727835-4.957782-12.76565-4.138596-10.401956-7.048414-17.928229c-5.572172-14.182159-19.24234-60.03098-21.708431-74.93846l-2.389293-14.395489-4.138596-23.636931L40.959304 617.043715c-0.571724-4.206862-1.698104-9.454773-1.894368-13.490971l-1.305578-27.775528-0.767987-20.274855c-0.247462-6.544955-0.418126-13.849365 0.008534-20.189524l1.76637-26.265154c1.015449-15.061077 7.423874-52.598573 11.664868-66.848997l6.084163-20.428453c1.527441-5.11138 4.027665-10.547021 6.135363-15.564536l4.787118-11.408872c2.662355-6.348692 6.178028-12.816849 9.608371-18.602351 0.622923-1.194646 2.030899-5.350309 2.764753-6.382825l6.613221-9.318242c7.381208-10.41049 11.58807-22.246022 25.275303-37.2559l13.610436-14.933079 9.045179-9.676636c1.76637-1.885835 6.015898-5.27351 8.516122-7.150812l24.54145-18.371954c5.435641-4.070331 13.294707-10.22276 20.070059-9.181711l14.472287 2.227162 14.395489 2.175963 24.276921 3.822869 12.236592 1.877301c5.375909 0.827719 10.888348 1.416509 16.349589 1.860235l30.480549 2.500224 14.037095 1.587173 18.22689 1.672505 18.320755 1.399443 24.32812 1.868768 23.5772 1.715171 29.132305 1.612773 12.52672 0.785053c7.577471 0.477859 14.950146 0.725321 21.827896 0.716788z" fill="#EDF4F2" /><path d="M592.749395 288.993822l-0.42666 17.399171-1.211712 27.937659-1.117848 10.069162-0.622923 16.127726c-4.514057 0.750921-10.367824 2.14183-14.062694 2.175963l-25.847028 0.273062-8.097995-2.124764-105.205679 0.051199c-20.60765 0.008533-17.040777 2.039432-35.190869 2.013833l-44.645641-0.059732-36.445248-0.034133c-1.732237 0-5.48684-2.653822-5.70017-3.635138 0.349861-0.750921 2.687954-3.234078 3.916734-3.788736l15.189075-6.886283 11.861132-5.384442c2.926884-1.331177 10.035029-3.848468 13.371506-3.984999 14.429621-0.605856 29.482166-1.501841 43.51926-1.331177l53.656689 0.648522 28.125389-0.102398c0.810653 1.100781 5.759902 1.783436 7.748135 0.870385l12.765649-5.8623c-0.034133-2.653822-0.930118-9.744901-1.52744-13.16671l-3.524207-20.274855c-0.418126-2.414892-3.225545-8.652653-3.259678-8.251594-5.896433 0.383993-8.345458 0.537591-11.724601 0.486392l-20.855112-0.290128-1.800503-2.133297 28.534982-0.034133 34.52528-0.37546 28.304586-0.622923 38.638276-0.844786 1.117848 1.126381z" fill="#EBEEEB" /><path d="M214.567021 210.855417l42.316081 5.828167 14.540553 1.749304 18.030627 1.937034 20.249256 1.996766 26.452883 2.321027 24.157457 1.988233 22.408152 1.732237 26.341953 1.672505 10.017963 0.870385c-1.049582-0.264529 2.193029 2.133297 3.225545 2.133297l156.191479 0.042666c4.693254 0 11.852599 1.570107 13.286175 4.155663 3.208479 5.776969 1.023983 14.267491 1.254378 20.326055l-33.339167 0.793586-89.948338 0.887452-8.302792-1.17758-64.502371-1.339711-28.500849-1.535974-16.144792-1.220246-22.34842-1.826102-24.114791-1.698104c-3.763136-0.264529-8.191861-1.015449-12.304857-1.535974l-8.132129-1.023983-20.616183-2.107697-17.970894-2.175964-14.15656-2.039432-12.390189-1.843168-14.412555-2.218629c-2.884218-0.443726-7.594538-2.38076-8.780651-4.599389-4.104464-7.671336 3.53274-8.490522 0.998383-21.990026 4.889517-0.153597 12.492588-0.648522 16.503186-0.102398z" fill="#E9F0EF" /><path d="M609.91817 352.566075c0.042666-2.039432-0.699721-6.493756-1.809036-8.183327l-7.210544-11.007813c1.006916-5.060181-2.124764-2.833019-4.002066 0.281595-6.306026 14.967212 0.571724 31.726394-6.758285 32.00799l-15.129343 0.58879-25.4801 0.913051-7.884666-2.19303-99.582308-0.145064c-21.844962-0.034133-20.01886 1.638372-41.283565 1.894368l-46.13895 0.537591-10.291025 1.809036-18.636483-0.23893c-4.73592-0.059732-14.813615 0.827719-18.278089 3.609539-4.462858 3.575406-10.111828 9.343841-12.825383 13.456838l-8.02973 12.15126-2.440492 10.700618c-0.452259 1.996766-2.611156 6.553489-2.961016 8.550255l-2.534357 14.404022c-0.349861 1.996766-0.315728 5.742836-0.307195 8.524655l-4.343393 9.053713-25.29237 1.297045c-1.194646 6.783885-1.9541 14.779482-1.314111 21.315904l1.442109 14.685617 1.612773 16.170392 1.774903 14.694151c0.537591 4.428725 0.358394 9.685169 0.716788 13.7299l1.450642 16.161858c1.058115 11.758734 0.733854 22.450819 0.315728 35.122604-0.179197 5.469774-6.254827 14.745349-10.657953 18.909545-4.394592 4.155663-17.749032 7.662803-23.636931 2.764753 5.981765 0.119465 14.600285-0.366927 19.99326-4.531123 14.634418-11.323541 13.576303-33.014906 11.852599-49.748488l-1.297045-12.594986-1.254379-12.484055-1.629839-17.629567-1.17758-12.466988-1.382376-14.625885c-1.023983-10.862749-0.887452-22.544684-0.18773-33.637828l0.793586-12.569387 1.169047-14.002962 1.621306-16.750648c1.297045-13.465371 1.604239-6.69002 4.420191-25.838495 0.358394-2.414892 5.538039-8.157728 8.24306-8.115062l28.389918 0.418126c26.137156 0.383993 8.200394-5.290577 31.717861-4.932182l32.912507 0.503458 1.76637-2.235696 44.645642 0.059733c18.150092 0.0256 14.583219-2.005299 35.190868-2.013833l105.205679-0.051199 8.097996 2.124764 25.847028-0.273062c3.694871-0.042666 9.548638-1.433576 14.062694-2.175963l0.622923-16.127726 1.117847-10.069162 1.211713-27.937659 0.42666-17.399171 0.742387-17.373571 2.073565 1.76637 0.213329 37.281499c0.042666 7.236144 13.584836 15.888797 21.153774 15.666934l20.343121-0.597323c0.366927 4.215395 0.307195 8.917182-0.136531 13.687234l-1.587173 16.921313c-0.40106 4.266594-12.833915 8.225994-21.068442 0.503458l-4.573789-4.292194z" fill="#F8EF9D" /><path d="M756.117286 218.89368l-2.047966 1.996766-10.913947 1.356777-23.423602 1.459175-12.680318 1.681038-16.136259 1.749304-12.501121 1.100781c-11.912331 1.041049-22.672681 7.082546-24.029459 18.883946 0.639989-1.015449-2.295428 2.670888-2.286894 3.242612l0.614389 37.059637-0.418126 18.491419-0.093865 12.791249 2.005299 1.757837 0.264529 11.818466-0.102398 10.78595 1.791969 1.55304-0.085331 12.219526c-0.008533 1.39091 0.520524 4.855384 1.356776 5.836701 2.850085 3.31941 14.062694 3.549806 19.575135 3.686337l29.618696 0.725321 7.142279 1.476242 37.605761 0.96425c3.490074 0.085332 8.686786 0.955717 12.441389 1.322644l16.281323 1.595706 18.286622 2.022366 18.209824 2.14183 16.213058 2.047965 16.29839 2.047966c23.875861 2.995149 61.353624 8.883049 72.412636 32.955173l7.27881 15.846131c1.655439 3.592472 2.867151 10.504355 3.609539 14.497887-1.075182-1.126381-3.293811-4.33486-3.925267-6.07563l-5.529506-15.214675c-0.955717-2.645288-3.089014-8.703852-5.017515-10.837149-13.7043-15.189075-27.067273-20.761247-46.46321-22.903078-3.054881-0.955717-6.741219-1.783436-10.077696-2.099164-1.049582-0.554657-3.942333-1.36531-5.904966-1.60424l-14.984279-1.834635-13.789632-1.783437-16.187459-2.065031-16.204524-1.962633-13.909097-1.356777-12.466988-1.194647-14.608819-1.36531c-8.720918-0.819186-17.731965-0.691188-25.940892-0.699721l-1.809036-2.141831-16.102127 0.162131-7.116679-2.022366-18.986344 0.324262c-1.9797 0.034133-5.256444 0.443726-6.85215 0.298661l-19.378871-1.809036c-8.132128-0.759454-1.20318-28.193654-10.000896-32.212786-1.493308-0.682655-4.676187 2.901284-4.778586 4.582322l-0.691188 10.760351c-0.520524 8.149195-9.813167 12.944847-17.825831 12.296324-3.302344-0.264529-8.123595-1.698104-11.34914-3.31941-1.732237-0.870385-2.628222-5.410041-2.585556-7.364142l4.573789 4.292194c8.234527 7.722535 20.667382 3.763136 21.068442-0.503458l1.587173-16.921312c0.443726-4.770052 0.503458-9.463306 0.136531-13.687235l-20.343121 0.597324c-7.560405 0.221863-21.111108-8.439323-21.153774-15.666934l-0.21333-37.2815-2.073565-1.76637c0.0256-0.511991 0.017066-1.527441 0-2.030899l1.885835-1.501841 0.981317-8.396657c0.443726-3.780202 0.96425-8.038263 0.819186-11.443006l-0.622923-14.361356-5.27351-3.046348c1.561573-0.37546 4.590855-1.20318 6.160962-1.254379l2.739153 3.029282c1.36531 1.510374-0.486392 6.45109-0.494925 8.883049l-0.179197 64.621836 6.818018 9.113445c1.314111 1.757837 3.421809 4.445791 5.264977 5.879366 12.492588 9.727835 24.131857-4.906583 30.301352-13.226442l4.360459-5.879366 0.529058-42.930471c0.059732-5.102847 2.986616-13.439772 4.548189-19.438603 0.639989-2.466091 5.162579-6.800951 7.389741-7.995597l7.782268-4.189796c3.421809-0.281595 7.918799-0.554657 11.716067-1.126381l12.697385-1.894367 16.204524-1.501842 14.148027-1.501841 14.583219-2.14183 20.240722-0.392527z" fill="#F0D264" /><path d="M591.281686 230.848677l5.273511 3.046348 0.622923 14.361356c0.145064 3.404742-0.37546 7.65427-0.819186 11.443006l-0.981317 8.396657-1.885835 1.501841-0.460792-11.997663c-0.230396-6.058564 1.9541-14.549086-1.254379-20.326054-1.433576-2.585556-8.592921-4.155663-13.286174-4.155663l-156.191479-0.042666c-1.023983 0-4.275127-2.397826-3.225545-2.133297l172.208273-0.093865z" fill="#F8EF9D" /><path d="M830.543754 953.242802c-0.921584-0.469325-3.362076-3.054881-3.575406-4.437258l-0.725321-4.701786c-0.196263-1.279978-3.404742-1.339711-5.401508-1.663972l-3.703404-0.597323c-1.092248-0.179197 0.870385-3.669271 1.749304-4.915117 0.076799-0.110931-0.0256-1.672505-0.110931-1.655438l-5.188179 0.716787c-1.416509 0.196263-3.754603-4.548189-3.140213-5.853767 1.629839-3.490074 11.673402-4.761519 14.002962-7.799334l9.693702-12.671785c6.903349-9.01958 15.684-11.519804 18.977811-25.69343l3.10608-4.89805 12.023263-18.397554c2.056498-3.148746 4.428725-6.613221 6.306026-9.8217l15.87173-27.203804c1.399443-2.406359 3.003682-8.362525 4.351926-11.315008l5.67457-12.449922c3.498607-7.671336 6.186562-15.649867 8.900116-23.628398l3.635138-10.700618 6.493756-19.779931 6.587622-22.34842c1.279978-4.343393 1.100781-9.98383 2.210096-13.900564l4.693253-16.64825 4.565256-22.177757 2.193029-12.17686 2.184497-13.977362 1.988232-13.985896 1.851702-14.29309c0.691188-5.358842 1.39091-11.169944 1.774903-16.315456l2.039433-27.050207c0.708255-9.386507 0.955717-19.856729 0.247462-29.4651l-1.945567-26.640614c-0.307195-4.181262-1.006916-9.676636-1.843169-13.994429l-4.266594-22.058291-4.68472-19.822597-4.684721-16.921312c-0.733854-3.993532-1.9541-10.905415-3.609538-14.497887l-7.27881-15.846131c-11.059012-24.072124-48.536775-29.960024-72.412636-32.955174l-16.29839-2.047965-16.213058-2.047965-18.209824-2.14183-18.286622-2.022366-16.281324-1.595706c-3.754603-0.366927-8.951315-1.228779-12.441388-1.322644l-37.605761-0.964251-7.142279-1.476241-29.618697-0.725321c-5.503906-0.136531-16.716516-0.366927-19.575134-3.686338-0.844786-0.981317-1.373843-4.445791-1.356777-5.8367l0.085332-12.219526 0.315728-10.606753-2.013832-1.732237-0.264529-11.818466 0.238929-12.774183-2.14183-1.774903 0.418126-18.49142c1.723704-0.58879 5.068714-1.36531 7.364142-1.52744l18.679149-1.322644 16.102126-1.151981 26.444351-2.321027 18.22689-1.945567 18.371955-2.039432c4.420192-0.494925 9.719302-1.006916 14.071227-1.783436l64.775433-11.630736c6.758285 3.020749 14.762416 6.186562 20.462586 10.094762l19.122875 13.106977c15.453604 10.589687 39.875589 35.873524 49.978884 51.736721l10.291025 16.153325c16.161859 25.369169 31.188803 56.063047 37.503363 85.553747l9.412107 43.94592c2.491691 11.647802 2.431959 24.70358 4.172729 36.317249l1.092248 7.27881-0.0256 49.611957-0.981316 8.115062c0.98985 6.067097-1.442109 25.369169-2.35516 31.931191l-2.653822 19.148474c-5.597772 40.327848-8.524655 54.271078-19.660466 93.284815-0.930118 3.251145-1.868768 6.792418-2.858618 9.65957l-12.313391 35.634594c-2.773286 8.02973-5.452707 16.050927-8.712385 23.824662l-6.749752 16.102126c-2.577023 6.143896-5.555106 12.193926-8.567321 18.022094l-5.67457 10.965147-12.39019 23.935593-5.640437 10.239826-6.007365 10.726218c-2.116231 3.788736-7.44094 9.062246-10.376357 12.910714l-10.794483 14.15656c-8.865983 11.630736-29.857626 33.185569-42.444079 37.093769z" fill="#EAF0EF" /><path d="M820.568457 211.085813c2.952483 0.179197 10.837149 23.15054 0.486392 25.5057l-15.89733 3.626605c-5.623371 1.279978-11.178477 2.534357-16.998111 3.421808l-18.679149 2.858618c-6.007365 0.921584-13.277641 0.938651-19.720199 1.60424l-14.224825 1.476241-26.418751 2.286895-18.286622 1.561573-34.593546 2.483158-1.843169-8.797717c1.348244-11.801399 12.117127-17.842897 24.029459-18.883946l12.501121-1.100781 16.136259-1.749304 12.680318-1.681038 23.423602-1.459175 10.913948-1.356777 2.047965-1.996766 3.541273-0.051199c5.136979-0.076799 10.538488-0.691188 16.341056-1.416509l9.992363-1.254379 10.393424-1.373843c1.041049-0.136531 4.275127-1.800503 4.130063-2.065032l2.030899-0.093865 8.83185-0.955717c3.148746-0.341328 6.527889-0.511991 9.198777-0.597323z" fill="#E5EDED" /><path d="M666.527341 227.443935l-7.782268 4.189795c-2.227162 1.20318-6.749752 5.529506-7.389741 7.995598-1.561573 6.007365-4.488457 14.335756-4.548189 19.438603l-0.529058 42.93047-4.360459 5.879367c-6.169495 8.319859-17.808764 22.954277-30.301352 13.226442-1.843169-1.433576-3.950866-4.12153-5.264977-5.879367l-6.818017-9.113445 0.179197-64.621835c0-2.431959 1.860235-7.372675 0.494924-8.883049l-2.739153-3.029282 26.589415-0.844786 11.818466-12.219525 7.978531-8.234527c8.789184-9.062246 27.186738-13.525104 38.382281-11.323541 5.648971 1.109314 9.804633 2.679421 16.323989 4.531123l5.026048 16.238657-12.646185 2.201563-18.858346 3.225545c-2.013832 0.341328-4.701787 2.321027-5.520973 4.266594z" fill="#F9C524" /><path d="M483.831779 338.36685l-28.125389 0.102398-53.656688-0.648522c-14.037095-0.170664-29.089639 0.725321-43.519261 1.331177-3.336477 0.136531-10.444623 2.653822-13.371506 3.984999l-11.861132 5.384442-15.189075 6.886283c-1.228779 0.554657-3.566873 3.037815-3.916733 3.788736l-9.830233 3.626605c-7.790801-2.133297-16.88718-6.084163-25.326503-9.275576l-12.612053-4.761519c-1.416509-0.093865-6.485223 3.413275-7.500672 5.666037-9.941164 22.058292-10.913948 13.618969-17.774632 31.641062l-5.128446 0.383994-7.705469-17.859963 0.273062-24.498784c0.059732-5.469774-1.996766-7.423874-12.95338-10.768884l-21.708431-6.630287c-2.150363-0.657056-5.392975-3.592472-5.990298-5.546572-0.597323-1.9541 0.767987-7.756668 2.577023-8.686786l10.521421-5.392975 10.325158-5.000449c10.376357-5.026048 2.926884 1.271445 20.855112-4.974848 2.440492-0.844786 8.516122-2.995149 11.007813-2.645289l17.85143 2.500224 29.738162 1.612773c6.041497 0.324261 12.356057 1.339711 18.534085 1.962633l14.591752 1.476242 16.067993 1.117848 34.559413 1.467708 15.888797 3.106081 32.485848 0.836252 12.74005 0.0256 44.645641-0.631456c4.906583-0.068266 14.941613 2.107698 15.854664 6.741218l2.815953 14.241892-7.884666 6.348692c-1.450642 1.169047-5.768435 2.670888-7.27881 3.063414z" fill="#FBFDFC" /><path d="M314.191995 359.196363c0.21333 0.981317 3.967933 3.635138 5.700169 3.635138l36.445248 0.034133-1.76637 2.235695-32.912508-0.503458c-23.517467-0.358394-5.580705 5.316176-31.717861 4.932183l-28.389917-0.418126c-2.696488-0.042666-7.884666 5.708703-8.24306 8.115062-2.815952 19.148475-3.114614 12.36459-4.420192 25.838494l-1.621305 16.750649-1.169047 14.002962-0.793587 12.569386c-0.699721 11.093145-0.836252 22.77508 0.18773 33.637829l1.382377 14.625885 1.17758 12.466988 1.629839 17.629567 1.254379 12.484054 1.297044 12.594986c1.723704 16.733582 2.781819 38.416414-11.852598 49.748488-5.392975 4.172729-14.002962 4.659121-19.993261 4.531123l-8.746518-7.278809c-7.560405-6.28896-6.067097-36.112453-5.000448-44.893104l1.809036-14.90748c0.443726-3.686337 1.220246-8.447856 1.996766-11.630736l4.855384-19.933528 1.706638-10.291025 4.676187-18.124492c0.836252-3.225545 2.841552-8.089463 2.841552-10.777417 0.861852 16.434921 3.797269-34.994605 3.729003-22.015626l0.349861-63.444255c0.017066-2.670888-1.843169-8.132128-4.078864-9.053713-2.244229-0.921584-7.295876 0.179197-10.265426 0.460792l-15.914396 1.518908c-3.490074 0.332794-8.294259 1.143447-11.920864 1.843168l-12.262192 2.372227-11.280875 2.184496c-3.003682 0.580257-6.835084 0.938651-9.403574 1.109314l4.428725-2.022365c26.000625-11.895265-1.945567-1.604239 24.217189-5.503907l16.144792-2.406359c2.722087-0.40106 7.876133-1.715171 10.521421-1.826102l19.506869-0.853319 7.705469 17.859963 5.128446-0.383993c6.860683-18.022094 7.833467-9.582771 17.774631-31.641063 1.015449-2.252762 6.084163-5.759902 7.500673-5.666037l12.612052 4.761519c8.439323 3.182879 17.535702 7.142279 25.326503 9.275576l9.830233-3.626605z" fill="#FCFCDD" /><path d="M224.533785 466.279343v-10.137427l-0.750921-10.956614 0.682655-13.422706 0.196264-50.704205c0-0.878918-0.554657-3.754603-1.117848-4.30926-0.844786-0.819186-3.473008-1.305578-5.000448-1.15198l-18.645017 1.877301c-2.423425 0.247462-32.97224 6.032964-36.445247 6.963082l-14.293091 3.848468c-16.597051 4.471391-36.90604 13.311774-44.116584 27.604864l-1.988232 1.877302c0.639989-1.988233 0.273062-6.152429 0.221862-8.345459 3.182879-4.130063 7.944398-9.8217 12.620586-12.646185 2.16743-1.314111 18.994877-9.531571 20.155391-9.907031l17.416237-5.631905c2.56849-0.170664 6.391358-0.529058 9.403574-1.109314l11.280875-2.184496 12.262191-2.372227c3.635138-0.699721 8.439323-1.510374 11.920865-1.843168l15.914396-1.518908c2.96955-0.281595 8.021197-1.373843 10.265425-0.460792 2.244229 0.921584 4.09593 6.382825 4.078864 9.053713l-0.34986 63.444255c0.068266-12.978979-2.867151 38.450547-3.729004 22.015626z" fill="#F8F098" /><path d="M609.91817 352.566075c-0.042666 1.945567 0.853319 6.493756 2.585556 7.364142 3.225545 1.621306 8.046797 3.054881 11.34914 3.31941 8.012664 0.648522 17.296773-4.14713 17.825831-12.296324l0.691188-10.760351c0.110931-1.681038 3.285278-5.264977 4.778586-4.582322 8.797717 4.019132 1.868768 31.453332 10.000896 32.212786l19.378871 1.809036c1.595706 0.145064 4.872451-0.264529 6.85215-0.298661l18.986344-0.324262 7.116679 2.022366 16.102127-0.162131 1.809036 2.141831-46.736273-0.085332c-26.06889-0.042666-27.579265 6.928949-30.275752-4.693254-1.20318-5.188179-7.756668-7.159345-12.876581-4.275127-14.668551 8.26866-26.316353-4.573789-34.499681-4.71032-7.696936-0.127998-1.450642 18.909545 8.900116 22.783613 13.584836 5.08578 15.794932 3.549806 26.077423-0.221863l12.526721 4.556722c5.67457 6.911883 5.179645 22.382553-1.672505 30.472016-4.377526 5.154046-17.194375 5.896433-16.86158 11.912331 0.102398 1.868768 4.300727 4.667654 6.135362 5.026048l16.707983 3.276744c13.798166 2.705021 17.911162-1.57864 30.796277 4.889517l-5.776969 10.854216c-1.006916 1.885835-12.458455-0.452259-11.221143 3.34501l-24.643848-0.042666-1.877301 1.945567-11.605136 0.119464-41.172634-0.025599-1.9797 1.885834-3.72047 0.093865-142.239716-0.034132-13.883498-0.0512-2.065031-1.9285-63.16266 0.136531-7.756668-0.204797-1.783437-1.945567h-14.856281l-5.666037-0.085331-1.902901-1.843169-28.833643-0.145064-16.016795-0.179197c-0.341328-0.674122-4.693254-2.35516-6.485223-2.013833l-27.101406 5.060181c-0.895985 3.865534-2.645288 10.316625-2.338094 13.320307l1.902901 18.389021 1.484775 14.224825 1.518908 12.466988c0.37546 3.106081 1.919967 7.295876 2.013832 10.00943l0.563191 16.016794-2.35516-5.964698c-0.725321-1.834635-1.570107-3.916733-1.698105-4.172729-0.366927-4.044731-0.18773-9.301175-0.716788-13.7299l-1.774903-14.694151-1.612772-16.170392-1.442109-14.685617c-0.639989-6.536422 0.127998-14.53202 1.314111-21.315904l25.29237-1.297045 4.343393-9.053713c0-2.773286-0.042666-6.527889 0.307195-8.524655l2.534357-14.404022c0.349861-1.996766 2.508757-6.553489 2.961016-8.550255l2.440492-10.700618 8.02973-12.15126c2.722087-4.112997 8.362525-9.881432 12.825382-13.456838 3.464474-2.781819 13.550703-3.669271 18.27809-3.609539l18.636483 0.23893 10.291025-1.809036 46.138949-0.537591c21.256172-0.247462 19.43007-1.919967 41.283566-1.894368l99.582307 0.145064 7.884666 2.19303 25.480101-0.913051 15.129343-0.58879c7.330009-0.290128 0.452259-17.040777 6.758285-32.00799 1.885835-3.114614 5.008982-5.341776 4.002065-0.281595l7.210544 11.007813c1.109314 1.689571 1.851702 6.143896 1.809036 8.183327z" fill="#FCE23A" /><path d="M224.533785 466.279343c0 2.687954-2.005299 7.551872-2.841552 10.777417l-4.676187 18.124492-1.706638 10.291025-4.855384 19.933528c-0.77652 3.182879-1.55304 7.944398-1.996766 11.630736l-1.809036 14.90748c-1.066649 8.780651-2.559957 38.604144 5.000448 44.893104l8.746518 7.27881c5.8879 4.89805 19.24234 1.39091 23.636932-2.764753 4.403125-4.164196 10.478755-13.439772 10.657952-18.909546 0.418126-12.671785 0.742387-23.355336-0.315728-35.122603l-1.450642-16.161859c0.127998 0.255996 0.972783 2.338094 1.698105 4.172729l2.35516 5.964699 1.373843 14.728283c0.870385 9.267043 2.201563 28.492316-3.012215 36.803641-9.480372 15.129343-26.572348 23.107874-42.828073 11.246743-9.651036-7.03988-13.405639-28.739778-11.434472-42.495278l4.778586-33.279435c0.247462-1.706638 1.493308-5.495373 1.937033-7.270276l6.604688-26.538216c0.273062-1.092248 0.827719-4.09593 0.930118-5.213778l0.622922-6.937482 6.621754-20.20659 1.962634-5.998832v10.137428z" fill="#F7E16E" /><path d="M861.39123 386.869493c3.336477 0.315728 7.031347 1.134914 10.077696 2.099164 5.043114 9.113445-4.33486 11.622203 0.332794 38.390814 3.797269 21.810829-6.323093 8.157728 0.085332 23.730797 3.123147 7.594538 3.737536 15.794932 3.635138 23.406536-5.188179-1.348244 1.425042-9.924098-9.523038-16.281324l-14.822148 2.261295-14.497887 2.099165-15.837598 2.082097-16.469053 1.902901-24.507317 3.447409c-5.452707 0.767987-13.371506 1.638372-15.009878 7.799334l1.228779 12.680318 1.399443 10.470222 2.124763 15.991195 1.996766 16.289856 0.153598 14.753883 0.264529 77.984808-1.860235 14.728283-1.587173 12.091528-1.79197 12.279258-2.389293 16.409321c-0.145064 11.238209-2.389293 21.239106-3.583939 32.605313l-1.76637 16.776248-3.814335 17.066377c-0.80212 3.592472-3.259678 10.57262-3.276744 14.301623l-0.102399 33.808493 9.915565 10.820082c1.74077 1.902901 7.167878 6.178028 9.693702 6.843618 8.439323 1.834635 19.788464 1.032516 28.910442 0.017066 12.449922-1.39091 6.169495-3.447408 19.45567-19.634866 2.107698-2.56849 4.437258-4.92365 7.159345-7.330009-1.143447 2.764753-2.935417 6.416958-4.795652 9.326775l-5.461241 8.524655-5.691636 8.900115c-1.843169 2.875684-4.624988 6.715619-6.792418 9.164644l-6.741219 7.620138-14.207758 16.08506c-8.123595 9.198777-10.538488 11.425939-19.583668 19.293539l-14.156559 12.321923c-2.824485 2.466091-7.577471 5.495373-10.931014 7.125213l-17.569835 8.524655c-18.312222 8.883049-37.733759 12.134194-57.428358 15.684l-25.625164 4.616455c-3.524207 0.631456-8.490522 1.049582-11.929398 1.279978l-10.163027 0.665589-20.641783 1.356777c-29.772294 1.962633-58.947265 3.396209-88.932888 0.861852l-12.023263-1.01545-34.31195-1.314111-12.57792-1.143447c-4.974849-0.452259-9.838766-0.691188-14.335756-1.36531l-42.39288-6.365758c-3.413275-0.511991-7.150812-1.382377-10.436089-2.082098l-14.395489-3.089015c-22.433752-4.812718-46.335213-13.200842-61.874149-29.857626l-11.033412-11.818465c-5.555106-5.956165-8.661186-12.637652-13.559236-19.225274l-11.98913-16.144792c-5.802568-7.816401-9.659569-17.655167-12.936314-26.666214l-5.683103-15.649867-4.616455-13.593369c-0.674122-1.988233-2.005299-5.444174-2.295427-6.954549l-4.36046-22.382553c-1.305578-6.715619-1.20318-16.477587-0.017066-23.270004l2.082098-11.903798c2.013832-11.502738 9.429173-19.259406 20.291922-22.732414 15.393872-4.92365 31.103472-12.219526 42.128351-24.097724l14.617351-15.752265c6.630287-7.142279 11.289408-27.135539 10.205693-39.798791-0.785053-9.198777-0.580257-19.02901-2.218629-27.707262l-3.8826-20.58205-2.815952-14.378423c-0.58879-3.003682-1.612773-7.620137-1.672505-10.069162l-0.571724-24.183056c7.355608-15.538936 20.010327-19.6178 36.419648-18.610884l19.839663 1.220246 6.82655 0.503458 38.160419 1.143448 12.808315-0.0256 137.418465-0.904518c4.019132-0.0256 8.891582-0.913051 12.57792-1.126381l30.787744-1.774903 27.579264-1.629839 20.001794-2.124764 12.586453-1.518907 22.237488-2.38076 14.36989-1.322644 16.05946-1.467708 18.551151-1.800503c7.423874-0.716788 32.110388-2.227162 30.932808-11.716068-0.204797-1.663972-4.198329-5.247911-5.956165-5.230844l-24.823045 0.196263-8.422257 1.331178-26.085957 0.622922-8.464923 1.331178-28.620313 0.520524c-20.471119 0.366927-7.483606-2.414892-28.389918-2.193029l1.877302-1.945567 24.643847 0.042666c5.171112 0.008533 11.272342-0.341328 17.160242-0.895985l23.5772-2.235695c6.672953-0.631456 10.931014-2.705021 14.600285-8.985448 25.096107-1.535974 10.205693 6.050031 35.617528 0.093865l12.15126-2.850085c0.998383-0.230396 4.906583 0.58879 4.479924-0.204796l-2.158897-4.078864c-2.824485-5.316176-3.771669-13.968829-3.379142-19.822597l15.47067-1.74077 4.471391-5.350309 11.306475-1.262912 7.560404-8.208927c1.228779-1.331177 5.060181-6.604688 3.251145-6.604688l-11.502738 0.051199c-4.027665 0.017066-6.195095-0.110931-12.031795-0.452259l4.061797-6.143895 18.44022 1.877301c2.457558 2.099164 6.212161 4.130063 8.635587 4.070331l23.92706-0.571724c1.74077-1.322644 5.478307-4.838318 7.304409-5.008981l9.872899-0.955717z" fill="#FCB401" /><path d="M932.404424 443.990655l4.68472 16.921313 4.68472 19.822596 4.266595 22.058292c0.836252 4.317793 1.535974 9.813167 1.843168 13.994429l1.945567 26.640614c0.699721 9.60837 0.460792 20.078592-0.247462 29.465099l-2.039432 27.050207c-0.392527 5.154046-1.083715 10.965147-1.774903 16.315457l-1.851702 14.29309-1.988233 13.985896-2.184496 13.977362-2.19303 12.17686-4.565256 22.177756-4.693253 16.648251-1.928501 0.017066-5.06018 17.962362-8.814784 29.089639-4.829785 15.735199-4.326326 12.850982c-1.911434 5.67457-4.09593 11.093145-6.604688 16.443454l-5.785502 12.36459-6.067096 12.594986c-6.271893 13.013112-14.156559 26.512616-22.715348 37.895889l-5.290577 7.03988c-1.117848 1.493308-3.285278 6.425491-4.633521 7.833467l-12.705917 13.243509c-1.015449 1.058115-2.474625 4.650588-2.619689 5.580705l-12.023263 10.333691-8.21746 6.468157c-6.118296 4.821251-12.910714 8.584387-20.044459 12.057395l-13.806699 6.715619c-1.55304 0.750921-3.857001 2.227162-4.889517 2.978083l-21.315904 7.125212c-28.987241 9.685169-65.167959 14.472287-95.73384 16.289856l-16.477587 0.981317-16.605585 1.092248-40.029186 1.698105-18.559685 0.77652-115.522304-0.37546-48.698905-2.090632-18.081826-1.237312-14.591753-1.15198-19.728731-1.834636-14.438155-1.646905-16.315456-1.937034c-3.865534-0.460792-8.24306-1.032516-12.091528-1.809036l-20.334587-4.104463c-12.646185-2.551423-43.724057-13.499504-54.646539-20.300455l-17.655166-10.99928c-3.199946-1.996766-7.321476-6.246294-10.581154-9.070779-7.236144-6.271893-14.258958-12.885114-20.104192-20.317522l-13.362972-16.972512c-9.63397-12.236592-20.138324-29.62723-27.007542-43.911787l-17.04931-35.46393c-2.781819-5.776969-5.256444-12.731517-7.492139-19.088743l-11.272342-32.050655-6.749752-21.358571-3.404742-13.013112-6.485223-26.026224-3.74607-16.255724c-2.909817-12.629119-4.471391-24.046525-5.819634-37.179102l-2.082098-20.283388-2.090632-20.300455c-0.750921-7.312942-1.544507-14.916013-1.416509-22.21189l0.708255-40.507045c0.051199-3.13168 0.998383-8.481989 1.510374-12.270725l1.399443-10.436089 2.124764-13.91763 1.945567-12.671785c0.580257-3.780202 1.305578-7.03988 2.986616-12.296324l14.011495-43.817922 1.988233-1.877302c1.681038 0.008533 6.212161 0.460792 8.174794 1.245846l21.78523 8.703852c16.537319 6.604688 34.508214 10.188627 52.240179 13.175243l31.265602 5.282043 5.273511 0.878919 0.75092 10.956614-1.962633 5.998831-6.621754 20.20659c0-3.626605-8.934248 15.078144-9.002514 15.231741l-8.345458 18.44022-6.015898 11.434472c-1.570107 2.986616-2.824485 7.381208-3.541273 10.154495l-4.386059 16.989578c-1.501841 5.819634-5.171112 12.705917-4.991915 18.841279l0.742387 26.060358c0.383993 13.508037 9.062246 23.321204 17.023711 31.734927 16.870113 17.842897 27.801128 20.445519 53.127631 19.063143 10.777417-0.58879 27.587798-12.432855 34.354616-20.198057 7.500673-8.601454 12.57792-23.73933 15.428005-34.977539 4.650588-18.346355-4.727386-57.129696-10.913948-75.970976l-8.089463-24.643848c-1.442109-4.386059-2.346627-11.059012-2.739153-15.982661l-1.928501-23.961193 8.755051-0.725321 16.016795 0.179197 1.885834 2.261295 28.842177-0.273062 5.666037 0.093865 1.868768 2.175963 14.770949-0.23893 7.756669 0.204797 2.073564 2.065031 63.145594-0.273062 13.883497 0.0512 2.184497 2.150363H581.451454l2.193029-2.116231 3.72047-0.093865 40.233983 0.315728 2.909817-2.175963 11.605136-0.119464c20.897778-0.221863 7.910266 2.56849 28.389918 2.193029l28.620314-0.520525 8.464923-1.331177 26.085956-0.622923 8.422257-1.331177 24.823045-0.196263c1.76637-0.017066 5.751369 3.566873 5.956166 5.230844 1.17758 9.480372-23.500401 10.990747-30.932808 11.716068l-18.551152 1.800502-16.05946 1.467709-14.369889 1.322644-22.237489 2.38076-12.586453 1.518907-20.001793 2.124764-27.579265 1.629839-30.787744 1.774903c-3.686337 0.21333-8.558788 1.100781-12.577919 1.126381l-137.418465 0.904518-12.808316 0.025599-38.160418-1.143447-6.826551-0.503458-19.839663-1.220246c-16.409321-1.006916-29.064039 3.063415-36.419648 18.610884l0.571724 24.183056c0.059732 2.449025 1.083715 7.06548 1.672505 10.069162l2.815952 14.378422 3.882601 20.582051c1.638372 8.678253 1.433576 18.499952 2.218629 27.707262 1.083715 12.663251-3.575406 32.656512-10.205694 39.798791l-14.617351 15.752265c-11.024879 11.886731-26.743012 19.182607-42.128351 24.097724-10.862749 3.473008-18.278089 11.229676-20.291922 22.732414l-2.082098 11.903798c-1.186113 6.792418-1.288511 16.554385 0.017067 23.270004l4.360459 22.382553c0.298662 1.510374 1.621306 4.966316 2.295427 6.954549l4.616455 13.593369 5.683104 15.649867c3.268211 9.01958 7.125212 18.849813 12.936313 26.666214l11.98913 16.144792c4.89805 6.587621 8.004131 13.269108 13.559236 19.225273l11.033413 11.818466c15.547469 16.656784 39.440397 25.044908 61.874148 29.857626l14.395489 3.089014c3.285278 0.699721 7.022814 1.570107 10.436089 2.082098l42.39288 6.365759c4.505523 0.674122 9.369441 0.913051 14.335757 1.36531l12.577919 1.143447 34.31195 1.314111 12.023263 1.01545c29.985624 2.534357 59.160595 1.100781 88.932889-0.861852l20.641782-1.356777 10.163028-0.665589c3.438875-0.230396 8.405191-0.639989 11.929397-1.279978l25.625165-4.616455c19.694599-3.549806 39.116135-6.800951 57.428357-15.684l17.569835-8.524655c3.362076-1.629839 8.106529-4.667654 10.931014-7.125213l14.15656-12.321924c9.036646-7.8676 11.451539-10.094762 19.583667-19.293539l14.207758-16.08506 6.741219-7.620137c2.16743-2.449025 4.949249-6.28896 6.792418-9.164644l5.691637-8.900115 5.46124-8.524656c1.868768-2.909817 3.652205-6.562022 4.795652-9.326774l8.575854-17.31384c2.022366-4.078864 4.607922-9.787567 6.050031-14.045628l6.681486-19.651932 3.438875-10.62382 4.368993-14.199225 6.101229-24.874244 4.010599-15.905863c1.032516-4.078864 1.962633-9.036646 2.662355-13.422706l2.312494-14.463754 3.916733-25.804361 1.9797-14.822149 0.597323-26.026224 1.20318-12.125661-0.042666-48.383177-0.486392-10.521422-1.17758-18.047693c-0.230396-3.515674-0.955717-7.731069-1.638372-12.031796 0.102398-7.611604-0.511991-15.811998-3.635138-23.406535-6.408424-15.573069 3.711937-1.928501-0.085332-23.730797-4.667654-26.768612 4.71032-29.277369-0.332795-38.390814 19.395937 2.133297 32.750377 7.714002 46.463211 22.903077 1.928501 2.133297 4.053264 8.200394 5.017515 10.837149l5.529506 15.214675c0.631456 1.74077 2.850085 4.940716 3.925266 6.07563z m-109.651471 443.845259c2.158897-2.628222 5.171112-5.640437 7.739602-7.816401 7.423874-4.846851 26.70888-32.630912 15.044011-43.067001-4.770052 4.14713-9.471839 7.500673-11.946463 11.101678l-22.331354 32.502914c-1.706638 2.483158-0.341328 11.792866 2.619689 11.494205 4.112997-0.409593 7.423874-2.449025 8.874515-4.215395z" fill="#F29302" /><path d="M727.394574 373.003062c8.208927 0.017066 17.228507-0.110931 25.940892 0.699721l14.608819 1.36531 12.466988 1.194646 13.909097 1.356777 16.204524 1.962634 16.187459 2.065031 13.789632 1.783437 14.984279 1.834635c1.9541 0.238929 4.855384 1.041049 5.904966 1.60424l-9.872899 0.955717c-1.826102 0.179197-5.555106 3.686337-7.304409 5.008981l-23.92706 0.571724c-2.423425 0.059732-6.178028-1.971167-8.635587-4.070331l-18.44022-1.877301-4.061797 6.143895c5.836701 0.341328 8.004131 0.469325 12.031795 0.452259l11.502738-0.051199c1.809036 0-2.030899 5.27351-3.251145 6.604688l-7.560404 8.208927-11.306475 1.262912-4.471391 5.350309-15.47067 1.74077c-0.392527 5.853767 0.554657 14.50642 3.379142 19.822597l2.158897 4.078864c0.418126 0.793587-3.481541-0.0256-4.479924 0.204796l-12.15126 2.850085c-25.411835 5.956165-10.512888-1.638372-35.617528-0.093865-3.677804 6.280427-7.935865 8.353991-14.600285 8.985448l-23.5772 2.235695c-5.8879 0.56319-11.98913 0.904518-17.160242 0.895985-1.237312-3.797269 10.22276-1.450642 11.221143-3.34501l5.776969-10.854216c-12.885114-6.468157-16.998111-2.184496-30.796277-4.889517l-16.707983-3.276744c-1.834635-0.358394-6.032964-3.15728-6.135362-5.026048-0.332794-6.015898 12.492588-6.758285 16.86158-11.912331 6.860683-8.089463 7.347075-23.560133 1.672505-30.472015l-12.526721-4.556723c-10.282492 3.771669-12.484055 5.307643-26.077423 0.221863-10.350757-3.874068-16.597051-22.911611-8.900116-22.783613 8.183328 0.136531 19.83113 12.978979 34.499681 4.71032 5.119913-2.884218 11.673402-0.913051 12.876581 4.275127 2.696488 11.622203 4.206862 4.650588 30.275752 4.693254l46.736273 0.085332z" fill="#FCC204" /><path d="M654.196884 320.464221l-1.996766-1.76637 0.093865-12.782716 2.14183 1.774903-0.238929 12.774183zM656.159517 344.621677l-1.800502-1.55304 0.102398-10.794483 2.013832 1.732237-0.315728 10.615286z" fill="#C3CCCA" /><path d="M853.105504 883.970379l-7.355608 6.87775c-2.54289 2.38076-5.077247 5.102847-6.835084 7.312943h-2.030899c0.145064-0.930118 1.604239-4.52259 2.619689-5.580706l12.705918-13.243508c1.348244-1.399443 3.515674-6.340159 4.633521-7.833467l5.290577-7.03988c8.558788-11.391806 16.451987-24.89131 22.715347-37.89589l6.067097-12.594986 5.785502-12.36459c2.508757-5.358842 4.693254-10.777417 6.604687-16.443453l4.326327-12.850982 4.829784-15.735199 8.814784-29.089639 5.060181-17.962362 1.9285-0.017066c-1.100781 3.916733-0.930118 9.565704-2.210096 13.900564l-6.587621 22.34842-6.493756 19.77993-3.635139 10.700619c-2.713554 7.978531-5.401508 15.957062-8.900115 23.628398l-5.67457 12.449922c-1.348244 2.952483-2.94395 8.908649-4.351926 11.315008l-15.871731 27.203804c-1.877301 3.208479-4.249528 6.672953-6.306026 9.8217l-12.023262 18.397554-3.106081 4.89805z" fill="#E6B472" /><path d="M838.914812 898.161072c-5.102847 6.434024-11.664868 12.031796-19.071676 17.518635-2.534357 1.877301-6.826551 5.282044-9.053713 6.47669l-17.510102 9.403574-7.952932 4.266594c-1.535974 0.827719-5.9135 0.895985-7.423874 0.878918 1.023983-0.750921 3.336477-2.218629 4.889517-2.978082l13.806699-6.71562c7.133745-3.473008 13.926163-7.244677 20.04446-12.057395l8.21746-6.468157 12.023262-10.333691h2.030899z" fill="#EFC986" /><path d="M223.791397 445.176769l-5.27351-0.878919-31.265602-5.282043c-17.723432-2.995149-35.70286-6.570555-52.240179-13.175243l-21.78523-8.703852c-1.9541-0.785053-6.493756-1.228779-8.174794-1.245846 7.210544-14.29309 27.519532-23.133474 44.116583-27.604864l14.293091-3.848468c3.473008-0.938651 34.013289-6.724152 36.445247-6.963082l18.645017-1.877301c1.527441-0.153597 4.164196 0.324261 5.000448 1.15198 0.56319 0.546124 1.126381 3.421809 1.117848 4.30926l-0.196264 50.704205-0.682655 13.422706z" fill="#FCEC44" /><path d="M285.426617 453.820888l-8.755051 0.725321 1.9285 23.961193c0.392527 4.92365 1.305578 11.596603 2.739154 15.982662l8.089462 24.643848c6.186562 18.849813 15.564536 57.633154 10.913948 75.970976-2.850085 11.238209-7.918799 26.384618-15.428005 34.977539-6.775352 7.765201-23.585733 19.609267-34.354616 20.198056-25.326503 1.382377-36.26605-1.220246-53.12763-19.063142-7.952932-8.413724-16.639717-18.22689-17.023711-31.734928l-0.742387-26.060357c-0.179197-6.135362 3.490074-13.030179 4.991915-18.84128l4.386058-16.989578c0.716788-2.773286 1.971167-7.167878 3.541274-10.154494l6.015897-11.434472 8.345459-18.44022c0.068266-0.153597 9.011047-18.858346 9.002513-15.231741l-0.622922 6.937482c-0.102398 1.117848-0.657056 4.130063-0.930118 5.213778l-6.604688 26.538215c-0.443726 1.783436-1.689571 5.563639-1.937033 7.270277l-4.778586 33.279434c-1.971167 13.7555 1.783436 35.455398 11.434472 42.495278 16.255724 11.861132 33.356233 3.882601 42.828073-11.246742 5.213778-8.319859 3.874068-27.545132 3.012215-36.803641l-1.373843-14.728283-0.563191-16.016795c-0.093865-2.713554-1.638372-6.903349-2.013832-10.00943l-1.518908-12.466988-1.484774-14.224825-1.902901-18.389021c-0.307195-3.003682 1.442109-9.454773 2.338093-13.320307l27.101406-5.06018c1.79197-0.332794 6.143896 1.348244 6.485224 2.013832zM583.584751 460.109848l-2.19303 2.124764H443.52953l-2.184496-2.150363 142.239717 0.025599zM427.47007 460.024516l-63.154127 0.273062-2.073565-2.065031 63.16266-0.136531 2.065032 1.9285zM630.457554 458.164281l-2.909817 2.16743-40.242516-0.315728 1.988233-1.885835 41.1641 0.034133zM332.179956 455.996851l-28.85071 0.264529-1.885835-2.261295 28.833644 0.153598 1.902901 1.843168zM354.48571 458.036283l-14.770949 0.230396-1.868768-2.175963 14.856281-0.008533 1.783436 1.9541z" fill="#FCB401" /><path d="M875.52219 474.496804c0.682655 4.300727 1.416509 8.516122 1.638372 12.031795l1.17758 18.047694 0.486392 10.521421 0.042666 48.383178-1.20318 12.12566-0.597323 26.026225-1.9797 14.822148-3.916733 25.804361-2.312494 14.463755c-0.699721 4.386059-1.629839 9.352374-2.662355 13.422705l-4.010598 15.905863-6.10123 24.874244-4.368992 14.199225-3.438875 10.62382-6.681487 19.651933c-1.450642 4.258061-4.036198 9.975297-6.05003 14.045628l-8.575855 17.313839c-2.713554 2.406359-5.051647 4.761519-7.159345 7.330009-13.277641 16.187458-6.997214 18.243957-19.455669 19.634866-9.121978 1.015449-20.471119 1.817569-28.910442-0.017066-2.525824-0.665589-7.952932-4.949249-9.693702-6.843618l-9.915565-10.820082 0.102398-33.808493c0.008533-3.729003 2.474625-10.709151 3.276745-14.301623l3.814335-17.066377 1.76637-16.776248c1.194646-11.366207 3.438875-21.35857 3.583939-32.605313l2.389293-16.409321 1.791969-12.279258 1.587173-12.091528 1.860235-14.728283-0.264529-77.984808-0.153597-14.753883-1.996766-16.289856-2.124764-15.991195-1.399443-10.470222-1.228779-12.680318c1.638372-6.160962 9.557171-7.031347 15.009878-7.799334l24.507317-3.447409 16.469054-1.902901 15.837597-2.082097 14.497887-2.099165 14.822149-2.261295c10.939547 6.348692 4.33486 14.924546 9.523038 16.281324z" fill="#FCC204" /><path d="M830.484022 880.019513c-2.56849 2.175963-5.580705 5.188179-7.739602 7.816401l-10.871282-0.0256c1.672505-4.49699 3.524207-9.497439 5.836701-12.594986l21.00871-28.133922 4.368992-0.435192c6.66442-0.665589-3.490074 16.426388-3.942333 17.219974l-5.316176 9.352374c-1.254379 2.210096-2.56849 5.017515-3.362076 6.809484z" fill="#F9EEC0" /><path d="M830.484022 880.019513c0.793587-1.79197 2.099164-4.599389 3.362076-6.809484l5.316177-9.352375c0.443726-0.785053 10.606753-17.87703 3.942333-17.219974l-4.368993 0.435193-21.00871 28.133922c-2.312494 3.097547-4.164196 8.097996-5.8367 12.594986l10.871282 0.025599c-1.450642 1.76637-4.752986 3.797269-8.874516 4.215396-2.96955 0.298662-4.326326-9.011047-2.619689-11.494205l22.331354-32.502915c2.474625-3.601005 7.176411-6.954548 11.946463-11.101678 11.664868 10.427556-7.620137 38.220151-15.044011 43.067002z" fill="#F0C465" /></svg>