<?xml version="1.0" standalone="no"?><!DOCTYPE svg PUBLIC "-//W3C//DTD SVG 1.1//EN" "http://www.w3.org/Graphics/SVG/1.1/DTD/svg11.dtd"><svg class="icon" width="256px" height="256.00px" viewBox="0 0 1024 1024" version="1.1" xmlns="http://www.w3.org/2000/svg"><path d="M533.802667 638.754133h-7.3984c0.4608-0.349867 2.048-0.853333 2.935466-0.938666l9.736534-0.878934 9.489066-1.152 6.570667-0.8448 9.122133-0.827733 6.510934-0.6656 6.596266-0.682667c2.4832-0.256 6.784 0 9.088-0.4864l3.677867-0.785066 12.1856-0.221867 3.694933-0.7424 12.194134-0.5632c1.373867-0.059733 3.720533-0.494933 5.3248-0.657067l5.2224-0.529066c3.268267-0.3328 6.4256-0.366933 9.693866-0.2048l4.1216-0.2048c3.933867-0.187733 7.7824-0.213333 11.451734-0.580267l6.545066-0.657067 6.536534-0.657066 13.346133-0.802134 5.4528-0.5888 6.545067-0.708266 10.1888-0.8192 5.461333-0.605867 6.545067-0.725333c0.9984-0.631467 1.885867-0.8704 1.8176-1.314134l-0.477867-3.063466-14.4384-1.792-5.111467-0.452267-8.4224-0.759467-9.096533-0.8192-16.238933-0.887466-5.239467-0.349867-7.611733-0.989867-15.428267-0.827733-6.587733-0.5376-10.513067-0.930133-8.567467-0.7936-4.1728-0.392534-9.463466-0.904533-9.685334-0.930133-11.460266-0.861867-7.4496-0.64-9.480534-0.8704-9.506133-0.904533-9.506133-0.7168-8.3968-0.682667-9.6256-0.836267-9.378134-0.896-13.704533-0.810666-5.384533-0.571734-17.8688 0.145067c-1.314133 0.008533-3.9168 1.3824-5.162667 1.6128l0.785067-5.009067-4.1472-1.442133c0.8192-1.373867 1.774933-2.8672 2.705066-4.087467l1.7152-2.261333c0.375467-0.494933-0.938667-2.005333-1.442133-2.3808l-4.215467-3.106133-9.019733 3.191466c-0.2816 0.221867-1.4336 0.964267-1.220267 1.2288l1.732267 2.184534c0.648533 0.810667 1.450667 2.909867 0.887467 4.4288-0.3584 0.964267-3.601067-0.8448-3.6864-1.928534-0.145067-1.8176-0.904533-5.316267-1.578667-6.749866-0.273067-0.5888-3.003733-1.092267-3.336533-0.546134l-1.518934 2.500267c-0.546133 0.896-1.928533 2.653867-2.807466 2.389333-4.386133-1.314133-1.5872-7.799467-3.848534-7.944533l-5.026133-0.315733c-2.5344 1.92-16.068267 5.111467-18.372267 0.64l-3.2768 2.397866c-0.622933 0.452267-2.269867 1.2032-3.0208 1.348267-0.938667 0.1792-2.218667-2.116267-2.312533-3.191467l-0.418133-4.5056c-1.851733-1.9968-3.037867-4.283733-3.933867-6.903466-0.622933-1.8176-4.7104-4.309333-6.6304-4.2496-2.4064 0.0768-6.186667 1.3568-8.1408 1.160533l-5.316267-0.529067c-3.575467-2.449067-7.389867-4.317867-11.451733-3.882666-9.9584 1.058133-8.200533-0.7424-11.008 3.2256-3.089067 4.369067-1.7664-7.534933-9.181867-5.3504-7.7568 2.2784-9.898667-3.003733-12.782933 2.414933-0.878933 1.664-4.821333 2.065067-5.393067 0.5888-0.6144-1.578667-1.578667-4.420267-2.6368-4.872533-1.800533-0.776533-5.213867-0.349867-7.671466-0.1024-2.167467 0.213333-5.802667-1.2544-8.285867-2.030934l-4.232533-1.322666c-0.9472-0.298667-3.310933 0.418133-4.821334 1.134933-4.258133 2.0224-0.128 6.9376-1.1776 10.24-2.6112 0.256-5.111467-0.9472-6.1184-2.773333l1.083734-4.4544c0.136533-0.571733 1.092267-1.826133 1.792-2.7648l-3.575467-4.343467-7.108267 0.196267c-2.926933 1.109333-5.888 1.8432-8.32 0.827733l-4.1472-1.723733c-7.816533-3.2512-3.950933 2.705067-13.021866-1.3056-1.4848-0.657067-4.846933-0.6656-5.2736 0.247466l-0.597334 7.876267-3.387733-3.029333c-0.725333-0.648533-0.631467-3.677867-1.032533-4.864-0.896-2.6624-13.730133-6.912-16.708267-4.232534l-3.703467 3.328c-0.5376-0.256-2.312533-2.116267-2.5856-3.054933-2.107733-7.1936-7.466667-2.935467-12.3136-4.625067l-6.741333-2.363733c6.1952 2.167467-20.2752-4.590933-14.907733-4.104533l-9.301334-0.8448c-2.2016-0.196267-5.444267-0.9984-7.082666-0.708267-2.184533 0.375467-3.9424 0.5376-4.992-0.145067-7.936-5.085867-4.983467 1.809067-11.255467-1.8176-8.465067-4.881067-6.417067 1.826133-11.2384-2.3296-6.109867-5.282133-7.586133 1.271467-14.805333-1.621333-14.984533-5.998933-7.0912-0.810667-13.764267-2.3296-4.266667-0.9728-15.240533-4.676267-14.4128 0.9728-0.443733 1.220267-0.836267 2.2784-0.776533 2.116267-1.629867-3.0464-3.541333-5.435733-5.777067-5.1712-12.654933 1.518933-0.8704-0.477867-13.7984 0.3072-1.706667 0.1024-4.957867-0.981333-6.903467-1.297067l-7.953066-1.28-1.152-3.1744c0.861867-0.247467 3.003733-0.469333 3.959466-0.3072l9.1392 1.5616c3.063467 0.520533 6.519467 0.7936 9.838934 1.066667l15.505066 1.262933 19.4304 1.5872c5.7856 0.469333 10.555733 1.595733 12.706134 1.595733 2.397867 0 6.084267-0.3328 8.507733 0.443734l7.3984 2.3808c1.8432 0.597333 4.923733 1.0496 7.1424 1.143466l5.3504 0.221867c3.8656 1.3056 8.1152 2.6624 12.151467 3.2768l5.7088 0.8704 6.4512 0.9216 21.213866 3.831467 5.418667 0.9472c2.065067 0.3584 4.334933 0.648533 6.254933 1.109333l8.686934 2.065067c1.774933 0.418133 5.188267 0.375467 7.074133 0.375466 0.861867 0.452267 2.56 0.785067 4.096 1.041067l8.3968 1.373867 28.689067 4.804266 11.818666 1.8176 5.0688 0.733867 11.9552 1.476267 6.920534 0.785066c6.9888 0.7936 1.9712 0.878933 14.933333 2.005334l6.050133 0.520533 5.5808 0.529067 7.4496 0.785066 5.282134 0.5888 13.713066 0.785067 7.3728 0.546133c4.6336 0.341333 9.1392 0.059733 13.550934 0.546134l7.569066 0.827733 7.3472 0.768 9.540267 0.853333 12.5696 1.1264 9.617067 0.8448 12.0064 1.006934 10.222933 0.725333 5.367467 0.452267 18.747733 0.7424 4.8384 0.187733 2.7904 0.238933 22.144 0.452267 7.330133 0.452267 15.7696 0.776533 6.4256 0.469333 11.648 0.605867 9.531734 0.657067 9.378133 0.6912 25.5488 0.605866 4.053333 0.5376 17.954134 0.605867 6.3744 0.520533 12.586666 0.631467 7.5264 0.469333 11.613867 0.785067c3.797333 0.256 7.611733 0.469333 11.136 0.930133l9.9584 1.314134 9.531733 1.160533 7.441067 0.955733 7.364267 0.989867 8.5504 1.245867 12.535466 1.962666 9.557334 1.134934 6.485333 0.768 7.1936 0.836266 7.4752 0.887467 9.480533 0.904533 10.478934 0.699734 19.669333 0.896c2.107733 0.093867 6.664533-0.256 8.9344-0.580267 1.681067-0.238933 3.3024-4.334933 3.524267-5.956267l0.8704-6.5536c0.110933-0.8192-1.8432-2.944-2.167467-3.2256-0.384-1.954133-1.493333-3.677867-3.106133-5.742933l-3.1744 0.512c-0.955733-8.302933 2.7904-7.150933 0.8704-13.934933-0.452267-1.6128-3.643733-3.6352-5.1456-3.8656l-7.338667-1.1264c-0.605867-0.093867-2.722133-1.3568-2.3808-1.288534 1.3312 0.093867 3.746133 0.085333 5.060267 0.324267l8.046933 1.476267c9.745067 1.792 1.732267 14.523733 10.2912 14.395733l7.3216-0.110933 22.3232-0.298667c5.623467-0.0768 6.0672-1.792 17.826133-0.776533 16.264533 1.399467 4.6592 2.901333 23.2448 1.262933l9.557334-0.8448c2.065067-0.1792 13.44 2.645333 13.636266-2.474667l0.273067-7.0912c0.0512-1.365333 1.117867-3.336533 2.005333-4.548266 0.810667-0.3584 2.577067-1.288533 3.464534-1.467734l3.8144-0.768c2.048-0.4096 4.087467-0.8192 5.888-0.657066 10.837333 0.9728-1.937067-1.211733 11.170133 0.3328 9.3184 1.1008 6.0928-0.349867 13.7472 1.271466l16.452267 3.473067c1.3056 0.273067 3.438933 0.162133 4.625066-0.1024l1.0496-0.093867c1.0496 1.6384 3.473067 2.184533 5.205334 1.143467l1.058133 0.085333c-0.145067 0 1.536 1.211733 2.030933 1.2544l6.4 0.546134c10.538667 0.904533 7.2448 2.542933 12.6976 2.158933l2.116267-0.1536 2.440533 0.042667c0.5888 0.008533 0.759467-1.501867 0.8448-2.0224l3.2768-5.282134c1.058133-1.706667 2.056533-3.6608 2.850134-5.256533l1.4336-1.9712c-1.988267-1.757867-4.232533-3.618133-5.870934-3.950933l-8.064-1.664-4.1472-0.896c-0.5888-0.238933-2.423467-0.853333-3.362133-1.1264-0.247467-0.068267-0.64-0.008533-0.9728 0-0.170667-0.187733-2.0992-0.750933-3.157333-0.9472l-10.683734-1.9968c-0.930133-0.170667-2.747733-1.015467-3.2-1.774934-2.5344-4.215467 14.788267-4.420267 17.9456-4.855466l7.517867-1.041067c7.0656-0.981333 5.230933 3.857067 9.0112 2.039467l5.614933-2.696534c3.626667-1.7408 9.9584-11.8016 8.354134-14.754133-0.571733-1.058133-3.720533-2.312533-5.111467-2.346667l-15.5904-0.384c-1.851733-0.042667-4.189867-0.2048-5.8368-0.4864l-11.52-1.928533c-4.087467-0.682667-9.045333-0.2816-13.474133-0.1024l-12.740267 0.494933c-2.065067 0.0768-4.590933 0.375467-6.408533 0.8704l-6.647467 1.774934-1.211733 5.4784-2.397867 5.640533c-0.733867 1.732267-4.437333 4.181333-6.459733 4.241067l-9.309867 0.273066c-0.349867 0.008533-1.629867 1.2032-1.339733 1.066667l-1.058134 0.0512c-0.938667 0.187733-2.756267 0.6656-3.2256 0.8704l-6.877866 0.1792-14.037334-0.110933c-1.271467-2.8928-9.1648 1.262933-15.291733-3.712-2.312533-1.877333-5.026133-3.515733-7.722667-4.0448l-7.7824-1.527467-6.417066-1.0496-15.189334-3.012267c-2.0224-0.401067-4.957867-0.3328-6.971733-0.341333-0.494933 0-1.373867-0.042667-1.902933-0.068267l-1.092267-0.896-5.504-0.9984c-0.529067-0.093867-1.937067 0.4352-1.979733 0.5632h-1.058134l-3.114666-0.682666-1.058134-0.042667c0.042667-0.162133-1.493333-0.878933-2.158933-0.964267l-6.4768-0.887466-3.9424-0.5888-5.367467-0.9984-21.632-4.6592c-3.2-0.6912-6.8096-1.7408-9.5232-3.1744l-4.8128-2.542934-7.671466-4.087466c-3.157333-1.681067-6.408533-2.090667-10.453334-2.3808-4.394667-0.315733-22.528-5.930667-36.855466-6.894934l-8.5504-0.571733c-4.010667-0.273067-9.105067-2.884267-19.925334-4.573867-2.628267-0.4096-6.656-2.039467-8.994133-2.141866l-3.7888-0.162134-12.544-0.5632-4.266667-0.776533h-5.282133l-0.8704-1.1264-6.528 0.068267h-1.058133l-0.7936-1.0496H636.288c-0.392533-0.4352-2.269867-1.058133-3.165867-1.058134h-5.282133l-0.802133-1.058133H618.325333c0.085333-0.1024-1.476267-0.8192-2.056533-0.913067l-5.486933-0.896-6.382934-1.041066-6.314666-1.1008-5.4784-1.0496c-1.211733-0.2304-4.027733-1.3824-5.230934-1.860267l-8.789333 1.8432c-2.338133-4.181333-5.930667-6.673067-9.5232-6.7072-0.733867 0.836267-2.773333 3.4816-3.720533 3.4048-1.885867-0.145067-4.0192-3.5072-5.230934-5.546667-2.1248-3.5584-7.441067-2.773333-8.029866-4.573866-0.008533-0.0256 0.9984-1.237333 1.271466-1.245867l8.0128-0.145067c0.896-0.017067 3.370667 0.580267 4.437334 0.605867l10.274133 0.2048h5.282133l0.964267 1.0752 32.836267-0.017067h3.165866l0.8704 1.134934 6.528-0.0768h2.116267l2.133333 1.066666 2.090667 1.041067-7.406933-0.768c-2.9696-0.3072-5.725867-0.674133-8.635734-1.194667l-36.736-0.2816-5.367466-0.580266-7.133867 0.4096c1.066667 1.467733 1.92 2.423467 2.781867 2.730666l13.909333 4.932267c3.2256 1.143467 14.7968 3.780267 18.952533 4.565333l8.576 1.6128 6.212267 1.041067 7.441067 1.058133 7.381333 0.9984 7.611733 0.938667 7.048534 0.785067 6.5536 0.725333c1.604267 0.1792 4.0192 0.597333 5.265066 0.657067l13.550934 0.631466c2.730667 0.529067 5.717333 0.896 8.618666 0.8704l38.007467-0.290133c3.234133-0.443733 6.263467-0.7424 9.514667-0.964267l9.454933-0.64 11.630933-0.674133 9.5488-0.955733 7.415467-0.7424 8.4736-0.8448c2.7648-0.273067 5.751467-0.546133 8.448-1.092267l14.421333-2.909867 6.8608-1.450666c2.235733-0.469333 3.4048-1.0496 5.4272-3.336534-3.9168-5.179733-11.349333-5.358933-17.373866-5.307733l-19.575467 0.1792-3.720533 0.8448c-2.176 0.494933-6.656 0.2048-9.045334 0.4608l-6.613333 0.708267-6.5536 0.6912c-2.414933 0.256-5.0176 0.315733-7.185067 0.3584v-1.058134c0.520533-0.0512 1.544533-0.008533 2.116267 0l4.445867 0.085334 0.836266-1.143467h2.116267l6.536533 0.0512 0.861867-1.109333h3.165867c2.3552 0.725333 12.5696-0.896 10.999466-0.8448l17.322667-0.520534 6.442667-0.5632c4.949333-0.4352 9.736533-0.162133 14.020266-1.9456 1.792-0.7424 3.268267-1.066667 4.548267-0.3328 8.866133 5.0944 11.579733-9.941333 14.8736-5.3248l4.1728 5.8368c0.904533 1.271467 4.266667 3.626667 5.819733 3.4816 2.082133-0.196267 4.266667-2.176 5.666134-3.7632l5.9392 4.258134c4.309333 3.089067 16.401067-4.138667 19.7888 2.2784l-2.2528 5.504 17.5872 0.349866c-5.341867-6.638933-6.664533-2.6624-8.6528-6.784-1.160533-2.414933 7.586133-2.218667 11.042133-8.029866-8.465067-7.739733-7.8592 1.826133-13.448533-4.027734-4.744533-4.9664-5.282133-0.324267-8.439467-3.976533-4.5056-5.1968-15.803733-2.005333-23.1936-3.106133-13.738667-2.048-13.755733-3.925333-25.002667-6.314667l-6.8608-1.450667-7.0656-1.3312c-2.449067-0.4608-4.846933-0.699733-7.355733-0.9472l-5.486933-0.554666-12.296534-0.7936-6.545066-0.64-7.355734-0.836267-7.662933-0.955733c-4.829867-0.597333-10.496-0.648533-15.4112 0.017066-10.555733 1.425067-6.263467-6.0416-11.869867-4.266666-3.541333 1.1264-7.176533-3.515733-6.912-6.0416 0.1024-0.9216 1.5616-2.7904 2.2528-2.5088 7.876267 3.2256-0.349867 3.447467 16.221867 4.949333l11.835733-4.753067c1.672533-0.674133 3.242667-1.271467 4.7104-1.749333l12.9024-4.1984 3.694934-2.8928c4.5056-3.524267 8.9344-8.174933 6.673066-13.824-0.529067-1.314133-5.256533-1.664-9.173333-0.315733l-5.026133 1.732266c-8.772267 3.029333-6.690133 0.4352-14.336 3.2256-12.117333 4.420267-1.877333 5.248-17.8176 4.232534-1.877333-0.119467-5.239467 1.4336-7.5008 1.9968-6.109867 1.536-2.346667-0.256-11.767467 1.851733l-15.522133 3.473067c-3.908267-0.5376-8.405333-0.4608-12.689067 0.366933-1.339733 0.256-4.6848-0.4864-6.135467-0.3072l-7.2448 0.9216-4.266666 0.384-6.4256 0.520533-6.596267 0.597334-10.948267 0.6656c-4.625067 5.102933-7.236267 1.774933-10.871466 2.1504l-10.4192 1.083733-2.3552-0.341333h-6.340267l-12.6208-0.264534-5.341867-0.7936-0.7936-1.0496H589.815467c-0.469333-0.418133-2.210133-0.9728-3.165867-1.058133-2.2784-0.196267-4.718933-0.401067-7.381333-0.8704l-5.4528-0.955733-5.376-1.058134c-1.015467-0.196267-3.063467-0.247467-3.968-0.290133-0.392533-0.4352-2.269867-1.058133-3.165867-1.058133h-5.282133l-0.836267-1.066667h-5.504l-3.165867 0.008533-7.5776-0.068266-0.878933 1.1264h-24.302933l1.553066-1.194667 2.5856 0.0768 8.7296 0.119467c1.553067 0.0256 4.6336-0.759467 6.272-0.836267 8.055467-0.392533 16.0768-0.759467 23.978667 0.093867l8.686933 0.938666 6.126934 1.015467 7.560533 1.169067 8.507733 1.5616 5.521067 0.9984c1.416533 0.256 4.770133 1.160533 6.391467 1.1776l28.245333 0.247466c1.4336 0.008533 3.848533-0.5376 5.316267-0.750933l8.362666-1.220267c2.781867-0.401067 5.845333-0.776533 8.558934-0.9728l10.2912-0.750933 7.569066-0.5888 7.534934-0.682667 11.511466-1.220266 6.929067-0.827734 8.866133-1.28 9.6512-1.143466c12.4928-1.4848 14.216533-3.601067 23.2448-5.12 1.809067-0.3072 4.48-0.392533 5.981867-0.750934l14.6688-3.490133 7.406933-1.783467 9.8304-2.133333c2.176-0.469333 5.930667-0.827733 8.200534-0.238933 2.030933 0.520533 1.877333 10.478933-3.310934 14.848l-7.176533 6.0416c-10.589867 8.917333-28.4672 6.869333-25.873067 13.0816 0.2048 0.494933 2.3296 1.536 2.8928 1.595733l7.253334 0.785067 9.5488 1.041066 6.203733 0.674134 6.493867 0.674133 6.528 0.64 11.2384 0.8448 7.594666 0.776533 9.480534 0.955734 7.304533 0.810666 7.68 1.015467c2.517333 0.3328 5.128533 1.024 7.543467 1.621333l10.4192 2.5856 4.906666 0.657067c3.293867 0.443733 6.263467 1.595733 9.2928 2.1504l20.48 3.746133c2.338133 0.426667 4.608 0.9472 6.766934 1.527467l7.389866 1.979733 13.508267 3.566934c13.866667 3.6608 29.755733 21.879467 22.272 36.2752-1.928533 3.703467-4.369067 6.903467-7.261867 9.813333l-4.369066 4.411733-0.9472 1.262934c-1.365333 1.8176 5.486933 3.3024 6.212266 3.3024l49.1008 0.384 4.573867 0.8448c4.462933 0.8192 10.2144-0.1024 14.677333 0.384l10.487467 1.1264 6.545067 0.682666 7.5008 0.750934c1.7152 0.170667 6.203733 1.058133 6.843733 2.645333 2.5088 6.186667-6.877867 21.853867-11.221333 22.784-3.2 0.682667-8.541867 0-11.9296-0.290133l-11.810134-1.006934c-0.145067 1.041067-0.315733 2.2016-0.298666 2.1248l2.756266 0.708267 4.3008 1.083733 1.672534 0.418134 1.698133 0.443733 12.245333 3.345067c1.629867 0.443733 5.179733 3.268267 4.650667 4.846933-0.768 2.295467-2.338133 5.179733-3.259733 7.150933-1.672533 3.584-3.336533 7.645867-7.150934 9.2416l-7.7312-0.392533c-1.6384-0.085333-3.652267-0.469333-5.341866-0.7168l-6.3488-0.9216-10.402134-1.288533-7.406933-0.9216-9.540267-1.092267c-4.1216-0.469333-8.354133 0.162133-12.757333-0.426667l-5.316267-0.708266-23.202133-0.401067c-1.262933-0.0256-3.029333 2.0224-3.157333 3.140267l-0.725334 6.587733c-0.170667 1.5104-1.757867 5.358933-3.336533 5.307733l-12.5184-0.4096c-15.906133-0.529067-9.361067 1.0496-20.352 2.3808-2.542933 0.3072-6.826667-3.012267-9.710933-3.0208l-27.648-0.1024-4.138667 1.1008-16.733867-0.170666c-1.314133-0.017067-3.899733 3.0208-3.2 4.1216l3.447467 5.4272 20.932267 0.418133c1.629867 0.034133 4.736 0.7424 6.408533 0.9728l8.533333 1.211733 8.490667 1.4336c9.1136 1.536 11.5712 3.882667 19.6352 1.783467 2.048-0.5376 4.898133-1.621333 6.570667-1.578667l19.182933 0.469334 10.538667 0.571733c4.6848 0.256 9.514667 0.2304 13.576533 2.269867 2.807467 1.408 5.7088 4.2496 6.6304 7.1424 0.827733 2.5856-1.194667 4.804267-3.259733 5.4528-16.017067 5.034667-8.465067 1.5872-21.051734 12.9792l-12.8256-0.4096-7.552-0.469334c-6.161067-0.384-12.501333-0.494933-18.688 0l-6.852266 0.554667c-4.5824 0.366933-1.322667 5.7344-4.693334 11.460267l-5.512533 0.546133c-3.217067 0.324267-6.178133 0.981333-9.5744 0.699733l-9.386667-0.759466-49.5616-0.5376-4.539733-0.110934-3.985067-0.529066-46.609066 0.1792c-3.165867 0.008533-7.176533 0.64-10.410667 1.041066l-6.391467 0.785067-11.6736 1.348267-4.206933 0.529066-6.5536 0.836267-9.1136 0.8192-6.562133 0.708267c-1.672533 0.1792-3.9168 0.580267-5.341867 0.657066l-11.153067 0.597334-3.618133 0.733866-12.228267 0.213334-3.771733 0.836266c-3.362133 0.7424-9.472 0.085333-13.405867 0.401067l-9.591466 0.776533-7.586134 0.605867-14.421333 0.836267-7.5776 0.631466-7.560533 0.631467-10.248534 0.861867-6.5024 0.554666-8.430933 0.836267-9.514667 1.117867-7.645866 0.938666c-2.6624 0.324267-5.742933 0.3584-8.209067 0.3584z m372.821333-188.100266c-0.622933-0.5632-2.8928 0.9984-3.2768 1.578666l4.744533 1.8688c0.256-0.392533 1.032533-1.339733 0.725334-1.544533s-1.0752-0.904533-2.193067-1.911467z m-70.528 16.571733c0.699733-1.348267 1.211733-3.080533 2.005333-3.328l4.266667-1.365333c-5.239467-3.3024-14.429867-3.959467-20.846933-0.119467l-2.577067 1.544533c-0.401067 0.238933-0.017067 2.295467 0.221867 3.003734 0.477867 1.442133 4.2752 2.056533 6.0928 1.800533l10.845866-1.536z m-20.002133 0.64l-5.7856-0.452267-2.048 2.141867 5.777066 0.3328 2.048-2.0224z m82.210133 24.362667l8.064-3.652267c4.9408-2.235733 9.540267-5.282133 11.997867-10.513067-0.989867-1.245867-3.2256-3.336533-4.497067-3.592533l-11.255467-2.312533-6.698666-1.169067c-1.527467-0.264533-3.805867-0.750933-5.060267-0.8448l-11.502933-0.8448c-0.426667-0.034133-11.0336-1.3824-10.743467-1.365333-11.997867-0.6912-32.221867-0.810667-42.786133 5.367466l4.497066 5.256534 0.469334 7.005866c0.093867 1.425067 3.566933 3.0976 5.034666 3.345067l7.338667 1.211733 6.485333 0.9728 8.490667 1.109334 8.362667 1.024 9.608533 1.109333 7.415467 0.785067c5.000533 0.529067 10.24-0.8448 14.762666-2.8928z m-82.048-8.277334c2.4064 0.503467 9.770667 2.005333 9.326933-1.809066-0.315733-2.7136-3.720533-4.514133-6.408533-4.181334l-9.028267 1.092267c-1.006933 0.119467-2.688 1.834667-2.952533 3.003733l9.0624 1.902934z" fill="#FCEA9B" /><path d="M43.630933 472.849067c-7.3728 5.819733-9.787733 5.486933-12.552533 10.376533l1.595733 7.509333c0.247467 1.160533 1.152 3.575467 1.7152 4.8896l2.338134 5.461334c2.414933 5.640533 18.005333 11.4432 23.714133 13.098666l9.719467 2.824534 4.360533 1.3312 1.152 3.1744 7.953067 1.28c1.9456 0.315733 5.1968 1.399467 6.903466 1.297066 12.928-0.785067 1.134933 1.211733 13.7984-0.3072 2.244267-0.273067 4.1472 2.1248 5.777067 5.1712-0.059733 0.170667 0.324267-0.896 0.776533-2.116266-0.827733-5.649067 10.146133-1.9456 14.4128-0.9728 6.673067 1.518933-1.211733-3.669333 13.764267 2.3296 7.2192 2.8928 8.695467-3.669333 14.805333 1.621333 4.8128 4.164267 2.773333-2.551467 11.2384 2.3296 6.272 3.618133 3.319467-3.268267 11.255467 1.8176 1.058133 0.674133 2.816 0.520533 4.992 0.145067 1.6384-0.2816 4.881067 0.512 7.082667 0.708266l9.301333 0.8448c-5.367467-0.4864 21.102933 6.272 14.907733 4.104534l6.741334 2.363733c4.846933 1.698133 10.205867-2.568533 12.3136 4.625067 0.273067 0.938667 2.048 2.798933 2.5856 3.054933l3.703466-3.328c2.978133-2.679467 15.8208 1.570133 16.708267 4.232533 0.401067 1.186133 0.298667 4.215467 1.032533 4.864l3.387734 3.029334 0.597333-7.876267c0.426667-0.913067 3.7888-0.904533 5.2736-0.247467 9.079467 4.010667 5.205333-1.9456 13.021867 1.3056l4.1472 1.723734c2.432 1.015467 5.393067 0.2816 8.32-0.827734l7.108266-0.196266 3.575467 4.343466c-0.6912 0.938667-1.646933 2.193067-1.792 2.7648l-1.083733 4.4544c1.006933 1.826133 3.5072 3.029333 6.1184 2.773334 1.058133-3.293867-3.072-8.2176 1.1776-10.24 1.5104-0.7168 3.8656-1.4336 4.821333-1.134934l4.232533 1.322667c2.4832 0.776533 6.1184 2.244267 8.285867 2.030933 2.4576-0.247467 5.879467-0.674133 7.671467 0.1024 1.0496 0.452267 2.0224 3.293867 2.6368 4.872534 0.571733 1.476267 4.5056 1.0752 5.393066-0.5888 2.875733-5.418667 5.026133-0.136533 12.782934-2.414934 7.415467-2.184533 6.0928 9.719467 9.181866 5.3504 2.807467-3.968 1.0496-2.167467 11.008-3.2256 4.061867-0.4352 7.876267 1.442133 11.451734 3.882667l5.316266 0.529067c1.954133 0.196267 5.7344-1.083733 8.1408-1.160534 1.928533-0.059733 6.016 2.432 6.6304 4.2496 0.896 2.619733 2.082133 4.906667 3.933867 6.903467l0.418133 4.5056c0.1024 1.0752 1.373867 3.370667 2.312534 3.191467 0.750933-0.145067 2.397867-0.896 3.0208-1.348267l3.2768-2.397867c2.304 4.471467 15.837867 1.28 18.372266-0.64l5.026134 0.315734c2.261333 0.145067-0.5376 6.6304 3.848533 7.944533 0.878933 0.264533 2.261333-1.493333 2.807467-2.389333l1.518933-2.500267c0.3328-0.554667 3.063467-0.042667 3.336533 0.546133 0.6656 1.442133 1.4336 4.932267 1.578667 6.749867 0.085333 1.083733 3.328 2.8928 3.6864 1.928533 0.5632-1.518933-0.247467-3.618133-0.887467-4.4288l-1.732266-2.184533c-0.213333-0.264533 0.938667-1.006933 1.220266-1.2288l9.019734-3.191467 4.215466 3.106134c0.503467 0.375467 1.809067 1.885867 1.442134 2.3808l-1.7152 2.261333c-0.930133 1.2288-1.885867 2.7136-2.705067 4.087467l4.1472 1.442133-0.785067 5.009067-4.590933 0.8448c-2.628267 0.4864-5.572267 1.134933-8.2432 1.245866l-8.490667 0.3584-6.528 0.631467c-3.5072 0.341333-7.1424 0.349867-10.368 0.366933l-33.698133 0.187734h-5.4784l-29.585067-0.247467-5.384533-0.7168-17.527467-0.5376-5.418666-0.810667-10.427734 0.017067-3.771733-0.930133-12.151467-0.187734-3.618133-0.768-13.1584-0.6144-7.714133-0.682666c-2.0224-0.1792-4.667733-0.64-6.4-0.699734l-17.7152-0.622933c-1.245867-0.042667-3.9424-0.631467-5.384534-0.989867l-6.485333-1.629866c-0.4608-0.110933-1.5104-1.493333-1.7664-1.962667-0.341333-0.622933 0.964267-2.7904 1.604267-2.978133l7.6288-2.218667-1.015467-2.321067c-0.256-0.5888-1.749333 0.042667-3.0464 0.3072-2.048 0.4096-4.522667-0.2816-7.048533-0.896-2.824533-0.682667-6.638933-0.930133-9.984-1.169066l-11.6736-0.8192-10.2656-0.520534c-5.930667-0.298667-9.7536-1.732267-11.153067 3.626667-0.366933 1.390933-1.092267 3.3792-1.9968 3.899733-1.083733 0.622933-3.976533-0.017067-5.418667-0.093866l-15.300266-0.836267-7.586134-0.5888-9.489066-0.7424-15.658667-0.776533-7.7568-0.725334c-2.6624-0.247467-6.621867 0.9216-9.233067 0.955734l-21.2992 0.273066-7.2448-0.162133c-0.605867-0.017067-2.346667-0.631467-2.884266-0.8704s0.2048-1.9456 0.469333-2.807467c0.2304-0.750933-1.1264-2.030933-1.911467-2.235733-5.4528-1.4592-18.909867-5.444267-22.613333-7.099733l-6.587733-2.935467-6.2464-2.705067-6.468267-2.798933c-1.501867-0.648533-5.5296-0.597333-6.673067 0.017067-1.1776 2.3296-3.9424 5.572267-6.2976 5.870933l-15.470933-9.147733-3.968-2.346667c-2.756267 4.8384 3.5584 9.7024 6.7072 12.586667 8.610133 7.8592 0.964267-0.290133 11.460267 8.644266 1.271467 1.083733 4.599467 2.2528 6.178133 3.234134 4.906667 3.0464 9.250133 4.804267 14.702933 6.647466 7.466667 2.525867 7.842133 3.8912 18.176 6.9632l11.426134 3.396267c2.0736 0.6144 4.4032 1.425067 6.562133 2.2016l6.2208 2.2272c2.116267 0.759467 5.1712 1.015467 7.432533 1.6128l17.390934 4.5824 6.0928 1.425067 5.9904 1.399466 12.202666 2.594134 6.289067 1.066666 7.1936 1.066667 8.465067 1.1264 6.545066 0.8704 7.048534 0.7936 5.4272 0.605867 7.389866 0.810666 9.5232 1.041067 8.285867 0.733867 5.444267 0.580266 6.545066 0.699734 11.2384 0.8192 6.528 0.657066 7.424 0.750934c3.234133 0.324267 6.741333 0.529067 9.736534 0.605866l7.2192 0.187734c1.621333 0.042667 3.5584 0.187733 5.290666 0.401066l7.534934 0.896 9.941333 1.006934 11.025067 0.827733 9.361066 1.416533 8.379734 0.682667 6.510933 0.5632 8.430933 0.827733 9.514667 1.092267 8.4736 1.117867c10.538667 1.390933 3.131733 1.28 15.8208 1.2544l0.802133 1.058133h19.2768l0.853334 1.058133h19.2256l0.930133 1.058134H483.259733l0.913067-1.058134h10.820267l0.802133-1.058133h15.0528l0.802133-1.058133h9.770667l0.802133-1.058134h11.6224l-0.674133 1.109334-2.423467-0.034134-2.2016-0.017066c-0.469333 0-1.493333 0.1792-2.090666 0.247466l-7.3984 0.827734-7.415467 0.7424-11.204267 0.503466c-0.733867 0.034133-3.054933 0.810667-3.677866 0.810667l-9.216 0.0512-3.694934 1.015467-69.1456 0.0512-5.674666-0.8704-20.573867-0.375467-3.805867-0.8192c-4.096-0.878933-10.888533-0.017067-15.291733-0.4352l-6.647467-0.622933-8.430933-0.887467-7.611733-0.8704-9.147734-0.861867-6.5024-0.631466-6.493866-0.622934-9.207467-0.853333-5.444267-0.503467-9.4976-0.861866-5.205333-0.477867-13.806933-1.297067-10.5472-0.989866-12.484267-1.169067-7.594667-0.631467-7.560533-0.631466-9.1904-0.836267-6.5024-0.631467-6.519467-0.631466-10.180266-0.853334-7.620267-0.861866-7.364267-0.810667-6.510933-0.6912-6.997333-0.768-6.4256-0.955733c-8.772267-1.3056-5.060267-0.187733-13.824-1.629867l-5.495467-0.904533-7.253333-1.194667c-1.826133-0.298667-3.746133-0.622933-5.393067-1.024l-11.178667-2.7136-9.3952-2.321067-7.637333-1.885866-5.691733-1.390934c-2.158933-0.529067-4.9664-0.878933-7.0144-1.570133l-11.2896-3.84-4.514134-1.5104-16.426666-4.9408c-2.0992-0.631467-5.111467-2.133333-7.287467-3.037867l-7.5008-3.1232L49.237333 588.8l-5.128533-2.0224c-3.157333-1.237333-6.741333-2.705067-9.489067-4.4288l-5.3248-3.345067c-6.698667-4.206933-11.784533-8.2688-16.776533-14.481066-15.325867-19.080533-17.092267-45.909333-2.065067-65.476267l4.2752-5.563733c3.8144-4.9664 10.948267-10.845867 16.128-14.114134l7.9872-5.034666c1.109333-0.699733 3.592533-1.339733 4.8384-1.425067z m-1.066666 95.6928c-0.085333-3.746133-0.170667-5.4272-0.725334-8.021334l-1.774933-8.285866c-0.392533-1.8432-0.631467-4.292267-0.802133-6.408534l-0.520534-6.442666-0.7168-17.6128c-0.042667-1.0752-0.469333-3.242667-0.622933-4.437334l-0.955733-7.569066c-0.1536-1.245867 0.1024-3.626667-0.366934-4.625067s-2.6368-2.312533-3.601066-2.568533c-1.792 1.723733-4.4032 3.985067-5.3248 5.666133l-5.632 10.2912-2.244267 4.2752c-4.258133 8.1152-3.805867 22.4256 1.962667 29.2864 2.312533 2.747733 16.0512 17.698133 21.3248 16.4608z m335.982933 1.450666c0-1.237333-1.006933-2.244267-2.244267-2.244266s-2.244267 1.006933-2.244266 2.244266 1.006933 2.244267 2.244266 2.244267 2.244267-1.006933 2.244267-2.244267z m9.5744 3.712h-2.338133c0.580267 4.027733 1.757867 4.027733 2.338133 0zM177.245867 587.093333l6.0416 0.5888c2.6368 0.256 15.581867 2.107733 14.728533-2.304-0.196267-1.015467-1.962667-2.7136-2.986667-2.8672l-4.599466-0.699733c-1.664-0.256-3.985067-0.682667-5.316267-0.7424l-17.629867-0.768-8.746666-0.597333-9.5488-0.785067c-3.6864-0.3072-7.7056-0.145067-11.400534 0.042667l-17.109333 0.8704c-1.672533 0.085333-3.882667 0.2304-5.290667 0.520533l-9.856 2.0224c-1.032533 0.213333-2.619733 1.467733-4.027733 2.8672l8.721067 0.443733c1.1776 0.059733 4.0448-0.750933 5.4272-0.750933l36.3008-0.034133 3.84 0.964266c3.370667 0.853333 9.582933 0.0768 13.184 0.426667l8.251733 0.802133z m220.3136-1.288533l-2.3808-3.848533-2.730667 3.524266 5.111467 0.315734z m37.930666 4.445867l0.887467-2.3552c-1.92-1.297067-3.874133-2.781867-5.009067-2.747734-2.312533 0.068267-2.7392 4.232533-1.527466 5.777067l5.649066-0.674133z m12.16 11.264c1.6128-0.0512 3.387733-0.247467 4.7616-0.375467l9.198934-0.827733 1.237333-1.297067c1.5616-1.629867-6.613333-2.1248-8.149333-2.193067l-15.991467-0.708266-9.591467-0.648534-9.3952-0.64-13.610666-0.913066-6.621867-0.469334-6.2976-0.8192-29.312-0.5888-4.292267-0.5632-13.678933-0.657066-6.510933-0.418134-12.0832-0.7424-67.140267-0.375466c-2.082133-0.008533-5.307733 0.7168-7.364267 1.092266l-3.831466 0.699734-0.0256 3.259733 14.404266 1.3056 6.5024 0.4608 14.446934 0.836267 7.586133 0.631466 7.6544 0.648534 12.074667 0.64c0.708267 0.034133 2.9952 0.7424 3.669333 0.750933l13.201067 0.1792 3.8144 0.938667 11.426133-0.017067 5.307733 0.802133 16.682667 0.554667 5.341867 0.785067h53.9904l5.4528-0.7936 17.152-0.5376z" fill="#FDEAA3" /><path d="M325.6832 403.208533c-0.315733 0-4.727467 0.512-4.343467 2.372267 0.136533 0.64 1.169067 1.885867 1.783467 2.116267l4.2496 1.578666c10.615467 3.933867 5.265067 1.3568 15.786667 4.164267 3.601067 0.955733 12.996267 3.259733 16.0768 3.310933l17.220266 0.324267c-2.1504-0.042667 20.104533 1.476267 15.9488 0.827733l5.179734 0.810667 11.52 0.426667c1.041067 0.042667 2.7648 1.186133 3.012266 1.774933l-4.872533 1.450667-7.748267-1.092267c-5.922133-0.836267-6.050133-1.698133-10.248533-1.860267l-4.5312-0.170666c-5.589333-0.213333-11.0848-0.145067-16.5888 0.1024l-7.765333 0.3584-8.3456 0.2048c-5.111467 4.360533-7.313067 4.795733-13.8752 3.618133-7.68-1.373867-4.386133 2.0992-16.264534 2.210133l-0.887466 4.7616c-0.5376 2.8672-7.509333-1.8688-9.198934-1.152l-9.463466 3.9936 3.191466 6.6816c-3.003733 0.554667-6.792533-1.3568-7.645866-3.208533-0.247467-0.529067 0.682667-2.525867 0.2816-2.8672l-2.312534-1.9968-1.544533-1.322667c-3.208533-2.747733-2.2016 7.227733-3.2 8.2176l-9.710933 0.324267-2.449067-4.846933-1.979733 3.7888c-7.671467 3.780267-10.026667 1.4848-16.802134 1.3312l-8.439466-0.196267-7.4752-0.145067-5.307734-0.512-10.24-0.9472-6.485333-0.597333-7.466667-0.768-8.6784-0.9728-3.985066 0.469333-0.930134-0.9472c-0.878933-0.221867-2.935467-0.887467-3.584-0.896l-9.224533-0.110933h-4.224c-0.093867-0.324267-1.245867-1.646933-1.664-1.262933l-1.621333 1.501866c-0.315733 0-0.785067 0.017067-1.058134 0l-0.597333-1.220266c-2.304-0.315733-4.343467-0.7424-5.649067-0.802134l-11.7248-0.571733c-1.792-0.085333-3.6096 0.034133-5.154133 0.247467h-1.058133l-1.297067-0.896-3.0208-0.017067-33.7664-0.2304c-2.2272-0.017067-5.111467 0.512-7.355733 1.109333-0.725333 1.450667-2.1504 4.394667-2.542934 5.649067l0.401067 6.109867c0.034133 0.503467 0.008533 1.4592 0 2.013866l-2.1504 2.116267-4.8384-3.669333-3.498667-2.653867c-3.9936-3.029333-16.349867-12.288-15.8976-16.904533l2.5856 2.833066c1.723733 1.8944 13.1328 14.933333 16.196267 11.4432l3.882667-4.4288c1.348267-1.536 3.575467-4.539733 3.6096-6.485333l0.375466-22.0928c0.0256-1.4336 3.2-10.9568 5.4272-14.634667l3.694934-6.0928-5.1456 0.503467c-3.8656 0.375467-7.637333 2.423467-10.999467 4.522667l-4.343467 2.858666c-0.5632 0.375467-3.157333 0.981333-3.643733 1.4592l-8.2176 8.0384c-3.6864 3.6096-6.801067 8.490667-6.7328 13.329067l3.319467 8.763733c-3.1232-1.109333-4.983467-9.002667-3.925334-13.115733l0.699734-2.7392c-0.9216-2.525867 10.1888-12.8512 12.0064-14.097067 7.168-4.923733 15.2832-10.453333 22.8352-11.221333l8.541866-0.8704 6.493867-0.904533c1.169067-0.162133 4.1984-1.339733 5.461333-1.339734l26.581334-0.0768 3.933866 0.9984c2.244267 0.571733 7.611733-0.0512 9.9584 0.3328l6.536534 1.083734 5.461333 0.8704 8.465067 1.237333 7.210666 1.083733 5.4784 0.836267 8.439467 1.211733 7.424 1.032534 7.236267 1.015466c4.394667 0.6144 1.672533 1.629867 9.693866 2.500267l5.998934 0.648533 9.6256 1.288534 5.248 0.861866 6.493866 1.1008 8.482134 1.518934 8.448 1.245866 5.410133 0.785067 10.248533 0.8192 6.570667 0.674133 5.3504 0.708267 12.714667 0.384 0.913066 1.024z" fill="#FDE086" /><path d="M81.6384 424.2944c-0.452267 4.616533 11.904 13.8752 15.8976 16.904533l3.498667 2.653867 4.8384 3.669333 2.1504-2.116266c-0.068267 6.570667 8.6784 9.122133 14.933333 10.734933 9.463467 2.432 6.340267 5.435733 11.485867 5.2992l11.818666-0.315733 0.9472 1.373866-6.382933 0.034134-5.154133 0.128c0.2304 7.722667 1.774933 2.7392 11.460266 9.216 2.798933 1.877333 7.850667 2.568533 10.734934 3.9168 1.348267 0.631467 3.456 2.440533 4.744533 2.3808 2.798933-0.145067 6.237867-0.221867 7.594667 0.810666l5.725866 4.334934c0.827733 0.631467 2.986667 0.827733 4.283734 0.657066l4.104533 1.1264 7.569067 2.107734c4.027733 1.1264 7.927467 3.5584 11.656533 5.034666 3.2 1.262933 7.253333 1.757867 10.2144 3.5584l5.4784 3.319467c4.4288 2.688 3.473067-5.051733 17.109333 5.9136l4.992 4.0192c3.3536 2.696533 9.5488-2.107733 13.44 1.7664l4.241067 4.224 2.961067-0.520533c8.533333 5.4016 18.594133 5.7856 25.045333 9.5488l5.589333 3.2512c2.210133 1.288533 4.352 3.5584 7.048534 6.203733l-3.6352 0.759467-11.528534 2.261333-3.2512 0.520533c-0.418133-0.145067-1.245867-0.238933-2.013866-0.341333l-9.608534-1.314133-4.616533-0.733867-5.188267-0.861867-7.893333-1.092266-7.586133-0.938667-8.413867-0.8448-7.569067-0.631467-13.576533-1.143466-9.198933-0.631467-6.5792-0.878933-7.3984-0.8448-8.541867-0.853334-8.456533-0.8704-8.4736-0.7936-6.212267-0.827733-8.516267-1.220267c-2.133333-0.3072-5.0176-0.8448-6.869333-1.390933L134.784 517.973333l-9.403733-2.525866c-1.024-0.273067-3.208533-1.2288-4.462934-1.723734l-6.1184-2.397866c-9.1136-6.8608-5.230933-0.196267-17.5872-9.617067-4.113067-3.140267-7.6544-4.744533-12.4928-8.797867-4.522667-3.7888-10.0608-9.088-13.013333-14.267733-3.9936-6.9888-1.527467-16.8192-4.386133-16.187733l-4.6848 1.032533 0.759466-1.220267 6.306134-2.039466 0.605866-10.692267c0.136533-2.449067 1.024-5.870933 1.416534-8.482133l1.092266-7.2448 1.160534-7.517867 0.887466-5.316267 1.4336-9.454933c0.162133-1.041067 1.450667-2.7904 2.1504-3.089067l-0.699733 2.7392c-1.058133 4.113067 0.802133 12.0064 3.925333 13.115734z" fill="#FDEAA3" /><path d="M281.216 537.070933c0.503467 0.170667 1.774933 0.853333 2.304 0.930134l13.9776 2.065066 13.064533 1.937067c1.757867 0.264533 3.234133 0.068267 5.947734-0.7936-1.3824-1.8176-2.9184-3.413333-4.590934-4.770133l-5.4272-4.4032c-1.9712-1.604267-4.1472-2.884267-6.5792-4.053334l-6.289066-3.0208-2.850134-1.365333c3.874133-0.1536 8.584533 0.452267 11.7504 2.901333l3.7888 2.926934c4.2496 3.285333 8.1408 3.063467 12.347734 6.2464l5.521066 4.181333c1.774933 1.348267 3.985067 2.8928 5.410134 3.857067l4.898133-4.3776 4.983467 2.090666c0.520533 0.213333 1.3056 1.4848 2.432 2.9952-3.234133 2.2784-13.021867 5.111467-16.6912 1.7664l-10.9056-0.8192-13.858134-2.261333c-11.1104-1.8176-3.84 1.4336-16.8192-2.6368-3.268267-1.024-7.424-2.338133-10.743466-2.7392l-10.683734-1.288533c-1.664-0.196267-3.652267-0.622933-5.367466-0.981334l-9.659734-1.988266c-2.090667-0.4352-5.495467-0.494933-7.927466-0.7168l-7.594667-0.6912-6.801067-0.64c-4.5824-0.4352-8.558933 0.059733-13.7984 1.621333 1.792 1.851733 3.6096 2.926933 5.495467 3.259733l7.688533 1.3568 12.731734 2.628267 6.570666 1.2544c0.853333 0.162133 2.2272 0.802133 2.9184 1.160533-1.885867 0-5.2992 0.042667-7.074133-0.375466l-8.686933-2.065067c-1.92-0.4608-4.189867-0.7424-6.254934-1.109333l-5.418666-0.9472-21.213867-3.831467-6.4512-0.9216-5.7088-0.8704c-4.036267-0.6144-8.2944-1.9712-12.151467-3.2768l-5.3504-0.221867c-2.218667-0.093867-5.2992-0.546133-7.1424-1.143466l-7.3984-2.3808c-2.423467-0.776533-6.109867-0.452267-8.507733-0.443734-2.1504 0-6.920533-1.1264-12.706133-1.595733l-19.4304-1.5872-15.505067-1.262933c-3.319467-0.273067-6.775467-0.546133-9.838933-1.066667l-9.1392-1.5616c-0.955733-0.162133-3.0976 0.059733-3.959467 0.3072l-4.360533-1.3312-9.719467-2.824533c-5.7088-1.655467-21.290667-7.458133-23.714133-13.098667l-2.338134-5.461333c-0.5632-1.314133-1.476267-3.729067-1.7152-4.8896l-1.595733-7.509334c2.7648-4.8896 5.179733-4.548267 12.552533-10.376533 0.674133-0.529067 2.107733-1.4848 3.0976-1.988267l4.1472-2.090666 8.046934-3.797334c1.1008-0.520533 2.7904-1.288533 3.677866-1.4848l4.6848-1.032533c2.858667-0.631467 0.401067 9.207467 4.386134 16.187733 2.961067 5.179733 8.4992 10.478933 13.013333 14.267734 4.8384 4.053333 8.3712 5.6576 12.4928 8.797866 12.347733 9.4208 8.4736 2.756267 17.5872 9.617067l6.1184 2.397867c1.262933 0.494933 3.447467 1.450667 4.462933 1.723733l9.403734 2.525867 9.7536 2.884266c1.8432 0.546133 4.736 1.092267 6.869333 1.390934l8.516267 1.220266 6.212266 0.827734 8.4736 0.7936 8.456534 0.8704 8.541866 0.853333 7.3984 0.8448 6.5792 0.878933 9.198934 0.631467 13.576533 1.143467 7.569067 0.631466 8.413866 0.8448 7.586134 0.938667 7.893333 1.092267 5.188267 0.861866 4.616533 0.733867 9.608533 1.314133c0.768 0.1024 1.595733 0.196267 2.013867 0.341334zM51.9168 509.457067l5.0176 2.0224c1.928533 0.776533 13.405867 4.778667 13.098667 3.012266l-0.3584-2.065066c-0.3328-1.911467-1.399467-5.051733-1.442134-6.801067l-0.512-21.162667 0.503467-6.562133-0.392533-13.6704c-1.962667 0.1792-4.488533 0.5888-6.033067 1.3056l-8.260267 3.857067c-8.149333 3.805867-12.202667 8.3968-15.965866 16.785066-1.902933 4.232533-2.850133 8.8832-0.213334 12.970667 3.2 4.9664 8.328533 7.799467 14.574934 10.3168z" fill="#FCDC73" /><path d="M179.771733 434.039467c0.273067 0.017067 0.7424 0 1.058134 0 0.9472-0.085333 2.4064-0.238933 3.285333-0.238934h4.224l0.853333 0.913067 6.391467 0.546133c2.218667 0.187733 4.727467 0.699733 6.485333 0.494934l3.985067-0.469334 8.6784 0.9728 7.466667 0.768 6.485333 0.597334 10.24 0.9472 5.307733 0.512c-4.522667 0.341333 10.094933 1.937067 7.569067 1.749333l9.813333 0.725333 9.1648 0.571734c6.9376 0.4352 11.1104 1.9712 12.731734 1.9968l25.096533 0.4352c1.979733 0.034133 5.674667 1.220267 7.697067 1.416533l15.701333 1.501867 7.406933 0.802133c2.6368 0.2816 5.307733 0.529067 7.7312 0.981333l7.1424 1.339734c6.7328 1.262933 13.2608 2.773333 19.84 4.5056l10.2912 2.705066c10.325333 2.7136 4.488533 2.696533 12.919467 5.742934 13.755733 4.957867 11.357867-0.622933 20.744533 5.819733 1.911467 1.314133 4.266667 2.005333 6.562134 2.670933l9.796266 2.824534 12.654934 3.652266c4.1984 1.211733 8.772267 3.259733 12.8256 4.138667 5.256533 1.134933 10.274133 2.2272 15.232 4.0192 1.723733 0.622933 5.768533 0.4096 7.483733 0.827733 12.928 5.4272 3.165867-0.989867 17.928533 3.746134 1.169067 0.375467 3.345067 0.725333 4.872534 1.0752l7.296 1.664c2.107733 0.477867 4.727467 2.466133 6.869333 3.5584 16.187733 8.2688-1.800533 1.8944 11.383467 14.481066l2.781866-2.7648 0.4096-6.596266c1.2288-0.221867 4.7104-0.597333 6.016-0.128 3.319467 1.186133 5.905067 5.853867 6.903467 8.9856 1.3824-0.298667 2.909867-0.571733 2.6112-1.0752l-1.058133-1.809067-1.2544-2.158933c-0.221867-0.375467 1.6384-1.8688 2.065066-1.8176l4.599467 0.5888c5.1456 0.657067 10.359467 3.9168 13.5168 7.8336 2.4832 3.072 6.954667 2.756267 9.8816 0.162133l5.794133-0.989867c2.9952-0.512 3.2 1.3056 11.630934 3.0464l9.6512 1.9968c2.5856 0.5376 6.869333 1.134933 9.1136 2.0224 16.6144 6.5536 5.947733 0.4864 16.930133 4.616534 5.717333 2.1504 0.682667-1.288533 12.885333 0.981333 1.655467 0.3072 3.328 0.6656 4.4288 0.776533 1.937067 0.196267 4.360533 0.375467 6.417067 0.861867l5.282133 1.245867c2.414933 0.571733 4.4032 1.220267 7.1424 2.269866 4.3264 1.655467 10.146133 1.348267 14.728534 2.397867l14.600533 3.3536 9.915733 2.005333c1.041067 0.213333 2.875733-0.093867 3.4048-0.5888 9.693867 0 3.933867 1.885867 12.347734 2.158934-0.3072-0.042667 1.783467 1.1008 2.3296 1.194666l7.1168 1.271467c8.106667 1.450667 7.082667 2.909867 14.165333 3.3024l12.4672 0.682667c2.1504 0.119467 4.369067 0.3584 6.4 0.657066l12.219733 1.834667 4.5568 0.5632 5.4272 0.5376 7.1424 0.503467c-0.341333-0.0768 1.774933 1.194667 2.3808 1.288533l7.338667 1.1264c1.501867 0.2304 4.693333 2.2528 5.1456 3.8656 1.92 6.775467-1.826133 5.632-0.8704 13.934933-2.363733 3.2 0.324267 14.199467-2.4064 14.336l-6.263467 0.298667-8.209066-1.4592-11.639467-2.005333-7.364267-1.2032-10.624-1.885867-6.4768-1.006933-7.424-1.024-7.3984-1.015467-7.3472-1.006933-8.388266-1.152-7.355734-1.032534-7.560533-1.117866-6.237867-0.9472-8.5504-1.1776-9.275733-1.066667-8.661333-0.802133-8.618667-0.699734c-3.029333-0.247467-7.458133 0.162133-10.2656-0.452266l-11.357867-2.4832-9.813333-1.8432-15.940267-2.909867-12.535466-2.56-15.5136-3.2512c-4.974933-1.041067-9.9328-1.962667-14.762667-3.268267l-7.185067-1.9456-12.5184-3.387733-6.7584-1.834667-16.529066-4.48-8.337067-2.286933-15.675733-4.445867-10.752-3.063466c-1.7408-0.494933-3.669333-1.058133-5.0176-1.28l-0.887467-1.399467c-7.432533-3.054933-9.966933-2.397867-15.701333-4.369067l-15.086934-5.188266-6.843733-3.029334-6.365867-2.107733-7.697066-2.5344c-1.681067-0.554667-3.584-1.2288-5.410134-1.5872l-6.306133-1.237333-8.968533-2.474667c-1.5872-0.4352-5.256533-0.162133-6.724267-0.733867-1.732267-0.682667-3.746133-1.783467-5.1712-2.184533l-10.146133-2.850133c-1.425067-0.401067-3.601067-1.262933-4.445867-2.082134-0.7936-0.768-1.9968-1.6128-3.549867-2.312533-10.948267-4.932267-4.906667-1.006933-11.136-2.338133l-7.057066-1.5104c-12.8-2.7392-4.6848 3.2-13.218134-2.8928-2.116267-1.5104-6.314667-3.2512-8.593066-4.096-3.899733 2.688-4.906667 1.348267-14.327467 0.469333-1.655467-0.1536-5.026133-0.861867-6.5024-1.698133-3.669333-2.065067-8.337067-0.2304-11.741867-0.8704l-17.408-3.268267-8.635733-1.629867c-3.797333-0.4096-7.6032-1.0752-10.530133-0.836266l-1.058134-0.059734-0.8704-1.041066c-1.774933 0-3.524267 0.1024-4.445866-0.0768 2.3808-5.640533 10.1632-0.384 8.8832-4.6848-1.527467-5.162667 7.1168-4.164267 6.186666-8.302934l-1.348266-5.998933c-0.5888-2.602667-1.851733-8.5248-6.084267-7.722667-1.169067 0.221867-3.054933 0.5632-3.003733 1.194667 0.034133 0.426667 0.238933 1.544533 0.401066 1.954133l2.210134 5.7344-5.248 2.372267c-0.9728 0.4352-3.729067-1.109333-4.241067-2.056533-0.375467-0.699733-1.1776-2.5344-0.7168-2.884267l2.1504-1.604267c0.785067-0.5888 2.176-2.7904 1.655467-3.626666-2.2016-3.498667-8.721067 0.426667-15.197867-1.152l-8.712533-2.116267c-13.764267-3.3536-8.490667 3.029333-15.880534-0.554667l-5.7344-2.781866c-1.152-0.554667-4.420267-0.785067-5.888-0.904534l-9.6256-0.776533c-2.269867-0.187733-4.4032-0.426667-6.536533-0.708267l-5.998933-0.802133-9.634134-1.143467-7.278933-0.7936c-2.1504-0.2304-4.872533-0.4608-6.664533-0.0512l-5.213867 1.211734c-6.869333-3.780267-13.6192 0.3584-19.925333-3.874134l1.058133-1.058133h1.058133c0.341333 0.349867 2.0992 0.955733 2.884267 0.9984l8.021333 0.452267 4.974934 0.392533 7.2448 0.512z" fill="#FDECA7" /><path d="M494.805333 526.72c1.348267 0.213333 3.2768 0.785067 5.0176 1.28l10.752 3.063467 15.675734 4.445866 8.337066 2.286934 16.529067 4.48 6.7584 1.834666 12.5184 3.387734 7.185067 1.9456c4.829867 1.3056 9.787733 2.2272 14.762666 3.268266l15.5136 3.2512 12.535467 2.56 15.940267 2.909867 9.813333 1.8432 11.357867 2.4832c2.807467 0.6144 7.236267 0.213333 10.2656 0.452267l8.618666 0.699733 8.661334 0.802133 9.275733 1.066667 8.5504 1.1776 6.237867 0.9472 7.560533 1.117867 7.355733 1.032533 8.388267 1.152 7.3472 1.006933 7.3984 1.015467 7.424 1.024 6.4768 1.006933 10.624 1.885867 7.364267 1.2032 11.639466 2.005333 8.209067 1.4592c0 0.136533 1.6128 1.1776 2.116267 1.169067l6.144-0.085333 1.032533-5.4016c0.162133-0.861867 0.170667-2.747733 0.196267-4.343467 0.017067-1.006933 1.911467-3.413333 2.696533-2.824533l2.773333 2.082133c0.324267 0.273067 2.2784 2.397867 2.167467 3.2256l-0.8704 6.5536c-0.213333 1.621333-1.8432 5.7088-3.524267 5.956267-2.269867 0.324267-6.826667 0.682667-8.9344 0.580266l-19.669333-0.896-10.478933-0.699733-9.480534-0.904533-7.4752-0.887467-7.1936-0.836267-6.485333-0.768-9.557333-1.134933-12.535467-1.962667-8.5504-1.245866-7.364267-0.989867-7.441066-0.955733-9.531734-1.160534-9.9584-1.314133c-3.524267-0.4608-7.3472-0.674133-11.136-0.930133l-11.613866-0.785067-7.5264-0.469333-12.586667-0.631467-6.3744-0.520533-17.954133-0.605867-4.053334-0.5376-25.5488-0.605867-9.378133-0.6912-9.531733-0.657066-11.648-0.605867-6.4256-0.469333-15.7696-0.776534-7.330134-0.452266-22.144-0.452267-2.7904-0.238933-4.8384-0.187734-18.747733-0.7424-5.367467-0.452266-10.222933-0.725334-12.0064-1.006933-9.617067-0.8448-12.5696-1.1264-9.540266-0.853333-7.3472-0.768-7.569067-0.827734c-4.411733-0.4864-8.925867-0.2048-13.550933-0.546133l-7.3728-0.546133-13.713067-0.785067-5.282133-0.5888-7.4496-0.785067-5.5808-0.529066-6.050134-0.520534c-12.962133-1.117867-7.944533-1.211733-14.933333-2.005333l-6.920533-0.785067-11.9552-1.476266-5.0688-0.733867-11.818667-1.8176-28.689067-4.804267-8.3968-1.373866c-1.536-0.256-3.242667-0.5888-4.096-1.041067-0.6912-0.3584-2.0736-0.9984-2.9184-1.160533l-6.570666-1.2544-12.731734-2.628267-7.688533-1.3568c-1.885867-0.3328-3.703467-1.408-5.495467-3.259733 5.239467-1.5616 9.224533-2.048 13.7984-1.621334l6.801067 0.64 7.594667 0.6912c2.432 0.221867 5.8368 0.290133 7.927466 0.7168l9.659734 1.988267c1.7152 0.349867 3.703467 0.776533 5.367466 0.981333l10.683734 1.288534c3.319467 0.401067 7.483733 1.7152 10.743466 2.7392 12.9792 4.078933 5.7088 0.827733 16.8192 2.6368l13.858134 2.261333 10.9056 0.8192c3.669333 3.336533 13.457067 0.503467 16.6912-1.7664-1.1264-1.5104-1.92-2.773333-2.432-2.9952l-4.983467-2.090667-4.898133 4.3776c-1.416533-0.964267-3.6352-2.5088-5.410134-3.857066l-5.521066-4.181334c-4.206933-3.182933-8.098133-2.9696-12.347734-6.2464l-3.7888-2.926933c-3.165867-2.449067-7.8848-3.054933-11.7504-2.901333l-7.3216-3.3536-5.930666-2.594134-7.4752-3.0464-6.6048-2.696533-8.8832-3.7888-8.200534-3.336533-9.173333-3.669334-6.186667-2.816-7.0912-2.944c-1.373867-0.571733-3.0464-2.474667-3.985066-4.206933 1.698133-0.810667 3.6608-1.732267 4.744533-1.664l12.322133 0.7936 9.1392 0.853333 6.621867 0.682667c2.6368 0.273067 5.230933 0.520533 7.662933 0.938667l6.101334 1.0496c2.978133 0.512 5.700267 1.041067 8.482133 1.723733l5.418667 1.322667 5.358933 1.365333 5.2992 1.570133 19.464533 4.283734 6.4 1.723733 11.2896 2.5088 11.264 2.338133c1.937067 0.401067 4.445867 0.802133 6.331734 1.024l7.304533 0.853334 6.212267 0.802133 9.1648 1.2544 5.7344 0.708267 9.6 0.887466 7.483733 0.6912 6.306133 0.785067c0.9216 0.110933 2.986667 0.017067 4.104534 0.0768l4.3264 0.238933 9.275733 0.5888 5.154133 0.418134 13.021867 0.4352 12.5952 0.648533 14.728533 0.827733 7.5776 0.708267c4.164267 0.384 8.644267 0.938667 12.5696 1.928533l6.997334 1.7664c2.491733 0.631467 4.650667 1.092267 6.843733 1.442134z" fill="#FDD26A" /><path d="M618.325333 469.725867h5.282134l0.802133 1.058133h8.712533c0.392533 0.4352 2.269867 1.058133 3.165867 1.058133h3.165867l0.8192 1.134934 3.413333-0.0768h1.058133l0.853334 1.066666H657.416533c-1.450667 0.674133 8.226133 3.268267 9.429334 3.575467 8.354133 2.116267 10.760533-2.594133 16.059733 1.553067 6.869333 5.376 9.540267-1.015467 14.1568 7.330133 2.218667-2.645333 6.493867-3.626667 10.282667-2.065067 11.921067-2.8928 6.417067 1.4336 13.1328 1.595734l6.050133 0.145066c1.4848 0.034133 4.1728 0.3328 5.777067 0.64l6.289066 1.220267 5.5296 1.066667c1.262933 0.247467 3.498667 1.2032 5.316267 2.005333 6.289067 2.7648 5.1712-2.193067 9.787733 0.512 1.979733 1.160533 5.239467 3.293867 7.108267 4.241067l7.1168 3.618133c1.467733 0.7424 4.292267 2.321067 5.888 2.696533l11.127467 2.653867 7.458133 1.6896 6.485333 1.3056c2.363733 0.477867 4.727467 0.887467 7.1936 1.1264l6.570667 0.64 6.2208 0.4352 1.058133 0.042667c0.2304 0.366933 0.9984 1.058133 1.518934 0.964266l1.595733-0.2816h1.058133c0.4608 0.273067 2.0992 0.9472 2.816 0.989867l5.751467 0.3328c0.529067 0.034133 1.408 0.068267 1.902933 0.068267-0.256 0 1.629867 0.810667 2.218667 0.930133l11.5968 2.244267 7.227733 1.271466 6.4768 1.066667 8.7552 1.5616c7.099733 1.271467 2.8928 5.239467 13.218134 7.074133 3.601067 0.64 6.9632 0.750933 9.8816-0.469333l14.037333 0.110933 6.877867-0.1792c0.930133-0.0256 2.824533-0.520533 3.2256-0.8704l1.058133-0.0512c3.584-0.1792 10.641067 0.017067 14.634667-0.3328 11.1872-0.981333 14.583467-3.0208 24.354133-1.058133l2.688 3.933867c0.426667 0.631467 0.2304 2.9184 0.170667 3.182933l9.019733 3.473067c8.174933 3.1488 7.1168 2.397867 15.7696 2.235733 0.3328 0 0.725333-0.068267 0.9728 0 0.597333 0.4096 2.2016 0.8704 3.362133 1.1264l4.1472 0.896c0.008533 0.256 1.527467 2.1504 2.235734 2.338133l7.406933 1.9968c1.271467 0.341333 2.824533 2.048 2.858667 3.2512-0.7936 1.595733-1.792 3.549867-2.850134 5.256534l-3.2768 5.282133-3.285333 1.979733-2.116267 0.1536-0.896-1.2032-8.6528-1.646933-8.8832-1.518933c-0.469333-0.0768-1.937067-0.810667-2.082133-0.8192-0.1024 0-0.5376 1.0496-0.605867 1.2288l-1.058133-0.085334-0.759467-1.408-4.445866 0.273067-1.0496 0.093867-2.670934-2.141867-2.5088-4.2752-6.152533-1.1264 5.128533-1.937067-1.083733-4.0704-0.725333-4.164266c-4.744533-1.2544-9.2672-1.664-14.020267-1.194667l-6.818133 0.674133c-2.397867 0.238933-5.376 0.9472-7.236267 1.578667l0.110933 5.3248-5.393066 0.4096c-10.734933 0.8192-12.014933 0.9472-17.792 8.8576-0.887467 1.211733-1.954133 3.182933-2.005334 4.548267l-0.273066 7.0912c-0.196267 5.128533-11.562667 2.295467-13.636267 2.474666l-9.557333 0.8448c-18.5856 1.6384-6.971733 0.136533-23.2448-1.262933-11.758933-1.015467-12.202667 0.699733-17.826134 0.776533l-22.3232 0.298667-7.3216 0.110933c-8.558933 0.128-0.5376-12.603733-10.2912-14.395733l-8.046933-1.476267c-1.3056-0.238933-3.729067-0.2304-5.060267-0.324266l-7.1424-0.503467-5.4272-0.5376-4.5568-0.5632-12.219733-1.834667c-2.039467-0.3072-4.2496-0.546133-6.4-0.657066l-12.4672-0.682667c-7.082667-0.384-6.058667-1.851733-14.165333-3.3024l-7.1168-1.271467c-0.546133-0.093867-2.628267-1.237333-2.3296-1.194666l7.338666 0.238933c1.536 0.0512 8.789333 2.961067 10.743467 1.979733-4.0448 0.477867 15.453867 2.304 12.970667 2.2016 4.1472 0.170667 8.285867-0.1536 12.296533 0.674134l4.522667 0.938666c4.096 0.8448 7.850667 1.262933 12.049066 1.143467 12.142933-5.179733 11.7504-1.2288 15.6416 0.110933 13.064533 4.488533 9.787733 0.145067 16.657067 6.178134l6.2976 5.5296c3.976533 3.498667 2.679467-3.319467 9.6512-0.512 6.391467-2.295467 4.053333 6.382933 11.52 3.421866 1.0752-0.426667 4.036267 0.503467 5.0432 0.3072l6.212267-1.237333c0.938667-0.187733 2.8672-2.184533 3.746133-2.56l6.2464-2.6624 8.704 4.804267 5.930667-1.322667c0.810667-0.1792 1.834667-2.594133 1.109333-2.884267l-2.158933-0.861866c-5.367467-1.373867-10.436267-2.5344-15.9232-3.3792-11.221333-1.732267-7.816533 1.646933-17.877334-2.952534-1.271467-0.580267-3.2-1.245867-4.5568-1.604266l-13.824-3.669334-11.485866-2.858666-13.687467-3.0976-4.949333-0.520534-12.049067-1.937066c-7.364267-1.186133-6.818133-2.875733-15.624533-4.829867-1.809067-0.401067-4.181333-1.032533-6.263467-1.186133l-6.801067-0.503467c-1.092267-0.0768-3.217067-0.8192-4.155733-1.271467-0.64-0.3072-2.295467-1.1008-2.978133-1.160533l-6.144-0.571733-6.340267-0.597334c-0.6144-0.059733-1.800533 0-2.474667 0.008534-3.131733-0.5632-6.144-0.861867-9.258666-0.938667-9.4208-0.452267-3.720533-1.621333-10.581334-2.056533l-13.892266-0.887467c-0.913067-0.059733-3.601067-1.518933-4.4288-1.527467l-10.094934-0.017066c-2.107733-0.981333-4.4544-1.902933-6.664533-2.210134l-6.357333-0.896c-1.911467-0.273067-3.703467-0.802133-5.572267-1.646933l-6.613333-0.750933-9.762134-1.092267-8.430933-1.0496-7.406933-2.423467-12.091734-2.116266-7.1424-1.262934-6.3488-0.9472c-4.292267-0.64-8.413867-1.288533-12.6976-2.218666l-7.637333-1.664-9.710933-2.218667c-3.703467-0.8448-7.441067-1.792-11.195734-2.4064l-12.6208-2.0736-6.340266-1.083733-7.3472-1.3312-11.511467-2.312534c-1.9456-0.392533-4.616533-1.3824-6.212267-1.9456 9.7536-2.321067 9.207467 0.145067 12.6976 1.006934 13.038933 3.2256 2.7136-0.042667 11.8016 1.92 12.151467 2.628267 8.738133 0.554667 19.8144 4.386133 3.490133 1.2032 6.365867-3.490133 9.608534-0.247467 7.338667 7.3472 10.5728-0.0768 16.443733 3.643734 6.903467 4.3776 14.472533 4.898133 22.058667 2.705066l2.961066-3.293866 8.106667 3.345066c0.443733-0.315733 1.7152-3.1232 2.210133-5.0688l-4.164266-1.416533c-5.0432-1.7152-2.082133-5.546667-8.200534-4.650667-1.8688 0.273067-4.514133-0.3584-5.333333-1.493333-5.307733-7.313067-4.667733-0.119467-11.477333-8.1664l-5.188267 2.491733c-4.0448 1.937067-9.591467-1.5872-10.129067-5.4272 6.997333-3.669333 2.3552-10.231467 7.278934-11.648 5.981867-1.723733 5.905067 7.227733 11.204266 4.6336 7.1424-3.498667 6.894933-0.6912 17.408-0.6912z" fill="#FDE68E" /><path d="M412.117333 420.9152l6.6816 0.768c4.701867 0.5376 9.0624 1.211733 13.713067 2.0736l7.330133 1.3568c6.212267 1.152 10.624 3.490133 12.6976 3.84 4.693333 0.802133 9.6256 1.518933 13.960534 3.0208l9.838933 3.4048c4.846933 1.681067 9.565867 3.0464 14.574933 4.3776l7.364267 1.962667c3.3024 0.878933 6.801067 1.826133 10.171733 2.432l6.621867 1.194666c2.2016 0.392533 4.8384 0.9472 6.9632 1.058134l6.468267 0.3328 8.576 0.392533 10.461866 0.554667 6.528 0.4608 11.281067 0.861866 7.790933 0.657067c0.861867 0.0768 2.730667 0.7168 2.944 1.032533l-10.274133-0.2048c-1.066667-0.017067-3.5328-0.622933-4.437333-0.605866l-8.0128 0.145066c-0.273067 0-1.28 1.220267-1.271467 1.245867 0.5888 1.800533 5.905067 1.015467 8.029867 4.573867 1.211733 2.030933 3.345067 5.4016 5.230933 5.546666 0.955733 0.0768 2.986667-2.568533 3.720533-3.4048 3.592533 0.034133 7.176533 2.5344 9.5232 6.7072l8.789334-1.8432c1.211733 0.477867 4.0192 1.629867 5.230933 1.860267l5.4784 1.0496 6.314667 1.1008 6.382933 1.041067 5.486933 0.896c0.580267 0.093867 2.141867 0.810667 2.056534 0.913066-10.513067 0-10.2656-2.807467-17.408 0.6912-5.2992 2.594133-5.2224-6.357333-11.204267-4.6336-4.932267 1.416533-0.2816 7.9872-7.278933 11.648 0.5376 3.84 6.084267 7.364267 10.129066 5.4272l5.188267-2.491733c6.8096 8.046933 6.1696 0.853333 11.477333 8.1664 0.8192 1.134933 3.464533 1.7664 5.333334 1.493333 6.109867-0.896 3.157333 2.935467 8.200533 4.650667l4.164267 1.416533c-0.494933 1.9456-1.7664 4.753067-2.210134 5.0688l-8.106666-3.345066-2.961067 3.293866c-7.594667 2.193067-15.163733 1.672533-22.058667-2.705066-5.870933-3.720533-9.105067 3.703467-16.443733-3.643734-3.242667-3.242667-6.109867 1.450667-9.608533 0.247467-11.076267-3.822933-7.662933-1.749333-19.8144-4.386133-9.088-1.9712 1.237333 1.3056-11.8016-1.92-3.490133-0.861867-2.944-3.328-12.6976-1.006934-2.176-0.145067-5.248-0.3072-7.4752-0.853333l-7.0912-1.757867c-7.816533-1.928533-4.5568-0.768-10.154667-2.090666-3.5072-0.827733-7.031467-1.774933-10.436267-2.389334l-12.578133-2.2784c-1.851733-0.3328-5.230933-0.315733-6.766933-0.750933-2.397867-0.682667-4.48-1.373867-6.570667-1.774933l-6.5024-1.2544-12.0576-2.338134c-0.349867 0.059733-1.186133 1.664-0.7936 2.082134s1.621333 1.339733 2.2528 1.493333l10.4192 2.645333 14.327467 3.5328c3.285333 0.810667 6.690133 1.809067 10.0096 2.474667l7.7568 1.544533 12.3648 2.645334 12.561066 3.114666 14.958934 3.328c8.2176 1.826133 7.5264 2.4576 16.469333 4.727467l13.2096 3.362133 6.528 1.928534 21.572267 5.077333c10.171733 2.397867 7.287467 1.160533 18.158933 4.027733l10.8544 2.858667c4.770133 1.2544 9.659733 2.269867 14.600533 3.242667l16.1792 3.182933c1.749333 0.341333 3.541333 0.7936 4.923734 1.1776v1.058133c-1.1008-0.110933-2.773333-0.469333-4.4288-0.776533-12.202667-2.269867-7.168 1.169067-12.885334-0.981333-10.9824-4.130133-0.315733 1.937067-16.930133-4.616534-2.244267-0.887467-6.519467-1.4848-9.1136-2.0224l-9.6512-1.9968c-8.430933-1.749333-8.635733-3.566933-11.630933-3.0464l-5.794134 0.989867c-2.926933 2.594133-7.3984 2.909867-9.8816-0.162133-3.157333-3.9168-8.3712-7.168-13.5168-7.8336l-4.599466-0.5888c-0.426667-0.0512-2.286933 1.442133-2.065067 1.8176l1.2544 2.158933 1.058133 1.809067c0.298667 0.503467-1.237333 0.776533-2.6112 1.0752-0.9984-3.131733-3.584-7.799467-6.903466-8.9856-1.3056-0.469333-4.7872-0.093867-6.016 0.128l-0.4096 6.596266-2.781867 2.7648c-13.184-12.5952 4.804267-6.212267-11.383467-14.481066-2.133333-1.092267-4.7616-3.072-6.869333-3.5584l-7.296-1.664c-1.518933-0.349867-3.703467-0.699733-4.872533-1.0752-14.762667-4.736-5.009067 1.681067-17.928534-3.746134-1.723733-0.418133-5.76-0.2048-7.483733-0.827733-4.957867-1.792-9.966933-2.884267-15.232-4.0192-4.053333-0.8704-8.6272-2.926933-12.8256-4.138667l-12.654933-3.652266-9.796267-2.824534c-2.295467-0.6656-4.650667-1.3568-6.562133-2.670933-9.386667-6.442667-6.980267-0.853333-20.744534-5.819733-8.430933-3.037867-2.594133-3.0208-12.919466-5.742934l-10.2912-2.705066c-6.570667-1.732267-13.1072-3.242667-19.84-4.5056l-7.1424-1.339734c-2.432-0.4608-5.0944-0.699733-7.7312-0.981333l-7.406934-0.802133-15.701333-1.501867c-2.0224-0.196267-5.717333-1.3824-7.697067-1.416533l-25.096533-0.4352c-1.621333-0.0256-5.794133-1.5616-12.731733-1.9968l-9.1648-0.571734-9.813334-0.725333c2.525867 0.187733-12.091733-1.408-7.569066-1.749333l7.4752 0.145066 8.439466 0.196267c6.775467 0.162133 9.130667 2.4576 16.802134-1.3312l1.979733-3.7888 2.449067 4.846933 9.710933-0.324266c0.989867-0.981333 0-10.9568 3.2-8.2176l1.544533 1.322666 2.312534 1.9968c0.392533 0.341333-0.529067 2.338133-0.2816 2.8672 0.853333 1.851733 4.642133 3.7632 7.645866 3.208534l-3.191466-6.6816 9.463466-3.9936c1.698133-0.7168 8.669867 4.0192 9.198934 1.152l0.887466-4.7616c11.8784-0.1024 8.584533-3.584 16.264534-2.210134 6.562133 1.1776 8.763733 0.7424 13.8752-3.618133l8.3456-0.2048 7.765333-0.3584c5.504-0.256 10.990933-0.315733 16.5888-0.1024l4.5312 0.170667c4.1984 0.162133 4.3264 1.024 10.248533 1.860266l7.748267 1.092267 4.872533-1.450667z" fill="#FCE898" /><path d="M325.6832 403.208533l6.340267-0.042666 0.887466 1.058133h16.017067l1.1008 1.066667h102.434133l0.938667 1.083733 21.239467-0.034133 3.217066 0.366933 2.705067 1.194667 5.179733 2.2784c12.484267 5.504 7.005867-0.0768 13.44 5.597866 5.2224 4.599467 7.8848 0.725333 15.0016 2.747734 12.142933 3.447467 7.296 0.930133 20.573867 1.988266l8.558933 0.682667 5.777067 0.401067c7.022933 0.4864 11.1872-0.119467 16.4096 0.418133l8.507733 0.878933 23.057067 0.682667 6.0416 0.1792 7.799467 0.221867 21.000533 0.5888 4.488533 0.128 6.391467 0.2816c3.473067 0.1536 6.946133 0.520533 10.385067 0.9984l9.847466 1.365333c6.126933 0.853333 2.397867 2.141867 10.026667 3.5072l5.512533 0.981333 7.287467 2.688 6.5536 1.0752 6.0928 0.827734 6.3232 0.853333 8.6016 1.152 11.997867 2.090667 6.826666 0.9472 8.661334 1.041066c4.445867 0.5376 8.925867 1.4592 13.312 2.286934l10.9056 2.039466c1.553067 0.290133 10.0864 2.747733 8.0128 4.036267-8.686933 5.4016-11.554133 1.322667-13.252267 4.096h-3.165867l-6.536533-0.0256-0.853333 1.083733h-2.116267l-4.4544-0.042666-0.827733 1.092266c-0.571733-0.008533-1.5872-0.0512-2.116267 0l-7.3216 0.725334-9.6 1.152-6.485333 0.9472-6.357334 1.0752-7.236266 1.220266c-1.800533 0.3072-3.771733 0.631467-5.376 0.8192l-7.133867 0.836267c-9.454933 1.109333-15.556267 1.169067-25.079467-1.5104l-15.112533-4.241067-8.797867-2.525866c-3.157333-0.904533-11.076267-2.722133-13.4912-2.722134h-2.116266l-0.853334-1.0752-6.536533 0.0256h-3.165867l-0.964266-1.0752-32.8448 0.017067h-5.282134c-0.2048-0.315733-2.082133-0.964267-2.944-1.032533l-7.790933-0.657067-11.281067-0.861867-6.528-0.4608-10.461866-0.554666-8.576-0.392534-6.468267-0.3328c-2.1248-0.110933-4.7616-0.657067-6.9632-1.058133l-6.621867-1.194667c-3.370667-0.605867-6.869333-1.553067-10.171733-2.432l-7.364267-1.962666c-5.009067-1.3312-9.728-2.705067-14.574933-4.3776l-9.838933-3.4048c-4.334933-1.501867-9.2672-2.2272-13.960534-3.0208-2.0736-0.349867-6.485333-2.688-12.6976-3.84l-7.330133-1.3568c-4.650667-0.861867-9.0112-1.536-13.713067-2.0736l-6.6816-0.768c-0.247467-0.5888-1.9712-1.7408-3.012266-1.774934l-11.52-0.426666-5.179734-0.810667c4.155733 0.648533-18.0992-0.8704-15.9488-0.827733l-17.220266-0.324267c-3.080533-0.059733-12.475733-2.3552-16.0768-3.310933-10.5216-2.807467-5.1712-0.2304-15.786667-4.164267l-4.2496-1.578667c-0.6144-0.2304-1.646933-1.467733-1.783467-2.116266-0.392533-1.860267 4.0192-2.372267 4.343467-2.372267z" fill="#FCD364" /><path d="M526.404267 638.754133h-7.6544l-0.7936 1.058134H507.392c-8.337067 0-6.877867-0.622933-13.841067-0.324267l-11.3664 0.494933-5.76-2.901333c-2.312533-1.169067-5.512533 4.770133-11.989333 2.551467-5.640533-6.801067-3.182933 1.032533-16.1792-4.7616-3.7888-1.6896-1.8944 4.957867-7.125333 3.566933-14.651733-3.882667-12.322133 0.4352-19.601067-3.566933-5.4016-2.9696 3.336533 3.874133-9.838933 2.4064l-5.9392-0.657067c-6.6304-0.733867-8.7808-4.352-9.3952-2.773333l-1.160534 2.9952c-0.2816 0.7168-1.757867 1.595733-2.705066 1.8176l-0.273067-7.133867c-0.017067-0.529067 1.2544-2.133333 1.783467-2.0224l2.722133 0.580267c0.520533 0.110933 1.860267-0.3328 2.193067-0.750934s0.0512-1.6896-0.477867-1.7664l-2.218667-0.315733c-1.911467-0.273067-4.8128-1.390933-6.007466-2.7392-0.9472-1.066667-0.9472-4.6592-0.059734-5.307733l7.150934-3.345067c1.390933 0.930133 5.649067 2.466133 6.9888 1.237333 0.64-0.5888 0.6144-3.106133 0.5376-5.290666l-7.901867 2.2784c-0.366933-0.136533-1.757867-2.193067-1.9968-3.2-0.196267-0.836267 1.664-2.781867 2.517333-2.6368 1.877333 0.324267 6.306133 1.416533 7.5264 0.0256 1.6384-1.8688 5.12-4.232533 6.980267-2.244267s2.961067 2.0992 5.162667 1.595733l11.255466-2.577066c0.5376-0.119467 1.979733-1.092267 1.902934-1.143467 3.2256-0.017067 6.8608-0.0256 10.368-0.366933l6.528-0.631467 8.490666-0.3584c2.679467-0.110933 5.614933-0.768 8.2432-1.245867l4.590934-0.8448c1.245867-0.2304 3.848533-1.604267 5.162666-1.6128l17.8688-0.145066 5.384534 0.571733 13.704533 0.810667 9.378133 0.896 9.6256 0.836266 8.3968 0.682667 9.506134 0.7168 9.506133 0.904533 9.480533 0.8704 7.4496 0.64 11.460267 0.861867 9.685333 0.930133 9.463467 0.904534 4.1728 0.392533 8.567467 0.7936 10.513066 0.930133 6.587734 0.5376 15.428266 0.827734 7.611734 0.989866 5.239466 0.349867 16.238934 0.887467 9.096533 0.8192 8.4224 0.759466 5.111467 0.452267 14.4384 1.792 0.477866 3.063467c0.068267 0.443733-0.810667 0.682667-1.8176 1.314133l-6.545066 0.725333-5.461334 0.605867-10.1888 0.8192-6.545066 0.708267-5.4528 0.5888-13.346134 0.802133-6.536533 0.657067-6.545067 0.657066c-3.669333 0.366933-7.517867 0.384-11.451733 0.580267l-4.1216 0.2048c-3.268267-0.1536-6.4256-0.128-9.693867 0.2048l-5.2224 0.529067c-1.6128 0.162133-3.950933 0.597333-5.3248 0.657066l-12.194133 0.5632-3.694933 0.7424-12.1856 0.221867-3.677867 0.785067c-2.304 0.494933-6.6048 0.2304-9.088 0.4864l-6.596267 0.682666-6.510933 0.6656-9.122133 0.827734-6.570667 0.8448-9.489067 1.152-9.736533 0.878933c-0.896 0.0768-2.4832 0.5888-2.935467 0.938667z" fill="#FCD677" /><path d="M759.8848 454.929067c1.698133-2.773333 4.565333 1.3056 13.252267-4.096 2.0736-1.288533-6.459733-3.746133-8.0128-4.036267l-10.9056-2.039467c-4.386133-0.8192-8.874667-1.749333-13.312-2.286933l-8.661334-1.041067-6.826666-0.9472-11.997867-2.090666-8.6016-1.152-6.3232-0.853334-6.0928-0.827733-6.5536-1.0752-7.287467-2.688c-0.2048-0.298667-1.8176-1.425067-2.594133-1.7152l-6.587733-2.517333-6.9888-2.670934c-1.194667-0.452267-4.027733-0.7424-5.188267-0.759466-5.239467-0.0768-10.4704-0.631467-15.8208-1.297067l-7.0656-0.8704-7.424-1.015467-8.6016-0.904533c-0.6912-0.0768-2.0992-1.024-2.423467-1.5872-1.518933-2.705067 5.905067 0.7168 9.873067-2.218667l-1.877333-5.341866 10.4192-1.083734c3.6352-0.375467 6.237867 2.952533 10.871466-2.1504l10.948267-0.6656 6.596267-0.597333 6.4256-0.520533 4.266666-0.384 7.2448-0.9216c1.450667-0.187733 4.795733 0.5632 6.135467 0.3072 4.283733-0.827733 8.7808-0.904533 12.689067-0.366934l15.522133-3.473066c9.4208-2.107733 5.6576-0.315733 11.767467-1.851734 2.261333-0.571733 5.623467-2.116267 7.5008-1.9968 15.940267 1.015467 5.700267 0.196267 17.8176-4.232533 7.645867-2.7904 5.563733-0.196267 14.336-3.2256l5.026133-1.732267c3.9168-1.348267 8.644267-1.006933 9.173333 0.315734 2.261333 5.649067-2.158933 10.299733-6.673066 13.824l-3.694934 2.8928-12.9024 4.1984c-1.467733 0.477867-3.037867 1.083733-4.7104 1.749333l-11.835733 4.753067c-16.571733-1.501867-8.3456-1.723733-16.221867-4.949334-0.6912-0.2816-2.158933 1.5872-2.2528 2.5088-0.273067 2.525867 3.370667 7.168 6.912 6.0416 5.6064-1.774933 1.3056 5.691733 11.869867 4.266667 4.906667-0.6656 10.581333-0.6144 15.4112-0.017067l7.662933 0.955734 7.355734 0.836266 6.545066 0.64 12.296534 0.7936 5.486933 0.554667c2.517333 0.256 4.9152 0.4864 7.355733 0.9472l7.0656 1.3312 6.8608 1.450667c11.246933 2.3808 11.264 4.266667 25.002667 6.314666 7.389867 1.1008 18.688-2.090667 23.1936 3.106134 3.165867 3.652267 3.694933-0.981333 8.439467 3.976533 5.597867 5.853867 4.983467-3.712 13.448533 4.027733-3.456 5.8112-12.2112 5.6064-11.042133 8.029867 1.988267 4.1216 3.310933 0.1536 8.6528 6.784l-17.5872-0.349867 2.2528-5.504c-3.387733-6.417067-15.488 0.8192-19.7888-2.2784l-5.9392-4.258133c-1.399467 1.5872-3.584 3.566933-5.666134 3.7632-1.553067 0.145067-4.9152-2.210133-5.819733-3.4816l-4.1728-5.8368c-3.3024-4.616533-6.007467 10.427733-14.8736 5.3248-1.28-0.733867-2.756267-0.418133-4.548267 0.3328-4.2752 1.783467-9.070933 1.5104-14.020266 1.9456l-6.442667 0.5632-17.322667 0.520533c1.570133-0.0512-8.644267 1.570133-10.999466 0.8448z" fill="#FCE898" /><path d="M632.055467 454.929067c0.657067 0.3328 1.6896 0.494933 3.063466 0.887466l20.0192 5.725867c9.079467 2.594133 19.925333 6.161067 29.568 4.795733l7.594667-1.0752 7.389867-1.041066 8.448-1.1264 8.3968-1.536 6.1952-0.7168 6.545066-0.836267 7.569067-0.964267c0.9984-0.128 2.466133-0.597333 2.961067-0.9472 2.158933-0.0512 4.770133-0.110933 7.185066-0.3584l6.5536-0.6912 6.613334-0.708266c2.3808-0.256 6.869333 0.034133 9.045333-0.4608l3.720533-0.8448 19.575467-0.1792c6.024533-0.059733 13.457067 0.119467 17.373867 5.307733-2.0224 2.286933-3.191467 2.8672-5.4272 3.336533l-6.8608 1.450667-14.421334 2.909867c-2.696533 0.546133-5.6832 0.8192-8.448 1.092266l-8.4736 0.8448-7.415466 0.7424-9.5488 0.955734-11.630934 0.674133-9.454933 0.64c-3.2512 0.221867-6.280533 0.520533-9.514667 0.964267l-38.007466 0.290133c-2.901333 0.0256-5.888-0.349867-8.618667-0.8704l-13.550933-0.631467c-1.245867-0.059733-3.6608-0.477867-5.265067-0.657066l-6.5536-0.725334-7.048533-0.785066-7.611734-0.938667-7.381333-0.9984-7.441067-1.058133-6.212266-1.041067-8.576-1.6128c-4.155733-0.785067-15.726933-3.421867-18.952534-4.565333l-13.909333-4.932267c-0.861867-0.3072-1.723733-1.262933-2.781867-2.730667l7.133867-0.4096 5.367467 0.580267 36.736 0.2816c2.909867 0.520533 5.666133 0.887467 8.635733 1.194667l7.406933 0.768z" fill="#FDFDF7" /><path d="M549.649067 402.107733l0.827733 1.058134h10.794667c0.4352 0.426667 2.2528 1.015467 3.165866 1.058133s2.961067 0.085333 3.968 0.290133l5.376 1.058134 5.4528 0.955733c2.6624 0.469333 5.111467 0.674133 7.381334 0.8704 0.392533 0.4352 2.269867 1.058133 3.165866 1.058133h3.165867l0.810667 1.083734 3.421866-0.0256 5.341867 0.7936 12.6208 0.264533 1.7152 2.141867c0.366933 0.4608 2.551467-0.273067 2.978133-0.648534l1.646934-1.4848 2.3552 0.341334 1.877333 5.341866c-3.959467 2.935467-11.392-0.4864-9.873067 2.218667 0.324267 0.571733 1.732267 1.518933 2.423467 1.5872l8.6016 0.904533 7.424 1.015467 7.0656 0.8704c5.3504 0.657067 10.581333 1.211733 15.8208 1.297067 1.152 0.017067 3.9936 0.3072 5.188267 0.759466l6.9888 2.670934 6.587733 2.517333c0.776533 0.298667 2.389333 1.416533 2.594133 1.7152l-5.512533-0.981333c-7.6288-1.3568-3.908267-2.653867-10.026667-3.5072l-9.847466-1.365334c-3.447467-0.477867-6.920533-0.8448-10.385067-0.9984l-6.391467-0.2816-4.488533-0.128-21.000533-0.5888-7.799467-0.221866-6.0416-0.1792-23.057067-0." fill="#FDE086" /></svg>