<?xml version="1.0" standalone="no"?><!DOCTYPE svg PUBLIC "-//W3C//DTD SVG 1.1//EN" "http://www.w3.org/Graphics/SVG/1.1/DTD/svg11.dtd"><svg class="icon" width="256px" height="256.00px" viewBox="0 0 1024 1024" version="1.1" xmlns="http://www.w3.org/2000/svg"><path d="M749.44671 619.492893c-19.967951 8.840512-43.861227 16.401027-65.228642 20.898082-8.157847 1.715196-17.297025-3.413325-22.988744 6.579184 6.638917 21.853813 18.227156 41.616965 24.311408 63.718245 25.053806 91.007779 0.273066 188.082742-79.052608 242.704476-15.556229 10.709307-34.013784 18.047956-50.312411 27.409-10.188775 0.776531-18.978087 4.04479-27.1274 4.386123-63.06118 2.60266-124.62903-7.850648-185.019283-25.420738-3.532791-0.119466-2.60266 16.622893-2.124795 21.034615l-4.582389-20.63355c-93.380039-43.758827-141.234856-153.616693-116.240784-253.541783 9.070911-36.266578 24.695407-61.294784 45.192423-91.349111l29.567928 10.342375c5.862386 3.96799 4.036257 12.475703 4.044791 19.06342-20.249551 42.094831-31.291657 80.085138-25.139139 128.076489 2.696527 21.043149 25.250072 63.248913 50.457477 50.59401l7.799448-8.994112c3.822924-12.936502-6.348785-28.87673-7.807981-41.634032-3.908257-33.979651 5.597853-94.190704 23.10821-123.912231 1.706663-2.892793 5.905052-3.583991 6.203718-4.130124 17.006892-3.268259 32.887387 3.080526 48.136417 4.386123 73.480355 6.289051 163.336136 8.379713 235.55356-4.292256 5.33332-0.938664 11.716238 1.015464 16.51196-0.298666 1.638396-0.443732 8.533313-5.879452 4.420255-8.19198l-31.522056-33.604185c13.192501 0.767998 26.939668-1.041064 40.098036-0.196266 6.72425 0.435199 11.588238 3.831457 16.708226 4.300789 19.771685 1.800529 49.783346-1.954129 65.032375 12.689036z m-404.777682 252.756718c-4.556789 1.015464-15.522096 7.842114-17.578624 11.801571-2.773327 4.164257-2.952526 9.76211-1.578663 14.412765 1.322663 4.462922 30.608992 25.924204 35.942313 27.135934 9.975442 2.269861 23.458076-5.401587 26.248469-14.583431 6.058652-19.899685-23.534876-43.118828-43.042028-38.766839z" fill="#E3D32A" /><path d="M417.534984 123.724499c0.1024 4.12159-0.503465 8.29438 0.204799 12.381836 9.215978 1.075197 18.252756 7.389849 27.178601 8.558913 30.736992 4.027724 107.03334 3.165859 138.896729 0.273066 8.473579-0.767998 9.60851-4.24959 10.180242-4.403189 3.285325-0.904531 7.372782 0.955731 12.586636-2.013862 5.870919-3.345059 7.022916-11.306639 12.629302-14.788231l31.615923 25.096473c10.504508 20.787149-13.661833 36.718844-31.615923 37.922041v121.838636c12.168504 0.418132 24.226074-6.493851 35.814313-8.302913 16.034094-2.508794 35.310847-2.338128 50.466011-0.213333 15.419696 2.158928 28.287931 4.258123 42.777496 11.810105 17.85169 9.301311 47.445218 43.810027 55.014266 62.625981 7.048516 17.527424 7.176516 71.509159 4.898121 91.528311-1.834662 16.119427-16.162094 57.565727-22.843678 73.787553-9.992509 24.251674-27.059134 46.310287-35.874046 71.261694-7.543448-5.973319-14.99303-2.995193-23.00581-4.309323-18.193022-2.978126-85.418459-15.231963-98.84136-12.49277h-4.19839c-10.862907-23.560476-35.566847-46.933219-45.354556-70.177962-9.471977-22.485279-16.392493-67.13157-17.843157-91.391778-4.522656-75.366217 4.04479-155.050289-0.179199-230.902905l-3.669325-4.735988c-6.212252-4.14719-54.8692-2.073595-67.396102-1.928529-11.12744-12.040504-36.317778-11.750371-33.621252-33.629785l-8.430913 2.150395 2.329595 19.054887-31.70979 12.424503c-1.996795-10.316775-31.052724-13.542367-33.706584-31.40259-2.995193-20.147151 7.893314-29.465528 26.862868-31.58179l2.645327-8.447979h4.198389z m254.992446 223.478923c-9.975442 1.706663-50.269744 18.047956-52.906538 26.922601-1.305597 37.179643-0.870398 79.31714 16.998359 112.41786 9.147711 16.947159 46.958819 61.115585 62.532114 71.918758 10.990907 7.620248 18.867154 10.018109 27.135934-2.030928 21.572214-44.748691 41.437766-93.704305 35.669247-144.793248-2.508794-22.237813-15.615962-41.736432-33.621252-54.6132-16.35836-11.699172-36.198312-13.166901-55.807864-9.81331z" fill="#DCF4D2" /><path d="M762.050412 632.096595c10.84584 14.190899 14.557831 26.521535 21.009016 42.018031l-0.383999 16.426627c-12.424503 2.312528-18.611155 10.683707-16.53756 23.526343 0.742398 4.565322 4.317856 7.893314 4.317856 8.362646v84.027529c0 15.522096-19.848485 64.55451-28.59513 80.648337-13.636233 25.087939-35.47298 45.687355-47.035619 68.505433-2.175995 4.30079-7.082649 3.788791-7.722648 4.744522-0.733865 1.100797-2.235728 13.422901-4.881055 20.462884-0.793598-11.246906 5.768519-18.696488-10.649574-16.964226-24.669807 2.60266-54.903333 14.199432-79.777939 16.870359-11.537039 1.245864-24.021275-0.793598-35.618047 0.093867 16.298627-9.369577 34.764715-16.699693 50.312411-27.409 79.325674-54.621734 104.106413-151.696698 79.052608-242.704476-6.084252-22.109813-17.67249-41.872965-24.311408-63.718245 5.691719-9.992509 14.830897-4.863988 22.988744-6.579184 21.367415-4.497056 45.26069-12.057571 65.228642-20.898083 3.003726 2.88426 10.828774 10.274108 12.603702 12.603703z" fill="#CFBF16" /><path d="M556.184247 980.818947c11.596772-0.887465 24.081008 1.143464 35.618046-0.093867 24.874606-2.67946 55.108133-14.276232 79.777939-16.870359 16.418093-1.732262 9.855976 5.717319 10.649575 16.964226-6.178118 16.443693-11.682105 17.553024-28.219665 24.302874-63.854778 26.06927-222.864524 24.618607-286.949702-1.134931-10.274108-4.130123-14.259165-6.64745-20.949282-14.76263l-4.19839-4.19839c-0.110933-1.39093 0.145066-2.815993 0-4.19839-0.477866-4.411723-1.407997-21.154082 2.124795-21.034615 60.390253 17.570091 121.958103 28.023398 185.019283 25.420738 8.149314-0.332799 16.938625-3.601058 27.127401-4.386123z" fill="#BEB010" /><path d="M417.534984 195.148325l31.70979-12.424503-2.329595-19.054887 8.430913-2.150395c-2.696527 21.879413 22.485279 21.589281 33.621252 33.629785-2.798927 0.034133-5.606386-0.017067-8.405313 0l-33.399386 0.213333c-8.106647 16.43516-0.477866 30.941791-0.0512 47.974283 1.587196 63.129446-2.517327 158.514814-22.075679 217.693337-6.399984 19.362086-14.566365 23.765276-22.161013 36.659111-3.532791 5.998919-3.694924 13.713033-8.524779 20.881016-13.5509 20.113018-35.899646 41.557232-50.244145 63.180646-4.531189 6.835183-10.077842 6.357318-2.175994 16.742359-7.679981-0.597332-13.482634-4.437323-23.116744-4.428789-13.397301 0-25.719404 7.261849-39.90177 4.428789 22.707145-26.22287 51.319342-47.069752 73.582755-71.236093 17.399424-18.884221 41.872965-47.368418 50.508677-71.466493 7.662915-21.375948 13.388767-59.383322 14.73703-81.8942 3.498658-58.273992-2.969593-120.106374-0.179199-178.747299z" fill="#EAFADF" /><path d="M694.833509 955.611541c11.554105-22.818078 33.399385-43.408961 47.035619-68.505433 8.746645-16.093828 28.59513-65.126242 28.595131-80.648337V722.430242c0-0.469332-3.575458-3.797324-4.317857-8.362646-2.082128-12.842635 4.104523-21.213815 16.53756-23.526343l0.383999-16.426627c18.056489 43.357761 24.533274 80.477671 16.708226 128.042355-7.236249 44.014826-36.778577 97.953895-69.145432 128.323955l-35.797246 25.122072z" fill="#E2D529" /><path d="M615.00437 22.894878c-12.33917-1.826129-21.375948 8.337046-32.247388 11.852771-3.054926 0.989864-19.26822 4.607989-22.374346 4.949321-29.363129 3.191459-65.84304-0.1536-94.608836-4.130123-5.495453-0.759465-11.477305 0.819198-16.674093-0.128-10.700774-1.962662-20.095951-9.471977-31.564723-8.337046 0.588799 32.119389-0.819198 64.520376 0 96.631231h-4.19839l1.996795-100.940554c3.703458-2.90986 6.835183-8.11518 10.641041-10.359442 6.527984-3.857057 31.846323-9.63411 39.970036-10.444774 25.625538-2.568527 75.212617-2.619727 100.914955-0.273066 15.001563 1.373863 41.096433 7.236249 48.136416 21.179682z" fill="#F3894C" /><path d="M615.00437 22.894878c11.443172 22.673011 0.213333 73.847287 4.19839 100.838154-5.606386 3.481592-6.74985 11.443172-12.629303 14.788231-5.205321 2.969593-9.292777 1.109331-12.586636 2.013862h-33.621251V39.69697c3.106126-0.341333 19.31942-3.959457 22.374345-4.949321 10.87144-3.515725 19.908218-13.6789 32.247389-11.852771z" fill="#E25F2C" /><path d="M623.409683 594.285487h4.19839c-21.418615 4.377589-21.452748 0-35.711913 0H407.030476c-0.469332 0-3.771724 3.396258-8.362646 4.241057-21.316215 3.925324-16.273027-2.542927-31.55619 16.759425-6.015985 7.603181-14.242099 13.943433-12.765836 25.062339-20.616483 1.245864-49.416413 4.002124-37.657508-25.062339 5.009054-3.609591 10.265575-4.19839 8.39678-12.595169-21.785547-1.373863-38.937505-0.580265-58.811591 8.39678 4.642122-6.374384 8.29438-7.628781 12.603703-12.603703 14.182365 2.824526 26.504469-4.420256 39.90177-4.428789 9.63411 0 15.436762 3.831457 23.116743 4.428789 15.718362 1.220264 23.697009-0.716798 37.811108-4.19839 66.116106-16.315694 173.891844 0.725332 243.685807 0z" fill="#F9FCC3" /><path d="M266.282019 611.096113c19.874085-8.977045 37.026043-9.770643 58.81159-8.39678 1.868795 8.405313-3.387725 8.994111-8.39678 12.59517-7.423982 5.341854-11.801571 19.01222-16.802092 29.405795-0.008533-6.596251 1.817596-15.09543-4.04479-19.06342l-29.567928-10.342375c0.657065-0.964264-0.665598-3.293859 0-4.19839z" fill="#EEEE63" /><path d="M627.608073 594.285487c13.422901-2.739193 80.648337 9.514644 98.841359 12.49277 8.004247 1.31413 15.462362-1.663996 23.005811 4.309323 3.771724 2.986659 13.329034 15.564762 12.603703 21.009015-1.774929-2.329594-9.599977-9.719443-12.603703-12.603702-15.24903-14.643164-45.26069-10.888507-65.032375-12.689036-5.119988-0.469332-9.983976-3.865591-16.708226-4.30079-13.158368-0.853331-26.905535 0.964264-40.098036 0.196266l31.522057 33.604185c4.113057 2.321061-2.78186 7.748248-4.420256 8.19198-4.795722 1.305597-11.178639-0.639998-16.51196 0.298666-72.217424 12.671969-162.064672 10.581308-235.55356 4.292257-15.240496-1.305597-31.129524-7.645848-48.136416-4.386123 4.548256-8.19198 9.045311-20.334884 12.603702-29.405795 15.283163-19.310886 10.239975-12.834102 31.55619-16.759426 4.582389-0.844798 7.893314-4.241056 8.362647-4.241056h184.865683c14.259165 0 14.293299 4.377589 35.711913 0z" fill="#F5F263" /><path d="M346.111158 989.22426c-0.648532-0.785065-4.403189-0.981331-4.19839-4.19839l4.19839 4.19839z" fill="#E3D32A" /><path d="M316.705363 615.294503c-11.767438 29.064463 17.041025 26.308203 37.657508 25.062339-1.484796-11.118906 6.74985-17.459158 12.765836-25.062339-3.566925 9.070911-8.055447 21.213815-12.603703 29.405795-0.298666 0.537599-4.497056 1.228797-6.203718 4.130123-17.510357 29.721528-27.007934 89.932581-23.108211 123.912232 1.46773 12.757302 11.630905 28.69753 7.807981 41.634032l-7.799447 8.994111c-25.207405 12.654903-47.76095-29.550861-50.457478-50.59401-6.152518-47.99135 4.889588-85.973124 25.139139-128.076488 5.000521-10.402108 9.378111-24.063941 16.802093-29.405795z" fill="#F7F491" /><path d="M344.669028 872.249611c19.498619-4.343456 49.100681 18.867154 43.042029 38.766839-2.798927 9.181844-16.273027 16.861826-26.24847 14.583431-5.33332-1.21173-34.619649-22.673011-35.942312-27.135934-1.373863-4.650655-1.203197-10.257042 1.578662-14.412765 2.056528-3.96799 13.021835-10.786107 17.578624-11.801571z" fill="#F1E872" /><path d="M488.95881 195.148325c12.526903-0.145066 61.183851-2.227195 67.396103 1.928529l3.669324 4.735988c4.215456 75.844082-4.351989 155.536688 0.1792 230.902905 1.459196 24.260208 8.379713 68.897966 17.843156 91.391778 9.796243 23.253277 34.491649 46.62602 45.354557 70.177962-69.78543 0.725332-177.569701-16.315694-243.685807 0 18.406355-31.718323 43.86976-58.999323 62.361448-90.990712 21.427148-37.060176 28.066065-75.596616 38.647373-116.803982l-0.1792-191.342468c2.798927-0.017067 5.606386 0.034133 8.405313 0z" fill="#EDFDE4" /><path d="M672.52743 347.203422c19.601019-3.353592 39.449504-1.885862 55.807864 9.813309 18.00529 12.876769 31.103924 32.375388 33.621252 54.613201 5.768519 51.097476-14.088499 100.044557-35.669247 144.793247-8.26878 12.057571-16.145027 9.65971-27.135934 2.030929-15.573295-10.803174-53.384403-54.9716-62.532114-71.918759-17.868757-33.100719-18.303955-75.238217-16.998359-112.417859 2.636794-8.866112 42.931096-25.215939 52.906538-26.922602z" fill="#FEFEFD" /><path d="M560.382636 39.69697v100.838155h33.612719c-0.571732 0.1536-1.706663 3.635191-10.180242 4.403189-31.863389 2.892793-108.16827 3.754658-138.896729-0.273066-8.925845-1.169064-17.962623-7.483715-27.178601-8.558913-0.708265-4.087457-0.1024-8.260247-0.204799-12.381836-0.819198-32.110855 0.597332-64.50331 0-96.631232 11.468772-1.134931 20.863949 6.382918 31.564723 8.337047 5.196787 0.955731 11.178639-0.631465 16.674093 0.127999 28.765797 3.976524 65.237175 7.321582 94.608836 4.130124z" fill="#EC763B" /><path d="M480.562031 195.148325l0.179199 191.342468c-10.581308 41.207366-17.220225 79.752339-38.647372 116.803982-18.491688 31.982856-43.963626 59.263856-62.361449 90.990712-14.122632 3.481592-22.092746 5.427187-37.811108 4.19839-7.893314-10.376508-2.355194-9.907176 2.175995-16.742359 14.344498-21.623414 36.693244-43.067629 50.244144-63.180646 4.829855-7.167983 4.991988-14.882097 8.52478-20.881016 7.594648-12.885302 15.761028-17.297025 22.161012-36.659111 19.558352-59.178523 23.662876-154.563891 22.07568-217.693337-0.426666-17.032492-8.046914-31.547657 0.0512-47.974283l33.399385-0.213333z" fill="#FCFEFA" /></svg>