<?xml version="1.0" standalone="no"?><!DOCTYPE svg PUBLIC "-//W3C//DTD SVG 1.1//EN" "http://www.w3.org/Graphics/SVG/1.1/DTD/svg11.dtd"><svg class="icon" width="256px" height="256.00px" viewBox="0 0 1024 1024" version="1.1" xmlns="http://www.w3.org/2000/svg"><path d="M462.594645 55.441067c-6.126933-0.6656-13.013333 0.4608-19.285333 0l8.2432 2.798933c2.517333 30.916267-9.301333 60.288-10.999467 90.888533-31.709867 136.5248-67.618133 273.373867-108.765866 407.9104-25.224533 82.466133-57.634133 161.9968-86.877867 242.414934-5.666133 3.566933-8.8064 13.824-11.579733 20.113066-10.205867 23.150933-20.5824 46.839467-32.938667 69.026134-8.149333 14.626133-20.104533 29.533867-27.665067 43.9808-2.594133 4.957867-5.845333 9.668267-4.974933 15.684266 4.266667 0.955733 6.698667-0.8448 10.1632-2.2272 23.355733-9.3184 69.026133-71.287467 83.524267-94.216533v5.504l11.025066-2.756267c0.8704-4.113067-1.211733-5.6832-4.130133-8.251733l-6.8864 5.495467c3.541333-5.597867 7.569067-16.042667 11.025067-22.0416 3.131733-5.444267 7.031467-11.605333 11.025066-16.5376-1.041067 3.8144-1.3568 9.557333-2.7648 13.7728 9.565867-2.210133 11.434667 8.814933 19.208534 8.183466l1.5616-5.597866c6.877867 4.317867 16.3072-1.28 20.6336 1.4336 4.3264 2.705067 5.461333 9.326933 13.713066 7.0144v-8.2944h8.2688c-1.1008 8.482133 0.1536 12.996267 5.521067 19.293866l-5.0944 0.324267c1.425067 9.7024-4.420267 6.801067-6.007467 9.642667-2.235733 4.002133-6.237867 13.2352 2.833067 6.570666-10.487467 14.2592-18.756267 29.713067-33.152 42.743467-1.792 1.621333-5.051733 0.9984-5.4272 1.348267v-5.504h-5.512533l5.512533 5.504c-25.719467 24.081067-30.190933 29.602133-63.377067 44.091733l-8.251733-12.398933c4.130133-8.6784 10.487467-3.362133 13.738667-5.316267 4.701867-2.824533 14.5152-11.793067 16.546133-16.7424 2.816-6.894933-11.136-3.592533-13.678933-4.036267l-3.037867 13.508267c-5.102933 0.366933-15.3856 1.365333-19.242667 4.224-6.178133 4.5824 2.577067 2.944-11.810133 7.364267-9.412267 2.8928-11.630933 15.761067-10.069333 24.4224 5.205333-2.184533 11.4688-1.672533 16.529066-2.756267l-5.205333 3.0976-0.3072 5.1712c-8.234667-0.418133-16.733867-1.3056-24.797867-2.756267l-1.723733-2.4576-6.545067-0.298666c-20.061867-4.718933-39.748267-13.4912-57.864533-22.0416l6.084267-7.3472c-3.131733-137.480533 43.7504-274.2528 89.8048-402.423467C277.097045 372.906667 343.682645 215.381333 423.622912 64.64l0.426667-9.207467c-1.732267-1.962667-13.038933 7.125333-13.7728 8.260267l-2.756267-8.2688c12.535467-4.232533 26.666667-2.850133 39.944533-2.747733 4.522667 0.034133 12.859733-2.030933 15.163734 2.747733z m-178.4064 788.053333c0-1.885867-1.527467-3.413333-3.413333-3.413333s-3.413333 1.527467-3.413333 3.413333 1.527467 3.413333 3.413333 3.413333 3.413333-1.527467 3.413333-3.413333z m46.139734 33.1264h-5.504v5.504l5.504-5.504z m-65.425067 10.9568c0-1.885867-1.527467-3.413333-3.413333-3.413333s-3.413333 1.527467-3.413334 3.413333 1.527467 3.413333 3.413334 3.413333 3.413333-1.527467 3.413333-3.413333z m57.156267-2.688l-10.999467 9.668267-5.521067 9.617066c1.8432 2.0736 15.5392-16.1792 16.529067-19.285333z m-30.318934 19.285333c-3.5584-4.2496-5.077333-0.0768-5.435733 4.138667-0.494933 5.819733-1.664 9.7024-2.816 15.146667 8.797867-3.541333 9.088-10.7776 8.260267-19.285334z m-11.016533 13.7728c-2.2528-7.4496-10.171733-5.504-16.529067-5.495466v2.7392l16.529067 2.756266z m-82.670933 22.050134h-5.504l4.138666 5.504h1.365334v-5.504z" fill="#60463A" /><path d="M410.234112 63.709867c-31.291733 48.520533-61.380267 100.9152-88.712533 152.3968C261.463979 329.216 201.815979 459.8016 160.062379 580.974933c-34.261333 99.456-69.802667 225.655467-50.090667 329.984 1.860267 9.856 6.007467 19.285333 8.1664 29.0304-16.170667-8.209067-39.944533-20.8128-51.8656-33.698133-1.399467-1.5104-0.162133-4.5568-0.4864-4.881067l4.104533-2.730666c-56.5248-113.408-11.0336-267.477333 33.066667-380.330667 52.599467-134.596267 126.037333-272.008533 217.659733-383.061333 2.705067-3.2768 2.952533-6.749867 6.954667-10.9568 1.962667-2.065067 17.902933-12.808533 13.781333-16.529067l-16.5376-2.756267 18.9184-8.8064 0.622934-4.753066c10.530133 5.248 13.4144-5.1712 16.853333-7.765334 10.205867-7.697067 35.0208-24.465067 46.276267-28.2624l2.756266 8.2688z" fill="#5B4739" /><path d="M1019.223979 466.030933c-7.697067-4.983467-5.026133-2.568533-5.495467 4.138667-1.032533 14.779733-16.136533 40.9856-24.814933 53.7344-0.2816 0.418133-1.698133 1.3312-2.756267 2.756267-4.599467 6.1952-11.093333 6.792533-11.025067 16.5376-4.821333 4.7616-7.005867 8.183467-10.965333 12.450133-104.610133 112.776533-229.2992 208.896-369.262933 275.549867l-74.4448 28.893866c3.2256-2.0992 12.859733-7.671467 13.525333-9.890133 2.7648-5.051733-2.875733-13.0304-2.210133-15.9232 0.452267-1.9712 3.285333-3.140267 3.797333-4.539733 3.6096-9.890133 8.2688-21.632 9.096533-32.162134 0.768-9.821867 2.005333-20.821333 3.882667-32.017066 1.1264-6.741333 6.843733-13.755733 7.7312-19.8144 1.757867-12.049067-2.363733-23.5264-16.529067-23.432534 8.635733-3.310933 17.442133-10.257067 24.797867-13.781333 139.605333-66.781867 270.2848-144.3072 402.449067-224.452267 12.603733-7.645867 28.6208-13.883733 40.337066-23.04 4.693333-3.6608 7.825067-3.456 6.382934-11.528533 6.075733 9.216 3.5328 7.970133 5.512533 16.5376z" fill="#61493D" /><path d="M490.148779 405.410133c0.366933-0.426667 2.013867-0.315733 2.423466-1.706666l3.2768-29.789867 17.706667-7.082667c6.186667 3.268267 2.244267 13.969067 8.2944 16.5376 5.7344 2.432 4.215467-10.624 12.3904-8.260266-0.4608 15.505067-0.1536 31.325867 0 46.848l-2.730667 19.242666c1.5872 1.348267 9.2928-2.602667 8.2432 2.798934-12.6976-0.6912-5.1456 14.5152-5.777066 17.5872-0.4608 2.2784-4.642133 4.113067-5.248 7.2192-5.521067 28.663467-5.4016 59.758933-11.025067 90.9312-4.1728 23.1168-8.618667 45.994667-13.781333 68.8896-8.917333 39.5776-19.7632 81.527467-33.066667 121.250133-18.082133 53.9904-40.405333 97.757867-74.402133 143.291733-5.239467 7.022933-10.222933 16.008533-16.5376 22.0416-1.373867 1.314133-15.470933 13.346133-16.5376 13.781334-9.0112 3.643733-21.7856 20.343467-26.513067 21.7088-4.113067 1.186133-8.994133-0.512-13.1072 0.674133-3.3536 0.964267-5.026133 6.084267-9.0624 7.466667-12.791467 4.3776-26.581333 9.514667-39.492267 11.485866-17.237333 2.6368-42.0864 0.9472-60.6208 0l0.3072-5.1712 5.205334-3.0976c9.480533-2.0224 12.561067-5.333333 19.285333-8.2688 33.186133-14.4896 37.6576-20.002133 63.377067-44.091733 0.375467-0.349867 3.6352 0.273067 5.4272-1.348267 14.395733-13.021867 22.664533-28.484267 33.152-42.743466 71.637333-97.408 101.0432-212.224 126.122666-329.9328 4.1472-19.447467 18.346667-125.2096 22.6816-130.2528z" fill="#EED8C1" /><path d="M327.571712 124.330667c-4.002133 4.215467-4.258133 7.688533-6.954667 10.9568-91.6224 111.0528-165.060267 248.465067-217.659733 383.061333-44.100267 112.853333-89.591467 266.922667-33.066667 380.330667l-4.104533 2.730666c-0.682667-0.682667-3.746133-2.210133-8.1408-6.9376-50.491733-54.2208-63.872-108.424533-55.185067-181.76 22.186667-187.281067 150.3232-420.676267 275.5584-559.394133 9.284267-10.282667 21.2224-27.0336 33.015467-34.500267 1.8688-1.186133 7.936-1.902933 11.016533-5.512533l5.521067 11.025067z" fill="#EAD1B9" /><path d="M1016.467712 529.408c-35.4304 140.834133-213.486933 292.5824-340.8896 352.145067-129.4336 60.509867-240.298667 75.707733-379.758933 88.695466-6.8096 0.631467-13.7984-0.290133-20.616534 0.059734 12.910933-1.9712 26.7008-7.108267 39.492267-11.485867 4.036267-1.3824 5.7088-6.5024 9.0624-7.466667 4.113067-1.186133 8.994133 0.520533 13.1072-0.674133 4.727467-1.365333 17.5104-18.065067 26.513067-21.7088-4.770133 6.920533-2.747733 5.896533 4.1984 5.5808 8.891733-0.4096 12.535467-3.456 19.746133-5.060267 244.360533-54.289067 454.272-159.044267 601.582933-367.018666 0.631467-0.887467 4.6848-2.5088 6.826667-5.5552 9.019733-12.791467 18.5856-31.274667 20.736-46.7968v19.285333z" fill="#DDC2A6" /><path d="M410.234112 63.709867c0.733867-1.134933 12.040533-10.222933 13.7728-8.260267l-0.426667 9.207467c-79.9488 150.7328-146.525867 308.258133-204.040533 468.3264-46.0544 128.170667-92.936533 264.942933-89.8048 402.423466l-6.084267 7.3472c-1.851733-0.8704-3.6864-1.826133-5.512533-2.756266-2.167467-9.745067-6.306133-19.1744-8.1664-29.0304-19.712-104.337067 15.829333-230.528 50.090667-329.984 41.745067-121.173333 101.4016-251.758933 161.4592-364.868267 27.3408-51.490133 57.4208-103.876267 88.712533-152.3968z" fill="#E9D0B7" /><path d="M1010.963712 446.737067c-25.5488 1.723733-50.833067 11.392-74.453333 20.616533-100.6848 39.330133-198.8352 85.614933-297.506134 129.6128-24.6016 10.965333-49.8432 20.718933-74.453333 31.6416 7.6032-23.338667 6.536533-40.2944 6.724267-64.750933 0.059733-7.3728 1.169067-7.424-1.92-15.889067-1.698133-4.667733-0.8192-8.9856-7.569067-7.534933 4.744533-1.911467 11.8016-6.408533 16.5376-8.2688 114.269867-44.928 262.912-89.813333 384.4608-99.1488 9.975467-0.768 20.258133 0.4352 30.276267-0.0512 5.376-0.264533 4.343467 0.349867 4.113066-5.512534 9.4464 8.285867 10.8032 6.212267 13.781334 19.285334z" fill="#5D483A" /><path d="M1010.963712 446.737067c0.580267 2.551467 2.551467 2.440533 2.756267 2.756266 1.442133 8.072533-1.6896 7.867733-6.382934 11.528534-11.716267 9.156267-27.733333 15.394133-40.337066 23.04-132.164267 80.145067-262.8352 157.6704-402.449067 224.452266h-5.512533l2.756266-15.1552v-41.335466c0-1.681067 2.039467-17.877333 2.756267-20.667734 0.2304-0.887467-0.264533-1.954133 0-2.756266 24.6016-10.922667 49.851733-20.676267 74.453333-31.6416 98.679467-43.997867 196.821333-90.282667 297.506134-129.6128 23.620267-9.224533 48.904533-18.8928 74.453333-20.616534z" fill="#E8CEB6" /><path d="M997.182379 427.451733c-7.68-1.1776-15.581867-4.923733-23.304534-5.623466-66.346667-6.050133-164.693333 13.303467-230.954666 28.305066-56.0896 12.706133-107.690667 31.266133-161.834667 48.964267-2.0992 0.682667-6.161067-0.682667-8.2688 0l8.354133-18.0736 0.110934-20.3008 10.709333-2.8928c0.4096 4.864 2.5856 9.181867 8.3712 8.192v-13.7728c-14.2592 3.3536-28.5696 7.901867-42.888533 10.9568-2.312533 0.494933-4.898133-0.3072-6.7072 0.068267 2.107733-3.6864 8.6528-4.283733 12.5952-5.316267 12.501333-3.268267 25.1392-6.144 37.717333-9.130667l21.333333-7.6032c63.7696-13.704533 127.0016-31.2064 191.573334-38.519466 11.264-1.28 22.818133 1.066667 34.389333-2.816 0.648533-4.795733-6.2976-2.679467-9.642667-2.747734-27.0848-0.5376-57.207467-1.339733-84.0448 0 2.295467-4.778667 10.632533-2.705067 15.163734-2.747733 47.0784-0.418133 91.588267 1.348267 137.8304 5.444267 34.781867 3.080533 62.3104 3.771733 89.4976 27.613866z" fill="#5D4A3C" /><path d="M498.417579 91.264l-2.747734 8.2688 5.469867-2.7904c-0.938667 5.504 3.857067 8.3456 5.546667 11.0592 14.421333 23.125333 18.3808 49.288533 21.998933 75.8272 8.686933 63.7952 7.441067 128.418133 5.5552 191.470933-8.174933-2.363733-6.656 10.692267-12.3904 8.260267-6.050133-2.568533-2.116267-13.2608-8.2944-16.5376l-17.706667 7.082667-3.2768 29.789866c-0.4096 1.390933-2.056533 1.288533-2.423466 1.706667 0.349867-16.6144 2.628267-33.237333 5.512533-49.604267 5.376-30.506667 7.5008-65.7408 8.388267-97.706666 1.536-55.330133-1.7664-105.198933-11.8016-159.325867-0.904533-4.872533-4.616533-7.441067 3.413333-10.2656l2.756267 2.756267z" fill="#E9CFB5" /><path d="M754.690645 397.141333c26.837333-1.339733 56.96-0.5376 84.0448 0 3.336533 0.068267 10.282667-2.048 9.642667 2.747734-11.5712 3.8912-23.125333 1.544533-34.389333 2.816-64.571733 7.313067-127.7952 24.823467-191.573334 38.519466-1.774933 0.384-4.386133-0.4352-6.715733 0.059734-11.613867 2.4576-22.929067 6.306133-34.619733 8.200533 2.474667-7.150933 0.443733-15.453867 8.260266-19.285333 55.1424-13.1072 106.376533-30.122667 165.333334-33.066667z" fill="#DAC2AC" /><path d="M462.594645 55.441067c10.248533 1.117867 25.412267 19.063467 31.744 27.613866 1.1776 1.595733 1.365333 3.541333 1.322667 5.4528-8.029867 2.824533-4.317867 5.393067-3.413333 10.2656 10.0352 54.126933 13.3376 103.995733 11.8016 159.325867-0.887467 31.965867-3.012267 67.2-8.388267 97.706667 0.375467-8.644267-0.5888-17.476267 0.059733-26.120534 4.906667-65.664 10.308267-150.4512-3.447466-214.357333-2.8416-13.2096-9.736533-24.738133-10.3936-37.8368-3.1744-0.930133-4.727467 5.546667-4.992 7.3984-0.964267 6.784-2.4576 14.481067-3.268267 20.155733-1.152-18.3808 7.2704-46.609067-19.285333-46.839466-1.271467 4.420267 2.517333 8.285867 2.218666 11.8784-2.261333 26.9568-10.154667 53.896533-16 79.0528 1.698133-30.600533 13.525333-59.972267 10.999467-90.888534l-8.2432-2.798933c6.272 0.4608 13.1584-0.674133 19.285333 0z" fill="#C4AC96" /><path d="M534.240512 421.9392c0.0512 5.495467-0.042667 11.050667 0 16.5376 15.4368 2.5344 28.6208-5.034667 42.7776-8.226133 3.84-0.8704 8.925867 0.768 12.3392-0.042667-7.816533 3.831467-5.794133 12.1344-8.260267 19.285333 11.690667-1.8944 23.005867-5.742933 34.619734-8.200533 2.321067-0.494933 4.932267 0.324267 6.715733-0.059733l-21.333333 7.6032c-12.578133 2.986667-25.207467 5.8624-37.717334 9.130666-3.9424 1.032533-10.487467 1.629867-12.5952 5.316267-6.510933 1.339733-13.320533 1.826133-19.285333 5.512533h-2.756267c0.597333-3.106133 4.778667-4.949333 5.248-7.2192 0.622933-3.072-6.929067-18.2784 5.777067-17.5872 1.058133-5.4016-6.656-1.450667-8.2432-2.798933l2.730667-19.242667z" fill="#C3AB95" /><path d="M1019.223979 466.030933c0.853333 3.712 1.8432 7.330133 2.756266 11.025067 1.450667 10.103467-6.331733 18.1504-10.564266 26.752-1.117867 2.269867-0.008533 5.418667-0.4608 6.314667-1.194667 2.3552-5.896533 6.673067-7.842134 10.077866-7.202133 12.5952-14.242133 26.683733-25.224533 36.770134 0.725333-1.152 0.904533-5.777067 3.1744-9.216 3.234133-4.881067 12.9024-15.889067 13.44-19.643734 0.938667-6.647467 0.8704-9.019733-5.589333-4.215466 8.6784-12.7488 23.773867-38.954667 24.814933-53.7344 0.469333-6.7072-2.2016-9.122133 5.495467-4.138667z" fill="#C6AD99" /><path d="M324.815445 105.045333l16.5376 2.756267c4.1216 3.720533-11.818667 14.464-13.781333 16.529067l-5.521067-11.025067c-3.072 3.6096-9.1392 4.3264-11.016533 5.512533l13.781333-13.781333z" fill="#B2A191" /><path d="M1016.467712 529.408v-19.285333c-2.141867 15.530667-11.707733 34.013867-20.727467 46.7968-2.141867 3.037867-6.203733 4.667733-6.826666 5.5552 5.0432-14.660267 15.1552-25.915733 21.5808-40.413867 1.527467-3.447467 6.715733-9.642667 0.469333-11.938133 0.452267-0.887467-0.657067-4.0448 0.4608-6.314667 4.232533-8.6016 12.0064-16.648533 10.564267-26.752 3.601067 14.481067 1.595733 13.047467 0.0512 26.222933-0.9984 8.482133 1.783467 19.2-5.563734 26.129067z" fill="#96816F" /><path d="M506.686379 107.8016c-1.6896-2.7136-6.493867-5.5552-5.546667-11.0592l-5.469867 2.7904 2.747734-8.2688c4.462933 4.445867 9.309867 9.838933 8.2688 16.5376z" fill="#C4AC96" /><path d="M495.661312 355.805867c-2.884267 16.3584-5.154133 32.989867-5.512533 49.604266-4.334933 5.051733-18.5344 110.805333-22.6816 130.2528-25.079467 117.700267-54.485333 232.516267-126.122667 329.9328-9.070933 6.656-5.0688-2.568533-2.833067-6.570666 1.5872-2.8416 7.441067 0.059733 6.007467-9.642667l5.0944-0.324267c-5.367467-6.289067-6.613333-10.8032-5.521067-19.293866h-8.260266v8.2944c-8.2432 2.304-9.386667-4.309333-13.713067-7.0144-4.3264-2.705067-13.764267 2.8928-20.6336-1.4336l-1.5616 5.597866c-7.773867 0.631467-9.642667-10.3936-19.208533-8.183466 1.408-4.224 1.723733-9.966933 2.7648-13.7728 3.848533-14.114133 12.074667-23.048533 17.954133-35.780267 74.052267-160.3584 119.0144-348.561067 150.229333-522.1376 9.275733-51.584 14.6176-99.165867 21.947734-150.280533 0.810667-5.674667 2.304-13.371733 3.268266-20.155734 0.264533-1.851733 1.8176-8.328533 4.992-7.3984 0.657067 13.098667 7.552 24.6272 10.3936 37.8368 13.755733 63.906133 8.354133 148.693333 3.447467 214.357334-0.648533 8.644267 0.324267 17.476267-0.059733 26.120533z" fill="#5A4337" /><path d="M473.619712 105.045333c-7.330133 51.106133-12.672 98.696533-21.947733 150.280534-31.214933 173.576533-76.177067 361.7792-150.229334 522.1376-5.879467 12.7232-14.1056 21.666133-17.954133 35.780266-3.9936 4.932267-7.8848 11.0848-11.025067 16.5376l-6.869333-2.773333c-9.002667 4.3264-5.384533 3.6608-8.149333 11.0848-0.930133 2.491733-3.5584 4.974933-3.848534 7.2448-0.494933 3.8912 5.444267 7.637333-1.800533 11.997867-2.338133-1.092267-1.365333-4.3776-4.087467-6.903467-3.9424-3.643733-13.841067-8.917333-19.336533-9.642667-1.1776-0.878933 6.058667-9.250133 6.8096-11.0848 3.1744-7.722667 6.468267-21.282133 9.728-30.242133 29.252267-80.4096 61.653333-159.9488 86.877867-242.414933 41.147733-134.536533 77.056-271.377067 108.765866-407.9104 5.845333-25.156267 13.738667-52.096 16-79.0528 0.298667-3.592533-3.4816-7.458133-2.218666-11.8784 26.555733 0.238933 18.133333 28.458667 19.285333 46.839466z" fill="#EDD5BF" /><path d="M244.900779 799.4624c-3.259733 8.96-6.5536 22.519467-9.728 30.242133-0.750933 1.834667-7.9872 10.205867-6.8096 11.0848 5.495467 0.725333 15.394133 5.998933 19.336533 9.642667 2.730667 2.525867 1.749333 5.8112 4.087467 6.903467 7.236267-4.352 1.3056-8.106667 1.800533-11.997867 0.290133-2.269867 2.9184-4.753067 3.848533-7.2448 2.7648-7.415467-0.853333-6.7584 8.149334-11.0848l6.869333 2.773333c-3.456 6.007467-7.483733 16.452267-11.025067 22.0416-14.498133 22.920533-60.168533 84.898133-83.524266 94.216534-3.464533 1.3824-5.905067 3.182933-10.1632 2.2272-0.8704-6.024533 2.3808-10.734933 4.974933-15.684267 7.569067-14.4384 19.524267-29.354667 27.665067-43.9808 12.356267-22.178133 22.7328-45.8752 32.938666-69.026133 2.773333-6.289067 5.9136-16.546133 11.579734-20.113067z" fill="#DAC0AB" /><path d="M220.102912 962.039467c-5.060267 1.083733-11.323733 0.5632-16.529067 2.756266-1.5616-8.661333 0.657067-21.5296 10.069334-24.4224 14.3872-4.420267 5.623467-2.7904 11.810133-7.364266 3.8656-2.858667 14.139733-3.857067 19.242667-4.224l3.037866-13.508267c2.551467 0.443733 16.503467-2.850133 13.678934 4.036267-2.030933 4.949333-11.835733 13.917867-16.546134 16.7424-3.2512 1.954133-9.608533-3.3536-13.738666 5.316266l8.251733 12.398934c-6.724267 2.935467-9.8048 6.237867-19.285333 8.2688zM291.740245 904.174933c0.836267 8.507733 0.546133 15.752533-8.260266 19.285334 1.152-5.444267 2.321067-9.326933 2.816-15.146667 0.3584-4.224 1.877333-8.388267 5.435733-4.138667zM261.438379 851.8144l6.8864-5.495467c2.926933 2.56 5.009067 4.130133 4.130133 8.251734l-11.016533 2.756266v-5.504zM322.059179 884.8896c-0.989867 3.0976-14.685867 21.358933-16.529067 19.285333l5.521067-9.617066 10.999466-9.668267zM280.723712 917.947733l-16.529067-2.756266v-2.7392c6.357333 0 14.276267-1.954133 16.529067 5.495466z" fill="#5A4337" /><path d="M261.489579 887.5776m-3.413334 0a3.413333 3.413333 0 1 0 6.826667 0 3.413333 3.413333 0 1 0-6.826667 0Z" fill="#5A4337" /><path d="M280.783445 843.4944m-3.413333 0a3.413333 3.413333 0 1 0 6.826667 0 3.413333 3.413333 0 1 0-6.826667 0Z" fill="#5A4337" /><path d="M330.327979 876.6208l-5.504 5.504-0.008534-5.504h5.512534zM198.052779 939.997867v5.512533l-1.373867-0.008533-4.138667-5.504h5.512534zM302.765312 909.687467l-5.504-5.512534h5.504v5.512534z" fill="#5A4337" /><path d="M520.459179 860.0832c-10.436267 6.784-18.517333 9.847467-30.3104 13.781333-8.064 2.688-17.348267 6.033067-24.797867 8.2688-18.5088 5.538133-40.669867 11.784533-59.7504 16.0256-5.239467 1.169067-10.606933 2.9696-9.1392-5.009066 33.9968-45.533867 56.32-89.301333 74.402133-143.291734l68.8896-27.554133c14.165333-0.093867 18.286933 11.383467 16.529067 23.432533-0.887467 6.0672-6.596267 13.073067-7.7312 19.8144-1.877333 11.195733-3.114667 22.1952-3.882667 32.017067-0.827733 10.530133-5.486933 22.272-9.096533 32.162133-0.512 1.399467-3.345067 2.577067-3.797333 4.539734-0.6656 2.8928 4.974933 10.88 2.210133 15.9232-0.6656 2.210133-10.299733 7.790933-13.525333 9.890133z" fill="#523C2F" /><path d="M977.897045 556.962133c-1.8944 3.0208-7.04 6.775467-11.025066 13.781334-3.3024 1.629867-7.850667 5.3504-9.7024 8.328533-1.442133 2.321067-0.955733 4.8384-1.322667 5.444267-7.3216 12.091733-20.4032 26.564267-30.2592 37.256533-100.078933 108.578133-231.278933 194.491733-369.3056 246.570667-14.4128 2.397867-29.457067 5.000533-41.335467 13.781333-0.878933 0.170667-1.860267-0.136533-2.756266 0-5.307733 0.7936-13.525333 3.746133-17.5872 2.4832l-6.946134-6.621867 2.4832-4.130133c11.793067-3.933867 19.874133-6.9888 30.3104-13.781333l74.4448-28.893867c139.963733-66.653867 264.6528-162.773333 369.262934-275.549867 3.959467-4.266667 6.144-7.688533 10.965333-12.450133 3.925333-3.874133 5.870933-8.456533 10.6496-8.541867l0.366933-7.995733c1.058133-1.416533 2.474667-2.338133 2.756267-2.756267 6.459733-4.804267 6.528-2.432 5.589333 4.215467-0.529067 3.754667-10.205867 14.754133-13.44 19.643733-2.269867 3.4304-2.4576 8.064-3.1744 9.216z" fill="#DFC5AE" /><path d="M503.930112 628.608c1.937067 11.2896-3.2 19.908267-5.504 30.3104l66.133333-27.554133c-0.7168 2.7904-2.756267 18.986667-2.756266 20.667733v41.335467l-2.756267 15.1552h5.512533c-7.355733 3.515733-16.162133 10.4704-24.797866 13.781333l-68.8896 27.554133c13.303467-39.714133 24.149333-81.664 33.066666-121.250133z" fill="#BA9C80" /><path d="M986.157312 526.651733l-0.366933 7.995734c-4.7872 0.085333-6.7328 4.667733-10.6496 8.541866-0.0768-9.736533 6.4256-10.3424 11.025066-16.5376z" fill="#C6AD99" /><path d="M988.913579 562.474667c-147.3024 207.9744-357.213867 312.7296-601.582934 367.018666-7.2192 1.604267-10.862933 4.650667-19.746133 5.060267-6.946133 0.315733-8.968533 1.339733-4.1984-5.5808 1.066667-0.426667 15.163733-12.4672 16.5376-13.781333 38.417067-5.632 76.322133-15.069867 113.6896-25.472 5.7856-1.6128 14.173867-3.626667 18.577067-7.594667 0.896-0.136533 1.877333 0.170667 2.756266 0 14.6432-2.850133 27.7248-8.644267 41.335467-13.781333 138.026667-52.078933 269.226667-137.992533 369.3056-246.570667 9.856-10.692267 22.9376-25.1648 30.2592-37.256533 3.3024-1.629867 7.850667-5.3504 9.7024-8.328534 1.442133-2.321067 0.930133-4.7616 1.322667-5.444266 3.985067-6.997333 9.122133-10.752 11.025066-13.781334 10.9824-10.0864 18.030933-24.174933 25.224534-36.770133 1.9456-3.4048 6.647467-7.722667 7.842133-10.077867 6.254933 2.295467 1.058133 8.4992-0.469333 11.938134-6.4256 14.498133-16.5376 25.762133-21.5808 40.413866z" fill="#564031" /><path d="M561.794645 540.433067c6.749867-1.450667 5.8624 2.875733 7.569067 7.534933 3.080533 8.465067 1.9712 8.516267 1.92 15.889067-0.187733 24.465067 0.878933 41.412267-6.724267 64.750933-0.264533 0.802133 0.2304 1.8688 0 2.756267l-66.133333 27.554133c2.304-10.402133 7.441067-19.012267 5.504-30.3104 5.154133-22.894933 9.608533-45.7728 13.781333-68.8896 13.4912-9.0624 29.149867-13.269333 44.091734-19.285333z" fill="#4E3C2D" /><path d="M531.484245 468.7872l-2.747733 46.848c12.424533-6.903467 26.6752-9.3184 40.1664-13.678933 2.568533-0.827733 3.6864-2.781867 3.9168-2.858667 2.0992-0.682667 6.1696 0.682667 8.2688 0-3.950933 9.728-3.473067 21.205333-5.3504 31.505067l2.594133 1.5616c-4.727467 1.860267-11.784533 6.357333-16.5376 8.2688-14.941867 6.016-30.600533 10.222933-44.091733 19.285333 5.623467-31.172267 5.504-62.276267 11.025067-90.9312h2.756266z" fill="#AA907A" /><path d="M490.148779 873.864533l-2.4832 4.130134 6.946133 6.621866c4.061867 1.2544 12.279467-1.698133 17.5872-2.4832-4.411733 3.968-12.8 5.9904-18.577067 7.594667-37.367467 10.402133-75.272533 19.84-113.6896 25.472 6.306133-6.033067 11.2896-15.0272 16.5376-22.0416-1.4592 7.970133 3.899733 6.1696 9.1392 5.009067 19.080533-4.241067 41.2416-10.487467 59.7504-16.0256l1.3824 2.747733h9.634134v-2.7392h-11.016534c7.4496-2.2272 16.733867-5.5808 24.797867-8.2688z m0 11.025067h-8.260267v2.7392h8.260267v-2.7392z" fill="#AD917E" /><path d="M997.182379 427.451733c0.2304 5.8624 1.262933 5.248-4.113067 5.512534-10.018133 0.494933-20.3008-0.708267-30.276267 0.0512-121.5488 9.326933-270.190933 54.2208-384.4608 99.1488l-2.594133-1.5616c1.877333-10.299733 1.390933-21.777067 5.3504-31.505067 54.144-17.698133 105.7536-36.258133 161.834667-48.964267 66.261333-15.010133 164.608-34.3552 230.954666-28.305066 7.722667 0.708267 15.633067 4.445867 23.304534 5.623466z" fill="#EAD1BC" /><path d="M550.769579 463.274667c1.809067-0.375467 4.394667 0.426667 6.7072-0.068267 14.318933-3.054933 28.629333-7.6032 42.888533-10.9568v13.7728c-5.7856 0.981333-7.9616-3.328-8.3712-8.192l-10.709333 2.8928-0.110934 20.3008-8.354133 18.0736c-0.2304 0.0768-1.348267 2.030933-3.9168 2.858667-13.4912 4.352-27.741867 6.775467-40.1664 13.678933l2.747733-46.848c5.9648-3.6864 12.782933-4.1728 19.285334-5.512533z" fill="#47372A" /><path d="M955.846912 584.5248c0.366933-0.605867-0.119467-3.131733 1.322667-5.444267 1.851733-2.978133 6.4-6.7072 9.7024-8.328533-0.392533 0.6912 0.128 3.1232-1.322667 5.444267-1.851733 2.978133-6.4 6.7072-9.7024 8.328533z" fill="#C6AD99" /><path d="M556.282112 868.352c-13.610667 5.137067-26.692267 10.9312-41.335467 13.781333 11.8784-8.772267 26.922667-11.374933 41.335467-13.781333z" fill="#AD917E" /><path d="M465.350912 882.1248l11.016533 0.008533v2.7392h-9.634133l-1.3824-2.747733zM481.888512 884.8896h8.260267v2.7392h-8.260267z" fill="#DFC5AE" /></svg>