<?xml version="1.0" standalone="no"?><!DOCTYPE svg PUBLIC "-//W3C//DTD SVG 1.1//EN" "http://www.w3.org/Graphics/SVG/1.1/DTD/svg11.dtd"><svg class="icon" width="256px" height="256.00px" viewBox="0 0 1024 1024" version="1.1" xmlns="http://www.w3.org/2000/svg"><path d="M418.235733 574.165333c1.271467-3.362133 10.6752-13.9776 14.1568-22.4512 18.56-45.141333-4.224-65.348267-20.898133-103.099733-9.693867-21.956267-13.218133-44.424533-10.0608-68.5568 7.287467-55.739733 80.8704-77.883733 84.5568-129.800533 2.1504-30.378667-30.702933-61.883733-44.475733-84.9664-28.424533-47.6416-43.6224-101.7344-34.048-156.356267l4.906666-6.3488L603.997867 0.008533c2.6112 13.294933-5.077333 23.927467-5.879467 36.334934-7.150933 110.267733 87.0656 155.050667 66.705067 274.986666-7.3984 43.562667-56.0128 79.982933-61.064534 130.3296-3.592533 35.8144 8.2688 78.6432 25.514667 110.0544 4.923733 8.968533 6.1952 18.321067 19.754667 16.836267-2.005333 3.652267-5.307733 7.253333-3.2768 11.409067l42.683733 106.8032c-9.770667 20.053333-4.906667 18.781867 0 33.774933 1.271467 3.8912-9.6512 69.3504-12.637867 80.238933-6.8608 24.968533-29.397333 58.7008-32.392533 80.187734-3.413333 24.456533 4.0704 46.574933 5.614933 70.357333l-11.136-25.437867-0.119466-36.48c-10.248533 5.111467-18.346667 27.4688-21.333334 37.751467-5.7088 19.618133-4.855467 40.0896-12.450133 57.898667 9.7536-3.694933 14.395733 4.753067 16.913067 5.674666-21.154133-5.179733-7.1168 24.0384-11.246934 28.16l-202.564266-0.0768-11.357867-16.827733c1.442133-0.708267 11.392-7.8336 11.554133-8.925867-1.3568-21.341867 1.2544-43.306667 5.333334-64.247466 0.580267-2.978133 10.965333-25.9328 11.255466-28.142934 33.8176-44.3392 86.673067-93.2352 47.7184-151.8592-15.240533-22.9376-46.532267-31.197867-61.550933-62.293333-19.165867-39.697067-6.749867-63.197867 7.210667-99.498667 1.792-4.6592 0.068267-10.4192 0.989866-12.842666z m123.8272 377.1392c21.4272-58.862933 45.6192-125.047467 39.6544-188.8-10.0352-107.2896-83.114667-151.125333-48.238933-278.562133 24.064-87.944533 56.695467-120.157867 48.247467-222.4384-5.137067-62.208-45.175467-124.4928-60.8768-186.8032-1.655467-6.570667-0.827733-13.5168-2.440534-20.078933-1.245867-5.0688-3.106133-16.785067-10.094933-15.214934-3.1488 49.681067 20.027733 93.226667 32.392533 139.272534 14.728533 54.801067 19.3024 116.283733 5.819734 171.963733-12.612267 52.078933-50.4576 104.738133-55.355734 158.549333-8.567467 94.139733 21.0432 124.16 49.698134 204.0832 21.512533 60.0064 24.132267 115.003733 11.281066 177.749334-3.003733 14.6432-9.361067 28.834133-13.166933 43.127466-1.595733 5.981867-8.029867 17.851733 3.072 17.152z" fill="#615034" /><path d="M395.7248 1001.975467c-22.7072 11.195733-52.9664 10.7264-76.0832 22.024533-19.140267-17.92-9.710933-47.3344-19.5584-69.870933 6.1952-19.831467 7.150933-40.465067 12.586667-60.535467 7.773867-28.6976 25.454933-52.992 20.010666-84.736-9.156267-53.341867-84.932267-57.7024-104.7808-97.826133-3.7632-7.6032-12.782933-41.591467-12.765866-49.621334 0.017067-13.934933 10.103467-36.266667 11.5968-50.781866 3.080533-29.969067-1.834667-51.84-19.8144-75.6224-8.772267-11.5968-21.666133-19.6864-29.943467-31.982934-18.833067-27.972267-24.746667-62.276267-10.871467-93.755733 6.570667-14.8992 28.757333-39.458133 31.6928-52.744533 10.717867-48.426667-11.7248-62.293333-41.1904-92.066134-21.213867-21.435733-41.9328-36.48-58.325333-65.518933-14.890667-26.368-21.290667-56.260267-23.3984-86.306133l174.4896-39.483734c1.664 2.056533 4.701867 44.305067 6.7072 52.420267 16.298667 66.039467 81.271467 93.354667 104.644267 154.2912 5.1712 13.482667 13.508267 41.437867 12.868266 55.150933-1.365333 29.346133-19.259733 63.598933-22.8096 90.069334-8.106667 60.450133 29.056 107.818667 67.456 149.077333-0.9216 2.423467 0.802133 8.183467-0.989866 12.842667-13.960533 36.292267-26.376533 59.8016-7.210667 99.498666 15.018667 31.095467 46.301867 39.355733 61.550933 62.293334 38.954667 58.615467-13.9008 107.52-47.7184 151.8592 7.057067-53.026133-3.8912-128.938667-28.962133-176.503467-16.7424-31.7696-47.300267-60.6208-65.851733-91.758933-28.6976-48.162133-32.0768-78.4896-29.269334-134.459734 2.346667-46.72 13.44-86.0416 5.742934-134.724266-8.8064-55.7056-45.610667-112.759467-81.237334-155.178667l-48.085333-78.549333c4.770133 46.609067 39.918933 82.286933 61.038933 121.8816 17.006933 31.889067 31.786667 65.9712 39.082667 101.640533 16.093867 78.702933-22.101333 143.018667-3.268267 222.805333 17.536 74.308267 89.019733 122.624 119.978667 189.627734 23.4752 50.807467 19.874133 108.842667 19.575467 163.370666-4.087467 20.9408-6.690133 42.914133-5.333334 64.247467-0.162133 1.092267-10.103467 8.2176-11.554133 8.925867z" fill="#4E3D28" /><path d="M649.028267 568.533333c7.424-13.508267 22.801067-26.9312 30.813866-39.552 12.5696-19.7888 29.038933-59.5968 29.960534-82.5344 1.621333-40.2432-27.502933-79.121067-21.239467-133.905066 7.927467-69.307733 74.7264-99.8912 102.391467-156.544 12.398933-25.378133 18.065067-54.749867 15.684266-82.8416l174.3616 39.560533c4.923733 52.949333-24.132267 102.6048-61.6448 137.898667-27.7504 26.112-67.771733 42.530133-61.986133 89.838933 3.5072 28.689067 33.152 50.107733 38.417067 74.1888 2.5856 11.844267 2.628267 42.990933 0.913066 55.364267-4.224 30.455467-41.258667 52.258133-55.466666 79.633066-25.378133 48.896 5.6064 78.779733-0.913067 128.554667-9.309867 71.082667-89.557333 65.570133-111.4112 119.389867-2.184533 5.376-6.690133 25.821867-5.853867 31.368533 4.949333 32.955733 28.612267 72.149333 32.785067 108.407467 1.655467 14.395733-4.206933 85.4272-19.421867 86.2208-37.307733-14.3616-78.148267-19.285333-115.541333-32.878934-2.517333-0.913067-7.159467-9.361067-16.913067-5.674666 7.6032-17.809067 6.749867-38.280533 12.450134-57.898667 2.9952-10.2912 11.093333-32.648533 21.333333-37.751467l0.119467 36.48 11.136 25.437867c-1.544533-23.7824-9.028267-45.9008-5.614934-70.357333 3.003733-21.486933 25.540267-55.2192 32.392534-80.187734 2.986667-10.888533 13.909333-76.347733 12.637866-80.238933 20.181333-19.9936 42.683733-44.578133 58.8544-67.797333 34.602667-49.664 47.2832-99.2256 42.350934-160.068267-1.450667-17.877333-10.112-43.630933-11.392-61.789867-3.805867-53.879467 6.749867-107.9552 29.5424-156.706133 15.138133-32.384 71.645867-106.154667 72.200533-136.123733 0.298667-16.298667-3.0976-16.196267-6.007467-0.384-2.065067 11.2384-13.184 32.298667-19.6352 42.333866-8.5504 13.294933-24.8576 27.400533-33.390933 39.790934-34.56 50.193067-66.082133 109.3376-70.852267 171.204266-5.794133 75.136 26.1632 154.2144-11.904 224.520534-13.218133 24.405333-38.237867 47.581867-49.774933 71.253333l-42.683733-106.8032c-2.030933-4.1472 1.271467-7.748267 3.2768-11.409067z" fill="#4D3C27" /><path d="M542.062933 951.304533c-11.1104 0.699733-4.667733-11.178667-3.072-17.152 3.805867-14.293333 10.1632-28.475733 13.166934-43.127466 12.8512-62.7456 10.24-117.742933-11.281067-177.749334-28.654933-79.931733-58.2656-109.943467-49.698133-204.0832 4.898133-53.8112 42.743467-106.4704 55.355733-158.549333 13.482667-55.68 8.900267-117.162667-5.819733-171.963733-12.373333-46.045867-35.541333-89.591467-32.392534-139.272534 6.9888-1.570133 8.849067 10.146133 10.094934 15.214934 1.6128 6.562133 0.785067 13.508267 2.440533 20.078933 15.701333 62.3104 55.739733 124.5952 60.8768 186.8032 8.448 102.272-24.183467 134.493867-48.247467 222.4384-34.8672 127.4368 38.212267 171.272533 48.238934 278.562133 5.9648 63.752533-18.2272 129.937067-39.6544 188.8z" fill="#897253" /><path d="M423.867733 900.650667c-0.298667 2.210133-10.6752 25.1648-11.255466 28.142933 0.298667-54.519467 3.8912-112.5632-19.575467-163.370667-30.958933-67.003733-102.442667-115.310933-119.978667-189.627733-18.833067-79.786667 19.362133-144.1024 3.268267-222.805333-7.296-35.677867-22.084267-69.751467-39.082667-101.640534-21.12-39.6032-56.277333-75.281067-61.038933-121.8816l48.085333 78.549334c35.6352 42.4192 72.430933 99.473067 81.237334 155.178666 7.697067 48.682667-3.396267 87.995733-5.742934 134.724267-2.807467 55.978667 0.571733 86.2976 29.269334 134.459733 18.551467 31.138133 49.109333 59.989333 65.851733 91.758934 25.070933 47.5648 36.010667 123.477333 28.962133 176.503466z" fill="#715B3E" /><path d="M688.4352 720.520533c-4.906667-14.993067-9.770667-13.7216 0-33.774933 11.537067-23.671467 36.5568-46.848 49.774933-71.253333 38.0672-70.306133 6.109867-149.384533 11.904-224.520534 4.770133-61.866667 36.292267-121.0112 70.852267-171.204266 8.5248-12.381867 24.840533-26.496 33.390933-39.790934 6.4512-10.0352 17.570133-31.086933 19.6352-42.333866 2.909867-15.812267 6.306133-15.914667 6.007467 0.384-0.546133 29.960533-57.053867 103.739733-72.200533 136.123733-22.792533 48.759467-33.339733 102.826667-29.5424 156.706133 1.28 18.158933 9.941333 43.912533 11.392 61.789867 4.932267 60.842667-7.748267 110.404267-42.350934 160.068267-16.1792 23.2192-38.673067 47.803733-58.8544 67.797333z" fill="#705A3D" /></svg>