<?xml version="1.0" standalone="no"?><!DOCTYPE svg PUBLIC "-//W3C//DTD SVG 1.1//EN" "http://www.w3.org/Graphics/SVG/1.1/DTD/svg11.dtd"><svg class="icon" width="256px" height="256.00px" viewBox="0 0 1024 1024" version="1.1" xmlns="http://www.w3.org/2000/svg"><path d="M533.1968 232.132267c-3.370667 2.141867-8.712533 11.784533-9.173333 14.907733-0.477867 3.2512 3.2256 7.2192 2.8928 12.194133-1.109333 16.546133-11.1104 49.706667-17.6384 66.005334-5.853867 14.592-12.586667 29.073067-26.222934 37.905066-7.108267 4.608-15.368533 5.9904-22.6304 9.429334-9.463467 4.488533-17.245867 11.630933-27.9296 13.3376-11.349333-2.3808-18.628267-64.6144-22.536533-77.021867l-14.6176-6.212267c-0.2048 5.307733 0.264533 10.7264 0 16.034134s1.6384 13.841067-5.085867 15.761066c-8.96 2.56-27.485867-0.682667-38.340266 0.136534-14.1056 1.066667-35.959467 6.7072-49.681067 11.2384-4.352 1.4336-12.535467 4.992-15.906133 8.1408l-35.268267 1.595733 40.132267 30.395733c15.4368 12.928 25.096533 33.092267 27.136 53.034667 0.853333 8.3456-1.723733 18.8416-5.666134 26.274133-15.5904 29.380267-56.516267 25.472-84.1984 18.688-25.3952-6.229333-48.418133-20.642133-73.6-27.383466 13.7984 16.247467 30.062933 31.726933 38.596267 51.234133 4.864-1.646933 11.605333-1.9456 15.906133-3.1488 17.3568-3.669333 23.202133 15.5392 32.1024 24.0128 6.212267 5.9136 20.804267 12.996267 28.680534 19.413333 5.614933 4.573867 9.634133 11.101867 16.170666 14.293334 1.425067 5.8624-2.816 14.011733-8.413866 15.633066-13.5168 3.899733-40.0128-0.5888-52.48-7.637333-5.2992-2.9952-23.5008-21.896533-27.127467-20.770133-14.336 12.5184-19.438933 27.537067-26.786133 43.8528-1.169067 2.594133-3.498667 12.919467-8.618667 10.5984-9.8048-4.4288 0.2048-23.176533-9.634133-28.834134-9.719467 11.758933-26.094933 17.9968-41.0624 15.377067-5.248-0.9216-23.697067-9.565867-29.073067-12.586667-19.5584-10.990933-53.572267-40.285867-65.7152-59.323733-2.048-3.217067-3.652267-6.929067-3.626667-10.811733L4.1728 527.1296c-0.0512-0.2816-2.8416-0.750933-3.2512-4.6336-3.780267-35.5072 3.328-65.083733 36.3008-82.551467 13.218133-7.005867 25.4976-10.743467 40.695467-9.002666-3.8656-16.315733-4.804267-25.873067 1.5616-41.719467 13.44-33.4336 53.649067-46.779733 86.673066-51.191467l56.0384 6.3488c0.8192-96.6144 130.6368-100.522667 184.362667-41.7024 5.521067-3.541333 4.599467-9.9328 7.304533-15.121066 23.415467-44.8256 68.360533-77.0816 119.338667-55.3984z m-74.888533 32.469333c-20.0192 4.027733-30.276267 31.5392-34.244267 49.3568l8.3712 11.076267c15.488-2.304 40.021333-43.861333 36.5056-55.893334l-7.893333-5.085866c-0.913067 0.1792-1.826133 0.3584-2.730667 0.546133zM182.7328 370.6368c-9.1136 1.5616-19.3536 6.621867-18.423467 17.024 1.518933 16.9728 59.639467 41.642667 75.6224 43.255467 20.881067 2.116267 31.7696-15.6416 15.889067-32.0256-12.8768-13.294933-54.852267-31.377067-73.088-28.253867zM80.0256 453.8624c-14.08 3.0464-18.1248 14.114133-11.272533 26.2912 8.311467 14.762667 57.668267 45.892267 68.565333 24.6016 8.251733-16.136533-22.596267-41.6-36.0192-47.522133-6.7072-2.961067-13.952-4.957867-21.265067-3.370667z m76.433067 44.416c-12.654933 16.546133-23.893333 25.0112-9.531734 44.7744 7.3472 10.112 14.276267 8.1664 20.352-1.937067 10.837333-18.0224 8.6528-33.399467-10.820266-42.837333z" fill="#2F3234" /><path d="M578.082133 283.434667c1.083733 8.4992-6.954667 8.686933-11.2896 12.757333-15.453867 14.5152-27.938133 27.4176-30.3104 49.826133-1.408 13.277867 1.390933 18.858667 9.472 28.8512 31.172267 38.5536 89.668267 33.442133 132.4544 20.113067 5.888-1.834667 39.082667-16.768 40.738134-15.36-50.0224 52.608-22.4768 92.544 46.626133 86.698667 21.026133-1.774933 99.4048-26.530133 115.345067-38.5536 17.800533-13.422933 36.701867-36.3264 27.1872-59.357867l16.034133 4.7872c11.8272 17.425067 14.242133 42.197333 3.208533 60.919467-0.571733 0.9728-7.338667 3.3536-6.8864 9.147733-12.757333 4.343467-29.047467 4.241067-41.3696 8.328533-8.6016 2.850133-27.767467 13.2864-36.206933 18.295467-33.7152 20.010667-59.255467 45.320533-53.4016 87.662933 1.186133 8.576 9.472 15.095467 9.608533 24.046934-7.4496-0.093867-14.993067 0.1536-22.442666 0-3.2-0.059733-6.434133 0.0512-9.617067 0 14.532267-32.768 4.753067-73.216-25.6512-92.970667-8.6272-5.6064-33.8176-17.928533-43.3408-19.182933-14.532267-1.911467-25.975467 3.677867-39.748267 2.8672-10.7264-26.1632-45.482667-32.64-70.971733-27.127467-5.435733 13.4144-7.1424 27.9296-13.320533 41.181867-5.307733 11.392-13.661867 18.858667-20.104534 27.9808-12.945067 18.321067 10.299733 14.1056 14.4896 30.344533 2.773333 21.393067-21.461333 38.084267-22.724266 48.093867-1.902933 15.044267 12.305067 28.168533 9.762133 43.3152-0.64 0.477867-4.1216 4.3776-6.408533 6.408533-8.891733 7.876267-4.8896 6.1184-16.068267 11.101867-25.745067 11.4944-51.592533 30.208-57.8304 59.281066l-31.906133 3.3536c-12.757333-0.068267-25.634133-0.034133-38.382934 0.0768-1.0496 17.1264-20.360533 36.3008-35.293866 43.264-61.525333 28.689067-173.277867 0.110933-200.584534-65.7664-1.629867-3.925333-0.802133-6.903467-1.467733-9.642666-2.986667-11.665067 7.330133-12.817067 15.8976-12.706134 0.068267 3.131733 1.143467 5.597867 3.2 7.970134 37.7856 43.690667 132.9152 86.075733 184.567467 46.472533 28.5184-21.870933 30.592-47.4368 8.0128-75.4688-14.634667-18.158933-35.899733-35.029333-57.770667-43.221333v-3.208534c2.244267 0.699733 6.715733-0.605867 10.461867 0.648534 37.870933 12.689067 55.799467 30.2592 82.577066 58.5984 2.6624 2.816 3.362133 7.082667 6.331734 9.7024 16.9984 15.010133 55.082667-4.539733 71.722666-14.882134 6.536533-4.061867 12.7744-10.606933 18.0736-15.598933 2.158933-2.039467 5.2736-2.688 7.944534-6.468267 3.0976-4.394667 10.606933-19.1232 11.2896-23.995733 7.995733-57.250133-65.8176-82.6112-110.685867-91.298133l-23.970133-1.672534c4.130133-6.3744 8.8064-4.130133 14.404266-4.829866 50.850133-6.382933 87.825067-4.232533 134.178134-32.546134 33.092267-20.215467 49.1264-44.603733 13.380266-73.301333-58.990933-47.36-168.32-15.351467-211.524266 41.8816-17.194667 22.766933-17.92 55.7568 11.0848 68.7872 7.005867 3.1488 14.967467-1.9968 12.8256 8.0128-9.463467 2.628267-20.138667 5.1968-28.859734 9.634133-11.153067 1.9712-15.232-8.925867-22.5792-14.2848-33.4336-24.405333-66.0736-29.6448-106.478933-20.292266-1.646933 0.384-2.0736 2.432-2.389333 2.517333-4.292267 1.2032-11.0336 1.501867-15.906134 3.1488-8.541867-19.498667-24.8064-34.978133-38.596266-51.234133 25.181867 6.741333 48.2048 21.154133 73.6 27.383466 27.682133 6.792533 68.608 10.7008 84.1984-18.688 3.9424-7.424 6.519467-17.928533 5.666133-26.274133-2.039467-19.950933-11.6992-40.1152-27.136-53.034667l-40.132267-30.395733 35.268267-1.595733c9.463467 3.8656 18.986667 4.087467 28.893867 7.970133 10.359467 4.0704 42.8288 27.989333 49.169066 26.9312 15.906133-5.666133 27.648-18.653867 32.708267-34.747733 2.0992-6.6816 1.117867-11.383467 1.425067-17.792 0.238933-5.0176 2.167467-15.121067-3.182934-17.629867 0.273067-5.2992-0.196267-10.7264 0-16.034133l14.6176 6.212266c3.908267 12.416 11.1872 74.641067 22.536534 77.021867 10.692267-1.698133 18.466133-8.849067 27.9296-13.3376 7.253333-3.438933 15.522133-4.829867 22.6304-9.429333 13.636267-8.832 20.369067-23.304533 26.222933-37.905067 6.536533-16.298667 16.529067-49.450667 17.6384-66.005333 0.3328-4.974933-3.370667-8.942933-2.8928-12.194134 0.4608-3.1232 5.802667-12.757333 9.173333-14.907733 3.0208 1.28 6.6304 1.109333 10.8032 3.601067 15.104 9.0368 31.914667 29.585067 34.082134 47.6928z" fill="#121618" /><path d="M1010.909867 479.010133c8.1152 11.426133 13.9776 25.6768 12.9792 40.200534-3.089067 44.9024-41.0624 74.555733-80.256 89.693866-25.437867 9.821867-53.1712 12.407467-80.196267 11.178667 0.9984 8.456533 5.700267 15.044267 6.545067 23.9104 3.515733 37.0688-15.428267 61.431467-46.0032 79.3088-36.992 21.632-76.7232 22.749867-117.632 12.2112-3.242667 20.078933-17.262933 34.346667-34.176 44.381867-30.506667 18.090667-70.775467 22.237867-105.2416 16.469333-31.488-5.2736-65.8944-18.235733-85.026134-44.8256 3.336533-2.3808 1.2032-16.238933 8.004267-12.817067 4.0704 2.048 9.659733 10.888533 14.523733 14.336 32.059733 22.749867 106.8288 15.4112 141.9008 0.989867 13.704533-5.632 41.864533-27.639467 43.963734-42.589867 6.587733-46.933333-56.200533-69.632-94.2848-65.5616-1.877333-0.290133-2.423467-4.181333-5.0944-6.5792-3.566933-3.2-7.415467-7.790933-9.617067-9.617066-8.2176-15.684267-0.162133-32.597333 3.217067-48.085334l7.005866 26.641067c2.082133 4.5312 5.418667 7.9872 10.5472 8.695467 42.427733 5.853867 135.6032-37.589333 145.4336-82.3552 3.797333-17.314133-2.321067-29.986133-5.888-45.969067 30.395733 19.7632 40.183467 60.202667 25.6512 92.970667 3.191467 0.059733 6.4256-0.059733 9.617067 0-11.264 6.596267-12.544 15.488-19.234133 25.6512-0.264533 0.110933-0.7168 2.9696-3.217067 4.650666-14.4896 9.745067-27.605333 20.497067-41.668267 30.6176-0.597333 0.4352-3.848533-0.2816-6.340266 1.544534-6.161067 4.522667-12.330667 13.0048-11.400534 20.949333 0.810667 6.9376 18.116267 28.996267 24.2432 33.518933 11.9552 8.832 23.406933 7.082667 36.778667 11.281067 7.3472-4.4544 15.633067-1.851733 22.4-3.217067 28.4672-5.751467 68.2752-30.0544 74.88-59.776 2.082133-9.361067-1.937067-19.703467 2.935467-28.4672-0.0768-1.553067-18.722133-20.206933-21.742934-22.254933-6.656-4.497067-16.247467-3.6608-19.165866-11.2896 10.069333 0.366933 20.309333-0.5888 30.395733 0.0512 12.706133 0.802133 25.028267 2.397867 38.493867-0.1024 39.04-7.227733 108.586667-39.210667 116.4544-82.3296 1.6384-8.96-3.703467-23.415467 10.231466-23.432533z" fill="#1A1E1F" /><path d="M182.7328 370.6368c18.235733-3.1232 60.2112 14.958933 73.088 28.253867 15.872 16.392533 4.992 34.1504-15.889067 32.0256-15.982933-1.621333-74.094933-26.282667-75.6224-43.255467-0.930133-10.402133 9.301333-15.4624 18.423467-17.024z" fill="#B6B7B6" /><path d="M286.318933 353.9712c3.370667-3.1488 11.554133-6.7072 15.906134-8.1408 13.7216-4.5312 35.575467-10.171733 49.681066-11.2384 10.8544-0.8192 29.380267 2.432 38.340267-0.136533 6.715733-1.92 4.8128-10.461867 5.085867-15.761067 5.358933 2.517333 3.4304 12.612267 3.182933 17.629867-0.3072 6.417067 0.674133 11.1104-1.425067 17.792-5.051733 16.093867-16.802133 29.073067-32.708266 34.747733-6.340267 1.058133-38.8096-22.8608-49.169067-26.9312-9.9072-3.8912-19.438933-4.104533-28.893867-7.970133z" fill="#222528" /><path d="M458.308267 264.6016c0.913067-0.1792 1.826133-0.366933 2.730666-0.546133l7.893334 5.085866c3.515733 12.032-21.0176 53.589333-36.5056 55.893334l-8.3712-11.076267c3.968-17.8176 14.225067-45.329067 34.244266-49.3568z" fill="#919496" /><path d="M4.1728 527.104l9.608533-19.234133c-0.034133 3.882667 1.570133 7.594667 3.626667 10.811733 12.151467 19.037867 46.1568 48.3328 65.7152 59.323733 5.376 3.0208 23.8336 11.665067 29.073067 12.586667 14.967467 2.619733 31.342933-3.618133 41.0624-15.377067 9.838933 5.6576-0.170667 24.3968 9.634133 28.834134 5.12 2.312533 7.4496-8.0128 8.618667-10.5984 7.3472-16.315733 12.450133-31.3344 26.786133-43.8528 3.626667-1.117867 21.828267 17.774933 27.127467 20.770133 12.4672 7.048533 38.954667 11.537067 52.48 7.637333 5.6064-1.6128 9.838933-9.762133 8.413866-15.633066l25.642667-3.2-2.807467 33.262933c0.6656 2.321067 11.093333 11.204267 12.424534 11.6224v3.208533c-44.817067-16.785067-109.0304-16.059733-142.677334 22.016-1.544533-1.058133-3.080533-2.030933-4.8128-2.781866-7.893333-3.447467-10.9312-4.693333-14.600533-13.0048-49.578667 18.628267-104.157867-3.0976-136.149333-43.050667C11.4944 555.656533 7.68 544.9216 4.155733 527.104z" fill="#1C1F21" /><path d="M80.0256 453.8624c7.313067-1.5872 14.5664 0.418133 21.265067 3.370667 13.431467 5.922133 44.279467 31.377067 36.0192 47.522133-10.888533 21.290667-60.245333-9.8304-68.565334-24.6016-6.8608-12.177067-2.816-23.2448 11.272534-26.2912z" fill="#9E9FA2" /><path d="M156.458667 498.2784c19.473067 9.437867 21.6576 24.814933 10.820266 42.837333-6.075733 10.103467-12.996267 12.049067-20.352 1.937067-14.3616-19.7632-3.1232-28.228267 9.531734-44.7744z" fill="#44474A" /><path d="M340.821333 536.721067c-4.343467 2.2016-19.0464 12.2624-20.9152 15.957333-2.935467 5.8112-2.090667 13.320533-0.0768 19.473067 7.552 23.082667 49.6896 28.117333 70.007467 35.797333 39.483733 14.9248 76.9024 39.970133 120.917333 34.5856-5.2992 4.992-11.528533 11.537067-18.0736 15.598933-16.64 10.3424-54.724267 29.892267-71.722666 14.882134-2.9696-2.619733-3.669333-6.8864-6.331734-9.7024-26.7776-28.3392-44.706133-45.917867-82.577066-58.5984-3.746133-1.2544-8.2176 0.0512-10.461867-0.648534-1.3312-0.418133-11.758933-9.301333-12.424533-11.6224l2.807466-33.262933-25.642666 3.2c-6.536533-3.191467-10.5472-9.719467-16.170667-14.293333-7.876267-6.417067-22.468267-13.499733-28.680533-19.413334-8.900267-8.4736-14.7456-27.682133-32.1024-24.0128 0.315733-0.085333 0.7424-2.133333 2.389333-2.517333 40.413867-9.352533 73.053867-4.113067 106.478933 20.292267 7.3472 5.367467 11.426133 16.264533 22.5792 14.2848z" fill="#25282B" /><path d="M340.821333 536.721067c8.721067-4.4288 19.396267-7.005867 28.859734-9.634134 2.141867-10.0096-5.819733-4.864-12.8256-8.0128-29.0048-13.0304-28.279467-46.020267-11.0848-68.7872 43.204267-57.224533 152.533333-89.2416 211.524266-41.8816 35.746133 28.6976 19.712 53.077333-13.380266 73.301334-46.344533 28.3136-83.328 26.1632-134.178134 32.546133-5.597867 0.699733-10.274133-1.536-14.404266 4.829867l23.970133 1.672533c44.868267 8.686933 118.6816 34.039467 110.685867 91.298133-0.682667 4.872533-8.192 19.6096-11.2896 23.995734-2.6624 3.780267-5.777067 4.4288-7.944534 6.468266-44.014933 5.384533-81.4336-19.6608-120.917333-34.5856-20.317867-7.68-62.455467-12.714667-70.007467-35.797333-2.013867-6.152533-2.858667-13.661867 0.0768-19.473067 1.8688-3.694933 16.580267-13.7472 20.9152-15.957333z m130.875734-90.333867c12.2112-25.019733-8.3712-28.040533-29.252267-24.465067-11.383467 1.9456-50.005333 22.8096-53.12 33.442134-4.4544 15.232 4.394667 25.685333 19.822933 23.133866 22.109867-3.669333 43.997867-20.6592 62.549334-32.110933z" fill="#333539" /><path d="M555.639467 636.1088c2.5344-15.146667-11.665067-28.279467-9.762134-43.3152 1.262933-10.0096 25.506133-26.7008 22.724267-48.093867-4.189867-16.238933-27.434667-12.023467-14.4896-30.344533 6.442667-9.122133 14.7968-16.5888 20.104533-27.9808 6.178133-13.252267 7.8848-27.767467 13.320534-41.181867 25.489067-5.504 60.245333 0.964267 70.971733 27.127467 13.7728 0.810667 25.216-4.778667 39.748267-2.8672 9.514667 1.2544 34.7136 13.576533 43.3408 19.182933 3.575467 15.982933 9.685333 28.654933 5.888 45.969067-9.821867 44.765867-103.005867 88.200533-145.4336 82.3552-5.128533-0.708267-8.465067-4.164267-10.5472-8.695467l-7.005867-26.641066c-3.3792 15.496533-11.434667 32.401067-3.217067 48.085333-2.7392-2.269867-7.133867-4.0192-10.6752-2.833067-5.316267 2.4576-10.3424 5.7856-14.976 9.2416z m114.449066-143.658667c-15.735467 2.449067-50.474667 17.109333-60.040533 29.7472-9.3696 12.373333-0.110933 20.437333 14.0288 17.220267 9.122133-2.0736 48.622933-24.354133 55.04-31.522133 9.472-10.581333 4.5056-17.553067-9.019733-15.445334z" fill="#323336" /><path d="M657.3056 280.891733c12.586667-1.578667 34.3296 3.712 29.457067 19.831467-10.308267 18.013867-76.177067 38.638933-88.004267 21.341867-9.531733-13.934933 19.626667-29.824 30.5664-33.877334 8.106667-3.003733 19.575467-6.2464 27.972267-7.304533z" fill="#B3B3B4" /><path d="M578.082133 283.434667l7.569067 2.816c49.186133-40.1408 204.142933-48.145067 194.363733 43.630933-0.494933 4.625067-4.590933 8.9344-3.1488 14.464 45.405867-11.101867 117.879467-14.728533 147.4816 28.859733l-16.034133-4.7872c9.5232 23.031467-9.386667 45.934933-27.1872 59.357867-15.940267 12.023467-94.318933 36.770133-115.345067 38.5536-69.102933 5.845333-96.648533-34.090667-46.626133-86.698667-1.655467-1.408-34.850133 13.525333-40.738133 15.36-42.786133 13.329067-101.282133 18.432-132.4544-20.113066-8.081067-9.992533-10.88-15.573333-9.472-28.8512 2.372267-22.408533 14.856533-35.319467 30.3104-49.826134 4.334933-4.0704 12.373333-4.258133 11.2896-12.757333z m79.223467-2.542934c-8.405333 1.058133-19.8656 4.3008-27.972267 7.304534-10.939733 4.053333-40.098133 19.9424-30.5664 33.877333 11.8272 17.297067 77.687467-3.336533 88.004267-21.341867 4.872533-16.119467-16.8704-21.418667-29.457067-19.831466z m132.3776 92.3136c-8.413867 2.8416-20.283733 11.1872-19.4048 20.864 1.237333 13.7216 39.099733 28.8512 45.047467 15.991467l-11.460267-8.046933 1.851733-3.165867c18.414933-0.247467 51.669333 3.703467 54.306134-20.565333-3.84-5.589333-10.606933-10.564267-17.442134-11.4944-14.020267-1.902933-39.287467 1.8176-52.898133 6.408533z" fill="#2F3335" /><path d="M805.717333 398.856533l-25.634133-14.429866 9.6-11.221334c13.610667-4.590933 38.877867-8.311467 52.898133-6.408533 6.8352 0.930133 13.602133 5.905067 17.442134 11.4944-2.6368 24.2688-35.8912 20.317867-54.306134 20.565333z" fill="#9CA1A3" /><path d="M805.717333 398.856533l-1.851733 3.165867 11.460267 8.046933c-5.947733 12.859733-43.810133-2.2784-45.047467-15.991466-0.8704-9.6768 10.990933-18.030933 19.4048-20.864l-9.6 11.221333 25.634133 14.429867z" fill="#545A5C" /><path d="M712.738133 642.525867c14.062933-10.120533 27.178667-20.872533 41.668267-30.6176 2.5088-1.681067 2.961067-4.548267 3.217067-4.650667 1.083733-0.443733 22.033067-2.909867 23.287466-2.7136 13.7472 2.158933 35.6096 7.466667 23.125334 25.079467-17.553067 24.763733-51.0464 32.9728-80.145067 29.0048-7.338667-0.9984-12.5952-8.362667-11.153067-16.1024z" fill="#585A5D" /><path d="M927.556267 434.1248c1.604267 4.7872-8.174933 9.6 1.578666 9.617067 31.223467 0.059733 62.882133 8.669867 81.774934 35.268266-13.934933 0.008533-8.6016 14.464-10.231467 23.432534-7.867733 43.118933-77.4144 75.101867-116.4544 82.3296-13.4656 2.491733-25.787733 0.896-38.493867 0.1024-10.0864-0.631467-20.3264 0.315733-30.395733-0.0512 2.9184 7.620267 12.509867 6.792533 19.165867 11.2896 3.0208 2.039467 21.666133 20.701867 21.742933 22.254933-4.881067 8.7552-0.861867 19.106133-2.935467 28.4672-6.6048 29.7216-46.4128 54.024533-74.88 59.776-6.766933 1.365333-15.0528-1.237333-22.4 3.217067-13.371733-4.1984-24.823467-2.449067-36.778666-11.281067-6.126933-4.522667-23.432533-26.581333-24.2432-33.518933-0.930133-7.944533 5.239467-16.426667 11.400533-20.949334 2.491733-1.826133 5.742933-1.117867 6.340267-1.544533-1.442133 7.739733 3.805867 15.104 11.153066 16.1024 29.098667 3.968 62.592-4.241067 80.145067-29.0048 12.4928-17.621333-9.378133-22.929067-23.125333-25.079467-1.2544-0.196267-22.203733 2.269867-23.287467 2.7136 6.698667-10.154667 7.970133-19.054933 19.234133-25.6512 7.4496 0.145067 14.993067-0.1024 22.442667 0-0.136533-8.951467-8.4224-15.470933-9.608533-24.046933-5.8624-42.350933 19.6864-67.652267 53.4016-87.662933 8.439467-5.009067 27.605333-15.445333 36.206933-18.295467 12.322133-4.087467 28.612267-3.985067 41.3696-8.328533-0.452267-5.794133 6.306133-8.1664 6.8864-9.147734z m-26.632534 39.0912c-9.6512 1.646933-41.949867 18.0992-48.674133 25.0624-1.655467 1.706667-8.209067 12.305067-8.2176 14.370133 3.899733 23.876267 32.930133 13.960533 49.169067 7.3472 12.919467-5.265067 42.2144-20.599467 40.968533-36.1728-1.117867-14.0288-22.724267-12.407467-33.237333-10.606933z" fill="#313437" /><path d="M900.923733 473.216c10.5216-1.800533 32.119467-3.413333 33.237334 10.606933 1.245867 15.573333-28.049067 30.907733-40.968534 36.1728-16.2304 6.613333-45.2608 16.529067-49.169066-7.3472 0-2.065067 6.562133-12.663467 8.2176-14.370133 6.7328-6.9632 39.022933-23.415467 48.674133-25.0624z" fill="#B1B1AE" /><path d="M321.5872 607.2576c21.870933 8.192 43.136 25.0624 57.770667 43.221333 22.5792 28.023467 20.514133 53.597867-8.0128 75.4688-51.652267 39.6032-146.781867-2.781867-184.567467-46.472533-2.048-2.372267-3.131733-4.8384-3.2-7.970133-8.558933-0.110933-18.875733 1.032533-15.8976 12.706133-0.068267-0.273067-2.756267-0.5888-3.2512-4.625067-2.56-20.608 6.766933-33.809067 9.668267-53.085866 1.723733 0.750933 3.259733 1.723733 4.8128 2.781866 33.646933-38.075733 97.860267-38.8096 142.677333-22.016z m-71.611733 10.146133c-12.6976 2.7904-19.729067 14.318933-10.1632 25.130667 6.971733 7.8848 50.363733 25.8304 60.928 25.8816 16.119467 0.085333 28.125867-15.4624 16.0512-29.115733-11.383467-12.8768-49.9712-25.591467-66.816-21.896534z" fill="#343638" /><path d="M249.975467 617.403733c16.8448-3.694933 55.432533 9.028267 66.816 21.896534 12.074667 13.653333 0.068267 29.201067-16.0512 29.115733-10.564267-0.0512-53.956267-17.9968-60.928-25.8816-9.565867-10.820267-2.5344-22.3488 10.1632-25.130667z" fill="#B9B9B9" /><path d="M590.907733 639.317333c2.670933 2.397867 3.2256 6.289067 5.0944 6.5792 38.084267-4.0704 100.872533 18.628267 94.2848 65.5616-2.0992 14.9504-30.2592 36.957867-43.963733 42.589867-35.072 14.421333-109.841067 21.76-141.9008-0.989867-4.864-3.447467-10.453333-12.288-14.523733-14.336-6.801067-3.421867-4.667733 10.436267-8.004267 12.817067-8.942933-12.424533-11.579733-19.054933-9.617067-35.2768-9.591467-0.0256-19.268267 0.0512-28.859733 0l31.906133-3.3536c6.229333-29.073067 32.085333-47.786667 57.8304-59.281067 11.178667-4.992 7.176533-3.2256 16.068267-11.101866l3.293867 4.906666 38.382933-8.106666z m-25.173333 50.833067c0.5376 0.580267 12.996267 6.058667 14.455467 6.3744 7.7312 1.672533 30.378667 4.394667 37.905066 3.626667 6.493867-0.6656 33.3312-8.285867 30.464-17.399467-1.3312-4.215467-16.622933-12.9792-21.2992-14.062933-14.583467-3.396267-32.657067-3.362133-47.061333 0-4.650667 1.083733-18.961067 8.0384-17.962667 13.585066 0.0768 0.426667 3.208533 7.569067 3.5072 7.8848z" fill="#323436" /><path d="M581.282133 629.700267c2.210133 1.826133 6.050133 6.417067 9.617067 9.617066l-38.382933 8.106667-3.293867-4.906667c2.295467-2.030933 5.777067-5.9392 6.408533-6.408533 4.6336-3.456 9.659733-6.784 14.976-9.2416 3.541333-1.186133 7.936 0.5632 10.6752 2.833067z" fill="#919AA0" /><path d="M565.7344 690.1504c-0.298667-0.315733-3.4304-7.458133-3.5072-7.8848-0.9984-5.538133 13.312-12.501333 17.962667-13.585067 14.4128-3.3536 32.477867-3.387733 47.061333 0 4.676267 1.083733 19.976533 9.847467 21.2992 14.062934 2.8672 9.1136-23.978667 16.733867-30.464 17.399466-7.517867 0.768-30.173867-1.954133-37.905067-3.626666-1.4592-0.315733-13.917867-5.802667-14.455466-6.3744z" fill="#B8B8B9" /><path d="M471.697067 446.3872c-18.551467 11.4432-40.439467 28.4416-62.549334 32.110933-15.428267 2.56-24.285867-7.901867-19.822933-23.133866 3.114667-10.641067 41.728-31.496533 53.12-33.442134 20.881067-3.575467 41.472-0.554667 29.252267 24.465067z" fill="#B6B5B7" /><path d="M670.088533 492.450133c13.525333-2.0992 18.491733 4.872533 9.019734 15.445334-6.417067 7.168-45.909333 29.448533-55.04 31.522133-14.139733 3.217067-23.3984-4.855467-14.0288-17.220267 9.565867-12.637867 44.305067-27.298133 60.040533-29.7472z" fill="#A6A6A5" /></svg>