<?xml version="1.0" standalone="no"?><!DOCTYPE svg PUBLIC "-//W3C//DTD SVG 1.1//EN" "http://www.w3.org/Graphics/SVG/1.1/DTD/svg11.dtd"><svg class="icon" width="256px" height="256.00px" viewBox="0 0 1024 1024" version="1.1" xmlns="http://www.w3.org/2000/svg"><path d="M492.9024 127.368533c-7.6544 4.7872-20.471467 21.5552-17.681067 30.7712l-5.358933 3.106134c-4.983467 2.8928-13.6704 10.845867-14.72 16.657066l-4.718933 26.1376c-2.235733 12.373333 4.462933 20.804267 6.024533 20.548267l9.7536-1.629867 0.366933 6.698667-3.5584 8.704c-3.054933 7.466667 5.188267 30.702933 20.4288 41.9584 3.0976 2.286933 10.8032-1.032533 11.639467-4.061867l3.780267-13.6704 6.852266 12.834134c0.4352 0.810667 4.130133 0.7424 5.085867 0.64 10.1632-1.0496 15.010133-22.382933 15.112533-25.326934l0.750934-21.4784-3.140267-2.56 0.0512-2.286933c-0.520533-2.602667-1.4848-6.186667-2.244267-7.867733l-10.589866-19.165867c-5.137067 3.319467-9.0368 6.033067-12.177067 8.763733l-3.729067-0.682666c-0.861867-0.1536-0.768-1.9968-1.1008-4.002134l-2.670933-16.3072 6.7328-8.721066c4.488533-5.819733 10.8288-14.848 14.583467-21.632 3.131733-5.6576 1.6896-25.608533-6.5792-27.630934l-3.3024-7.2448 4.369066-2.653866c4.650667-2.816 12.663467 25.472 13.858134 30.0032 1.348267 5.102933 2.679467 12.1088 6.109866 15.266133 2.261333 2.082133 10.274133-1.8432 13.533867-3.5072 13.934933-7.0912 8.251733 23.253333 24.456533 29.277867-0.341333 7.5008 1.629867 36.864 17.8432 30.506666 25.693867-10.077867 28.834133-32.1024 31.7696-56.5248 0.213333-1.809067 4.974933-5.632 5.546667-4.394666 0.384 0.827733 1.885867 3.8912 2.269867 4.992l6.331733 18.193066c0.5376 1.544533 2.423467 3.805867 3.7632 4.599467 0.315733 0.187733 0.9472 0.017067 1.527467-0.042667l2.304 2.5856 9.5488 4.5312c12.603733 5.981867 21.512533-12.885333 29.508266-5.1456-2.8928 5.7088-9.864533 13.755733-9.847466 18.6624l0.085333 31.1296 14.506667-7.953066-8.712534 9.284266c-1.757867 1.877333-3.9424 7.125333-4.283733 9.096534l1.954133 14.318933c25.557333-3.848533 36.932267-6.784 54.075734-28.3392 3.293867-4.1472 2.414933-13.525333-0.861867-18.184533-2.056533-2.926933-6.690133-5.930667-11.0336-6.161067l-7.210667-2.952533c6.0672-4.0448 8.482133-5.717333 11.8528-7.569067l4.48 2.4576c10.581333-9.344 16.810667 26.018133 37.495467 13.636267l4.3264-2.594134c0.605867-0.366933 2.218667 1.4848 2.926933 1.442134l5.026134-0.315734c2.286933-0.145067 5.3504 2.8416 8.3968 5.614934 11.136 10.154667 8.584533 0.6912 23.995733 13.7728l8.490667 7.202133c3.165867 8.891733-3.592533 5.495467-2.56 22.2464l0.955733 15.453867c4.104533 5.256533 13.943467 3.575467 17.954133-0.8704l11.008-12.194134c1.629867-1.800533 4.164267-9.156267 4.352-9.258666-4.0192 6.178133 15.658667 20.753067 18.397867 22.0416l21.410133 10.120533c0.930133-0.1792-1.979733 0.384-5.2736 1.024l-2.235733 2.670933c-10.717867 1.578667-30.3104 17.604267-21.469867 32.802134 4.983467 5.469867 19.84 5.8624 27.630934 3.874133l11.844266-3.0208 11.144534-2.8416 4.445866 4.718933-0.290133 13.457067c-0.0768 3.7376-8.174933 8.942933-11.784533 10.180267l-6.7328 2.295466c-0.6144 0.2048-1.476267 28.885333 14.532266 35.8144l-0.759466 3.063467-12.5184 1.134933c1.681067 8.064 3.9168 12.8256 7.748266 18.474667 3.319467 4.8896 10.154667 15.9488 16.3584 15.197867l25.130667-3.0464-22.084267 16.503466c-2.986667 2.2272-8.32 7.927467-10.8288 11.0848-3.2768 4.1216-1.5616 22.621867 8.123734 22.510934l23.790933-0.2816c1.4848-0.017067 5.435733 0.290133 5.495467 1.527466l0.341333 7.099734 2.4064 1.7664c-0.273067 17.5616 1.544533 18.432-10.1888 33.032533-5.947733 1.544533 1.117867 9.992533-12.7232 15.8208-7.995733 3.362133-15.522133 7.278933-20.693333 12.6208l-23.338667 24.081067c-4.1216 4.258133-6.468267 17.595733-5.179733 23.6288 0.469333 2.176 8.132267 4.283733 10.368 3.387733l21.8624-8.823467c3.4048-1.373867 21.7856-12.731733 27.025066-16.4096l18.082134-12.680533 4.718933 2.3552 2.158933 0.017067 3.387734 5.4272c1.4848 2.3808 0.341333 7.6288-0.878934 13.320533l3.524267 4.241067 1.7152 10.0864c-12.407467 31.5904-23.970133 22.024533-43.178667 30.805333l-4.317866 4.821333 3.8656 2.781867c-0.1024 1.757867 0.5888 4.317867 1.467733 8.029867l-24.823467 17.629866c-10.350933 7.3472-17.672533 17.988267-20.215466 30.830934 3.029333 3.9168 7.799467 9.284267 11.067733 10.5728l-0.605867 4.215466c-0.1536 1.0496-2.8928 0.5888-4.923733 0.657067l-28.253867 0.9216c-4.334933 0.145067-11.485867 6.9376-11.972266 10.333867 0.733867 4.215467 1.800533 6.647467 0.196266 6.570666l-7.099733-0.3328c-1.988267-0.093867-6.306133 2.039467-7.133867 3.140267l-22.8608 15.3856c-4.386133 2.781867-37.4016 15.556267-33.373866 26.350933 2.551467 6.8352 11.793067 16.853333 17.8432 22.2464 2.244267 1.9968 16.554667 20.821333 28.535466 7.970134l5.137067-2.013867-8.106667 17.237333c-2.210133 2.432-5.563733 6.016-8.0896 8.379734l-5.998933 5.6064c-1.937067-0.4096-8.123733-1.032533-10.154667-0.256l-16.878933 6.485333-4.369067-6.6816 7.022934-1.194667 0.648533-17.6384c0.878933-23.978667-20.753067-34.176-22.365867-33.339733-1.3312 0.682667-2.773333 2.389333-5.572266 5.1968l-1.1008-17.757867c-0.264533-4.258133-5.947733-11.511467-10.2144-12.9792-14.7456 4.590933-29.6448 14.685867-37.162667 28.5696-2.321067 4.292267-0.2048 15.752533 1.2032 20.642134 2.2528 7.790933 10.120533 10.3168 16.503467 7.953066l7.543466-2.7904 5.0688 9.3696c2.440533 4.514133 4.949333 10.436267 4.548267 15.197867l-2.6368 31.163733-1.066667 10.043734-8.6528-9.122134c-2.116267-2.235733-9.2672-3.6352-12.962133-3.8656l-30.455467-1.8944-7.389866 6.6816c-4.1984 0.093867-5.256533-0.017067-6.306134 0.7936l-6.365866 4.9152-1.6384-17.9456c-0.6656-7.287467-8.797867-15.598933-13.960534-20.6848l-15.428266-15.223466c-7.168 0.605867-18.269867 7.4752-20.309334 15.837866-3.421867 14.020267-0.836267 29.312 7.0144 40.430934 8.405333 11.904 23.68 14.020267 36.7616 8.712533l3.4816 1.6896c-1.160533 9.4464 14.1056 14.2848 9.1904 28.168533-4.292267 12.117333-20.283733 14.242133-31.7696 11.904l-12.040533-2.4576c-20.497067-4.181333-21.9904 13.073067-39.3472 3.908267l-1.698133-2.961067 6.656-3.797333c2.986667-1.706667 5.521067-7.611733 5.384533-11.4688 5.469867-15.351467 1.339733-32.554667-11.1104-45.124267-5.563733-5.614933-22.485333 9.821867-21.5808 18.7648l1.6128 16.017067 1.314133 13.448533c-14.890667-15.36-50.244267-24.7552-62.967466-14.062933l-3.5584 2.9952c-0.605867 0.512-3.328-2.602667-2.9952-3.319467l7.953066-17.220266c4.642133-10.043733 0.4096-22.877867-4.164266-33.1264-1.288533-2.884267-9.403733-4.2752-11.707734-2.030934-20.0192 19.5328-5.1712 15.6928-25.1648 28.970667l-2.705066-10.88c-1.595733 1.0752-5.998933 4.352-7.005867 6.144l-7.483733 13.201067c1.774933 0.418133-3.217067-0.750933-3.857067-0.896l-4.718933-16.785067c-2.2272-7.9104 1.544533-19.310933-3.908267-25.216l-7.168-7.773867-18.705067 9.796267c-9.386667 4.9152-17.493333 12.9792-22.280533 21.538133-14.532267-1.365333-14.344533 7.415467-33.297067 4.795734 0.093867-2.158933 0.341333-7.492267 0.341334-7.492267 9.2928 4.753067 17.774933 2.2016 21.034666-7.6288 2.696533-8.1152-0.290133-33.288533-8.721066-32.887467-9.506133 0.452267-21.239467 7.7312-24.4992 15.035734-1.723733 3.857067 1.160533 13.448533 2.414933 16.3328l-5.853867 2.696533c-0.827733 0.384-0.290133 2.722133-0.674133 3.5584l-2.261333 4.949333-6.007467 3.592534c-4.1216 0.6656-10.427733 2.901333-12.023467 5.870933-0.3584 0.674133 0.657067 5.563733-0.042666 5.845333-1.92 0.759467-7.406933 2.065067-9.079467 1.3312l-12.663467-5.572266 9.770667-10.402134c5.239467-5.5808 9.821867-12.910933 12.689067-20.804266 1.186133-3.2512-3.0976-10.5216-6.1184-10.513067l-32.861867 0.0512c-0.913067-0.017067-2.798933-0.0512-3.720533 0s-0.2816-23.168-9.096534-23.0144c-14.336 0.247467-37.418667 13.166933-37.7856 22.2208-0.0256 0.725333 0.375467 3.456 0.443734 4.1984s-0.827733 0.981333-1.3312 0.426667c-9.429333-10.2912-0.853333-26.5984-7.6032-26.752l-1.365334-14.660267-8.9856-2.1504c-2.594133-0.622933 0.810667-17.015467-0.9216-29.329067-0.477867-3.413333-7.168-9.710933-10.257066-12.168533-2.858667-2.269867-12.5184 0.657067-14.600534 3.908267l-16.093866 25.1136-3.549867 11.989333-1.0496-19.9936c-0.290133-5.5808-9.5232-12.202667-15.138133-16.093867l13.380266-0.580266c6.4256-0.2816 18.235733-3.080533 22.698667-7.031467 7.9104-6.997333-2.5088-29.713067-26.820267-32.9216-29.806933-3.933867-30.429867 12.424533-40.021333 5.162667-5.6832-4.292267-12.885333-9.002667-15.479467-12.7744l-9.6512-14.020267 20.394667-3.421867c12.2112-2.048 37.2224-16.4608 38.485333-23.7312 0.930133-5.358933-14.6688-18.440533-18.4832-19.345066l-18.116266-0.605867c-1.783467-0.059733-5.393067-3.601067-7.1168-4.036267 2.363733-4.821333 36.676267-0.622933 35.882666-20.590933l-0.4352-10.9568 8.738134 1.629867 8.5504 12.996266 0.366933 12.125867 3.268267 2.0992c1.467733 2.926933 6.903467 10.624 10.5728 11.648 15.9488 4.437333 40.132267-0.093867 47.035733-12.970667 6.365867-11.869867-20.736-25.8304-37.077333-21.905066l-15.6416 0.4608c-2.6368 0.0768-10.197333-3.3024-10.615467-4.522667l5.8112-6.203733c11.8272-1.442133 20.983467-18.4576 22.1952-24.849067l2.167467-11.392c12.322133 1.9968 17.186133-0.187733 24.106666-4.932267 8.5248-5.8368 18.082133-11.502933 25.463467-19.8912 5.4528-6.186667 2.850133-16.443733-2.372267-20.642133l-2.235733-3.328-19.7376 0.981333c-1.425067 0.068267-5.751467 1.655467-7.176533 1.988267 0.512-0.119467-5.8112-6.647467-17.408-10.231467l-23.176534-7.159466c-11.136-3.438933-25.787733 4.608-32.034133 13.038933-4.5568 6.144 3.362133 17.988267 19.063467 20.898133 5.512533 1.024 15.317333 2.141867 19.114666-0.273066l12.561067-7.978667 4.821333 4.113067-7.569066 13.2096-2.9952 4.155733 0.913066 10.999467c-10.231467-2.705067-19.874133-4.155733-27.605333 1.1264-13.969067 9.5488-20.471467 24.285867-22.826667 40.132266l-10.0352-3.592533c-1.442133-3.9168-2.816-7.901867-4.906666-9.173333-5.2736-3.217067-16.8192-7.5776-23.6544-8.669867-28.757333-4.5824-27.016533 7.415467-37.8624-2.235733l-4.898134-4.360534c-2.0224-5.9904-1.536-13.2608 1.877334-18.432l7.662933-11.6224-4.701867-9.019733c-1.664-12.219733-1.9712-23.0656-2.082133-38.766933 29.252267 0.247467 11.605333 6.826667 30.634667 5.2224 9.582933-0.810667-12.398933-11.9808-16.708267-21.290667-1.629867-3.524267 1.501867-12.9024 2.517333-13.192533l6.775467 7.1168c11.733333 12.330667 41.864533 19.703467 51.259733 10.743466 7.022933-6.698667 2.961067-17.9712-4.352-21.777066-6.1184-3.182933-15.778133-7.330133-21.6832-7.296-0.2816-0.4096-1.373867-2.048-1.698133-2.7392-0.4608-0.9728 2.525867-2.141867 4.539733-3.2512 2.722133-1.501867 5.674667-9.070933 3.84-11.758934-7.773867-11.4432-15.035733-11.8016-10.6752-20.462933 1.373867-2.730667 8.789333-6.203733 10.555734-5.12l2.372266 15.829333c0.469333 3.106133 6.510933 6.766933 9.531734 7.637334l9.8816 2.8416c12.245333 3.524267 31.3088 0.8448 37.538133-9.130667 2.346667-3.754667 2.312533-14.557867-0.759467-17.2544l-5.640533-4.949333c-1.706667-1.501867-5.034667-2.312533-7.9616-2.4064l-4.5824-0.068267c-0.503467-19.131733 10.641067-1.117867 23.944533-40.772267 3.5072-10.453333 11.844267-0.221867 14.1824-8.490666l16.733867-8.8064c3.515733-1.851733 5.0944-12.0832 2.235733-14.2336l-6.101333-4.5824-5.870933-4.036267-8.5504-6.340267 6.9888-10.359466c13.0048-19.2768 12.322133-34.6368 19.234133-35.5072 1.399467 1.28 4.488533 2.1504 8.021333 4.061866l-0.768-5.256533-4.5312-7.389867-4.343466-6.912-1.4336-6.229333 12.910933 5.4016 16.1024 0.341333c12.305067 6.5024 17.621333 5.905067 33.834667 5.0176 2.696533-10.922667-3.6864-22.801067-10.350934-29.943466l-11.477333-12.3136 4.2752-0.725334 4.7872 1.757867c2.005333 0.733867 6.101333 1.450667 8.439467 1.8944l17.860266 13.499733c5.691733 4.3008 16.366933 6.647467 24.0896 9.147734 14.455467 4.6848 24.814933-4.292267 27.093334-12.407467 2.2784-8.123733-19.0976-23.8592-28.407467-24.482133l-2.210133-2.670934-18.816-0.520533 7.04-20.7872c0.5376-1.595733 4.923733-3.2256 5.76-4.6848 1.117867-1.9712 2.389333-4.5312 4.548266-8.849067l14.711467 18.1248c2.184533 2.688 8.721067 7.108267 11.5968 8.942934l21.922133 14.020266 14.0544 8.96c2.500267 1.595733 9.992533 3.985067 12.7488 3.131734 3.072-0.955733 9.429333-7.671467 10.0864-10.990934 1.902933-9.642667-4.727467-21.674667-12.714666-27.4944-10.103467-7.355733-1.4592-8.2176-9.5744-13.098666-0.119467-0.682667 1.152-1.9456 1.732266-1.5872l3.3024 2.005333 30.421334 18.235733c1.851733 1.109333 8.7552 0.7936 9.3696-1.314133 1.169067-4.027733 1.6128-13.141333-0.187734-16.315733l-6.536533-11.502934c-1.595733-2.807467-2.4832-9.685333-2.3552-12.859733l1.015467-4.283733c8.661333 7.825067 15.0528 14.199467 24.516266 19.7888 4.778667 2.824533 24.3712 8.029867 31.709867 2.56 1.237333-0.9216 2.670933-7.057067 2.0224-8.465067l-9.480533-20.616533 3.703466-5.12 3.396267-5.162667c13.166933-2.4576 31.470933-19.874133 37.888-12.270933 3.1744 3.7632 2.372267 12.228267 0.0256 16.145066z m40.9088 51.072c-21.060267 8.029867-8.200533 53.597867 8.4736 58.2144 14.404267-23.9872 16.494933-23.4496 12.2624-45.320533-0.810667-4.1984-4.4288-12.381867-8.2176-14.6432-2.5088-1.501867-10.7776-0.7424-12.5184 1.749333z m-90.5728 48.8448l-1.749333-16.298666c-1.9456-18.0992-17.570133-19.524267-21.1456-21.717334l-5.495467-3.370666c-0.725333-0.443733-2.722133 1.809067-2.500267 2.628266l1.416534 5.1712-7.594667 6.229334c-6.2208 5.102933-15.0016 17.8176-13.4912 26.589866 3.054933 17.7152 19.4816 26.717867 35.498667 28.552534 7.3216-7.074133 16.128-17.92 15.069866-27.784534z m172.458667 27.6224l4.6592-11.6736c2.9696-7.4496 5.179733-15.0784 6.4256-24.106666 0.699733-5.085867-8.311467-12.7488-12.910934-10.3936-16.093867 8.2432-22.109867 29.969067-16.119466 46.830933l17.954133-0.657067z m43.8784-14.813866c0.648533-0.128 4.0704-3.0464 3.4048-4.309334l-3.387734-6.442666c-0.213333-6.2208-1.2288-11.665067-2.730666-17.4848-7.304533 0.085333-17.271467 3.515733-20.360534 9.156266l-12.023466 21.9392c-5.572267 10.171733-3.473067 21.0688 7.313066 28.125867 20.224-7.620267 24.541867-10.7776 27.793067-30.984533z m-317.9776 9.838933c0.2048-0.443733-2.2528 2.525867-2.304 3.2512l-1.553067 21.307733c-0.290133 3.976533-0.7936 7.637333 0.9984 8.635734 2.961067 1.646933 7.5008 4.983467 9.2672 6.920533l12.373333 13.5424c1.902933 2.0736 10.0096-2.141867 12.040534-4.7872 15.138133-19.7376-3.0208-67.4048-19.208534-67.328-2.065067 0.008533-6.357333 2.978133-7.0912 4.864l-4.5312 13.5936z m405.009066 36.1472c0.290133 2.039467-0.0768 6.237867-1.885866 6.621867-19.882667 4.241067-26.308267 32.273067-23.236267 46.549333 5.930667 0.443733 17.092267 0.9728 21.879467-0.324267 13.038933-9.198933 35.1744-37.0432 23.313066-51.2 2.013867-3.2768 5.265067-8.669867 6.1184-12.177066 4.650667-19.089067 5.546667-18.039467 1.024-36.718934-2.696533-11.144533-22.664533 4.036267-28.3904 16.938667-4.9152 11.0848-2.2272 21.76 1.1776 30.3104z m-157.917866 49.698133c1.8688-1.0752 5.5296-5.000533 6.135466-7.0912 6.690133-23.022933-6.784-35.285333-22.920533-47.240533 6.417067-8.448 11.9296-18.3296 10.897067-28.4928-0.9472-9.309867-8.610133-16.913067-18.423467-15.394133-14.72 2.2784-30.788267 21.589333-33.314133 36.360533-0.631467 3.720533 3.7888 13.218133 7.517866 13.627733l14.660267 1.595734c-0.648533 0.725333-4.590933 8.669867-3.490133 10.487466 5.495467 9.079467 31.1296 40.644267 38.9376 36.155734zM307.908267 306.517333c2.244267 5.486933 8.098133 16.477867 13.678933 18.432l22.5024 7.8848-0.5376 7.1424c-3.438933 12.100267-5.777067 34.542933 8.840533 42.282667 7.688533 4.078933 15.453867-1.3312 18.7136-7.825067 9.361067-18.6112 7.3216-39.287467-6.459733-49.792l-5.666133-5.358933c-7.236267-6.843733 3.208533-13.9776-22.510934-28.066133-3.6608-2.005333-8.558933-6.843733-9.847466-9.9584l-3.4048-8.2176c-0.955733-5.4784-6.289067-15.658667-10.129067-19.498667-1.5872-1.595733-8.704 3.259733-9.258667 5.6064-6.161067 26.274133-3.9424 27.7504 4.078934 47.368533z m108.253866-30.984533c-1.442133-3.387733-6.272-7.893333-9.3952-8.123733-2.602667-0.196267-8.994133 1.928533-11.101866 3.848533-19.0464 17.3824-17.877333 49.015467 0.622933 55.9616 9.796267 3.677867 30.062933-27.707733 19.874133-51.6864z m38.6048 48.1536c13.141333-7.8592 26.914133-27.127467 19.669334-37.700267l-11.835734-17.271466-16.290133 2.679466c-4.155733 0.682667-4.317867 12.637867-3.959467 16.989867l1.9968 23.850667c0.3328 3.925333 4.164267 15.197867 10.4192 11.451733z m-174.677333-29.320533c2.141867-1.288533 5.435733-4.8384 5.341867-6.852267-0.068267-1.5104-2.304-4.949333-3.5072-6.007467-21.009067-18.3552-58.717867-8.9856-61.661867 0s5.085867 16.341333 13.1072 17.732267c19.4816 3.387733 29.371733 5.5296 46.728533-4.864z m432.042667-0.162134c-9.514667-27.016533-54.8352-30.08-74.2912-16.8192 7.4752 9.813333 13.184 18.013867 21.819733 23.509334 16.366933 10.4192 37.6576 11.690667 52.471467-6.690134z m-55.7312 41.6768l1.2032-19.1488c-7.68-14.5408-15.965867-26.129067-28.791467-36.744533-8.354133-0.110933-19.4304 5.4016-20.241067 12.731733-1.749333 15.880533 9.668267 24.004267 20.462934 29.422934l27.357866 13.738666z m167.210666 0.605867l-3.063466-4.3776c-3.618133-5.179733 7.799467-7.645867 14.242133-25.710933 1.928533-5.410133-3.7632-13.2864-8.7808-14.2592-17.928533-3.464533-34.321067 3.1488-45.789867 16.930133-5.845333 7.022933-9.198933 20.292267-7.816533 27.9808 0.520533 2.901333 7.876267 5.905067 10.427733 5.4272l20.497067-3.84c7.210667-1.3568 23.7312 2.798933 20.283733-2.141867z m-287.470933-15.300267c1.937067-5.418667-8.277333-14.711467-13.934933-15.9488-19.063467-4.1728-51.6352 0.119467-57.821867 24.1664-1.1776 4.573867 3.157333 15.1552 7.517867 15.394134 21.4272 1.1776 56.081067-0.7424 64.238933-23.6032z m138.538667 41.591467l4.1216 11.946667 13.602133-10.624c9.454933-7.381333 18.449067-15.5392 18.807467-29.346134l5.0176-20.0448c0.401067-1.604267-1.322667-6.510933-2.594134-7.5264-4.650667-3.729067-16.546133 8.064-22.161066 13.4912-8.891733 8.593067-18.858667 28.168533-16.802134 42.103467z m-448.187734 22.826667l-1.962666 7.9616c13.713067 17.092267 39.552 11.460267 55.748266-2.5344 3.933867-3.396267 5.4016-11.374933 4.898134-16.802134-3.8144-1.416533-7.867733-3.072-10.171734-3.208533-0.247467-0.802133-2.901333-1.655467-6.8352-2.414933l0.2816-2.747734c3.746133-1.8688 6.6048-2.961067 6.459734-4.394666l-0.878934-8.413867c2.850133-2.491733 6.4256-5.572267 8.4736-7.594667 2.048-2.0224-1.681067-9.591467-3.524266-11.776l-8.448-10.026666c-1.672533-1.979733-6.587733-3.498667-8.7808-4.266667-1.339733-0.469333-3.601067-1.681067-4.846934-2.3808l-4.317866-3.191467-23.432534 0.708267-7.6544 8.635733c-2.568533 2.8928 1.3568 11.682133 4.2496 13.969067l13.056 10.3168-11.4688-3.541333c-5.9648-1.8432-18.133333 11.588267-17.9456 18.167466 0.503467 17.5872 19.217067 15.018667 17.117867 23.5264z m83.925334-12.2112c8.6272-10.120533 8.405333-20.616533 5.947733-30.865067-0.0768-9.1392-3.0976-16.2048-10.4704-22.126933l-15.5904 9.975466c-0.085333 20.292267-3.882667 34.679467 20.113067 43.016534z m94.651733 24.977066c25.4208-6.715733 47.4624-56.3712 30.856533-72.9344-8.721067-8.704-26.845867 11.306667-33.117866 18.952534-10.5216 12.834133-15.4112 41.489067 2.261333 53.981866z m164.0192-56.840533c3.0976-7.995733-6.5792-16.776533-14.754133-15.044267-6.852267 1.450667-14.634667 4.778667-19.899734 8.610134-17.757867 12.919467-26.538667 14.660267-24.123733 36.096 21.128533 8.8576 52.1216-12.475733 58.7776-29.6704z m77.038933-1.314133c-0.503467-2.517333-5.674667-8.448-7.927466-9.693867-8.977067-4.949333-22.024533 9.7792-24.209067 14.199467-6.280533 12.689067-9.8048 38.1696-0.989867 45.943466l6.673067 5.879467c3.882667 3.421867 34.030933-18.747733 26.461867-56.328533z m171.2128 31.104L829.44 360.695467c2.816-25.728-45.4912-10.734933-59.912533-8.917334l-6.8608 2.261334c-1.629867 0.5376-0.733867 8.123733 0.2304 9.745066 8.2688 13.943467 36.3008 23.4752 54.442666 7.543467z m-100.206933 13.346133c21.981867-5.154133 29.781333-28.782933 21.828267-33.3056-15.675733-8.917333-52.974933 11.460267-47.991467 32.187733 9.301333 1.7152 17.8688 3.054933 26.1632 1.117867z m-218.88 41.7024c2.670933-4.5568 6.391467-11.246933 6.9632-14.941867 3.268267-21.026133-6.519467-36.5824-19.387733-51.643733-2.414933-2.824533-12.484267-0.964267-13.866667 2.2784l-8.917333 20.932267-1.066667 23.057066 16.9216 22.536534c4.3264 5.76 15.2832 4.718933 19.345067-2.210134z m363.835733-38.485333c5.870933-4.394667 15.9744-22.2976 10.171734-25.506134-5.051733-2.7904-17.032533-4.4288-23.697067-3.754666-17.0496 4.334933-24.3456 13.713067-36.189867 27.485866l7.9616 13.704534c16.4608-0.597333 28.8512-2.286933 41.745067-11.9296z m-251.4688 45.6448c5.137067-3.4048 12.6976-14.045867 10.24-18.466134-6.775467-12.16-15.991467-23.031467-26.88-29.2864l-22.033066-12.6464c-8.311467-4.770133-20.804267-3.694933-30.062934 1.169067-3.072 1.6128-6.3744 9.634133-5.358933 12.8256 3.191467 10.043733 29.013333 19.4816 40.4224 21.000533l12.416 10.205867c6.587733 5.418667 13.610667 10.538667 21.265067 15.189333z m-269.149866-44.637867l-8.567467 7.4752c5.7088 7.739733 9.437867 12.381867 16.264533 17.732267 4.445867 7.543467 42.018133 23.1168 43.784534 2.653866 9.250133-15.402667-26.666667-28.407467-33.348267-28.330666l-1.706667-2.8416-14.370133 0.392533-2.056533 2.926933z m-119.9872 51.882667c3.285333 0.3328 8.6272-7.3216 7.68-10.427734-1.5872-5.213867-3.652267-13.038933-5.777067-16.128-10.666667-15.530667-29.184-35.0464-48.145067-20.0704-1.348267 9.8816 0.068267 18.6368 5.7856 26.4192 10.436267 14.225067 22.1696 18.346667 40.456534 20.215467z m492.672-27.904c2.346667-15.7696-35.2768-35.618133-64.2048-15.940267-4.770133 3.242667-8.7296 14.72-4.096 17.518933 25.045333 15.112533 66.184533 12.586667 68.3008-1.578666z m-418.8672 21.589333c23.415467-2.2016 44.8512-31.104 32.5376-36.992-13.9008-6.638933-49.749333-0.759467-62.6176 12.125867l-2.013867 12.381866c8.234667 6.7072 20.181333 13.610667 32.085333 12.484267z m141.252266 39.722667c7.517867 5.265067 16.605867-0.580267 18.372267-8.576 5.512533-24.925867-0.785067-52.590933-26.3424-64.3584-22.391467 9.992533-18.065067 46.583467-4.232533 63.2576 2.312533 2.7904 8.362667 6.9888 12.194133 9.6768z m307.9424-70.2464c-3.925333-0.605867-13.3632 1.553067-15.906133 5.1712-1.698133 2.423467 4.770133 9.429333 7.552 11.554133l-11.6992 8.064c-7.816533 5.393067-10.3936 21.469867-6.144 29.5424 1.860267 3.5328 11.4688 7.3984 15.701333 6.570667 14.088533-2.7392 26.6752-16.2304 27.0592-30.4384l-3.9168-3.601067 25.224534-1.4336 8.379733-8.96c-0.571733-2.798933-4.5312-9.019733-8.132267-11.170133-10.513067-6.272-24.251733-6.9888-38.1184-5.2992z m120.669867 17.3824c-2.653867-4.0192-9.472-11.7504-13.175467-12.023467-13.380267-0.981333-37.956267-1.7664-45.252266 10.3936-1.8688 3.114667-1.962667 14.020267 0.981333 16.093867 5.265067 3.694933 15.906133 6.7328 22.724267 8.174933 15.402667 3.242667 31.633067-6.161067 34.722133-22.638933z m-341.649067-4.343467c-7.074133 0.443733-14.634667 7.287467-15.1808 15.5392-0.221867 3.362133 5.597867 7.594667 7.552 9.8304 2.628267 2.9952 7.918933 7.3984 11.997867 7.637333l18.628267 1.109334-11.383467 7.662933c-0.964267 0.648533-3.5072 4.266667-3.592533 4.6336-13.354667 7.364267-21.213867 27.460267-12.475734 31.223467 20.693333 8.9088 52.736-8.96 58.368-26.308267 1.066667-0.887467 3.370667-5.2224 3.5072-7.202133l0.443734-6.3488c0.264533-3.7376 10.026667 1.211733 15.9488-6.749867 5.947733-8.004267-15.9488-28.6464-25.386667-32.768-12.151467-5.307733-42.5728-3.3024-48.4352 1.749333z m108.1344 21.9648c2.8928 2.184533 8.6272-6.792533 8.064-10.385067-0.494933-3.140267-5.5808-10.0352-8.328533-8.174933-2.807467 1.8944-6.843733 8.004267-6.126933 10.606933 0.571733 2.090667 3.771733 5.973333 6.391466 7.953067z m-380.040533 34.269867l-0.4864 4.701866c-13.252267-0.213333-25.309867-0.418133-38.075733 2.722134L190.293333 486.229333c-2.2016 0.5376-6.417067 5.0688-7.637333 6.980267 11.383467 10.2144 28.091733 20.770133 38.784 6.237867l9.275733-12.612267c6.784 10.0608 11.9296 15.607467 21.085867 17.425067 12.996267 8.5504 28.4928 13.8496 44.910933 8.712533 1.3312-3.2256 2.449067-12.663467 0.5376-15.752533-3.208533-5.179733-11.460267-9.437867-16.9472-11.630934l-6.741333-2.696533 18.935467-5.128533c3.345067-24.900267-2.773333-29.627733-21.896534-41.9072-4.795733-3.080533-12.219733-4.078933-16.221866-1.3312-19.293867 13.243733-1.604267-2.679467-31.010134 12.6976-2.013867 1.0496-5.111467 4.676267-5.845333 6.613333-0.733867 1.937067 3.208533 7.261867 5.316267 7.808l20.2752 5.282133 8.482133 6.263467z m165.000533 19.362133c2.961067-0.904533 8.823467-7.8592 6.8864-10.299733-5.504-6.9376-13.841067-10.9568-21.239466-13.422934l-16.221867-5.4016c0.9472-3.7888 2.4832-8.797867 1.211733-10.146133-16.699733-17.6128-42.197333-12.629333-58.845866 1.757867 0.2304 10.018133 7.389867 12.9536 15.5392 13.056l17.672533 0.238933c-3.2512 11.025067 0.8704 18.6368 9.9072 24.413867 6.869333 4.394667 18.218667 8.021333 25.898667 5.666133l19.191466-5.870933z m393.403734-27.963733c3.345067-2.013867 6.912-10.222933 5.6576-13.550934-11.921067-15.0272-45.3632-8.8064-52.155734 9.181867 13.184 12.970667 32.426667 12.868267 46.4896 4.3776z m-599.3984-7.637334c-6.7584-11.221333-23.355733-14.762667-36.650667-10.692266l-20.693333 6.331733c-5.179733 1.5872-11.7504 10.0096-13.986134 15.496533 17.902933 29.277867 78.933333 1.493333 71.330134-11.136z m410.325333-6.690133c-11.938133 0.622933-27.170133 9.0112-33.9968 23.5776 5.162667 5.4528 9.352533 8.2432 15.914667 10.811733 18.0224 3.6608 50.2016-0.938667 55.953066-20.292266 1.5616-5.256533-5.998933-12.16-11.895466-13.969067l-2.176-2.8672-21.521067 0.017067-2.2784 2.722133z m261.563733 15.1552c0.8704-3.7376-4.667733-12.8-8.2688-13.960533-18.2784-5.888-42.0608 4.992-40.157866 20.155733 0.477867 3.8144 4.7872 11.7248 8.4224 13.047467 17.5104 6.408533 36.4544-4.010667 39.995733-19.242667z m-213.4272 38.587733l0.452267 10.069334c-14.455467-1.015467-27.255467 4.352-37.282133 14.020266l-13.320534 12.8512c2.0736 12.484267 13.952 20.232533 26.632534 15.658667 5.521067-1.9968 13.5936-6.135467 17.066666-10.871467l15.249067-20.770133c1.954133-2.653867 7.3984-6.485333 9.984-8.388267 36.027733-26.5216 23.005867-57.770667 16.042667-60.7744-11.118933-4.7872-41.079467 26.112-34.816 48.196267zM335.104 486.493867c-4.9152-11.648-11.0848-16.913067-18.884267-20.701867l-18.338133 1.211733c-2.816 13.243733 27.716267 27.451733 37.2224 19.498667z m111.266133 9.9072c5.316267 7.517867 16.213333 16.273067 26.7264 19.293866l20.957867 6.024534 6.0416-1.339734-2.56 6.801067c-4.522667 5.896533-8.942933 11.810133-13.806933 19.396267-4.6336 7.210667-5.717333 30.242133-2.466134 34.517333 1.288533 1.698133 5.239467 2.0224 8.763734 2.56l11.7248 1.792c2.568533 0.392533 8.209067 0.708267 9.710933-1.117867l10.3936-12.689066c3.165867-3.8656 12.3904-7.799467 10.760533-28.757334l-1.220266-15.6416c-0.290133-3.703467-2.781867-9.463467-4.667734-12.629333l-10.308266 1.4592 2.798933-8.379733c-13.9008-20.224-7.082667-3.413333-15.616-18.2272l-3.464533-6.016c-6.5024-10.939733-42.376533-16.042667-54.869334 3.208533-1.536 2.363733-0.1792 7.944533 1.1008 9.7536z m341.572267 4.7104c2.5344-1.698133 3.84-9.941333 2.466133-12.672-3.5072-6.9888-23.68-14.267733-30.1824-14.2336-16.341333 0.0768-28.680533 9.693867-37.828266 21.922133 20.667733 13.576533 45.0304 18.756267 65.536 4.992z m-212.7104-4.7616c-4.309333-1.476267-12.552533 7.150933-13.4912 11.665066-1.066667 5.128533 4.616533 10.2144 10.760533 14.1824 18.210133 11.767467 35.703467 15.0016 55.953067 2.141867 2.9696-1.885867 3.413333-10.922667 1.066667-13.2608-20.846933-20.770133-26.376533-22.340267-54.289067-14.728533z m-194.372267 29.9264c4.6336-3.899733 5.597867-12.586667 1.262934-16.546134-15.5648-14.225067-18.107733-0.3072-38.766934-16.059733-7.125333 1.629867-16.802133 7.185067-21.504 13.806933-6.698667 9.429333-4.027733 26.350933 7.978667 31.138134 9.838933 3.925333 23.492267 1.373867 33.954133-1.902934 6.033067-1.885867 11.050667-5.358933 17.083734-10.436266z m464.196267 3.968l13.568-14.1568c1.792-1.8688 1.8944-9.5744 0.128-11.502934-1.416533-1.544533-5.4016-4.232533-7.6032-4.727466-19.490133-4.386133-29.329067 0.7168-43.2128 13.9776 4.608 10.5472 26.248533 14.574933 37.128533 16.401066z m-392.405333-4.002134c2.235733-1.2032 5.154133-9.301333 3.677866-11.3408-9.591467-13.252267-19.447467-11.5712-37.563733-7.637333-7.492267 1.629867-12.757333 9.728-16.375467 17.749333 8.840533 7.773867 17.595733 11.477333 28.663467 12.8256l21.6064-11.5968z m408.618666 36.3264c23.2192 0.110933 48.605867-40.925867 33.416534-50.7904-12.714667-8.251733-40.3712 11.136-45.090134 32.981334-1.595733 7.3728 2.551467 17.7664 11.6736 17.809066z m-291.805866-33.4336l-9.7536-14.378666c-0.955733-1.408-4.7872-3.822933-5.905067-2.978134-11.648 8.772267-14.2336 21.768533-7.714133 24.516267 6.186667 2.602667 18.653867 0.093867 23.3728-7.159467z m-441.5232 24.448c5.341867-1.536 11.221333-8.738133 11.306666-13.073066-10.845867-20.181333-50.8928-33.928533-64.955733-14.199467 9.5744 22.434133 31.2064 33.723733 53.640533 27.272533z m578.9952 2.679467c15.872 3.541333 33.143467-0.955733 41.2416-14.344533 2.116267-3.498667 0.750933-12.4672-1.7664-15.112534-10.8288-11.4176-49.416533-4.334933-61.866667 10.197334 1.536 12.757333 10.513067 16.605867 22.391467 19.259733z m89.693866-1.979733c7.304533 2.4576 44.168533 2.628267 37.546667-16.4864-21.2224-13.508267-43.434667-16.093867-62.199467 1.399466 8.7808 6.920533 15.249067 11.9296 24.6528 15.086934zM256.366933 586.154667c7.773867 0.273067 17.604267-5.0688 22.9888-10.094934l13.499734-12.5952-2.0736 13.960534 7.005866 1.083733 13.4912 2.082133 7.8848-3.447466c0.768-0.3328 4.386133-0.546133 4.471467 0.341333l0.2816 3.089067c-1.041067 1.348267-4.497067 8.610133-2.858667 10.555733 1.851733 2.2016 5.290667 5.504 7.6032 7.594667-2.926933 4.778667 22.510933 2.5856 25.250134 2.2784l13.201066-1.4848 0.187734 10.461866c0.1024 5.6832 3.694933 13.021867 8.456533 15.547734 4.514133 2.397867 16.469333 0.9984 18.4576-3.575467l5.265067-12.1088c1.527467-3.515733 0.494933-11.042133-0.554667-17.0496l19.4048-1.390933c0.9472-0.068267 4.650667-2.218667 5.376-2.8416 13.2096-3.114667 35.899733-23.6032 27.0336-37.572267-9.608533-15.138133-51.549867 7.850667-54.920533 24.823467l-3.8656 7.970133c0.110933 0.2048-1.6896 2.440533-1.877334 1.544533l-1.425066-6.715733c-0.8704-4.113067-1.792-8.772267-3.729067-10.3168-7.5776-6.0416-37.512533-2.030933-40.533333-0.187733l-4.804267-1.928534c1.143467-4.104533 3.259733-14.404267 0.554667-16.494933-23.7568-8.1152-21.358933-11.451733-40.021334 3.285333l-4.087466-9.6512c-0.904533-2.141867-6.2976-3.874133-8.686934-3.7632-18.3296 0.8448-42.197333 9.6256-52.821333 29.6448-2.0992 3.950933 3.925333 14.762667 8.260267 15.505067 4.957867 0.853333 9.941333 1.3312 13.5936 1.4592z m319.061334 15.061333l8.661333-14.276267c2.491733-13.090133 1.7152-23.569067-8.337067-32.6144-7.381333-6.647467-15.5392-9.659733-26.939733-12.663466-16.256 17.006933-18.013867 37.563733-2.781867 55.808 9.591467 3.328 17.2032 3.908267 29.3888 3.754666z m209.3824-23.108267c4.932267-4.565333 4.1216-14.0544-0.785067-18.6112-1.7408-1.6128-6.997333-6.4-9.233067-6.485333l-23.364266-0.8704-20.002134 13.696c-0.4096 9.0368 2.8416 17.160533 11.357867 19.9168 10.1888 3.293867 21.137067 3.524267 31.086933 2.474667l10.939734-10.120534z m-110.148267 18.304c10.257067-3.933867 37.905067-15.351467 30.3616-30.6688-5.376-10.922667-36.010667-8.558933-39.850667-7.074133l-19.9936 7.7312c-6.766933 2.6112-15.035733 11.895467-13.909333 19.362133s25.378133 17.570133 43.392 10.658134z m-472.9344 3.882667c12.433067 3.959467 25.668267 0.247467 31.4624-10.692267l-15.1552-23.005866c-4.6336-3.524267-24.840533 5.410133-27.409067 16.6912-2.193067 9.6256 3.592533 14.6176 11.1104 17.006933z m645.777067 11.144533c2.432-1.826133 5.8112-9.506133 4.1472-12.407466-8.021333-14.020267-35.438933-24.004267-51.4048-20.3264l-4.4032 3.985066c-5.981867 5.418667 34.935467 41.301333 51.6608 28.757334z m-218.2144 7.995734c0.290133-18.039467-9.582933-38.920533-18.986667-35.729067-8.157867 2.773333-30.993067 70.877867-7.4496 76.859733 23.697067 6.016 26.205867-26.6496 26.436267-41.1392z m-337.553067-0.128c11.195733-5.956267 17.9968-14.318933 16.042667-28.219734-19.310933-14.208-75.656533 8.183467-65.2544 25.233067 7.620267 12.501333 34.338133 10.897067 49.211733 2.978133z m212.5568-20.8128c-14.711467-11.921067-29.7472-12.416-48.836267-8.593067-11.52 2.304-24.106667 10.274133-26.88 22.2464-1.169067 5.0688 9.258667 13.2864 14.421334 13.9008 53.393067 6.3488 68.565333-21.666133 61.294933-27.554133z m255.351467 21.828266c-5.828267 9.403733-8.610133 22.920533-5.376 35.259734 3.874133 14.813867 14.6688 27.3152 30.592 27.6224 5.674667-3.584 10.734933-16.068267 8.593066-22.3488l-5.341866-15.6672 2.926933-11.153067 4.411733-1.6128c-3.1488 18.3552 19.720533 40.925867 38.843734 37.802667 1.954133-26.871467-0.0256-43.613867-23.236267-57.9072-2.013867-1.245867-6.033067-2.466133-8.413867-3.1488l-15.240533-21.188267c-6.109867 2.628267-14.216533 6.528-18.2784 9.787733-2.176 1.749333-0.938667 9.7536-0.3584 12.4672l1.092267 5.128534c0.853333 4.010667-6.6304-0.8448-10.222934 4.957866z m95.9744 66.653867c22.272-1.7408 17.518933-27.264 15.342933-43.246933 17.032533 12.9536 38.254933-3.165867 47.7952-19.0208 3.370667-5.597867-1.792-33.245867-12.578133-28.740267l-31.829334 13.303467c-3.490133 1.4592-5.538133 11.093333-8.567466 13.166933-10.112 6.9376-20.8896 11.8016-22.459734 29.969067l-2.082133 24.132266c-0.4352 5.0176 7.4752 10.973867 14.378667 10.427734z m-156.9024-61.7728c2.798933 4.3264 8.430933 10.205867 14.446933 10.103467 9.122133-0.1536 21.060267-4.053333 25.173333-11.281067 2.2528-3.959467 1.826133-15.112533 0.392534-19.626667-2.7136-8.5504-35.362133-11.323733-45.149867 12.603734-13.713067-4.676267-28.501333-5.341867-39.6544 5.4272-3.6608 3.5328-16.605867 23.227733-3.464533 33.629866 4.4032 3.4816 6.7328 6.2208 10.965333 11.093334 2.978133 3.438933 12.032-0.145067 15.829333-4.369067 15.496533-17.237333 21.1456-17.501867 21.461334-37.5808z m-346.1376-12.1088c-17.416533-7.057067-31.086933 7.8592-40.490667 20.8896-8.814933 12.2112-13.201067 28.919467-7.338667 42.5472 26.752 6.5792 62.6432-41.6256 47.829334-63.4368z m192.5888 16.7424c-1.7152-4.573867-5.674667-12.509867-10.0608-14.0288-13.841067-4.804267-32 1.143467-41.762134 14.754133-0.494933 6.971733 1.083733 13.1072 4.676267 19.4048 24.029867 4.189867 31.342933-2.756267 47.146667-20.130133z m-149.870934 0.110933c-8.32 4.608-33.544533 33.6384-17.006933 55.0656 2.705067 3.498667 10.069333 8.302933 14.711467 6.698667 22.6816-7.8592 28.151467-26.385067 29.5936-48.119467 0.136533-1.9968-1.3824-6.673067-1.365334-8.576 0.042667-4.036267-2.884267-11.895467-7.381333-12.7232-8.183467-1.5104-16.093867 2.1504-18.56 7.662934z m150.673067 44.16c23.287467-3.438933 40.234667-15.351467 42.0352-39.552 1.3312-17.988267-43.093333-1.595733-50.321067 14.651734-7.936 7.04-9.7536 17.749333-3.362133 26.624l11.648-1.7152z m-82.653867 3.080534c5.8112-16.3072-0.034133-46.344533-13.917866-42.205867-8.3456 2.4832-15.232 11.323733-17.672534 18.5856-5.111467 15.223467-17.911467 47.829333-3.080533 57.787733 7.560533 5.077333 29.192533-18.7904 34.670933-34.167466z m-196.215466-16.913067c4.616533-4.599467 9.608533-15.197867 1.706666-20.010667-14.139733-8.6016-52.317867 16-61.499733 36.164267 5.367467 4.539733 10.760533 8.192 14.634667 9.728 24.797867-13.115733 24.354133-5.1456 45.166933-25.8816z m226.542933 64.110933l8.584533-13.969066c8.362667-13.5936 15.786667-40.874667-2.039466-49.578667-5.3504-2.6112-17.032533 3.933867-20.4288 9.437867-12.458667 20.1984-11.374933 33.774933-2.816 55.04 0.955733 2.372267 7.2192 5.9904 9.565866 4.992 1.8688-0.802133 5.8624-3.857067 7.1424-5.930667z m158.464-19.959466c3.191467 3.4304 11.118933 9.224533 15.658667 10.794666l18.773333 6.510934c4.8384 1.672533 12.868267-1.7408 14.1824-7.074134 2.986667-12.151467-2.875733-20.8384-11.4688-27.52l-14.148267-10.999466c0.887467 0.196267-4.096-4.4288-5.4016-4.155734l-13.525333 2.773334c-2.065067-4.4288-6.656-9.813333-11.144533-11.349334-11.758933 6.3488-48.9728 31.095467-37.341867 46.754134 5.4528 7.338667 17.604267 10.555733 24.840533 2.696533l13.943467-15.146667c2.542933 3.063467 4.471467 5.469867 5.632 6.715734z m-449.467733-20.9664c-6.7328-14.318933-32.708267-19.217067-47.1296-13.346134-11.067733 4.5056-24.789333 28.194133-19.771734 29.431467 17.058133 4.206933 58.5728 1.6384 66.901334-16.085333z m388.334933 5.2736c0.9472-3.84-3.490133-11.8016-6.391467-14.976-19.985067 2.517333-32.989867 15.778133-38.929066 34.653866-2.986667 9.4976-1.006933 24.738133 11.272533 26.103467 21.2992 2.3808 29.969067-29.175467 34.048-45.781333z m157.226667 21.563733l20.027733-9.966933c9.9072-4.932267-7.970133-20.078933-16.682667-21.026134-10.478933-1.143467-40.285867-4.855467-44.842666 7.688534-4.488533 12.3648 26.965333 23.7824 41.489066 23.304533z m36.804266 34.645333l20.667734-18.065066 0.955733-10.965334 12.202667 3.575467c8.1152-6.075733 29.252267-25.301333 16.955733-34.551467-7.031467-5.290667-20.6848-5.998933-28.433067-2.013866-9.0624 4.667733-15.266133 14.6432-19.882666 21.981866l-18.7392 5.614934c-12.381867 3.712-19.072 10.615467-18.833067 24.6528 0.162133 9.326933 26.3424 17.442133 35.114667 9.770666z m-458.368-52.488533c-7.953067-7.927467-31.709867-3.131733-43.9296 1.937067-6.5536 2.7136-16.836267 15.863467-15.803733 25.924266 0.3584 3.490133 4.7104 9.207467 8.917333 11.0848 4.693333 2.090667 13.892267 0.64 19.976534-0.477866 22.5024-4.1216 41.454933-27.886933 30.839466-38.468267z m50.065067 31.1808c3.182933-0.708267 6.203733-7.773867 5.282133-10.632533l-5.8112-18.116267c-4.343467-13.550933-26.043733-2.926933-34.3808 1.988267-4.462933 2.628267-7.406933 13.201067-4.4544 16.418133 10.205867 11.118933 22.6304 14.045867 39.364267 10.3424z m-114.602667-25.437867c0.887467-7.04-18.9696-17.646933-51.319466 16.8192-4.1728 4.445867-8.490667 15.965867-3.498667 19.8656 13.934933 10.888533 51.84-13.073067 54.818133-36.6848z m410.478934 55.048534l12.535466 3.165866c8.942933 2.261333 17.954133 1.28 28.040534-1.399466 9.6256-20.334933-37.4016-35.950933-48.9216-27.485867-11.008 1.501867-13.8496-8.6016-26.274134-4.3776 3.191467 13.730133 24.277333 27.460267 34.619734 30.097067z m-26.8032 6.690133l-2.5088-13.9008c-11.682133-14.532267-28.7488-22.2464-47.223467-21.026133-8.8576 7.082667-7.850667 17.783467-0.366933 25.250133 8.106667 8.081067 18.807467 14.165333 30.293333 12.5184l19.805867-2.8416z m-98.013867 34.935467c14.062933-13.124267 22.954667-36.3776 14.685867-40.8064-2.321067-1.245867-5.7344-1.988267-11.818667-3.3024l-4.053333-4.283734c0.187733-7.466667-1.2544-12.936533-4.2752-15.8464-8.8832-8.558933-26.837333-1.5104-37.845334 3.5584-7.569067 3.490133-19.652267 20.0192-11.921066 30.5152 3.976533 5.4016 10.5216 7.210667 19.0464 6.6304l4.437333 3.3536c-6.2976 10.990933-10.487467 18.0992-11.511467 28.245334l-1.143466 11.298133c16.1024 2.0992 33.2288-8.925867 44.407466-19.362133zM390.007467 760.661333c7.133867-1.860267 17.757867-9.975467 18.116266-17.664 1.083733-23.227733-49.928533-8.661333-62.267733-5.393066-6.365867 1.681067-12.928 9.122133-17.664 15.044266 12.868267 22.8608 41.019733 13.422933 61.815467 8.0128z m87.176533-16.170666c2.013867-3.387733-2.363733-13.090133-6.2976-13.474134-18.048-1.7664-48.503467-3.780267-56.763733 16.878934-1.2544 3.131733-0.827733 11.562667 1.390933 13.789866 11.793067 11.8016 45.397333 10.180267 61.661867-17.194666z m-260.309333 33.416533c19.362133 14.3616 45.090133 0.9728 50.577066-19.720533 2.048-7.739733-5.034667-16.520533-13.329066-15.086934-16.938667 2.935467-43.9552 13.883733-37.248 34.807467z m95.991466-17.4592c-1.390933-5.504-9.3696-15.709867-14.651733-17.501867-2.3552-0.802133-9.4464 2.9696-10.641067 5.205334-8.072533 15.095467-9.1136 38.766933 7.5008 50.0736 16.2304-8.482133 22.212267-20.3008 17.792-37.777067z m381.934934 18.116267l-13.3888-12.0576c-2.372267-2.133333-11.264-5.137067-14.344534-3.746134l-17.527466 7.901867c1.1264 13.994667 9.582933 22.144 23.0912 21.5296 9.591467-0.4352 16.648533-4.8384 22.1696-13.636267z m-51.822934 2.2528c-1.655467-7.031467-6.6816-11.733333-14.045866-11.741867-10.5216-0.008533-20.061867 3.362133-26.5984 11.665067-3.447467 4.3776-5.085867 13.371733-4.0448 18.5856 0.887467 4.411733 7.278933 12.3648 12.322133 12.245333 12.014933-0.2816 36.1984-14.446933 32.366933-30.754133z m-288.9472-4.9152c-4.2496-2.193067-12.544-4.881067-16.827733-4.352-2.449067 0.3072-5.76 7.517867-6.459733 10.103466l-7.424 27.6992c-1.041067 3.8912 5.777067 10.478933 9.309866 10.461867 17.911467-0.085333 26.001067-23.662933 21.393067-43.912533z m47.505067 37.034666c15.0784-5.282133 24.0128-20.1728 17.979733-35.8912-16.221867-5.623467-41.173333 7.3728-50.2528 21.691734 3.84 15.607467 19.447467 18.696533 32.273067 14.199466z m47.453867 13.952l5.930666 3.797334c8.6016 5.512533 0 9.258667 8.644267 14.301866 1.749333 1.015467 6.2464-0.853333 9.514667-2.679466 2.321067-1.297067 1.698133-7.108267 0.2048-11.6736l7.842133-5.239467c1.186133-0.7936 3.037867-3.6608 4.309333-5.981867 5.888-5.802667 7.4496-27.8528 2.8928-34.730666-5.435733-8.200533-32.2816-4.522667-45.917866 12.859733-3.933867 5.0176-3.601067 16.759467-2.005334 22.468267l8.576 6.877866z m104.490666 19.584l-0.7936-11.008 17.143467 6.058667c17.7152-1.792 31.172267-7.022933 32.349867-27.170133l-17.134934-15.453867-29.559466 0.802133-26.487467 18.295467c-9.847467 6.801067-15.317333 29.841067-11.895467 44.834133 1.408 6.1696 10.734933 13.627733 16.699734 15.4624 14.148267 4.360533 20.224-24.072533 19.669333-31.812266z m172.893867-19.601066c-1.015467-1.792-4.8384-4.992-6.843733-5.367467l-13.7472-2.5856c-12.706133-2.389333-35.268267-2.4832-46.1568 6.5536 11.5968 16.785067 23.799467 19.182933 44.074666 20.6336 13.994667 0.9984 26.513067-12.4672 22.673067-19.242667z" fill="#020102" /><path d="M715.8016 198.954667c-3.370667 1.851733-5.7856 3.524267-11.8528 7.569066l7.210667 2.952534c-9.181867 6.673067-20.957867 12.987733-28.817067 21.589333l-15.317333 16.768c0.349867-1.9712 2.525867-7.2192 4.283733-9.096533l8.712533-9.284267-14.506666 7.953067-0.085334-31.1296c-0.017067-4.906667 6.9632-12.9536 9.847467-18.6624-7.9872-7.739733-16.904533 11.127467-29.508267 5.1456l-9.5488-4.5312-2.304-2.5856 6.638934-0.699734 3.8144-16.418133 2.1504-9.0624-8.285867 10.5472c-3.618133 4.616533-5.956267 10.282667-5.853867 15.6672-1.348267-0.785067-3.2256-3.054933-3.7632-4.599467l-6.331733-18.193066c-0.384-1.1008-1.8944-4.1728-2.269867-4.992-0.571733-1.237333-5.333333 2.5856-5.546666 4.394666-2.935467 24.4224-6.0672 46.446933-31.7696 56.5248-16.2048 6.357333-18.184533-23.005867-17.8432-30.506666 0.5376-11.861333 11.648-18.2528 12.049066-23.406934l0.964267-12.475733 2.432 2.4064 0.3328 13.021867 16.512-16.964267c5.794133-5.956267 17.9968-10.794667 25.557333-8.2944l14.651734 4.8384-9.864534-21.674667c-3.5072-7.722667-4.923733-19.080533-2.090666-27.076266l5.034666-14.208c1.536-4.3264 10.9312-12.253867 15.3088-10.3168 20.608 9.147733 20.224 50.312533 11.665067 71.7568 10.8032 2.6624 5.930667-8.8832 18.926933-29.687467 1.544533-2.474667 9.284267-6.818133 12.014934-6.144 5.077333 1.245867 11.264 9.335467 14.276266 14.702933 3.2-14.336 12.484267-21.930667 25.984-24.302933 9.9072-1.7408 27.101867-2.56 31.300267 8.209067 0.955733 2.4576-0.452267 9.233067-2.167467 11.682133-12.637867 18.133333-33.757867 16.7168-48.196266 18.338133l0.776533 31.965867 0.512 13.3888c0.145067 3.8144 3.242667 11.3152 4.9408 14.890667z" fill="#2A2B2D" /><path d="M218.496 801.800533c-0.554667-0.546133-2.798933-3.8144-3.2-5.128533l-1.954133-6.382933-10.436267 13.610666c-1.467733 1.911467-3.0208 7.6032-1.9456 9.838934 11.613867 24.0384-3.370667 57.565867-26.871467 59.511466-5.1968 0.426667-12.032-8.840533-13.312-13.858133-3.9936-15.6416 0.315733-29.832533 7.953067-42.973867l-8.533333-25.847466-1.8688 1.629866c-2.542933 8.098133-5.7344 16.708267-10.6752 23.022934-5.8112 7.415467-17.220267 7.261867-22.272-0.418134-23.552-35.7888 6.7584-59.221333-2.5856-79.863466-4.9152 12.4672-8.029867 21.6576-14.498134 31.172266-4.445867 6.545067-16.802133 6.203733-21.981866 1.476267-17.1776-15.650133-4.770133-47.991467 5.8368-63.982933l3.8144-5.76c0.5632-0.8448-3.370667-2.756267-3.874134-3.643734l-4.462933-7.953066h3.012267l9.6512 14.0288c2.594133 3.771733 9.796267 8.4736 15.479466 12.7744 9.591467 7.253333 10.2144-9.105067 40.021334-5.162667 24.311467 3.208533 34.730667 25.924267 26.820266 32.9216-4.471467 3.959467-16.273067 6.7584-22.698666 7.031467l-13.380267 0.580266c5.614933 3.882667 14.848 10.504533 15.138133 16.093867l1.0496 19.9936 3.549867-11.989333 16.093867-25.1136c2.082133-3.2512 11.741867-6.178133 14.600533-3.908267 3.089067 2.4576 9.7792 8.746667 10.257067 12.168533 1.732267 12.3136-1.664 28.706133 0.9216 29.329067l8.9856 2.1504 1.365333 14.660267z" fill="#353536" /><path d="M924.305067 324.5568c-3.131733 1.288533-8.004267 4.241067-12.842667 6.638933l-0.093867 10.4192 26.026667-1.9456c5.393067-0.401067 16.213333 4.676267 17.1008 10.624 1.066667 7.168-1.792 14.148267-5.870933 20.9664-1.314133 1.3312 1.416533 6.144 2.619733 3.6096l20.7104-15.368533c2.525867-1.877333 10.9056-2.176 13.303467-0.426667 14.2848 10.453333 11.485867 45.380267-17.1264 61.6704-2.432 1.3824-8.704-0.810667-10.8544-2.653866l-4.0704-3.490134c-0.8448-0.7168-1.194667 4.292267-0.452267 5.111467 2.210133 2.423467 7.2704 7.611733 8.644267 10.564267l5.469866 11.7504 21.649067 2.679466c11.776 1.4592 31.197867 12.168533 35.114667 26.496 2.338133 8.558933-7.0912 16.238933-14.805334 17.698134-23.7056 4.471467-38.0928-4.061867-45.1072-27.810134l-16.136533 14.907734-0.119467 7.722666-2.4064-1.7664-0.341333-7.099733c-0.059733-1.237333-4.010667-1.544533-5.495467-1.527467l-23.790933 0.2816c-9.685333 0.119467-11.400533-18.389333-8.123733-22.510933 2.5088-3.157333 7.842133-8.849067 10.8288-11.0848l22.084266-16.503467-25.130666 3.0464c-6.203733 0.750933-13.038933-10.308267-16.3584-15.197866 0.938667-1.194667 2.295467-3.703467 2.7392-5.1712l2.193066-7.253334c0.554667-1.8432 0.4352-5.4528-0.162133-7.176533l0.759467-3.063467c-16.008533-6.9376-15.138133-35.6096-14.532267-35.8144l6.7328-2.295466c3.6096-1.237333 11.6992-6.442667 11.784533-10.180267l0.290134-13.457067c2.2016-0.093867 6.818133-0.366933 8.951466-0.8448l6.8352-1.544533z" fill="#2B2D2F" /><path d="M108.194133 368.213333c0.162133 1.0752 1.885867 5.700267 1.314134 7.338667l-3.6864 10.5216c-8.448 2.5856-16.750933 3.618133-27.554134 4.778667l21.486934 11.076266c1.425067 0.733867 4.3264 1.646933 5.691733 1.834667 0.597333 0.0768 1.578667-0.017067 2.312533-0.0768l4.821334 4.3008c-4.957867 3.0208-6.050133 13.0304-1.834667 18.286933l5.111467 6.3744c-3.029333-0.8704-9.070933-4.5312-9.531734-7.637333l-2.372266-15.829333c-1.7664-1.083733-9.181867 2.389333-10.555734 5.12-4.360533 8.661333 2.901333 9.019733 10.6752 20.462933 1.826133 2.696533-1.1264 10.257067-3.84 11.758933-2.013867 1.109333-5.000533 2.2784-4.539733 3.2512 0.324267 0.682667 1.416533 2.3296 1.698133 2.7392-3.6352 0.017067-26.2656 2.542933-28.526933 9.642667l3.3024 8.695467-6.775467-7.1168c-1.015467 0.290133-4.155733 9.668267-2.517333 13.192533 4.309333 9.309867 26.2912 20.48 16.708267 21.290667-19.0208 1.604267-1.3824-4.974933-30.634667-5.2224 0.110933 15.701333 0.418133 26.555733 2.082133 38.766933l-22.664533 0.290133c-11.323733 0.145067-23.202133-4.9664-27.904-15.061333-1.954133-4.189867 2.781867-13.329067 6.741333-15.982933 24.448-16.4096 41.506133-5.0688 49.288534-13.166934 1.28-1.3312 2.7392-6.818133 1.186133-7.825066-12.544-8.064-17.339733-7.842133-19.0976-12.117334l-0.878933-26.990933-0.452267-9.1904c4.138667-0.401067 8.055467-1.706667 14.967467-4.992-2.491733-2.184533-4.360533-3.8912-5.674667-4.8128-6.135467-4.2752-16.426667-16.750933-8.200533-26.939733 4.1216-5.102933 13.226667-9.386667 20.795733-12.373334-6.203733-6.954667-12.996267-14.941867-16.4096-24.584533-2.116267-5.981867 3.447467-12.228267 8.439467-13.243733 39.8848-8.123733 53.1968 21.410133 57.0368 23.441066z" fill="#303032" /><path d="M564.565333 891.195733l2.1504 3.0464c2.474667 5.9904 5.2224 11.511467 9.659734 17.271467 2.500267 3.242667 12.296533-0.3584 14.557866-3.473067l4.7104-6.485333c0.136533 3.857067-2.397867 9.762133-5.384533 11.4688l-6.656 3.797333-12.322133-5.393066-4.0192 3.370666c-7.543467 17.954133-39.108267 12.7232-53.085867 6.1184-9.216-4.352-14.301867-15.3856-18.5344-24.704-6.5536 10.752-6.929067 18.2272-18.9952 25.591467-6.254933 3.805867-14.7456 3.421867-19.259733-2.244267-16.196267-20.352-1.271467-40.644267-6.894934-40.456533l-6.126933 0.2048c-4.096 0.136533 1.5872 32.4864-24.405333 44.279467-9.147733 4.1472-19.072-0.7424-25.472-8.081067-6.818133-7.816533-10.0096-18.781867-4.1728-26.632533 1.757867-2.363733 3.8912-5.8624 5.1456-8.285867l18.901333-11.485867c18.688-11.3664 21.290667-18.218667 19.242667-36.650666 5.4528 5.905067 1.681067 17.3056 3.908266 25.216l4.718934 16.785066c0.64 0.1536 5.632 1.314133 3.857066 0.896l7.483734-13.201066c1.015467-1.792 5.410133-5.0688 7.005866-6.144l2.705067 10.88c20.002133-13.277867 5.1456-9.437867 25.1648-28.970667 2.304-2.2528 10.4192-0.861867 11.707733 2.030933 4.573867 10.248533 8.8064 23.082667 4.164267 33.1264l-7.953067 17.220267c-0.3328 0.7168 2.389333 3.822933 2.9952 3.319467l3.5584-2.9952c12.7232-10.692267 48.068267-1.297067 62.967467 14.062933l-1.314133-13.448533z" fill="#212223" /><path d="M202.888533 221.661867c1.493333 1.083733 6.715733 2.133333 7.936 3.490133 6.101333 6.749867 16.162133 19.438933 22.254934 27.4432l-16.1024-0.341333-12.910934-5.4016 1.4336 6.229333-25.531733-1.1776c-3.575467-0.162133-6.929067-0.802133-13.44-1.518933l3.0976 12.3136 5.1968 4.616533 10.248533-7.202133c0.725333-0.0256 1.937067-0.093867 2.568534-0.093867l7.517866 0.017067c0.7168 0 1.911467-0.213333 2.568534-0.0768l9.403733 8.6016c-6.912 0.8704-6.229333 16.221867-19.234133 35.5072L180.906667 314.427733l8.5504 6.340267c-4.130133-0.7936-12.450133-1.322667-15.863467 0.682667l-14.225067 8.3712-2.176-6.203734-3.106133-8.840533c25.335467 11.537067 41.173333-28.842667 39.7568-32.759467l-4.898133-13.5424c-4.9664-0.674133-14.139733-1.024-18.005334 0.674134l-13.815466 6.075733c-0.938667-18.013867-30.5152 3.771733-37.026134 9.693867l12.023467 3.464533 4.369067 3.6096c-4.386133-0.571733-10.248533-1.800533-15.035734-3.464533l-20.309333-7.0656c-4.565333-1.5872-11.374933-11.383467-9.352533-16.580267 8.866133-22.784 38.894933-21.674667 59.5968-22.9632l-8.311467-11.170133c-1.501867-2.013867-2.2016-9.514667-1.2544-11.904 4.676267-11.784533 43.357867-10.0352 61.090133 2.816z" fill="#252526" /><path d="M777.412267 832.1536l-3.857067 9.028267 3.985067 12.0064-6.331734-7.4752c-1.143467-1.348267-1.604267-6.9888-0.298666-8.2432l5.76-5.512534-8.712534-2.961066c-0.503467 21.76-0.128 34.7904-16.3328 44.305066l-5.768533-1.681066c-2.3552-0.6912-5.742933-4.881067-6.724267-7.313067l-2.602666-6.459733 2.6368-31.163734c0.401067-4.770133-2.0992-10.683733-4.548267-15.197866l-5.0688-9.3696-7.543467 2.7904c-6.382933 2.363733-14.250667-0.162133-16.503466-7.953067-1.408-4.881067-3.5328-16.349867-1.2032-20.642133 7.517867-13.883733 22.417067-23.978667 37.162666-28.5696 4.2752 1.476267 9.9584 8.721067 10.2144 12.9792l1.1008 17.757866c2.798933-2.807467 4.241067-4.514133 5.572267-5.1968 1.621333-0.836267 23.253333 9.361067 22.365867 33.339734l-0.648534 17.6384-7.022933 1.194666 4.369067 6.6816z" fill="#3C3C3F" /><path d="M941.841067 665.898667l7.5776 5.597866c2.107733 1.553067 8.1152 0.128 10.615466-0.785066l-5.589333 4.096c12.433067 3.012267 23.0144 5.486933 32.1536 13.508266 3.720533 3.259733 0.9216 16.034133-3.165867 18.688-21.469867 13.952-50.286933 20.5056-67.157333-2.730666-2.628267 1.314133-7.7056 3.968-9.233067 5.777066l-3.5584 4.206934 1.032534-9.710934-13.346134-5.282133c-3.2768-1.297067-8.0384-6.656-11.067733-10.5728 2.5344-12.842667 9.856-23.483733 20.215467-30.830933l24.823466-17.629867c-0.8704-3.720533-1.570133-6.280533-1.467733-8.029867 5.154133 3.703467 12.194133 19.968 9.506133 28.868267l-8.2432 27.2384c1.245867-0.861867 5.998933-4.932267 7.867734-5.777067l16.605866-7.5008c-4.3008-3.003733-6.997333-5.888-7.560533-9.130666z" fill="#29292A" /><path d="M903.483733 714.257067c-5.742933 0.512 1.595733 11.076267-6.4768 19.1232l-16.119466 16.059733c-3.831467 1.297067-7.125333 2.2784-8.686934 3.490133l-9.787733 7.6288-7.893333 5.410134c-0.597333 0.119467-1.757867 0.128-2.346667 0.110933-4.846933-0.196267-12.509867-0.546133-17.245867 0.298667l-17.3568 3.106133c1.851733 1.92 4.736 4.642133 6.766934 6.314667l4.736 5.5808c0.366933 20.113067 0.375467 18.602667-10.513067 30.5664l8.106667-17.237334-5.137067 2.013867c-11.9808 12.8512-26.2912-5.9648-28.535467-7.970133 6.135467 2.756267 16.128-8.576 17.211734-11.630934 2.107733-5.9904 0.9984-16.512-0.110934-25.3184l3.712-1.937066c4.360533 0.0256 10.376533-0.1792 13.1328-1.160534l23.048534-8.192c0.452267-4.693333-3.746133-14.754133-7.697067-15.018666l-10.9056-0.708267c0.827733-1.1008 5.154133-3.234133 7.133867-3.140267l7.099733 0.3328c1.604267 0.0768 0.5376-2.3552-0.196267-6.570666 0.4864-3.4048 7.637333-10.197333 11.972267-10.333867l28.253867-0.9216c2.030933-0.068267 4.770133 0.392533 4.923733-0.657067l0.605867-4.215466 13.346133 5.282133-1.032533 9.710933z" fill="#101113" /><path d="M577.8688 152.439467l-0.964267 12.475733c-0.401067 5.154133-11.511467 11.5456-12.049066 23.406933-16.2048-6.016-10.5216-36.360533-24.456534-29.277866-3.259733 1.655467-11.272533 5.5808-13.533866 3.5072-3.4304-3.157333-4.7616-10.171733-6.109867-15.266134-1.194667-4.5312-9.207467-32.8192-13.858133-30.0032l-4.369067 2.653867c-0.170667 0.008533-3.2512 0.315733-3.387733-0.477867-0.213333-1.186133-0.571733-3.5328-0.5632-4.736 8.1408 3.5584-1.314133-20.8384 20.650666-35.7376 2.816-1.911467 11.810133-0.827733 13.5424 1.8432 1.7408 2.688 3.4816 8.081067 4.855467 12.928 14.762667 8.516267 25.608533 23.773867 14.446933 45.380267l10.862934 0.3584c7.227733 0.238933 15.530667 5.410133 14.941866 12.945067z" fill="#292B2D" /><path d="M385.4336 855.978667l-3.131733 12.910933 4.215466 8.686933-11.8528-4.488533c-2.909867-2.670933-5.137067-4.462933-9.591466-7.6288l6.4256 19.3792c6.741333 20.334933 3.063467 47.573333-10.948267 48.6656-17.058133 1.3312-30.344533-30.711467-27.8016-53.1968 1.2032-10.615467 6.365867-17.365333 16.2048-22.9888l-6.485333-10.112-6.289067 3.182933c0.384-0.836267-0.1536-3.1744 0.674133-3.5584l5.853867-2.696533c-1.2544-2.875733-4.138667-12.4672-2.414933-16.3328 3.259733-7.304533 14.993067-14.583467 24.4992-15.035733 8.439467-0.401067 11.4176 24.772267 8.721066 32.887466-3.268267 9.8304-11.741867 12.3904-21.034666 7.6288 0 0-0.247467 5.333333-0.341334 7.492267 18.952533 2.619733 18.7648-6.1696 33.297067-4.795733z" fill="#272729" /><path d="M143.556267 298.589867c-0.093867 1.860267 2.346667 5.137067 3.780266 7.074133l6.749867 9.122133 3.106133 8.840534 2.176 6.203733-3.6608 6.562133-5.1712 9.284267c6.357333 3.037867 14.037333 7.2192 19.456 7.082667l12.458667-0.324267c-2.338133 8.2688-10.6752-1.962667-14.1824 8.490667-13.294933 39.645867-24.448 21.632-23.944533 40.772266l-22.126934 3.0208-6.656-5.794133c-4.0448-9.728-5.393067-18.2528-2.423466-28.100267 3.234133-2.039467 6.5792-6.186667 7.355733-9.728l-3.882667-5.230933 2.688-21.614933-6.698666-5.410134c-0.8192-0.6656 1.646933-4.992 2.474666-5.649066l15.377067-12.16c4.266667-3.370667 9.096533-18.090667 13.115733-12.4416z" fill="#141517" /><path d="M249.361067 214.6304l-4.2752 0.725333 11.477333 12.3136c6.656 7.1424 13.047467 19.012267 10.350933 29.943467-16.2048 0.896-21.521067 1.493333-33.834666-5.0176-6.0928-8.004267-16.145067-20.693333-22.254934-27.4432-1.220267-1.348267-6.442667-2.4064-7.936-3.490133 3.106133 0.674133 6.929067-1.28 9.130667-5.290667-22.673067-10.845867-28.672-42.026667-16.418133-49.7664 3.5328-2.2272 11.630933-2.107733 16.085333-0.401067 20.48 7.8592 27.272533 24.149333 28.066133 43.246934l9.6 5.1712z" fill="#353435" /><path d="M333.9264 855.338667c-7.953067 17.399467-16.290133 14.5152-25.1392 23.406933 16.273067 20.053333 26.615467 46.276267 8.977067 68.5056-5.128533 6.468267-14.72 8.0128-21.444267 2.107733-20.1984-17.732267-14.737067-38.971733-4.514133-59.767466l-18.082134-5.0688c-2.824533-0.7936-6.5536-5.649067-6.869333-8.157867l-1.698133-13.696c-0.196267-1.604267 0.238933-6.9888 0.324266-7.483733 8.738133 9.5744 23.7056 6.2976 27.963734 1.834666 10.990933-11.537067 25.233067-21.1456 16.9984-32.349866 3.0208 0 7.304533 7.261867 6.1184 10.513066-2.8672 7.893333-7.4496 15.223467-12.689067 20.804267l-9.770667 10.402133 12.663467 5.572267c1.681067 0.7424 7.159467-0.571733 9.079467-1.3312 0.699733-0.273067-0.315733-5.1712 0.042666-5.845333 1.595733-2.9696 7.901867-5.205333 12.023467-5.870934l6.007467-3.592533z" fill="#252526" /><path d="M362.359467 168.132267c8.106667 4.881067-0.529067 5.742933 9.5744 13.098666 7.9872 5.819733 14.6176 17.851733 12.714666 27.4944-0.657067 3.319467-7.0144 10.0352-10.0864 10.990934-2.747733 0.853333-10.24-1.536-12.7488-3.131734l-14.0544-8.96-21.922133-14.020266c-2.875733-1.8432-9.412267-6.254933-11.5968-8.942934l-14.711467-18.1248c-2.158933 4.309333-3.421867 6.869333-4.548266 8.849067l1.2032-21.4528c0.315733-5.666133 7.995733-13.422933 14.250666-12.074667 28.535467 6.152533 31.402667 13.5168 45.969067 31.453867 1.237333 1.518933 7.3728 3.336533 7.0656 1.518933l-1.1264-6.690133z" fill="#323336" /><path d="M310.4512 824.669867c8.2432 11.204267-5.998933 20.821333-16.9984 32.349866-4.258133 4.462933-19.2256 7.739733-27.963733-1.834666-0.093867 0.494933-0.529067 5.888-0.324267 7.483733l1.698133 13.696-2.491733-2.5856-2.645333-10.257067c-4.010667 10.0096-8.712533 19.473067-18.414934 24.7552-15.061333 8.200533-35.0976 8.448-41.856-5.179733-9.070933-18.286933 26.410667-36.5312 46.498134-36.462933 3.746133 0.008533 10.606933 6.254933 12.663466 8.106666l8.3456-18.858666-7.074133-0.401067 5.853867-2.747733c3.1488-1.476267 7.594667-5.2224 9.856-8.0128l32.861866-0.0512z" fill="#333131" /><path d="M777.540267 853.188267l-3.985067-12.0064 3.857067-9.028267 16.878933-6.485333c2.039467-0.785067 8.2176-0.162133 10.154667 0.256l5.998933-5.6064-2.030933 7.261866c-0.546133 1.954133 3.345067 7.842133 5.5296 6.4768 18.312533-11.4944 47.1808-15.880533 61.243733 3.1488 3.643733 4.9408 2.517333 14.498133-2.875733 17.911467-18.9952 12.0064-35.3024 8.789333-56.465067 3.882667l-8.0128 5.563733c-11.869867 4.386133-26.427733-0.64-30.293333-11.3664z" fill="#232324" /><path d="M72.2944 601.531733l5.026133 7.722667c5.0176 7.7056 12.552533 16.827733 21.956267 19.652267 5.060267 1.518933 15.914667 1.5104 20.923733-0.247467 4.829867-1.6896 17.988267-13.8752 15.522134-26.496l13.457066-1.646933 13.090134-1.595734-5.8112 6.203734c0.418133 1.220267 7.978667 4.599467 10.615466 4.522666l15.6416-0.4608c-0.221867 5.521067-19.3536-0.349867-19.874133 9.591467l-0.657067 13.636267-3.268266-2.0992-0.366934-12.125867-8.5504-12.996267-8.738133-1.629866 0.4352 10.9568c0.7936 19.968-33.518933 15.7696-35.882667 20.590933-0.64-0.162133-1.885867-0.384-2.628266-0.5376-0.452267-1.450667-0.512-2.167467-1.4336-2.158933-0.9984 0.008533-3.2512 0.247467-4.1472 0.2304l-7.313067-0.1792-2.141867-2.7904c-4.104533 0.213333-6.8608 0.426667-8.516266 0.375466l-17.7152-0.571733c-7.8336-13.2096 3.9168-11.451733-3.473067-17.109333l-20.360533 9.6768c-5.649067 2.688-24.430933 5.930667-30.464-0.657067-8.6016-9.3952 8.251733-32.785067 18.363733-37.4784l7.9616-3.165867c6.4-2.542933 14.173867-2.414933 21.905067 0.605867 13.312 5.1968 6.237867 17.348267 11.016533 18.6624l5.444267 1.501867z" fill="#262525" /><path d="M957.3888 560.7168l-4.718933-2.3552-18.082134 12.680533c-5.248 3.677867-23.620267 15.035733-27.025066 16.4096l-21.8624 8.823467c-2.235733 0.904533-9.898667-1.2032-10.368-3.387733-1.288533-6.033067 1.0496-19.370667 5.179733-23.6288l23.338667-24.081067c5.1712-5.333333 12.6976-9.250133 20.693333-12.6208 13.8496-5.828267 6.784-14.276267 12.7232-15.8208-2.7648 12.4416 17.297067 7.0144 18.7648 26.333867l1.348267 17.629866z" fill="#353537" /><path d="M90.786133 655.650133c-2.986667 3.0464-3.285333 8.695467-1.5616 12.740267l3.626667 8.4992 18.491733-0.64c11.067733-0.384 30.532267-15.889067 30.242134-22.186667-0.085333-1.902933-2.4832-4.437333-4.3008-6.664533l-6.2464-7.645867c3.822933 0.896 19.413333 13.986133 18.4832 19.345067-1.262933 7.2704-26.274133 21.6832-38.485334 23.7312l-20.394666 3.421867h-3.012267c-0.349867-0.349867-2.244267-3.7632-2.4064-4.881067l-1.4848-10.402133-14.8736 12.416c-8.695467 7.261867-22.562133 14.702933-31.6672 5.1968-12.3392-12.868267 6.212267-40.3712 22.033067-50.850134 8.2176-5.444267 23.697067-4.957867 28.970666 3.899734 1.8432 3.0976 2.5088 10.948267 2.602667 14.011733z" fill="#2D2D2E" /><path d="M669.704533 860.501333l2.414934 3.072c-1.5616 0.7424-5.358933 3.601067-6.528 5.316267l-6.340267 9.361067-3.4816-1.6896c-13.0816 5.307733-28.356267 3.182933-36.7616-8.712534-7.850667-11.118933-10.436267-26.410667-7.0144-40.430933 2.039467-8.3712 13.141333-15.232 20.309333-15.837867l15.428267 15.223467c5.154133 5.085867 13.294933 13.397333 13.960533 20.6848l1.6384 17.9456 6.365867-4.9152z" fill="#404043" /><path d="M498.56 114.722133c0 1.2032 0.349867 3.549867 0.5632 4.736 0.145067 0.7936 3.217067 0.4864 3.387733 0.477867l3.3024 7.2448-12.910933 0.196267c2.346667-3.9168 3.1488-12.381867-0.0256-16.145067-6.408533-7.611733-24.712533 9.813333-37.888 12.270933l3.985067-11.741866c-14.045867-7.099733-27.818667-17.288533-33.450667-33.1008-2.414933-6.775467 1.911467-16.298667 9.130667-17.4848 20.258133-3.328 64.0512 20.693333 63.906133 53.546666z" fill="#26282A" /><path d="M614.570667 982.9632c-24.3712 2.756267-53.725867-13.7728-56.849067-38.331733-0.503467-3.933867 3.976533-11.6992 7.236267-13.866667 13.354667-8.874667 51.976533 4.4544 60.4928 38.9888 1.032533 4.1728-5.384533 12.586667-10.871467 13.2096z" fill="#2B2C2E" /><path d="M910.549333 800.6912c-24.7296 16.708267-54.417067 9.284267-71.586133-13.994667-1.698133-2.304-1.1008-10.530133 1.672533-11.537066 25.975467-9.403733 50.542933-17.1008 70.3488 8.354133 3.4048 4.3776 2.0992 12.2624-0.4352 17.1776z" fill="#323332" /><path d="M786.773333 903.202133c10.478933 7.057067-4.369067 30.8224-33.143466 36.0192-13.610667 2.4576-25.4464-1.860267-37.205334-9.693866l0.0256-12.305067c19.4304-17.390933 46.472533-30.071467 70.331734-14.011733z" fill="#212122" /><path d="M281.361067 148.590933c-15.351467 18.679467-39.355733 20.676267-61.5168 12.936534-2.645333-4.974933-5.947733-14.344533-3.131734-17.826134 15.837867-19.5328 43.605333-28.689067 62.600534-16.273066 7.842133 5.12 7.406933 14.6432 2.048 21.162666z" fill="#262727" /><path d="M702.702933 922.666667c6.357333 25.873067-44.151467 59.6224-55.381333 44.296533-5.384533-7.3472-1.117867-42.666667 32.853333-54.741333 8.695467-3.089067 20.2752 1.28 22.528 10.4448z" fill="#2F3031" /><path d="M513.8944 939.434667c21.1712 11.042133 47.658667 40.772267 35.669333 53.538133-6.152533 6.545067-18.235733 4.4032-27.4432 0.418133-17.783467-7.714133-31.479467-25.250133-29.431466-45.969066 0.8704-8.814933 14.190933-11.639467 21.205333-7.978667z" fill="#262526" /><path d="M988.381867 614.254933c-6.647467-6.749867-13.422933-15.223467-16.2304-24.635733l-4.923734-16.503467-1.646933 10.5984-3.524267-4.241066c1.211733-5.691733 2.363733-10.939733 0.878934-13.320534l6.485333 1.109334c1.194667 0.2048 3.4816-3.643733 3.669333-4.104534l7.714134-2.773333c14.062933 4.608 26.948267 12.672 35.933866 25.207467 4.992 6.9632 11.8528 28.7488 1.058134 35.2768-6.9376 4.189867-17.399467-0.8192-23.8592-3.933867l-5.5552-2.679467z" fill="#242627" /><path d="M924.305067 324.5568l-6.8352 1.544533c-2.133333 0.477867-6.741333 0.750933-8.951467 0.8448l-4.445867-4.718933-11.144533 2.8416c-1.348267-5.3504 12.654933-4.1216 14.685867-11.861333 1.527467-5.802667-3.157333-17.1008-5.700267-22.5024 1.3568-1.706667 3.003733-3.84 3.9424-4.7104 8.8832-8.260267 27.4176-15.872 43.938133-15.402667 3.8656 0.110933 10.376533 8.6272 9.378134 12.8-4.386133 18.321067-18.321067 34.363733-34.875734 41.156267z" fill="#212325" /><path d="M806.4512 195.3024c-11.707733-6.775467-21.230933-13.4912-27.5968-22.638933-5.162667-7.415467-11.3152-32.657067 2.039467-41.8816 11.434667-7.901867 44.305067 18.0992 39.936 52.855466-0.733867 5.819733-5.896533 9.0368-14.370134 11.665067z" fill="#232426" /><path d="M853.879467 263.611733l6.1952 9.1136c0.4608 0.682667 2.176 3.054933 2.210133 2.875734s-0.955733 1.5104-1.2544 1.9968c-2.7392-1.297067-22.417067-15.863467-18.397867-22.0416-0.1792 0.093867-2.722133 7.458133-4.352 9.258666l-11.008 12.194134c-4.0192 4.445867-13.8496 6.126933-17.954133 0.8704l-0.955733-15.453867c-1.032533-16.750933 5.725867-13.354667 2.56-22.2464-0.597333-1.672533-3.968-5.5552-3.857067-7.330133l1.365333-21.512534c1.416533 2.116267 2.602667 6.417067 3.0976 10.308267l1.877334 14.762667 12.305066-18.5856c2.048-3.089067 9.198933-9.207467 13.013334-8.3456 6.382933 1.442133 10.837333 8.8576 11.784533 14.250666 5.410133 30.754133-8.413867 25.565867-1.442133 42.1888 0.4096 0.981333 5.794133-2.3296 4.795733-2.312533z" fill="#292B2C" /><path d="M143.940267 291.0208l-0.392534 7.560533c-4.027733-5.6576-8.8576 9.070933-13.115733 12.4416l-15.377067 12.16c-0.827733 0.657067-3.3024 4.983467-2.474666 5.649067l6.698666 5.410133-2.688 21.614934 3.882667 5.230933-10.274133-3.541333 2.8672-12.424534 2.432-10.5216-27.6736 2.321067c-7.483733-3.217067-22.587733-9.4464-21.486934-18.875733 0.298667-2.56 2.7648-7.6288 4.846934-9.634134 17.373867-16.725333 39.227733-14.4384 64.162133-9.130666l1.1264-7.287467 7.466667-0.9728z" fill="#2D2C2D" /><path d="M441.847467 936.695467c26.24 11.409067 42.325333 38.0672 30.856533 51.677866-3.438933 4.087467-12.322133 7.2704-17.493333 4.906667-19.6608-8.96-34.756267-27.989333-33.604267-50.7136 1.245867-6.545067 14.651733-8.302933 20.241067-5.870933z" fill="#2C2D2E" /><path d="M395.502933 984.5248c-7.714133 7.509333-17.314133 4.8128-23.108266-0.930133-9.122133-10.4192-12.3136-25.736533-4.7872-38.7584 5.546667-9.591467 21.589333-24.482133 32.162133-13.8752 15.044267 15.095467 8.448 41.1904-4.266667 53.563733z" fill="#4C4543" /><path d="M554.3168 83.9168c1.826133-0.008533 9.463467-3.754667 10.146133-6.562133 1.442133-5.947733-0.802133-18.7904-2.312533-24.9344 4.437333 7.2448 6.4512 13.7472 6.903467 21.973333 0.170667-0.1792 7.074133-2.978133 9.506133-3.0464 16.366933-0.452267 35.959467 29.841067 23.4496 51.4304-3.336533 5.76-12.177067 11.639467-18.500267 8.430933-19.012267-9.6512-24.516267-33.493333-19.584-50.141866l-5.700266 4.992c-0.9728 0.853333-3.072-1.245867-3.908267-2.141867z" fill="#404041" /><path d="M983.227733 619.426133c11.392 18.030933-8.576 45.986133-23.1936 51.293867-2.500267 0.913067-8.507733 2.338133-10.615466 0.785067l-7.5776-5.597867c-10.103467-7.1424-1.416533-26.7264 4.096-36.992 5.0688-9.429333 19.848533-23.406933 32.759466-13.098667l4.5312 3.618134z" fill="#282827" /><path d="M384.9216 118.101333c-4.923733 4.087467-13.2096 4.0448-16.7936 0.341334-9.3696-9.685333-10.478933-21.973333-5.512533-35.1488 4.565333-12.1088 22.4512-29.883733 31.172266-27.8272 11.716267 2.7648 16.810667 41.3184-8.866133 62.634666z" fill="#2E2E2E" /><path d="M994.389333 548.522667c-25.002667-1.493333-33.024-16.622933-46.429866-34.244267l7.611733-19.447467c22.6304-9.984 43.579733 13.969067 47.965867 32.324267 2.039467 8.5248-2.0224 15.018667-9.147734 21.367467z" fill="#2B2C2E" /><path d="M895.684267 257.271467l0.128 23.637333-0.059734 2.5856-2.551466 3.063467c2.858667 5.248-15.300267 4.411733-18.261334 4.846933l" fill="#1F2022" /></svg>