<?xml version="1.0" standalone="no"?><!DOCTYPE svg PUBLIC "-//W3C//DTD SVG 1.1//EN" "http://www.w3.org/Graphics/SVG/1.1/DTD/svg11.dtd"><svg class="icon" width="256px" height="256.00px" viewBox="0 0 1024 1024" version="1.1" xmlns="http://www.w3.org/2000/svg"><path d="M672.605867 737.3824l-0.042667-3.7888 0.324267-1.826133 5.870933-2.7136c1.467733-0.674133 3.618133-1.9968 4.5824-2.696534 5.896533 0.6912 6.818133-12.501333 13.4656-14.958933l12.928-4.7872c2.3296-0.861867 7.7312 1.7152 8.183467 4.078933l2.2784 11.716267-4.522667 3.413333c-4.0192 15.8464-13.320533 24.430933-30.6688 22.109867-6.272-0.8448-11.477333-5.376-12.398933-10.538667z" fill="#232222" /><path d="M825.582933 461.687467c-2.7904-1.348267-10.581333 1.3568-10.171733 4.462933 0.9472 7.3472 9.361067 6.152533 13.4656 4.1984 1.860267 3.490133 7.662933 4.488533 10.9568 2.158933 8.260267-5.8624 7.074133 1.066667 13.252267-1.3312l10.385066-4.0192c1.92-0.7424 0.9728-5.589333 0.6144-7.534933l3.84 2.218667c2.116267 1.2288 7.6032 3.473067 10.0608 3.362133l9.053867-0.418133c-3.822933 5.623467-12.9792-1.518933-15.291733 9.3696-0.452267 2.116267 1.2032 6.690133 3.165866 6.792533l5.034667 0.2816c-0.324267 0.349867-2.653867 2.628267-2.875733 3.592533-0.546133 2.397867 5.879467 4.667733 8.123733 4.5568l3.259733 6.903467c-1.117867-0.418133-5.077333-1.92-6.5536-1.860267l-8.541866 0.366934-15.4112-8.3456c-1.8944-1.024-4.650667-1.860267-7.441067-2.551467l2.8416 7.389867-6.485333 2.269866-1.3568-9.224533-11.2128-6.698667c-7.0656 1.706667-14.609067 1.3568-19.771734-2.8928l-2.9184-9.6512c0.477867-1.536 1.7408-4.232533 2.568534-5.538133l6.024533-5.213867c0.128 0.9728 0.4096 3.362133 1.169067 3.968l4.215466 3.3792z m44.305067 13.730133c-3.575467-4.113067-9.173333-5.674667-12.270933-4.573867-1.706667 0.605867-0.9728 6.229333 0.682666 6.8608 3.5072 1.3312 8.789333 0.375467 11.588267-2.2784z" fill="#E9EBEB" /><path d="M651.0848 744.123733c-11.4176 6.656-28.475733 8.6784-33.297067-1.885866-3.114667-6.826667 14.976-19.003733 33.399467-7.6288 2.2016 1.3568 2.500267 7.995733-0.110933 9.514666z" fill="#171717" /><path d="M252.117333 748.910933c-14.3104 9.898667-33.0752 5.495467-32.529066-1.143466 0.836267-10.171733 28.544-17.757867 34.850133-7.389867 1.058133 1.732267-0.477867 7.261867-2.321067 8.533333z" fill="#1B1B1B" /><path d="M533.947733 755.584c-9.0112 14.3872-33.245867 12.8768-34.688 4.949333-0.273067-1.501867 1.271467-5.154133 2.500267-6.178133 14.327467-11.886933 37.614933-7.415467 32.196267 1.2288z" fill="#191919" /><path d="M327.637333 763.229867c-10.069333 11.8784-28.3392 10.180267-30.8736 4.189866-0.546133-1.297067 0.384-5.1456 1.288534-6.203733 9.3184-10.897067 26.743467-12.407467 30.8992-5.9392 0.9984 1.553067 0.110933 6.272-1.314134 7.953067z" fill="#2C2C2C" /><path d="M820.3008 665.173333l10.786133-0.3328c1.826133-0.059733 5.410133-0.904533 6.946134-1.365333l0.546133 9.1392c0.418133 7.031467-4.258133 14.199467-11.460267 17.109333-2.432 0.981333-8.576-0.162133-10.325333-1.962666-5.870933-6.050133-1.979733-13.44 1.3056-18.9184l2.2016-3.669334z" fill="#454443" /><path d="M386.884267 783.581867c-13.525333 9.463467-32.9472 3.345067-32.2304-3.328 0.913067-8.558933 28.040533-15.146667 34.653866-3.131734 0.7424 1.348267-1.109333 5.538133-2.423466 6.459734z" fill="#19191A" /><path d="M973.166933 585.8048c-5.2224 1.134933-11.656533 0.699733-16.631466-0.64-3.4048-0.913067-6.7584-8.584533-3.729067-10.709333 3.652267-2.56 9.361067-4.0704 12.970667-5.009067-2.6624-1.211733-7.671467-5.265067-6.8352-7.5008 2.244267-5.341867 12.919467-6.289067 16.708266-3.285333 1.245867 0.989867 0.896 5.674667-0.2048 6.775466l-5.205333 5.239467c1.5616 4.334933 2.705067 8.507733 2.935467 15.112533z" fill="#1E1F1D" /><path d="M309.768533 729.710933c-10.052267 12.9536-34.116267 11.357867-34.423466 2.935467-0.426667-11.579733 37.111467-17.783467 34.423466-2.935467z" fill="#21211F" /><path d="M177.373867 719.377067c-9.224533 7.816533-21.188267 7.338667-32.042667 1.826133-0.187733-3.464533 0.6912-7.825067 2.7904-9.198933 8.8576-5.794133 18.2272-6.007467 27.639467-1.373867 2.056533 1.015467 3.3024 7.304533 1.6128 8.738133z" fill="#1C1C1B" /><path d="M790.724267 764.3648c1.1264 6.434133-18.133333 11.818667-29.602134 0.119467-1.152-1.1776-2.688-5.1968-2.269866-6.7584 2.2272-8.32 29.568-6.562133 31.872 6.638933z" fill="#2A2A29" /><path d="M589.508267 782.165333c-11.682133 2.5088-20.317867-0.4352-26.717867-8.738133-1.390933-1.800533 0.2048-7.722667 2.346667-8.260267 10.8288-2.730667 20.0192 0.418133 26.862933 8.891734 1.5616 1.937067 0.059733 7.560533-2.4832 8.106666z" fill="#212020" /><path d="M574.429867 733.934933l1.757866 0.042667 5.162667 3.3536-0.3072 9.8816c-9.710933 5.666133-21.265067 5.154133-29.508267-1.152-0.264533-1.8944 0.418133-7.338667 1.655467-8.430933 4.1728-3.669333 15.624533-5.649067 21.239467-3.703467z" fill="#232322" /><path d="M749.354667 737.954133c-6.007467 10.641067-18.9952 10.197333-28.654934 3.524267-1.783467-1.237333-1.6896-7.133867 0.110934-8.541867 6.0672-4.753067 12.996267-6.2976 20.6336-4.974933 5.248 0.913067 8.260267 4.872533 7.9104 9.984z" fill="#2B2B2B" /><path d="M128.6912 673.348267c-6.2208 8.3712-15.940267 10.939733-25.659733 8.055466-2.261333-0.674133-3.908267-6.647467-2.4576-8.584533 7.389867-9.898667 22.289067-12.7744 28.672-6.0416 0.904533 0.955733 0.298667 5.4272-0.554667 6.570667z" fill="#1C1D1B" /><path d="M82.030933 746.069333c-8.584533 5.5552-16.0512 3.720533-23.7568-0.6912-3.413333-1.954133-6.306133-9.463467-2.7904-11.810133 9.207467-6.126933 20.855467-1.885867 27.6224 4.6336 1.450667 1.399467 0.503467 6.8352-1.083733 7.867733z" fill="#C3C0BA" /><path d="M30.958933 637.021867c-10.325333 5.8624-27.776 5.0944-30.8736-2.722134-0.4608-1.160533 1.143467-4.360533 2.321067-5.358933 7.534933-6.408533 20.002133-6.6816 28.654933-0.0256 1.621333 1.2544 1.979733 6.9376-0.093866 8.1152z" fill="#171717" /><path d="M949.307733 673.152c1.655467 6.528-14.242133 14.5664-27.733333 8.2688-1.408-0.657067-3.8912-3.643733-4.036267-5.137067-0.170667-1.783467 2.1504-5.1456 4.0192-6.519466 8.1408-5.9904 25.821867-4.215467 27.7504 3.387733z" fill="#131213" /><path d="M616.558933 712.8832l-5.9904 0.349867c-2.850133 2.2784-4.855467 3.805867-7.330133 5.4272l-5.4784 3.592533c0.674133 3.703467-1.152 9.1136-3.6096 9.634133l-7.543467 1.604267c-2.679467-1.92-7.253333-5.9136-7.748266-9.344-0.733867-5.034667 11.357867-9.335467 10.5984-10.794667l-1.28-2.449066c2.542933 0.503467 7.466667 1.1264 10.453333 0.9472l15.0272-0.878934 2.8928 1.8944z" fill="#434343" /><path d="M133.3248 636.603733l3.1488 3.456 0.290133 5.947734c-5.879467 11.2128-32.315733 5.0944-30.788266-2.56 1.6384-8.174933 20.087467-10.069333 27.349333-6.852267z" fill="#121212" /><path d="M988.9792 608.989867l-14.173867 0.119466c-0.529067 0-1.194667 0.068267-1.604266-0.008533-1.723733-1.621333-4.7104-3.054933-7.2192-3.677867l-3.328-2.8672c-0.9472-0.8192 1.0752-4.974933 2.1248-5.632 8.302933-5.230933 20.599467-3.464533 27.648 0.904534 1.706667 1.058133 3.6608 6.4256 2.397866 7.7056s-3.899733 2.670933-5.845333 3.447466z" fill="#0F1010" /><path d="M943.581867 643.131733c-9.429333 5.879467-19.456 2.312533-26.0096-3.072-1.3568-1.117867-2.414933-6.331733-0.8704-7.466666 6.510933-4.736 20.2752-5.6832 27.357866 2.167466 1.7664 1.962667 2.048 6.792533-0.477866 8.362667z" fill="#131213" /><path d="M823.296 723.3536c-7.8848 5.666133-17.442133 3.515733-22.280533-3.754667-1.399467-2.0992-0.392533-9.275733 1.979733-10.231466 6.545067-2.645333 15.010133-1.954133 20.8896 1.595733 4.027733 2.440533 3.293867 9.6-0.5888 12.3904z" fill="#303030" /><path d="M53.0688 566.1184c1.3824 5.802667-15.786667 14.301867-29.175467 6.3488-1.066667-0.631467-3.063467-3.490133-2.568533-4.5824 5.538133-12.1344 30.139733-8.490667 31.744-1.7664z" fill="#1C1C1B" /><path d="M93.354667 509.559467c-7.7056 7.722667-23.338667 8.593067-26.871467 3.345066-1.041067-1.544533 0.196267-6.741333 1.732267-8.055466 7.150933-6.144 21.290667-8.891733 26.094933-3.0464 1.1008 1.339733 0.469333 6.340267-0.9472 7.7568z" fill="#1D1C1C" /><path d="M475.264 745.506133c-12.2624 4.8896-27.144533-2.244267-26.197333-10.7008 0.708267-6.331733 15.547733-7.543467 26.760533 0.878934 2.4576 1.8432 2.304 8.6784-0.5632 9.821866z" fill="#1D1C1A" /><path d="M1022.5408 572.629333c-7.773867 3.9168-15.0272 0.887467-21.026133-2.7648-3.165867-1.928533-5.956267-10.112-2.798934-11.946666 7.278933-4.215467 15.931733-1.083733 22.2208 3.524266 2.551467 1.8688 4.5312 9.7024 1.604267 11.178667z" fill="#191919" /><path d="M236.3904 714.325333c-8.285867 4.3264-17.681067-1.7664-22.365867-8.738133-1.237333-1.834667 0.034133-7.7568 2.0224-8.260267 6.357333-1.621333 12.424533-0.520533 17.962667 2.372267 4.6848 2.440533 7.7824 11.818667 2.389333 14.634667z" fill="#202020" /><path d="M588.1856 710.912l1.28 2.449067c0.759467 1.450667-11.332267 5.751467-10.5984 10.794666 0.494933 3.4304 5.0688 7.424 7.748267 9.344-1.245867 0.2048-5.384533-0.597333-6.272-1.937066l-3.822934-5.794134-7.611733 5.256534 5.5296 2.926933c-5.614933-1.9456-17.066667 0.034133-21.239467 3.703467-1.237333 1.092267-1.92 6.536533-1.655466 8.430933-0.3584 0.136533-2.688-2.4832-2.363734-3.362133l2.261334-5.998934c0.520533-1.3824-4.3264-2.7136-5.230934-2.8672v-1.937066c0.401067 0.110933 1.297067 0.059733 1.757867 0.0512l3.515733-1.348267c0.631467-0.008533 1.3824 0.059733 1.757867-0.136533l3.7632-1.979734 6.033067-2.517333c14.711467-6.135467 6.690133-18.722133 25.1648-15.061333z" fill="#E0E0E1" /><path d="M64.836267 587.921067c-0.469333 2.065067-4.522667 6.843733-6.946134 6.843733l-14.173866 0.017067c-2.0992 0-5.725867-2.833067-7.9872-4.718934-1.450667-1.211733 0.3584-6.843733 2.218666-7.458133 7.3472-2.440533 16.938667-2.705067 22.5536 0.571733 0.9984 1.220267 3.7376 4.096 4.334934 4.744534z" fill="#2A2B29" /><path d="M696.285867 774.673067c-10.24 3.3792-21.888-0.8448-21.256534-6.5536 0.768-7.0144 17.024-7.458133 23.227734-5.76 1.851733 0.503467 3.396267 5.5808 2.824533 7.227733s-3.080533 4.522667-4.7872 5.077333z" fill="#A1A09D" /><path d="M35.729067 527.266133c-1.7408 0.034133-5.469867-1.774933-6.2208-3.131733-3.165867-5.725867 2.568533-13.5936 10.939733-17.143467 2.858667-1.211733 7.7568 2.414933 7.9616 5.1456 0.6144 8.183467-4.864 14.976-12.672 15.138134z" fill="#252524" /><path d="M863.121067 734.609067c-7.074133 8.814933-18.107733 7.159467-23.953067 3.0208-0.682667-0.477867-1.962667-2.517333-2.2784-3.310934-0.426667-1.0496 1.2288-4.386133 2.295467-4.957866 6.016-3.182933 20.522667-6.434133 23.927466 5.248z" fill="#9C9D97" /><path d="M887.048533 464.776533l-9.053866 0.418134c-2.4576 0.110933-7.944533-2.133333-10.0608-3.362134l-3.84-2.218666c-0.247467-1.348267-0.221867-4.2752-0.042667-5.632 0.418133-3.2 12.765867-5.742933 23.304533 1.595733 1.152 0.802133 2.781867 4.667733 2.039467 5.751467l-2.346667 3.447466z" fill="#1D1D1C" /><path d="M891.861333 698.350933c4.770133-4.6592 19.464533-1.3056 19.933867 6.5024 0.136533 2.286933-3.328 6.775467-5.640533 7.150934-4.266667 0.6912-9.1392-0.093867-11.8784-1.962667-2.5856-1.7664-4.727467-9.4208-2.414934-11.682133z" fill="#B2B2AC" /><path d="M978.372267 645.956267l-1.4336-3.908267 5.282133-5.5552c6.007467-2.500267 22.3232 0.571733 20.744533 6.869333-0.384 1.518933-2.397867 3.652267-4.386133 4.718934-12.228267 6.562133-21.9648-9.813333-20.206933-2.1248z" fill="#BDBDB9" /><path d="M434.5856 742.126933c-5.896533 9.378133-18.9696 6.391467-23.739733 1.4336-0.896-0.938667-1.4592-5.128533-1.245867-5.6576l18.645333-2.466133c1.297067-0.170667 4.7872 0.443733 5.853867 0.802133 1.416533 0.477867 1.288533 4.608 0.477867 5.888z" fill="#363634" /><path d="M90.8288 580.514133l-1.390933 0.085334-3.524267 0.290133-3.9424 0.170667-8.234667-3.626667c-1.28-2.158933-3.012267-5.905067-3.618133-7.790933l5.179733-4.514134c5.0944 0.068267 11.485867 4.292267 16.375467 8.2432 1.4592 1.186133 0.401067 6.0672-0.853333 7.1424z" fill="#3D3B38" /><path d="M657.706667 767.530667c-4.283733 8.226133-14.651733 12.347733-18.816 7.7056-0.887467-0.989867-0.9984-4.821333-0.341334-5.9648 2.414933-4.215467 7.995733-7.8848 13.175467-8.6528 2.986667-0.443733 7.296 4.386133 5.973333 6.920533z" fill="#6C6C69" /><path d="M976.938667 642.056533l1.4336 3.908267c0.059733 2.3808-2.9952 6.408533-4.855467 6.135467-16.170667-2.346667-17.2544-11.758933-16.068267-12.3136l4.096-1.902934c5.572267-2.594133 11.9552-0.401067 15.402667 4.1728z" fill="#555452" /><path d="M199.048533 447.607467c-2.466133 0.3072-8.072533-3.626667-7.304533-5.358934 4.4288-9.9328 20.8384-10.9312 20.053333-5.76-0.836267 5.444267-6.024533 10.282667-12.7488 11.118934z" fill="#91928F" /><path d="M859.0848 707.541333c0.6656 2.901333-7.927467 5.7344-10.999467 4.8128-2.807467-0.8448-6.741333-5.1968-7.671466-8.448-0.554667-1.937067 4.087467-5.751467 6.1696-5.640533 3.9168 0.213333 10.862933 2.193067 12.4928 9.275733z" fill="#A3A19D" /><path d="M121.0112 469.2992c-0.64 6.331733-14.011733 7.867733-21.265067 1.2544 3.140267-8.1664 13.909333-8.174933 18.7392-5.3248 0.9472 0.5632 2.619733 3.1488 2.525867 4.0704z" fill="#BBBBB8" /><path d="M81.9712 581.060267l-4.155733 2.030933c-1.015467 0.494933-3.370667 3.1232-2.7392 3.968l2.286933 3.029333 5.6576 0.759467c0.861867 0.119467 1.365333-1.792 1.493333-2.6624 0.0256-3.080533 0.341333-5.248 1.3824-7.296l3.524267-0.290133-2.3808 3.6864c-0.0256 2.6368-0.059733 5.0688-0.785067 6.434133-2.2528 4.224-6.135467 1.083733-10.666666 1.774933-1.2032 0.187733-2.7136 2.7904-2.5856 4.002134-1.988267-0.571733-6.468267-0.887467-8.439467-0.2048-1.262933 0.443733-1.211733 5.077333-1.1264 5.7344-1.1264-0.580267-2.167467-2.850133-3.191467-4.7616l-15.018666-0.597334-1.518934-1.877333 14.173867-0.017067c2.423467 0 6.485333-4.778667 6.946133-6.843733l9.0624 0.0512-0.162133-10.530133 8.234667 3.626666z" fill="#EBEBEB" /><path d="M67.106133 625.527467c1.6896 3.746133-7.492267 7.936-15.394133 5.828266l-2.807467-5.546666c-1.792-3.5328 7.918933-7.9616 15.479467-6.3232l2.730667 6.0416z" fill="#7C7D79" /><path d="M98.065067 610.4832c-2.8928 0.5888-8.866133 0.418133-9.745067-1.672533-0.827733-1.979733 0.290133-6.869333 1.160533-8.541867l1.834667-1.425067 1.621333-0.093866 8.8064 0.196266c1.390933 0.093867 2.9952 4.6336 2.0224 5.640534l-3.165866 3.2768-2.525867 2.628266z" fill="#727373" /><path d="M787.549867 729.088c-1.851733 5.717333-9.9072 4.539733-14.933334 2.9952-1.365333-0.418133-1.5616-5.751467-0.750933-6.9888 2.158933-3.3024 11.025067-4.420267 14.08-1.3568 0.802133 0.802133 1.9456 4.317867 1.604267 5.358933z" fill="#A3A3A3" /><path d="M940.7744 621.815467c-5.077333 0.64-11.3408-2.807467-12.433067-6.1184-0.4352-1.314133 0.426667-4.539733 1.467734-5.367467s4.6592-1.518933 5.828266-0.930133l5.922134 3.003733c1.109333 0.5632 2.619733 3.293867 3.080533 4.462933s-2.449067 4.770133-3.874133 4.949334z" fill="#272826" /><path d="M87.876267 642.944c-4.027733 5.6832-13.482667 3.114667-16.776534 0.622933-0.861867-0.657067-1.655467-4.3008-1.032533-5.188266 0.827733-1.186133 3.319467-2.619733 5.461333-3.037867 4.667733-0.913067 10.632533 3.140267 12.347734 7.6032z" fill="#8F8F8B" /><path d="M970.043733 620.834133c-4.514133 0.913067-10.1888-2.372267-11.4688-6.126933 1.962667-2.952533 8.917333-5.102933 12.1856-3.456 1.117867 0.5632 3.140267 3.003733 3.694934 4.0448 0.682667 1.297067-2.7392 5.213867-4.4032 5.546667z" fill="#575857" /><path d="M874.666667 682.581333l-5.358934-6.365866 7.936-6.237867c0.964267-0.759467 4.9408-0.4352 5.5296 0.605867l2.670934 4.778666-10.769067 7.2192z" fill="#696967" /><path d="M158.3616 664.405333c2.816 3.515733-4.974933 9.5744-9.096533 8.098134-2.2528-0.802133-3.712-1.245867-4.087467-2.030934s-0.162133-3.3792 0.2304-4.232533c1.450667-3.131733 9.9072-5.632 12.9536-1.834667z" fill="#464645" /><path d="M550.272 759.808c0.708267 0.938667 1.032533 5.316267 0.0256 5.632l-6.101333 1.9712c-1.2288 0.401067-4.804267-0.955733-5.486934-2.056533s-0.3072-4.130133 0.418134-5.3248c1.954133-3.217067 8.814933-3.3024 11.136-0.221867z" fill="#8A8B89" /><path d="M948.206933 606.344533m-5.623466 0a5.623467 5.623467 0 1 0 11.246933 0 5.623467 5.623467 0 1 0-11.246933 0Z" fill="#3A3B3A" /><path d="M73.019733 596.497067l0.7168 6.519466c-2.730667 0.401067-7.8848 0.238933-10.282666-0.989866-0.085333-0.648533-0.136533-5.290667 1.1264-5.7344 1.9712-0.682667 6.4512-0.366933 8.439466 0.2048z" fill="#B4B4B4" /><path d="M345.258667 728.6272m-4.8128 0a4.8128 4.8128 0 1 0 9.6256 0 4.8128 4.8128 0 1 0-9.6256 0Z" fill="#757574" /><path d="M502.2976 736.554667m-4.718933 0a4.718933 4.718933 0 1 0 9.437866 0 4.718933 4.718933 0 1 0-9.437866 0Z" fill="#6C6B6B" /><path d="M910.600533 674.1248c1.322667 0.4352 3.780267 4.795733 2.9696 5.819733-1.015467 1.28-4.1728 2.363733-5.981866 2.235734-1.348267-0.093867-4.974933-3.114667-5.0688-4.4544-0.1536-2.116267 5.435733-4.471467 8.081066-3.601067z" fill="#585859" /><path d="M53.6576 537.1648c-1.979733 2.7648-3.950933 4.9664-5.5552 5.034667-2.184533 0.093867-5.137067-2.4576-6.8352-5.358934 4.8896-3.268267 7.1936-3.165867 12.398933 0.324267z" fill="#6A6A6A" /><path d="M81.604267 483.643733m-4.573867 0a4.573867 4.573867 0 1 0 9.147733 0 4.573867 4.573867 0 1 0-9.147733 0Z" fill="#858685" /><path d="M107.349333 491.016533c-2.9696 4.804267-5.794133 5.597867-10.8032 5.230934-0.298667-2.065067-0.4096-5.2736 0.674134-5.7856 2.1248-1.006933 6.4256-0.622933 10.120533 0.554666z" fill="#949492" /><path d="M409.719467 753.783467c3.370667 0.657067 6.792533 3.669333 6.1184 5.367466s-5.034667 4.232533-6.5024 3.293867c-2.0736-1.322667-3.464533-2.414933-4.206934-3.2256-0.989867-1.0752 2.961067-5.76 4.590934-5.444267z" fill="#717170" /><path d="M885.205333 489.378133c-2.235733 0.110933-8.669867-2.158933-8.123733-4.5568 0.221867-0.964267 2.551467-3.242667 2.875733-3.592533 1.4336 0.0768 4.394667 1.0496 6.229334 1.809067 1.416533 0.5888-0.5376 5.486933-0.981334 6.340266z" fill="#515152" /><path d="M930.9696 481.757867c-0.290133 1.749333-1.629867 4.625067-2.952533 5.6576-1.578667 1.237333-8.174933-0.6144-7.7824-2.7904 0.733867-3.9936 7.3216-5.162667 10.734933-2.8672z" fill="#585859" /><path d="M896.1024 666.299733m-3.8656 0a3.8656 3.8656 0 1 0 7.7312 0 3.8656 3.8656 0 1 0-7.7312 0Z" fill="#767675" /><path d="M965.009067 525.969067m-3.831467 0a3.831467 3.831467 0 1 0 7.662933 0 3.831467 3.831467 0 1 0-7.662933 0Z" fill="#5E5E5E" /><path d="M985.4464 525.892267m-3.217067 0a3.217067 3.217067 0 1 0 6.434134 0 3.217067 3.217067 0 1 0-6.434134 0Z" fill="#909090" /><path d="M954.513067 512.264533l-5.077334-1.109333c-1.186133-0.256 1.5872-4.292267 2.7648-4.061867l4.4544 0.887467c0.930133 0.187733-1.2288 4.48-2.141866 4.283733z" fill="#777978" /><path d="M683.332267 726.357333c-0.964267 0.699733-3.114667 2.0224-4.5824 2.696534l-5.870934 2.7136c0.145067-0.810667 0.5888-3.5328 1.408-3.6864l9.045334-1.723734z" fill="#252525" /><path d="M961.7152 498.2528m-2.705067 0a2.705067 2.705067 0 1 0 5.410134 0 2.705067 2.705067 0 1 0-5.410134 0Z" fill="#7E7E7D" /><path d="M988.9792 608.989867c0.238933-0.110933-1.493333 1.664-1.9712 1.681066l-10.5728 0.324267-1.621333-1.885867 14.173866-0.119466z" fill="#575857" /><path d="M126.464 482.8672l-5.5296 1.425067c1.220267-1.006933 3.515733-1.450667 5.5296-1.425067z" fill="#C4C4C6" /><path d="M672.605867 737.3824l-1.723734-2.4832c-0.315733-0.4608 1.2544-1.066667 1.681067-1.297067l0.042667 3.7888z" fill="#252525" /><path d="M581.341867 737.339733l-5.162667-3.3536c2.312533 0.059733 5.205333 1.8944 5.162667 3.3536z" fill="#E0E0E1" /><path d="M973.201067 609.1008c-2.184533-0.426667-5.5296-2.218667-7.2192-3.677867 2.5088 0.6144 5.495467 2.056533 7.2192 3.677867z" fill="#575857" /><path d="M89.480533 600.277333l1.834667-1.425066-1.834667 1.425066z" fill="#EBEBEB" /><path d="M551.4752 730.606933l-3.515733 1.348267c0.375467-0.853333 0.469333-1.450667 0.9984-1.4336l2.517333 0.085333zM556.996267 728.490667l-3.7632 1.979733c0.426667-0.9472 0.494933-1.450667 1.041066-1.5872 0.6144-0.1536 2.158933-0.1536 2.722134-0.392533z" fill="#242424" /><path d="M514.116267 241.979733l-1.211734 7.150934c-0.648533 3.831467-1.757867 8.5248-2.56 11.3664l11.588267 8.251733c2.449067 1.749333 9.915733 0.580267 12.3648 3.293867 2.133333 2.363733 3.771733 7.867733 3.140267 11.579733l-2.176 12.7232c-0.529067 3.1232-7.7056 6.621867-9.216 9.403733l-4.7104 8.6528c0.2816 0.657067 1.2032 2.8416 1.194666 2.816l5.6576 1.604267c4.736 1.348267-7.0912 14.9248-2.2272 22.161067 1.749333 2.602667 5.282133 5.896533 6.212267 8.644266 0.750933 2.193067-1.8688 6.826667-3.797333 10.8288l2.944 2.389334c18.816-5.1712 10.001067-7.569067 24.8576-6.084267 4.4544 0.443733-3.362133-14.907733 3.490133-14.737067 12.484267 0.298667 16.366933 13.9776 12.049067 23.381334-5.333333 11.630933-15.2576 3.524267-19.524267 10.5216-4.0704 6.690133 3.933867 12.544 6.570667 17.672533 0.827733 1.604267-9.284267 4.650667-7.364267 13.056 0.2304 1.015467 4.010667 3.7888 4.7104 3.003733l3.1488-3.549866c4.155733-4.6848 9.207467-6.1184 15.189333-2.8416 2.850133 1.5616 8.0384 4.667733 10.094934 7.099733 1.4592 1.7408 0.426667 8.3712 0.6656 10.845867 0.546133 5.589333 10.248533 3.5584 10.922666 13.986133l8.721067 5.956267c2.141867 1.467733 7.765333 5.111467 7.893333 7.688533l0.5888 12.151467-8.2688 2.005333c-0.9728 14.865067-14.062933 18.944 0.699734 21.8112l9.207466 4.7616L625.493333 477.2608c3.5072-4.113067 10.9824-2.449067 13.986134 1.851733 6.382933 9.122133-5.3248 17.783467-9.429334 18.884267-2.065067 0.554667-7.150933-1.2032-9.147733-1.9968l-3.328-1.322667c-0.699733-0.2816-1.595733 2.901333-1.527467 3.643734l0.622934 6.8864 9.2416-0.392534c2.491733-0.1024 7.099733 2.875733 8.772266 5.512534 7.1936 11.298133-1.1264 16.2048-4.650666 25.233066-2.6624 8.251733-4.8128 15.36-11.733334 18.961067l-5.4528 0.059733c-7.799467-10.615467-4.411733-12.501333 1.2288-22.0416l-3.063466-10.871466-10.743467-4.667734c-2.474667 7.159467-6.1184 11.912533-13.4656 13.3376-0.4608 1.194667-1.646933 4.829867-2.4064 6.144l-5.870933 10.180267-6.408534-5.76-7.364266 10.112 12.16 6.715733c1.979733 1.092267 5.9392 4.104533 7.773866 5.802667 3.899733 3.584-2.679467 11.52-6.997333 11.050667-2.141867-0.238933-5.9648-4.334933-7.082667-6.058667-7.3472-1.365333-13.755733-4.616533-20.232533-8.925867l-8.712533-5.794133-2.781867 5.1712c-1.800533 5.7088-19.703467 3.968-15.7696 9.710933 6.050133 8.823467 14.728533 6.126933 14.498133 11.3152-0.042667 0.9984-1.425067 3.7376-2.338133 4.1728l-9.565867 4.616534c-1.322667 0.64-5.410133-1.0752-5.7344-2.423467-0.418133-1.698133-1.826133-6.135467-3.106133-5.640533l-4.957867 1.911466c-6.4 2.474667 3.626667 0.520533 1.792 13.2096-0.9216 6.3744 5.1712 4.701867 6.818134 21.418667 0.1536 1.570133-5.128533 1.9456-6.664534 1.2288-14.5664-6.741333-11.0592-3.6352-22.4256-9.250133l-8.490666 5.6832 1.757866 12.3392c0.3072 2.158933 2.935467 7.441067 0.802134 8.4736-5.290667 2.551467-8.277333 7.313067-4.6592 13.021866 1.536 2.423467 2.449067 8.285867 1.860266 11.298134-0.546133 2.773333-5.162667 6.545067-8.6784 8.584533-6.869333-8.849067-3.2512-9.326933-12.7232-15.982933 2.525867-9.5232 14.728533-16.597333 12.373334-19.959467l-6.212267-8.866133 2.602667-13.508267c-1.271467-2.440533-6.929067-6.801067-9.9584-7.918933-3.677867-1.348267-7.0144 5.546667-3.447467 15.786666 0.785067 2.244267 5.751467 4.625067 8.6272 5.691734l-9.728 4.053333c-2.935467 1.220267-3.387733 7.441067-1.390933 10.120533 3.5072 4.6848 2.6368 8.3456 1.544533 13.525334-0.597333 2.833067-2.321067 22.690133-10.743467 21.051733-1.6896-0.324267-4.872533-1.902933-6.818133-3.1744-4.078933-2.6624-2.6112-13.149867-0.256-15.5648l3.575467-3.652267c0.9472-0.9728-2.9184-3.677867-3.259734-3.1488-3.2 1.988267-6.8096 4.078933-9.7792 5.444267l-3.618133 1.655467c-2.6112 1.194667 3.0208 4.061867 7.6288 12.859733 1.083733 2.0736-2.850133 7.850667-4.394667 7.722667l-6.570666-3.618134-16.9472 3.8144c-1.860267 0.418133-5.2224 1.92-7.5264 2.730667l-2.065067 1.7664c-17.9968 1.911467-14.600533 0.887467-30.813867-7.313067l0.5632 3.84c2.3808 3.541333 4.215467 8.098133 4.497067 12.032-5.162667 4.360533-12.194133 3.310933-17.9712 0.4096l2.466133 5.640534c0.836267 1.902933 1.1264 6.852267 1.399467 9.173333l6.7328 2.56-6.877867-0.085333c-7.509333 8.584533-19.805867 12.526933-30.634666 9.531733-1.885867-0.520533-5.5552-3.473067-5.205334-5.248l1.851734-9.2928-7.150934-0.247467c-1.399467 13.2352-17.314133 17.5872-27.9296 14.165334-2.449067-0.7936-5.128533-3.0976-5.5808-4.9408-0.366933-1.476267 0.554667-5.8624 1.664-6.946134l6.152534-6.033066c-3.746133-0.6912-7.6544-0.8704-10.624-0.110934l-14.1824 3.6352c-10.180267 2.6112-31.1296-5.922133-32.657067-19.541333l-16.8448 1.3056c-5.358933 0.418133-10.5728-2.167467-13.6192-6.135467l0.1024-3.618133-0.034133-1.783467c1.570133-2.0992 4.753067-6.203733 7.04-6.152533l8.610133 0.213333c0.648533 0.017067 3.063467-1.536 2.594133-1.954133s-1.937067-1.7152-2.568533-1.800533l-9.198933-1.237334c-10.2912-1.3824-8.251733-5.879467-10.939734-4.087466l0.7424 9.975466c-4.923733-0.341333-8.994133-0.4096-10.811733-1.322666l-4.821333-2.423467c-0.0768-7.099733 11.6224-10.154667 8.644266-10.9568l-3.618133-0.9728c-17.339733-4.6592-14.788267-13.149867-22.1696-4.334933-2.261333 2.705067-10.325333 3.950933-14.728533 2.235733-3.336533-1.3056-6.229333-5.435733-9.617067-9.617067-1.6384-0.546133-3.5584-1.186133-0.068267-0.0256-0.8192 5.051733-1.0496 6.638933-2.577066 8.021334l-0.290134-5.947734-3.1488-3.456 3.831467-0.2816c-23.842133-6.869333-13.277867-15.232-25.668267-16.162133l-7.586133-0.5632c-0.162133-1.399467-0.375467-6.0416 1.186133-6.741333l6.4768-2.8928c1.476267-2.901333 3.822933-7.671467 6.101334-9.472l9.890133-7.825067c-10.538667-6.4768-15.300267 2.4832-25.949867-2.696533-5.435733-2.645333-5.8624-8.721067-4.002133-13.149867l3.8656-9.207467-6.5792-1.4592c-1.774933-0.392533-3.447467-5.905067-2.2272-7.2704l4.539733-5.077333c0 0.4096 0-2.2784 0.017067-3.234133-6.826667-9.156267 4.718933-15.9488 1.9968-17.032534l-3.822933-1.527466c-1.3824-0.554667-2.005333-3.6352-2.0224-5.632l4.898133-5.572267c2.2784-2.594133 10.222933-3.933867 12.893867-6.1184l8.541866-7.005867c6.877867-5.640533-5.3504-4.974933-4.497066-12.629333 0.469333-4.206933 3.2512-8.738133 5.7088-10.760533l5.5296-1.425067c2.082133 0.017067 4.736 0.068267 6.741333-0.0256l1.595733 1.450667 10.624 0.298666 0.187734 1.732267-1.1776 8.772267 19.3792-7.133867-7.594667-2.602667 0.452267-5.700266c-3.5072-2.184533-6.254933-5.691733-5.4784-9.344 6.144-7.995733 22.519467-7.8592 29.960533 3.037866l12.16-6.075733-1.3824-7.790933c16.2048-8.669867 12.253867-8.866133 25.514667-1.8688 0.64 0.3328 3.797333 0.622933 3.908266-0.093867l0.571734-3.575467c0.8448-5.3248 3.805867-11.4432 8.96-14.2592 19.9936-10.9312 19.0976-1.749333 24.337066-11.025066 6.3488-11.2384 10.171733-7.2704 8.644267-13.312-1.493333-5.905067 1.809067-13.866667 8.533333-16.810667 6.058667-2.653867 10.368-4.113067 18.167467-1.826133l3.012267-3.140267c-5.1712-14.754133 5.802667-19.959467 15.547733-26.999467 19.899733-14.370133 25.173333 1.493333 27.9552-10.410666l2.926933-12.526934 8.789334-5.111466c3.2768-17.518933 5.981867-12.322133 10.487466-17.28 4.309333-4.736 11.050667-8.567467 17.851734-9.975467l17.527466-3.626667c2.6368-1.809067 8.123733-5.393067 11.042134-7.560533 7.415467-5.512533-0.6656-13.047467 13.610666-20.1728 3.259733-1.621333 7.645867-3.771733 10.3168-5.358933 2.423467-1.442133 3.754667-9.386667 6.306134-10.555734l12.526933-5.725866c2.312533-1.058133 8.1152-1.0496 11.349333-1.373867l5.418667-8.0128c9.591467-14.1824 18.679467-4.8896 24.174933-9.710933 11.485867-10.077867 22.237867 4.1472 24.704 2.798933z m1.8176 77.2608c-1.672533-0.213333-6.161067-0.4864-5.9392 0.418134l0.810666 3.268266c0.3328 1.3312 3.805867 4.573867 4.718934 3.575467l2.7136-2.952533c0.6912-0.750933-1.288533-4.181333-2.304-4.309334zM166.724267 483.396267c0-0.4864-0.392533-0.878933-0.878934-0.878934s-0.878933 0.392533-0.878933 0.878934 0.392533 0.878933 0.878933 0.878933 0.878933-0.392533 0.878934-0.878933zM526.933333 550.314667c4.1472-3.456 3.985067-9.361067 1.339734-12.834134l-5.674667-7.4496c-5.0944-6.6816 8.3968-6.929067 2.542933-17.8176l6.152534-9.506133c1.937067-2.986667-1.408-11.076267-3.9168-12.706133l-11.588267 1.595733c-11.5712 11.997867 1.220267 9.6-3.976533 28.3648-3.293867 11.895467-15.6672 8.490667-13.568 12.629333l2.850133 5.614934c2.7904 5.495467 5.888 13.226667 11.784533 15.940266 3.054933 1.408 11.272533-1.5104 14.0544-3.831466z m-384.699733-10.368l6.6304-8.6272c2.935467-3.822933 5.879467-12.689067 5.7088-18.9184-9.233067 0.273067-16.2304 1.928533-24.0384 5.290666l-2.816 7.389867 6.075733 3.1232c3.208533 1.646933 5.1712 6.0672 5.521067 10.154667l0.324267 3.771733c0.059733 0.6656 1.9456-1.339733 2.6112-2.184533z m272.546133 58.1632l11.537067-9.053867c9.992533-7.850667 5.5808-9.2928 4.4544-21.879467l-1.024-11.400533-10.402133 7.168-3.575467 15.633067-9.6 1.365333c-1.809067 0.256-4.096 5.930667-3.293867 7.6288 1.792 3.771733 7.364267 7.876267 11.904 10.530133z m-85.674666 5.7088c-8.6784 5.111467-16.145067 10.1888-24.388267 16.955733 2.542933 4.1728 7.287467 6.4768 10.683733 5.154133 9.659733-3.7632 18.4832-10.3424 13.696-22.1184z m-53.563734 72.789333l9.1392-8.174933c9.898667-8.849067 14.199467 2.8672 22.007467 1.4592 3.0464-0.554667 7.7568-12.663467 3.703467-17.732267-3.1232-3.908267-8.8064 5.316267-19.626667-2.594133l-3.985067 9.3184c-0.802133 1.8688-3.447467 5.205333-5.282133 6.971733-4.0448 3.899733-12.910933 3.328-13.986133-2.346667l-1.723734-9.0624-12.834133 9.719467 10.120533 5.435733c2.304 1.237333 5.265067 3.950933 7.0912 6.058667l2.7392 3.157333c0.349867 0.401067 1.774933-1.4336 2.645334-2.210133z m47.2832 17.757867l5.674667-5.060267c3.874133-3.456 12.910933-3.652267 18.6112-3.4304l-5.6832-13.192533-16.631467 1.757866-12.7488 1.6384 4.0192 6.929067c1.0752 1.851733 1.297067 6.237867 0.9728 7.569067l5.777067 3.780266z" fill="#2C2B2B" /><path d="M802.7648 445.474133c0.187733 2.909867 0.930133 8.823467 2.645333 11.153067l4.573867 6.2208 1.629867 2.235733 2.9184 9.6512c5.162667 4.2496 12.706133 4.599467 19.771733 2.8928l11.2128 6.698667 1.3568 9.224533 6.485333-2.269866-2.8416-7.389867c2.781867 0.6912 5.546667 1.527467 7.441067 2.551467l15.4112 8.3456 8.541867-0.366934c1.476267-0.059733 5.435733 1.442133 6.5536 1.860267 0.930133 1.979733 4.625067 5.512533 5.7088 5.4272 11.554133-9.454933 21.7344-7.5008 31.095466 0.605867 2.193067 1.8944 7.552 4.471467 9.4208 6.5792l10.453334 11.8016c-3.882667 4.701867-5.870933 9.890133-4.881067 14.267733 11.9296-4.317867 31.223467 0.443733 29.380267 9.4976-0.3328 1.621333-3.643733 4.736-5.230934 4.753067l-10.4704 0.136533-1.7664-2.466133-10.973866 1.655466-3.473067 7.441067-10.410667-0.196267c-1.083733-0.017067-2.5088 3.8144-1.6128 4.445867l1.928534 1.348267c0.477867 1.92 1.5616 5.828267 2.935466 7.048533 16.6912 14.779733-0.3072 3.822933 12.4928 15.863467 1.621333 1.518933 3.4304 6.331733 2.3808 8.183466-0.896 1.5872-3.882667 4.036267-6.126933 5.2992-11.306667 6.340267-23.0656-4.590933-20.6336-0.136533l1.5872 2.909867c1.0752 1.962667 2.5856 7.790933 1.143467 9.6-2.4064 3.012267-9.1648 5.162667-12.501334 6.9888-4.0448 2.218667-8.4736 5.5296-12.424533 5.8112l-7.534933 0.529066 4.266666 4.027734c2.7904 2.6368 5.154133 5.000533 7.9872 8.0128 3.3024 3.515733 2.6368 11.0592-1.297066 14.1824-4.2496 3.370667-9.2672 4.864-14.455467 5.265066l-7.790933 0.605867c-2.176 5.1456-9.898667 5.290667-12.970667 2.244267-4.625067-4.608-14.421333 6.4512-26.666667 5.4784-1.536 0.452267-5.12 1.3056-6.946133 1.365333l-10.786133 0.3328-9.2672-1.749333-12.450134 10.0608c-1.860267 1.501867-4.906667 3.549867-6.6816 4.445866-18.875733 9.540267-13.2608 3.293867-22.519466 6.7328l-10.274134 3.8144c-0.571733 0.213333-2.397867 1.7152-2.176 1.664-5.1712 0.452267 3.797333 14.5664-8.430933 18.141867-3.882667 1.134933-10.333867-1.851733-12.714667-5.213867-6.4-9.0624 2.9184-20.48-6.161066-15.4624l-16.605867 9.1904c-2.653867 1.467733-4.9664 2.628267-6.852267 3.5328-1.723733 0.366933-4.488533 1.109333-5.376 1.527467l-2.2016 0.085333-3.797333-2.321066-2.875733-1.757867c-3.669333-2.244267 7.3984 0.059733 15.581866-10.6496 2.184533-2.850133 3.114667-10.752 0.443734-12.996267-5.102933-4.3008-11.127467-7.867733-17.783467-8.490666-4.420267-0.4096-15.5136 11.0848-14.020267 17.800533s8.8064 6.357333 9.386667 13.397333l-11.963733 3.746134c-0.802133 0.256-3.080533 3.1232-2.858667 3.131733l-6.613333 1.681067-2.176-8.874667c-1.2544-5.102933-9.2672-6.101333-13.8496-3.754667-4.4544 2.286933-8.516267 7.424-7.432534 12.458667l1.467734 6.792533-8.149334 0.136534c-0.8448 0.017067-3.729067 2.107733-3.421866 2.2528-4.744533 0.017067-9.429333-0.315733-13.9776-1.6384l-2.8928-1.8944-15.0272 0.878933c-2.986667 0.170667-7.9104-0.443733-10.453334-0.9472-18.466133-3.6608-10.4448 8.925867-25.1648 15.061333l-6.033066 2.517334c-0.5632 0.238933-2.107733 0.238933-2.722134 0.392533-0.546133 0.136533-0.6144 0.64-1.041066 1.5872-0.375467 0.196267-1.1264 0.119467-1.757867 0.136533l-2.517333-0.085333c-0.520533-0.017067-0.622933 0.5888-0.9984 1.4336-0.4608 0-1.3568 0.0512-1.7664-0.0512l-4.829867-1.288533 12.689067-8.311467 8.917333-5.614933c2.0736-1.3056 3.652267-7.296 2.747733-9.608534-3.5072-9.019733-22.493867-4.189867-28.945066 6.109867-3.643733 5.819733-7.970133 9.352533-15.419734 8.465067-8.977067-1.066667-6.3488-14.788267-17.245866-17.518934-5.751467-1.442133-12.842667-0.580267-17.621334 1.783467-5.213867 2.5856-7.031467 8.0896-5.922133 13.073067l-6.929067 0.5888-1.314133 2.184533c-10.2144 0.699733-20.599467-1.425067-29.994667-5.444267l1.2288-10.914133 1.211734-8.772267c1.800533 0.2816 5.717333 1.536 7.082666 2.816 8.004267 7.509333 21.4016 4.957867 28.279467-1.416533 1.501867-1.390933 2.525867-6.690133 1.408-8.234667-1.3056-1.800533-4.5312-3.848533-8.098133-5.922133-2.338133-1.3568-0.059733-7.432533 2.261333-9.668267l2.858667-2.321066c0.827733-0.674133 2.730667 1.373867 3.968 2.884266 7.278933 8.832 13.4656 0.520533 14.754133 9.514667 0.597333 4.164267 4.1216 7.569067 8.695467 7.296 4.317867-0.264533 9.8816-3.319467 12.6208-6.2464l14.242133-15.197867 8.516267 5.230934c7.620267 4.676267 14.788267 8.405333 24.541866 4.0704l12.5184 2.884266c5.8368 1.348267 16.494933-1.7408 18.2016-7.842133 0.938667-3.345067-4.317867-11.0592-13.021866-11.008l-10.820267 0.059733 1.365333-16.426666c0.785067-9.514667 12.945067-4.565333 18.688-15.530667 0.512-0.981333 1.655467-4.770133 2.158934-5.9648 0.3328-0.785067 3.5584-0.4864 4.437333-0.256 5.179733 1.373867-6.459733 4.923733-5.504 15.453867 0.384 4.215467 4.676267 7.364267 8.584533 7.6032 19.985067 1.194667 22.050133-28.2368 25.2928-23.808l2.884267 3.950933c2.372267 3.242667 0.298667 9.2672 18.679467 6.5792l5.077333-7.543467c1.4336-2.133333 0.930133-8.3712 0.0768-10.769066l-1.288533-3.6352c-1.143467-3.234133 11.255467-1.4848 15.121066-13.4912-3.7888-2.107733-7.415467-3.831467-10.8032-4.8896l-5.000533-1.553067c-1.297067-0.401067-3.549867 1.7152-4.804267 2.935467l-6.4768 6.3232c-1.425067 1.390933-7.2448 2.2272-7.7824 0.145066-1.442133-5.563733-8.337067-12.4672-14.626133-8.354133-8.516267 5.5552-7.278933 13.4656-10.120533 12.253867l-4.6848-1.9968c-3.677867-1.570133 8.072533-10.180267 5.341866-18.568534-1.9712-6.033067-13.934933-9.821867-8.96-17.0752 12.066133-17.5872 14.190933-6.485333 17.877334-14.3872 6.912-3.601067 9.0624-10.709333 11.733333-18.961066 3.5328-9.0368 11.844267-13.934933 4.650667-25.233067-1.681067-2.6368-6.289067-5.623467-8.772267-5.512533l-9.2416 0.392533-0.622933-6.8864c-0.068267-0.7424 0.827733-3.9168 1.527466-3.643733l3.328 1.322666c1.9968 0.7936 7.082667 2.551467 9.147734 1.9968 4.113067-1.1008 15.812267-9.762133 9.429333-18.884266-3.003733-4.292267-10.4704-5.956267-13.986133-1.851734l-10.5216 12.3136-9.207467-4.7616c-14.762667-2.875733-1.664-6.946133-0.699733-21.8112l8.2688-2.005333-0.5888-12.151467c-0.128-2.577067-5.751467-6.229333-7.893334-7.688533l-8.721066-5.956267c-0.682667-10.427733-10.385067-8.405333-10.922667-13.986133-0.238933-2.474667 0.7936-9.105067-0.6656-10.845867-2.048-2.440533-7.2448-5.538133-10.094933-7.099733-5.981867-3.2768-11.0336-1.8432-15.189334 2.8416l-3.1488 3.549867c-0.699733 0.785067-4.48-1.988267-4.7104-3.003734-1.92-8.405333 8.192-11.451733 7.364267-13.056-2.6368-5.128533-10.641067-10.9824-6.570667-17.672533 4.258133-7.005867 14.190933 1.1008 19.524267-10.5216 4.317867-9.403733 0.4352-23.082667-12.049067-23.381333-6.852267-0.162133 0.9728 15.189333-3.490133 14.737066-14.856533-1.4848-6.0416 0.913067-24.8576 6.084267l-2.944-2.389333c1.928533-4.002133 4.539733-8.6272 3.797333-10.8288-0.930133-2.747733-4.462933-6.0416-6.212266-8.644267-4.864-7.236267 6.9632-20.8128 2.2272-22.161067l-5.6576-1.604266s-0.913067-2.158933-1.194667-2.816l4.7104-8.6528c1.5104-2.773333 8.6784-6.280533 9.216-9.403734l2.176-12.7232c0.631467-3.712-1.006933-9.216-3.140267-11.579733-2.449067-2.7136-9.915733-1.544533-12.3648-3.293867l-11.588266-8.251733c0.802133-2.8416 1.911467-7.534933 2.56-11.3664l1.211733-7.150933c2.346667-1.288533 8.098133-3.362133 10.9568-2.5344l18.0736 5.2224c3.8144 1.1008 6.869333 3.729067 8.465067 7.8848 3.063467 7.953067 8.32-2.056533 17.7664 7.995733l12.381866 13.184c8.669867 0.622933 10.0096-6.997333 15.9232-1.425067l4.369067 4.1216c10.0608-1.8176 22.2976-4.1984 26.205867 7.68 1.8688 5.6832 5.4016 9.582933 8.405333 14.344534 8.0384 12.740267 5.7856 14.08 13.2864 21.0432 9.326933 8.6528 19.054933-5.7344 28.3392 8.174933 5.1456 7.714133 16.017067-2.397867 19.387733 12.433067 0.418133 1.834667 2.3552 4.8384 3.8912 6.690133 8.0128 9.693867-2.2784 9.890133 5.9136 21.802667 2.013867 2.926933 6.4256 3.165867 10.077867 2.039466 6.9888-2.1504 2.338133 8.226133 11.016533 8.6016 4.497067 0.196267 11.204267 1.339733 12.8512 4.053334l8.226134 13.525333-1.373867 10.257067 9.2928 12.0064c6.4256 8.302933 16.4608-9.642667 35.857067 9.472 4.932267 4.864 8.917333 10.5984 9.3184 16.913066zM611.84 427.8272c10.043733-6.033067 9.198933-20.002133 5.444267-25.463467-1.672533-2.423467-8.149333-4.420267-10.2912-5.051733l-9.3952-10.5472c-2.133333-2.389333-8.610133 0.554667-9.915734 3.259733-3.771733 7.816533-4.369067 14.634667 2.414934 21.077334 2.244267 2.133333 7.6288 0.938667 11.648-1.408 0.119467 0.093867 1.8176 2.6112 2.5344 3.959466l7.560533 14.173867z m321.3568 123.460267c-3.925333-0.7424-6.869333-0.9984-8.6272-0.341334-0.298667 0.657067 1.245867 4.1728 2.090667 3.729067l3.063466-1.5872 3.473067-1.800533z m-173.397333 20.3776c5.1968-3.822933 6.570667-10.146133 2.116266-14.813867-10.3168-2.244267-20.9664 1.527467-26.5216 10.658133-1.28 2.0992 0.1792 8.584533 2.474667 9.181867 8.311467 2.167467 15.726933-0.4608 21.930667-5.026133z m3.524266 58.043733c3.131733-2.363733 2.594133-8.439467-0.3584-10.368-13.781333-8.994133-31.829333 3.140267-29.8752 9.480533 1.6128 5.248 17.578667 10.427733 30.2336 0.887467z m-129.629866 59.246933c-0.2816-1.220267-1.6384-4.087467-2.6368-5.000533-11.016533-10.069333-23.9872-6.084267-35.541334 0.580267-2.0224 1.169067-1.800533 7.278933-0.2304 8.618666 13.9776 11.946667 39.876267 2.261333 38.408534-4.206933z" fill="#070607" /><path d="M618.299733 554.530133c-3.6864 7.901867-5.819733-3.208533-17.877333 14.3872-4.974933 7.253333 6.997333 11.042133 8.96 17.0752 2.7392 8.388267-9.019733 16.9984-5.341867 18.568534l4.6848 1.9968c2.8416 1.211733 1.604267-6.698667 10.120534-12.253867 6.2976-4.113067 13.184 2.7904 14.626133 8.354133 0.5376 2.082133 6.357333 1.2544 7.7824-0.145066l6.4768-6.3232c1.245867-1.220267 3.5072-3.336533 4.804267-2.935467l5.000533 1.553067c3.387733 1.0496 7.0144 2.781867 10.8032 4.8896-3.8656 12.0064-16.264533 10.257067-15.121067 13.4912l1.288534 3.6352c0.853333 2.4064 1.3568 8.644267-0.0768 10.769066l-5.077334 7.543467c-18.3808 2.688-16.315733-3.336533-18.679466-6.5792l-2.884267-3.950933c-3.242667-4.4288-5.316267 25.002667-25.2928 23.808-3.908267-0.2304-8.200533-3.387733-8.584533-7.6032-0.955733-10.530133 10.6752-14.071467 5.504-15.453867-0.878933-0.2304-4.104533-0.529067-4.437334 0.256-0.503467 1.186133-1.6384 4.974933-2.158933 5.9648-5.742933 10.973867-17.8944 6.016-18.688 15.530667l-1.365333 16.426666 10.820266-0.059733c8.712533-0.0512 13.960533 7.662933 13.021867 11.008-1.706667 6.101333-12.373333 9.1904-18.2016 7.842133l-12.5184-2.884266c-9.7536 4.334933-16.9216 0.605867-24.541867-4.0704l-8.516266-5.230934-14.242134 15.197867c-2.7392 2.926933-8.302933 5.981867-12.6208 6.2464-4.573867 0.273067-8.098133-3.131733-8.695466-7.296-1.288533-8.994133-7.4752-0.6912-14.754134-9.514667-1.237333-1.501867-3.140267-3.549867-3.968-2.884266l-2.858666 2.321066c-2.321067 2.235733-4.599467 8.311467-2.261334 9.668267 3.5584 2.065067 6.792533 4.113067 8.098134 5.922133 1.117867 1.544533 0.093867 6.843733-1.408 8.234667-6.877867 6.382933-20.2752 8.925867-28.279467 1.416533-1.365333-1.28-5.290667-2.5344-7.082667-2.816l-1.211733 8.772267-1.2288 10.914133c-8.942933 1.143467-8.439467 7.876267-22.485333 8.4224-1.288533 0.0512-5.12-1.6128-5.2224-2.901333l-0.290134-3.857067 2.2272-2.807466c0.4096-0.520533-1.5104-1.8688-2.261333-1.9968l-13.883733-2.338134c-1.092267 1.3056-4.992 5.179733-5.0688 7.074134l-0.366934 8.840533c-1.544533 4.258133-6.519467 7.432533-12.2368 6.4-5.794133-1.041067-12.6976-7.799467-13.303466-13.448533-0.221867-2.1248 1.9456-7.04 2.8928-9.352534l-3.729067-2.9184c26.2656 6.536533 19.950933-8.1664 37.282133-2.3552l4.864-3.9168c-1.467733-2.116267-4.864-7.671467-3.584-9.3696 2.423467-3.2256 6.2976-7.3472 9.710934-10.990933l-5.4272-5.367467c-6.493867 2.082133-11.255467 3.4304-16.4864 3.985067l2.065066-1.7664c2.304-0.810667 5.666133-2.312533 7.5264-2.730667l16.9472-3.8144 6.570667 3.618134c1.544533 0.128 5.4784-5.649067 4.394667-7.722667-4.608-8.797867-10.24-11.665067-7.6288-12.859733l3.618133-1.655467c2.9696-1.3568 6.5792-3.456 9.7792-5.444267 0.341333-0.529067 4.206933 2.176 3.259733 3.1488l-3.575466 3.652267c-2.3552 2.414933-3.822933 12.9024 0.256 15.5648 1.9456 1.271467 5.128533 2.8416 6.818133 3.1744 8.4224 1.6384 10.146133-18.210133 10.743467-21.051733 1.083733-5.179733 1.962667-8.840533-1.544534-13.525334-2.005333-2.679467-1.544533-8.891733 1.390934-10.120533l9.728-4.053333c-2.875733-1.066667-7.850667-3.438933-8.6272-5.691734-3.566933-10.248533-0.2304-17.134933 3.447466-15.786666 3.029333 1.109333 8.686933 5.469867 9.9584 7.918933L467.473067 623.786667l6.212266 8.866133c2.3552 3.362133-9.847467 10.436267-12.373333 19.959467 9.472 6.656 5.853867 7.133867 12.7232 15.982933 3.5072-2.039467 8.132267-5.8112 8.6784-8.584533 0.5888-3.012267-0.324267-8.874667-1.860267-11.298134-3.618133-5.7088-0.631467-10.4704 4.6592-13.021866 2.133333-1.032533-0.494933-6.314667-0.802133-8.4736l-1.757867-12.3392 8.490667-5.6832c11.357867 5.614933 7.8592 2.5088 22.4256 9.250133 1.536 0.7168 6.818133 0.341333 6.664533-1.2288-1.646933-16.7168-7.739733-15.035733-6.818133-21.418667 1.834667-12.689067-8.200533-10.734933-1.792-13.2096l4.957867-1.911466c1.28-0.494933 2.688 3.950933 3.106133 5.640533 0.3328 1.348267 4.411733 3.063467 5.7344 2.423467l9.565867-4.616534c0.904533-0.4352 2.295467-3.1744 2.338133-4.1728 0.2304-5.179733-8.448-2.491733-14.498133-11.3152-3.933867-5.7344 13.969067-4.002133 15.7696-9.710933l2.781866-5.1712 8.712534 5.794133c6.4768 4.309333 12.885333 7.552 20.232533 8.925867 1.117867 1.723733 4.9408 5.819733 7.082667 6.058667 4.317867 0.477867 10.897067-7.458133 6.997333-11.050667-1.8432-1.6896-5.794133-4.701867-7.773867-5.802667l-12.16-6.715733 7.364267-10.112 6.408533 5.76 5.870934-10.180267c0.750933-1.3056 1.937067-4.949333 2.4064-6.144 7.3472-1.425067 10.990933-6.178133 13.4656-13.3376l10.743466 4.667734 3.063467 10.871466c-5.640533 9.540267-9.028267 11.426133-1.2288 22.0416l5.4528-0.059733zM501.870933 644.369067c5.009067 4.471467 10.6752 3.575467 16.2816-0.776534 3.498667-10.709333-1.954133-22.826667-8.832-23.0912-4.855467-0.187733-10.282667 4.232533-13.8752 8.123734-0.136533 6.4 1.809067 11.6224 6.4256 15.744z" fill="#1D1C1D" /><path d="M394.9568 679.441067c5.230933-0.554667 9.992533-1.902933 16.4864-3.985067l5.4272 5.367467c-3.413333 3.652267-7.287467 7.773867-9.710933 10.990933-1.28 1.706667 2.1248 7.253333 3.584 9.3696l-4.864 3.9168c-17.3312-5.8112-11.016533 8.8832-37.282134 2.3552l-6.766933-1.681067-6.7328-2.56c-0.2816-2.321067-0.571733-7.261867-1.399467-9.173333l-2.466133-5.640533c5.777067 2.8928 12.808533 3.950933 17.9712-0.4096-0.290133-3.9424-2.116267-8.490667-4.497067-12.032l-0.5632-3.84c16.213333 8.200533 12.817067 9.224533 30.813867 7.313066z" fill="#060506" /><path d="M546.193067 731.904v1.937067l-10.88-1.6384c-2.5088-0.375467-5.410133-5.777067-5.845334-8.2688l-13.312-1.783467c-2.3808-0.315733-6.493867 2.432-9.429333 3.4304l-15.1552 5.162667c-6.673067 2.269867-6.3232-9.5744-7.970133-9.565867-1.297067 0-4.078933 0.110933-5.742934 0.221867l-5.538133 0.384 1.314133-2.184534 6.929067-0.5888c-1.109333-4.983467 0.708267-10.487467 5.922133-13.073066 4.778667-2.372267 11.869867-3.2256 17.621334-1.783467 10.897067 2.730667 8.2688 16.452267 17.245866 17.518933 7.4496 0.878933 11.776-2.653867 15.419734-8.465066 6.4512-10.299733 25.437867-15.1296 28.945066-6.109867 0.904533 2.321067-0.674133 8.302933-2.747733 9.608533l-8.917333 5.614934-12.689067 8.311466 4.829867 1.288534z" fill="#242424" /><path d="M670.702933 703.829333c6.869333 0.401067 3.4048-1.4336 8.994134-2.884266l2.7136 9.122133c-6.929067 11.392-10.257067 3.515733-11.434667 14.7456-0.119467 1.1776-3.421867 3.584-4.266667 2.7392l-3.9168-3.8912-10.180266-1.578667c-4.113067-0.64-8.260267-3.959467-11.6224-7.611733l-10.453334 0.042667c-0.3072-0.1536 2.5856-2.244267 3.421867-2.2528l8.149333-0.136534-1.467733-6.792533c-1.083733-5.034667 2.978133-10.171733 7.432533-12.458667 4.5824-2.3552 12.5952-1.3568 13.8496 3.754667l2.176 8.874667 6.613334-1.681067z" fill="#252525" /><path d="M698.5984 701.960533c-0.418133 0.5376-3.805867 1.006933-4.846933 0.4608l-6.562134-3.413333-7.492266 1.9456c-5.589333 1.450667-2.1248 3.285333-8.994134 2.884267-0.213333-0.008533 2.056533-2.884267 2.858667-3.131734l11.963733-3.746133c-0.580267-7.04-7.927467-6.843733-9.386666-13.397333s9.6-18.218667 14.020266-17.800534c6.664533 0.622933 12.689067 4.189867 17.783467 8.490667 2.6624 2.244267 1.732267 10.146133-0.443733 12.996267-8.183467 10.7008-19.242667 8.405333-15.581867 10.6496l2.875733 1.757866 3.797334 2.321067z" fill="#1B1B1B" /><path d="M756.9408 690.158933c-0.221867 0.0512 1.595733-1.450667 2.176-1.664l10.274133-3.8144c9.258667-3.438933 3.643733 2.807467 22.519467-6.7328l1.911467 7.176534c1.211733 4.548267-0.0512 10.734933-3.4048 14.2848-2.781867 2.952533-9.147733 4.7872-13.7472 3.9936-7.483733-1.297067-12.014933-5.956267-13.021867-13.346134l-6.698667 0.093867z" fill="#3C3C3C" /><path d="M86.0672 535.2448l4.437333 13.457067c-0.810667 9.6768-14.890667 10.1632-22.272 9.198933-2.978133-1.271467-6.4768-3.729067-7.278933-6.272-2.065067-6.5536 6.5024-15.325867 13.7216-15.735467l11.400533-0.648533z" fill="#181718" /><path d="M103.901867 619.5968c-1.3568-0.1024-1.723733-3.0208-2.397867-5.282133l-1.237333-4.130134c-0.1792-0.605867-1.646933 0.2816-2.210134 0.298667l2.525867-2.628267 3.165867-3.2768c0.9728-1.006933-0.631467-5.546667-2.0224-5.640533l-8.8064-0.196267c-0.136533-0.802133 3.601067-2.747733 5.034666-2.5088l5.742934 0.9472c1.092267 0.1792 1.220267 2.3552 1.962666 5.265067 0.4352 0.093867 2.56 0.597333 2.6112-0.264533l0.2816-4.292267c0.0768-1.2288-1.9968-3.669333-3.114666-4.155733l-5.870934-2.568534c-2.781867-1.220267-4.957867-7.534933-5.376-11.008l-3.370666 0.3584c1.245867-1.0752 2.312533-5.9648 0.853333-7.1424-4.8896-3.950933-11.281067-8.174933-16.375467-8.2432-0.631467-1.399467-2.2016-3.908267-3.3536-4.693333l-3.720533-2.542933c7.389867 0.9728 21.461333 0.4864 22.272-9.198934l-4.437333-13.457066c7.338667-4.744533 1.937067-2.747733 7.3216-8.8576 0.017067 1.9968 0.64 5.077333 2.0224 5.632l3.822933 1.527466c2.7136 1.083733-8.823467 7.876267-1.9968 17.032534-0.017067 0.964267-0.0256 3.643733-0.017067 3.234133l-4.539733 5.077333c-1.220267 1.3568 0.452267 6.869333 2.2272 7.2704l6.5792 1.4592-3.8656 9.207467c-1.860267 4.4288-1.4336 10.504533 4.002133 13.149867 10.6496 5.179733 15.4112-3.771733 25.949867 2.696533l-9.890133 7.825067c-2.2784 1.800533-4.625067 6.570667-6.101334 9.472l-6.4768 2.8928c-1.570133 0.699733-1.348267 5.341867-1.186133 6.741333z" fill="#EBEBEB" /><path d="M189.201067 672.3584c0 0.597333-0.093867 1.28 0.085333 1.621333l1.8944 3.669334-0.930133 8.0128c-0.401067 3.473067-7.4752 5.572267-10.513067 3.950933-7.594667-4.053333-8.823467-11.6736-5.8112-18.5856l1.621333-3.720533 8.055467-0.0768 5.597867 5.128533z" fill="#212120" /><path d="M200.2432 670.446933l-1.826133-3.165866c-0.520533-0.904533-3.8912-0.5376-5.162667-0.392534l-5.9904 0.733867 1.9456 4.736-5.597867-5.128533-8.055466 0.0768c0.418133-0.964267 1.664-2.389333 2.705066-2.432l4.087467-0.136534c-0.4096-0.750933-1.442133-2.2784-1.450667-3.0976l4.821334 2.423467c1.809067 0.913067 5.879467 0.981333 10.811733 1.322667l-0.7424-9.975467c2.688-1.792 0.648533 2.705067 10.939733 4.087467l9.198934 1.237333c0.631467 0.085333 2.0992 1.3824 2.568533 1.800533s-1.9456 1.9712-2.594133 1.954134l-8.610134-0.213334c-2.286933-0.059733-5.469867 4.053333-7.04 6.152534z" fill="#D5D5D5" /><path d="M820.206933 454.340267l-6.024533 5.213866c-0.836267 1.3056-2.090667 3.9936-2.568533 5.538134l-1.629867-2.235734-4.573867-6.2208c-1.7152-2.3296-2.4576-8.2432-2.645333-11.153066l2.8416 4.949333c2.679467-3.191467 10.683733-4.770133 12.893867-1.7664 0.853333 1.160533 1.536 4.369067 1.706666 5.6832z" fill="#626463" /><path d="M414.327467 718.0032l-0.503467-2.414933c-0.128-0.597333-0.785067-0.6144-3.7632-1.860267l-3.387733 3.345067c-0.827733 2.397867-1.5872 4.9664-2.747734 4.9408l-5.7088-0.119467-3.2512 4.8896 0.366934-8.840533c0.0768-1.8944 3.976533-5.768533 5.0688-7.074134l13.883733 2.338134c0.750933 0.128 2.670933 1.476267 2.261333 1.9968l-2.2272 2.807466z" fill="#656565" /><path d="M145.604267 486.3232c1.4592 0.2304 4.189867-0.418133 5.230933-1.416533l3.805867-3.6608-6.5536-7.697067 3.0976-3.2256c-0.776533 3.652267 1.9712 7.159467 5.4784 9.344l-0.452267 5.700267 7.594667 2.602666-19.3792 7.133867 1.1776-8.772267z" fill="#C4C4C6" /><path d="M825.582933 461.687467c0.810667 0.648533 3.182933 2.141867 3.2 3.1488l0.093867 5.512533c-4.113067 1.954133-12.5184 3.1488-13.4656-4.1984-0.401067-3.106133 7.389867-5.8112 10.171733-4.462933z" fill="#575858" /><path d="M953.9328 549.3504l-10.564267 0.0256c0.392533 1.297067 0.759467 2.525867 0.699734 2.321067l-3.592534 0.9216c-2.414933 0.622933 3.976533 5.307733 2.304 4.4288 0.0768 0.042667-1.501867 2.730667-2.005333 2.688l-9.847467-0.981334c-1.4592-0.145067-3.5328-0.768-3.4816-0.034133l0.1792 2.8416-1.928533-1.348267c-0.896-0.622933 0.520533-4.462933 1.6128-4.445866l10.410667 0.196266 3.473066-7.441066 10.973867-1.655467 1.7664 2.466133z" fill="#464646" /><path d="M145.425067 484.590933l-10.624-0.298666-1.595734-1.450667 11.374934-0.503467 0.8448 2.2528z" fill="#C4C4C6" /><path d="M706.184533 700.347733c-1.373867 0.657067-3.490133 1.220267-5.376 1.527467 0.887467-0.426667 3.652267-1.160533 5.376-1.527467z" fill="#1B1B1B" /><path d="M191.1808 677.649067l-1.8944-3.669334c0.785067 0.247467 1.902933 0.443733 1.928533 1.041067 0.0256 0.631467 0.042667 2.013867-0.0256 2.619733zM200.183467 675.857067c-0.315733-0.0256-2.7392-2.065067-1.928534-2.5088l2.030934-1.109334-0.1024 3.618134z" fill="#D5D5D5" /><path d="M526.933333 550.314667c-2.781867 2.321067-11.008 5.239467-14.0544 3.831466-5.896533-2.7136-8.9856-10.4448-11.784533-15.940266l-2.850133-5.614934c-2.0992-4.138667 10.2656-0.733867 13.568-12.629333 5.1968-18.7648-7.594667-16.366933 3.976533-28.3648l11.588267-1.595733c2.5088 1.6384 5.853867 9.719467 3.9168 12.706133l-6.152534 9.506133c5.853867 10.888533-7.637333 11.136-2.542933 17.8176l5.674667 7.4496c2.645333 3.473067 2.807467 9.378133-1.339734 12.834134z" fill="#141413" /><path d="M275.541333 676.608c-0.8704 0.776533-2.295467 2.6112-2.645333 2.210133l-2.7392-3.157333c-1.826133-2.107733-4.7872-4.821333-7.0912-6.058667l-10.120533-5.435733 12.834133-9.719467 1.723733 9.0624c1.083733 5.674667 9.941333 6.2464 13.986134 2.346667 1.834667-1.7664 4.488533-5.102933 5.282133-6.971733l3.985067-9.3184c10.820267 7.9104 16.503467-1.314133 19.626666 2.594133 4.053333 5.077333-0.648533 17.186133-3.703466 17.732267-7.808 1.408-12.1088-10.308267-22.007467-1.4592l-9.1392 8.174933z" fill="#0D0D0D" /><path d="M414.779733 598.109867c-4.539733-2.653867-10.120533-6.7584-11.904-10.530134-0.810667-1.706667 1.476267-7.3728 3.293867-7.6288l9.6-1.365333 3.575467-15.633067 10.402133-7.168 1.024 11.400534c1.134933 12.586667 5.546667 14.0288-4.4544 21.879466l-11.537067 9.053867z" fill="#0A0909" /><path d="M322.824533 694.365867l-5.777066-3.780267c0.324267-1.3312 0.1024-5.717333-0.9728-7.569067l-4.0192-6.929066 12.7488-1.6384 16.631466-1.757867 5.6832 13.192533c-5.700267-0.221867-14.737067-0.034133-18.6112 3.4304l-5.674666 5.060267z" fill="#070707" /><path d="M142.2336 539.946667c-0.6656 0.8448-2.551467 2.850133-2.6112 2.184533l-0.324267-3.771733c-0.349867-4.078933-2.312533-8.4992-5.521066-10.154667l-6.075734-3.1232 2.816-7.389867c7.808-3.362133 14.805333-5.0176 24.0384-5.290666 0.170667 6.229333-2.7648 15.095467-5.7088 18.9184l-6.6304 8.6272z" fill="#0C0C0B" /><path d="M329.105067 603.818667c4.7872 11.776-4.036267 18.3552-13.696 22.1184-3.396267 1.322667-8.149333-0.981333-10.683734-5.154134 8.2432-6.775467 15.709867-11.844267 24.388267-16.955733z" fill="#080808" /><path d="M515.933867 319.240533c1.015467 0.128 2.9952 3.566933 2.304 4.309334l-2.7136 2.952533c-0.913067 0.9984-4.394667-2.244267-4.718934-3.575467l-0.810666-3.268266c-0.221867-0.904533 4.266667-0.631467 5.9392-0.418134z" fill="#070607" /><path d="M165.845333 483.396267m-0.878933 0a0.878933 0.878933 0 1 0 1.757867 0 0.878933 0.878933 0 1 0-1.757867 0Z" fill="#C4C4C6" /><path d="M611.84 427.8272l-7.560533-14.173867c-0.7168-1.348267-2.414933-3.8656-2.5344-3.959466-4.0192 2.338133-9.403733 3.541333-11.648 1.408-6.784-6.442667-6.178133-13.2608-2.414934-21.077334 1.3056-2.705067 7.7824-5.649067 9.915734-3.259733l9.3952 10.5472c2.141867 0.622933 8.6272 2.619733 10.2912 5.051733 3.754667 5.461333 4.590933 19.4304-5.444267 25.463467z" fill="#202022" /><path d="M633.693867 688.955733c1.467733 6.468267-24.4224 16.145067-38.408534 4.206934-1.570133-1.339733-1.792-7.458133 0.2304-8.618667 11.554133-6.664533 24.516267-10.6496 35.541334-0.580267 0.9984 0.913067 2.363733 3.780267 2.6368 5.000534z" fill="#2A292C" /><path d="M763.323733 629.7088c-12.654933 9.540267-28.6208 4.360533-30.2336-0.887467-1.954133-6.340267 16.093867-18.474667 29.8752-9.480533 2.952533 1.928533 3.490133 8.004267 0.3584 10.368z" fill="#2F2E30" /><path d="M759.799467 571.665067c-6.203733 4.5568-13.6192 7.1936-21.930667 5.026133-2.295467-0.597333-3.746133-7.082667-2.474667-9.181867 5.5552-9.130667 16.196267-12.9024 26.5216-10.658133 4.4544 4.667733 3.080533 10.990933-2.116266 14.813867z" fill="#282829" /><path d="M933.1968 551.287467l-3.473067 1.800533-3.063466 1.5872c-0.8448 0.4352-2.389333-3.080533-2.090667-3.729067 1.749333-0.657067 4.701867-0.401067 8.6272 0.341334z" fill="#464646" /><path d="M501.870933 644.369067c-4.616533-4.113067-6.562133-9.344-6.4256-15.744 3.592533-3.882667 9.019733-8.302933 13.8752-8.123734 6.877867 0.264533 12.330667 12.381867 8.832 23.0912-5.6064 4.352-11.272533 5.248-16.2816 0.776534z" fill="#2C2B2B" /><path d="M869.888 475.4176c-2.7904 2.6624-8.081067 3.6096-11.588267 2.2784-1.655467-0.631467-2.389333-6.254933-0.682666-6.8608 3.0976-1.1008 8.695467 0.4608 12.270933 4.573867z" fill="#6B696A" /><path d="M85.9136 580.8896c-1.0496 2.056533-1.3568 4.224-1.3824 7.296-0.119467 0.8704-0.631467 2.781867-1.493333 2.6624l-5.6576-0.759467-2.286934-3.029333c-0.64-0.8448 1.723733-3.473067 2.7392-3.968l4.155734-2.030933 3.9424-0.170667z" fill="#454643" /></svg>