<?xml version="1.0" standalone="no"?><!DOCTYPE svg PUBLIC "-//W3C//DTD SVG 1.1//EN" "http://www.w3.org/Graphics/SVG/1.1/DTD/svg11.dtd"><svg class="icon" width="256px" height="256.00px" viewBox="0 0 1024 1024" version="1.1" xmlns="http://www.w3.org/2000/svg"><path d="M634.871467 210.491733c-21.137067-42.734933 9.378133-89.6256 58.197333-75.537066 19.114667 5.512533 15.419733 28.3392 19.003733 33.032533 1.621333 2.1248 44.125867 15.197867 51.268267 15.249067 27.221333 0.1792 42.990933-32.085333 76.765867-0.8448 10.973867 10.146133 9.173333 25.352533 30.907733 28.1088 3.882667 14.865067 3.933867 38.033067 7.901867 51.140266 2.833067 9.352533 16.4096 13.696 19.037866 22.638934 2.824533 9.608533 5.4016 31.863467 7.790934 44.305066 0.529067 2.747733-15.5648 30.830933 1.006933 47.616 26.0352 8.132267 43.648 8.704 68.4544 21.845334-34.551467-1.399467-1.297067 35.003733 0.170667 44.9792 1.5104 10.248533 1.595733 38.715733-1.032534 47.9232-8.430933 29.499733-97.3312 18.961067-109.294933 71.381333-4.5568 19.959467 4.241067 22.903467 12.919467 37.1456-20.138667-13.073067-9.8816-5.009067-16.989867 7.176533-19.370667 33.2032-82.176 94.6944-87.261867 128.2816-3.643733 24.004267 6.698667 14.0032 12.168534 18.705067 5.674667 4.872533 12.970667 28.689067 26.8288 32.989867l37.4784-13.5168c-0.9472 1.245867 2.2272 11.605333-6.690134 17.595733-12.526933 8.4224-45.960533 12.6208-62.8992 20.471467-48.529067 22.510933-50.141867 76.637867-90.350933 104.132266-41.557333 28.416-65.314133-2.944-94.3872-30.4896-38.3488 16.725333-51.9424 2.833067-79.061333-21.410133-4.7104-10.222933-12.330667-20.053333-13.892267-31.274667-2.833067-20.394667 1.928533-44.885333 0-65.962666 10.615467-27.144533 22.8096-55.168 31.658667-82.926934 4.539733-14.242133 4.923733-22.647467-3.874134-35.1488 6.766933 2.372267 15.9744 4.0704 23.236267 6.016 59.912533-10.914133 84.0192-102.161067 39.278933-137.984 31.249067-31.837867 47.7696-61.184 41.557334-107.537066-4.232533-31.598933-33.518933-65.962667-17.2288-100.804267 9.378133-20.061867 41.898667-40.9856 37.410133-64.802133-1.9968-10.581333-14.933333-22.084267-20.061867-32.4608z m208.366933 194.474667c5.026133-10.120533 11.793067-19.899733 13.969067-31.1552-8.763733-21.154133-6.5536-45.815467-17.476267-66.048-3.498667-6.4768-12.945067-9.3952-16.1792-18.551467-10.6496-30.139733-11.4688-54.135467-42.990933-75.0848-23.893333-15.880533-55.6288-12.117333-72.772267-38.331733l-9.6768 23.517867c26.453333 29.4144 37.5552 80.119467 16.5632 115.310933-6.877867 11.537067-27.008 17.7152-24.2432 34.773333 26.888533-10.368 52.061867-5.341867 79.7184-7.074133 13.602133-0.853333 24.994133-16.853333 38.365867 3.6608 1.578667 6.050133-21.998933 43.588267-27.758934 48.605867-23.5008 20.497067-75.741867 1.024-94.1568 51.712-10.282667 28.296533 9.480533 21.717333 21.256534 35.003733 8.849067 9.984 6.2464 27.886933 17.297066 34.7904 1.066667 23.509333 9.079467 42.487467 7.227734 66.312533-2.602667 33.425067-16.7168 95.914667-38.724267 120.977067-13.354667 15.2064-41.284267 22.9888-44.945067 45.3632-2.466133 15.104 6.570667 10.794667 17.467734 10.530133 22.647467-0.554667 38.050133-12.561067 55.637333-27.7248C813.9008 652.168533 738.850133 509.44 801.365333 449.928533c11.426133-10.871467 29.892267-17.1264 38.528-31.223466 3.6096-5.888 2.235733-11.511467 3.336534-13.730134z" fill="#E9A14C" /><path d="M183.406933 293.8368l20.821334 0.093867c-1.4336 37.367467-19.293867 68.258133-13.866667 107.554133 2.798933 20.2752 31.803733 52.394667 35.089067 76.475733l-3.601067 10.5472c-61.038933 52.48-20.736 89.813333 44.910933 97.0496 10.513067 17.399467 11.8272 37.649067 24.490667 55.381334 4.138667 5.802667 30.199467 39.236267 32.128 41.045333 3.2512 3.037867 10.154667-0.2816 12.834133 0.810667 17.032533 6.954667 24.046933 25.2672 34.730667 34.730666l-13.738667 52.3776-0.827733 23.364267c-34.6112 2.312533-13.474133 35.9168 4.9408 41.514667 12.424533 3.780267 26.564267 0.964267 37.410133-6.126934-1.2544 2.542933 0.520533 12.919467-3.157333 20.932267-15.7184 34.167467-53.614933 47.684267-86.8608 30.8736-12.066133-6.101333-32.6656-28.142933-39.338667-30.1056-18.3808-5.410133-46.455467 2.628267-67.464533-1.988267-15.470933-3.4048-49.288533-24.6784-60.288-36.957866-37.230933-41.557333-52.352-90.914133-34.9184-145.3312-64.085333-49.322667-122.658133-104.3968-102.741333-193.979734 2.628267-11.8272 31.4112-51.703467 40.541866-67.114666 1.646933-2.781867 9.3952-4.923733 7.236267-13.8496 15.906133 12.0064 24.7296 2.6624 41.378133-0.034134 1.169067 12.5184-1.834667 26.513067-0.136533 38.647467 1.3056 9.309867 6.929067 9.378133 7.0912 9.966933 2.449067 8.6528 4.036267 19.566933 6.946133 27.784534-10.8288 14.370133-40.635733 16.145067-42.1376 38.2464-0.366933 5.410133 19.336533 95.146667 22.493867 102.946133 6.8096 16.8192 42.222933 36.642133 46.464 50.781867 1.271467 4.2496 6.920533 36.770133 6.690133 39.517866-1.1776 14.267733-17.749333 30.242133-11.8784 48.853334 2.372267 7.5264 23.04 32.7168 30.353067 39.2704 30.404267 27.264 83.566933 47.5136 106.461867 2.048 22.9632-45.585067-3.524267-53.9904-20.864-87.645867-14.2592-27.6736-22.9632-58.001067-41.2672-83.754667-13.781333-19.3792-35.310933-34.944-47.069867-57.335466-5.9136-19.473067 24.8832-33.015467 33.5872-48.622934 1.9456-9.326933-10.2656-23.867733-13.371733-30.4128-34.696533-73.275733-54.775467-117.486933 6.946133-187.528533z" fill="#D98834" /><path d="M975.2064 398.020267c32.6912 17.314133 47.522133 41.514667 48.7936 79.778133-3.959467 34.9952-61.602133 59.9296-68.676267 91.502933-7.4496 33.271467 27.3408 45.038933 32.674134 69.435734 8.123733 37.162667-26.752 70.613333-60.5184 79.624533-6.2464 24.832-0.964267 51.268267-8.942934 77.934933-2.756267 9.207467-25.079467 36.155733-33.826133 42.581334-26.368 19.387733-50.6368 18.090667-78.395733 25.787733-36.369067 10.077867-32.827733 53.9136-56.593067 75.374933-11.4944 10.385067-54.929067 28.842667-69.418667 27.793067-30.421333-2.193067-58.564267-38.144-77.7216-40.9856-11.451733-1.698133-50.807467 18.670933-64.9472-0.955733 6.8608 0.930133 36.514133 4.718933 34.7136-6.929067-30.651733-5.819733-43.5712-29.559467-55.552-55.586133 27.118933 24.2432 40.712533 38.144 79.061334 21.410133 29.073067 27.5456 52.829867 58.9056 94.3872 30.4896 40.200533-27.485867 41.821867-81.621333 90.350933-104.132267 16.938667-7.8592 50.3808-12.0576 62.8992-20.471466 8.9088-5.9904 5.742933-16.349867 6.690133-17.595734 4.795733-6.314667 16.059733-8.814933 19.669334-25.472 4.5824-21.137067-3.285333-48.503467 2.1504-67.3024 2.7904-9.668267 23.662933-29.5424 26.018133-43.7248 1.655467-9.924267-14.2336-27.5712-20.061867-37.137066-8.6784-14.242133-17.476267-17.186133-12.919466-37.1456 11.963733-52.420267 100.864-41.8816 109.294933-71.381334 2.628267-9.198933 2.5344-37.674667 1.032533-47.9232-1.467733-9.975467-34.722133-46.3872-0.170666-44.9792z" fill="#CE7B2A" /><path d="M322.321067 134.084267l-13.917867 20.829866 21.128533 3.1744 13.047467 61.764267c-26.692267 42.0864-65.186133 101.154133-53.845333 152.7296 3.592533 16.3584 23.816533 32.580267 19.703466 53.230933-33.681067 49.092267-47.726933 99.652267-41.6768 159.752534-65.646933-7.227733-105.949867-44.5696-44.910933-97.0496l3.601067-10.5472c-3.2768-24.081067-32.2816-56.200533-35.089067-76.475734-5.4272-39.296 12.433067-70.186667 13.866667-107.554133l-20.821334-0.093867c3.899733-15.197867-20.983467-23.9104-34.432-28.1088l13.5936-62.190933c1.6896-3.003733 0-9.147733 6.596267-17.5104 40.7296-51.566933 71.5264-19.515733 114.090667-31.965867 12.706133-3.720533 9.088-18.056533 39.057066-19.976533z" fill="#F2B45D" /><path d="M530.688 71.5776c8.2432 5.495467 10.9568 22.126933 13.892267 27.784533 5.8112 19.746133-11.460267 24.2176-17.5104 34.773334-4.957867 8.6528-1.954133 17.860267-3.328 20.795733-30.472533 65.0752-38.237867 95.445333-35.037867 170.478933 0.5376 12.6464 8.311467 22.510933 7.534933 34.116267-0.9984 14.890667-16.776533 48.426667-28.066133 59.3408l-31.2576-27.0336c-3.396267 1.902933-6.775467 5.4784-10.4192 6.1952-4.3264 0.853333-11.178667-1.271467-13.892267 0l-6.946133-125.021867c5.896533-14.037333 9.344-27.3408 13.892267-41.6768 12.791467-5.853867 10.0608-34.363733 15.172266-40.721066 22.229333-27.6736 22.2464-35.1488 39.048534-68.2752 10.589867-20.872533 33.826133-33.834667 22.186666-57.685334 2.1504-2.0992 31.069867 4.497067 34.722134 6.9376z" fill="#9B4617" /><path d="M377.8816 154.922667c-4.829867-1.493333-12.16-8.814933-13.8752-6.9632-7.773867 12.7232-2.747733 58.922667 10.427733 62.5152 26.666667 7.2704 39.338667-46.088533 65.937067-48.605867 2.670933 3.0464-16.503467 43.537067-19.4816 53.717333-1.7664 6.024533-0.315733 12.509867-1.339733 15.744-4.548267 14.327467-7.995733 27.639467-13.892267 41.6768C382.122667 329.0112 343.1936 375.125333 308.420267 425.813333c4.113067-20.650667-16.110933-36.872533-19.703467-53.230933-11.3408-51.575467 27.1616-110.6432 53.845333-152.7296l-13.047466-61.764267-21.128534-3.1744 13.917867-20.829866c21.009067-1.348267 45.909333-0.1024 55.569067 20.8384z" fill="#E1943B" /><path d="M822.4 134.084267l4.061867 6.1696c3.106133 1.604267 6.7328 0.145067 9.8304 0.776533 2.3552 0.477867 5.051733-0.657067 6.946133 0 2.167467 10.0864 10.717867 15.035733 20.8384 13.892267 8.567467 6.289067 8.157867 7.355733 13.892267 13.892266l-20.855467 10.4704 0.273067 6.562134c10.7264 8.192 10.837333 13.9264 13.636266 24.644266-21.7344-2.756267-19.933867-17.954133-30.907733-28.1088-33.774933-31.232-49.544533 1.032533-76.765867 0.8448-7.1424-0.0512-49.646933-13.124267-51.268266-15.249066-3.584-4.6848 0.110933-27.511467-19.003734-33.032534-48.827733-14.088533-79.3344 32.7936-58.197333 75.537067l-20.010667 7.7824c-1.578667 14.702933-2.961067 23.995733-14.72 33.885867-0.768-17.339733 1.006933-34.9952 0.324267-52.3776-0.7424-19.037867-2.346667-20.5568-0.529067-41.531734 1.928533-22.2976 4.608-43.776 7.150934-65.8432 4.667733-3.968 7.517867-16.827733 18.210133-19.976533 21.188267-6.237867 69.504 8.7552 88.482133 20.932267 28.791467 18.474667 27.8272 44.9536 70.263467 40.584533 20.181333-2.082133 12.629333-7.765333 38.357333 0.128z" fill="#E0913D" /><path d="M162.568533 203.5456l-13.5936 62.190933c13.448533 4.189867 38.340267 12.910933 34.432 28.1088-61.7216 70.050133-41.642667 114.2528-6.946133 187.528534 6.741333 36.4288-46.3872 47.854933-59.221333 21.026133-5.2224-10.914133-1.339733-21.188267-4.369067-30.301867-1.245867-3.746133-5.7344-4.2496-5.8624-4.616533-2.909867-8.2176-4.497067-19.131733-6.946133-27.784533 0.7936-14.464-1.988267-29.755733 1.1264-44.032 2.807467-12.859733 20.053333-30.208 19.805866-42.7008-0.136533-7.108267-6.545067-13.934933-7.261866-21.248-2.048-20.846933 21.376-38.749867 21.0432-58.717867-6.417067 4.6592-14.506667 4.5568-20.821334 6.946133 25.540267-15.3344 28.501333-45.713067 40.1408-67.805866 2.653867-5.034667 7.662933-7.1424 8.4736-8.593067z" fill="#F6C372" /><path d="M530.688 648.064c8.797867 12.509867 8.413867 20.906667 3.874133 35.1488-8.849067 27.758933-21.0432 55.7824-31.658666 82.926933-0.1792 0.452267-4.949333 0.759467-6.075734 4.360534-5.435733 17.4592 6.741333 38.7328-19.012266 50.816l-16.5888-6.562134c-0.162133-2.304 0.110933-4.6336 0-6.946133-1.5872-33.245867 5.137067-74.0352 0.162133-107.818667-1.885867-12.8-15.598933-17.501867-14.0544-31.095466 10.5728-27.8784 5.461333-28.100267 39.2448-40.9088 9.002667-1.4848 32.341333 15.9488 44.1088 20.0704z" fill="#A9531D" /><path d="M461.226667 807.816533l-31.044267-27.5712c-3.2256 1.032533-28.066133 41.480533-31.470933 48.4096-10.845867 7.0912-24.9856 9.9072-37.410134 6.126934-18.414933-5.597867-39.552-39.202133-4.9408-41.514667l0.827734-23.364267 13.738666-52.3776c17.7408 15.7184 53.640533 37.1968 62.4896 3.447467 5.282133-20.138667 6.212267-31.761067 13.917867-52.0704-1.536 13.5936 12.177067 18.295467 14.0544 31.095467 4.9664 33.783467-1.749333 74.5728-0.162133 107.818666z" fill="#C16924" /><path d="M530.688 71.5776c-3.652267-2.440533-32.571733-9.0368-34.722133-6.9376 11.648 23.850667-11.5968 36.8128-22.186667 57.685333-16.802133 33.117867-16.8192 40.6016-39.048533 68.2752-5.111467 6.357333-2.3808 34.8672-15.172267 40.721067 1.024-3.2256-0.426667-9.719467 1.339733-15.744 2.978133-10.180267 22.152533-50.6624 19.4816-53.717333-26.5984 2.517333-39.2704 55.876267-65.937066 48.605866-13.184-3.592533-18.2016-49.792-10.427734-62.5152 1.7152-1.851733 9.045333 5.4784 13.8752 6.9632 5.282133 1.629867 12.3136 0.273067 17.4592 6.075734 18.7648-17.518933 19.345067-46.574933 34.816-68.4032 22.126933-31.240533 68.1216-52.360533 100.5312-21.0176z" fill="#D17E33" /><path d="M600.1408 252.16c-2.397867 2.013867-11.050667 6.894933-13.892267 6.946133l-6.946133-6.946133c-0.759467-2.167467 0.861867-5.188267 0-6.946133-3.345067-6.852267-6.0672-14.3872-10.606933-20.625067-16.384-22.519467-51.746133-35.669333-44.9536-69.666133 1.373867-2.926933-1.629867-12.142933 3.328-20.795734 6.0416-10.555733 23.313067-15.0272 17.5104-34.773333 1.134933 2.184533 9.3184 5.051733 7.2192 13.576533 20.736 4.130133 40.174933-7.68 55.296-20.522666-2.542933 22.0672-5.2224 43.554133-7.150934 65.8432-1.8176 20.974933-0.213333 22.485333 0.529067 41.531733 0.682667 17.3824-1.092267 35.037867-0.324267 52.3776z" fill="#E9AA56" /><path d="M100.053333 439.697067c-0.170667-0.5888-5.794133-0.657067-7.0912-9.966934-1.698133-12.1344 1.3056-26.120533 0.136534-38.647466-16.648533 2.696533-25.472 12.032-41.378134 0.034133 2.158933 8.925867-5.589333 11.076267-7.236266 13.8496 0.930133-63.138133 6.843733-101.3248 69.4528-125.021867 6.314667-2.389333 14.404267-2.286933 20.821333-6.946133 0.324267 19.968-23.0912 37.8624-21.0432 58.717867 0.7168 7.3216 7.125333 14.148267 7.261867 21.248 0.247467 12.484267-16.989867 29.841067-19.805867 42.7008-3.1232 14.2848-0.341333 29.568-1.1264 44.032z" fill="#E49F47" /><path d="M877.969067 168.814933c1.245867 1.425067 6.9888 1.8944 10.24 6.8352 12.910933 19.592533 10.3936 44.381867 21.085866 62.557867 13.6192 23.159467 61.269333 28.637867 36.898134 68.352l-40.439467 22.007467c-2.389333-12.4416-4.957867-34.696533-7.790933-44.305067-2.628267-8.9344-16.213333-13.277867-19.037867-22.638933-3.959467-13.098667-4.010667-36.2752-7.901867-51.140267-2.798933-10.717867-2.909867-16.443733-13.636266-24.644267l-0.273067-6.562133 20.855467-10.4704z" fill="#D78630" /><path d="M516.795733 863.377067c11.989333 26.018133 24.900267 49.757867 55.552 55.586133 1.800533 11.648-27.8528 7.8592-34.7136 6.929067-12.782933-1.732267-11.844267-6.058667-13.892266-6.946134l-27.784534-20.8384c-1.322667-1.467733-6.877867-1.962667-10.24-6.826666-13.764267-19.950933-22.818133-52.266667-24.490666-76.5184l16.5888 6.562133c25.7536-12.0832 13.576533-33.3568 19.012266-50.816 1.1264-3.601067 5.896533-3.908267 6.075734-4.360533 1.928533 21.077333-2.824533 45.576533 0 65.962666 1.553067 11.221333 9.181867 21.0432 13.892266 31.274667z" fill="#C16924" /><path d="M864.0768 154.922667c-10.112 1.152-18.670933-3.805867-20.8384-13.892267 10.9568 3.805867 13.5936 8.576 20.8384 13.892267zM836.292267 141.0304c-3.0976-0.631467-6.715733 0.827733-9.8304-0.776533l-4.061867-6.1696c2.9184 0.896 6.792533-0.776533 9.787733 0.9472l4.104534 5.998933z" fill="#E9A14C" /><path d="M523.741867 918.946133c-2.7904-1.211733-8.354133 0.571733-13.781334-3.336533-7.9872-5.76-9.480533-12.484267-14.0032-17.501867l27.784534 20.8384z" fill="#CE7B2A" /><path d="M426.504533 398.020267l19.8912 7.8592c0.4096 6.997333 7.210667 15.018667 7.893334 19.925333 3.2512 23.3728-2.338133 52.164267 0 76.3904 8.209067 8.942933 37.930667-29.559467 44.910933-34.944 29.6448-22.826667 46.805333 9.9328 45.960533 38.007467l6.357334 3.882666c13.9776-0.264533 30.037333-2.372267 41.6768 6.946134 44.740267 35.822933 20.6336 127.069867-39.278934 137.984-7.261867-1.937067-16.4608-3.643733-23.236266-6.016-11.767467-4.1216-35.0976-21.5552-44.1088-20.0704-33.774933 12.8-28.672 13.0304-39.2448 40.9088-7.697067 20.309333-8.635733 31.9232-13.917867 52.0704-8.840533 33.7408-44.7488 12.270933-62.4896-3.447467-10.683733-9.463467-17.698133-27.767467-34.730667-34.730667V675.84l-6.946133-6.946133c-1.92-9.5488-6.818133-25.489067-7.125333-31.735467-0.401067-8.226133 7.074133-9.326933 7.125333-9.941333l34.756267 3.874133c13.5936-14.498133 31.812267-27.904 34.688-49.032533 2.517333-18.5088 3.285333-109.5168-0.861867-124.142934-3.396267-11.989333-20.949333-21.316267-33.860267-18.235733 7.5264-11.682133 36.5312-36.0192 48.622934-41.6768 2.7136-1.271467 9.565867 0.853333 13.892266 0z" fill="#F2B057" /><path d="M843.2384 404.9664c-10.8288-7.082667-25.0112-9.915733-37.418667-6.135467-3.328 1.015467-50.952533 35.831467-56.448 40.763734-23.5008 21.085867-25.591467 45.969067-24.209066 76.501333-11.050667-6.903467-8.456533-24.8064-17.297067-34.7904-11.767467-13.2864-31.5392-6.7072-21.256533-35.003733 18.423467-50.688 70.656-31.214933 94.1568-51.712 5.76-5.026133 29.3376-42.555733 27.758933-48.605867-13.371733-20.522667-24.763733-4.514133-38.365867-3.6608-27.656533 1.7408-52.829867-3.293867-79.7184 7.074133-2.7648-17.058133 17.365333-23.2448 24.2432-34.773333 20.992-35.191467 9.890133-85.896533-16.5632-115.310933l9.6768-23.517867c17.143467 26.2144 48.878933 22.4512 72.772267 38.331733 31.5136 20.949333 32.341333 44.9536 42.990933 75.0848 3.234133 9.156267 12.680533 12.066133 16.1792 18.551467 10.922667 20.232533 8.712533 44.893867 17.476267 66.048-2.184533 11.264-8.951467 21.0432-13.969067 31.1552z" fill="#D98C36" /><path d="M843.2384 404.9664c-1.1008 2.218667 0.264533 7.842133-3.336533 13.730133-8.635733 14.088533-27.101867 20.343467-38.528 31.223467-62.5152 59.511467 12.535467 202.248533-79.547734 281.6256-17.5872 15.163733-32.989867 27.170133-55.637333 27.7248-10.897067 0.264533-19.933867 4.573867-17.467733-10.530133 3.6608-22.3744 31.5904-30.1568 44.945066-45.3632 22.007467-25.0624 36.1216-87.552 38.724267-120.977067 1.851733-23.825067-6.161067-42.8032-7.227733-66.312533-1.3824-30.532267 0.708267-55.424 24.209066-76.501334 5.504-4.932267 53.12-39.748267 56.448-40.763733 12.407467-3.780267 26.581333-0.9472 37.418667 6.135467z" fill="#B7621E" /><path d="M593.194667 516.096c-11.639467-9.3184-27.690667-7.210667-41.6768-6.946133 3.370667-17.8944 17.2544-31.018667 24.3968-48.529067 31.249067-76.603733 4.5568-88.891733-3.396267-156.535467-1.757867-14.984533-4.676267-47.36 6.784-58.871466 0.861867 1.757867-0.759467 4.770133 0 6.946133 1.288533 3.6608-0.2048 7.8848 6.946133 6.946133 2.8416-0.0512 11.4944-4.932267 13.892267-6.946133 11.758933-9.890133 13.141333-19.182933 14.72-33.885867l20.010667-7.7824c5.128533 10.376533 18.0736 21.879467 20.061866 32.4608 4.488533 23.808-28.032 44.740267-37.410133 64.802134-16.290133 34.8416 12.996267 69.205333 17.2288 100.804266 6.203733 46.3616-10.308267 75.6992-41.557333 107.537067z" fill="#C57226" /><path d="M877.969067 599.4496c5.828267 9.565867 21.717333 27.204267 20.061866 37.137067-2.363733 14.1824-23.227733 34.056533-26.018133 43.7248-5.435733 18.798933 2.432 46.165333-2.1504 67.3024-3.618133 16.6656-14.882133 19.165867-19.669333 25.472L812.714667 786.602667c-13.858133-4.3008-21.154133-28.117333-26.8288-32.989867-5.4784-4.701867-15.812267 5.290667-12.168534-18.705067 5.0944-33.5872 67.8912-95.086933 87.261867-128.2816 7.108267-12.1856-3.1488-20.2496 16.989867-7.176533z" fill="#F1B262" /><path d="M176.4608 481.373867c3.106133 6.5536 15.3088 21.085867 13.371733 30.4128-8.712533 15.607467-39.5008 29.141333-33.5872 48.622933 11.758933 22.391467 33.288533 37.956267 47.069867 57.335467 18.304 25.745067 27.008 56.081067 41.2672 83.754666 17.339733 33.646933 43.8272 42.0608 20.864 87.645867-22.894933 45.4656-76.0576 25.216-106.461867-2.048-7.304533-6.5536-27.9808-31.744-30.353066-39.2704-5.870933-18.6112 10.7008-34.5856 11.8784-48.853333 0.2304-2.747733-5.418667-35.268267-6.690134-39.517867-4.241067-14.139733-39.6544-33.962667-46.464-50.781867-3.157333-7.799467-22.8608-97.536-22.493866-102.946133 1.501867-22.101333 31.3088-23.876267 42.1376-38.2464 0.128 0.366933 4.625067 0.8704 5.8624 4.616533 3.029333 9.1136-0.853333 19.387733 4.369066 30.301867 12.834133 26.8288 65.962667 15.394133 59.221334-21.026133z" fill="#F0B25F" /><path d="M412.612267 398.020267c-12.091733 5.6576-41.096533 29.994667-48.622934 41.6768-44.928 69.7344-28.3392 113.7664-34.730666 187.528533-0.0512 0.605867-7.5264 1.7152-7.125334 9.941333 0.3072 6.2464 5.205333 22.186667 7.125334 31.735467 0.861867 4.266667 2.0736 7.560533 6.946133 6.946133v6.946134c-2.679467-1.092267-9.582933 2.2272-12.834133-0.810667-1.928533-1.809067-27.989333-35.234133-32.128-41.045333-12.663467-17.732267-13.9776-37.981867-24.490667-55.381334-6.050133-60.091733 7.9872-110.660267 41.6768-159.752533 34.773333-50.679467 73.7024-96.802133 97.237333-152.8064l6.946134 125.021867z" fill="#C36C23" /><path d="M579.3024 245.2224c-11.460267 11.511467-8.541867 43.886933-6.784 58.871467 7.953067 67.6352 34.645333 79.931733 3.396267 156.535466-7.1424 17.5104-21.026133 30.634667-24.3968 48.529067l-6.357334-3.882667c0.8448-28.074667-16.324267-60.842667-45.960533-38.007466-6.9888 5.376-36.7104 43.8784-44.910933 34.944-2.346667-24.226133 3.242667-53.0176 0-76.3904l9.719466-0.750934c3.541333-0.861867 2.9184-4.983467 4.164267-6.1952 11.281067-10.914133 27.067733-44.450133 28.066133-59.3408 0.776533-11.605333-6.997333-21.469867-7.534933-34.116266-3.2-75.042133 4.565333-105.403733 35.037867-170.478934-6.784 33.9968 28.5696 47.146667 44.9536 69.666134 4.539733 6.237867 7.261867 13.7728 10.606933 20.625066z" fill="#E0913D" /><path d="M468.1728 418.858667c-1.2544 1.211733-0.631467 5.333333-4.164267 6.1952l-9.719466 0.750933c-0.682667-4.906667-7.483733-12.928-7.893334-19.925333l-19.8912-7.8592c3.643733-0.7168 7.022933-4.292267 10.4192-6.1952l31.2576 27.0336z" fill="#C36C23" /><path d="M586.248533 259.106133c-7.150933 0.938667-5.6576-3.285333-6.946133-6.946133l6.946133 6.946133z" fill="#E0913D" /><path d="M329.2672 627.2256c6.391467-73.762133-10.205867-117.794133 34.730667-187.528533 12.910933-3.080533 30.464 6.2464 33.860266 18.235733 4.1472 14.626133 3.3792 105.634133 0.861867 124.142933-2.875733 21.12-21.0944 34.525867-34.688 49.032534l-34.756267-3.874134z" fill="#F8C779" /><path d="M336.213333 675.848533c-4.872533 0.6144-6.084267-2.679467-6.946133-6.946133l6.946133 6.946133z" fill="#D98834" /></svg>