<?xml version="1.0" standalone="no"?><!DOCTYPE svg PUBLIC "-//W3C//DTD SVG 1.1//EN" "http://www.w3.org/Graphics/SVG/1.1/DTD/svg11.dtd"><svg class="icon" width="256px" height="256.00px" viewBox="0 0 1024 1024" version="1.1" xmlns="http://www.w3.org/2000/svg"><path d="M446.6176 271.573333c0.426667 1.911467 7.1936 9.634133 6.2464 14.208-13.627733 11.4944-14.5152 28.731733-20.795733 44.2112-3.985067 9.813333-10.845867 18.449067-12.936534 29.218134l-3.4816 3.072c-7.722667 2.1248-13.7984-6.408533-19.959466-8.9856-18.286933-7.645867-42.88-16.913067-61.755734-22.562134-28.032-8.388267-57.088-12.714667-86.357333-14.173866-3.106133-0.904533-9.4464-8.226133-11.306667-11.392-4.2752-7.253333-2.568533-21.998933-8.567466-23.867734-5.282133-1.646933-6.784 4.352-8.046934 8.149334-3.669333 10.999467-3.669333 22.519467-3.285333 34.005333-0.068267-0.2816-2.7904-0.597333-3.293867-4.676267-5.316267-43.0336 28.885333-74.888533 69.845334-79.556266 58.1888-6.6304 97.783467 13.1072 149.077333 32.3584 4.113067 1.544533 12.4672 6.673067 14.609067 0z" fill="#AB2F31" /><path d="M449.860267 229.418667c7.022933-0.8192 8.891733 4.411733 12.407466 8.669866 10.5472 12.765867 14.378667 21.563733 7.825067 38.468267l8.610133 9.5744c-1.7664 8.789333-7.355733 7.560533-11.0592 11.2384-7.3472 7.296-51.285333 87.424-56.704 100.667733l-76.8256-28.5696-14.984533-1.2288c-14.446933-2.9952-32.9984-12.6464-46.583467-15.044266-4.906667-0.8704-8.917333-1.962667-12.398933 2.688l8.1152 6.485333c-6.101333-1.28-36.8384-4.727467-38.6048-6.801067-0.349867-0.401067-0.9216-5.1456-3.549867-9.412266-6.528-10.606933-6.749867-10.3168-9.728-22.698667-0.384-11.485867-0.384-22.997333 3.285334-34.005333 1.271467-3.797333 2.7648-9.787733 8.046933-8.149334 5.998933 1.8688 4.3008 16.6144 8.567467 23.867734 1.860267 3.165867 8.200533 10.487467 11.306666 11.392 29.269333 1.4592 58.325333 5.7856 86.357334 14.173866 18.875733 5.649067 43.4688 14.916267 61.755733 22.562134 6.152533 2.577067 12.2368 11.1104 19.959467 8.9856l3.4816-3.072c2.090667-10.769067 8.951467-19.4048 12.936533-29.218134 6.280533-15.479467 7.159467-32.7168 20.795733-44.2112 0.9472-4.5824-5.819733-12.296533-6.2464-14.208-2.5344-11.383467 0.3328-30.967467 3.242667-42.154666z" fill="#951D1F" /><path d="M657.399467 239.146667c7.842133-5.341867 13.073067-10.862933 22.656-14.634667 26.299733-10.3424 54.997333-12.177067 77.7216 6.673067 22.766933 18.884267 27.972267 52.829867 26.24 81.0752-0.759467 12.305067-12.0576 20.155733 9.582933 17.6896-1.7664 0.4608-7.517867 6.1696-14.481067 3.4048l-2.005333-6.2208c-2.0992-2.961067-15.8464 1.399467-19.2 4.411733-4.206933 3.780267-3.131733 8.1152-10.632533 12.066133-17.5104 9.2416-32.2816 6.1184-39.739734-13.533866-6.656-17.544533-9.634133-62.805333-21.572266-74.120534-1.476267-1.399467-5.6576-0.930133-7.5776-3.6608-5.777067-8.2176-2.0992-21.384533-20.983467-13.141333z" fill="#A63030" /><path d="M453.102933 219.690667l3.234134 1.629866 0.017066 3.2256-1.664 1.621334-1.5872-3.234134c0.375467-0.964267-0.392533-2.372267 0-3.242666z" fill="#951D1F" /><path d="M410.948267 398.037333c-4.753067 11.6224-8.046933 37.853867-6.434134 50.210134 2.116267 16.213333 12.142933 26.837333 22.647467 37.3504 1.314133 1.322667 2.116267 4.3264 4.693333 6.5536 5.794133 5.000533 25.7024 15.786667 27.3664 21.376 1.629867 5.4784 2.850133 13.0304-6.1184 10.9824-1.9456-0.349867-4.360533 0.196267-6.485333 0-3.925333-12.194133-12.578133-2.944-17.373867-3.677867-6.144-0.930133-15.616-13.8496-21.538133 0.4352-3.131733-0.068267-6.6816-0.3328-9.728 0h-9.728c11.357867-10.1888-7.586133-24.9344-6.485333-29.184 2.884267-11.136 0.196267-33.2288-3.822934-46.4384-3.1232-10.257067-12.381867-26.3424-18.875733-34.628267-20.539733-26.222933-58.8288-41.949867-90.794667-48.64l-8.1152-6.485333c3.4816-4.650667 7.5008-3.5584 12.398934-2.688 13.5936 2.4064 32.136533 12.049067 46.583466 15.044267l14.984534 1.2288 76.8256 28.5696z" fill="#790911" /><path d="M748.194133 628.283733c-10.7008-0.7168-6.0928 1.698133-1.621333 6.485334 8.96 9.582933 11.4176 11.426133 17.834667 22.698666l-3.771734 33.518934c-6.0672 27.5456-48.384 54.289067-71.808 67.6352-57.5488 32.7936-167.893333 79.709867-231.509333 51.8912-10.282667-4.497067-36.718933-23.748267-41.565867-33.015467-3.669333-7.0144-1.928533-19.9936-8.055466-25.992533 3.2768-11.306667 8.192-22.229333 15.9744-31.086934l-3.003734-4.5824c1.595733-0.512 2.9952-4.096 9.787734-1.4848 28.4416-25.053867 66.414933-50.3296 100.462933-66.6112 11.4432-5.469867 23.6544-9.0112 35.669333-12.970666 1.826133-0.605867 3.3536-0.853333 3.242667-3.242667 1.0752-0.136533 2.2272 0.196267 3.242667 0 23.364267-4.573867 46.088533-13.098667 69.7856-16.145067 17.8432-2.295467 43.153067-2.423467 60.928 0.554667 12.3392 2.065067 32.605867 8.5504 44.398933 12.347733zM594.781867 645.12c-15.317333 2.645333-85.333333 32.9728-89.403734 46.7712-3.037867 10.282667 1.186133 18.005333 11.485867 20.181333 13.0304 2.756267 49.0496-11.3152 62.762667-17.2544 14.5664-6.314667 60.7232-24.942933 43.758933-43.869866-6.6816-7.458133-19.293867-7.432533-28.603733-5.819734z" fill="#B12B2F" /><path d="M407.7056 751.505067c6.126933 5.998933 4.386133 18.978133 8.055467 25.992533 4.846933 9.2672 31.291733 28.5184 41.565866 33.015467 63.616 27.818667 173.952-19.0976 231.509334-51.8912 23.415467-13.346133 65.732267-40.0896 71.808-67.6352l3.771733-33.518934c37.333333 65.595733-27.067733 121.454933-79.957333 151.901867-56.977067 32.802133-124.475733 54.715733-190.958934 49.288533-30.0032-2.449067-68.864-22.562133-83.2512-49.698133-8.567467-16.1536-7.415467-40.635733-2.542933-57.454933z" fill="#90171E" /><path d="M594.781867 645.12c9.309867-1.604267 21.9136-1.6384 28.603733 5.819733 16.964267 18.935467-29.184 37.563733-43.758933 43.869867-13.713067 5.9392-49.732267 20.010667-62.762667 17.2544-10.308267-2.176-14.523733-9.890133-11.485867-20.181333 4.078933-13.806933 74.0864-44.125867 89.403734-46.7712z" fill="#FAE1D4" /><path d="M407.7056 521.2672c11.4176 0.247467 27.050667 2.133333 38.912 3.242667 2.1248 0.196267 4.539733-0.349867 6.485333 0 9.378133 1.6896 38.741333 13.098667 47.086934 19.396266 5.2992 3.9936 22.4256 21.444267 24.942933 26.939734 13.832533 30.293333-15.906133 63.214933-40.516267 77.5936-69.051733 40.3456-186.299733 53.973333-262.587733 34.176-40.448-10.496-67.1488-28.356267-99.771733-52.642134-4.778667-3.5584-6.8864-9.992533-6.408534 1.544534-0.059733-0.2816-2.798933-0.7424-3.285333-4.676267-1.792-14.5152 6.203733-38.459733 14.711467-50.372267 1.9456-2.730667 22.741333-25.0624 24.234666-26.026666 5.751467-3.677867 38.971733-13.3632 47.6928-15.5392 5.026133-1.2544 30.1056-7.159467 31.752534-7.159467h100.522666c18.116267 0 48.1536-4.5056 66.474667-6.485333 3.0464-0.3328 6.596267-0.068267 9.728 0z m-135.611733 52.4544c-0.904533 0.938667-3.976533 9.147733-4.002134 10.811733 4.164267 12.996267 21.0688 19.899733 34.090667 21.179734 28.6464 2.807467 89.002667-0.913067 113.1776-16.802134 26.0096-17.092267 5.486933-36.317867-18.8672-38.596266-28.8512-2.696533-79.3088 3.217067-106.436267 13.815466-3.165867 1.237333-16.512 8.098133-17.954133 9.591467z" fill="#B22B30" /><path d="M605.5168 430.472533c-4.334933 6.536533-11.682133 10.717867-9.719467 19.456l6.4768-3.242666c-16.128 9.301333-70.434133 49.066667-81.152 63.1552-12.16 15.991467-4.5824 12.663467 5.009067 21.0944 10.026667 8.814933 14.122667 15.300267 21.009067 26.0096 3.7376 5.8112 4.983467 13.602133 12.970666 16.213333 0.648533 1.6384 1.365333 2.884267 3.242667 3.242667 0.034133 1.083733-0.0256 2.158933 0 3.242666-0.238933 2.773333 1.373867 2.5856 3.242667 3.242667 0.9216 0.324267 2.2016-0.2816 3.242666 0-0.290133 2.3552 1.152 2.8928 3.242667 3.242667 1.911467 0.324267 4.360533-0.042667 6.485333 0-4.445867 5.0432-1.476267 8.6272 3.259734 11.3408 7.8592 4.497067 29.824 8.900267 38.894933 8.123733l-34.6624 12.356267-20.471467 0.622933c-17.314133-6.109867-21.725867-1.604267-19.601066-25.8048l-12.8256-3.3792c-1.160533 1.186133 0.810667 24.968533 0 30.805333-0.7168 5.12-5.205333 12.672-7.2448 18.696534-2.039467 6.033067-6.468267 10.043733 4.002133 8.866133-34.048 16.2816-72.021333 41.557333-100.462933 66.6112-6.801067-2.6112-8.192 0.981333-9.787734 1.4848-77.858133 24.840533-252.1088 22.3232-297.8304-60.501333-5.9648-10.794667-4.898133-13.371733-6.997333-23.808-0.477867-11.537067 1.629867-5.102933 6.408533-1.544534 32.6144 24.285867 59.323733 42.146133 99.771734 52.642134 76.279467 19.797333 193.536 6.1696 262.587733-34.176 24.610133-14.378667 54.3488-47.300267 40.516267-77.5936-2.5088-5.495467-19.643733-22.946133-24.942934-26.939734-8.3456-6.289067-37.7088-17.706667-47.086933-19.396266 8.968533 2.048 7.748267-5.504 6.1184-10.9824-1.664-5.597867-21.572267-16.375467-27.3664-21.376-2.577067-2.218667-3.370667-5.230933-4.693333-6.5536 32.964267 20.676267 71.790933 4.9664 102.775466-12.3392 12.305067-6.869333 23.7056-17.860267 36.6592-23.330134 7.296-3.080533 19.165867-4.1216 25.915734-8.132266 4.5056-2.670933 7.2704-9.642667 12.996266-11.323734z" fill="#8D151B" /><path d="M272.093867 573.7216c1.442133-1.493333 14.788267-8.354133 17.954133-9.591467 27.127467-10.5984 77.5936-16.512 106.436267-13.815466 24.354133 2.2784 44.8768 21.504 18.8672 38.596266-24.183467 15.889067-84.5312 19.6096-113.1776 16.802134-13.021867-1.28-29.917867-8.183467-34.090667-21.179734 0.0256-1.655467 3.0976-9.873067 4.002133-10.811733z" fill="#EC9691" /><path d="M446.6176 524.509867c-11.861333-1.109333-27.4944-2.9952-38.912-3.242667 5.922133-14.2848 15.394133-1.365333 21.538133-0.4352 4.795733 0.725333 13.448533-8.516267 17.373867 3.677867z" fill="#8D151B" /><path d="M530.926933 647.739733c-10.461867 1.1776-6.0416-2.833067-4.002133-8.866133 2.039467-6.024533 6.528-13.576533 7.2448-18.696533 0.8192-5.8368-1.160533-29.610667 0-30.805334l12.8256 3.3792c-2.133333 24.200533 2.2784 19.694933 19.601067 25.8048 1.3568 0.477867 4.1984 5.418667 9.736533 3.242667l-3.2512 9.728c-1.015467 0.196267-2.167467-0.136533-3.242667 0-2.090667 0.273067-3.515733 0.9472-3.242666 3.242667-12.014933 3.959467-24.226133 7.5008-35.669334 12.970666z" fill="#64070D" /><path d="M566.596267 634.769067c-0.273067-2.295467 1.152-2.9696 3.242666-3.242667 0.110933 2.389333-1.416533 2.6368-3.242666 3.242667z" fill="#820F15" /><path d="M602.274133 190.498133c-3.592533-2.1248-9.5744-9.634133-12.970666-4.864 12.910933 15.726933 26.0864 38.152533 29.1072 58.453334 9.6256 64.750933-5.410133 124.1344-37.1456 179.976533-4.923733 8.661333-8.337067 18.005333-14.6688 25.864533-12.962133 5.469867-24.354133 16.4608-36.6592 23.330134-30.984533 17.3056-69.819733 33.015467-102.775467 12.3392-10.504533-10.513067-20.522667-21.137067-22.647467-37.3504-1.6128-12.356267 1.681067-38.587733 6.434134-50.210134 5.418667-13.252267 49.3568-93.371733 56.704-100.667733 3.703467-3.677867 9.2928-2.449067 11.0592-11.2384l-8.610134-9.5744c6.5536-16.904533 2.722133-25.7024-7.825066-38.468267-3.515733-4.258133-5.384533-9.489067-12.407467-8.669866 1.664-6.4 3.089067-6.0928 3.242667-6.485334l1.5872 3.234134 1.664-1.621334-0.017067-3.2256-3.234133-1.629866c22.050133-48.597333 70.3488-66.6112 120.900266-47.931734 9.5232 3.515733 23.415467 9.480533 28.270934 18.747734zM533.137067 304.554667c-8.106667 0.674133-14.882133 6.638933-19.8912 12.561066-7.671467 9.0624-36.1472 57.258667-39.2192 67.797334-5.026133 17.28 3.592533 33.083733 22.357333 28.834133 19.1744-4.343467 42.624-40.149333 49.186133-57.813333 3.933867-10.581333 12.424533-39.808 1.732267-47.232-1.698133-1.1776-12.040533-4.317867-14.173867-4.1472z" fill="#AF2B2F" /><path d="M602.274133 190.498133c10.845867 6.417067 13.0304 8.3968 20.932267 19.601067 10.538667 14.9248 11.374933 24.3712 17.979733 38.775467-0.9216 0.725333-2.372267 0.776533-2.679466 2.269866-3.9168 13.0816 2.116267 26.487467 2.816 38.126934 2.747733 45.636267-10.513067 103.048533-35.8144 141.201066-5.725867 1.681067-8.490667 8.6528-12.996267 11.323734-6.7584 4.010667-18.619733 5.051733-25.915733 8.132266 6.331733-7.867733 9.745067-17.2032 14.6688-25.864533 31.735467-55.8336 46.762667-115.2256 37.1456-179.976533-3.012267-20.292267-16.196267-42.717867-29.1072-58.453334 3.396267-4.770133 9.3696 2.7392 12.970666 4.864z" fill="#9A1D22" /><path d="M533.137067 304.554667c2.133333-0.1792 12.475733 2.9696 14.173866 4.1472 10.692267 7.415467 2.193067 36.650667-1.732266 47.232-6.570667 17.664-30.011733 53.469867-49.186134 57.813333-18.7648 4.2496-27.383467-11.554133-22.357333-28.834133 3.063467-10.538667 31.5392-58.734933 39.2192-67.797334 5.0176-5.922133 11.793067-11.886933 19.8912-12.561066z" fill="#FBE2DA" /><path d="M683.3408 401.28c0.878933 1.1008 1.373867 3.592533 2.833067 4.8128l-6.075734 11.400533c-22.8352 4.411733-58.0352 17.7664-77.824 29.184l-6.4768 3.242667c-1.962667-8.738133 5.384533-12.919467 9.719467-19.456 25.301333-38.152533 38.562133-95.573333 35.8144-141.201067-0.699733-11.639467-6.7328-25.045333-2.816-38.126933 0.3072-1.493333 1.757867-1.544533 2.679467-2.269867 2.116267 4.616533 6.6816 3.4304 9.258666 8.576 7.0912 14.173867 15.325867 58.052267 16.6144 74.180267 2.039467 25.454933-4.138667 40.081067 10.257067 64.426667 2.261333 3.822933 5.290667 4.3008 6.024533 5.230933z" fill="#75080F" /><path d="M657.399467 239.146667c18.884267-8.2432 15.2064 4.923733 20.983466 13.141333 1.92 2.7392 6.109867 2.261333 7.5776 3.6608 11.9296 11.3152 14.907733 56.576 21.572267 74.120533 7.458133 19.6608 22.229333 22.775467 39.739733 13.533867 7.5008-3.950933 6.434133-8.285867 10.632534-12.066133 3.3536-3.012267 17.1008-7.381333 19.2-4.411734l2.005333 6.2208c6.9632 2.7648 12.7232-2.944 14.481067-3.4048 53.563733-14.011733 110.788267-13.269333 162.193066 8.055467 17.416533 7.227733 29.1584 14.6688 42.103467 27.613867l-0.0512 37.239466c-1.6896 12.987733-14.114133 29.0304-27.511467 30.856534-24.285867 3.3024-55.7312-1.800533-81.2032-0.136534-5.1968 0.341333-9.0112 3.003733-12.885333 3.328-25.796267 2.133333-51.6352 5.384533-77.841067 6.613334-18.363733-9.326933-30.7712-25.472-50.1248-34.184534-21.5552-9.710933-41.719467-8.567467-64.9216-8.0384-0.7424-0.9216-3.7632-1.399467-6.024533-5.230933-14.3872-24.3456-8.2176-38.971733-10.257067-64.426667-1.288533-16.128-9.5232-60.0064-16.6144-74.180266-2.577067-5.1456-7.1424-3.959467-9.258666-8.576 4.4544-3.515733 11.246933-6.3488 16.213333-9.728z m156.117333 132.488533c1.6128 1.681067 29.312 9.6256 33.664 10.120533 14.446933 1.646933 50.696533 1.988267 64.776533 0.0768 6.229333-0.8448 12.16-5.0688 16.3072-9.634133 9.540267-18.6112-14.7456-27.3152-29.329066-29.226667-13.9264-1.826133-50.756267-1.774933-64.750934 0-8.072533 1.024-24.686933 8.900267-24.541866 17.749334l3.874133 10.914133z" fill="#9B2425" /><path d="M813.5168 371.6352l-3.874133-10.914133c-0.136533-8.849067 16.469333-16.725333 24.541866-17.749334 13.994667-1.774933 50.816-1.826133 64.750934 0 14.574933 1.911467 38.869333 10.615467 29.329066 29.226667-4.138667 4.565333-10.077867 8.7808-16.3072 9.634133-14.08 1.92-50.3296 1.570133-64.776533-0.0768-4.352-0.494933-32.0512-8.439467-33.664-10.120533z" fill="#FBE3D8" /><path d="M761.1648 436.957867l-0.529067 30.276266c-10.299733 23.458133-30.464 44.475733-51.438933 58.820267-4.923733 3.362133-27.733333 13.789867-28.680533 15.104-1.408 1.954133 1.041067 5.077333-3.669334 9.2928 3.8144-28.424533-39.0656-19.652267-56.072533-15.5392-13.696 3.319467-49.578667 16.298667-55.8848 28.424533-2.2528 4.3264-1.6896 8.4736-1.536 13.056-1.877333-0.3584-2.594133-1.604267-3.242667-3.242666-2.824533-7.168-4.3776-12.561067-12.970666-16.213334-6.8864-10.709333-10.9824-17.194667-21.009067-26.0096-9.591467-8.430933-17.1776-5.102933-5.009067-21.0944 10.717867-14.088533 65.024-53.853867 81.152-63.1552 19.797333-11.4176 54.997333-24.772267 77.824-29.184 31.368533-6.0672 58.274133-3.899733 81.066667 19.456z" fill="#B42D32" /><path d="M621.730133 605.576533c-9.070933 0.785067-31.035733-3.618133-38.894933-8.123733-4.736-2.705067-7.7056-6.289067-3.259733-11.3408 31.351467 0.6912 73.9072-14.762667 97.28-35.669333 4.7104-4.215467 2.261333-7.338667 3.669333-9.2928 0.9472-1.314133 23.7568-11.741867 28.680533-15.104 20.974933-14.344533 41.1392-35.362133 51.438934-58.820267l0.529066-30.276267c4.974933 5.0944 10.692267 10.402133 12.4416 18.363734 15.0272 68.437333-63.121067 123.374933-119.330133 142.276266-7.697067 2.5856-24.9856 7.330133-32.554667 7.978667z" fill="#9F2024" /><path d="M676.855467 550.4512c-23.381333 20.9152-65.937067 36.360533-97.28 35.669333-2.1248-0.042667-4.573867 0.324267-6.485334 0 0.264533-2.346667-1.297067-2.7136-3.242666-3.242666-1.041067-0.2816-2.321067 0.324267-3.242667 0l-3.242667-3.242667c-0.0256-1.083733 0.034133-2.167467 0-3.242667-0.1536-4.5824-0.7168-8.721067 1.536-13.056 6.314667-12.125867 42.1888-25.105067 55.8848-28.424533 17.006933-4.113067 59.886933-12.893867 56.072534 15.5392z" fill="#FAE4D9" /><path d="M560.110933 573.149867c-7.9872-2.6112-9.233067-10.402133-12.970666-16.213334 8.593067 3.652267 10.146133 9.045333 12.970666 16.213334zM566.596267 582.877867c-1.8688-0.657067-3.4816-0.469333-3.242667-3.242667l3.242667 3.242667zM573.090133 586.120533c-2.090667-0.349867-3.5328-0.887467-3.242666-3.242666 1.9456 0.529067 3.5072 0.896 3.242666 3.242666z" fill="#9F2024" /><path d="M984.925867 475.869867c-3.618133 1.348267-10.504533 3.566933-14.0288 2.909866-7.261867-1.3568-20.778667-10.410667-30.370134-12.014933-27.793067-4.650667-58.453333-3.712-86.869333-3.797333l-56.7296 9.7536c1.902933 19.652267-1.186133 33.3056-9.1648 50.824533-13.2608 29.1328-25.856 37.034667-44.424533 59.3408-2.730667 3.2768-6.203733 4.155733-4.864 9.728l43.844266 9.668267c58.282667 1.8432 119.458133-2.986667 174.353067-23.330134 17.937067-6.647467 35.729067-14.8992 47.778133-30.045866 4.804267-6.0416 5.418667-14.8224 12.910934-17.902934 0.068267 0.273067 2.688 0.571733 3.285333 4.667734 1.7664 12.1344-5.179733 33.143467-11.4688 43.904-37.572267 64.298667-184.081067 69.137067-247.995733 51.959466l-1.8944-2.901333-4.590934-0.341333c-1.8176-0.529067-4.7616 0.554667-6.485333 0-11.793067-3.805867-32.059733-10.282667-44.398933-12.347734-17.774933-2.978133-43.0848-2.850133-60.928-0.554666-23.697067 3.0464-46.421333 11.579733-69.7856 16.145066l3.2512-9.728c-5.538133 2.176-8.379733-2.7648-9.736534-3.242666l20.471467-0.622934 34.6624-12.356266c7.569067-0.657067 24.8576-5.393067 32.554667-7.978667 56.209067-18.901333 134.3488-73.847467 119.330133-142.276267-1.749333-7.9616-7.466667-13.269333-12.4416-18.363733-22.792533-23.355733-49.698133-25.5232-81.066667-19.456l6.075734-11.400533c-1.450667-1.220267-1.954133-3.712-2.833067-4.8128 23.210667-0.529067 43.3664-1.672533 64.9216 8.0384 19.3536 8.721067 31.761067 24.866133 50.1248 34.184533 26.205867-1.2288 52.0448-4.471467 77.841067-6.613333 3.874133-0.324267 7.688533-2.986667 12.885333-3.328 25.472-1.664 56.917333 3.438933 81.2032 0.136533 13.405867-1.826133 25.821867-17.8688 27.511467-30.856533l0.0512-37.239467c13.969067 13.969067 24.004267 29.3888 25.966933 50.389333 2.039467 21.777067-18.542933 52.292267-38.9376 59.869867z" fill="#820F15" /><path d="M984.925867 475.869867c-4.693333 5.8624-1.271467 7.483733 3.182933 11.426133 9.787733 8.661333 14.984533 10.094933 22.254933 23.1424 4.778667 8.576 4.906667 12.040533 6.997334 20.565333-7.483733 3.072-8.098133 11.8528-12.910934 17.902934-12.049067 15.1552-29.841067 23.406933-47.778133 30.045866-54.894933 20.343467-116.0704 25.1648-174.353067 23.330134l-43.844266-9.668267c-1.339733-5.563733 2.133333-6.442667 4.864-9.728 18.568533-22.306133 31.172267-30.208 44.424533-59.3408C795.733333 506.026667 798.8224 492.373333 796.928 472.721067l56.7296-9.7536c28.416 0.085333 59.076267-0.853333 86.869333 3.797333 9.6 1.604267 23.108267 10.658133 30.370134 12.014933 3.515733 0.657067 10.402133-1.5616 14.0288-2.909866z m-45.994667 38.340266c2.568533-2.645333 4.821333-12.740267 3.396267-16.7424-2.2016-9.984-18.013867-22.075733-27.648-24.32-27.434667-6.382933-72.32-2.670933-96.3072 12.9024-10.402133 6.749867-19.396267 17.7152-21.4016 30.0544 0.674133 3.191467 12.330667 8.797867 15.9744 10.1376 23.5008 8.644267 84.0192 6.186667 108.0576-2.423466 2.952533-1.058133 16.597333-8.234667 17.928533-9.617067z" fill="#A7282B" /><path d="M761.1648 631.5264c-5.504-1.476267-6.101333-3.131733-6.485333-3.242667l4.590933 0.341334 1.8944 2.901333z" fill="#B12B2F" /><path d="M938.9312 514.210133c-1.339733 1.373867-14.976 8.558933-17.928533 9.617067-24.0384 8.610133-84.565333 11.067733-108.0576 2.423467-3.6352-1.339733-15.300267-6.946133-15.9744-10.1376 2.013867-12.3392 10.999467-23.304533 21.4016-30.0544 23.9872-15.573333 68.872533-19.285333 96.3072-12.9024 9.634133 2.244267 25.4464 14.336 27.648 24.32 1.425067 4.002133-0.827733 14.088533-3.396267 16.7424z" fill="#BC3E41" /><path d="M226.107733 346.154667c2.628267 4.266667 3.2 9.0112 3.549867 9.412266 1.774933 2.065067 32.503467 5.521067 38.6048 6.801067 31.965867 6.698667 70.263467 22.417067 90.794667 48.64l2.8416 43.374933c-17.8176 24.337067-40.533333 41.8816-69.9904 49.988267-73.864533 20.334933-217.565867 14.327467-270.1568-49.527467-6.417067-7.790933-9.7536-19.729067-19.396267-24.379733 4.411733-22.8352 13.789867-38.852267 32.571733-53.367467 19.524267-15.086933 63.172267-31.658667 87.415467-27.707733 0.170667 0.0256 0.657067 2.082133 2.4064 2.56 3.524267 0.964267 7.168 0.512 10.624 2.2528 4.923733 2.4832 9.531733 12.740267 16.1536 14.6432-0.529067 0.1024-8.6528 4.232533-9.6768 4.898133-18.176 11.7248 1.348267 25.582933 15.232 30.08 19.217067 6.229333 53.8624 9.344 73.821867 7.099734 40.7296-4.5824 38.007467-28.680533-0.520534-38.229334-3.669333-0.913067-16.042667-3.720533-17.237333-3.848533l9.617067-0.1024 3.242666-12.612267-6.3744-3.498666 6.101334-0.3328 0.384-6.152534z" fill="#AA2C2E" /><path d="M381.764267 492.0832L354.133333 511.470933l-4.795733 9.796267h48.64c-18.321067 1.979733-48.3584 6.485333-66.474667 6.485333h-100.522666c-1.646933 0-26.7264 5.905067-31.752534 7.159467-8.7296 2.176-41.949867 11.861333-47.6928 15.5392-2.158933 0.017067-4.3264-0.017067-6.485333 0l-1.962667-2.8928-11.008-0.349867c-3.310933-0.580267-7.543467 0.7168-11.170133-0.0768-44.586667-9.728-103.313067-32.1792-117.9648-79.9488-4.3776-14.2848-3.234133-22.9888-0.580267-36.7104 9.642667 4.650667 12.9792 16.5888 19.396267 24.379734 52.590933 63.854933 196.292267 69.8624 270.1568 49.527466 29.4656-8.106667 52.1728-25.659733 69.9904-49.988266l-2.8416-43.374934c6.493867 8.285867 15.752533 24.3712 18.875733 34.628267 4.0192 13.2096 6.715733 35.3024 3.822934 46.4384z" fill="#8D151B" /><path d="M219.6224 352.64l6.3744 3.498667-3.242667 12.612266-9.617066 0.1024c-11.409067-1.288533-51.592533-2.005333-61.610667 0-6.621867-1.902933-11.229867-12.16-16.1536-14.6432-3.456-1.7408-7.099733-1.288533-10.624-2.2528-1.749333-0.477867-2.235733-2.5344-2.4064-2.56 12.654933-2.466133 24.302933-4.283733 37.435733-3.387733 5.179733 0.3584 9.079467 3.037867 12.893867 3.319467 15.803733 1.160533 31.300267-0.375467 46.9504 3.310933z" fill="#951D1F" /><path d="M145.032533 550.4512c-8.439467 0.0768-11.588267-3.003733-12.970666-3.242667l11.008 0.349867 1.962666 2.8928z" fill="#B22B30" /><path d="M213.137067 368.853333c1.194667 0.136533 13.568 2.944 17.237333 3.848534 38.536533 9.540267 41.250133 33.6384 0.520533 38.229333-19.959467 2.244267-54.6048-0.8704-73.821866-7.099733-13.883733-4.497067-33.408-18.3552-15.232-30.08 1.032533-0.6656 9.147733-4.795733 9.6768-4.898134 10.018133-2.005333 50.2016-1.288533 61.610666 0z" fill="#FCE0D5" /><path d="M381.764267 492.0832c-1.1008 4.2496 17.8432 18.9952 6.485333 29.184h-38.912l4.795733-9.796267 27.630934-19.387733z" fill="#66060C" /></svg>