<?xml version="1.0" standalone="no"?><!DOCTYPE svg PUBLIC "-//W3C//DTD SVG 1.1//EN" "http://www.w3.org/Graphics/SVG/1.1/DTD/svg11.dtd"><svg class="icon" width="256px" height="256.00px" viewBox="0 0 1024 1024" version="1.1" xmlns="http://www.w3.org/2000/svg"><path d="M685.969067 401.979733l19.6096 0.605867c12.603733 18.133333 21.905067 39.739733 29.4912 61.013333 0.5376 1.501867 3.720533 4.138667 5.179733 4.113067 21.1712-0.4352-14.788267-60.7744-14.020267-62.097067-0.068267 0.119467 1.271467-1.322667 1.399467-1.4592 44.561067 3.182933 88.5248 12.194133 130.7648 29.7984l64.7168 26.9824c24.8576 10.359467 49.288533 18.3296 75.281067 25.361067 7.364267 1.9968 15.2064 6.272 19.729066 11.844267 8.541867 10.538667 7.466667 24.32-1.152 32.785066-22.510933 0.170667-29.960533-1.339733-53.282133 4.215467-0.810667 0.196267-1.911467 1.220267-2.372267 1.7408l-3.746133 0.247467c-6.357333 2.5344-13.056 5.000533-19.524267 5.76 0.128-0.955733 1.416533-6.263467 1.092267-8.311467l-4.6592-29.5424c-0.349867-2.2272-5.486933-5.435733-7.4496-4.829867-1.9712 0.605867-4.846933 4.599467-4.599467 6.690134l3.746134 31.214933c0.2816 2.346667 4.002133 6.587733 5.2992 7.022933-2.781867 4.667733-20.9408 12.740267-31.300267 19.524267l-39.6288 25.966933c-24.4992 16.0512-47.786667 30.344533-76.2112 41.787734l-1.450667-8.1152c-0.605867-7.722667 5.9904-44.2368-6.9888-43.52-2.5856 0.145067-6.4512 4.437333-6.493866 7.458133-0.256 18.551467-2.295467 34.5088-6.4 51.899733l-7.6544 2.082134c-29.0304 7.9104-50.8928 13.021867-81.4592 13.3888l-95.197867 1.152-73.361067 1.288533c12.970667-12.296533 37.009067-45.568 47.7696-63.5392 21.1968-35.4048 37.956267-84.488533 27.835734-125.1072-7.790933-31.266133-37.034667-44.0064-65.860267-44.8768 0.085333-0.699733 3.822933-2.474667 5.922133-2.884267 46.660267-9.0112 120.200533-21.077333 164.974934-19.6864z m160.750933 61.917867c-0.8704-2.7904-6.664533-5.162667-8.9088-4.113067-1.8688 0.878933-3.7632 5.589333-3.336533 7.7056l9.0368 45.508267c0.494933 2.5088 4.5568 5.905067 6.954666 5.546667 13.380267-2.005333-0.7168-44.910933-3.746133-54.647467z m-225.425067 76.5952c-0.5376-3.003733-5.614933-6.7072-7.970133-5.9904-2.491733 0.759467-5.128533 5.512533-4.898133 8.3968 1.501867 19.054933 1.723733 34.935467 0.913066 53.9904-0.136533 3.2256 3.336533 7.637333 6.016 7.936 14.165333 1.595733 7.850667-53.700267 5.947734-64.3328z" fill="#E73A2C" /><path d="M451.908267 444.151467l1.6384 1.083733 38.0928-1.083733c27.093333-0.776533 58.231467 10.0096 65.834666 38.826666 8.226133 31.163733-8.644267 76.117333-24.8832 103.6544-29.038933 49.2288-69.674667 88.234667-123.2128 109.969067-14.1568 5.751467-28.1344 10.8288-42.914133 14.8224l-21.6832 5.853867c-9.813333 2.645333-19.746133 4.266667-29.943467 5.998933-39.9104 6.801067-95.138133-0.7936-101.077333-49.194667-0.1536-1.220267-2.286933-4.6336-3.387733-4.4288l-4.667734 0.861867-1.6384 13.499733c-2.321067 19.165867-7.364267 7.432533-8.2688 17.536-2.056533-8.157867-1.348267-17.493333 2.107734-25.659733 1.698133-1.109333 1.706667-1.553067-0.085334-2.0736l7.867734-19.694933 2.8928-5.162667c10.2656-18.3296 21.9392-35.8144 35.7632-51.601067l12.996266-14.830933c9.770667-11.153067 21.418667-22.843733 32.5888-32.503467l12.919467-11.178666 27.221333-22.6816c11.477333-9.557333 36.6592-26.6752 50.082134-34.602667l24.021333-14.190933 11.767467-6.5024c8.8832-4.906667 26.734933-13.013333 35.950933-16.708267z" fill="#FB6D16" /><path d="M957.559467 537.147733c-1.425067 1.425067-2.7648 7.4752-1.536 9.617067l6.528 11.3664c0.861867 1.501867 2.3808 3.712 3.089066 4.804267-4.8128 4.548267-10.530133 9.0368-16.238933 13.909333l-28.7744 24.5504c-21.76 18.568533-41.326933 37.6832-64.392533 54.9632-41.309867 30.9504-86.877867 52.232533-136.891734 64.955733-27.537067 7.0144-54.656 12.142933-83.140266 13.9008l-61.4912 3.797334-17.476267 0.4096 5.435733-6.289067c12.535467-14.506667 21.9136-30.216533 27.1872-49.4592 0.682667-2.491733-3.524267-8.763733-6.075733-8.6016-2.1248 0.136533-5.998933 2.730667-6.9632 4.693333-6.997333 14.1824-13.124267 27.178667-23.031467 39.005867l-10.487466 12.526933-1.058134 7.210667-7.330133 2.602667c-23.313067 0.682667-46.848 1.5104-71.185067 4.266666l-71.261866 8.0896-10.487467-0.605866-1.6896 2.4064-5.8368 0.315733-7.68-0.3584-2.909867-20.036267-1.015466-1.7664c25.617067-9.634133 40.8576-13.038933 67.976533-25.258666 23.3984-10.538667 57.403733-33.902933 74.4704-50.082134l73.361067-1.288533 95.197866-1.152c30.5664-0.366933 52.4288-5.4784 81.4592-13.3888l7.6544-2.082133-5.1968 22.0416c-0.512 2.184533 2.619733 6.8608 4.693334 7.432533 11.016533 3.063467 17.211733-28.7744 18.261333-37.009067l2.116267-8.302933 1.450666 8.1152c28.424533-11.434667 51.712-25.736533 76.2112-41.787733l39.6288-25.966934c10.359467-6.784 28.5184-14.856533 31.300267-19.524266l6.570667-2.244267c6.4768-0.759467 13.166933-3.2256 19.524266-5.76z" fill="#C51717" /><path d="M515.063467 424.5504c28.8256 0.8704 58.0608 13.610667 65.860266 44.8768 10.129067 40.6272-6.638933 89.710933-27.835733 125.1072-10.760533 17.9712-34.798933 51.242667-47.7696 63.5392-17.066667 16.1792-51.063467 39.543467-74.4704 50.082133-27.127467 12.2112-42.359467 15.616-67.976533 25.258667l-34.363734 7.005867c-24.6528 5.026133-51.3792 6.272-76.194133 2.082133-17.527467-2.961067-44.424533-13.7472-52.48-30.916267l-2.0224-2.082133-2.005333-7.9616c0.904533-10.103467 5.947733 1.629867 8.2688-17.536l1.6384-13.499733 4.667733-0.861867c1.1008-0.2048 3.234133 3.208533 3.387733 4.4288 5.9392 48.401067 61.1584 55.995733 101.077334 49.194667 10.1888-1.7408 20.130133-3.3536 29.943466-5.998934l21.6832-5.853866c14.7712-3.9936 28.7488-9.070933 42.914134-14.8224 53.538133-21.7344 94.1824-60.740267 123.2128-109.969067 16.238933-27.537067 33.1008-72.490667 24.8832-103.6544-7.6032-28.817067-38.749867-39.594667-65.834667-38.826667l-38.0928 1.083734-1.6384-1.083734c0.418133-0.170667 1.152-0.2816 1.6896-0.384l2.295467-1.621333c12.066133-4.778667 35.601067-13.2096 49.271466-16.145067 2.005333-0.426667 4.5056-1.058133 6.126934-1.5616l3.771733 0.110934z" fill="#FD973E" /><path d="M362.871467 733.4144l1.015466 1.7664 2.909867 20.036267 7.68 0.3584c-0.904533 0.384-3.694933 0.964267-5.794133 1.1776l-29.713067 2.926933c-42.811733 4.215467-128.426667 0.341333-141.141333-50.167467l2.0224 2.082134c8.064 17.169067 34.952533 27.9552 52.48 30.916266 24.8064 4.189867 51.5328 2.944 76.194133-2.082133l34.363733-7.005867z" fill="#98030B" /><path d="M557.243733 739.413333c-7.4752 0.170667-14.916267 1.467733-22.314666 1.681067l7.330133-2.602667 1.058133-7.210666 10.487467-12.526934c9.9072-11.8272 16.034133-24.814933 23.031467-39.005866 0.964267-1.954133 4.8384-4.5568 6.9632-4.693334 2.551467-0.162133 6.7584 6.109867 6.075733 8.6016-5.2736 19.234133-14.651733 34.952533-27.1872 49.4592l-5.435733 6.289067z" fill="#7C0102" /><path d="M1016.96 530.944c-2.210133 2.167467-6.442667 6.784-9.258667 8.362667l-42.0608 23.620266c-0.708267-1.092267-2.2272-3.293867-3.089066-4.804266l-6.528-11.3664c-1.2288-2.141867 0.110933-8.192 1.536-9.617067l3.746133-0.247467c0.8192-0.0512 2.397867-1.5104 2.372267-1.7408 23.3216-5.5552 30.762667-4.053333 53.282133-4.215466z" fill="#9E030C" /><path d="M727.6288 404.164267c-0.128 0.136533-1.467733 1.578667-1.399467 1.4592-0.768 1.322667 35.2 61.653333 14.020267 62.097066-1.4592 0.034133-4.650667-2.6112-5.179733-4.113066-7.586133-21.2736-16.887467-42.888533-29.4912-61.013334l22.050133 1.578667z" fill="#87010A" /><path d="M392.482133 753.4592c-0.136533 0.213333-3.0976 1.553067-3.950933 1.578667l-8.226133 0.221866 1.6896-2.4064 10.487466 0.605867z" fill="#98030B" /><path d="M197.922133 675.882667l-0.085333-2.0736c1.792 0.520533 1.792 0.964267 0.085333 2.0736z" fill="#FD973E" /><path d="M782.8736 624.324267l-2.116267 8.302933c-1.0496 8.234667-7.236267 40.072533-18.261333 37.009067-2.0736-0.580267-5.213867-5.256533-4.693333-7.432534l5.1968-22.0416c4.104533-17.399467 6.144-33.348267 6.4-51.899733 0.042667-3.012267 3.908267-7.313067 6.493866-7.458133 12.970667-0.7168 6.3744 35.797333 6.9888 43.52z" fill="#850108" /><path d="M621.294933 540.4928c1.902933 10.632533 8.2176 65.928533-5.947733 64.3328-2.679467-0.298667-6.152533-4.7104-6.016-7.936 0.8192-19.0464 0.597333-34.926933-0.913067-53.9904-0.2304-2.8928 2.4064-7.637333 4.898134-8.3968 2.3552-0.7168 7.432533 2.986667 7.970133 5.9904z" fill="#92010B" /><path d="M846.72 463.8976c3.037867 9.736533 17.134933 52.642133 3.746133 54.647467-2.397867 0.3584-6.4512-3.029333-6.954666-5.546667l-9.0368-45.508267c-0.418133-2.116267 1.467733-6.826667 3.336533-7.7056 2.244267-1.058133 8.0384 1.322667 8.9088 4.113067z" fill="#8B0109" /><path d="M938.0352 542.907733l-6.570667 2.244267c-1.288533-0.426667-5.0176-4.676267-5.2992-7.022933l-3.746133-31.214934c-0.247467-2.090667 2.628267-6.084267 4.599467-6.690133 1.962667-0.605867 7.099733 2.594133 7.4496 4.829867l4.6592 29.5424c0.324267 2.039467-0.964267 7.355733-1.092267 8.311466z" fill="#92020B" /><path d="M961.3056 536.900267c0.4608-0.520533 1.5616-1.553067 2.372267-1.7408 0.0256 0.2304-1.553067 1.6896-2.372267 1.7408z" fill="#C51717" /><path d="M511.291733 424.430933c-1.621333 0.512-4.1216 1.134933-6.126933 1.5616l6.126933-1.5616z" fill="#E73A2C" /><path d="M453.597867 443.767467c0.0768-0.162133 1.578667-1.339733 2.295466-1.621334l-2.295466 1.621334z" fill="#FB6D16" /><path d="M511.1296 291.054933l9.659733 0.776534c-0.878933 3.746133-2.8672 6.9632-6.6304 11.246933-4.3264 4.9152 8.6016 21.4784 19.2256 27.4688l6.929067 3.908267 2.389333-3.2512c0.059733 1.664 0.6144 5.725867 1.604267 7.338666l10.436267 16.930134c1.006933 1.6384 5.2224 4.3008 7.0912 3.882666 1.8688-0.418133 4.241067-4.292267 4.053333-6.161066l-0.802133-6.365867c14.165333-1.9712 8.541867 5.384533 20.6336-0.2816l9.745066-4.573867c7.867733-3.6864 14.848 4.002133 23.1424-1.066666l4.846934 7.159466 18.414933 28.5184c-3.089067 3.5328-6.8864 7.6544-9.531733 9.8816-74.043733 9.642667-132.1984 17.3312-200.465067 47.8464-3.080533 1.3824-9.540267 2.397867-9.898667-0.085333-0.110933-2.773333-0.827733-8.081067-2.833066-8.951467l-17.6896-7.7568 8.695466 26.837334-33.723733 19.285333c-22.203733 12.6976-42.5472 26.734933-62.071467 43.016533l-24.942933 20.795734c-4.650667 3.874133-9.309867 7.8336-13.653333 12.228266l-47.2064 47.709867c-2.798933 1.297067-9.403733 3.165867-12.450134 3.5072l-35.8912 4.002133c-2.090667-6.289067-15.086933-47.598933-24.951466-36.215466-1.152 1.3312-1.92 4.9152-1.3056 6.784l10.1632 31.240533-33.595734 4.078933-108.8512 13.166934c-3.857067 0.469333-7.3984 0.5632-10.0864 0.2816-17.092267-14.532267-13.576533-36.3264-0.366933-49.348267l18.244267-17.988267c25.796267-25.429333 48.8704-52.241067 73.5488-78.813866l29.405866-31.6672c15.889067 8.029867 30.148267 18.56 43.5712 31.8208 2.440533 2.4064 7.125333 3.447467 9.3184 1.6384 12.228267-10.120533-27.895467-36.9664-36.6336-41.9584-1.288533-0.733867-3.541333-3.259733-3.720533-3.746134 35.5328-38.058667 87.825067-70.749867 138.112-89.4976 32.750933-12.2112 65.544533-21.5552 100.027733-26.555733l34.8416-5.051733 9.233067 0.605866 14.2592 16.426667 18.389333 22.869333c1.493333 1.860267 7.108267 0.861867 8.192-0.930133 0.913067-1.501867 1.8176-6.493867 0.571734-8.32l-20.497067-30.173867c-1.237333-1.826133-2.0992-3.114667-2.568533-3.908266l54.161066-7.637334c3.669333-0.520533 8.6784-1.160533 11.4688-0.938666z m-221.201067 69.410134c-1.7408-1.262933-6.7072-1.314133-8.3456-0.366934s-2.235733 6.229333-0.861866 7.671467l24.285866 25.6c1.3824 1.4592 6.647467 0.878933 7.509334-0.622933 5.512533-9.6512-14.993067-26.769067-22.587734-32.290134zM84.923733 543.086933c-1.339733-1.578667-6.792533-2.2528-8.285866-0.853333-1.493333 1.408-1.937067 6.468267-0.768 8.192l13.576533 19.968c1.109333 1.6384 5.640533 2.8672 7.389867 2.158933 10.683733-4.3264-7.714133-24.533333-11.912534-29.4656z" fill="#E86443" /><path d="M685.969067 401.979733c-44.782933-1.390933-118.314667 10.6752-164.974934 19.6864-2.107733 0.4096-5.8368 2.176-5.922133 2.884267l-3.771733-0.110933-6.126934 1.5616c-13.6704 2.935467-37.205333 11.3664-49.271466 16.145066-0.7168 0.2816-2.218667 1.4592-2.295467 1.621334-0.5376 0.1024-1.271467 0.213333-1.6896 0.384-9.216 3.694933-27.076267 11.8016-35.950933 16.708266l-11.767467 6.5024-24.021333 14.190934c-13.422933 7.927467-38.613333 25.045333-50.082134 34.602666l-27.221333 22.6816-12.919467 11.178667c-11.1616 9.659733-22.8096 21.3504-32.5888 32.503467l-12.996266 14.830933c-13.832533 15.786667-25.4976 33.28-35.7632 51.601067l-2.8928 5.162666c0.426667-0.3584-1.425067-2.833067-2.824534-2.858666-57.378133-1.2288-116.036267-8.448-172.202666-25.966934-7.552-2.3552-13.866667-6.621867-19.0976-11.067733 2.688 0.2816 6.229333 0.187733 10.0864-0.2816l108.8512-13.166933 33.595733-4.078934-10.1632-31.240533c-0.605867-1.8688 0.1536-5.444267 1.3056-6.784 9.864533-11.383467 22.8608 29.9264 24.951467 36.215467l35.8912-4.002134c3.0464-0.341333 9.6512-2.210133 12.450133-3.5072l47.2064-47.709866c4.343467-4.386133 9.002667-8.3456 13.653333-12.228267l24.942934-20.795733c19.5328-16.2816 39.867733-30.318933 62.071466-43.016534l33.723734-19.285333-8.695467-26.837333 17.6896 7.7568c1.9968 0.878933 2.722133 6.178133 2.833067 8.951466 0.349867 2.4832 6.8096 1.467733 9.898666 0.085334 68.266667-30.5152 126.421333-38.1952 200.465067-47.8464 2.645333-2.2272 6.442667-6.357333 9.531733-9.8816l-18.414933-28.5184-4.846933-7.159467c0.349867-3.5328 7.816533-8.661333 10.658133-5.777067 10.0608 10.171733 16.1792 19.080533 24.004267 31.274667l22.442666-23.6288 24.7552-26.606933 21.930667-23.5776c2.4064-2.5856 4.829867-5.051733 6.801067-6.929067 7.808 6.1184 4.804267 25.762133-0.878934 36.113067l-9.088 16.5376-9.378133 17.288533-21.666133 39.074133c-1.1264 2.030933-2.048 5.4016-2.218667 7.3216z" fill="#B62322" /><path d="M727.287467 281.4464l1.9712 2.2016c0.341333 0.384 0.0512 1.220267-0.059734 1.9968-1.979733 1.877333-4.394667 4.334933-6.801066 6.929067l-21.930667 23.5776-24.7552 26.606933-22.442667 23.6288c-7.825067-12.194133-13.943467-21.102933-24.004266-31.274667-2.850133-2.875733-10.308267 2.244267-10.658134 5.777067-8.302933 5.0688-15.274667-2.619733-23.1424 1.066667l-9.745066 4.573866c-12.091733 5.666133-6.468267-1.698133-20.6336 0.2816l-14.626134-18.8928c-0.759467-0.981333-4.2496-1.271467-5.137066-0.648533l-3.566934 0.0256c-0.529067 0-0.1024 0.5376 0.964267 1.92 0 0.187733-0.034133 1.536-0.017067 1.979733l-2.389333 3.2512-6.929067-3.908266c-10.624-5.9904-23.552-22.545067-19.2256-27.4688 3.7632-4.283733 5.751467-7.5008 6.6304-11.246934l-9.659733-0.776533c-0.418133-0.008533 2.9952-1.169067 3.968-1.3056l38.109867-5.6064 66.397866-11.332267 58.231467-9.156266c16.384-2.577067 41.309867 3.4048 49.442133 17.809066z" fill="#E47042" /><path d="M132.4032 436.394667l5.870933-6.8608c1.553067-1.8176 4.846933-4.241067 6.664534-5.384534 0.1792 0.4864 2.432 3.012267 3.720533 3.746134 8.738133 4.992 48.861867 31.837867 36.6336 41.9584-2.193067 1.809067-6.877867 0.776533-9.3184-1.6384-13.422933-13.2608-27.682133-23.790933-43.5712-31.8208z" fill="#980F18" /><path d="M445.499733 299.6224c0.469333 0.7936 1.3312 2.082133 2.568534 3.908267l20.497066 30.173866c1.245867 1.826133 0.341333 6.826667-0.571733 8.32-1.083733 1.783467-6.698667 2.781867-8.192 0.930134l-18.389333-22.869334-14.2592-16.426666-9.233067-0.605867c0.110933-0.2304 3.012267-1.399467 4.104533-1.493333l13.166934-1.143467c3.541333-0.3072 7.688533-0.418133 10.308266-0.7936z" fill="#950E17" /><path d="M289.928533 360.465067c7.594667 5.521067 28.100267 22.638933 22.587734 32.290133-0.861867 1.501867-6.126933 2.082133-7.509334 0.622933l-24.285866-25.6c-1.373867-1.442133-0.768-6.724267 0.861866-7.671466s6.6048-0.896 8.3456 0.366933z" fill="#C03F30" /><path d="M84.923733 543.086933c4.1984 4.9408 22.6048 25.147733 11.912534 29.4656-1.757867 0.708267-6.280533-0.529067-7.389867-2.158933l-13.576533-19.968c-1.169067-1.723733-0.725333-6.784 0.768-8.192 1.493333-1.408 6.946133-0.725333 8.285866 0.853333z" fill="#C43C2F" /><path d="M565.085867 346.811733l0.802133 6.365867c0.1792 1.8688-2.184533 5.742933-4.053333 6.161067-1.8688 0.418133-6.084267-2.244267-7.0912-3.882667l-10.436267-16.930133c-0.9984-1.621333-1.553067-5.674667-1.604267-7.338667-0.017067-0.443733 0-1.800533 0.017067-1.979733l2.6112-1.937067c0.887467-0.6144 4.3776-0.3328 5.137067 0.648533l14.626133 18.8928z" fill="#C44530" /><path d="M545.322667 327.2704l-2.6112 1.937067c-1.058133-1.3824-1.493333-1.911467-0.964267-1.92l3.566933-0.0256z" fill="#E86443" /></svg>