<?xml version="1.0" standalone="no"?><!DOCTYPE svg PUBLIC "-//W3C//DTD SVG 1.1//EN" "http://www.w3.org/Graphics/SVG/1.1/DTD/svg11.dtd"><svg class="icon" width="256px" height="256.00px" viewBox="0 0 1024 1024" version="1.1" xmlns="http://www.w3.org/2000/svg"><path d="M610.397867 120.635733l35.524266 6.8352 94.848 48.2816 29.0304 17.962667 29.124267 81.4592-14.2592 398.4384-69.7856 150.826667-117.051733 115.029333-43.707734 61.2096-49.527466 10.129067-99.0464-11.605334-82.449067-51.140266-78.4896-39.850667-5.410133-7.594667-15.0528-251.758933 39.022933-174.839467 221.354667-321.6896 99.0464-31.6928h26.8288z" fill="#C9191D" /><path d="M611.3792 120.8064c-0.341333 6.647467 0.238933 13.457067 0 20.1216-6.8096 1.544533-12.561067-2.218667-18.747733-2.628267-10.7008-0.7168-49.5104 0.238933-40.413867 17.792 4.411733 8.507733 42.973867 21.666133 53.495467 24.448 30.148267 7.9872 64.426667 13.636267 93.6704 0.580267 1.467733-7.04-6.144-13.559467-11.648-17.220267-12.219733-8.1152-30.455467-14.378667-44.6976-17.937066-3.268267-0.8192-0.776533-9.361067-1.476267-12.578134 0.861867-6.331733 1.160533-9.173333 2.517333-15.086933-0.375467 6.749867-1.527467 6.749867 4.992 8.763733 30.634667 9.454933 56.157867 13.1584 83.9424 31.7952 15.633067 10.487467 25.0624 21.230933 36.795734 34.8672-4.087467 3.4048-3.029333 14.062933-2.628267 18.961067 4.078933 49.467733 9.4208 94.907733 7.765333 145.8176-2.4832 76.202667-7.7312 161.211733-17.664 236.2624-20.317867 153.531733-93.346133 292.864-257.877333 322.935467-69.495467 12.706133-179.387733 4.3264-248.2432-13.090134-4.522667-1.143467-7.8336-5.265067-6.894933 3.1232-93.380267-126.916267-55.108267-322.8416 4.522666-456.814933 27.682133-62.1824 63.044267-136.234667 96.443734-195.217067C398.421333 161.774933 478.984533 95.573333 592.443733 115.874133c6.1952 1.109333 12.6464 3.968 18.952534 4.9408zM397.636267 807.159467c0.6656-17.1264-0.836267-34.517333-0.1024-51.652267 3.208533-75.178667 14.5152-149.896533 30.190933-223.735467 0.6144-2.875733-0.477867-6.417067 0.622933-9.437866l34.670934-135.031467-28.9536 55.261867c-50.525867 112.904533-89.984 235.383467-42.0864 356.437333 1.245867 3.157333 1.1776 7.441067 5.666133 8.157867zM306.747733 520.917333l-10.624-2.688c-14.011733 11.118933-23.714133 28.6208-30.5408 45.021867-24.328533 58.461867-34.500267 154.487467-10.052266 213.7856 8.96 21.725867 31.3344 42.914133 48.725333 15.9488 18.935467-29.354667 1.646933-87.202133-2.116267-120.379733-4.010667-35.345067-1.979733-65.6384 2.517334-100.462934 2.1504-16.6656 10.0864-34.039467 2.0992-51.2256z" fill="#C9191D" /><path d="M244.2496 907.7248c-0.938667-8.388267 2.372267-4.266667 6.894933-3.1232 68.855467 17.416533 178.747733 25.787733 248.2432 13.090133 164.5312-30.071467 237.559467-169.403733 257.877334-322.935466 9.9328-75.050667 15.189333-160.059733 17.664-236.2624 1.655467-50.909867-3.6864-96.349867-7.765334-145.8176-0.401067-4.898133-1.467733-15.5648 2.628267-18.961067 83.780267 97.322667 61.610667 243.131733 65.271467 363.400533 1.399467 46.0032 2.005333 92.424533-4.9664 138.120534-16.008533 104.917333-74.9568 242.338133-170.0864 297.5744-75.946667 44.100267-160.9728 34.005333-242.944 14.8992-70.485333-16.426667-129.006933-40.4224-172.8256-99.985067z m132.514133 33.1776c-6.724267 1.160533-15.146667 5.845333-16.785066 13.175467 5.410133 5.102933 10.496 12.049067 16.631466 16.1536 30.9248 20.676267 104.081067 32.64 140.424534 27.963733 24.362667-3.131733 22.9632-15.086933 4.727466-27.264-31.2576-20.881067-108.398933-36.352-145.006933-30.020267z" fill="#BC0012" /><path d="M644.0704 118.289067c-1.3568 5.9136-1.655467 8.7552-2.517333 15.086933-0.0256 0.221867-2.2784 0.631467-2.551467 3.626667-0.861867 9.275733 3.8656 33.0496-11.255467 31.658666-2.082133-0.187733-7.5008-2.4576-8.891733-3.7888-7.159467-6.869333-5.230933-38.212267-4.957867-49.1008 0.887467-35.191467 7.022933-68.8384 30.1312-96.836266 3.618133-4.386133 17.083733-17.083733 21.76-18.466134 10.538667-3.114667 29.815467 10.0608 36.215467 18.423467 11.1616 14.574933-12.194133 21.2736-21.512533 28.962133-22.3232 18.414933-30.216533 43.409067-36.420267 70.442667z" fill="#3A1B13" /><path d="M641.553067 133.376c0.699733 3.217067-1.792 11.758933 1.476266 12.578133 14.242133 3.5584 32.477867 9.821867 44.6976 17.937067 5.504 3.6608 13.115733 10.180267 11.648 17.220267-29.243733 13.056-63.522133 7.415467-93.6704-0.580267-10.5216-2.7904-49.083733-15.940267-53.495466-24.448-9.096533-17.553067 29.713067-18.500267 40.413866-17.792 6.186667 0.4096 11.938133 4.1728 18.747734 2.628267 0.238933-6.664533-0.3328-13.4656 0-20.1216 0.059733-1.186133-0.2048-2.3808 0.273066-3.5328l2.244267-1.493334c-0.273067 10.888533-2.2016 42.231467 4.957867 49.1008 1.3824 1.3312 6.8096 3.592533 8.891733 3.7888 15.1296 1.390933 10.3936-22.382933 11.255467-31.658666 0.2816-2.9952 2.525867-3.4048 2.551466-3.626667z" fill="#910015" /><path d="M306.747733 520.917333c7.9872 17.1776 0.0512 34.56-2.0992 51.2256-4.497067 34.833067-6.528 65.1264-2.517333 100.462934 3.7632 33.1776 21.0432 91.025067 2.116267 120.379733-17.390933 26.965333-39.765333 5.768533-48.725334-15.9488-24.439467-59.2896-14.276267-155.3152 10.052267-213.7856 6.826667-16.401067 16.529067-33.902933 30.5408-45.021867l10.624 2.688zM397.636267 807.159467c-4.48-0.725333-4.411733-5.000533-5.666134-8.157867-47.8976-121.053867-8.439467-243.5328 42.0864-356.437333l28.9536-55.261867-34.670933 135.031467c-1.092267 3.0208 0 6.562133-0.622933 9.437866-15.675733 73.838933-26.9824 148.5568-30.190934 223.735467-0.733867 17.134933 0.768 34.517333 0.1024 51.652267z" fill="#E14238" /><path d="M376.763733 940.9024c36.599467-6.331733 113.749333 9.1392 145.006934 30.020267 18.235733 12.1856 19.6352 24.132267-4.727467 27.264-36.343467 4.676267-109.499733-7.278933-140.424533-27.963734-6.144-4.104533-11.221333-11.050667-16.631467-16.1536 1.6384-7.330133 10.0608-12.014933 16.785067-13.175466z" fill="#910015" /></svg>