<?xml version="1.0" standalone="no"?><!DOCTYPE svg PUBLIC "-//W3C//DTD SVG 1.1//EN" "http://www.w3.org/Graphics/SVG/1.1/DTD/svg11.dtd"><svg class="icon" width="256px" height="256.00px" viewBox="0 0 1024 1024" version="1.1" xmlns="http://www.w3.org/2000/svg"><path d="M593.28 178.722133c25.0624 7.3472 27.298133 15.394133 44.288 31.889067 0.273067 11.067733 0.9472 25.659733-7.901867 33.723733-9.941333 9.0624-16.324267 1.9968-26.641066 3.4816-2.184533 0.315733-18.7136 7.9104-20.002134 9.224534-0.785067 0.802133-0.853333 2.8416-2.065066 4.087466-2.935467 3.003733-6.161067 5.7344-8.900267 8.942934v1.553066c5.538133 3.524267 10.478933 13.917867 15.2576 16.699734 6.869333 3.9936 19.319467 4.0192 27.7504 7.68 24.644267 10.683733 41.028267 32.861867 51.805867 56.251733 2.1248 4.608-0.034133 7.355733 6.1696 11.5456 8.132267 5.504 22.818133 1.450667 32.6912 2.7392 7.688533 1.006933 13.866667 7.022933 22.775466 4.992 2.3552-0.5376 8.7552-4.992 10.939734-6.7584 8.746667-7.074133 14.6432-18.321067 22.9632-24.866133 2.619733-2.056533 5.649067-2.679467 7.9616-4.437334 6.724267-5.102933 12.194133-9.591467 15.581866-17.672533-15.010133-22.391467-13.730133-47.7184-31.453866-69.12-10.453333-12.6208-24.900267-24.439467-40.772267-29.201067-0.418133-3.089067 4.0448-1.723733 6.1952-1.7664 3.217067-0.068267 6.5536-0.162133 9.745067 0 12.765867 0.6656 24.789333 5.9136 34.577066 14.139734 5.973333 5.0176 15.2832 13.738667 17.160534 21.026133l3.2 1.373867c4.002133 12.663467 9.378133 24.96 9.053866 38.528 9.079467 9.924267 19.293867 17.8432 23.7824 31.1296 1.288533 3.805867 0.4352 9.514667 3.4048 12.535466 2.773333 2.807467 5.521067 1.1008 8.635734 1.9968 7.7312 2.2272 24.0384 13.8496 29.533866 20.0704 3.285333 3.720533 6.007467 9.7024 8.823467 13.320534l-4.4288 6.9888c-1.629867-2.9696-4.488533-2.602667-6.203733-3.447467-7.3728-3.618133-13.021867-10.043733-20.736-13.806933-5.597867-2.7392-18.807467-8.132267-24.413867-7.424-7.108267 0.896-34.0224 11.997867-36.096 18.824533-0.418133 4.8384-2.7904 18.628267-5.973333 21.5808-0.546133 0.503467-2.1504 0.119467-2.679467 0.682667-0.9216 0.981333-0.810667 2.909867-2.193067 4.0448-7.6544 6.2464-17.6384 6.1184-25.3952 10.0864-2.525867 1.288533-3.985067 4.224-5.845333 4.778666-9.5744 2.858667-15.1808-5.282133-22.434133-9.019733-9.762133-5.026133-18.7136-5.666133-29.610667-4.932267v36.317867c0 1.0496-8.328533 16.605867-9.787733 18.56-5.282133 7.0656-13.192533 12.032-19.4816 17.723733-7.594667 6.877867-13.175467 14.6176-7.04 24.823467 1.245867 2.065067 4.445867 4.181333 6.263466 6.186667 7.7056 8.465067 18.235733 18.807467 23.330134 29.764266 4.3264 9.3184 4.667733 17.698133 6.980266 26.6752 1.024 3.985067 5.111467 12.3136 8.576 14.4384 6.254933 3.831467 13.858133-0.571733 19.106134-4.804266 26.794667-21.597867 53.188267-69.845333 70.331733-100.608 1.220267-2.184533 0.5888-4.864 1.809067-7.048534 8.2688-14.788267 18.517333-33.5616 37.2224-35.413333 6.365867-0.631467 13.5168 1.578667 18.56 5.282133-20.292267-3.9424-29.525333 11.4688-37.546667 27.1104-18.961067 36.9664-32.7168 74.683733-57.2672 109.252267-40.3712 56.866133-106.257067 68.667733-155.8784 113.3824-37.768533 34.030933-62.071467 82.3296-71.671467 132.0448l-2.688 20.343467c-3.985067-4.1984-1.92-10.120533-2.688-15.0272-3.447467-21.9136-12.9536-51.234133-22.613333-71.278934-21.597867-44.817067-57.540267-75.758933-100.753067-101.1968-23.355733-13.7472-49.245867-24.1152-70.613333-40.9856-26.8288-21.179733-50.952533-60.4672-66.7392-90.922666-9.4464-18.2272-26.658133-64.622933-38.997333-77.0304-1.570133-1.578667-7.176533-2.705067-8.490667-5.6832 5.9392 0.494933 12.663467 2.2272 17.7152 5.316266 4.8128 2.944 10.9056 10.453333 13.934933 15.300267 18.363733 29.457067 31.214933 62.370133 53.3504 90.1376 5.649067 7.0912 14.472533 14.805333 20.616534 21.905067l5.9904 0.213333c1.553067-14.242133 7.168-30.498133 15.104-42.478933 7.645867-11.554133 17.834667-19.549867 27.050666-28.7488 1.262933-1.2544 2.944-6.1696 5.461334-7.825067 0.674133-5.256533 0.827733-10.427733-2.491734-14.788267l-23.893333-20.394666c-10.589867-12.910933-14.1568-26.2912-15.880533-42.581334-0.699733-6.562133 3.3024-12.424533 1.518933-19.234133-2.184533-7.5776-18.952533-7.125333-25.4208-6.3744-7.2448 0.836267-14.6176 5.666133-22.843733 3.2768-1.885867-0.546133-10.939733-11.946667-13.5936-14.805333-1.194667-1.288533-1.3056-3.336533-2.056534-4.087467-2.030933-2.030933-11.1872-8.721067-13.806933-9.224533-8.686933-5.2736-18.8672-8.1664-28.9792-9.105067l-9.992533-10.385067c2.321067-0.4352 4.283733-3.268267 5.316266-5.316266 3.7632-1.578667 5.947733-0.597333 9.591467 0.136533 14.173867 2.850133 31.9488 7.816533 43.477333 16.768 6.0416 4.693333 10.9056 11.904 17.109334 16.5888 3.208533 1.288533 5.9136-1.271467 8.6784-1.578667 14.1568-1.570133 23.125333 0.273067 37.154133 1.783467 1.390933 0.145067 2.56 0.657067 3.592533 1.578667 2.7648 0.008533 3.771733-11.52 4.7616-14.532267 6.8608-20.829867 23.867733-43.605333 43.3152-54.1184 6.775467-3.6608 14.2848-4.497067 20.087467-9.1392 6.2208-0.930133 12.424533-2.517333 18.6368-3.5072 3.319467-0.529067 7.227733 0.648533 10.368-0.256 0.9472-0.273067 8.6272-7.611733 9.122133-8.584533 3.822933-7.466667-5.8624-19.4304-11.639466-23.893334-7.185067-5.546667-14.7712-5.077333-23.594667-6.519466-9.173333-5.632-15.675733-19.285333-13.533867-29.866667 0.494933-2.449067 8.413867-13.115733 10.632534-15.940267 9.728 4.983467 2.884267 19.4304 7.876266 28.4416l2.0992 1.442134c5.597867 1.015467 11.844267 2.065067 17.109334 4.1472 3.771733 1.493333 14.190933 7.9872 16.836266 10.624 2.8416 2.8416 5.9392 10.368 8.379734 13.764266 0.981333 1.3568 2.244267 2.6112 3.703466 3.464534 6.801067-0.349867 12.637867-6.3232 17.8432-8.3968 13.312-5.290667 51.1488-5.444267 64.930134-1.834667 6.075733 1.595733 17.314133 9.181867 23.210666 8.669867l12.424534-16.1024c9.2928-6.673067 18.2528-11.767467 26.615466-19.490134 1.288533-1.186133 3.3024-1.288533 4.087467-2.065066 0.256-0.247467 3.5584-5.751467 3.6608-6.0928 3.217067-10.9312-4.6336-30.4896-14.574933-36.053334l2.423466-3.541333z m-10.274133 290.0736c12.765867 9.796267 14.9504 0.6144 23.5264-6.673066 15.368533-13.064533 40.388267-24.925867 38.075733-48.648534-0.8448-8.686933-5.9904-18.8672-7.0144-26.632533-0.733867-5.5808 0.503467-12.0832 0.0512-17.7664-1.152-14.378667-6.050133-28.347733-12.142933-40.994133-0.674133-1.408-0.136533-3.797333-1.186134-5.896534-5.188267-10.359467-36.266667-17.2032-47.0272-20.292266-27.127467-38.058667-85.546667-45.687467-123.921066-19.515734-5.4784 3.7376-16.4864 17.058133-20.6336 18.338134-5.0176 1.536-12.612267 1.083733-17.4336 2.048-16.887467 3.396267-33.450667 9.275733-46.122667 21.188266-13.294933 12.501333-22.075733 32.315733-23.842133 50.551467-0.8192 8.465067 2.619733 11.2896 3.473066 17.7152 1.134933 8.558933-1.7664 15.778133 0.4608 24.354133 3.268267 12.603733 9.0624 19.396267 19.131734 26.914134 12.322133 9.1904 27.093333 15.616 30.1056 32.7936 5.495467-0.221867 11.2384 0.5888 16.725333 0.0256 11.869867-1.2288 11.101867-3.8656 18.679467-9.659734 2.269867-1.732267 6.340267-5.051733 7.406933-5.794133 30.139733-21.085867 71.6032-22.664533 106.453333-12.484267 11.502933 3.362133 19.208533 8.900267 28.962134 15.325867 3.848533 2.5344 4.6592 3.848533 6.2976 5.12z m-14.1568 190.370134c19.9936-16.4864 45.6192-27.0336 65.092266-42.0864 6.724267-5.1968 18.389333-18.0224 19.5584-26.496 4.369067-31.5136-13.252267-64.477867-43.776-74.9056-9.5232-3.2512-21.632-3.473067-30.711466-6.485334-6.784-2.244267-8.541867-9.2672-12.296534-12.501333-10.769067-9.2672-38.203733-20.932267-52.189866-22.203733-31.889067-2.901333-60.7232 10.308267-81.783467 33.5104-7.9616 1.015467-16.6912-0.6144-24.533333 0.264533-12.5952 1.408-38.562133 19.037867-47.018667 29.1584-10.333867 12.3648-15.8464 23.773867-19.5072 38.946133-0.9984 4.1472-4.343467 12.373333-3.319467 15.7952 0.256 0.887467 0.989867 1.3824 1.536 2.048 1.595733 1.9456 17.629867 10.410667 21.341867 12.305067 60.996267 31.086933 98.747733 49.134933 137.344 108.885333 1.9712 3.0464 8.6784 15.112533 10.555733 16.017067 3.1488 1.5104 3.729067-5.341867 5.922134-6.468267 13.44-24.004267 33.143467-48.759467 53.7856-65.774933z" fill="#F3EAC7" /><path d="M729.6768 217.693867c-3.2-0.162133-6.528-0.068267-9.745067 0-2.141867 0.042667-6.6048-1.322667-6.1952 1.7664 15.880533 4.7616 30.327467 16.580267 40.772267 29.201066 17.7152 21.4016 16.4352 46.728533 31.453867 69.12-3.396267 8.081067-8.8576 12.5696-15.581867 17.672534-2.312533 1.757867-5.3504 2.3808-7.9616 4.437333-8.32 6.545067-14.216533 17.792-22.9632 24.866133-2.184533 1.7664-8.593067 6.229333-10.939733 6.7584-8.9088 2.030933-15.086933-3.9936-22.775467-4.992-9.873067-1.288533-24.558933 2.7648-32.6912-2.7392-6.203733-4.189867-4.0448-6.9376-6.1696-11.5456-10.7776-23.381333-27.1616-45.559467-51.805867-56.251733-8.430933-3.6608-20.881067-3.6864-27.7504-7.68-4.778667-2.781867-9.719467-13.175467-15.2576-16.699733v-1.553067c2.7392-3.2 5.9648-5.930667 8.900267-8.942933 1.211733-1.237333 1.271467-3.285333 2.065067-4.087467 1.288533-1.314133 17.8176-8.9088 20.002133-9.224533 10.3168-1.476267 16.699733 5.5808 26.641067-3.4816 8.849067-8.072533 8.174933-22.664533 7.901866-33.723734 1.8688 1.809067 2.551467 3.822933 4.573867 5.1968 7.5008-0.802133 15.0016-2.6368 22.8608-1.629866 6.4 0.827733 13.141333 6.203733 19.541333 7.022933 10.9312 1.390933 19.063467-4.027733 28.347734-5.248 4.3008-0.571733 13.166933-1.083733 16.802133 1.7408zM593.28 178.722133l-2.423467 3.541334c9.9328 5.563733 17.792 25.122133 14.574934 36.053333-0.1024 0.341333-3.4048 5.8368-3.6608 6.0928-0.776533 0.768-2.798933 0.8704-4.087467 2.065067-8.362667 7.722667-17.322667 12.8256-26.615467 19.490133l-12.424533 16.1024c-5.896533 0.512-17.134933-7.074133-23.210667-8.669867-13.781333-3.6096-51.618133-3.464533-64.930133 1.834667-5.213867 2.0736-11.042133 8.046933-17.8432 8.3968-1.4592-0.853333-2.730667-2.0992-3.703467-3.464533-2.440533-3.396267-5.5296-10.922667-8.379733-13.764267-2.6368-2.6368-13.064533-9.130667-16.836267-10.624-5.265067-2.082133-11.52-3.131733-17.109333-4.1472l-2.0992-1.442133c-4.992-9.0112 1.851733-23.458133-7.876267-28.4416 10.683733-13.661867 27.613867-26.026667 45.201067-28.3136 7.543467-0.981333 12.8256 1.152 20.855467-2.167467 5.751467-2.3808 5.7856-5.4784 8.311466-7.586133s11.383467-5.7856 12.117334-6.647467c0.5376-0.622933 0.059733-2.389333 0.554666-2.7904 0.622933-0.503467 13.508267-4.974933 15.1552-5.307733 22.792533-4.573867 45.277867-1.493333 63.470934 13.7984 5.230933 4.394667 10.632533 13.269333 17.681066 14.208 5.572267 0.7424 7.355733 0.034133 13.2864 1.774933z m-104.516267 1.774934H479.914667c-0.221867 5.76 5.393067 7.432533 8.849066 2.645333v-2.645333z" fill="#FEF8E0" /><path d="M386.0224 217.693867c-2.141867 10.581333 4.360533 24.234667 13.533867 29.866666 8.814933 1.442133 16.401067 0.9728 23.594666 6.519467 5.777067 4.4544 15.4624 16.426667 11.639467 23.893333-0.503467 0.9728-8.174933 8.311467-9.122133 8.584534-3.140267 0.913067-7.048533-0.273067-10.368 0.256-6.212267 0.989867-12.416 2.568533-18.6368 3.5072-5.802667 0.8704-9.591467-0.366933-15.9744 2.628266-3.575467 1.672533-4.8384 4.061867-7.0656 5.333334-2.56 1.467733-6.545067 1.4848-8.8576 3.541333-6.971733 6.203733-13.909333 13.499733-20.369067 20.4288-1.390933 1.493333-3.712 1.467733-4.130133 2.013867-0.349867 0.452267-4.309333 7.7568-5.376 9.685333-2.1248 3.8144-1.501867 10.094933-7.304534 9.5232 3.720533-8.046933-1.015467-15.982933-1.7408-23.944533-0.6144-6.8096 0.853333-14.702933-0.034133-21.2224-0.5632-4.138667-5.777067-8.695467-5.265067-10.487467 4.6336-6.562133 10.052267-8.226133 17.749334-8.917333l3.464533-11.588267-30.165333 2.602667-3.490134 3.592533c16.657067 10.2912 0.170667 16.162133-9.838933 6.263467-5.7856-1.8688-7.048533 18.7648 0.298667 20.974933 3.720533 1.117867 9.028267-2.2016 7.7568 3.7632-19.259733-2.5344-9.659733 15.300267-12.6208 25.463467-1.681067 5.768533-19.310933 13.687467-15.726934 24.1408-1.3824 1.595733-10.555733-3.84-10.641066-4.4288-1.015467-6.826667 1.664-3.652267 6.254933-4.3776 2.184533-0.341333 3.157333-0.981333 4.360533-2.807467l-1.7664-9.642667c-4.411733-0.273067-9.3184 1.518933-12.381866-2.6624l12.3904-12.398933c0.145067-4.0448-15.428267-2.338133-18.670934-2.730667l-9.668266 2.7392 3.541333-13.294933c5.341867-1.8688 6.9376 4.224 9.9584 5.102933 2.3552 0.682667 11.374933 0.733867 13.175467-0.554666 0.725333-3.1232 4.232533-7.0912 4.949333-9.2672 0.6656-2.013867 0.034133-4.053333 0.256-5.896534 4.992-0.290133 12.561067 2.082133 12.398933-5.307733-5.614933-1.578667-11.579733-1.416533-12.398933 5.307733-5.666133 0.3328-11.016533 0.836267-16.622933 1.604267-8.132267-5.384533-11.357867-14.1312-9.992534-23.790933 0.708267-4.9664 7.492267-6.126933 7.125334-11.4688-6.050133-1.8688-8.021333 5.640533-11.767467 6.8608-1.9456 0.631467-4.061867 0.017067-5.9392 0.221866-0.469333-4.266667 2.474667-4.667733 5.2992-6.2208 4.420267-2.432 14.301867-5.026133 17.408-8.277333 1.6384-1.7152 4.189867-10.453333 6.570667-13.806933 4.369067-6.135467 19.345067-18.167467 26.146133-21.6832 13.457067-6.9632 31.342933-8.814933 46.4384-6.7072 6.161067 0.861867 16.8704 7.995733 23.031467 8.8576 5.265067 0.733867 13.730133 0.6144 18.602666-1.774934z m-77.952 5.316266c-12.885333-0.981333-20.343467 5.956267-28.3392 15.0528-1.749333 1.9968-4.241067 2.9184-3.541333 6.1952 6.084267 0.119467 9.0112-6.058667 14.1056-8.0384 7.057067-2.7392 18.304-2.013867 17.783466-13.218133z m-15.940267 24.797867c-4.9152-0.7936-9.719467 0.8192-10.624 6.1952 3.310933 4.829867 6.2976 1.681067 10.538667 0.802133l0.085333-6.9888z m15.9488 10.632533h-3.541333v3.541334l3.541333-3.541334z m-42.5216 17.7152c8.8576 0.315733 12.1344-7.236267 4.4288-12.3904-4.309333 3.780267-6.792533 6.792533-4.4288 12.3904z m-1.152 2.577067l-1.408 4.232533 9.0368 3.003734 1.408-4.232534-9.0368-3.003733z m25.9584 50.56c-0.2048-3.1488 1.058133-7.978667-1.698133-9.813333l-8.925867-0.8192v10.632533h10.632534z" fill="#FEF9E1" /><path d="M203.562667 338.1504l9.992533 10.385067c10.112 0.938667 20.3008 3.831467 28.9792 9.105066-5.248-0.9984-7.662933-2.210133-11.818667-3.234133-5.546667-1.365333-11.2384-2.491733-16.443733-0.2304-0.861867 7.9872 1.2032 15.778133 10.5472 14.1056v8.832c-6.562133-1.024-17.544533 6.459733-22.715733 1.4592-0.256-0.247467-3.515733-5.777067-3.618134-6.1184-1.390933-4.590933 1.672533-8.917333 1.6384-13.9264-0.034133-5.026133-2.56-8.1408-0.1024-13.277867-5.188267-1.578667-6.8864 1.9456-10.069333 3.217067-1.655467 0.657067-3.84 0.136533-5.905067 1.1776-3.080533 1.544533-4.770133 8.123733-5.282133 11.5456l6.314667 1.664c-0.657067 11.707733 13.3632 11.136 13.1328 22.1696-1.4336 3.089067-5.102933 2.244267-7.0912 3.575467-1.8944 1.262933-5.1968 8.942933-8.669867 10.683733 3.387733 2.705067 3.9168 5.486933 3.4048 9.736533l-10.683733-0.9984c-3.5328 3.703467-5.623467 11.008-8.7296 14.3616-1.877333 2.030933-5.213867 2.7136-6.3232 4.3008-2.3552 3.370667-2.210133 10.990933-4.471467 15.0016 3.7632 2.389333 6.468267 2.3808 5.410133 8.081067l-15.863466 0.085333-3.754667 13.969067-10.24 2.1504-2.039467 6.826667c-1.006933 1.0496-10.888533-2.722133-12.066133-3.8656-0.657067-0.631467-0.7936-2.7904-2.013867-4.130134-5.256533-5.7856-7.645867-7.261867-16.0256-6.1696 1.3312 4.241067 9.736533 6.0672 11.562667 8.8064 0.9984 1.501867 0.6912 3.874133 1.681067 5.410134 1.467733 2.269867 6.1184 2.577067 8.072533 4.360533 3.089067 2.816 0.1792 5.956267 9.514667 4.616533 3.063467 0.878933 2.116267 6.203733 7.253333 6.920534 5.998933 0.8448-0.981333-8.849067 6.1952-7.0912l7.0912 7.0912c-3.234133 8.789333-3.063467 13.380267-8.8576 21.256533l-1.041067-1.5872-2.5088-0.187733c-0.7936-0.853333-2.7136-2.773333-3.541333-3.541334-16.3072-15.0272-33.527467-29.056-49.604267-44.288l16.273067-50.158933c4.386133-7.8336 22.152533-24.6272 30.2848-28.168533 7.458133-3.2512 22.007467-5.0432 27.810133-9.386667 2.816-2.107733 2.798933-4.642133 4.0192-5.828267 0.571733-0.554667 2.1504-0.1536 2.696534-0.657066 1.348267-1.237333 4.3776-9.838933 7.5008-12.962134 6.852267-6.852267 21.0944-13.3888 30.097066-15.069866z m-26.5728 24.8064h-4.420267l-2.653867 2.6624v2.645333h7.082667v-5.307733z m7.0912 12.407467l-13.2096-1.749334c-2.875733 1.783467-3.114667 3.831467-2.7392 7.048534l15.940266 1.774933v-7.074133z m-38.980267 31.880533l15.991467 0.938667 5.1456-12.228267-7.918934-9.915733c-9.668267 1.2288-14.8736 12.2112-13.218133 21.205333z m28.3392-12.407467v-5.316266c-0.648533-0.7168-2.568533 1.749333-3.5328 2.653866l3.5328 2.653867z" fill="#FDF8E1" /><path d="M242.5344 267.298133c1.877333-0.2048 4.002133 0.4096 5.9392-0.221866 3.754667-1.220267 5.725867-8.7296 11.767467-6.8608 0.366933 5.333333-6.417067 6.5024-7.125334 11.4688-1.373867 9.659733 1.860267 18.4064 9.992534 23.790933 5.6064-0.768 10.9568-1.271467 16.622933-1.604267 0.810667-6.7328 6.784-6.894933 12.398933-5.307733 0.162133 7.3984-7.406933 5.026133-12.398933 5.307733-0.221867 1.8432 0.4096 3.882667-0.256 5.896534-0.7168 2.176-4.224 6.144-4.949333 9.2672-1.792 1.288533-10.811733 1.245867-13.175467 0.554666-3.0208-0.878933-4.625067-6.971733-9.9584-5.102933l-3.541333 13.294933 9.668266-2.7392c3.242667 0.392533 18.807467-1.314133 18.670934 2.730667l-12.3904 12.398933c3.063467 4.181333 7.970133 2.389333 12.381866 2.6624l1.7664 9.642667c-1.2032 1.826133-2.184533 2.466133-4.360533 2.807467-4.590933 0.725333-7.2704-2.449067-6.254933 4.3776 0.085333 0.580267 9.258667 6.024533 10.641066 4.4288-3.584-10.453333 14.037333-18.372267 15.726934-24.1408 2.9696-10.171733-6.638933-28.0064 12.6208-25.463467 1.271467-5.956267-4.036267-2.645333-7.7568-3.7632-7.355733-2.210133-6.0928-22.8352-0.298667-20.974933 10.0096 9.890133 26.487467 4.027733 9.838933-6.263467l3.490134-3.592533 30.165333-2.602667-3.464533 11.588267c-7.688533 0.6912-13.115733 2.3552-17.749334 8.917333-0.512 1.792 4.701867 6.3488 5.265067 10.487467 0.887467 6.519467-0.580267 14.404267 0.034133 21.2224 0.7168 7.9616 5.4528 15.906133 1.7408 23.944533 5.802667 0.571733 5.179733-5.7088 7.304534-9.5232 1.0752-1.928533 5.026133-9.233067 5.376-9.685333 0.418133-0.546133 2.7392-0.520533 4.130133-2.013867 6.459733-6.929067 13.3888-14.216533 20.369067-20.4288 2.312533-2.056533 6.2976-2.0736 8.8576-3.541333 2.2272-1.28 3.498667-3.6608 7.0656-5.333334 6.382933-2.9952 10.171733-1.749333 15.9744-2.628266-5.8112 4.642133-13.320533 5.4784-20.087467 9.1392-19.447467 10.513067-36.4544 33.28-43.3152 54.1184-0.989867 3.012267-1.9968 14.5408-4.7616 14.532266-1.032533-0.9216-2.210133-1.425067-3.592533-1.578666-14.0288-1.501867-22.997333-3.3536-37.154134-1.783467-2.7648 0.3072-5.469867 2.8672-8.6784 1.578667-6.203733-4.676267-11.067733-11.895467-17.109333-16.5888-11.528533-8.951467-29.303467-13.909333-43.477333-16.768-3.643733-0.733867-5.828267-1.723733-9.591467-0.136534 3.4816-6.929067 0.785067-13.346133 1.774933-20.369066 0.4352-3.1232 2.747733-5.009067 3.268267-7.355734 0.622933-2.7904-0.196267-5.751467 0.520533-8.337066 0.810667-2.909867 9.7024-17.928533 13.789867-15.4112 0.571733-7.355733 7.253333-13.303467 14.3104-14.062934z" fill="#FDF8E0" /><path d="M867.848533 371.8144c9.1648 11.767467 13.9008 8.669867 25.3184 14.5408 4.027733 2.065067 6.971733 5.649067 10.129067 7.6288 1.629867 1.015467 4.027733 0.443733 5.026133 1.211733 0.494933 0.375467 0.0512 2.184533 0.64 2.722134 1.032533 0.938667 2.816 0.887467 4.036267 2.218666 9.5744 10.461867 21.179733 33.186133 23.594667 47.317334 0.733867 4.2752-1.220267 10.146133 2.107733 12.945066-14.6432 14.0032-31.300267 33.032533-47.829333 44.288-1.6896 1.152-7.458133 1.9712-8.8576 5.316267-5.162667-12.151467-13.056-25.378133-16.802134-39.005867l-15.086933-28.3136c3.5072 3.208533 7.586133 5.973333 10.658133 9.710934 4.138667 5.026133 6.314667 14.5408 14.062934 13.2608 2.432-6.203733 7.552-11.067733 9.8816-17.595734 9.975467-27.904-8.260267-54.1696-27.52-72.695466 1.7152 0.8448 4.573867 0.477867 6.203733 3.447466l4.4288-6.9888z" fill="#F2E9C8" /><path d="M583.005867 468.795733c-1.646933-1.262933-2.449067-2.577067-6.2976-5.12-9.762133-6.434133-17.4592-11.972267-28.962134-15.325866-34.850133-10.180267-76.305067-8.6016-106.453333 12.484266-1.058133 0.7424-5.137067 4.061867-7.406933 5.794134-7.5776 5.794133-6.8096 8.430933-18.679467 9.659733-5.486933 0.571733-11.229867-0.247467-16.725333-0.0256-3.012267-17.169067-17.783467-23.594667-30.1056-32.7936-10.069333-7.517867-15.863467-14.3104-19.131734-26.914133-2.2272-8.567467 0.674133-15.786667-0.4608-24.354134-0.853333-6.4256-4.292267-9.250133-3.473066-17.7152 1.7664-18.235733 10.5472-38.0416 23.842133-50.551466s29.243733-17.792 46.122667-21.188267c4.821333-0.9728 12.416-0.512 17.4336-2.048 4.1472-1.271467 15.1552-14.600533 20.6336-18.338133 38.3744-26.171733 96.802133-18.542933 123.921066 19.515733 10.760533 3.089067 41.838933 9.924267 47.0272 20.292267 1.0496 2.0992 0.512 4.497067 1.186134 5.896533 6.101333 12.654933 10.990933 26.615467 12.142933 40.994133 0.452267 5.6832-0.785067 12.1856-0.0512 17.7664 1.024 7.765333 6.1696 17.954133 7.0144 26.632534 2.312533 23.722667-22.7072 35.584-38.075733 48.648533-8.576 7.287467-10.760533 16.469333-23.5264 6.673067z" fill="#FEF9E1" /><path d="M568.849067 659.165867c-20.642133 17.015467-40.354133 41.762133-53.7856 65.774933-2.193067 1.1264-2.781867 7.978667-5.922134 6.468267-1.877333-0.904533-8.584533-12.962133-10.555733-16.017067-38.6048-59.7504-76.356267-77.7984-137.344-108.885333-3.720533-1.8944-19.746133-10.359467-21.341867-12.305067-0.546133-0.6656-1.28-1.160533-1.536-2.048-1.024-3.421867 2.321067-11.648 3.319467-15.7952 3.6608-15.172267 9.173333-26.581333 19.5072-38.946133 8.456533-10.112 34.414933-27.7504 47.018667-29.1584 7.850667-0.878933 16.580267 0.750933 24.533333-0.264534 21.060267-23.202133 49.8944-36.411733 81.783467-33.5104 13.994667 1.271467 41.429333 12.936533 52.189866 22.203734 3.754667 3.234133 5.521067 10.257067 12.296534 12.501333 9.088 3.012267 21.1968 3.234133 30.711466 6.485333 30.523733 10.427733 48.145067 43.392 43.776 74.9056-1.1776 8.4736-12.834133 21.2992-19.5584 26.496-19.473067 15.0528-45.098667 25.6-65.092266 42.0864zM857.224533 375.355733c19.259733 18.517333 37.495467 44.782933 27.52 72.695467-2.3296 6.528-7.4496 11.392-9.8816 17.595733-7.748267 1.28-9.924267-8.234667-14.062933-13.2608-3.080533-3.7376-7.159467-6.5024-10.658133-9.710933-3.7888-3.464533-8.311467-7.6288-12.398934-10.632533-5.0432-3.703467-12.194133-5.9136-18.56-5.282134-18.705067 1.851733-28.9536 20.625067-37.2224 35.413334-1.220267 2.184533-0.5888 4.864-1.809066 7.048533-17.143467 30.762667-43.528533 79.010133-70.331734 100.608-5.256533 4.232533-12.859733 8.635733-19.106133 4.804267-3.473067-2.1248-7.552-10.461867-8.576-14.4384-2.312533-8.977067-2.653867-17.3568-6.980267-26.6752-5.0944-10.948267-15.624533-21.290667-23.330133-29.764267-1.826133-2.005333-5.026133-4.1216-6.263467-6.186667-6.135467-10.205867-0.5632-17.937067 7.04-24.823466 6.280533-5.691733 14.199467-10.658133 19.4816-17.723734 1.4592-1.9456 9.787733-17.5104 9.787734-18.56v-36.317866c10.897067-0.733867 19.848533-0.093867 29.610666 4.932266 7.253333 3.7376 12.859733 11.869867 22.434134 9.019734 1.860267-0.554667 3.328-3.4816 5.845333-4.778667 7.7568-3.959467 17.7408-3.84 25.3952-10.0864 1.3824-1.1264 1.28-3.054933 2.193067-4.0448 0.529067-0.571733 2.133333-0.1792 2.679466-0.682667 3.182933-2.944 5.5552-16.733867 5.973334-21.5808 2.0736-6.826667 28.987733-17.928533 36.096-18.824533 5.6064-0.708267 18.816 4.6848 24.413866 7.424 7.714133 3.771733 13.3632 10.1888 20.736 13.806933zM150.417067 488.7296l-7.0912-7.0912c-7.176533-1.757867-0.196267 7.936-6.1952 7.0912-5.128533-0.725333-4.189867-6.0416-7.253334-6.920533-9.335467 1.339733-6.434133-1.800533-9.514666-4.616534-1.954133-1.783467-6.613333-2.090667-8.072534-4.360533-0.989867-1.527467-0.682667-3.908267-1.681066-5.410133-1.826133-2.7392-10.222933-4.565333-11.562667-8.8064 8.379733-1.092267 10.769067 0.375467 16.0256 6.1696 1.220267 1.348267 1.3568 3.498667 2.013867 4.130133 1.1776 1.134933 11.0592 4.9152 12.066133 3.8656l2.039467-6.826667 10.24-2.1504 3.754666-13.969066 15.863467-0.085334c1.058133-5.700267-1.646933-5.691733-5.410133-8.081066 2.261333-4.010667 2.1248-11.630933 4.471466-15.0016 1.109333-1.595733 4.445867-2.269867 6.3232-4.3008 3.106133-3.362133 5.188267-10.666667 8.7296-14.3616l10.683734 0.9984c0.512-4.258133-0.017067-7.031467-3.4048-9.736534 3.473067-1.7408 6.775467-9.412267 8.669866-10.683733 1.988267-1.322667 5.6576-0.477867 7.0912-3.575467 0.2304-11.0336-13.781333-10.4704-13.1328-22.1696l-6.314666-1.664c0.512-3.421867 2.2016-10.001067 5.282133-11.5456 2.065067-1.032533 4.258133-0.520533 5.905067-1.1776 3.1744-1.271467 4.881067-4.795733 10.069333-3.217066-2.4576 5.137067 0.0768 8.251733 0.1024 13.277866 0.034133 5.0176-3.0208 9.335467-1.6384 13.9264 0.1024 0.341333 3.362133 5.870933 3.618133 6.1184 5.1712 5.000533 16.1536-2.4832 22.7072-1.4592v-8.832c-9.344 1.672533-11.400533-6.1184-10.538666-14.1056 5.205333-2.261333 10.897067-1.134933 16.443733 0.2304 4.155733 1.024 6.570667 2.235733 11.818667 3.234134 2.619733 0.503467 11.776 7.1936 13.806933 9.224533 0.750933 0.750933 0.861867 2.798933 2.056533 4.087467 2.653867 2.858667 11.707733 14.2592 13.5936 14.805333 8.226133 2.389333 15.598933-2.440533 22.843734-3.2768 6.468267-0.7424 23.236267-1.2032 25.4208 6.3744 1.783467 6.8096-2.218667 12.672-1.518934 19.234133 1.732267 16.290133 5.2992 29.678933 15.880534 42.581334l23.893333 20.394666c3.319467 4.360533 3.165867 9.531733 2.491733 14.788267-2.517333 1.655467-4.1984 6.562133-5.461333 7.825067-9.207467 9.198933-19.396267 17.194667-27.050667 28.7488-7.936 11.9808-13.550933 28.2368-15.104 42.478933l-5.9904-0.213333c-6.144-7.099733-14.958933-14.805333-20.616533-21.905067-22.135467-27.767467-34.986667-60.680533-53.3504-90.1376-3.0208-4.846933-9.1136-12.356267-13.934933-15.300267l-5.3504-12.3904c-1.416533 0-2.9696-0.247467-4.360534 0-4.778667 0.8448-11.272533 1.629867-16.008533 1.783467-3.191467 0.1024-8.388267-4.9408-10.589867-4.9408-2.807467 0-7.150933 6.510933-11.52 4.923733l1.237334 3.524267 2.286933 0.0512 0.0256 2.6112-7.082667 5.3248 5.316267 6.1952c-0.708267 0.827733-1.041067 2.6368-1.774933 3.541333-0.128 0.1536-1.783467 0.298667-2.696534 1.7408-0.955733 1.5104-0.580267 3.080533-0.8448 3.575467-0.657067 1.237333-1.160533 2.363733-1.774933 3.541333h-10.632533c0.810667 8.302933 0.418133 15.812267-8.797867 17.792-1.442133 5.2992 3.310933 6.485333 5.256533 10.555734-0.0768 0.1792-1.152 0.290133-1.536 1.134933-0.418133 0.9216-0.034133 1.8688-0.238933 2.4064z" fill="#FEF8E0" /><path d="M173.448533 444.4416l-5.316266-6.1952 7.082666-5.3248-0.0256-2.6112-2.286933-0.0512-1.237333-3.524267c4.369067 1.5872 8.712533-4.923733 11.52-4.923733 2.210133 0 7.3984 5.0432 10.589866 4.9408 4.736-0.1536 11.229867-0.938667 16.008534-1.783467 1.390933-0.247467 2.944 0 4.360533 0l5.3504 12.3904c-5.051733-3.089067-11.776-4.821333-17.7152-5.316266-4.8128-0.401067-9.992533 0.042667-14.839467 0.221866-1.6384 2.5088-6.596267 4.215467-7.825066 5.461334-1.0496 1.058133-4.215467 5.000533-5.674667 6.724266z" fill="#FDF8E1" /><path d="M488.763733 180.497067v2.645333c-3.464533 4.7872-9.079467 3.106133-8.849066-2.645333h8.849066z" fill="#FBFBFB" /><path d="M308.0704 223.010133c0.520533 11.204267-10.717867 10.478933-17.783467 13.218134-5.085867 1.9712-8.021333 8.157867-14.1056 8.0384-0.699733-3.2768 1.792-4.206933 3.541334-6.1952 7.995733-9.096533 15.453867-16.034133 28.3392-15.0528zM290.363733 329.2928h-10.632533v-10.632533l8.925867 0.8192c2.756267 1.8432 1.493333 6.664533 1.698133 9.813333z" fill="#FDF8E0" /><path d="M265.557333 276.155733c-2.363733-5.597867 0.119467-8.618667 4.4288-12.3904 7.7056 5.154133 4.4288 12.706133-4.4288 12.3904zM292.130133 247.808l-0.085333 6.9888c-4.241067 0.887467-7.2192 4.027733-10.538667-0.802133 0.904533-5.376 5.7088-6.9888 10.624-6.1952zM262.985387 282.950827l1.406293-4.235947 9.038507 3.001173-1.407147 4.235947zM308.078933 258.440533l-3.541333 3.541334v-3.541334h3.541333zM145.1008 407.2448c-1.655467-8.994133 3.541333-19.968 13.218133-21.205333l7.918934 9.915733-5.1456 12.228267-15.991467-0.938667zM184.081067 375.364267v7.074133l-15.9488-1.774933c-0.375467-3.217067-0.136533-5.265067 2.7392-7.048534l13.2096 1.749334z" fill="#FBFBFB" /><path d="M176.989867 362.9568v5.307733h-7.082667v-2.645333l2.653867-2.6624h4.4288z" fill="#FEF8E0" /><path d="M173.44 394.837333l-3.5328-2.653866c0.964267-0.913067 2.875733-3.3792 3.5328-2.653867v5.316267z" fill="#FBFBFB" /><path d="M166.357333 456.840533c-4.753067 9.2416-10.077867 18.824533-14.173866 28.3392-1.9456-4.0704-6.698667-5.248-5.256534-10.555733 9.216-1.979733 9.608533-9.489067 8.797867-17.792h10.632533z" fill="#FDF8E1" /><path d="M1002.478933 635.758933l-1.7664-4.420266c-1.544533 3.925333-3.3792 8.6016-5.563733 12.142933-20.974933 33.9968-48.034133 65.109333-77.781333 90.504533l-14.088534 8.046934c1.024-4.736 3.413333-8.925867 4.881067-13.7216 4.9408-16.1792 11.502933-37.8368 12.910933-54.4 0.512-6.058667-1.058133-13.448533 0.213334-19.268267 1.0752-4.9152 9.966933-12.245333 12.9792-17.134933 9.002667-14.626133 20.3776-38.3488 27.1104-54.3744 4.8384-11.52 8.32-24.234667 12.757333-35.950934-4.6592-0.904533-2.978133 1.041067-4.352 3.549867-12.6976 23.099733-28.2112 48.264533-44.433067 69.009067-1.0752 1.3824-2.56 3.362133-4.352 3.618133-0.3072-4.3264 0.469333-8.968533-0.042666-13.243733-3.601067-29.7728-12.347733-58.837333-20.266667-87.790934L890.88 504.669867c16.529067-11.255467 33.186133-30.2848 47.829333-44.288 11.127467-10.641067 23.176533-24.0896 34.5088-33.6896 3.063467-2.594133 13.6192-10.530133 16.768-11.5712 13.201067-4.3776 21.4528 1.220267 26.282667 12.8768 2.5344 6.109867 5.000533 16.1536 5.6576 22.6816 5.76 57.3184-0.4352 130.9184-19.447467 185.079466z" fill="#71B041" /><path d="M890.88 504.669867l9.8048 17.655466c7.918933 28.9536 16.6656 58.018133 20.266667 87.790934 0.520533 4.2752-0.264533 8.917333 0.042666 13.243733 1.792-0.256 3.268267-2.235733 4.352-3.618133 16.221867-20.736 31.735467-45.9008 44.433067-69.009067 1.3824-2.5088-0.3072-4.4544 4.352-3.549867-4.437333 11.716267-7.918933 24.430933-12.757333 35.950934-6.7328 16.0256-18.0992 39.748267-27.1104 54.3744-3.012267 4.8896-11.904 12.2112-12.9792 17.134933-1.271467 5.819733 0.298667 13.2096-0.213334 19.268267-1.408 16.571733-7.970133 38.229333-12.910933 54.4-1.467733 4.795733-3.848533 8.9856-4.881067 13.7216l14.088534-8.046934c29.7472-25.3952 56.8064-56.507733 77.781333-90.504533 2.184533-3.549867 4.0192-8.2176 5.563733-12.142933l1.7664 4.420266c-25.864533 73.6768-68.189867 133.2224-141.687466 163.8912-8.2432 3.438933-17.6384 7.4752-26.5984 7.944534 26.3936-29.730133 45.346133-57.224533 56.686933-95.658667 17.937067-60.8 12.322133-127.812267-5.674667-188.296533-1.058133-3.5584-2.850133-12.885333-3.1744-13.653334 1.390933-3.345067 7.168-4.164267 8.8576-5.316266z" fill="#639D36" /><path d="M132.701867 710.161067c5.674667-0.443733 5.563733 5.666133 8.0128 8.814933 43.1104 55.381333 90.180267 87.7312 157.201066 108.5184 3.2512 1.006933 5.486933 3.618133 4.846934-2.184533 17.518933 17.117867 34.0224 30.5408 54.3744 43.938133 2.372267 1.5616 4.9408 2.6368 5.853866 5.6576-44.014933-1.143467-87.483733-13.013333-126.378666-33.937067l-31.274667-20.983466c-5.649067-6.920533-9.864533-9.2928-17.7152-12.398934 5.845333 0.392533 3.328-0.930133 0.887467-3.541333-27.716267-29.636267-44.219733-54.357333-55.799467-93.883733z" fill="#89CB56" /><path d="M890.88 711.927467c-11.3408 38.434133-30.293333 65.928533-56.686933 95.658666-0.452267 0.512-7.688533 4.906667-10.632534 7.082667-3.285333 2.432-4.923733 1.143467-8.8576 7.082667-0.7168 1.083733-1.143467 2.397867-1.774933 3.541333l-2.4576 0.1536c-16.605867 13.3888-37.248 23.9616-57.2672 31.351467-29.713067 10.973867-61.1072 17.271467-92.6208 18.090666 1.083733-2.705067 4.718933-4.616533 7.168-6.1184 19.566933-11.946667 38.690133-26.760533 54.8352-43.485866 0.512 2.286933 5.870933-0.034133 7.517867-0.4608 59.246933-15.095467 113.3568-51.217067 148.334933-101.435734l12.433067-11.485866z" fill="#86CA54" /><path d="M823.569067 814.6688c-1.885867 3.242667-4.881067 7.2448-8.8576 7.082667 3.933867-5.947733 5.572267-4.650667 8.8576-7.082667zM201.787733 432.042667c1.314133 2.978133 6.920533 4.104533 8.490667 5.6832 12.3392 12.407467 29.550933 58.8032 38.997333 77.0304 15.786667 30.455467 39.9104 69.742933 66.7392 90.922666 21.367467 16.8704 47.2576 27.2384 70.613334 40.9856 43.204267 25.437867 79.1552 56.379733 100.753066 101.1968 9.659733 20.036267 19.165867 49.365333 22.613334 71.278934 0.768 4.906667-1.297067 10.8288 2.688 15.0272l2.688-20.343467c9.608533-49.7152 33.911467-98.013867 71.671466-132.0448 49.621333-44.714667 115.5072-56.516267 155.8784-113.3824 24.541867-34.568533 38.306133-72.285867 57.2672-109.252267 8.021333-15.6416 17.2544-31.0528 37.546667-27.1104 4.087467 3.003733 8.610133 7.159467 12.398933 10.632534l15.086934 28.3136c3.7376 13.627733 11.639467 26.8544 16.802133 39.005866 0.324267 0.768 2.116267 10.094933 3.1744 13.653334 18.005333 60.484267 23.620267 127.496533 5.674667 188.296533l-12.433067 11.485867c-34.978133 50.210133-89.088 86.340267-148.334933 101.435733-1.646933 0.418133-7.005867 2.747733-7.517867 0.4608 58.88-60.9792 86.084267-142.2592 95.616-225.8944 0.2048-1.809067 1.365333-8.285867-1.732267-7.927467-3.950933 13.0816-6.766933 26.461867-11.008 39.4752-29.602133 90.743467-79.061333 174.634667-164.906666 221.269334l-43.741867 20.9152c-18.525867-2.048-42.231467-7.918933-60.279467-13.2352-6.519467-1.92-14.882133-6.656-20.6592-7.671467-8.4992-1.493333-32.0768 9.019733-42.5472 11.690667-2.065067 0.529067-4.2752 0.2304-6.3488 0.733866-13.013333 3.140267-26.7264 7.04-40.226133 8.490667l-32.426667-16.290133c-96.264533-44.4672-148.334933-139.2384-179.310933-236.9792-2.389333-7.534933-4.036267-15.470933-6.152533-23.074134-3.0464-0.4352-1.774933 4.104533-1.757867 6.186667 0.059733 8.32 2.210133 21.5296 3.575467 30.088533 11.153067 70.033067 41.642667 142.9504 92.0832 192.238934 0.64 5.8112-1.595733 3.2-4.846934 2.184533-67.0208-20.7872-114.090667-53.137067-157.201066-108.5184-2.449067-3.1488-2.346667-9.258667-8.0128-8.814933-3.7632-12.8256-7.3984-26.794667-8.8576-38.971734-2.304-19.191467-2.039467-40.644267-1.774934-60.228266l1.578667-1.041067c0.631467-3.165867-0.085333-6.434133 0.196267-9.591467 0.2048-2.3296-0.2048-4.7616 0-7.082666 0.0256-0.3072 1.3568-1.2544 1.774933-5.316267 0.6144-6.084267 0.853333-11.409067 1.774933-17.7152l1.578667-1.1008c0.520533-1.373867 0.042667-2.901333 0.196267-4.206933 1.979733-17.646933 8.3456-35.712 12.398933-53.1456 0.145067-0.631467-0.221867-1.467733 0-1.774934 5.794133-7.876267 5.623467-12.4672 8.8576-21.256533 0.196267-0.546133-0.1792-1.4848 0.238933-2.4064 0.384-0.8448 1.4592-0.9472 1.536-1.134933 4.096-9.5232 9.412267-19.106133 14.173867-28.3392 0.605867-1.186133 1.109333-2.312533 1.774933-3.541334 2.594133-0.5376 3.7376-2.756267 3.541334-5.316266 0.725333-0.904533 1.066667-2.7136 1.774933-3.541334 1.467733-1.723733 4.6336-5.666133 5.674667-6.724266 1.2288-1.245867 6.186667-2.944 7.825066-5.461334 4.846933-0.170667 10.026667-0.6144 14.839467-0.221866z" fill="#8DD85B" /><path d="M596.821333 873.130667l43.741867-20.9152c85.845333-46.626133 135.313067-130.517333 164.906667-221.269334 4.2496-13.013333 7.057067-26.3936 11.008-39.4752 3.0976-0.349867 1.937067 6.1184 1.732266 7.927467-9.531733 83.643733-36.736 164.923733-95.616 225.8944-16.145067 16.7168-35.259733 31.5392-54.8352 43.485867-2.4576 1.501867-6.084267 3.413333-7.168 6.1184-1.1776 0.034133-2.363733-0.0256-3.541333 0-10.538667 0.221867-21.3504 0.290133-31.889067 0-4.6848-0.128-9.506133 0.298667-14.173866 0-0.392533-0.0256-3.370667-1.390933-7.082667-1.774934-2.312533-0.238933-4.778667 0.256-7.082667 0z" fill="#74BA43" /><path d="M426.760533 873.130667c-1.7152 0.187733-3.566933-0.0512-5.316266 0-2.594133 0.0768-5.2224-0.3072-7.808 0.196266l-1.041067 1.578667c-4.701867 0.093867-9.463467-0.017067-14.173867 0-11.178667 0.034133-22.485333 0.247467-33.655466 0-0.5888-0.017067-1.1776 0.017067-1.774934 0-0.913067-3.0208-3.4816-4.096-5.853866-5.6576-20.352-13.397333-36.855467-26.820267-54.3744-43.938133-50.432-49.28-80.9216-122.205867-92.0832-192.238934-1.365333-8.558933-3.5072-21.768533-3.575467-30.088533-0.017067-2.082133-1.288533-6.621867 1.757867-6.186667 2.116267 7.6032 3.7632 15.547733 6.152533 23.074134 30.976 97.7408 83.0464 192.512 179.310933 236.9792l32.426667 16.290133z" fill="#74BB44" /><path d="M398.421333 874.9056c-3.310933 3.208533-10.615467 1.7664-15.0528 1.774933-2.952533 0-5.905067 0.017067-8.849066 0s-8.2688 1.3056-9.745067-1.7664c11.170133 0.247467 22.4768 0.034133 33.655467 0z" fill="#89CB56" /><path d="M657.0496 874.9056l-15.0528 1.774933-16.827733-1.774933c10.538667 0.290133 21.3504 0.221867 31.889066 0z" fill="#86CA54" /><path d="M610.9952 874.9056l-6.016-0.196267-1.0752-1.578666c3.712 0.384 6.690133 1.749333 7.082667 1.774933z" fill="#8DD85B" /><path d="M168.132267 453.2992c0.264533-0.494933-0.110933-2.065067 0.8448-3.575467s2.568533-1.5872 2.696533-1.7408c0.196267 2.56-0.9472 4.778667-3.541333 5.316267z" fill="#FDF8E1" /><path d="M22.869333 637.525333C4.0192 580.974933-3.677867 513.792 1.655467 454.2208c0.597333-6.698667 4.420267-23.970133 7.3728-29.824 6.784-13.431467 24.064-12.305067 34.7392-4.3008 0.5376 0.401067 0.187733 2.193067 0.725333 2.6368 14.0544 11.52 26.999467 24.977067 40.379733 37.649067 16.068267 15.223467 33.288533 29.252267 49.604267 44.288-5.521067-1.006933-2.884267 2.542933-3.908267 5.8112-3.677867 11.793067-9.924267 22.613333-13.44 34.414933-4.795733 16.1024-6.869333 32.8192-9.258666 49.2032-1.416533 9.736533-4.923733 19.191467-3.515734 29.2608-3.456 0.469333-5.9392-3.012267-7.893333-5.393067-14.190933-17.288533-27.332267-40.823467-39.133867-60.125866-1.408-2.295467 0.443733-4.539733-4.334933-3.566934l7.944533 24.823467c7.739733 16.571733 15.394133 32.1536 24.746667 47.880533 3.9936 6.715733 16.494933 24.277333 16.904533 30.037334s-0.529067 11.3664 0.042667 16.785066c1.450667 13.8752 7.176533 35.336533 11.016533 49.211734 1.194667 4.3264 3.822933 9.105067 4.804267 12.910933 0.938667 3.6352-1.578667 2.705067-4.2496 2.474667l-38.2208-32.64c-17.877333-21.521067-34.7904-42.461867-48.785067-66.397867-1.809067-3.0976 0.810667-5.1712-4.3264-1.834667z" fill="#6FAD3F" /><path d="M22.869333 637.525333c5.1456-3.345067 2.517333-1.262933 4.3264 1.834667 13.986133 23.936 30.8992 44.8768 48.785067 66.397867l38.2208 32.64c2.670933 0.2304 5.188267 1.160533 4.2496-2.474667-0.981333-3.805867-3.6096-8.593067-4.804267-12.910933-3.848533-13.8752-9.565867-35.336533-11.016533-49.211734-0.571733-5.418667 0.349867-11.3152-0.042667-16.785066l19.490134 20.3776 1.774933-6.203734c1.4592 12.177067 5.0944 26.146133 8.8576 38.971734 11.588267 39.5264 28.0832 64.247467 55.799467 93.883733 2.449067 2.619733 4.957867 3.933867-0.887467 3.541333-6.2208-2.466133-13.2352-3.652267-19.515733-6.1696-42.9824-17.245867-75.4176-44.066133-102.715734-80.631466 0.341333-2.688-0.981333-4.608-3.541333-5.316267-19.234133-27.195733-28.322133-46.0032-38.971733-77.943467z" fill="#629C37" /><path d="M65.390933 720.785067c-1.672533-2.235733-2.466133-3.7888-3.541333-5.316267 2.56 0.708267 3.882667 2.628267 3.541333 5.316267z" fill="#6FAD3F" /><path d="M134.4768 504.669867c0.836267 0.768 2.747733 2.688 3.541333 3.541333 0.930133 0.9984 1.152 3.345067 3.541334 3.541333-4.053333 17.4336-10.427733 35.498667-12.398934 53.1456l-1.578666 1.109334c-0.546133 1.365333-0.008533 2.952533-0.196267 4.206933-0.9216 6.306133-1.152 11.630933-1.774933 17.7152l-1.578667 1.109333-0.196267 4.206934c-0.2048 2.3296 0.2048 4.753067 0 7.082666l-1.578666 1.041067c-0.469333 3.182933-0.145067 6.408533-0.196267 9.591467-0.273067 19.584-0.5376 41.0368 1.774933 60.228266l-1.774933 6.203734-19.490133-20.3776c-0.4096-5.76-12.910933-23.3216-16.904534-30.037334-9.361067-15.7184-17.006933-31.3088-24.746666-47.880533l-7.944534-24.823467c4.778667-0.981333 2.935467 1.271467 4.334934 3.566934 11.8016 19.3024 24.951467 42.837333 39.133866 60.125866 1.954133 2.3808 4.437333 5.8624 7.893334 5.393067-1.408-10.069333 2.090667-19.515733 3.515733-29.2608 2.389333-16.384 4.4544-33.1008 9.258667-49.2032 3.515733-11.793067 9.762133-22.621867 13.44-34.414933 1.024-3.2768-1.621333-6.818133 3.908266-5.8112z" fill="#57912F" /><path d="M141.559467 509.986133c-0.221867 0.3072 0.145067 1.143467 0 1.774934-2.389333-0.196267-2.6112-2.542933-3.541334-3.541334l2.5088 0.187734 1.041067 1.5872zM122.069333 610.952533c0.042667-3.182933-0.273067-6.408533 0.196267-9.591466l1.578667-1.041067c-0.273067 3.157333 0.4352 6.4256-0.196267 9.591467l-1.578667 1.041066zM127.3856 570.2144c0.187733-1.262933-0.3584-2.8416 0.196267-4.206933l1.578666-1.109334c-0.145067 1.3056 0.324267 2.833067-0.196266 4.206934l-1.578667 1.1008zM123.844267 593.245867l0.196266-4.206934 1.578667-1.109333c-0.4096 4.061867-1.7408 5.009067-1.774933 5.316267z" fill="#6FAD3F" /></svg>