<?xml version="1.0" standalone="no"?><!DOCTYPE svg PUBLIC "-//W3C//DTD SVG 1.1//EN" "http://www.w3.org/Graphics/SVG/1.1/DTD/svg11.dtd"><svg class="icon" width="256px" height="256.00px" viewBox="0 0 1024 1024" version="1.1" xmlns="http://www.w3.org/2000/svg"><path d="M704.622933 294.161067l4.036267 2.850133c33.262933 23.5008 48.699733 115.498667 48.503467 162.244267-0.1792 43.426133-6.289067 85.418667-20.215467 126.2848-10.530133 30.8992-25.6256 58.589867-46.1824 83.669333l-10.496 12.808533-18.773333 15.530667c-9.233067 7.645867-29.329067 19.575467-40.209067 8.311467-3.5328-3.652267-3.9936-10.333867-3.012267-14.728534 5.026133-7.202133 10.4192-14.336 16.247467-20.906666 6.545067-2.696533 20.829867-22.016 26.368-29.3376 23.0656-30.506667 42.9056-70.263467 51.2768-106.487467 2.312533-9.992533 5.947733-19.7376 6.536533-30.779733l0.3328-6.178134c0.4352-8.157867 1.979733-23.876267 1.390934-33.476266-2.781867-45.303467-22.5024-86.9888-57.472-115.2768l-9.472-7.662934c-1.083733-0.878933-3.012267-3.191467-4.317867-4.036266-13.934933-8.925867-23.432533-15.0272-38.912-21.794134-67.874133-29.653333-153.796267-24.644267-214.784 15.9744-15.889067 10.581333-30.865067 21.930667-43.835733 37.290667-0.930133 1.1008-2.141867 3.242667-2.525867 4.2496-24.814933 27.1616-39.415467 63.1296-43.195733 100.7872-8.644267 86.1952 48.1792 166.493867 136.8576 175.445333 40.891733 4.130133 89.173333-10.5472 117.819733-39.031466 1.3312-0.520533 3.6352-1.9968 4.932267-3.345067 21.7344-22.4512 37.495467-50.9184 38.459733-81.646933 0.170667-0.042667 1.4592-2.466133 1.467733-3.234134l0.128-8.413866-1.544533-1.262934 0.145067-1.834666c0.853333-10.9312-5.6064-32.042667-11.997867-42.018134-9.1904-14.327467-18.7904-24.968533-33.143467-32.9472-38.237867-21.256533-90.897067-13.124267-112.3328 25.6l-0.059733 1.604267c-0.443733 0.324267-1.271467 1.015467-1.544533 1.578667-9.9328 20.394667-4.744533 49.6384 16.674133 53.794133 2.602667 0.503467 7.5776-2.525867 9.770667-5.282133 4.3776-5.504-5.316267-10.939733-7.133867-12.9536-7.278933-8.072533-4.565333-21.154133-1.390933-29.038934 6.698667-7.6544 9.437867-13.627733 21.239466-20.181333 29.602133-16.418133 70.826667-5.589333 89.668267 25.770667 11.579733 19.2768 11.0336 32.861867 10.5472 53.563733-4.258133 27.451733-16.1024 46.4896-35.1488 65.706667-58.248533 52.266667-152.925867 47.428267-199.125333-18.901334-31.5648-45.312-34.090667-101.981867-11.997867-152.3712 7.406933-16.896 18.235733-30.830933 28.450133-45.1328l15.146667-13.627733c12.142933-10.922667 24.337067-19.131733 37.922133-26.427733 4.078933-2.193067 9.531733-4.2752 14.455467-6.357334 36.471467-15.479467 71.68-18.807467 110.9248-15.061333 23.048533 2.2016 55.534933 13.073067 75.716267 25.454933l19.5072 11.963734 13.2864 11.639466c6.946133 6.084267 12.910933 13.602133 18.833066 20.8128 13.3888 16.3072 20.4032 35.2512 27.374934 54.135467l1.3312 11.400533c0.5376 3.490133 1.501867 8.0128 1.544533 11.1616l0.349867 25.403734-1.3312 1.629866c-0.213333 9.6768-0.546133 18.670933-3.217067 27.511467l-5.2224 17.314133c-3.1232 10.350933-10.197333 23.150933-17.245867 32.5632l-1.749333-3.797333c0.733867-3.549867 0.7424-9.659733 1.041067-14.267733 2.440533-37.5296-3.720533-75.554133-22.0672-107.306667-3.285333-5.691733-6.562133-11.613867-10.897067-17.493333-20.753067-28.151467-47.991467-47.172267-81.570133-57.454934-16.964267-5.188267-33.885867-6.724267-51.447467-6.673066l-13.1584 0.034133-1.408 1.4848-2.944 0.085333-5.3248-0.093866-1.117867 1.595733c-0.5376 0-1.2288-0.042667-1.604266 0.059733l-5.026134 1.399467c-21.725867 3.9424-42.112 14.097067-59.758933 28.509867-7.765333 6.3488-14.097067 13.585067-20.155733 21.6576-32.221867 42.897067-33.1264 105.361067 9.924266 141.883733 31.4368 26.6752 82.2016 27.972267 111.786667 1.5616 14.455467-10.3936 25.403733-31.658667 21.12-51.012267-2.9952-13.5168-13.312-24.064-27.4688-25.915733-5.026133-0.657067-9.966933 3.242667-10.641067 7.790933-2.005333 13.585067 22.2976 7.714133 19.2768 29.730134-1.152 8.4224-6.1184 15.4368-11.767466 22.126933-12.032 9.3952-22.075733 15.616-39.278934 16.989867-35.6096 2.8416-68.4032-22.0672-75.076266-57.975467-5.614933-30.190933 4.514133-60.757333 25.403733-82.807467 16.7168-17.646933 34.338133-27.400533 56.6272-33.006933 17.297067-4.352 31.906133-6.254933 51.464533-3.780267 31.7184 4.010667 61.038933 15.8208 81.5872 40.746667 18.389333 22.306133 29.329067 49.3568 31.325867 78.523733 3.959467 58.052267-19.387733 115.165867-63.4624 153.216-33.6384 29.0304-71.970133 43.272533-115.754667 49.143467-17.390933 2.338133-44.458667 3.1488-61.8496 1.595733l-17.3824-1.5616-9.9584-1.160533c-17.4848-2.039467-33.109333-6.050133-49.442133-12.885333-8.9088-3.729067-16.4864-9.642667-24.0896-15.9744-4.7872-3.985067-14.634667-16.273067-14.592-11.605334l0.034133 3.933867c0 0.5888 0.2048 2.312533 0.366934 3.182933l1.672533 9.173334-0.546133 3.908266 1.706666 9.693867c0.512-0.5888-0.494933 0.580267-1.450666 1.6896-18.2272-1.800533-34.875733-4.5312-52.48-9.070933l-12.202667-11.835734c-0.520533-0.503467-2.048-1.6128-2.423467-1.8688l-0.247466-1.792c-1.339733-1.578667-3.293867-3.566933-4.821334-4.906666l-1.3824-3.089067c-0.503467-1.1264-2.4576-2.7648-3.396266-3.319467l-4.113067-6.946133c-18.193067-30.728533-27.972267-60.885333-31.419733-97.1008-2.619733-27.537067-1.3312-54.237867 4.0448-81.6384l-5.333334-9.122133-5.444266-9.326934c-22.852267 70.485333-12.424533 165.205333 34.261333 219.9808l1.083733 5.7088c-28.5696-7.1168-46.890667-11.4944-71.210666-28.023466l-6.818134-4.6336c-7.236267-14.6176-13.474133-29.653333-15.8976-46.225067l-2.389333-16.3072c-0.2304-1.570133 0.401067-5.034667 0.759467-6.545067 4.753067-20.078933 1.792-28.407467 5.6064-51.669333 4.855467-29.5936 14.472533-56.772267 29.2352-82.833067 6.980267-12.322133 14.5664-24.721067 24.149333-35.157333l12.424533-13.525333c4.4032-4.7872 10.094933-9.156267 14.2592-14.2592 18.167467-22.203733 23.4496-36.181333 45.346134-55.509334 12.407467-10.9568 37.777067-26.530133 53.009066-28.654933 10.205867-1.425067 12.680533-3.003733 16.093867-3.1488l18.850133-0.8192-7.0656 6.2208-8.558933 7.492267c-25.6256 22.442667-63.914667 78.5152-70.698667 107.485866l-2.090666 8.925867c-2.432 10.376533-11.374933 26.786133-13.457067 52.846933-0.1792 2.295467 1.1008 7.688533 1.536 9.796267l1.322667 6.3744c-0.443733 1.3056-1.527467 5.384533-0.930134 6.656 1.322667 2.807467 9.489067 2.065067 11.067734-0.981333 1.348267-2.602667 2.594133-5.000533 3.089066-6.7584l2.8416-9.984 0.785067-7.8848 1.536-15.035734c0.392533-3.882667 4.573867-10.606933 6.306133-14.728533l6.3488-15.095467 5.358934-12.074666c11.537067-25.992533 31.035733-58.1632 50.286933-79.069867L324.804267 325.973333c3.293867-3.584 6.818133-7.022933 10.564266-10.1888l6.929067-5.845333 11.844267-9.890133c-1.885867-1.749333-3.805867-3.447467-5.973334-4.974934l-7.3472-5.1712c-0.6656-0.469333-1.604267-2.9696-1.527466-3.3024 1.860267-3.473067 16.290133-12.296533 21.0176-15.163733l12.910933-7.842133c11.374933-6.903467 22.229333-11.460267 34.705067-16.6912 21.3504-8.951467 42.820267-15.752533 65.8432-18.653867l14.583466-1.834667c18.517333-2.3296 56.6784-1.092267 75.9296 1.4336 32.768 4.3008 66.670933 15.581867 95.701334 31.3856 32.034133 17.4336 40.200533 31.761067 44.680533 34.926934z" fill="#F9F5EA" /><path d="M845.704533 401.348267c-0.384 0.878933-0.682667 3.933867-1.006933 5.632l-5.3504 28.3648-7.304533 45.653333-3.9424 32.512-3.908267 43.0336-1.211733 16.221867c-1.058133 14.148267-1.3824 27.434667-1.604267 41.7792-0.170667 11.229867 1.962667 29.098667 12.936533 34.8928 18.176 9.6 38.7584-13.576533 46.062934-30.660267 14.208-33.245867 14.276267-60.7744 11.272533-96.349867-0.298667-3.566933-4.061867-9.480533-7.210667-10.0864-7.168-1.373867-10.760533 5.205333-10.299733 10.658134l1.032533 12.049066c2.176 25.437867-0.068267 54.391467-11.716266 77.841067-2.986667 6.007467-11.989333 18.8416-18.389334 17.493333-5.205333-1.1008-6.272-12.3648-6.1696-17.416533l0.8192-40.183467 1.518934-22.331733 1.629866-19.268267 1.348267-12.740266 2.107733-16.6912c2.065067-16.341333 4.693333-32.256 9.890134-47.872 2.722133-8.192 8.797867-15.2832 16.6656-18.56l7.867733-0.170667c0.520533 0.247467 2.986667 2.039467 3.831467 3.191467 18.286933 25.053867 26.0352 53.256533 30.0544 84.753066 0.452267 3.5584 1.2032 7.953067 1.2288 11.306667l0.324266 42.760533c0.4864 2.2528 0.810667 5.4784 0.529067 8.430934-5.12 52.744533-27.656533 94.464-75.579733 117.009066-4.164267 1.962667-10.606933 3.1232-15.658667 3.874134l-20.8896 3.106133-46.9248 5.418667-14.472533 1.527466-16.0256 1.800534-12.578134 0.2304c-1.066667 0.017067-4.360533 0.989867-5.290666 1.194666-7.1168 0.2816-14.395733 0.324267-20.573867 1.5616-0.443733 0.034133-1.211733 0.1024-1.604267 0.110934l-17.2544 0.5888-16.366933 1.041066-28.808533 1.314134-30.446934 0.631466-12.9536-0.699733 8.797867-6.801067c6.272-4.846933 11.818667-10.3936 17.5616-16l10.641067-10.385066c-0.9728 4.394667-0.512 11.076267 3.012266 14.728533 10.88 11.264 30.976-0.674133 40.209067-8.311467l18.773333-15.530666c0.4864 2.449067 1.9456 7.185067 3.4816 9.250133 1.757867 2.363733 15.010133-5.085867 16.375467-6.0672l4.846933-3.473067c-1.425067 2.244267-3.566933 5.1456-5.623466 7.304534l-12.561067 13.201066c20.9152 1.271467 42.811733-8.4736 58.3168-20.1216 17.408-13.073067 32.4864-35.720533 40.5248-55.9616 25.088-63.2064 29.568-170.589867 19.3024-236.8512-3.848533-24.840533-11.451733-50.619733-27.1104-70.4768-1.6128-2.048-5.1712-5.9392-6.638933-7.569066-4.206933-4.6848-9.233067-0.725333-8.8064-4.317867 6.289067 1.425067 12.8256 3.037867 19.2512 6.135467 34.602667 16.631467 69.384533 46.9504 64.0768 88.277333z" fill="#E4D5C1" /><path d="M745.002667 303.8208c5.76-0.068267 11.690667 1.834667 17.373866 3.1232-0.426667 3.592533 4.599467-0.3584 8.8064 4.317867 1.467733 1.629867 5.026133 5.5296 6.638934 7.569066 15.658667 19.848533 23.261867 45.636267 27.1104 70.4768 10.274133 66.261333 5.7856 173.653333-19.3024 236.8512-8.0384 20.2496-23.1168 42.888533-40.5248 55.9616-15.505067 11.648-37.410133 21.393067-58.3168 20.1216l12.561066-13.201066c2.056533-2.158933 4.1984-5.060267 5.623467-7.304534 6.510933-4.667733 22.314667-29.346133 27.255467-38.152533 18.065067-32.213333 29.448533-66.5088 36.0192-102.920533 12.8768-71.355733 12.2368-171.613867-28.885334-234.043734l-3.089066-2.688 8.7296-0.1024z" fill="#F8F5EA" /><path d="M745.002667 303.8208l-8.7296 0.1024 3.089066 2.688c41.122133 62.429867 41.762133 162.688 28.885334 234.043733-6.570667 36.411733-17.962667 70.7072-36.0192 102.920534-4.9408 8.814933-20.744533 33.493333-27.255467 38.152533l-4.846933 3.473067c-1.365333 0.9728-14.6176 8.430933-16.375467 6.0672-1.536-2.065067-2.9952-6.801067-3.4816-9.250134l10.496-12.808533c20.5568-25.079467 35.652267-52.770133 46.1824-83.669333 13.9264-40.874667 20.036267-82.8672 20.215467-126.2848 0.196267-46.7456-15.249067-138.743467-48.503467-162.244267l-4.036267-2.850133 21.845334 2.688c3.080533 0.375467 7.901867 2.935467 10.8288 4.0448l7.714133 2.926933z" fill="#E1C7A5" /><path d="M880.733867 435.165867l-7.867734 0.170666c-7.867733 3.2768-13.943467 10.368-16.6656 18.56-5.188267 15.616-7.825067 31.530667-9.890133 47.872l-2.107733 16.6912-1.348267 12.740267-1.629867 19.268267-1.518933 22.331733-0.8192 40.183467c-0.1024 5.051733 0.964267 16.315733 6.1696 17.416533 6.408533 1.3568 15.402667-11.477333 18.389333-17.493333 11.648-23.4496 13.892267-52.4032 11.716267-77.841067l-1.032533-12.049067c-0.469333-5.444267 3.131733-12.032 10.299733-10.658133 3.1488 0.605867 6.912 6.519467 7.210667 10.0864 3.003733 35.575467 2.944 63.104-11.272534 96.349867-7.304533 17.083733-27.886933 40.260267-46.062933 30.660266-10.9824-5.802667-13.115733-23.662933-12.936533-34.8928 0.221867-14.353067 0.546133-27.639467 1.604266-41.7792l1.211734-16.221866 3.908266-43.0336 3.9424-32.512 7.304534-45.653334 5.3504-28.3648c0.324267-1.698133 0.6144-4.744533 1.006933-5.632l0.9216 5.290667c10.129067 5.435733 30.344533 19.106133 34.0992 28.526933z" fill="#D6AA76" /><path d="M339.2512 286.609067c-0.068267 0.3328 0.861867 2.833067 1.527467 3.3024l7.3472 5.1712c2.167467 1.527467 4.087467 3.2256 5.973333 4.974933l-11.844267 9.890133-6.929066 5.845334c-3.746133 3.157333-7.2704 6.6048-10.564267 10.1888l-9.207467 10.001066c-19.2512 20.906667-38.749867 53.077333-50.286933 79.069867l-5.358933 12.074667-6.3488 15.095466c-1.732267 4.1216-5.905067 10.845867-6.306134 14.728534l-1.536 15.035733-0.785066 7.8848-2.8416 9.984c-0.503467 1.757867-1.7408 4.155733-3.089067 6.7584-1.578667 3.0464-9.745067 3.7888-11.067733 0.981333-0.597333-1.262933 0.4864-5.3504 0.930133-6.656l-1.322667-6.3744c-0.4352-2.107733-1.7152-7.5008-1.536-9.796266 2.0736-26.0608 11.025067-42.4704 13.457067-52.846934l2.090667-8.925866c6.784-28.970667 45.064533-85.051733 70.698666-107.485867l8.558934-7.492267 7.0656-6.2208-18.850134 0.8192c-3.413333 0.145067-5.888 1.723733-16.093866 3.1488l1.5616-1.553066 10.120533-2.628267c5.973333-1.553067 12.5952-2.645333 18.747733-3.293867l15.880534-1.681066z" fill="#F1E3CD" /><path d="M653.243733 443.101867l-7.3216 1.5616c-0.759467 0.162133-2.619733 1.117867-3.2 1.518933-0.861867 0.597333-0.605867 3.447467-0.119466 4.5568l4.864 11.1104c20.471467 46.762667 12.424533 107.6736-8.1664 153.1904-9.7792 21.614933-18.722133 38.749867-34.577067 56.4736-20.053333 22.417067-44.1344 40.200533-71.3984 53.0944l-4.923733 1.8176-46.1824-0.017067-1.629867-1.527466-51.3536 0.017066-46.446933-1.288533-32.017067-1.774933-30.498133-2.065067-22.4-1.723733-16.0512-1.476267-18.594134-1.928533-56.618666-6.929067c-6.775467-0.827733-13.149867-2.722133-18.944-4.599467-26.7008-10.88-48.546133-31.044267-61.2096-56.6528l6.818133 4.6336c24.328533 16.529067 42.641067 20.9152 71.210667 28.023467l-1.083734-5.7088 3.618134 3.4048c1.527467 1.442133 6.007467 2.645333 8.6016 2.2528 3.3536-0.512 6.016-5.563733 5.623466-8.3968 0.375467 0.247467 1.902933 1.3568 2.423467 1.8688l12.202667 11.835733c17.604267 4.5312 34.2528 7.261867 52.48 9.070934 0.9472-1.109333 1.962667-2.2784 1.450666-1.6896l-1.706666-9.693867 0.546133-3.908267-1.672533-9.173333c-0.1536-0.861867-0.3584-2.5856-0.366934-3.182933l-0.034133-3.933867c-0.042667-4.667733 9.8048 7.620267 14.592 11.605333 7.6032 6.331733 15.1808 12.245333 24.0896 15.9744 16.3328 6.826667 31.9488 10.845867 49.442133 12.885334l9.9584 1.160533 17.3824 1.5616c17.390933 1.5616 44.450133 0.7424 61.8496-1.595733 43.784533-5.879467 82.116267-20.113067 115.754667-49.143467 44.0832-38.050133 67.421867-95.163733 63.4624-153.216-1.988267-29.166933-12.928-56.2176-31.325867-78.523733-20.548267-24.925867-49.8688-36.744533-81.5872-40.746667-19.549867-2.474667-34.167467-0.571733-51.464533 3.780267l3.712-4.411734c7.074133 0.529067 13.166933-3.438933 16.0768-9.361066l11.767467-1.928534-3.985067-6.766933-11.5456-0.119467 1.408-1.4848 13.1584-0.034133c17.5616-0.0512 34.4832 1.4848 51.447467 6.673067 33.578667 10.274133 60.817067 29.294933 81.570133 57.454933 4.334933 5.879467 7.611733 11.810133 10.897067 17.493333z" fill="#EFE0CC" /><path d="M366.6432 378.973867c-10.2144 14.301867-21.0432 28.245333-28.450133 45.1328-22.0928 50.389333-19.566933 107.0592 11.997866 152.3712 46.199467 66.321067 140.8768 71.159467 199.125334 18.901333 2.500267-1.373867 5.7088-3.566933 8.3968-5.8112l2.2528-1.877333c2.568533-2.141867 2.056533 2.6368 7.5776 9.7536 5.947733 7.671467-0.196267-0.366933-6.9632 12.484266-28.6464 28.4928-76.928 43.1616-117.819734 39.031467-88.6784-8.951467-145.501867-89.250133-136.8576-175.445333 3.780267-37.666133 18.372267-73.634133 43.195734-100.7872l4.002133-3.968c0.930133-0.930133 3.6096 0.273067 4.727467 1.408l6.6048 6.6816 2.218666 2.133333z" fill="#E07017" /><path d="M494.754133 362.999467l11.5456 0.119466 3.985067 6.766934-11.767467 1.928533c-2.909867 5.922133-9.002667 9.890133-16.0768 9.361067l-3.712 4.411733c-22.289067 5.6064-39.9104 15.36-56.6272 33.006933-20.8896 22.050133-31.018667 52.616533-25.403733 82.807467 6.673067 35.899733 39.4752 60.817067 75.076267 57.975467 17.2032-1.373867 27.246933-7.6032 39.278933-16.989867-1.237333 1.4592-2.6368 3.157333-4.565333 4.983467-7.662933 7.210667-2.082133 14.199467-0.580267 14.378666 2.525867 0.290133 6.792533 1.365333 8.439467 0.64l6.186666-2.730666c-29.585067 26.410667-80.349867 25.1136-111.786666-1.5616-43.042133-36.522667-42.1376-98.986667-9.924267-141.883734 6.058667-8.064 12.3904-15.3088 20.155733-21.6576 17.6384-14.4128 38.024533-24.576 59.758934-28.509866 1.655467 0.059733 4.334933-0.5376 5.026133-1.399467 0.366933-0.1024 1.066667-0.059733 1.604267-0.059733 2.2272 0 4.932267-0.494933 6.4512-1.501867l2.944-0.085333z" fill="#E5CDAF" /><path d="M653.243733 443.101867c18.346667 31.752533 24.507733 69.777067 22.0672 107.306666-0.298667 4.608-0.3072 10.717867-1.041066 14.267734-6.016 29.0048-14.5408 61.141333-30.190934 88.0384l-7.8592 13.508266c-0.554667 0.9472-1.399467 3.1488-1.6896 4.010667-5.828267 6.570667-11.221333 13.704533-16.247466 20.906667l-10.641067 10.385066c-5.742933 5.6064-11.2896 11.153067-17.5616 16l-8.797867 6.801067 12.9536 0.699733c-2.7136 1.288533-7.0912 1.134933-11.392 1.152l-54.434133 0.238934 4.923733-1.8176c27.264-12.893867 51.345067-30.677333 71.3984-53.0944 15.854933-17.723733 24.797867-34.858667 34.577067-56.4736 20.590933-45.5168 28.637867-106.427733 8.1664-153.1904l-4.864-11.1104c-0.4864-1.109333-0.7424-3.950933 0.119467-4.5568 0.580267-0.401067 2.440533-1.3568 3.2-1.518934l7.3216-1.5616z" fill="#D6B085" /><path d="M653.474133 341.0432c-1.271467 0.256-4.189867 1.339733-5.248 2.210133l-6.2976 5.1712c-0.6656 0.546133-3.1232 2.133333-2.8672 2.884267l1.2544 3.6096-19.5072-11.963733c-20.181333-12.373333-52.667733-23.2448-75.716266-25.454934-39.2448-3.754667-74.453333-0.426667-110.9248 15.061334-4.9152 2.090667-10.376533 4.1728-14.455467 6.357333l0.8704-2.619733-15.9488-3.063467-9.173333-2.048c60.9792-40.618667 146.909867-45.627733 214.784-15.9744 15.479467 6.766933 24.977067 12.868267 38.912 21.794133 1.3056 0.836267 3.234133 3.157333 4.317866 4.036267z" fill="#E8D1B2" /><path d="M211.387733 657.553067c0.648533 1.092267 2.372267 2.653867 3.396267 3.319466l1.3824 3.089067c0.7168 1.6128 3.2768 3.925333 4.821333 4.906667l0.247467 1.792c0.392533 2.824533-2.269867 7.8848-5.623467 8.3968-2.602667 0.392533-7.074133-0.810667-8.6016-2.2528l-3.618133-3.4048c-46.685867-54.766933-57.122133-149.495467-34.261333-219.9808l5.444266 9.326933 5.333334 9.122133c-5.384533 27.400533-6.664533 54.101333-4.0448 81.6384 3.438933 36.215467 13.226667 66.372267 31.419733 97.1008l4.113067 6.946134z" fill="#E4D1B6" /><path d="M604.177067 510.199467l-4.113067-3.6096-9.2672-3.8144c-0.9216-0.375467-3.4816-2.423467-3.7376-1.544534s-0.8704 3.268267-0.8704 4.369067v21.8368c-0.008533 0.452267-2.065067 2.781867-1.723733 2.244267 0.477867-20.701867 1.032533-34.286933-10.5472-53.563734-18.8416-31.36-60.074667-42.1888-89.668267-25.770666-11.8016 6.5536-14.549333 12.526933-21.239467 20.181333 1.152-2.858667 4.0704-8.226133 5.7088-11.204267-3.498667-2.090667-6.8352-5.034667-8.704-8.328533l-1.553066-2.7392-7.637334 8.738133c-1.143467 1.314133-2.9696 2.944-4.130133 3.84 21.435733-38.724267 74.094933-46.856533 112.3328-25.6 14.353067 7.978667 23.953067 18.619733 33.143467 32.9472 6.4 9.975467 12.8512 31.086933 11.997866 42.018134z" fill="#DFA566" /><path d="M653.474133 341.0432l9.472 7.662933c34.9696 28.288 54.698667 69.973333 57.472 115.2768 0.5888 9.6-0.9472 25.326933-1.390933 33.476267-0.068267-0.110933-1.425067 2.3552-1.698133 3.217067l-1.006934 3.1744c-0.170667 0.554667-1.134933-0.631467-1.860266-1.373867-2.696533-21.768533-7.552-41.745067-14.651734-60.9792-6.971733-18.884267-13.994667-37.8368-27.374933-54.135467-5.922133-7.210667-11.8784-14.728533-18.833067-20.8128l-13.2864-11.639466-1.2544-3.6096c-0.264533-0.750933 2.2016-2.338133 2.8672-2.884267l6.2976-5.1712c1.058133-0.8704 3.976533-1.954133 5.248-2.210133z" fill="#E0AF77" /><path d="M712.157867 534.408533c-8.3712 36.215467-28.2112 75.9808-51.2768 106.487467-5.538133 7.3216-19.822933 26.632533-26.368 29.3376 0.290133-0.853333 1.134933-3.054933 1.6896-4.010667l7.8592-13.508266c15.658667-26.897067 24.174933-59.0336 30.190933-88.0384l1.749333 3.797333c7.048533-9.412267 14.122667-22.2208 17.245867-32.5632l5.2224-17.314133c2.6624-8.832 3.003733-17.834667 3.217067-27.511467l1.3312-1.629867 0.145066 17.5616 4.027734 14.122667 2.602666 9.915733c0.290133 1.117867 1.988267 3.3792 2.3552 3.336534z" fill="#EFE0CB" /><path d="M604.177067 510.199467l-0.145067 1.834666-0.059733 12.910934c-0.964267 30.728533-16.7168 59.195733-38.459734 81.646933-1.3056 1.348267-3.601067 2.816-4.932266 3.345067 6.766933-12.8512 12.910933-4.8128 6.9632-12.484267-5.521067-7.125333-5.009067-11.904-7.5776-9.7536l-2.2528 1.877333c-2.688 2.244267-5.896533 4.437333-8.3968 5.8112 19.054933-19.217067 30.890667-38.2464 35.1488-65.706666-0.349867 0.546133 1.706667-1.783467 1.706666-2.244267V505.6c0.008533-1.1008 0.622933-3.490133 0.887467-4.369067s2.816 1.160533 3.7376 1.544534l9.2672 3.8144 4.113067 3.6096z" fill="#E09249" /><path d="M520.533333 559.658667l-6.186666 2.730666c-1.646933 0.725333-5.9136-0.349867-8.439467-0.64-1.501867-0.1792-7.0912-7.168 0.580267-14.378666 1.937067-1.8176 3.336533-3.515733 4.565333-4.983467 5.649067-6.698667 10.615467-13.713067 11.767467-22.126933 3.0208-22.016-21.282133-16.145067-19.2768-29.730134 0.674133-4.548267 5.614933-8.448 10.641066-7.790933 14.1568 1.851733 24.4736 12.398933 27.4688 25.915733 4.283733 19.3536-6.664533 40.610133-21.12 51.012267z" fill="#DDBE97" /><path d="M463.0016 470.528c-3.1744 7.8848-5.888 20.974933 1.390933 29.038933 1.8176 2.013867 11.511467 7.458133 7.133867 12.9536-2.193067 2.756267-7.159467 5.794133-9.770667 5.282134-21.418667-4.155733-26.606933-33.399467-16.674133-53.794134l1.544533-1.578666 0.059734-1.604267c1.152-0.896 2.986667-2.525867 4.130133-3.84l7.637333-8.738133 1.553067 2.7392c1.8688 3.293867 5.205333 6.237867 8.704 8.328533-1.6384 2.986667-4.5568 8.354133-5.7088 11.204267z" fill="#DE934A" /><path d="M419.712 338.9184c-13.5936 7.304533-25.787733 15.505067-37.922133 26.427733l-15.146667 13.627734-2.218667-2.133334-6.6048-6.6816c-1.117867-1.134933-3.797333-2.3296-4.727466-1.408l-4.002134 3.968c0.384-1.006933 1.595733-3.1488 2.525867-4.2496 12.970667-15.351467 27.946667-26.7008 43.835733-37.290666l9.173334 2.048 15.9488 3.063466-0.8704 2.619734z" fill="#E59E58" /><path d="M719.0272 497.4592l-0.3328 6.178133c-0.5888 11.0336-4.232533 20.7872-6.536533 30.779734-0.366933 0.042667-2.065067-2.2272-2.3552-3.336534l-2.602667-9.915733-4.027733-14.122667-0.145067-17.5616-0.349867-25.403733c-0.042667-3.1488-1.006933-7.68-1.544533-11.1616l-1.3312-11.400533c7.099733 19.234133 11.946667 39.210667 14.651733 60.9792 0.733867 0.7424 1.6896 1.928533 1.860267 1.373866l1.006933-3.1744c0.273067-0.861867 1.629867-3.319467 1.698134-3.217066z" fill="#E5CEAF" /><path d="M603.972267 524.945067l0.059733-12.910934 1.544533 1.262934-0.128 8.413866c-0.008533 0.768-1.297067 3.191467-1.467733 3.234134z" fill="#DFA566" /><path d="M491.818667 363.0848c-1.518933 1.006933-4.224 1.501867-6.4512 1.501867l1.117866-1.595734 5.3248 0.093867zM483.7632 364.6464c-0.6912 0.861867-3.370667 1.4592-5.026133 1.399467l5.026133-1.399467z" fill="#EFE0CC" /><path d="M445.090133 464.017067c0.273067-0.5632 1.1008-1.2544 1.544534-1.578667l-1.544534 1.578667z" fill="#DFA566" /><path d="M214.784 660.881067c-1.024-0.6656-2.747733-2.235733-3.396267-3.319467 0.938667 0.5632 2.8928 2.193067 3.396267 3.319467zM220.9792 668.8768c-1.544533-0.981333-4.104533-3.293867-4.821333-4.906667 1.536 1.339733 3.4816 3.328 4.821333 4.906667z" fill="#EFE0CC" /><path d="M482.210133 726.4l-52.983466 0.093867v-1.595734l51.3536-0.0256 1.629866 1.527467z" fill="#D6B085" /><path d="M44.7488 628.872533l-3.319467 4.48c-9.710933 13.098667 2.2784 26.504533 13.559467 33.4592 19.618133 12.0832 45.013333 19.7632 67.976533 25.301334 12.919467 3.114667 54.775467 12.945067 64.6912 10.990933 5.794133 1.877333 12.168533 3.771733 18.944 4.599467l56.618667 6.929066 18.594133 1.928534 16.0512 1.476266 22.4 1.723734 30.498134 2.065066 32.017066 1.774934 46.446934 1.288533v1.604267l-22.314667 0.085333c-0.750933 0-2.9184 0.529067-3.456 0.802133-2.9952 1.501867-0.759467 11.972267 2.4064 15.8464l1.6896 6.7584 10.103467 5.290667 0.580266-5.4528 2.363734-3.5328 8.686933 3.985067c2.056533 1.373867 4.0192 2.679467 6.075733 3.857066l6.289067 3.592534c5.410133 3.0976 7.1168-3.601067 21.034667 0.366933l4.164266 1.186133c0.938667 0.264533 0.750933 1.8944 0.861867 3.9424l-24.055467 0.264534-12.791466-0.128c-0.349867-1.408-2.7904-3.2-4.334934-3.438934l-7.3472-1.1264c-5.0944-0.785067-4.923733 3.976533-25.181866 3.208534l-27.426134-1.041067-23.594666-1.416533-25.480534-1.7664c-52.445867-4.224-103.944533-9.898667-155.784533-19.669334-11.451733-2.158933-55.3728-11.7504-62.353067-14.8992l-4.3264-1.954133-23.8592-8.669867c-3.029333-1.1008-8.149333-3.9936-10.88-4.548266l-7.108266-1.442134C43.281067 704.580267 2.670933 679.304533 0.0768 660.992L0 638.301867c6.673067-14.702933 17.041067-23.441067 30.242133-30.242134 0.605867-0.315733 1.408-1.2288 1.826134-1.7408 0.290133-0.2816 1.28 0.2048 1.604266-0.042666l1.732267-1.3824 1.467733 0.017066 0.349867 4.010667 9.898667 4.932267 5.6832 2.833066c2.901333 1.442133-8.618667 8.644267-8.055467 12.2112z" fill="#F9642C" /><path d="M393.984 761.992533l1.373867 1.288534 16.324266-0.017067 19.157334 0.085333 12.791466 0.128c-0.4096-0.213333 1.7408 1.390933 2.167467 1.390934l18.781867-0.042667 110.907733-0.5888 41.207467-1.117867-1.783467 1.928534c-3.7888 0.119467-9.130667 2.645333-9.1136 5.768533 0.128 18.346667-7.995733 6.280533-4.224 24.072533l-14.071467 0.4608-1.408 1.672534c-38.101333 1.621333-76.117333 2.577067-115.1744 0.9472l-80.213333-3.345067c-54.126933-2.2528-138.052267-12.808533-190.779733-25.975467-30.660267-7.6544-79.650133-23.287467-100.565334-45.474133 6.971733 3.1488 50.901333 12.7488 62.353067 14.8992 51.84 9.770667 103.338667 15.4368 155.784533 19.669333l25.480534 1.7664 23.594666 1.416534 27.426134 1.041066z" fill="#D33018" /><path d="M927.530667 721.544533l-2.167467 1.8432-10.197333 2.2784-24.106667 6.357334-54.980267 10.760533c-6.869333 1.339733-13.7472 2.141867-20.770133 3.054933l-25.557333 3.319467c-19.712 2.56-58.734933 6.656-78.626134 8.1152l-1.937066-5.666133-4.9408 4.8896 5.2736 0.759466c4.4288 1.399467-17.672533 1.314133-18.926934 1.408l-0.955733-8.669866-6.698667-5.12 4.753067-6.178134c-11.1104-5.845333-4.2752 1.262933-20.437333-6.5792-1.9712-0.955733-3.822933-8.200533-1.6384-8.2688l18.619733-0.5632 2.858667-1.826133c0.392533-0.017067 1.160533-0.0768 1.604266-0.110933l19.234134 0.290133c8.337067-3.5072 18.781867 0.631467 19.208533-3.285333l16.0256-1.800534 14.472533-1.527466 46.9248-5.418667 20.8896-3.106133c5.051733-0.750933 11.4944-1.911467 15.658667-3.874134-0.648533-0.0256 2.7648 1.220267 3.592533 1.083734l19.925334-3.310934c18.0224-2.9952 53.051733-11.904 70.587733-17.211733 0.9728-0.290133 2.5344-1.032533 3.345067-1.5104l1.604266-0.136533 4.266667 0.7424 6.8608-0.042667c1.988267 0.418133 1.809067 0.375467 0.298667 0.0512l-7.031467 4.266667c-9.642667 5.853867-0.4096 4.864-13.226667 12.561066-2.909867 1.749333 2.730667 4.8896-1.7152 16.8448l-2.082133 5.589334z" fill="#EC4419" /><path d="M925.3632 723.387733c-9.352533 13.994667-50.218667 30.660267-67.464533 36.369067-29.661867 9.813333-59.5456 16.750933-90.7264 21.248l-15.530667 2.235733-43.613867 5.589334-23.918933 2.3552-44.0576 3.421866-33.595733 1.501867-9.147734 0.426667-11.2128 0.477866 1.408-1.672533 14.071467-0.4608c-3.771733-17.792 4.352-5.725867 4.224-24.072533-0.0256-3.1232 5.316267-5.649067 9.1136-5.768534l1.783467-1.928533c0.827733-0.0256 2.2528-0.1024 3.003733-0.0768l17.698133 0.4608 1.792-1.732267 28.7744-1.408 22.6304-1.698133c1.262933-0.093867 23.355733 0 18.926934-1.408 0.4096 0.059733 1.211733 0.042667 1.604266 0.017067 19.8912-1.4592 58.914133-5.5552 78.626134-8.1152l25.557333-3.319467c7.022933-0.913067 13.909333-1.706667 20.770133-3.054933l54.980267-10.760534 24.106667-6.357333 10.197333-2.2784z" fill="#B82018" /><path d="M952.9088 590.148267l-6.5024 3.447466c-0.768 0.4096-2.338133 1.834667-2.875733 2.440534s1.476267 3.131733 2.2272 3.6352l10.1632 6.8352c7.6544 5.154133 15.488 10.274133 21.2736 17.2288l5.410133 6.510933c4.164267 5.009067 6.570667 15.453867 2.7136 21.700267-9.326933 15.112533-27.195733 21.9136-43.409067 28.433066l-1.7664 1.152-1.604266 0.136534-3.345067 1.5104c-17.536 5.307733-52.565333 14.216533-70.587733 17.211733l-19.925334 3.310933c-0.8192 0.136533-4.232533-1.109333-3.592533-1.083733 47.9232-22.545067 70.468267-64.264533 75.579733-117.009067 0.290133-2.952533-0.042667-6.178133-0.529066-8.430933 2.7904 1.237333 6.1696 2.5856 9.608533 3.652267l25.924267 8.0896 1.211733 1.211733z" fill="#B31812" /><path d="M952.9088 590.148267c0.384-0.2048 1.297067-0.1024 1.664 0.0768 0.247467 0.785067 0.366933 1.621333 0.9216 1.604266l2.286933-0.0768c0.554667-0.008533 1.211733-0.068267 1.604267 0.0768-0.034133 0.136533 1.9456 2.346667 2.645333 2.6112l9.0368 3.447467 6.1696 2.1504c12.603733 4.386133 24.226133 11.716267 34.9184 21.026133 13.892267 12.0832 11.323733 18.517333 11.835734 35.165867 0.1536 4.983467-1.373867 10.8544-4.471467 14.856533-6.826667 8.823467-14.754133 16.546133-24.516267 22.0416-14.660267 8.2688-32.4352 16.9472-48.290133 22.135467l-19.191467 6.280533 2.082134-5.589333c4.445867-11.963733-1.194667-15.095467 1.7152-16.8448 12.817067-7.7056 3.584-6.715733 13.226666-12.561067l7.031467-4.266666c1.518933 0.3328 1.6896 0.366933-0.298667-0.0512l-6.8608 0.042666-4.266666-0.7424 1.7664-1.152c16.213333-6.519467 34.082133-13.320533 43.409066-28.433066 3.857067-6.2464 1.450667-16.6912-2.7136-21.700267l-5.410133-6.510933c-5.7856-6.9632-13.6192-12.0832-21.2736-17.2288l-10.1632-6.8352c-0.750933-0.503467-2.7648-3.037867-2.2272-3.6352s2.107733-2.030933 2.875733-2.440534l6.5024-3.447466z" fill="#E33614" /><path d="M110.549333 600.226133l-3.473066-3.131733c-24.354133 9.634133-39.1936 12.817067-59.579734 29.533867l-2.7392 2.244266c-0.5632-3.566933 10.9568-10.760533 8.055467-12.2112l-5.6832-2.833066-9.898667-4.932267-0.349866-4.010667c2.218667-3.5584 15.2832-8.311467 20.5568-10.077866l46.839466-15.658667c1.629867-0.546133 3.4816-1.314133 4.6336-1.792-0.3584 1.5104-0.989867 4.974933-0.759466 6.545067l2.389333 16.3072zM33.672533 606.267733l1.732267-1.3824-1.732267 1.3824zM30.242133 608.059733l1.826134-1.7408c-0.418133 0.512-1.220267 1.4336-1.826134 1.7408z" fill="#EA4216" /><path d="M110.549333 600.226133c2.423467 16.571733 8.669867 31.607467 15.8976 46.225067 12.672 25.608533 34.517333 45.7728 61.2096 56.6528-9.915733 1.954133-51.771733-7.876267-64.6912-10.990933-22.971733-5.5296-48.366933-13.2096-67.976533-25.301334-11.281067-6.954667-23.2704-20.360533-13.559467-33.4592l3.319467-4.48 2.7392-2.244266c20.386133-16.7168 35.2256-19.899733 59.579733-29.533867l3.473067 3.131733z" fill="#BD1B14" /><path d="M687.095467 721.450667l-2.858667 1.826133-18.619733 0.5632c-2.184533 0.068267-0.3328 7.313067 1.6384 8.2688 16.162133 7.842133 9.3184 0.733867 20.437333 6.5792l-4.753067 6.178133 6.698667 5.12 0.955733 8.669867-22.6304 1.698133-28.7744 1.408-17.928533-0.085333-1.553067 1.3568c-0.750933-0.017067-2.176 0.059733-3.003733 0.0768l-41.207467 1.117867-110.907733 0.5888-18.781867 0.042666c-0.426667 0-2.577067-1.604267-2.167466-1.390933l24.055466-0.264533c-0.1024-2.048 0.085333-3.677867-0.861866-3.9424l-4.164267-1.186134c-13.917867-3.968-15.624533 2.730667-21.034667-0.366933l-6.289066-3.592533c-2.065067-1.1776-4.0192-2.4832-6.075734-3.857067l-8.686933-3.985067-2.363733 3.5328-0.580267 5.4528-10.103467-5.290666-1.6896-6.7584c-3.1744-3.874133-5.410133-14.344533-2.4064-15.8464 0.5376-0.273067 2.7136-0.802133 3.456-0.802134l22.314667-0.085333 52.983467-0.093867 46.1824 0.017067 54.434133-0.238933c4.3008-0.017067 8.6784 0.128 11.392-1.152l30.446933-0.631467 28.808534-1.314133 16.366933-1.041067 17.2544-0.5888zM727.1424 718.344533c-0.426667 3.9168-10.871467-0.213333-19.208533 3.285334l-19.234134-0.290134c6.186667-1.245867 13.457067-1.288533 20.573867-1.5616 0.9216-0.213333 4.224-1.1776 5.290667-1.194666l12.578133-0.2304zM430.839467 763.349333l-19.157334-0.085333-16.324266 0.017067-1.373867-1.288534c20.258133 0.768 20.087467-3.9936 25.181867-3.208533l7.3472 1.1264c1.536 0.238933 3.985067 2.030933 4.334933 3.438933zM711.125333 757.2736c-0.392533 0.0256-1.194667 0.042667-1.604266-0.017067l-5.2736-0.759466 4.9408-4.8896 1.937066 5.666133z" fill="#F35521" /><path d="M938.555733 681.6768c-0.810667 0.477867-2.372267 1.211733-3.345066 1.5104l3.345066-1.5104z" fill="#E33614" /><path d="M639.1808 761.762133l-1.792 1.732267-17.698133-0.452267 1.5616-1.3568 17.928533 0.0768z" fill="#D33018" /></svg>