<?xml version="1.0" standalone="no"?><!DOCTYPE svg PUBLIC "-//W3C//DTD SVG 1.1//EN" "http://www.w3.org/Graphics/SVG/1.1/DTD/svg11.dtd"><svg class="icon" width="256px" height="256.00px" viewBox="0 0 1024 1024" version="1.1" xmlns="http://www.w3.org/2000/svg"><path d="M852.452631 116.080817c15.675701 8.866115 13.542372 30.412737 12.057575 48.136434-1.612797 19.32796-17.919963 30.079938-19.27676 34.867127-0.494932 1.757863 1.77493 6.075721 3.037861 7.722651l9.770646 12.808507c5.819721 7.620251 6.647453 21.529555 7.133852 31.923134 1.962663 42.009513-21.085823 47.641501-22.135421 56.260149-0.716799 5.862388 13.730105 11.554109 18.798894 22.365821 7.372785 15.726901 8.533316 46.079904-3.174393 61.439872l-10.547178 13.841038 12.253841 16.793565c14.754103 20.215425 10.350912 50.124696-4.027725 69.921989l-8.285849 11.409043c-4.249591 5.853855 17.561564 15.146635 17.331164 35.10606-0.017067 1.860263 0.819198 5.222389 1.681063 6.033054 0.571732 4.718924 0.580265 14.071437 0 19.720493-0.810665 0.511999-2.210129 1.82613-2.116262 2.85866l0.273066 3.046394c0.042667 0.503466 0 1.501864-0.0768 1.979729-0.964265 0.989865-1.885863 4.147191-2.107729 6.237854-1.578663 2.449062-4.266658 6.340254-6.374387 8.866115l-5.580788 6.724253-3.19146 1.988262c-0.844798 0.529066-0.255999 3.19146-0.017067 3.950925v1.97973l-1.339731 3.268259c-2.815994-1.817596-6.40852-3.08906-8.362649-2.423461l-9.326914 3.148793c-14.114104 4.76159-1.928529 6.570653-15.044235 7.825051l-14.865036 1.41653c-16.315699 1.561597-3.950925 11.886909-29.934871 7.185052-4.044792-0.733865-10.376512-0.733865-14.353037-0.2816l-10.495978 1.211731c-4.99199 0.571732-11.537043 0.810665-14.924769 2.594128-2.636795 1.39093-6.553586 4.394658-8.166384 3.336527l-9.779179-6.43412c-3.029327-1.996796 1.689596-16.076767-4.232525-15.479435l-5.435722 0.546132c-17.143431 4.795723-0.281599-1.160531-17.587163 13.576505-5.640522 4.804257 3.37066 7.756784 14.617569 23.773818l6.075721 8.652782c3.601059 5.128523 6.050121 18.449028 2.500262 24.06395l-6.886386 10.905577c-4.215458 6.673053-9.813313 11.502909-16.588766 15.667168-3.694926 2.269862-8.490649 5.427189-12.253841 6.647453l-15.035702 4.872523c-13.115706 4.249591-17.262898 5.034656-31.078336 4.983456l-47.709767-0.170666c-3.677859-0.017067-8.319983-1.023998-12.134375-1.271464l-25.531681-1.689597c-7.381318-0.486399-14.028771-22.007421-20.360491-16.571699-1.177598 1.006931-1.484797 4.821323-0.716798 6.38292l6.61332 13.491172v8.610116c0.008533 1.72373 4.514124 4.172791 6.212253 3.839992 3.899725-0.750932 12.006375-4.522657 16.230367-4.548257l47.487901-0.3584c6.707186-0.0512 13.371706-0.341333 19.788759-1.169064l14.446903-1.860263c6.195187-0.793598 14.56637-0.605865 21.247956-0.076799l20.462891 1.629863c19.771692 18.013829 21.870888 16.529032 23.458085 42.888444 1.262931 21.009023-11.588243 37.512455-29.15834 44.774307-21.222356 8.763715-29.934871 6.56212-35.575393 13.243706 1.82613 1.151998 5.04319 2.713594 6.809586 2.935461l16.349833 2.005329c19.592493 2.406395 23.918884-2.687994 41.710847 6.126921 10.470378 5.188256 4.770123 11.263977 17.78343 18.047962-2.474662 2.585595-2.346662 2.466128-0.0768 0.162133l4.514124-23.313018 7.756784-9.582914c1.757863-2.167462 7.466651-6.186654 10.154645-7.185051 24.046883-8.917315 30.49807-3.771726 58.555612-7.125319l15.9317-1.902929c20.710357-2.474662 20.607957 4.983456 37.700189-5.188256 0.776532-4.573857 1.058131-6.246387 0.648532-3.848526l4.778657 6.877853 1.36533 2.414928c-0.657065 0.409599-0.494932 4.923723 0.776532 4.565324l4.121591-1.160531c1.638397 3.814392 4.130125 10.171712 5.964788 13.721572 0.264533 1.996796 1.186131 5.119989 2.030929 6.007454 0.392533 4.949323 0.392533 14.856503 0.017067 19.805825-1.023998 0.819198-1.843196 4.215458-1.911463 6.323187l-7.705584 15.914634c-2.781861 5.742921-8.063983 10.871444-12.407441 14.805302l-1.971196 1.791997-0.657065 4.906656-2.431995-5.734388c-0.315733-0.750932-4.002125-0.477866-4.804257-0.273066l-9.608513 2.440528c-34.116196 8.669849-52.223892 8.226116-86.459554 7.347185-3.26826-0.085333-9.907179-2.756261-12.287975-4.326391-6.493853-4.275191-10.666645-12.910907-13.132773-21.060223-2.628261-8.686915-11.903975 19.157294-12.50984 22.425554-1.271464 2.449062-6.067187 7.057052-8.823449 8.439449l-22.655953 11.374909-9.29278 4.650657 9.011181 9.898647c10.214379 11.22131 0.750932 11.886909 18.039429 21.026089 9.787713 5.171189 8.738115 19.541293 6.988786 30.318871l-1.979729 12.228241-6.980253 7.039985c-7.423985 7.483718-17.50183 11.315177-27.784475 10.675178-0.844798 0.486399-5.435722 3.780259-7.347185 3.865592l-30.156738 1.271464c-4.198391 1.51893-8.908782 2.978127-12.38184 2.995194l-38.118321 0.221866c-5.051723 0.0256-10.572778-1.46773-15.018636-3.106127-2.978127 0.264533-9.75358 0.631465-12.279441-0.887464l-12.518374-7.543451-13.013306-6.724253c-5.333322-2.756261-12.151441-6.707186-12.185575-13.329039l-0.2304-39.910317c-0.017067-3.071994-5.947721-8.26025-8.738115-9.301314l-14.728503-5.512522c-8.430916-3.157327-16.981298-4.181325-25.523147 0.102399-2.542928 1.279997-9.105048-0.657065-12.202641-0.682665l-43.46871-0.452266c-16.819165-5.435722-18.577028 1.894396-38.442587 3.65226l-11.477309 1.015464c-2.764794 0.247466-8.046917 4.462924-10.282646 6.374387l-8.524782 17.237297c0.298666 2.158929 1.356797 7.236252 1.023998 9.113582l-2.235729 12.595173c-0.418132 2.329595-5.486922 4.155725-8.05545 2.986661-4.326391 1.109331-10.001046 2.662394-13.465572 4.454391l-9.821846 5.094389c-11.869842 6.161054-23.065552 5.751455-36.795657 4.121592-2.056529-0.238933-6.698653-2.739194-8.388249-2.705062-4.147191 0.537599-8.499182 0.699732-12.535441 0.264533l-14.958902-1.612796c-2.056529-0.221866-6.843719-3.601059-8.849049-4.369058-7.347185-0.290133-16.682632-1.604263-23.389818-4.300791-2.918394-4.88959-8.226116-5.179723-11.656509-2.713594-4.113058-3.19146-8.712515-7.125319-12.339174-11.835709-9.105048-11.810109-13.593572-27.724742-11.153044-42.709245 4.326391-26.581278 26.666611-31.394068 9.685314-44.868173-6.545053-5.196789-10.521578-13.883705-11.127444-22.161021l-1.092264-14.796769c-1.186131-16.093833 7.654384-33.527397 17.826096-41.804714l1.62133 2.030929 5.870921-11.613842c2.295462-0.725332 9.130648 0.383999 11.912509 1.382397l15.189301 5.427189c4.403191 1.57013 9.668247 2.909861 14.378637 3.592526l10.248512 1.501863 19.874092 2.466128c13.627705 1.69813 28.95354 3.157327 41.036715-5.777054 4.189858-3.097594 11.810109-11.42611 11.537043-16.349833l-0.861865-16.042633-1.083731-19.58396c-0.682665-12.330641-2.039462-12.339174-17.774896-19.37916-22.331687-9.983979-18.252762-7.014385-41.890047-12.108774-20.616491-4.445857-15.368501-0.853332-28.074608-4.86399-24.14075-7.628784-34.261262-3.583993-34.679395-14.762636l8.806382-0.2816c31.317268-1.006931 19.37916 6.365853 29.021806 5.026123 25.81328-3.592526 9.582913 2.995194 24.21755 2.858661l23.705551-0.221866 12.125841-0.418133c4.539724-0.1536 10.965311-1.945596 12.646374-5.546655l5.998921-12.834107c4.147191-8.866115 3.225593-18.901294 1.67253-29.047406-1.006931-6.527986-1.476264-17.023965-6.929052-20.881023-19.549826-13.832505-13.738638-6.51092-21.580756-9.292781-5.427189-1.928529-14.25917-5.555188-20.377557-6.468253l-29.073007-4.360525-12.202641-2.073595-11.682109-2.099196-13.02184-2.355195c-0.827732-0.1536-4.300791-1.535997-3.06346-1.160531-0.255999-6.041587-0.614399-7.859184-2.602661-14.097038l-3.21706 1.809063c-21.879421-11.178643-25.403681-59.784409-10.001046-73.702247l6.041587-3.720525-1.885863-2.278396c1.305597-1.399464 3.182927-3.21706 4.599458-4.411724l2.141862 0.486399c4.78719-5.802655 8.140783-3.379193 13.260772-1.44213 12.381841 4.676257 29.397272 8.405316 43.024978 10.649578l22.26342 3.660792c13.567972 2.227195 32.725265 1.928529 42.811645-6.920519l3.601059-11.596776c1.578663-5.094389 0.511999-10.675178-0.1536-16.392499l-2.278395-19.515693c-0.853332-7.278918-3.839992-12.81704-10.854378-15.897567-34.670861-15.231968-38.126854-6.22932-54.237754-12.270908l-17.083698-6.40852c-2.542928-0.955731-8.268783-1.151998-11.391976-1.69813l-16.767965-2.918394c-2.457595-0.426666-7.662917-2.483195-10.572778-3.549859-2.056529-0.750932-1.885863-6.220787-1.117865-8.345583 3.42186-9.463447 10.649578-1.46773 29.303406 2.568528 1.348264 0.290133 19.874092 2.457595 19.097561 2.423462l31.726867 1.339731 16.051167 1.305597c5.555188 0.452266 13.841038-1.553063 18.056496-4.78719l12.006375-9.190381c4.565324-3.490126 2.867194-12.561041 2.687994-17.86023l-0.648532-19.694892c-0.614399-18.542895-0.324266-12.424508-7.551984-25.489014-7.961583-4.386124-17.365297-7.483718-26.743411-8.686915l-15.940234-2.047996-15.709834-2.065062-13.909304-2.739195-13.311973-2.039462-20.479957-3.14026-10.658112-1.757863-3.259726-5.350389c1.954129-13.132773-6.655986-9.44638-16.759432-27.118877-6.869319-12.014908-5.905054-36.590857-2.201595-47.684168 6.937586-20.812757 28.023409-30.72847 15.6501-45.363106-5.410122-6.399987-12.63784-13.730105-15.308768-21.862354-6.084254-18.508762-3.490126-46.395637 9.062381-61.602006l4.223992-5.119989c3.908259-1.732263 9.719446-0.648532 14.651703 1.220264 7.057052 2.679461 13.789838 4.906656 20.966356 7.244785l14.216504 4.625057 14.20797 3.01226c21.717288 4.60799 9.386647 1.228797 33.71513 3.413327 8.857582 0.793598 17.416497 0.469332 26.530079-0.256l22.54502-1.809063c8.618649-8.584516 24.345549 3.06346 27.707675 6.818119 0.622932 0.699732 7.679984 10.103446 5.154123 12.552508l-3.908258 3.780258c-15.778101 15.274635-22.203687 44.236708-6.76692 59.52841 9.83038 9.736513 12.962106 11.596776 25.591414 14.66877 6.28052 1.527463 12.287975 2.559995 18.628228 2.969594l17.945563 1.143464 25.514613 1.331197 13.934905 1.314131 16.247433 0.435199c10.444778 0.281599 29.738605-2.210129 37.606322-9.420781 11.229843-10.291179 15.778101-17.979696 15.633034-32.648465-0.418132-42.470312-9.207448-24.831948-6.621853-43.716176l18.295429 0.964265c5.265056 0.273066 3.711992 13.115706 3.959458 21.026089 0.119466 4.019192 1.407997 10.291179 1.220264 13.542372l-0.964264 16.170633c-0.563199 9.429314 2.670928 17.484764 9.26718 24.328483 9.966913 10.342379 19.234093 11.690642 34.158863 11.050644l28.134341-1.203198 39.142319-1.305597c2.670928-0.085333 6.835186-0.648532 10.043713-1.032531l10.93971-1.314131c18.039429-2.175995 31.351402-10.026646 37.08579-28.475674 2.321062-7.483718 1.57013-14.745569 0.017067-21.998888l-2.943994-13.721571c-5.077323-23.654351-18.773294-27.22981-15.078369-29.576472l3.874125-2.466128c2.423462-1.535997 5.939188-5.435722 7.782384-7.850651 0.503466-0.068267 1.399464-0.0768 1.979729-0.085333l6.894919-1.134931c2.585595-0.426666 7.884784 0.750932 11.067711 0.913065 15.163702 0.759465 29.738605 0.529066 44.774307-0.2816 2.679461-0.145066 7.722651-0.068267 10.001046-0.563198l26.530078-5.802655 13.721572-2.747728c4.83839-0.972798 9.480514-2.440528 11.571176-5.862387l17.587163-8.900249c1.604263-0.810665 7.705584 0.366933 8.00425 0.511999 3.669326 3.481593 6.374387 5.785588 9.617047 7.620251zM436.052429 339.576887c4.403191-0.648532 9.429314-1.399464 12.620773-1.228798l14.028771 0.759465c3.054927 0.162133 10.333845-0.401066 13.107173-1.715196l10.658111-5.043189c14.003171-6.621853 23.628751-9.72798 32.639933-28.066076 1.911463-3.891192 2.286929-14.574903 0.366932-18.457561-2.534395-5.128523-7.099719-11.775976-11.187177-16.622899-4.369058-5.179723-14.583436-7.347185-21.256489-8.26025-20.360491-2.773328-13.491172 0.1536-36.164192-2.867194-3.566926-0.477866-10.180246-2.500261-13.499705-2.491728l-55.432418 0.085333c-1.356797 0-24.183416 5.094389-27.775943 7.432518l-11.588242 7.534918c-5.265056 3.42186-8.23465 12.63784-9.710913 18.952494-2.662394 11.383443 3.01226 20.138625 10.649578 27.818609 18.935427 19.037827 18.995161 2.995194 30.856469 21.572222 4.676257-5.196789 16.443699-3.746126 19.455959 0.733865 1.117864 1.655463 0.503466 6.425587 0.128 8.422382 1.262931 0.375466 4.087458 1.262931 4.283725 0.452266l1.143464-4.616524c1.988263-8.02985 11.989308-6.553586 18.039429-6.02452l18.636762 1.629863z m262.049589 67.37906c-0.401066-3.865592-0.537599-6.579186-0.349866-9.57438l0.725332-11.784509c-0.1024-4.403191-0.324266-8.934381-1.271464-13.951971-1.083731-5.725855-7.150918-8.797848-12.441574-9.147714-13.550905-0.904531-22.920486-4.027725-25.727947-4.036259l-83.251027-0.281599c-15.812234-2.244262-35.524193-5.034656-43.485777 9.745046l-3.583992 19.140227c-1.245864 6.66452-0.793598 19.37916-0.034133 26.274079 0.332799 2.98666 4.778657 9.198914 6.997318 11.17011 9.326914 8.268783 23.526351 10.598378 35.976459 11.443177l16.017034 1.083731c11.801576 0.802132 23.816484 0.742398 35.558326-0.0256l13.900771-0.904532 28.066075-1.817596c17.75783-1.151998 28.543941-11.47731 32.904465-27.33221zM461.703575 527.181831l13.397306-1.314131 22.630353-5.691721c21.862355-6.28052 27.545543-41.318314 17.55303-53.717222-4.872523-6.050121-9.531714-9.864513-15.7781-14.28477-3.24266-1.151998-7.415451-2.431995-10.538645-2.568528l-19.848492-0.836265c-4.83839 0.128-9.531714 0-14.404237-0.349866l-12.117308-0.895998c-2.798928-0.2048-8.191983 0.878932-11.673576 1.672529l-61.141207 0.750932-20.659157 7.039986c-3.208527 1.092264-8.413849 6.843719-9.813313 9.762113-7.679984 15.965834-11.912509 28.680474 3.34506 43.519909 5.631988 5.478389 18.022363 12.049042 24.721015 12.825574l21.887955 2.525861c5.205323 0.503466 10.658111 0.989865 16.1109 1.126398l25.770613 0.665598 18.210096 0.384c3.404793 0.068267 7.867717-0.1792 12.347707-0.614399z m239.769103-0.017067l1.928529-8.174916c0.392533-2.133329-8.942915-6.263454-10.956777-4.241058-6.20372 6.246387-11.571176 12.825573-17.535964 20.522624 4.650657 1.638397 14.207971 3.046394 17.416497 0.145066l9.147715-8.260249zM613.272327 623.616831l15.590368-0.1024c1.638397-0.008533 6.417053-1.501864 8.371183-1.64693l13.397305-0.981331c3.054927 0.119466 8.251716 0.110933 10.811711-0.597332l14.557837-4.019192c3.942392-1.092264 10.470378-6.527986 13.090106-9.642647 1.373864-1.629863 3.566926-6.741319 4.309324-8.806381l4.479991-12.578108 0.657065-19.822892c-6.451187-7.355718-2.551461-18.303962-7.517851-20.61649l-8.644249-4.019192-19.677825 0.0256c-2.764794 0-17.092231 3.771726-29.329006 3.857059l-71.517719 0.529065c-11.434643-4.130125-29.320472 10.316779-33.160464 18.739161l-2.440528 18.269829c-1.006931 7.509318 1.69813 17.638363 5.137056 23.978617 16.503432 11.972242-6.015988 6.66452 20.317824 13.960504l10.794644 2.995194 17.032498 1.186131c21.905021 1.527463 10.018113-0.554666 33.757797-0.708265z m-152.268484 2.781861c11.980775 0.264533 27.647943-0.964265 35.242594-10.231446 6.673053-8.140783 9.164781-17.245831 11.810109-27.25541-0.093866-5.282122-0.682665-10.009579-1.67253-15.402635-6.289054-15.342901-10.717844-20.428758-25.258614-23.816483l-19.950892-4.650657c-5.171189 1.237331-10.726378 2.175995-16.017034 2.099195l-55.586018-0.861865c-10.769044-1.791996-22.46822-2.577061-32.904465 1.015465l-13.866638 4.770123c-4.283724 1.476264-10.845844 10.367978-11.545576 14.890636-2.099196 13.593572-2.551461 24.806349-0.0768 37.836722l16.401033 18.338095c5.367456 1.578663 11.801576 2.611195 18.133296 3.01226l16.0853 1.006931 7.77385-0.443732 23.731151 0.605865 16.2389 0.614399c10.683711 0.401066 3.916792-2.133329 31.487934-1.527463z m-20.863956 95.675534l20.676223 4.846924 15.965834-2.670928c8.746649-1.46773 16.401033-3.677859 25.770613-5.930654 7.355718-10.060779 14.429837-28.637807 10.222912-41.488981-0.699732-8.849048-3.652259-19.310893-13.030373-22.306087l-12.177041-3.891192c-4.642124-1.484797-12.936506-0.904531-18.636761-0.708265l-19.967959 0.691198-8.661315 0.554666-38.83512 0.870398-24.149283 0.213333c-3.182927 0.0256-9.719446 1.67253-12.834107 2.039462-6.732786-1.006931-12.424508 0.068267-18.005296 3.251194-10.734911 6.109854-16.785032 14.66877-16.315699 28.014875 0.648532 18.312495 18.175962 32.998332 33.570064 33.467664l29.141272 0.895998 16.503433 0.2048 12.006375 0.639998 18.773294 1.288531z m28.637807 61.610539c6.66452-6.161054 4.974923-13.875171-0.486399-18.739161-1.339731-1.194664-5.589322-4.522657-7.500784-4.753057l-17.604231-2.082129-16.076766-1.766396-18.090629-2.841594c-5.956254-0.938665-53.700155-2.551461-46.53217 6.058654 1.501864 1.809063 4.556791 5.512522 4.940789 7.227718 1.638397 7.338651 1.996796 15.897567 16.102367 18.687962 4.010658 0.793598 10.453312 2.286929 13.721571 2.321061l61.960405 0.708266c2.440528 0.0256 7.458118-2.884261 9.557314-4.821324z m-4.010658 135.048253l20.69329-6.519453c1.860263-0.588799 13.858105-10.862911 17.544497-15.018635 3.080527-3.473059 7.142385-12.748774 6.690119-17.237298-1.339731-13.303439-3.199993-20.92369-14.23357-27.562609-5.905054-3.549859-11.784509-5.998921-18.380762-7.381318-4.087458-0.861865-10.419178-2.918394-13.994638-2.961061l-61.200939-0.725332H391.337855l-33.851663 0.315733c-13.243706 0.119466-9.079448 13.397306-15.573301 18.047963-5.461322 3.908259-8.814915 10.308245-7.961584 17.800496 3.618126 31.812201 20.66769 13.030373 27.571143 32.622866l13.081573 0.819198 12.851173 1.791996 24.285816 3.379193c9.326914 1.297064 19.370626 0.682665 29.636205 0.819199 19.771692 0.264533 9.864513 6.067187 23.381285 1.809062z" fill="#FCD001" /><path d="M847.870241 602.053142l4.625057 7.057052c23.227685 25.309814 21.222356 60.074542-3.39626 84.479825-8.439449 8.362649 5.666122 12.79144 12.390374 26.589811 7.918917 16.2389 7.893317 35.379127 1.049598 52.070292-2.150396 5.239456-6.630386 10.299712-10.555711 15.163702-8.098117 10.035179 4.172791 15.948767 0.785065 18.841561l-4.778657-6.877852c0.409599-2.397862 0.128-0.725332-0.648532 3.848525-17.092231 10.171712-16.989831 2.713594-37.700188 5.188256l-15.931701 1.902929c-28.057542 3.353593-34.508728-1.80053-58.555611 7.125319-2.687994 0.998398-8.396783 5.009056-10.154646 7.185052l-7.756784 9.582913-4.514124 23.313018c-2.269862 2.303995-2.406395 2.423462 0.0768-0.162133-13.013306-6.783986-7.313051-12.859707-17.78343-18.047962-17.791963-8.814915-22.118354-3.720526-41.710847-6.126921l-16.349832-2.005329c-1.766396-0.213333-4.99199-1.783463-6.809586-2.93546 5.649055-6.681586 14.36157-4.479991 35.575393-13.243706 17.570097-7.261852 30.42127-23.765284 29.158339-44.774307-1.587197-26.359412-3.686392-24.874615-23.458085-42.888445l-20.46289-1.629863c-6.681586-0.529066-15.044235-0.725332-21.247956 0.0768l-14.446904 1.860263c-6.40852 0.827732-13.081573 1.117864-19.788759 1.169064l-47.487901 0.358399c-4.223991 0.034133-12.330641 3.805859-16.230366 4.548257-1.69813 0.324266-6.195187-2.124796-6.203721-3.839992v-8.610115l-6.621853-13.491172c-0.767998-1.57013-0.460799-5.375989 0.716799-6.38292 6.33172-5.435722 12.979173 16.0853 20.360491 16.571699l25.53168 1.689596c3.814392 0.255999 8.456516 1.262931 12.134375 1.271464l47.709768 0.170667c13.815438 0.0512 17.954096-0.733865 31.078335-4.983457l15.035702-4.872523c3.763192-1.220264 8.550382-4.377591 12.253842-6.647453 6.783986-4.164258 12.381841-8.985581 16.588765-15.667167l6.886386-10.905578c3.549859-5.614922 1.092264-18.935427-2.500262-24.06395l-6.07572-8.652782c-11.24691-16.017033-20.266625-18.969561-14.61757-23.773817 17.305564-14.737036 0.443732-8.789315 17.587163-13.576505l5.435723-0.546133c5.922121-0.597332 1.203198 13.482639 4.232524 15.479435l9.77918 6.43412c1.612797 1.058131 5.529589-1.945596 8.166383-3.336526 3.387726-1.783463 9.932779-2.022396 14.924769-2.594128l10.495978-1.211731c3.976525-0.460799 10.308245-0.452266 14.353037 0.281599 25.983946 4.701857 13.619172-5.623455 29.934871-7.185052l14.865036-1.41653c13.115706-1.254397 0.930131-3.06346 15.044235-7.82505l9.326914-3.148794c1.954129-0.657065 5.546655 0.614399 8.36265 2.423462l1.33973-3.26826z" fill="#FDC601" /><path d="M174.216172 516.225054l0.836265-4.087459c1.988263-9.762113-16.170633-11.007977-18.483162-37.597788-1.911463-22.015954 0.2048-32.486333 16.230366-49.510297 12.253841-13.02184-13.585038-13.798371-17.860229-48.528966-2.662394-21.623422 6.56212-37.683122 22.62182-49.621231l3.259726 5.350389 10.658111 1.757863 20.479958 3.14026 13.311972 2.039463 13.909305 2.739194 15.709834 2.065062 15.940233 2.047996c9.386647 1.203198 18.790361 4.300791 26.743412 8.686915 7.227718 13.064506 6.937586 6.946119 7.551984 25.489014l0.648532 19.694893c0.1792 5.299189 1.877329 14.370104-2.687995 17.860229l-12.006375 9.190381c-4.223991 3.234127-12.509841 5.239456-18.056496 4.78719l-16.051166-1.305597-31.726868-1.339731c0.785065 0.034133-17.749297-2.133329-19.09756-2.423461-18.653828-4.027725-25.89008-12.031975-29.303406-2.568528-0.767998 2.124796-0.938665 7.594651 1.117864 8.345582 2.909861 1.058131 8.115183 3.123194 10.572778 3.54986l16.767966 2.918394c3.123194 0.546132 8.840515 0.742398 11.391976 1.69813l17.083698 6.40852c16.1109 6.041587 19.566893-2.961061 54.237754 12.270907 7.005852 3.080527 10.001046 8.618649 10.854378 15.897567l2.278395 19.515693c0.665599 5.717321 1.740796 11.29811 0.153599 16.3925l-3.601059 11.596776c-10.094912 8.849048-29.252206 9.147714-42.811644 6.920519l-22.263421-3.660793c-13.619172-2.235729-30.643136-5.973321-43.024977-10.649578-5.119989-1.937063-8.465049-4.351991-13.260773 1.442131l-2.141862-0.486399z" fill="#FCE30F" /><path d="M845.020113 888.661614c0.196266 2.491728 0.981331 8.021317 2.500262 9.941313l8.166383 10.316778c7.108252 8.985581 7.185052 13.311972 7.842117 25.71088 0.964265 18.141829-6.101321 33.476197-20.266625 44.100176-12.876773 9.65118-24.226083 15.283168-40.516182 18.508761-36.283658 7.193585-30.071404 5.000523-68.752924 5.384522-4.650657 0.042667-10.461845-3.29386-13.951971-4.309324l-6.988786-5.521055c-2.901327-2.295462-10.393578-5.640522-13.499705-3.729059-2.534395 1.553063-5.785588 3.703459-7.125319 5.051723l1.979729-12.228242c1.74933-10.777578 2.798928-25.147681-6.988785-30.31887-17.288497-9.130648-7.82505-9.796246-18.039429-21.02609l-9.011182-9.898646 9.292781-4.650657 22.655953-11.37491c2.747728-1.382397 7.543451-5.981854 8.823448-8.439449 0.605865-3.26826 9.890113-31.112469 12.509841-22.425553 2.466128 8.149316 6.63892 16.793565 13.132773 21.060223 2.380795 1.57013 9.019715 4.241058 12.287974 4.326391 34.227129 0.878932 52.343358 1.322664 86.459554-7.347185l9.608514-2.440528c0.802132-0.2048 4.488524-0.477866 4.804256 0.273066l2.431995 5.734388 0.657066-4.906657 1.971196-1.791996z" fill="#FDC601" /><path d="M692.44443 994.116329c1.339731-1.348264 4.590924-3.490126 7.125318-5.051723 3.106127-1.902929 10.598378 1.44213 13.499706 3.729059l6.988785 5.521055c-4.91519-1.433597-10.171712-3.03786-16.238899-5.401589-11.255443 1.553063-8.917315 10.760511-29.303406 19.285293-20.215425 8.447982-32.972732 10.265579-55.432419 11.204244-20.650624 0.861865-50.773228 1.228797-70.911852-2.150396-11.639443-1.945596-22.801019-8.10665-34.466062-12.876773-5.452789-2.227195-20.275158 11.025044-42.879911 13.346106-16.802098 1.732263-35.046327 2.559995-51.54976 1.706663l-43.39191-2.244262c-13.764238-0.708265-31.9402-9.966913-42.734845-19.566893l-7.884783-7.014385c-2.397862-2.133329-8.396783-4.471457-11.135977-3.148794l-12.467174 6.024521c-14.173837 6.852252-27.144477 4.753057-44.774307 4.65919-0.836265-0.793598-4.198391-1.843196-5.939188-1.979729l-17.791963-1.36533c-20.061825-1.535997-36.479924-3.362126-51.216961-14.779703 3.42186-2.466128 8.738115-2.175995 11.65651 2.713594 6.698653 2.705061 16.042633 4.019192 23.389818 4.300791 2.005329 0.767998 6.792519 4.147191 8.849048 4.369058l14.958902 1.612797c4.036258 0.435199 8.379716 0.273066 12.535441-0.264533 1.689596-0.034133 6.340254 2.466128 8.388249 2.705061 13.730105 1.62133 24.925815 2.039462 36.795657-4.121592l9.821847-5.094389c3.464526-1.80053 9.139181-3.34506 13.465572-4.454391 2.568528 1.169064 7.637317-0.657065 8.05545-2.98666l2.235728-12.595174c0.332799-1.877329-0.725332-6.954652-1.023998-9.113581l8.524783-17.237298c2.244262-1.911463 7.526384-6.126921 10.282645-6.374386l11.47731-1.015465c19.865559-1.74933 21.623422-9.079448 38.442586-3.652259l43.46871 0.452266c3.097594 0.034133 9.659713 1.962663 12.202642 0.682665 8.541849-4.283724 17.092231-3.259727 25.523147-0.1024l14.728502 5.512522c2.790394 1.041065 8.721049 6.22932 8.738116 9.301314l0.230399 39.910317c0.034133 6.621853 6.852252 10.572778 12.185575 13.329039l13.013306 6.724253 12.518374 7.543451c2.525861 1.51893 9.301314 1.151998 12.279441 0.887465 4.445857 1.638397 9.975446 3.131727 15.018636 3.106127l38.118321-0.221867c3.473059-0.017067 8.18345-1.476264 12.381841-2.995193l30.156737-1.271464c1.902929-0.0768 6.493853-3.379193 7.347185-3.865592 10.282645 0.639999 20.360491-3.19146 27.784476-10.675178l6.980252-7.039986z" fill="#FCDE1C" /><path d="M165.46099 526.635699c0.955731-1.996796 2.602661-4.326391 4.155725-5.990388l1.885862 2.278395-6.041587 3.720526z" fill="#FCE30F" /><path d="M847.870241 600.073413c-0.238933-0.759465-0.827732-3.430393 0.017066-3.950925l3.19146-1.988263c-0.614399 1.945596-1.971196 4.522657-3.208526 5.939188zM867.061668 544.700728c-0.861865-0.802132-1.69813-4.172791-1.681064-6.033054 0.494932 0.989865 1.484797 4.420257 1.681064 6.033054zM865.209938 570.317741l-0.273066-3.046393c-0.093866-1.032531 1.314131-2.346662 2.116262-2.858661-0.170666 1.64693-1.237331 5.111456-1.843196 5.896521zM863.033943 578.535324c0.221866-2.099196 1.143464-5.247989 2.107728-6.237853-0.341333 2.013862-1.169064 4.78719-2.107728 6.237853zM859.040351 812.08364l-4.121592 1.160531c-1.271464 0.358399-1.44213-4.164258-0.776531-4.565324 0.742398-0.1792 3.780259-0.264533 4.036258 0.810665 0.1792 0.759465 0.571732 1.757863 0.870398 2.602661zM865.133138 857.950211c0.068267-2.107729 0.895998-5.512522 1.911463-6.323187-0.128 1.715196-1.169064 4.795723-1.911463 6.323187zM867.027534 831.812665c-0.836265-0.887465-1.766396-4.010658-2.030929-6.007454 0.767998 1.484797 1.894396 4.326391 2.030929 6.007454z" fill="#FDC601" /><path d="M256.869867 1002.154712c-1.681063-0.008533-5.196789-1.169064-5.939188-1.979729 1.74933 0.136533 5.102923 1.186131 5.939188 1.979729z" fill="#FCD001" /><path d="M461.003843 626.398692c-27.571143-0.605865-20.804223 1.928529-31.487934 1.527463l-16.2389-0.614399-23.731151-0.605865-7.77385 0.443732-16.0853-1.006931c-6.33172-0.392533-12.76584-1.433597-18.133296-3.01226l-16.401032-18.338095c-2.474662-13.038906-2.022396-24.251683 0.076799-37.836722 0.699732-4.514124 7.261852-13.414372 11.545576-14.890636l13.866638-4.770123c10.436245-3.592526 22.143954-2.807461 32.904465-1.015465l55.586018 0.861865c5.290656 0.085333 10.845844-0.853332 16.017034-2.099195l19.950892 4.650657c14.54077 3.387726 18.978094 8.482116 25.258614 23.816483 0.989865 5.393055 1.578663 10.120512 1.67253 15.402635-2.645328 10.009579-5.137056 19.114627-11.810109 27.25541-7.594651 9.267181-23.261818 10.495978-35.242594 10.231446zM613.272327 623.616831c-23.731151 0.1536-11.852775 2.235729-33.757796 0.708265l-17.032498-1.186131-10.794644-2.995194c-26.333812-7.295985-3.805859-1.988263-20.317825-13.960504-3.438926-6.340254-6.143987-16.469299-5.137056-23.978617l2.440528-18.269829c3.831459-8.413849 21.725822-22.869286 33.160465-18.739161l71.517718-0.529065c12.236775-0.093866 26.564212-3.857059 29.329006-3.857059l19.677826-0.0256 8.644249 4.019192c4.96639 2.312529 1.075198 13.260772 7.517851 20.61649l-0.657066 19.822892-4.47999 12.578108c-0.733865 2.073596-2.935461 7.176518-4.309325 8.806381-2.619728 3.11466-9.147714 8.550382-13.090106 9.642647l-14.557836 4.019192c-2.559995 0.708265-7.765317 0.725332-10.811711 0.597332l-13.397306 0.981331c-1.945596 0.145066-6.724253 1.638397-8.371183 1.64693l-15.590367 0.1024z" fill="#FCDF0E" /><path d="M698.102018 406.955947c-4.360524 15.8549-15.155169 26.188746-32.904465 27.33221l-28.066075 1.817596-13.900771 0.904532c-11.741842 0.759465-23.765284 0.827732-35.558326 0.0256l-16.017034-1.083731c-12.450107-0.844798-26.649545-3.16586-35.976459-11.443177-2.227195-1.971196-6.673053-8.18345-6.997318-11.17011-0.759465-6.894919-1.211731-19.609559 0.034133-26.274079l3.583992-19.140227c7.961583-14.779703 27.673543-11.989308 43.485777-9.745046l83.251027 0.281599c2.798928 0.008533 12.168508 3.131727 25.727947 4.036259 5.290656 0.349866 11.357843 3.42186 12.441574 9.147714 0.947198 5.026123 1.169064 9.54878 1.271464 13.951971l-0.725332 11.784509c-0.187733 2.995194-0.0512 5.708788 0.349866 9.57438z" fill="#FDE117" /><path d="M468.777694 783.684765c-2.099196 1.937063-7.116785 4.846923-9.557314 4.821324l-61.960404-0.708266c-3.26826-0.034133-9.719446-1.527463-13.721572-2.321061-14.114104-2.790394-14.46397-11.357843-16.102366-18.687962-0.383999-1.715196-3.430393-5.418655-4.94079-7.227718-7.167985-8.610115 40.575916-6.997319 46.53217-6.058654l18.090629 2.841594 16.076767 1.766396 17.60423 2.082129c1.902929 0.221866 6.152521 3.558393 7.500784 4.753057 5.461322 4.86399 7.150918 12.578107 0.486399 18.739161z" fill="#FCE867" /><path d="M701.472678 527.164764l-9.147715 8.26025c-3.208527 2.901327-12.76584 1.49333-17.416497-0.145067 5.964788-7.697051 11.332243-14.276237 17.535964-20.522624 2.013862-2.022396 11.34931 2.099196 10.956777 4.241058l-1.928529 8.174917z" fill="#FDC601" /><path d="M173.712706 805.854319c7.475184-15.342901-7.509318-16.767965-14.25917-32.853265-6.323187-15.078369-5.725855-42.581245 6.40852-55.799351l8.644249-9.429313c1.271464-1.382397 3.302393-5.708788 3.046393-7.543452-0.836265-6.015988-5.333322-2.602661-13.747171-13.132772-3.507193-4.386124-5.845321-9.207448-6.195187-13.738638-0.349866-1.809063-1.305597-5.102923-1.834663-6.126921l-0.187733-19.925292c-0.034133-3.42186 1.740796-10.811711 3.234126-14.38717 2.158929-5.145589 7.381318-10.299712 10.956778-14.651703l8.354116-10.180246-2.679461-7.756784 3.21706-1.809062c1.988263 6.237854 2.346662 8.05545 2.602661 14.097037-1.237331-0.383999 2.235729 1.006931 3.06346 1.160531l13.02184 2.355195 11.682109 2.099196 12.202641 2.073595 29.073007 4.360525c6.118387 0.921598 14.950369 4.548257 20.377557 6.468253 7.833584 2.781861 2.022396-4.539724 21.580756 9.292781 5.444255 3.857059 5.922121 14.353037 6.929052 20.881023 1.561597 10.146112 2.474662 20.181291-1.67253 29.047406l-5.998921 12.834107c-1.681063 3.592526-8.10665 5.384522-12.646374 5.546655l-12.125841 0.418133-23.705551 0.221866c-14.634636 0.136533 1.59573-6.45972-24.21755-2.858661-9.634113 1.339731 2.303995-6.033054-29.021806-5.026123l-8.806382 0.2816c0.418132 11.178643 10.538645 7.133852 34.679395 14.762636 12.706107 4.019192 7.458118 0.418132 28.074608 4.86399 23.637284 5.102923 19.558359 2.124796 41.890047 12.108774 15.735434 7.039985 17.092231 7.048519 17.774896 19.37916l1.083731 19.58396 0.861865 16.042633c0.264533 4.923723-7.355718 13.252239-11.537043 16.349833-12.074642 8.934381-27.400476 7.475184-41.036715 5.777054l-19.874092-2.466128-10.248512-1.501863c-4.71039-0.691199-9.975446-2.022396-14.378637-3.592526l-15.189301-5.427189c-2.781861-0.989865-9.617047-2.107729-11.912509-1.382397l-5.870921 11.613842-1.62133-2.030929z m6.655986-165.068457c0.034133-3.046394 0.358399-7.577584-1.203197-7.918917l-8.063983-1.757863c-1.186131-0.255999-2.517328 4.906656-1.59573 5.700255l4.113058 3.549859c1.211731 1.049598 6.732786 1.851729 6.758386 0.426666z m-12.424507 26.513011l0.093866-9.301314-4.181324 5.341856 4.087458 3.959458z" fill="#FBE00C" /><path d="M180.368692 640.785862c-0.0256 1.425064-5.546655 0.622932-6.758386-0.426666l-4.113058-3.549859c-0.921598-0.793598 0.418132-5.956254 1.59573-5.700255l8.063984 1.757863c1.561597 0.341333 1.237331 4.872523 1.203197 7.918917zM167.944185 667.298873l-4.087458-3.959458 4.181324-5.341856-0.093866 9.301314z" fill="#FCD001" /><path d="M461.703575 527.181831c-4.479991 0.435199-8.942915 0.682665-12.347707 0.614399l-18.210096-0.384-25.770613-0.665598c-5.461322-0.136533-10.905577-0.622932-16.1109-1.126398L367.376304 523.094373c-6.690119-0.776532-19.089027-7.347185-24.721015-12.825574-15.266102-14.830903-11.033577-27.554076-3.34506-43.519909 1.399464-2.918394 6.604786-8.661315 9.813313-9.762113l20.659157-7.039986 61.141207-0.750932c3.481593-0.793598 8.874648-1.877329 11.673576-1.672529l12.117308 0.895998c4.872523 0.358399 9.57438 0.486399 14.404237 0.349866l19.848492 0.836265c3.131727 0.128 7.304518 1.407997 10.538645 2.568528 6.246387 4.411724 10.897044 8.226116 15.7781 14.28477 9.992513 12.398908 4.309324 47.445235-17.55303 53.717222l-22.630353 5.691721-13.397306 1.314131z m-0.307199-25.76208c4.68479 1.399464 9.958379 1.382397 13.593572-0.042667 9.173314-3.583993 13.960504-10.069312 13.823971-20.548224-0.042667-3.29386-2.039462-8.021317-4.428791-11.281043-5.614922-7.671451-8.516249-0.674132-19.703426-7.364251l-29.388739-1.169064c-4.855457-0.196266-9.454914-0.196266-14.28477-0.017067l-23.748217 0.870398-8.618649 6.66452c-1.459197 4.957856-2.175995 14.532237 1.066664 18.611161 1.59573 2.005329 6.946119 4.898123 9.497581 6.143987 15.718367 7.662917 8.789315-0.162133 22.408486 7.048519l39.782318 1.083731z" fill="#FCDF0E" /><path d="M461.396376 501.419751l-39.782318-1.083731c-13.619172-7.210652-6.690119 0.614399-22.408486-7.048519-2.551461-1.245864-7.90185-4.138658-9.497581-6.143987-3.251193-4.078925-2.534395-13.661838-1.066664-18.611161l8.618649-6.66452 23.748217-0.870398c4.829857-0.1792 9.429314-0.170666 14.28477 0.017067l29.388739 1.169064c11.187177 6.698653 14.088504-0.307199 19.703426 7.364251 2.389328 3.259727 4.386124 7.987183 4.428791 11.281043 0.136533 10.487445-4.650657 16.964231-13.823971 20.548224-3.643726 1.425064-8.908782 1.433597-13.593572 0.042667z" fill="#FCED6A" /><path d="M440.139887 722.074226l-18.773295-1.28853-12.006375-0.639999-16.503432-0.204799-29.141273-0.895999c-15.394101-0.477866-32.912998-15.155169-33.570064-33.467663-0.469332-13.346106 5.580788-21.905021 16.3157-28.014876 5.589322-3.182927 11.27251-4.258124 18.005296-3.251193 3.11466-0.375466 9.65118-2.013862 12.834106-2.039462l24.149284-0.213333 38.835119-0.870398 8.661315-0.554666 19.967959-0.691198c5.700255-0.196266 13.994638-0.776532 18.636761 0.708265l12.177042 3.891192c9.378114 2.995194 12.330641 13.457039 13.030373 22.306087 4.198391 12.851173-2.867194 31.419668-10.222912 41.48898-9.369581 2.261329-17.032498 4.471457-25.770614 5.930655L460.799044 726.938216l-20.676224-4.846923z m29.115673-32.708198l-1.203198-16.025567c-0.452266-5.990388-9.770646-8.806382-14.779703-9.429314l-14.472503-1.800529-63.223335-0.785065c-7.748251-0.093866-15.701301 3.549859-19.805826 9.762113l0.2048 14.242103c0.085333 6.084254 7.893317 14.054371 15.479434 13.994638l73.81318-0.563199c-1.911463 0.017067 24.507682-2.534395 23.995684-9.39518z" fill="#FCDF0E" /><path d="M469.25556 689.366028c0.511999 6.860786-25.907146 9.412247-23.995684 9.39518l-73.81318 0.563199c-7.586118 0.059733-15.385568-7.910384-15.479435-13.994638l-0.204799-14.242103c4.104525-6.212254 12.057575-9.864513 19.805825-9.762113l63.223336 0.785065 14.472503 1.800529c5.009056 0.622932 14.327437 3.438926 14.779703 9.429314l1.203197 16.025567z" fill="#FDEC72" /><path d="M464.767036 918.733018c-13.516772 4.258124-3.618126-1.54453-23.381285-1.809062-10.274112-0.136533-20.309291 0.477866-29.636205-0.819199l-24.285817-3.379193-12.851173-1.791996-13.081573-0.819198c-6.903452-19.592493-23.953017-0.810665-27.571143-32.622866-0.853332-7.492251 2.500261-13.900771 7.961584-17.800496 6.493853-4.650657 2.329595-17.928496 15.573301-18.047963l33.851663-0.307199h10.547178l61.20094 0.725332c3.566926 0.042667 9.898646 2.107729 13.994637 2.96106 6.596253 1.382397 12.475707 3.831459 18.380762 7.381318 11.033577 6.630386 12.89384 14.25917 14.233571 27.56261 0.452266 4.488524-3.609593 13.764238-6.69012 17.237297-3.677859 4.155725-15.684234 14.429837-17.544497 15.018636l-20.69329 6.519453z m-11.55411-30.984469c5.333322-0.708265 14.404237-1.237331 18.022363-5.922121 3.353593-4.334924 1.706663-13.849571 0.503465-18.756227-4.181325-2.449062-9.386647-6.220787-12.56104-6.76692l-12.68904-2.193062c-2.696528-0.469332-8.507716-2.329595-11.34931-2.312528l-67.293727 0.341332c-8.593049 0.042667-15.095435 13.363172-10.794645 20.676224 2.397862 4.070392 9.907179 11.733309 14.446904 11.980775l23.85915 1.297064 17.98823 1.348264 14.28477 1.331197c5.239456 0.486399 12.066108 0.759465 17.006898 0.1024l8.558916-1.134931z" fill="#FCDE1C" /><path d="M453.212926 887.748549l-8.558915 1.134931c-4.94079 0.657065-11.767442 0.383999-17.006898-0.102399l-14.284771-1.331198-17.988229-1.348264-23.859151-1.297064c-4.548257-0.247466-12.057575-7.910384-14.446903-11.980775-4.300791-7.313051 2.210129-20.633557 10.794644-20.676223l67.293727-0.341333c2.841594-0.017067 8.652782 1.851729 11.34931 2.312529l12.689041 2.193062c3.174393 0.546132 8.371183 4.326391 12.56104 6.766919 1.211731 4.906656 2.850127 14.421303-0.503466 18.756228-3.618126 4.676257-12.68904 5.213856-18.022362 5.922121z" fill="#FDE76B" /><path d="M472.762752 1.717321c-3.14026 2.346662 11.562643 2.397862 18.611162 5.324789 4.58239 1.902929 10.504512 5.589322 14.25917 5.077323l8.33705-1.126398-1.100798-3.054927 5.282122-2.483195 4.130125 0.657066-4.804257 3.549859c-1.109331 0.938665 1.553063 4.829857 3.14026 5.333322 8.567449 2.713594 6.451187-6.263454 16.486366-0.281599 6.681586 3.985058 17.774896-1.39093 24.686882-10.094912l-25.642613-0.742399V1.896521l14.020237-0.477866c4.309324-0.145066 10.222912 0.1024 13.704505 0.392533l2.833061 2.141862c0.554666 0.418132 2.414928-0.725332 3.106127-0.657065l3.959458 0.358399 3.797326 4.343458c-2.005329-0.571732-5.683188 1.459197-8.558916 3.430392 8.686915 4.881057 11.27251 6.007454 21.521022 10.367979 0.008533 0.1536-0.1024-1.151998-0.230399-2.602661l-2.815994-9.130648c2.116262 0.511999 4.63359 1.860263 6.30612 3.336526 0.418132 5.922121 10.513045 6.792519 15.641567 6.331721-0.733865 1.681063 1.433597 7.842117 3.677859 7.85065l44.98764 0.281599c2.082129 0.017067 6.502387 1.757863 8.908782 2.440529l0.0512 1.160531-23.748218-0.392533c-2.952527-0.0512-7.466651-0.802132-9.779179-0.435199l-14.523703 2.312528-9.011182 1.288531-12.467174 13.371706-9.429314 0.861865c-2.261329 0.2048-6.860786-3.06346-8.840515-3.908259-6.365853 2.466128-20.369024 0.733865-20.863956-7.193585-0.307199-4.94079-3.635192-14.48957-8.558916-14.907702l-19.217027-1.604264c-4.599457-0.383999-9.77918-1.911463-14.088504-2.150395l-13.738638-0.750932c-4.437324-0.247466-17.73223-6.775453-22.963152 2.355195-3.677859 6.417053-9.019715 12.091708-17.186098 13.201039-8.823448 1.194664-5.009056-8.831982-10.666645-14.173837-1.732263-1.638397-7.756784-1.894396-10.069312-1.134931l-14.574903 4.829857c-3.993592 1.322664-4.283724 11.366376-3.609593 15.470901l0.810665 5.009056c0.759465 4.693324-20.778624 1.288531-27.750342-4.744523l-15.871967-2.978127c-10.717844-2.013862-22.818086-4.036258-33.348198-2.978128-23.517818 2.363728-15.479435-2.406395-28.535407 9.75358-7.628784 7.108252-5.828255 16.401033-10.726378 16.921565l-21.555155 2.261329c-1.297064 0.136533-5.452789 1.279997-6.724253 1.297064l-23.364218 0.307199c-4.497057 0.059733-11.27251 2.227195-14.839436 4.309324l-9.454913 5.529589c-2.901327 1.69813-5.717321 7.859184-5.742922 12.108775-0.008533 2.056529 3.814392 6.220787 5.777055 6.775452l10.845844 3.054927 10.837311 3.174394c2.756261 0.810665 7.679984 2.807461 10.316778 2.824527l40.012717 0.366933c3.21706 0.0256 9.80478 1.245864 13.542372 1.894396l14.284771 2.474661c3.24266 0.563199 9.915713 3.822925 12.68904 4.804257 3.11466-2.764794 6.43412-5.768521 9.241581-7.594651 2.508795-1.629863 6.425587 8.746649 14.378637 12.834107 9.045315 4.642124 22.050088-1.433597 29.661805 2.150395 17.194631 8.089583 2.781861 2.850127 24.507682 5.179723l12.535441 1.348264 12.117308 1.305597 23.057019 1.407997c2.389328 0.145066 7.867717 1.612797 10.043712 1.578664l35.66926-0.580266c2.193062-0.034133 7.483718-1.297064 9.898646-1.553063l12.654907-1.339731c3.473059-0.366933 8.243183 0 12.953573 0.256 9.335447 0.511999 11.033577-4.198391 30.52367-3.123194l1.373864-2.065062c29.653272 0.119466 9.67678-4.58239 33.655397-3.933859l28.049008 0.759465c16.733832 0.452266 23.586084-1.962663 37.887921-7.406918 17.962629-6.843719 15.069835-8.601582 25.207415-8.652782l45.900705-0.230399c6.579186-0.034133 10.478912-4.002125 19.985025-6.220787 3.857059-0.895998 12.125842-2.338128 14.395703-6.203721 1.501864-2.559995 1.757863-10.257045 1.766397-13.081573l-4.642124-4.966389c-4.300791-4.599457-9.156248-7.551984-15.513568-8.00425l-8.516249-0.605866-15.590368-1.117864c-1.638397-0.119466-4.172791-0.059733-6.067187 0.017067l-25.83888 0.972798c-8.499182 0.315733-18.124762 3.686392-21.205289-2.05653-1.450664-2.705061-2.926927-5.614922-2.261329-6.929052s2.815994-3.046394 3.916792-3.618126c0.614399 3.933859 4.104525 9.463447 7.295985 12.398908l12.040508-6.766919 17.143432-10.086379-4.044792-6.220787c-0.699732-1.075198-0.810665-4.172791-0.401066-5.077323 3.464526 3.123194 8.226116 5.452789 13.260773 5.580788 18.926894 0.477866 36.368991 1.561597 53.691621 4.411724-0.469332 0.989865-4.189858 3.182927-5.990387 3.336527l-17.066631 1.450663c-1.655463 0.136533-4.334924 3.054927-4.317858 4.454391 0.093866 7.185052 13.917838 6.399987 22.562086 13.559439 1.322664 4.727457 2.175995 7.048519 4.599458 9.557313 7.355718 7.620251-5.862388 21.836755-17.433564 24.644216l-14.48957 3.507192c-5.273589 1.279997-13.260772 2.321062-19.080494 2.414929l-20.300758 0.324266c-5.546655 0.085333-11.187177 1.237331-17.186097 2.551461l3.225593 9.011181-12.680507 5.870922c-3.106127 1.44213-10.837311-0.972798-14.318904-0.870399-5.521055 0.1536-11.127444 0.810665-15.974367 0.452266-5.375989-0.392533-13.934904-2.346662-17.70663 0.1792l-12.236774 8.174916c-7.449585 0.597332-15.010102 3.601059-20.838357 7.560518-5.162656 3.498659-20.889557-4.215458-43.775909 0.298666l-13.422906 2.645328c-3.26826 0.639999-7.270385 3.379193-9.173314 6.340253l-13.883704-0.213333-21.845288-0.059733c-26.009546-0.068267-7.261852-2.858661-33.518864-3.959458l-19.140227-0.802132-14.899169-0.639999-15.701301 1.297064-43.272444-0.443732c-2.935461-0.034133-8.601582-1.587197-11.972241-1.501864-11.306643 0.281599-22.67302-1.501864-31.231936-8.627182-16.042633-13.363172-11.639443-1.484797-31.778067-11.110377l-17.646897-8.439449c-1.817596-2.645328-3.097594-4.514124-4.113058-5.785588-1.015465-1.271464-5.734388 0.895998-7.645851 1.629863-8.908782 3.39626-5.102923-5.290656-15.786633-0.230399-6.417053 3.03786-14.506637-1.681063-19.438893-7.773851l-15.931701-8.191983c2.713594 1.399464-11.724776-8.499182-10.077846-11.571176l2.389329-4.45439c1.783463-3.327993 5.794121-10.367978 9.028248-11.938109 4.386124-2.124796 11.340776-5.572255 15.547701-5.802655l29.252206-1.578663 14.421303-1.143464c4.522657-0.358399 10.035179-1.919996 12.586641-4.718924l9.847446-10.794644c10.632511-11.656509 7.92745-8.362649 26.760478-11.09331 8.396783-1.211731 15.991433-1.041065 24.14075-0.315733l23.091152 2.056529c6.084254 0.537599 10.308245 0.682665 17.314097 0.128-4.539724-7.594651-7.82505-9.62558-12.987706-12.757307h8.413849c2.926927-2.005329 7.679984-7.304518 9.412247-10.265579 0.392533-0.665599 1.237331-1.757863 1.954129-2.030929-0.264533-0.170666 1.44213 2.884261 2.013863 2.679461l7.935983-2.850127 14.779703-5.256523c1.484797 1.74933 0.503466 0.588799-0.409599-0.477865 11.801576-1.834663 25.087948-2.995194 37.094323-0.145067zM590.761441 37.864446c1.919996-0.776532 3.481593-5.367456 2.952527-7.372784-0.529066-2.005329-6.374387-3.839992-8.140783-2.756261-1.894396 1.169064-5.469855 5.751455-5.828255 7.790917-0.281599 1.638397 3.703459 5.307722 5.247989 4.68479l5.759989-2.346662z m172.688708 4.437324l-5.401589-0.435199c2.730661 3.822925 5.785588 6.058654 5.401589 0.435199z" fill="#FCEA5C" /><path d="M389.289859 17.572222c-0.162133 0.093866-2.065062 1.49333-1.57013 1.612796l3.831459 0.887465c5.171189 3.131727 8.456516 5.154123 12.987706 12.757307-7.005852 0.554666-11.229843 0.418132-17.314097-0.128l-23.091153-2.056529c-8.149316-0.725332-15.743967-0.904531-24.140749 0.315733-18.833028 2.722128-16.127967-0.563199-26.760478 11.09331l-9.847447 10.794644c-2.551461 2.798928-8.063983 4.360524-12.58664 4.718924l-14.421303 1.143464-29.252206 1.578664c-4.206925 0.2304-11.161577 3.669326-15.547702 5.802654-3.234127 1.57013-7.244785 8.610115-9.028247 11.938109l-2.389329 4.454391c-1.64693 3.071994 12.79144 12.962106 10.077846 11.571176l15.9317 8.191983c4.932256 6.084254 13.02184 10.811711 19.438893 7.77385 10.683711-5.060256 6.877852 3.626659 15.786634 0.2304 1.911463-0.725332 6.630386-2.892794 7.645851-1.629864 1.015465 1.271464 2.295462 3.14026 4.113058 5.785588l17.646897 8.43945c20.138625 9.62558 15.735434-2.244262 31.778067 11.110377 8.550382 7.125319 19.925292 8.908782 31.231935 8.627182 3.37066-0.085333 9.036781 1.476264 11.972242 1.501863l43.272444 0.443733 15.7013-1.297064 14.89917 0.639998 19.140226 0.802132c26.257012 1.100798 7.509318 3.891192 33.518864 3.959458l21.845288 0.059734 13.883705 0.213332 11.758909 0.059734 26.257012-0.750932c4.804257-0.136533 12.526907-2.602661 16.998365-2.457595 5.060256 0.170666 11.47731 1.382397 15.103968 0.059733 19.626626-7.142385 3.788792-0.085333 24.661282-3.524259 6.809586-1.117864 13.04744-2.329595 19.182894-2.807461l7.551984-0.588799c15.351435-1.194664 6.673053-10.274112 25.045282-10.231445l-1.937063 3.686392c-0.580265 0.008533-1.476264 0.017067-1.979729 0.085333-10.786111 1.44213-4.241058 8.661315-23.739684 10.837311l-17.689564 1.971196c-2.636795 0.298666-8.610115 3.916792-10.137579 4.91519 0.093866 3.839992 0.042667 11.545576-2.551461 12.68904-10.922644 4.846923-4.036258-1.638397-22.62182 4.198392-3.763192 1.177598-28.270875 0.383999-34.92686 0.162133l-25.241548-0.853332-5.418656-3.225593 2.730661-9.301314c-4.172791-0.657065-7.381318-1.279997-11.212776-1.288531l-44.518308-0.128c-10.103446-0.0256 3.959458-5.179723-32.750865-2.88426-1.928529 0.119466-6.015988-0.580265-7.807984-0.605866l-43.62231-0.657065-9.898646-1.177598-19.481559-0.878931-6.681586-1.322664-20.710357-0.733865c-1.877329-0.068267-6.365853-1.484797-7.620251-1.766397-3.353593-3.763192-19.089027-15.402635-27.707676-6.818119l-22.54502 1.809063c-9.105048 0.733865-17.663963 1.049598-26.530078 0.256-24.328483-2.184529-11.997842 1.194664-33.71513-3.413327l-14.207971-3.01226-14.216504-4.625057c-7.176518-2.338128-13.909304-4.565324-20.966356-7.244785-4.932256-1.868796-10.743444-2.952527-14.651703-1.220264l-4.223991 5.119989c2.764794-10.879977-6.681586-23.466618-3.387727-32.930065 7.321585-20.97489 28.620741-34.764728 48.631366-40.780715 15.274635-4.590924 31.163669-6.53652 47.556168-7.876251 18.269829-1.49333 13.439972 1.77493 25.139148-12.927973 4.676257-5.870921 19.882625-11.852775 22.323154-12.245308l24.396749-3.916792c10.623978-1.706663 23.739684-1.501864 34.133263 0.324266l16.930098 2.969594c1.527463 0.264533 4.58239 1.322664 5.555188 1.715197z m226.875262 145.85143c-3.507193-8.00425-19.310893-5.375989-17.288497-1.911462 0.469332 0.810665 2.150396 2.918394 2.892794 3.199993l14.395703-1.288531z" fill="#FCE739" /><path d="M852.452631 116.080817c-3.24266-1.834663-5.947721-4.130125-9.617047-7.620251-0.307199-0.145066-6.399987-1.322664-8.00425-0.511999l-17.587163 8.900249-10.990911 2.636794-16.349832 3.925325c-2.833061 0.682665-6.980252 1.399464-10.026646 1.706664l-23.953017 2.380795c-6.43412 0.639999-13.235173 1.279997-19.686359 1.26293l-41.634047-0.1024c-18.372229-0.042667-9.693847 9.036781-25.045282 10.231446l-7.551984 0.588799c-6.135454 0.477866-12.373308 1.689596-19.182894 2.807461-20.87249 3.438926-5.04319-3.618126-24.661282 3.524259-3.626659 1.322664-10.043712 0.110933-15.103968-0.059733-4.471457-0.1536-12.202641 2.321062-16.998365 2.457595l-26.257012 0.750931-11.758909-0.059733c1.902929-2.961061 5.905054-5.691722 9.173314-6.340253l13.422906-2.645328c22.886353-4.505591 38.621787 3.208527 43.775909-0.298666 5.828255-3.950925 13.388772-6.963186 20.838357-7.560518l12.236774-8.174916c3.780259-2.525861 12.339174-0.571732 17.70663-0.1792 4.846923 0.349866 10.461845-0.298666 15.974367-0.452266 3.481593-0.093866 11.212777 2.312529 14.318904 0.870399l12.680507-5.870922-3.225594-9.011181c5.998921-1.314131 11.639443-2.466128 17.186098-2.551461l20.300758-0.324266c5.819721-0.093866 13.806905-1.134931 19.080494-2.414929l14.489569-3.507192c11.571176-2.807461 24.789282-17.023965 17.433564-24.644216-2.423462-2.508795-3.276793-4.829857-4.599457-9.557313-8.652782-7.167985-22.46822-6.374387-22.562086-13.559439-0.017067-1.399464 2.662394-4.317858 4.317857-4.454391l17.066632-1.450663c1.80053-0.1536 5.521055-2.346662 5.990387-3.336527 7.82505 1.288531 24.840482 9.736513 33.680997 15.359968 36.053259 22.937552 12.313574 36.147125 21.862355 51.891093l3.276793 5.401589zM726.688625 33.444189c-0.401066 0.895998-0.298666 3.993592 0.401066 5.077323l4.044792 6.220787-17.143431 10.086379-12.040509 6.766919c-3.199993-2.926927-6.681586-8.465049-7.295984-12.398908-1.203198-7.671451-0.981331-7.995717-11.639443-12.501307-4.99199-2.107729-11.357843-5.162656-15.9573-5.239456l-0.0512-1.160531c-2.406395-0.682665-6.826653-2.423462-8.908782-2.440528l-44.98764-0.281599c-2.244262-0.017067-4.420257-6.169587-3.677859-7.850651l10.726378-0.964264c-0.085333-2.090662-0.571732-3.148793 0.264533-3.507193l4.58239-1.971196c2.850127-0.093866 5.802655-0.460799 2.662395-1.663997 20.676224-4.104525 87.406752-2.867194 99.012061 21.828222zM577.577468 7.997842l6.220787 2.739194 1.612797-2.056529c0.477866 0.401066 1.49333 1.015465 2.082129 1.382397l2.815994 9.130648c0.128 1.450664 0.247466 2.756261 0.2304 2.602661-10.248512-4.360524-12.834107-5.495455-21.521022-10.367979 2.875727-1.971196 6.553586-4.002125 8.558915-3.430392z" fill="#FCE63E" /><path d="M627.668031 11.615967c3.148793 1.203198 0.196266 1.57013-2.662395 1.663997l-4.58239 1.971196c-0.836265 0.358399-0.341333 1.41653-0.264533 3.507193l-10.726378 0.964264c-5.128523 0.460799-15.223435-0.409599-15.641567-6.33172 17.083698 6.425587 10.700778 3.763192 26.359412-0.605865 2.082129-0.580265 5.785588-0.827732 7.517851-1.169065zM512.869336 7.938108l1.100798 3.054927-8.33705 1.126398c-3.754659 0.511999-9.67678-3.174393-14.25917-5.077323-7.048519-2.926927-21.751422-2.978127-18.611162-5.324789l9.898646 0.776532c2.594128 0.2048 8.456516 1.348264 10.803178 2.449062l8.516249 4.010658c2.534395 1.194664 8.217583 0.247466 10.888511-1.006931zM409.385817 9.798371c-1.732263 2.961061-6.48532 8.26025-9.412247 10.257046h-8.413849l-3.831459-0.878932c-0.503466-0.119466 1.407997-1.51893 1.57013-1.612797 15.581834 0.605865 10.641045-5.205323 20.095959-7.765317zM585.402519 8.680507l-1.612797 2.056529-6.220787-2.739194-3.797326-4.343458c3.549859 0.324266 9.130648 2.926927 11.622376 5.026123z" fill="#FCE96E" /><path d="M817.244171 116.857349c-2.099196 3.42186-6.732786 4.898123-11.571176 5.862388l-13.721572 2.747727-26.530078 5.802655c-2.278395 0.494932-7.330118 0.418132-10.001046 0.563199-15.044235 0.819198-29.610605 1.049598-44.774307 0.281599-3.182927-0.162133-8.482116-1.339731-11.06771-0.913064l-6.894919 1.134931 1.937062-3.686393 41.634047 0.1024c6.451187 0.017067 13.260772-0.622932 19.686359-1.262931l23.953017-2.380795c3.054927-0.307199 7.193585-1.023998 10.026646-1.706663l16.349833-3.925325 10.990911-2.636795z" fill="#FDE20E" /><path d="M774.21066 94.781661c-9.506114 2.218662-13.405839 6.186654-19.985025 6.220788l-45.900705 0.230399c-10.137579 0.0512-7.244785 1.809063-25.207414 8.652782-14.293304 5.444255-21.145556 7.867717-37.887922 7.406918l-28.049008-0.759465c-23.978617-0.648532-3.993592 4.044792-33.655397 3.933858l-15.692767-0.059733 1.800529-1.945596c16.017033-4.241058 10.572778 1.54453 26.316746-3.071993l18.611161-5.461322c12.339174-3.626659 33.322598-10.658111 29.815405-25.378081-2.517328-10.564245-9.796246-13.218106-18.713561-16.494899L609.969934 62.295329c-3.643726-1.339731-8.558916-3.157327-12.074641-3.515726l-26.035146-2.670928c-3.481593-0.358399-10.026646-2.517328-13.721572-2.577061l-26.811678-0.452266c-18.867161-0.315733-4.181325-5.802655-42.436178-3.285327-2.935461 0.196266-9.250114 3.473059-12.031975 3.490127l-41.890047 0.204799c0.290133-0.887465 2.628261-3.310926 3.950926-3.310926h8.396782c30.39567 0.0256 24.644216-10.538645 35.029261-10.709311 30.57487-0.477866 29.806871 7.159452 42.035113-1.97973l13.090106 0.170667c1.740796 1.59573 5.631988 5.879454 7.534917 6.818119 3.583993 1.766396 29.388739 8.439449 25.881547 8.149316 8.900248 0.733865 23.398351 0.964265 34.850061 1.245864 9.190381 0.221866-0.443732-13.764238 15.428234-16.358366 10.265579-1.681063 13.585038-5.708788 21.956222-2.039462 20.829823 9.139181 21.07729-3.473059 29.004739 14.609036l7.816517-3.848525c1.262931-0.622932 5.538122-1.331197 5.324789 0.059733l-0.759465 4.949323c-0.904531 5.845321-1.177598 10.504512-1.245864 17.442097 13.576505 1.279997 9.62558-1.203198 27.127411-3.438926l10.444778-1.331197c8.371183-1.066664 18.312495-0.725332 26.845811 0.034133l12.407441 1.100798c6.35732 0.563199 12.245308 1.407997 17.937029 3.908258 3.746126 1.638397 8.533316 9.941313 7.500785 14.097038-1.510397 6.067187-11.494376 8.05545-11.315177 11.750375z" fill="#FDEA88" /><path d="M429.336709 53.67668c-1.322664 1.928529-4.488524 3.106127-7.662917 3.737592l-14.071438 2.790395-12.211174 2.559994c-4.94079 1.032531-9.873046 2.747728-14.51517 4.932257l-13.789838 6.48532c-5.452789 2.559995-13.081573 14.856503-7.295985 20.215424 13.397306 12.415974 20.829823 16.870365 37.358856 19.63516l25.915679 4.334924 12.253841 2.414928c2.065062 0.409599 6.33172 1.46773 8.038384 1.51893l26.931144 0.921598 10.410645 1.604264 36.88099-0.315733c1.373864-0.008533 5.674655-1.365331 6.946119-1.433597l29.661805-1.535997c4.616524-0.238933 10.009579-1.151998 13.653305-1.134931l15.692768 0.059733-1.373864 2.065063c-19.498626-1.075198-21.188223 3.635192-30.52367 3.123193-4.71039-0.255999-9.480514-0.631465-12.953573-0.255999l-12.654908 1.33973c-2.414928 0.255999-7.705584 1.51893-9.898646 1.553064l-35.669259 0.580265c-2.175995 0.034133-7.654384-1.433597-10.043712-1.578663l-23.057019-1.407997-12.117308-1.305597-12.535441-1.348264c-21.717288-2.329595-7.304518 2.909861-24.507683-5.179723-7.611718-3.583993-20.616491 2.491728-29.661805-2.150395-7.95305-4.087458-11.869842-14.46397-14.378637-12.834107-2.807461 1.82613-6.135454 4.829857-9.24158 7.594651-2.773328-0.981331-9.454914-4.241058-12.689041-4.804257l-14.28477-2.474661c-3.737592-0.648532-10.333845-1.868796-13.542372-1.894396l-40.012717-0.366933c-2.636795-0.0256-7.551984-2.022396-10.316779-2.824528l-10.83731-3.174393-5.273589-3.481593c-4.070392-2.696528-7.176518-7.116785-7.193586-11.357843 0-1.553063 2.756261-3.549859 4.266658-4.369057l12.057575-6.502387c2.585595-1.399464 8.601582-3.711992 11.699176-3.865592l19.848492-0.964265c7.739717-0.375466 14.344504-0.904531 22.212221-0.264532 1.911463 0.1536 26.188746 2.824527 25.267147-2.389329-1.450664-8.285849-7.185052-13.431439-3.746125-15.940233l10.717844-7.807984c6.630386-0.861865 16.324233-3.899725 21.512489-3.11466l20.84689 3.16586c10.154646 10.504512 40.02125 14.148237 53.862288 15.462368z" fill="#FDEA85" /><path d="M667.057816 31.455926c4.599457 0.0768 10.965311 3.131727 15.9573 5.239456 10.658111 4.505591 10.436245 4.829857 11.639443 12.501307-1.100798 0.571732-3.259727 2.303995-3.916792 3.618126s0.810665 4.223991 2.261328 6.929052c3.080527 5.742921 12.71464 2.372262 21.20529 2.05653l25.838879-0.972798c1.894396-0.068267 4.437324-0.128 6.067188-0.017067l15.590367 1.117864 8.516249 0.605866c6.35732 0.452266 11.212777 3.404793 15.513568 8.00425l4.642124 4.966389c-0.008533 2.824527-0.264533 10.521578-1.766396 13.081573-2.278395 3.865592-10.538645 5.307722-14.395704 6.203721-0.1792-3.694926 9.80478-5.683188 11.315177-11.750376 1.032531-4.155725-3.754659-12.450107-7.500785-14.097037-5.691722-2.491728-11.579709-3.34506-17.937029-3.908259l-12.407441-1.100798c-8.533316-0.750932-18.474628-1.100798-26.845811-0.034133l-10.444778 1.331197c-17.50183 2.235729-13.559439 4.718924-27.127411 3.438927 0.0768-6.937586 0.349866-11.596776 1.245864-17.442097l0.759465-4.949324c0.213333-1.39093-4.070392-0.682665-5.324789-0.059733l-7.816517 3.848526c-7.92745-18.082096-8.174916-5.469855-29.004739-14.609037-8.371183-3.677859-11.690642 0.349866-21.956222 2.039463-15.863434 2.602661-6.237854 16.588766-15.428234 16.358366-11.45171-0.281599-25.949813-0.511999-34.850061-1.245864 3.507193 0.290133-22.297554-6.38292-25.881547-8.149317-1.902929-0.938665-5.802655-5.222389-7.534917-6.818119l-13.090106-0.170666c-12.228241 9.139181-11.468776 1.49333-42.035113 1.979729-10.385045 0.162133-4.63359 10.726378-35.029261 10.709311h-8.396782c-1.322664 0-3.660792 2.414928-3.950926 3.302393l-5.623455 0.2048c-13.841038-1.314131-43.707643-4.949323-53.862288-15.462368l-20.84689-3.16586c-5.188256-0.785065-14.882102 2.252795-21.512489 3.11466l-10.717844 7.807984c-3.44746 2.508795 2.286929 7.645851 3.746126 15.940233 0.913065 5.205323-23.355685 2.542928-25.267148 2.389329-7.859184-0.639999-14.46397-0.110933-22.212221 0.264533l-19.848492 0.964264c-3.097594 0.1536-9.113581 2.466128-11.699175 3.865592l-12.057575 6.502387c-1.51893 0.819198-4.275191 2.815994-4.266658 4.369057 0.017067 4.241058 3.11466 8.669849 7.193585 11.357843l5.273589 3.481593-10.845844-3.054927c-1.971196-0.554666-5.794121-4.718924-5.777055-6.775452 0.0256-4.249591 2.841594-10.410645 5.742921-12.108775l9.454914-5.529589c3.566926-2.082129 10.350912-4.249591 14.839436-4.309324l23.364218-0.3072c1.271464-0.017067 5.427189-1.160531 6.724253-1.297064l21.555155-2.261328c4.898123-0.511999 3.097594-9.813313 10.726378-16.921565 13.055973-12.151441 5.01759-7.389851 28.535407-9.75358 10.530111-1.058131 22.62182 0.964265 33.348198 2.978127l15.871967 2.978127c6.971719 6.041587 28.509808 9.437847 27.750342 4.744524l-0.810665-5.009056c-0.665599-4.104525-0.383999-14.148237 3.609593-15.470902l14.574903-4.829856c2.303995-0.767998 8.328516-0.503466 10.069312 1.134931 5.657588 5.341856 1.834663 15.368501 10.666645 14.173837 8.166383-1.109331 13.508239-6.775453 17.186098-13.201039 5.239456-9.139181 18.525828-2.602661 22.963152-2.355195l13.738638 0.750931c4.309324 0.238933 9.489047 1.766396 14.088504 2.150396l19.217027 1.604263c4.932256 0.409599 8.251716 9.966913 8.558916 14.907703 0.494932 7.92745 14.498103 9.65118 20.863956 7.193585 1.979729 0.853332 6.579186 4.113058 8.840515 3.908258l9.429314-0.861865 12.467174-13.371705 9.011182-1.288531 14.523703-2.312528c2.312529-0.366933 6.826653 0.383999 9.779179 0.435199l23.748218 0.392532z" fill="#FCE96E" /><path d="M536.148221 3.87625l25.642613 0.742399c-6.903452 8.703982-18.005296 14.071437-24.686882 10.094912-10.035179-5.981854-7.918917 3.003727-16.486366 0.281599-1.587197-0.503466-4.249591-4.394658-3.14026-5.333322l4.804257-3.549859c5.009056-1.459197 9.907179-2.346662 13.866638-2.227196z" fill="#FCE63E" /><path d="M590.761441 37.864446l-5.759988 2.346662c-1.54453 0.631465-5.538122-3.03786-5.247989-4.68479 0.349866-2.030929 3.933859-6.621853 5.828254-7.790917 1.766396-1.092264 7.611718 0.750932 8.140783 2.756261 0.529066 2.005329-1.041065 6.58772-2.952527 7.372784z" fill="#FCE96E" /><path d="M690.686567 132.43065c-1.843196 2.414928-5.367456 6.314654-7.782384 7.85065l-3.874125 2.466129c-3.694926 2.355195 10.001046 5.922121 15.078368 29.576472l2.943994 13.721571c1.553063 7.253318 2.303995 14.51517-0.017066 21.998888-5.734388 18.449028-19.04636 26.299679-37.08579 28.475674l-10.939711 1.314131c-3.208527 0.383999-7.372785 0.947198-10.043712 1.032531l-39.142319 1.305597-28.134342 1.203198c-14.933302 0.639999-24.200483-0.708265-34.158862-11.050644-6.596253-6.843719-9.83038-14.899169-9.267181-24.328483l0.964265-16.170633c0.196266-3.251193-1.092264-9.52318-1.220264-13.542372-0.238933-7.910384 1.305597-20.753024-3.959459-21.02609l-18.295428-0.964264c-2.577061 18.875694 6.20372 1.245864 6.621852 43.716176 0.145066 14.66877-4.403191 22.357287-15.633034 32.648465-7.867717 7.210652-27.161544 9.70238-37.606322 9.420781l-16.247433-0.435199-13.934904-1.314131-25.514614-1.331197-17.945563-1.143465c-6.348787-0.401066-12.356241-1.44213-18.628228-2.969593-12.629307-3.071994-15.761034-4.923723-25.591413-14.66877-15.436768-15.291702-9.019715-44.253775 6.766919-59.52841l3.908259-3.780259c2.525861-2.440528-4.531191-11.844242-5.154123-12.552507 1.262931 0.281599 5.742921 1.69813 7.620251 1.766396l20.710357 0.733866 6.681586 1.322663 19.48156 0.878932 9.898646 1.177598 43.622309 0.657065c1.791996 0.0256 5.879454 0.725332 7.807984 0.605865 36.710324-2.295462 22.64742 2.850127 32.750865 2.884261l44.518308 0.128c3.831459 0.008533 7.039985 0.631465 11.212777 1.28853l-2.730661 9.301314 5.418655 3.225594 25.241548 0.853331c6.655986 0.221866 31.163669 1.023998 34.926861-0.162133 18.594095-5.828255 11.699176 0.648532 22.621819-4.198391 2.594128-1.151998 2.645328-8.849048 2.551462-12.68904 1.535997-0.998398 7.500784-4.616524 10.137579-4.91519l17.689563-1.971196c19.498626-2.175995 12.94504-9.386647 23.739684-10.837311z m-245.418158 59.29801l11.059177-7.970116c2.406395-10.350912-1.851729-20.258091-11.494376-25.215948l-30.57487-0.358399-7.142385-1.689597h-28.936473c-4.189858 11.613843-2.841594 19.583959 5.435722 25.668213 3.874125 2.850127 9.70238 7.287452 13.508239 7.782384 22.920486 2.935461 24.874615 2.423462 48.136433 1.783463z" fill="#FDE20E" /><path d="M616.165121 163.423652l-14.395703 1.288531c-0.750932-0.273066-2.423462-2.389328-2.892794-3.199993-2.022396-3.464526 13.781305-6.092787 17.288497 1.911462zM763.450149 42.30177c0.392533 5.623455-2.670928 3.39626-5.401589-0.435199l5.401589 0.435199z" fill="#FCE63E" /><path d="M445.268409 191.72866c-23.261818 0.631465-25.215948 1.151998-48.136433-1.783463-3.805859-0.486399-9.642647-4.932256-13.508239-7.782384-8.277316-6.084254-9.62558-14.045838-5.435722-25.65968h28.936474l7.142385 1.689597 30.57487 0.358399c9.642647 4.949323 13.892238 14.865036 11.494376 25.215948l-11.059177 7.970117z" fill="#FCEC78" /><path d="M567.840955 120.398675c-3.643726-0.017067-9.036781 0.895998-13.653305 1.134931l-29.661805 1.535997c-1.271464 0.068267-5.572255 1.425064-6.946119 1.433597l-36.88099 0.315732-10.410645-1.604263-26.931144-0.921598c-1.706663-0.059733-5.973321-1.117864-8.038384-1.51893l-12.253841-2.414928-25.915679-4.334925c-16.529032-2.764794-23.96155-7.219185-37.358856-19.635159-5.785588-5.358922 1.843196-17.65543 7.295985-20.215425l13.789838-6.48532c4.642124-2.184529 9.57438-3.899725 14.51517-4.932256l12.211174-2.559995 14.071438-2.790394c3.182927-0.631465 6.340254-1.809063 7.662917-3.737592l5.623455-0.2048 41.890047-0.204799c2.781861-0.017067 9.105048-3.29386 12.031975-3.490126 38.263387-2.508795 23.569018 2.969594 42.436178 3.285326l26.811678 0.452266c3.694926 0.059733 10.239979 2.218662 13.721571 2.577061l26.035146 2.670928c3.524259 0.358399 8.430916 2.175995 12.074642 3.515726l15.692767 5.759988c8.917315 3.276793 16.196233 5.939188 18.713562 16.494899 3.507193 14.719969-17.47623 21.751422-29.815405 25.378081l-18.611162 5.461322c-15.743967 4.625057-10.291179-1.160531-26.316745 3.071993l-1.80053 1.945596z" fill="#FDEDB4" /><path d="M436.052429 339.576887l-18.636762-1.629863c-6.050121-0.529066-16.051167-2.005329-18.039429 6.02452l-1.143464 4.616524c-0.196266 0.802132-3.020794-0.085333-4.283725-0.452266 0.375466-1.996796 0.989865-6.766919-0.128-8.422382-3.01226-4.479991-14.779703-5.930654-19.455959-0.733865-11.861309-18.585561-11.921042-2.534395-30.856469-21.572222-7.637317-7.679984-13.311972-16.435166-10.649578-27.818609 1.476264-6.314654 4.454391-15.530634 9.710913-18.952494l11.588242-7.534918c3.592526-2.329595 26.419145-7.432518 27.775943-7.432518l55.432418-0.085333c3.31946 0 9.932779 2.022396 13.499705 2.491728 22.681553 3.01226 15.803701 0.093866 36.164192 2.867194 6.673053 0.904531 16.887432 3.080527 21.256489 8.26025 4.087458 4.846923 8.652782 11.502909 11.187177 16.622899 1.919996 3.874125 1.54453 14.557836-0.366932 18.457561-9.011181 18.338095-18.636761 21.444222-32.639933 28.066076l-10.658111 5.043189c-2.781861 1.314131-10.052246 1.877329-13.107173 1.715196l-14.028771-0.759465c-3.19146-0.170666-8.226116 0.580265-12.620773 1.228798z m41.497513-19.50716l12.287975 4.684791 10.555711-8.00425c10.905577-8.268783 10.973844-5.887988 10.154646-29.252206-0.034133-0.947198-4.81279-14.506637-12.962106-16.998365-5.452789-1.663997-11.997842-4.343458-16.324233-4.68479l-23.748218-1.860263c-4.437324-0.349866-9.762113-1.54453-13.986104-1.655463l-13.115706-0.349866-34.807395-0.571733c-9.284247 5.606388-23.714084 0.196266-30.660203 2.815995l-10.683711 4.036258c-4.437324 1.67253-9.301314 7.065585-11.596776 11.366376l-4.462924 8.345583c-3.234127 6.050121-1.783463 12.475707 2.440529 17.766363 1.877329 3.831459 4.83839 8.362649 7.935983 10.410645l12.151441 8.038384c1.348264 0.895998 5.375989 2.116262 6.963186 2.380795l14.079971 2.329595 54.749753-0.034134c19.780226-12.74024 21.922088 7.90185 41.019648-8.763715z" fill="#FDE20E" /><path d="M477.549942 320.069727c-19.09756 16.657032-21.239423-3.976525-41.019648 8.763715l-54.749753 0.034134-14.079971-2.329595c-1.587197-0.264533-5.614922-1.484797-6.963185-2.380795l-12.151442-8.038384c-3.097594-2.047996-6.058654-6.579186-7.935983-10.410645-4.223991-5.290656-5.674655-11.716242-2.440528-17.766363l4.462924-8.345583c2.295462-4.300791 7.159452-9.685313 11.596776-11.366376l10.683711-4.036258c6.946119-2.619728 21.367422 2.790394 30.660203-2.815995l34.807394 0.571733 13.115706 0.349866c4.223991 0.110933 9.54878 1.305597 13.986105 1.655463l23.748217 1.860263c4.334924 0.341333 10.879977 3.01226 16.324233 4.68479 8.149316 2.491728 12.927973 16.051167 12.962106 16.998365 0.819198 23.364218 0.750932 20.983423-10.154645 29.252206l-10.555712 8.00425-12.287974-4.684791z m2.491729-21.811154c1.433597-2.901327 0.733865-11.04211-1.288531-13.602106-3.814392-4.821323-17.851696-8.951448-25.58288-9.54878l-16.273033-1.254397-25.258614-1.365331-13.644772-0.699731c-21.290622-1.092264-16.0853-2.175995-35.157261 5.094389-0.742398 3.404793-1.237331 9.514647-0.861864 14.882102 0.494932 7.005852 14.600503 14.677303 21.265022 15.052769l32.085267 1.82613c7.688517 0.435199 15.897567 0.145066 23.406885-0.3328l15.812233-0.998398c5.324789-0.341333 19.763159 2.525861 25.497548-9.053847z" fill="#FCE62C" /><path d="M480.041671 298.258573c-5.734388 11.579709-20.172758 8.712515-25.497548 9.053847l-15.812233 0.998398c-7.509318 0.477866-15.718367 0.767998-23.406885 0.3328l-32.085267-1.82613c-6.66452-0.375466-20.77009-8.05545-21.265022-15.052769-0.375466-5.358922 0.119466-11.468776 0.861864-14.882102 19.07196-7.270385 13.866638-6.195187 35.157261-5.094389l13.644772 0.699731 25.258614 1.365331 16.273033 1.254397c7.731184 0.597332 21.768488 4.727457 25.58288 9.54878 2.022396 2.551461 2.722128 10.700778 1.288531 13.602106z" fill="#FDEE6D" /></svg>