<?xml version="1.0" standalone="no"?><!DOCTYPE svg PUBLIC "-//W3C//DTD SVG 1.1//EN" "http://www.w3.org/Graphics/SVG/1.1/DTD/svg11.dtd"><svg class="icon" width="256px" height="256.00px" viewBox="0 0 1024 1024" version="1.1" xmlns="http://www.w3.org/2000/svg"><path d="M1014.580173 466.184533c-0.708267-0.597333-1.954133-1.681067-2.397867-2.491733l2.397867 2.491733z" fill="#F7AC31" /><path d="M421.573239 256.315733l4.002134 6.203734 7.662933 11.886933c3.438933-1.8432 4.8384-2.645333 5.9392-3.157333l-3.5328 4.215466c-6.016 7.176533 7.517867 17.4848 12.066133 19.7888 17.646933 8.942933 38.698667 19.9424 56.567467 13.653334 1.834667-0.648533 5.879467-3.882667 5.4784-5.649067l-1.3056-5.6832 4.027733 6.715733 0.597334-9.9072c0.187733-3.0464 3.7632-7.099733 6.920533-7.492266l6.877867 3.0208c8.968533-3.1744 18.542933-7.415467 28.100266-8.925867 20.795733-3.285333 42.478933 2.8928 56.746667 16.4096l-8.576 7.168c-17.877333 14.933333-18.0736 22.698667-32.810667 22.280533l-25.181866-0.7168-3.669334-6.775466c-0.733867-5.794133-7.970133-20.1728-14.139733-23.0912-1.314133 9.6512-2.065067 17.5104-4.795733 23.637333-5.410133 12.1344-36.3776 27.323733-48.9472 31.906133-13.277867 4.846933-31.522133 2.824533-45.9008 0.6144-17.220267-2.653867-33.9456-9.975467-47.214934-20.590933l-11.255466-9.002667 0.981333 8.8064c0.597333 5.367467 1.536 16.392533-1.058133 21.137067-10.999467 20.104533-40.328533 33.3312-59.818667 38.980267-11.989333 3.473067-25.514667 5.1712-38.7328 3.754666-19.498667-2.0992-30.0544-8.9344-43.997867-21.461333-2.346667-2.107733-4.309333-5.888-4.949333-8.567467 3.370667-28.330667 25.514667-50.432 51.054933-61.354666l-6.946133 6.784c1.92 5.4528 6.3232 25.386667 15.854933 23.7824 13.243733 4.181333 29.141333 8.3968 45.312 4.462933 18.6368 0.042667 3.694933-12.9792 21.2224-25.813333l-3.694933-5.060267 18.670933 10.632533 3.8144-12.270933c8.029867-25.847467 31.3088-42.274133 54.621867-50.321067z" fill="#FBD46E" /><path d="M734.354039 625.211733c7.389867 1.015467 16.4096 2.961067 23.765334 4.778667 4.4544 1.109333 6.971733 2.577067 14.728533 0.256 0.554667 0 3.8144 7.185067 5.700267 9.088 8.413867 8.4736 23.1168 19.3792 27.127466 32.477867 4.3008 14.062933-6.9888 23.458133-1.92 27.5968 0.657067 0.5376 3.9168 0.2816 4.411734-0.4096l5.563733-7.825067c1.493333-2.0992 5.742933-5.2736 8.106667-6.528 2.389333 10.8032 0.290133 25.250133-4.061867 35.950933-8.226133 20.232533-24.584533 35.2512-44.544 43.025067-14.583467 5.674667-29.841067 9.3696-45.602133 8.712533-26.5216-1.109333-46.3616-4.565333-68.215467-19.456-8.260267-5.632-12.919467-16.401067-15.3344-26.077866-6.7328-26.9056-3.114667-34.5856 6.724267-57.216l1.774933-4.138667c20.036267-23.458133 51.089067-39.210667 81.7664-40.2432z m11.349334 24.584534c-10.8032-16.392533-27.528533-11.579733-42.402134-5.051734-7.313067 3.208533-16.4608 8.439467-19.037866 16.017067-1.015467 2.9952 2.884267 9.8048 5.6064 10.990933 12.356267 5.393067 47.394133-5.751467 55.8336-21.956266z" fill="#FEDE86" /><path d="M729.950839 481.032533l-19.396266 16.290134c-4.522667 3.797333-8.789333 9.745067-11.1616 14.498133l-4.625067 5.205333c-1.169067 1.314133-4.829867 0.554667-7.1936-0.110933-4.6592-1.3056-40.951467-11.144533-39.133867-5.085867-10.146133-2.5088-25.9328 3.694933-35.131733 8.260267-13.405867 6.656-23.799467 15.035733-34.030933 25.181867-5.751467 5.700267-9.685333 12.757333-13.457067 18.986666-3.447467 5.691733-6.0672 11.101867-8.3456 18.397867l-20.599467-2.141867c-64.725333-6.715733-103.748267 52.241067-87.850666 74.094934 5.674667 7.799467 11.8016 14.813867 20.078933 19.234133 16.520533 8.823467 33.885867 15.684267 52.701867 17.1776 30.754133 2.440533 64.469333-9.557333 78.6432-36.693333l9.002666-2.568534c1.518933-0.4352 5.3504 4.1984 5.870934 5.674667 5.538133 15.684267 1.2032 16.034133 4.932266 16.392533-1.655467 11.153067-8.977067 24.0896-18.013866 31.965867-28.151467 24.5248-64.546133 26.9568-99.2256 17.9456-32.708267-8.490667-57.3696-29.576533-62.242134-64.861867-8.251733 2.5856-17.339733 5.367467-25.710933 5.717334l-17.672533 0.7424c0.341333-1.9712 0.392533-6.3488 0.008533-8.482134l-2.850133-15.914666-2.5344-14.190934c5.700267-1.066667 9.4208-1.8688 12.066133-3.242666 20.736-4.471467 32.0768-17.698133 47.5648-33.425067 4.7616-4.829867 10.530133-12.8512 13.047467-18.6624l5.640533-1.885867 6.656-2.218666c4.130133-1.373867 6.434133-3.771733 8.439467-10.282667l14.626133-1.578667c1.211733-0.128 4.411733-1.467733 4.548267-1.732266 33.809067-3.2768 70.690133-26.939733 82.824533-59.639467 5.700267 0.3584 11.639467-2.141867 14.1312-7.082667 6.980267-13.841067-14.890667-32.9472-26.24-41.301333l-5.034667-3.712c-0.238933-0.546133 4.1472-2.0224 5.1456-1.390933l19.182934 12.100266c3.643733 2.295467 7.739733 6.186667 10.6496 9.275734l7.168 16.2048c3.703467 8.379733 6.203733 17.365333 8.925866 26.581333l7.8336 0.605867c8.2688-1.928533 16-3.396267 22.0672-6.7072 16.546133-9.0368 31.402667-22.724267 39.338667-41.1136 2.090667-4.846933 3.285333-11.093333 4.189867-15.428267l5.6576-5.205333 5.649066 11.528533c11.255467 22.9632 17.911467 19.114667 23.8592 32.5888z" fill="#F6AC36" /><path d="M946.415906 375.9616l3.515733 5.589333-6.0672 10.487467c-14.5152 25.079467-14.2336 24.994133-47.197866 34.7648l-10.88 3.2256c-5.418667-20.0192-0.6912-35.456-25.4208-52.488533-2.7648 5.393067-3.9936 10.385067-4.804267 16.3584-2.688 19.8144-13.1328 36.522667-26.845867 50.781866-4.164267 4.334933-11.118933 7.133867-15.547733 10.231467l-24.354133 1.117867c-18.594133 0.853333-31.9232 4.224-50.568534 9.992533-16.426667-2.670933-31.8976-29.038933-32.290133-41.813333l-0.3328-10.871467c-1.655467-2.1248 10.325333-26.897067 13.371733-25.864533l3.217067 14.8992c0.8192 3.7888 5.905067 11.690667 9.719467 11.6992l13.6192 0.042666c1.8944 0 4.667733-3.925333 6.203733-5.102933l18.4832-14.1824c5.461333-4.189867 10.5472-9.787733 14.1056-14.1824 9.233067-3.908267-0.068267-7.534933 8.661333-17.160533 2.2016-2.432 5.1456-5.495467 6.929067-6.033067l15.0784-4.5312-6.459733-5.3248c11.6992 1.1264 30.276267 12.731733 41.873066 20.4544 30.446933-19.746133 72.576-17.2032 95.991467 7.927467z" fill="#FBD777" /><path d="M219.597773 373.367467c-1.339733 5.111467-4.795733 1.339733-3.959467 7.0656-2.082133 7.338667-5.256533 18.3296-10.632533 24.763733-17.271467 20.6592-38.536533 36.522667-63.377067 46.856533 27.861333 22.024533 27.178667 25.250133 42.052267 59.758934 19.959467-5.700267 35.652267-14.4128 59.579733-9.8304 13.1072 2.5088 26.5984 6.186667 37.819733 11.9808 7.5776 3.9168 16.494933 15.240533 17.2544 24.064 0.699733 8.106667-4.625067 17.220267-9.019733 23.278933-8.669867 11.963733-20.283733 19.925333-32.9472 26.914133-12.125867 6.6816-23.3984 12.654933-36.7616 17.501867-10.820267 3.925333-33.297067 0.597333-43.554133-4.266667-20.3264-9.634133-17.646933-13.943467-33.928534-18.568533l0.887467-14.318933c0.546133-8.797867 3.6096-17.399467 7.0912-25.284267l6.1184-13.832533-9.642667 6.1696-9.7792 4.821333c10.24-14.5152 12.544-7.842133 21.4528-17.3056l11.426134-12.151467c4.9152-12.288-11.7248-35.4304-17.783467-39.842133l-13.047467-9.4976c-4.386133-3.191467-13.1328-7.022933-17.7152-8.4736-0.477867-0.1536-1.5616 0.093867-1.937066-0.238933l-2.133334-1.911467c-0.776533 0.042667-1.681067 0.187733-2.184533-0.068267-0.443733-1.134933-0.5632-2.0224-1.271467-2.0736l-3.285333-0.256-6.203733-0.443733c-0.426667-0.315733-3.370667-1.2544-4.744534-1.408l-6.6304-0.725333c-2.2784-4.0448-6.7584-6.272-11.042133-4.6592l1.408-8.157867 2.961067-15.240533 0.750933 10.683733 15.658667-4.334933 9.8816 8.405333c24.900267-0.878933 19.950933 12.868267 37.2736 2.9696 18.628267-10.641067 10.299733-2.722133 21.6832-11.272533l21.3504-12.9536c1.877333-7.0144 3.2-14.5152 2.850133-21.444267l-0.341333-6.843733c-0.0512-1.083733 3.4816-1.578667 4.923733-1.92l12.484267-2.9696 0.5376-6.2976 6.459733 1.365333z m27.4944 153.454933c1.826133-6.024533-6.528-11.016533-11.426134-10.8288-23.253333 0.913067-22.109867-0.1792-42.7008 10.9312-4.096 2.210133-5.973333 12.987733-0.878933 14.370133 16.989867 4.590933 52.224-5.2992 55.005867-14.472533z" fill="#FBD676" /><path d="M294.153506 586.154667l20.224 0.366933c2.210133 0.042667 7.466667 1.3568 9.6512 2.167467 20.471467 7.620267 31.266133 13.090133 46.532267 28.526933 12.612267 12.757333 13.0816 30.677333 1.8944 45.073067-27.067733 34.824533-77.627733 40.96-118.9888 29.636266-16.964267-4.642133-23.330133-13.047467-30.984534-13.448533-2.730667-8.098133-4.855467-15.138133-4.8384-24.123733l3.643734-4.642134-3.626667-4.48c0-0.512 0.0512-1.390933 0.093867-1.988266l4.5568-9.002667c8.251733-16.3072 19.319467-29.661867 36.241066-37.7088 11.118933-5.290667 23.816533-10.5984 35.592534-10.385067z m18.474667 19.447466c-17.877333-14.72-49.800533-0.512-58.948267 9.864534-1.809067 2.048-1.160533 9.4976 0.8192 11.374933 12.416 11.793067 72.081067-9.745067 58.120533-21.239467z" fill="#FDD97C" /><path d="M883.218039 542.429867c14.754133-0.085333 29.661867 8.2176 41.949867 16.896 22.903467 16.187733 8.533333 13.474133 19.328 20.6848l-0.0512 1.9712 1.698133 2.005333 0.375467 2.184533-0.648533 1.518934-9.0368-6.2208c-8.064 24.661333-5.0176 24.840533-21.674667 43.323733-22.519467 24.977067-66.363733 34.577067-99.746133 26.658133-2.773333-0.657067-7.2448-0.836267-8.8064-0.529066 6.3744 12.740267 12.6976 22.186667 15.249066 33.723733-2.372267 1.2544-6.613333 4.4288-8.106666 6.528l-5.563734 7.825067c-0.494933 0.6912-3.754667 0.9472-4.411733 0.4096-5.077333-4.138667 6.212267-13.533867 1.92-27.5968-4.002133-13.098667-18.7136-24.004267-27.127467-32.477867-1.885867-1.902933-5.1456-9.088-5.700266-9.088-7.7568 2.321067-10.274133 0.853333-14.728534-0.256l10.385067-1.2544 2.4576-18.269867 10.2144-18.449066c4.215467-7.611733 9.890133-14.839467 16.657067-18.747734l2.901333 12.629334c0.512 2.2272 3.3792 8.6272 5.5808 8.7552l17.604267 1.006933 2.193066-3.054933 25.915734-10.692267c2.850133 0.110933 7.261867-1.117867 10.180266-3.549867 4.829867-4.0192 1.4336-6.5792 5.512534-22.365866 0.6144-2.372267 1.621333-5.495467 0.827733-6.818134-0.9984-1.655467-5.051733-3.848533-7.031467-4.087466l-4.983466-0.622934 2.048-1.911466 24.635733-0.145067z" fill="#FCD26D" /><path d="M136.798839 540.433067c-26.077867 12.868267-44.757333 18.688-78.813866 14.6944-15.914667-1.8688-30.762667-8.789333-43.989334-16.8704-3.746133-2.286933-6.869333-3.754667-10.385066-4.266667-1.4848-5.504-4.036267-12.782933-3.549867-18.986667 1.28-16.546133 12.714667-45.448533 27.153067-50.824533 0.315733 0.682667 4.394667 3.950933 5.4528 5.469867l10.88 15.658666c4.386133 0.802133 12.373333 2.030933 16.145066 1.6896l14.3104-1.271466 3.729067-2.321067 4.872533-1.373867c6.6816-1.885867 15.803733-4.992 20.727467-9.4464 1.152-1.041067 2.7392-2.875733 4.9664-5.282133 4.701867-5.077333 14.702933-3.106133 14.2336-7.048533l-0.64-5.376c-0.034133-0.256-0.571733-1.3312-0.7424-1.723734 4.5824 1.450667 13.329067 5.282133 17.7152 8.4736l13.047467 9.4976c6.058667 4.4032 22.690133 27.554133 17.783466 39.842134l-11.426133 12.151466c-8.9088 9.472-11.2128 2.798933-21.4528 17.3056z" fill="#FEDC7E" /><path d="M968.500173 431.121067c14.7456 4.096 35.362133 17.237333 43.6736 32.580266 0.443733 0.810667 1.681067 1.8944 2.397866 2.491734 0.017067 0.5376 0.085333 1.297067 0.017067 1.698133-4.701867 26.359467-12.680533 39.790933-38.980267 53.879467-17.169067 9.198933-35.4816 14.779733-55.560533 14.813866-11.118933 0.017067-13.1072-17.1264-33.3568-32.162133-4.360533-3.234133-24.072533-15.889067-28.032-16.418133-2.722133-4.744533-1.245867-10.760533 2.363733-15.726934l10.641067-14.6432c15.445333-21.248 62.984533-35.908267 96.836267-26.504533z m-57.250134 43.613866c6.766933-2.4576 34.8928-11.639467 33.314134-18.670933-2.551467-11.374933-15.624533-12.168533-17.646934-11.690667l-20.992 5.009067-11.784533 6.434133c-3.6352 1.979733-8.917333 7.389867-8.456533 12.066134 0.9728 9.8816 14.4128 10.897067 25.557333 6.843733z" fill="#FDD774" /><path d="M742.853239 310.613333c0.503467 0.733867 1.732267 1.732267 2.423467 2.2784l-0.273067 2.005334-3.7376 12.1344c-4.488533 14.583467-13.824 25.045333-24.610133 34.1248-13.303467 11.204267-29.1328 19.584-48.3072 19.259733-7.296-0.128-19.191467-2.013867-24.362667-6.7072l-16.708266-15.163733c-12.373333-11.229867-33.015467-16.7168-29.184-23.799467l13.858133-25.6512c1.476267-2.730667 2.286933-7.108267 2.1248-9.7792 1.621333-0.298667 5.7088-1.493333 7.637333-2.653867 27.588267-16.529067 45.2608-24.9856 79.889067-14.3616 17.425067 5.341867 31.8464 14.6688 41.250133 28.3136z m-33.527466 5.845334c2.6368-1.0752 6.4768-9.403733 4.497066-11.537067-14.830933-15.9744-56.661333-18.500267-58.658133-4.010667-1.621333 11.758933 34.8672 23.424 54.152533 15.547734z" fill="#FCDB7B" /><path d="M329.643639 553.787733l-2.696533 2.0992 0.187733-7.278933c0.0768-3.0976-4.9664-8.200533-8.149333-8.712533l-8.832-1.425067-1.152 10.052267c-7.150933 6.8864-24.814933 23.586133-13.056 31.701333l4.642133 3.208533c-1.877333-0.0256-5.649067 1.851733-6.442666 2.730667-11.776-0.213333-24.465067 5.0944-35.592534 10.385067-16.9216 8.0384-27.989333 21.393067-36.241066 37.7088l-4.5568 9.002666c-37.188267-4.309333-64.810667-18.116267-76.023467-57.890133-9.1136 2.4832-18.6624 6.058667-27.050667 6.903467-33.0752 3.328-61.9264-1.655467-88.5248-21.9904-12.3392-9.437867-18.978133-23.022933-22.562133-36.266667 3.515733 0.512 6.638933 1.979733 10.385067 4.266667 13.218133 8.081067 28.074667 15.0016 43.989333 16.8704 34.048 3.9936 52.727467-1.826133 78.813867-14.6944l9.7792-4.821334 9.642666-6.1696-6.1184 13.832534c-3.490133 7.893333-6.5536 16.494933-7.0912 25.284266l-0.887466 14.318934c16.273067 4.616533 13.602133 8.925867 33.928533 18.568533 10.257067 4.864 32.733867 8.192 43.554133 4.266667 13.3632-4.855467 24.635733-10.820267 36.7616-17.501867 12.663467-6.980267 24.277333-14.9504 32.9472-26.914133 4.394667-6.058667 9.710933-15.172267 9.019734-23.278934-0.759467-8.823467-9.6768-20.1472-17.2544-24.064 1.186133 0 5.802667-0.238933 5.973333-1.851733l0.674133-6.2976c4.360533 2.7648 9.105067 6.2208 13.5424 10.0096l9.326934 7.978667c7.662933 6.5536 17.373867 15.291733 21.9904 21.828266l-2.935467 8.1664z" fill="#F8B442" /><path d="M852.096973 544.768c-13.371733 2.517333-48.290133 16.5632-54.254934 28.509867-6.766933 3.908267-12.4416 11.136-16.657066 18.747733l-10.2144 18.449067c-0.059733-0.503467-3.3792-3.319467-5.000534-3.6352l-28.817066-5.640534c-1.911467 10.154667-4.027733 17.911467-2.7904 24.0128-30.677333 1.024-61.730133 16.785067-81.7664 40.2432l-1.774934 4.138667c-0.068267-0.853333-3.165867-3.242667-4.795733-3.456l-23.108267-3.0208-3.157333 1.3056c0.827733 3.182933 1.28 4.241067 1.160533 5.034667l-0.648533 4.3776c-3.729067-0.3584 0.605867-0.708267-4.932267-16.392534-0.520533-1.476267-4.352-6.109867-5.870933-5.674666l-9.002667 2.568533c3.037867-5.819733 8.823467-18.551467 5.725867-25.335467l-6.7328-14.737066c-0.759467-1.655467 0.853333-6.8352 2.628267-7.2448 13.5168-3.089067 7.773867 39.074133 66.670933 16.674133l7.773867-2.952533c9.1392-3.473067 17.954133-8.6016 24.763733-14.557867 0.6144-0.119467 3.899733-1.476267 4.855467-2.2784l16.4352-13.892267 13.474133-11.392 1.664-12.5696 7.68 0.6912c14.660267 1.314133 29.422933 0.5376 43.4432-6.997333l45.3888-24.405333 5.486933-3.037867 6.237867 1.160533c1.8944 0.349867 6.3232 3.106133 6.954667 4.829867 0.631467 1.7152-0.085333 4.206933-0.8192 6.5024z" fill="#F7B541" /><path d="M404.088439 623.505067c-2.653867 1.365333-6.3744 2.167467-12.066133 3.242666l2.5344 14.190934 2.850133 15.914666c0.384 2.133333 0.3328 6.519467-0.008533 8.482134-5.589333 32.366933-31.232 56.507733-65.911467 63.121066-27.144533 5.179733-44.791467 0.0512-70.818133-9.437866-9.105067-3.319467-17.0752-9.326933-23.936-15.812267-8.1152-7.6544-11.195733-15.735467-14.2336-24.7296 7.6544 0.401067 14.020267 8.797867 30.984533 13.448533 41.361067 11.323733 91.921067 5.1968 118.9888-29.636266 11.1872-14.395733 10.717867-32.315733-1.8944-45.073067-15.266133-15.4368-26.069333-20.906667-46.532266-28.526933-2.193067-0.8192-7.4496-2.1248-9.6512-2.167467l-20.224-0.366933c0.785067-0.878933 4.565333-2.756267 6.442666-2.730667l16.938667 0.238933 2.884267-8.465066c0.418133 1.2288 2.7136 3.336533 4.599466 3.831466l15.4624 4.096c14.250667 6.647467 28.228267 13.687467 38.920534 25.326934l13.806933 15.018666 10.88 0.034134z" fill="#FAC46A" /><path d="M213.138039 371.9936l-0.5376 6.2976-12.484266 2.9696c-1.442133 0.341333-4.974933 0.836267-4.923734 1.92l0.341334 6.843733c0.349867 6.929067-0.9728 14.429867-2.850134 21.444267l-21.3504 12.9536c-11.383467 8.5504-3.054933 0.622933-21.6832 11.272533-17.322667 9.898667-12.373333-3.857067-37.2736-2.9696l-9.8816-8.405333-15.658666 4.334933-0.750934-10.683733c5.742933-29.5424 37.290667-53.248 66.628267-60.049067 21.700267-5.026133 43.8784 1.373867 60.424533 14.071467z m-87.901866 33.8688c9.207467-4.625067 13.3888-9.7024 16.605866-18.628267-2.688-3.473067-8.0384-7.509333-10.786133-6.545066-10.496 3.677867-17.493333 11.741867-17.723733 22.203733-0.0768 3.387733 8.5504 4.6592 11.904 2.9696z" fill="#FEDC7E" /><path d="M944.487373 580.010667c-10.786133-7.210667 3.575467-4.488533-19.328-20.6848-12.288-8.686933-27.195733-16.989867-41.949867-16.896l-1.885867-2.0992-13.201066-0.384-0.443734-17.501867-1.962666-1.928533c0.017067-1.032533 0-3.012267-0.110934-4.010667-0.2048-1.928533-1.621333-5.0688-2.397866-6.852267l-5.9136-13.602133c-0.699733-1.604267-2.2528-4.736-1.297067-5.614933l2.6624-2.440534c3.959467 0.520533 23.68 13.175467 28.032 16.418134 20.2496 15.035733 22.237867 32.1792 33.3568 32.162133 20.078933-0.0256 38.391467-5.614933 55.560533-14.813867 26.2912-14.088533 34.269867-27.528533 38.980267-53.879466 16.9728 24.1664 10.180267 59.818667-13.952 81.092266-34.167467 30.114133-65.9712 17.024-56.149333 31.035734zM946.518306 586.180267c16.9472 26.871467 2.491733 63.112533-23.620267 81.6128-32.674133 23.150933-64.315733 22.5792-101.0432 16.853333-2.551467-11.537067-8.874667-20.983467-15.249066-33.723733 1.5616-0.315733 6.033067-0.136533 8.8064 0.529066 33.3824 7.918933 77.226667-1.672533 99.746133-26.658133 16.657067-18.474667 13.610667-18.6624 21.674667-43.323733l9.0368 6.2208 0.648533-1.518934zM968.500173 431.121067c-33.8432-9.403733-81.390933 5.256533-96.836267 26.504533-5.162667 2.3552-11.178667 7.415467-14.429867 12.817067l-8.849066 14.711466c-10.410667-7.4496-21.137067-13.636267-32.170667-17.792l-13.550933-5.102933 10.496-7.3472c4.4288-3.0976 11.383467-5.905067 15.547733-10.231467 13.713067-14.2592 24.1664-30.967467 26.845867-50.781866 0.810667-5.973333 2.039467-10.965333 4.804266-16.3584 24.7296 17.032533 20.002133 32.469333 25.4208 52.488533l10.88-3.2256c32.964267-9.770667 32.6912-9.685333 47.197867-34.7648l6.0672-10.487467-3.515733-5.589333c2.235733 2.397867 6.5792 5.6832 9.088 9.070933 5.998933 8.0896 10.666667 18.1248 11.485866 27.989334l1.501867 18.0992z" fill="#F7AC31" /><path d="M614.085239 299.3152c0.162133 2.670933-0.648533 7.048533-2.1248 9.7792l-13.858133 25.6512c-3.822933 7.082667 16.810667 12.5696 29.184 23.799467l16.708267 15.163733c-3.2512 0.213333-8.695467 2.321067-10.5984 4.3264 3.8144 12.049067 6.101333 21.589333 7.483733 33.262933l0.9728 8.226134c-3.831467 1.911467-9.1904 4.206933-12.9536 6.656l-22.801067 14.839466c-4.241067 2.7648-8.6272 7.867733-11.477333 11.682134l-19.182933-12.100267c-0.9984-0.631467-5.384533 0.8448-5.1456 1.390933-4.898133-0.9984-9.0112-2.858667-14.856534-6.434133l8.2432-2.500267c0.785067 0 1.655467-0.170667 2.0224 0.1536l2.2016 1.979734h2.0224c0.238933 0.597333 2.500267 4.411733 3.413334 3.490133l3.4048-3.421867c10.376533-11.076267 37.393067-27.630933 45.986133-39.133866 14.088533-18.850133-9.207467-43.0592-24.977067-50.235734-12.544-5.7088-37.162667-7.227733-49.6896-6.570666l4.104534-3.3024c0.989867-0.7936 1.664-5.213867 1.28-4.736-4.283733-0.4864-10.555733-0.913067-10.845867-3.208534l-1.109333-8.746666 3.669333 6.775466 25.181867 0.7168c14.728533 0.418133 14.933333-7.3472 32.810666-22.280533l8.576-7.168 2.346667 1.911467z" fill="#F7B94C" /><path d="M784.376439 347.392l19.874134-0.068267c1.083733 0 3.2256 0.1536 4.3008 0.256l6.459733 5.3248-15.0784 4.5312c-1.792 0.5376-4.727467 3.601067-6.929067 6.033067-8.7296 9.6256 0.571733 13.252267-8.661333 17.160533 0.733867-2.0224 1.902933-7.714133 1.220267-10.5216-5.102933-20.795733-65.604267 17.757867-51.9424 37.597867 1.8432 2.679467 9.873067 3.8144 12.834133 2.909867l5.2992-1.621334c-1.536 1.1776-4.309333 5.102933-6.203733 5.102934l-13.6192-0.042667c-3.8144-0.008533-8.900267-7.9104-9.719467-11.6992l-3.217067-14.8992c1.604267-2.7904 3.729067-6.212267 5.956267-9.3696l2.9696-4.215467 29.056-19.780266 3.6864-2.210134 8.772267-1.92c4.949333-1.083733 10.914133-2.551467 14.941866-2.568533z" fill="#FADF8F" /><path d="M513.016439 277.819733l7.04 6.954667-0.0512 2.116267c-3.157333 0.392533-6.7328 4.445867-6.920533 7.492266l-0.597333 9.9072-4.027734-6.715733c0.0512-0.768 0.221867-1.672533-0.034133-2.184533-0.725333-1.4592-2.645333-3.584-3.9936-4.667734-15.684267-12.526933-45.422933-28.706133-65.245867-19.473066-1.1008 0.512-2.500267 1.314133-5.9392 3.157333l-7.662933-11.886933-4.002133-6.203734c13.354667-4.608 27.707733-5.9648 42.8032-3.549866 20.846933 3.328 34.645333 11.229867 48.64 25.0624z" fill="#F9D684" /><path d="M68.754039 443.682133c2.4064-0.238933 7.168 0.964267 10.3168 1.2288l13.687467 1.1264 6.6304 0.725334 4.744533 1.408 6.203734 0.443733 4.5568 2.3296c0.512 0.264533 1.416533 0.110933 2.184533 0.068267l2.133333 1.911466c0.375467 0.341333 1.4592 0.085333 1.937067 0.238934 0.170667 0.392533 0.708267 1.467733 0.7424 1.723733l0.64 5.376c0.469333 3.9424-9.540267 1.979733-14.2336 7.048533-2.2272 2.4064-3.805867 4.232533-4.9664 5.282134 0.324267-2.730667-2.082133-7.441067-5.341867-9.361067-17.646933-10.402133-42.2656-7.236267-54.784 10.325333-3.319467 4.650667 5.9648 11.0592 10.129067 10.88l24.3968-1.024-3.729067 2.321067-14.3104 1.271467c-3.771733 0.3328-11.758933-0.887467-16.145066-1.6896l-10.88-15.658667c-1.058133-1.518933-5.128533-4.7872-5.4528-5.469867 6.9632-11.7504 29.7216-19.345067 41.540266-20.5056z" fill="#FAE193" /><path d="M344.466039 308.283733l3.694934 5.060267c-17.527467 12.834133-2.594133 25.856-21.2224 25.813333l4.0192-3.072c2.2272-1.698133 4.0448-3.234133 5.137066-4.548266 6.698667-8.072533-28.945067-27.8016-57.096533-14.779734-1.8688 0.861867-4.8896 4.292267-5.034667 6.0928-0.145067 1.809067 1.570133 5.956267 2.9696 7.1936l4.701867 4.6336c-9.540267 1.604267-13.934933-18.3296-15.854933-23.7824l6.946133-6.784c23.1424-9.898667 49.723733-8.388267 71.7568 4.155734z" fill="#F9DE8E" /><path d="M309.334306 391.7568l-1.1776 4.437333c-20.855467 7.645867-10.939733 13.218133-30.165333 9.719467-7.7824-1.416533-17.493333-0.955733-25.489067 0.401067l-14.976 2.542933c-3.370667-3.3536-8.7808-8.951467-10.845867-12.842667l-8.6528-16.290133-2.397866 0.708267c-0.836267-5.717333 2.628267-1.954133 3.959466-7.0656l2.065067-7.8848c0.64 2.688 2.602667 6.468267 4.949333 8.567466 13.943467 12.526933 24.4992 19.362133 43.997867 21.461334 13.218133 1.425067 26.743467-0.273067 38.7328-3.754667z" fill="#F8BD4D" /><path d="M760.670839 351.880533l-3.6864 2.210134-29.056 19.780266-0.546133-8.430933c-0.238933-3.669333-8.209067-6.229333-10.7264-4.283733 10.786133-9.079467 20.1216-19.541333 24.610133-34.1248l3.7376-12.1344c9.6 2.8416 12.5184 38.135467 15.6672 36.983466z" fill="#F4B84B" /><path d="M92.758306 446.037333l-13.687467-1.1264c-3.140267-0.256-7.9104-1.4592-10.3168-1.2288l2.005334-1.800533 10.9568-0.512c4.2752-1.604267 8.763733 0.6144 11.042133 4.6592z" fill="#FEDC7E" /><path d="M804.250573 347.323733l-19.874134 0.068267 2.013867-1.783467 16.0768-0.008533 1.783467 1.723733z" fill="#FBD777" /><path d="M217.660706 654.353067l0.017067-9.122134 3.626666 4.48-3.643733 4.642134z" fill="#F8B442" /><path d="M620.920439 669.457067c0.119467-0.7936-0.3328-1.860267-1.160533-5.034667l3.157333-1.3056-1.9968 6.340267z" fill="#F6AC36" /><path d="M520.056439 284.782933l-7.04-6.954666 7.04 6.954666z" fill="#FBD46E" /><path d="M946.134306 583.995733l-1.698133-2.005333 1.698133 2.005333z" fill="#F7AC31" /><path d="M745.276706 312.891733c-0.6912-0.546133-1.92-1.553067-2.423467-2.2784l2.423467 2.2784z" fill="#F4B84B" /><path d="M541.492173 319.351467l1.109333 8.746666c0.290133 2.295467 6.562133 2.722133 10.845867 3.208534 0.392533-0.477867-0.2816 3.9424-1.28 4.736l-4.104534 3.3024c-0.5632 0.0256-1.536 0-2.184533-0.017067-1.9456 0.3584-5.5552 1.4848-6.493867 2.133333l-18.082133 7.185067c-22.826667 9.070933-40.388267 27.118933-45.320533 49.348267-3.882667 4.394667-4.727467 11.793067-3.669334 18.525866 3.601067 22.843733 15.0272 27.195733 9.403734 34.1248l-3.703467 4.5568c-18.3808 10.658133-39.2704 35.140267-41.514667 56.686934-9.787733 1.5872-12.1088-2.1504-28.279466-2.2016l-3.882667-6.8096c5.1712-1.595733 8.644267-2.286933 10.811733-3.336534l13.661867-6.656c3.9168-1.911467 8.1408-17.621333 6.647467-23.04l-4.881067-17.664 5.128533-8.576-0.546133-4.087466c3.029333 1.2288 4.770133 1.877333 4.804267 1.962666 0.0256 0.059733 0.887467-1.450667 1.186133-2.039466l20.113067-40.149334c-12.014933-12.757333-30.574933-18.005333-48.7168-16.196266-10.154667 1.015467-19.831467 4.821333-28.475734 8.2944-3.9424 1.5872-9.591467 6.289067-11.042133 9.821866-0.2048 0.494933 3.2512 3.2 2.9952 3.677867l-1.194667 2.218667-3.7888-0.145067-1.698133-2.218667-7.330133 0.221867h-8.3968c-2.0736 0.469333-5.76 1.5104-7.022934 2.0224-10.871467 1.92-23.3472 5.828267-32.494933 13.021867l-10.922667 8.593066c-32.315733-20.104533-71.381333-14.4896-99.908266 9.873067-6.016 5.137067-17.8176 19.626667-18.696534 26.069333-1.408 10.248533 63.291733 23.697067 74.436267 21.495467l18.688-25.9584 9.002667-11.6224-1.2288 13.405867-1.979734 8.337066c-0.145067-0.273067-2.4064 3.7376-2.397866 4.753067l0.1792 21.674667 6.4512 9.198933-0.674134 6.2976c-0.170667 1.6128-4.7872 1.851733-5.973333 1.851733-11.221333-5.794133-24.712533-9.472-37.819733-11.9808-23.918933-4.5824-39.620267 4.130133-59.579734 9.8304-14.8736-34.517333-14.1824-37.7344-42.052266-59.758933 24.840533-10.325333 46.1056-26.1888 63.377066-46.856533 5.376-6.434133 8.5504-17.425067 10.632534-24.763734l2.397866-0.708266 8.6528 16.290133c2.065067 3.8912 7.4752 9.489067 10.845867 12.842667l14.976-2.542934c7.995733-1.3568 17.706667-1.8176 25.489067-0.401066 19.2256 3.498667 9.309867-2.0736 30.165333-9.719467l1.1776-4.437333c19.498667-5.649067 48.827733-18.875733 59.818667-38.980267 2.594133-4.744533 1.655467-15.7696 1.058133-21.137067l-0.981333-8.8064 11.255466 9.002667c13.269333 10.615467 29.994667 17.937067 47.214934 20.590933 14.378667 2.218667 32.622933 4.232533 45.9008-0.6144 12.561067-4.5824 43.537067-19.771733 48.9472-31.906133 2.730667-6.126933 3.473067-13.986133 4.795733-23.637333 6.1696 2.9184 13.405867 17.297067 14.139733 23.0912z" fill="#F6AF36" /><path d="M504.423373 290.722133l3.9936 4.667734c0.256 0.512 0.085333 1.416533 0.034133 2.184533l1.3056 5.6832c0.401067 1.7664-3.6352 5.000533-5.4784 5.649067-17.877333 6.2976-38.929067-4.7104-56.567467-13.653334-4.5568-2.312533-18.082133-12.612267-12.066133-19.7888l3.5328-4.215466c19.822933-9.233067 49.5616 6.9376 65.245867 19.473066z m-3.549867 5.12c-4.846933-4.061867-9.9328-8.8832-14.583467-10.837333l-17.160533-7.2192c-3.9168-1.646933-13.166933-2.286933-17.109333-2.065067-1.2032 0.068267-3.234133 4.2496-2.474667 5.179734 0.503467 0.6144 2.440533 2.423467 3.566933 2.8928l41.540267 17.092266c1.024 0.418133 3.601067 0.699733 4.420267 0.657067s0.8704-1.826133 1.792-5.691733z" fill="#B65D2B" /><path d="M326.930039 339.157333c-16.162133 3.933867-32.059733-0.2816-45.312-4.462933l-4.701866-4.6336c-1.390933-1.245867-3.106133-5.393067-2.9696-7.1936 0.145067-1.800533 3.165867-5.230933 5.034666-6.0928 28.151467-13.021867 63.7952 6.7072 57.096534 14.779733-1.092267 1.314133-2.909867 2.850133-5.137067 4.548267l-4.0192 3.072z" fill="#FAF1CB" /><path d="M745.703373 649.796267c-8.439467 16.2048-43.485867 27.349333-55.8336 21.956266-2.7136-1.186133-6.621867-7.995733-5.6064-10.990933 2.577067-7.5776 11.7248-12.808533 19.037866-16.017067 14.8736-6.528 31.607467-11.349333 42.402134 5.051734z" fill="#FCF0BF" /><path d="M770.962039 610.474667l-2.4576 18.269866-10.385066 1.2544c-7.355733-1.826133-16.375467-3.7632-23.765334-4.778666-1.245867-6.101333 0.878933-13.858133 2.7904-24.0128l28.817067 5.640533c1.621333 0.315733 4.9408 3.131733 5.000533 3.6352z" fill="#F7B541" /><path d="M668.758306 623.684267c-58.897067 22.4-53.154133-19.7632-66.670933-16.674134-1.774933 0.4096-3.387733 5.5808-2.628267 7.2448l6.7328 14.737067c3.0976 6.784-2.688 19.515733-5.725867 25.335467-14.173867 27.136-47.8976 39.133867-78.6432 36.693333-18.824533-1.493333-36.189867-8.3456-52.701866-17.1776-8.277333-4.420267-14.4128-11.434667-20.078934-19.234133-15.889067-21.853867 23.125333-80.810667 87.850667-74.094934l20.599467 2.141867c2.2784-7.296 4.898133-12.6976 8.3456-18.397867l-0.776534 13.815467 28.1344 16.145067c12.552533 7.202133 20.053333 21.0688 27.9552 24.0896l11.7504 4.488533c10.325333 3.9424 6.8096-2.602667 23.1936-0.631467l12.680534 1.527467zM535.100706 611.242667c2.670933-1.3056 3.242667-9.890133 1.8432-12.091734-8.968533-14.088533-47.018667-2.363733-58.308267 9.335467-1.698133 1.7664-0.418133 9.941333 1.536 11.485867 11.409067 8.977067 43.630933-3.217067 54.929067-8.721067z" fill="#FCD572" /><path d="M648.448973 511.8208c18.4832 4.573867 45.5936 12.561067 60.330666 27.776 14.5408 15.010133 21.896533 34.926933 6.4512 51.601067l-8.593066 9.275733-5.341867 5.700267c-6.8096 5.956267-15.624533 11.076267-24.763733 14.557866l-7.773867 2.952534-12.680533-1.527467c-16.384-1.9712-12.859733 4.5824-23.1936 0.631467l-11.7504-4.488534c-7.901867-3.0208-15.402667-16.878933-27.9552-24.0896l-28.1344-16.145066 0.776533-13.815467c3.771733-6.229333 7.7056-13.294933 13.457067-18.986667 10.231467-10.1376 20.6336-18.525867 34.030933-25.181866 9.1904-4.565333 24.9856-10.7776 35.131733-8.260267z m5.794133 29.149867c2.082133-2.295467 0.503467-10.146133-2.269867-12.279467-12.791467-9.838933-40.7552 3.4816-50.884266 14.660267-2.167467 2.389333 1.646933 10.1376 4.155733 12.151466 12.680533 10.1888 37.819733-2.193067 48.989867-14.5408z" fill="#FDD97B" /><path d="M587.435639 494.088533c-12.1344 32.699733-49.015467 56.362667-82.824533 59.639467l-19.2512-0.9472-12.6208-15.906133c-9.3184-11.741867-23.202133-19.370667-36.2496-24.9856 2.244267-21.546667 23.125333-46.0288 41.514667-56.686934 10.5472-6.1184 22.724267-11.0848 35.584-14.737066 6.4768-1.834667 16.605867-0.298667 23.338666-1.2544 16.119467-2.286933 1.373867-3.268267 29.8752 10.5472 20.002133 9.7024 28.552533 22.980267 20.6336 44.322133z m-63.957333-37.0944c-5.879467-16-40.917333 10.641067-48.725333 16.4096-1.655467 1.220267-13.610667 15.394133-6.084267 23.4496 9.088 9.719467 60.100267-25.463467 54.8096-39.8592z" fill="#FDD671" /><path d="M464.700706 571.426133c-2.517333 5.8112-8.285867 13.824-13.047467 18.6624-15.488 15.726933-26.820267 28.945067-47.5648 33.425067l-10.88-0.034133-13.806933-15.018667c-10.7008-11.639467-24.669867-18.670933-38.920533-25.326933l-15.4624-4.096c-1.885867-0.494933-4.181333-2.602667-4.599467-3.831467l4.360533-12.893867c0.725333-2.133333 2.133333-4.898133 2.167467-6.417066l2.696533-2.0992c22.033067-30.421333 61.636267-48.042667 99.703467-32.384 12.765867 5.248 28.032 13.7984 34.5088 26.658133 2.619733 5.205333 3.157333 18.013867 0.8448 23.355733z m-65.792-32.366933c-3.140267-8.874667-12.296533-10.3168-18.9184-7.133867l-18.2016 8.7552c-3.6864 1.7664-9.975467 6.894933-12.330667 10.6496-1.476267 2.3552 3.515733 10.180267 6.4768 10.717867 16.059733 2.9184 34.798933-11.2384 42.9824-22.9888z" fill="#FCD677" /><path d="M839.723639 532.2752l-5.486933 3.037867-45.3888 24.405333c-14.011733 7.534933-28.7744 8.32-43.4432 6.997333l-6.3488-5.717333c-12.7744-11.511467-23.748267-32.426667-38.775467-42.752l-0.887466-6.434133c2.363733-4.744533 6.638933-10.692267 11.1616-14.498134l19.396266-16.290133 12.168534-4.488533c33.757867-12.4416 60.817067-11.665067 90.9824 9.326933 9.233067 6.4256 23.7824 24.593067 15.342933 35.319467l-8.721067 11.0848z m-72.7808-26.581333l16.452267-8.874667c2.551467-1.373867 3.669333-8.1408 1.6128-11.2128-8.4992-12.637867-52.565333 4.881067-57.181867 18.0992 3.6608 15.6928 30.7968 6.468267 39.1168 1.979733z" fill="#FBD778" /><path d="M692.327373 424.448l4.778666 6.4768-2.321066 11.195733c-0.896 4.334933-2.0992 10.581333-4.189867 15.428267-7.936 18.397867-22.784 32.085333-39.338667 41.1136l-9.0112 0.2304-13.243733-15.616c-3.925333-4.625067-18.9952-21.444267-23.739733-21.307733-2.909867-3.089067-7.005867-6.980267-10.6496-9.275734 2.850133-3.8144 7.227733-8.917333 11.477333-11.682133l22.801067-14.839467c3.7632-2.449067 9.122133-4.744533 12.9536-6.656l2.432-0.059733c2.3552-0.0256 5.410133-0.6144 7.0912-1.595733 16-1.220267 26.180267 1.7408 40.951466 6.5792z" fill="#FBD070" /><path d="M380.143906 505.770667l-2.781867 3.822933 30.856534 0.093867c16.170667 0.0512 18.491733 3.7888 28.279466 2.2016 13.047467 5.614933 26.922667 13.243733 36.2496 24.9856l12.6208 15.906133 19.2512 0.9472c-0.136533 0.264533-3.345067 1.604267-4.548266 1.732267l-14.626134 1.578666c-2.005333 6.5024-4.309333 8.900267-8.439466 10.282667l-6.656 2.218667-5.640534 1.885866c2.312533-5.333333 1.774933-18.1504-0.8448-23.355733-6.4768-12.868267-21.7344-21.410133-34.5088-26.658133-38.0672-15.658667-77.6704 1.962667-99.703466 32.384l2.935466-8.1664c-4.625067-6.536533-14.327467-15.274667-21.9904-21.828267l-9.326933-7.978667c-4.437333-3.797333-9.181867-7.2448-13.5424-10.0096l-6.4512-9.198933-0.1792-21.674667c-0.008533-1.015467 2.244267-5.026133 2.397867-4.753066-2.193067 11.118933 5.418667 29.4656 16.580266 33.9456 48.477867 19.447467 40.7808 11.3664 80.093867 1.629866z" fill="#F7C463" /><path d="M813.167906 454.903467l-10.496 7.3472 13.550933 5.102933c11.0336 4.155733 21.76 10.3424 32.170667 17.792l8.849067-14.711467c3.2512-5.4016 9.2672-10.461867 14.429866-12.817066l-10.641066 14.6432c-3.6096 4.9664-5.0944 10.9824-2.363734 15.726933l-2.6624 2.440533c-0.955733 0.878933 0.597333 4.002133 1.297067 5.614934l5.9136 13.602133 2.397867 6.852267c0.110933 0.9984 0.128 2.978133 0.110933 4.010666l-0.264533 19.626667 2.670933-0.196267 13.201067 0.384 1.885866 2.0992-24.635733 0.145067-2.048 1.911467c-1.1008-0.136533-3.345067 0.0768-4.437333 0.2816 0.725333-2.295467 1.450667-4.7872 0.8192-6.5024s-5.060267-4.471467-6.954667-4.829867l-6.237867-1.160533 8.721067-11.0848c8.439467-10.7264-6.109867-28.893867-15.342933-35.319467-30.1568-20.983467-57.216-21.768533-90.9824-9.326933l-12.168534 4.488533c-5.947733-13.474133-12.603733-9.6256-23.8592-32.5888L700.442573 436.906667l-5.6576 5.205333 2.321066-11.195733-4.778666-6.4768 9.216 3.0208 1.783466-9.796267c0.1792-0.9984 1.9712-4.0192 2.304-4.352l0.3328 10.871467c0.392533 12.7744 15.863467 39.1424 32.290134 41.813333 18.645333-5.777067 31.9744-9.1392 50.568533-9.992533l24.354133-1.117867z" fill="#F8C45C" /><path d="M563.687373 433.066667l-8.2432 2.500266c5.845333 3.575467 9.9584 5.4272 14.856533 6.434134l5.034667 3.712c11.3408 8.354133 33.211733 27.460267 26.24 41.301333-2.491733 4.9408-8.430933 7.441067-14.1312 7.082667 7.918933-21.341867-0.631467-34.628267-20.6336-44.322134-28.501333-13.824-13.755733-12.834133-29.8752-10.5472-6.7328 0.955733-16.861867-0.580267-23.338667 1.2544-12.868267 3.643733-25.0368 8.618667-35.584 14.737067l3.703467-4.5568c5.632-6.929067-5.794133-11.281067-9.403734-34.1248-1.066667-6.7328-0.221867-14.1312 3.669334-18.525867l3.438933 20.770134c0.878933 5.307733 5.418667 12.765867 8.5504 16.622933l14.276267-4.701867c17.826133-5.870933 46.9248-5.495467 61.44 2.389334z" fill="#F7BE52" /><path d="M699.401506 511.812267l0.887467 6.434133c15.0272 10.325333 26.001067 31.240533 38.775466 42.752l6.3488 5.717333-7.68-0.6912-1.664 12.5696-13.474133 11.392-16.4352 13.892267c-0.955733 0.810667-4.241067 2.158933-4.855467 2.2784l5.341867-5.700267 8.593067-9.275733c15.445333-16.674133 8.0896-36.590933-6.4512-51.601067-14.737067-15.214933-41.847467-23.202133-60.330667-27.776-1.809067-6.058667 34.474667 3.780267 39.133867 5.085867 2.363733 0.6656 6.033067 1.416533 7.1936 0.110933l4.625066-5.205333z" fill="#F7C565" /><path d="M651.264973 498.670933c-6.0672 3.310933-13.7984 4.778667-22.0672 6.7072l-7.8336-0.605866c-2.722133-9.216-5.2224-18.2016-8.925867-26.581334l-7.168-16.2048c4.736-0.136533 19.8144 16.682667 23.739733 21.307734l13.243734 15.616 9.0112-0.2304z" fill="#F4B955" /><path d="M727.928439 373.870933l-2.9696 4.215467c-2.2272 3.157333-4.352 6.5792-5.956266 9.3696-3.0464-1.032533-15.0272 23.739733-13.371734 25.864533-0.324267 0.324267-2.116267 3.3536-2.304 4.352l-1.783466 9.796267-9.216-3.0208c-14.779733-4.8384-24.951467-7.799467-40.951467-6.5792l-7.0912 1.595733-2.432 0.059734-0.9728-8.226134c-1.3824-11.6736-3.669333-21.2224-7.483733-33.262933 1.911467-2.005333 7.3472-4.104533 10.5984-4.3264 5.1712 4.693333 17.066667 6.5792 24.362666 6.7072 19.165867 0.3328 35.003733-8.055467 48.3072-19.259733 2.5088-1.9456 10.487467 0.6144 10.7264 4.283733l0.546134 8.430933z" fill="#F6AB31" /><path d="M784.350839 380.637867c-3.5584 4.394667-8.644267 9.992533-14.1056 14.1824l-18.4832 14.1824-5.2992 1.621333c-2.961067 0.904533-10.990933-0.238933-12.834133-2.909867-13.661867-19.84 46.848-58.3936 51.9424-37.597866 0.6912 2.807467-0.4864 8.490667-1.220267 10.5216z" fill="#FCF4D5" /><path d="M247.092173 526.8224c-2.781867 9.181867-38.016 19.063467-55.005867 14.472533-5.0944-1.373867-3.217067-12.151467 0.878933-14.370133 20.590933-11.1104 19.438933-10.018133 42.7008-10.9312 4.898133-0.187733 13.252267 4.795733 11.426134 10.8288z" fill="#FCF2CE" /><path d="M114.885239 450.952533l-4.5568-2.3296 3.285334 0.256c0.708267 0.0512 0.827733 0.938667 1.271466 2.0736zM104.124706 448.170667l-4.744533-1.408c1.373867 0.1536 4.317867 1.083733 4.744533 1.408zM119.203106 452.932267l-2.133333-1.911467 2.133333 1.911467z" fill="#FEDC7E" /><path d="M312.628173 605.602133c13.960533 11.4944-45.704533 33.032533-58.120534 21.239467-1.979733-1.877333-2.628267-9.326933-0.8192-11.374933 9.147733-10.376533 41.0624-24.584533 58.948267-9.864534z" fill="#FBF5D3" /><path d="M852.037239 581.922133l-25.915733 10.692267-13.627733-0.0768c-3.515733-0.119467-8.046933-9.198933-5.410134-11.8528 13.525333-13.6192 30.464-22.647467 50.1504-20.471467 3.2512 0.3584 7.808 9.258667 5.7088 11.784534-2.9184 3.515733-7.765333 8.635733-10.897066 9.924266z" fill="#FAF3D4" /><path d="M852.096973 544.768c1.092267-0.2048 3.336533-0.418133 4.437333-0.2816l4.983467 0.622933c1.979733 0.247467 6.033067 2.440533 7.031466 4.087467 0.802133 1.322667-0.213333 4.445867-0.827733 6.818133-4.078933 15.786667-0.682667 18.346667-5.512533 22.365867-2.9184 2.432-7.3216 3.6608-10.180267 3.549867 3.140267-1.297067 7.978667-6.417067 10.897067-9.924267 2.0992-2.525867-2.4576-11.426133-5.7088-11.784533-19.677867-2.167467-36.625067 6.8608-50.1504 20.471466-2.628267 2.653867 1.8944 11.733333 5.410133 11.8528l13.627733 0.0768-2.193066 3.054934-17.604267-1.006934c-2.210133-0.128-5.0688-6.528-5.5808-8.7552l-2.901333-12.629333c5.9648-11.946667 40.8832-26.001067 54.254933-28.509867z" fill="#F9D887" /><path d="M103.322573 472.6016c-4.923733 4.4544-14.045867 7.569067-20.727467 9.4464l-4.872533 1.373867-24.3968 1.024c-4.164267 0.170667-13.44-6.229333-10.129067-10.88 12.5184-17.5616 37.137067-20.727467 54.784-10.325334 3.2512 1.92 5.666133 6.6304 5.341867 9.361067z" fill="#FCF6DC" /><path d="M911.250039 474.734933c-11.153067 4.053333-24.584533 3.037867-25.557333-6.843733-0.4608-4.6848 4.821333-10.0864 8.456533-12.066133l11.784534-6.434134 20.992-5.009066c2.0224-0.477867 15.086933 0.315733 17.646933 11.690666 1.578667 7.031467-26.5472 16.213333-33.314133 18.670934z" fill="#FAF2CD" /><path d="M709.325773 316.458667c-19.285333 7.876267-55.773867-3.7888-54.152534-15.547734 1.9968-14.4896 43.8272-11.963733 58.658134 4.010667 1.979733 2.133333-1.860267 10.461867-4.497067 11.537067z" fill="#F9EEC8" /><path d="M326.947106 555.886933c-0.042667 1.527467-1.450667 4.283733-2.167467 6.417067l-4.360533 12.893867-2.884267 8.465066-16.938666-0.238933-4.642134-3.208533c-11.758933-8.1152 5.905067-24.823467 13.056-31.701334l1.152-10.052266 8.832 1.425066c3.182933 0.512 8.226133 5.614933 8.149334 8.712534l-0.187734 7.278933z" fill="#F6AF36" /><path d="M125.236173 405.8624c-3.3536 1.681067-11.9808 0.4096-11.904-2.9696 0.2304-10.461867 7.227733-18.525867 17.723733-22.203733 2.7392-0.964267 8.098133 3.072 10.786133 6.545066-3.217067 8.925867-7.3984 14.0032-16.605866 18.628267z" fill="#FAECBB" /><path d="M868.131106 539.946667l-2.670933 0.196266 0.256-19.626666 1.962666 1.928533 0.452267 17.501867zM865.605239 516.5056l-2.397866-6.852267c0.776533 1.774933 2.184533 4.923733 2.397866 6.852267z" fill="#F7B541" /><path d="M576.743373 435.2768l-6.818134-0.068267h-2.0224l-2.2016-1.988266c-0.366933-0.324267-1.237333-0.1536-2.0224-0.1536-14.523733-7.8848-43.613867-8.260267-61.44-2.389334l-14.276266 4.701867c-3.140267-3.857067-7.671467-11.3152-8.5504-16.622933l-3.438934-20.770134c4.932267-22.229333 22.485333-40.277333 45.320534-49.348266l18.082133-7.185067 6.493867-2.133333c0.657067 0.017067 1.629867 0.042667 2.184533 0.017066 12.526933-0.657067 37.1456 0.861867 49.6896 6.570667 15.7696 7.176533 39.0656 31.377067 24.977067 50.235733-8.593067 11.502933-35.6096 28.0576-45.986134 39.133867z m21.8624-52.9408c3.1488-1.5616 6.7584-6.4768 6.7072-9.309867-0.2304-13.0048-30.993067-20.4032-42.743467-22.144-9.088-1.339733-36.8384 2.5856-35.0208 12.347734 0.546133 2.909867 5.265067 9.130667 8.669867 10.333866 14.506667 5.137067 47.880533 15.9744 62.378666 8.772267z" fill="#FBD571" /><path d="M576.743373 435.2768l-3.4048 3.421867c-0.913067 0.9216-3.182933-2.8928-3.413334-3.490134l6.818134 0.068267zM567.902839 435.208533l-2.2016-1.979733 2.2016 1.979733z" fill="#F7BE52" /><path d="M508.416973 295.389867l-3.9936-4.667734c1.348267 1.083733 3.268267 3.208533 3.9936 4.667734z" fill="#FBD46E" /><path d="M382.004173 411.392c18.423467 8.849067 46.4384 22.289067 35.464533 50.7648-6.485333 16.827733-14.0288 34.116267-31.121067 40.9088l-4.539733 2.449067c-0.494933 0.068267-1.262933 0.1536-1.664 0.256-39.313067 9.728-31.616 17.8176-80.093867-1.629867-11.1616-4.48-18.773333-22.826667-16.580266-33.9456l1.979733-8.337067 5.469867-11.195733c1.988267-4.0704 6.314667-10.026667 9.045333-13.4912 15.368533-6.9632 8.721067-6.869333 22.7328-14.762667 10.513067-5.922133 22.596267-9.864533 34.8672-10.24l24.439467-0.759466z m6.016 35.473067c2.850133 0.657067 9.565867-2.679467 10.658133-5.077334 1.1008-2.397867 0.324267-8.9088-1.476267-11.153066-10.5216-13.124267-31.7952-17.92-48.349866-10.871467-2.423467 1.032533-5.137067 8.738133-3.456 10.794667 3.3536 4.104533 10.760533 8.925867 15.5648 10.0352l27.050666 6.263466z" fill="#FDDD85" /><path d="M362.002039 404.949333l1.834667 2.039467 7.1936-0.042667 3.7888 0.145067c1.979733 1.237333 5.316267 3.396267 7.185067 4.292267l-24.439467 0.759466c-12.270933 0.384-24.354133 4.317867-34.8672 10.24-14.011733 7.893333-7.364267 7.790933-22.7328 14.762667-2.730667 3.473067-7.057067 9.4208-9.045333 13.4912l-5.469867 11.195733 1.2288-13.405866-9.002667 11.6224-18.688 25.9584c-11.144533 2.2016-75.844267-11.246933-74.436266-21.495467 0.887467-6.442667 12.680533-20.932267 18.696533-26.069333 28.526933-24.354133 67.592533-29.9776 99.908267-9.873067l10.922666-8.593067c9.147733-7.202133 21.623467-11.1104 32.494934-13.021866 2.2528-0.401067 5.188267-1.245867 7.022933-2.0224h8.3968z m-111.266133 43.741867c8.004267 0.6656 18.670933-5.034667 19.6608-12.987733 0.418133-3.396267-5.8624-10.2912-9.173333-10.6752-10.564267-1.211733-29.568 1.9968-34.909867 12.629333-1.1776 2.338133 3.106133 9.250133 5.8624 9.480533l18.568533 1.553067z" fill="#FCD06A" /><path d="M441.140173 439.432533c-5.060267-0.776533-13.482667-12.6208-23.108267-20.522666s-21.7088-11.332267-32.8704-15.1296l-8.567467-2.909867 7.458134-9.480533c8.644267-3.473067 18.321067-7.278933 28.475733-8.2944 18.141867-1.8176 36.701867 3.4304 48.7168 16.196266l-20.113067 40.149334z" fill="#FCD068" /><path d="M384.060706 391.389867l-7.458133 9.480533 8.567466 2.909867c11.1616 3.797333 23.68 7.5776 32.8704 15.1296s18.039467 19.746133 23.108267 20.522666c-0.298667 0.597333-1.160533 2.0992-1.186133 2.039467-0.0256-0.085333-1.774933-0.733867-4.804267-1.962667l0.546133 4.087467-5.128533 8.576 4.881067 17.664c1.501867 5.418667-2.730667 21.137067-6.647467 23.04l-13.661867 6.656c-2.167467 1.058133-5.640533 1.7408-10.811733 3.336533l3.882667 6.8096-30.856534-0.093866 2.781867-3.822934c0.392533-0.093867 1.160533-0.1792 1.664-0.256l4.539733-2.449066c17.092267-6.784 24.635733-24.081067 31.121067-40.9088 10.973867-28.4672-17.041067-41.915733-35.464533-50.7648-1.8688-0.896-5.205333-3.063467-7.185067-4.292267l1.194667-2.218667c0.256-0.477867-3.2-3.1744-2.9952-3.677866 1.450667-3.524267 7.108267-8.234667 11.042133-9.821867zM371.038839 406.954667l-7.1936 0.034133-1.8432-2.039467 7.330134-0.221866 1.706666 2.2272z" fill="#F5BD4F" /><path d="M545.869773 339.328l-6.493867 2.133333c0.9472-0.64 4.5568-1.774933 6.493867-2.133333z" fill="#F7B94C" /><path d="M353.605239 404.949333c-1.834667 0.776533-4.778667 1.621333-7.022933 2.0224 1.262933-0.512 4.949333-1.544533 7.022933-2.0224z" fill="#F5BD4F" /><path d="M500.873506 295.842133c-0.9216 3.8656-0.9728 5.649067-1.792 5.691734s-3.4048-0.238933-4.420267-0.657067L453.120973 283.784533c-1.134933-0.469333-3.063467-2.269867-3.566934-2.8928-0.759467-0.930133 1.271467-5.111467 2.474667-5.179733 3.9424-0.213333 13.201067 0.418133 17.109333 2.065067l17.160534 7.2192c4.650667 1.954133 9.728 6.775467 14.583466 10.837333z" fill="#E6B68E" /><path d="M535.100706 611.242667c-11.306667 5.504-43.52 17.698133-54.929067 8.721066-1.954133-1.536-3.234133-9.719467-1.536-11.485866 11.281067-11.6992 49.3312-23.424 58.308267-9.335467 1.399467 2.2016 0.836267 10.786133-1.8432 12.091733z" fill="#FCF3D2" /><path d="M654.243106 540.970667c-11.170133 12.347733-36.309333 24.721067-48.989867 14.5408-2.5088-2.013867-6.3232-9.762133-4.155733-12.151467 10.120533-11.178667 38.0928-24.4992 50.884267-14.660267 2.773333 2.133333 4.352 9.984 2.269866 12.279467z" fill="#F9ECB7" /><path d="M523.478306 456.994133c5.290667 14.395733-45.7216 49.578667-54.8096 39.8592-7.5264-8.055467 4.4288-22.229333 6.084267-23.4496 7.808-5.768533 42.845867-32.4096 48.725333-16.4096z" fill="#FBF3D4" /><path d="M398.908706 539.0592c-8.183467 11.7504-26.922667 25.898667-42.9824 22.9888-2.961067-0.5376-7.953067-8.362667-6.4768-10.717867 2.3552-3.754667 8.6528-8.874667 12.330667-10.6496l18.2016-8.7552c6.6304-3.182933 15.786667-1.7408 18.9184 7.133867z" fill="#FBF2D0" /><path d="M766.942839 505.693867c-8.32 4.488533-35.456 13.713067-39.1168-1.979734 4.616533-13.218133 48.6912-30.737067 57.181867-18.0992 2.065067 3.072 0.9472 9.838933-1.6128 11.2128l-16.452267 8.874667z" fill="#FBF4D0" /><path d="M651.367373 417.8688c-1.672533 0.981333-4.727467 1.570133-7.0912 1.595733l7.0912-1.595733z" fill="#F7B94C" /><path d="M598.605773 382.336c-14.498133 7.202133-47.872-3.6352-62.378667-8.772267-3.4048-1.2032-8.132267-7.424-8.669867-10.333866-1.8176-9.762133 25.9328-13.696 35.0208-12.347734 11.7504 1.732267 42.513067 9.130667 42.743467 22.144 0.0512 2.833067-3.566933 7.748267-6.7072 9.309867z m-52.9408-24.704c-1.211733 0.264533-4.7104 3.6608-3.771734 4.181333 0.6144 0.349867 3.2256 2.6112 4.061867 2.824534l44.987733 11.323733c0.9472 0.238933 4.642133-0.9216 5.546667-1.0752 12.910933-2.158933-24.046933-23.074133-50.824533-17.262933z" fill="#BA6530" /><path d="M388.020173 446.865067l-27.050667-6.263467c-4.795733-1.109333-12.202667-5.930667-15.5648-10.0352-1.681067-2.056533 1.032533-9.762133 3.456-10.794667 16.546133-7.048533 37.828267-2.2528 48.349867 10.871467 1.800533 2.244267 2.568533 8.7552 1.476266 11.153067-1.1008 2.397867-7.808 5.7344-10.658133 5.077333z" fill="#F9EEC2" /><path d="M386.347639 503.0656l-4.539733 2.449067 4.539733-2.449067z" fill="#F7C463" /><path d="M250.735906 448.6912l-18.568533-1.553067c-2.756267-0.2304-7.031467-7.1424-5.8624-9.480533 5.341867-10.641067 24.3456-13.8496 34.909866-12.629333 3.310933 0.384 9.6 7.278933 9.173334 10.6752-0.989867 7.9616-11.656533 13.661867-19.6608 12.987733z" fill="#FBE195" /><path d="M545.664973 357.632c26.7776-5.8112 63.735467 15.104 50.824533 17.262933-0.904533 0.1536-4.590933 1.314133-5.546667 1.0752l-44.987733-11.323733c-0.836267-0.213333-3.447467-2.474667-4.061867-2.824533-0.938667-0.529067 2.56-3.925333 3.771734-4.181334z" fill="#F5C693" /></svg>