<?xml version="1.0" standalone="no"?><!DOCTYPE svg PUBLIC "-//W3C//DTD SVG 1.1//EN" "http://www.w3.org/Graphics/SVG/1.1/DTD/svg11.dtd"><svg class="icon" width="256px" height="256.00px" viewBox="0 0 1024 1024" version="1.1" xmlns="http://www.w3.org/2000/svg"><path d="M804.608179 611.140267c7.287467 5.393067 9.216 15.351467 17.297067 20.181333-20.642133 10.018133-41.198933 15.069867-64.110933 11.4944-24.029867-3.7376-31.240533-12.782933-46.882134-28.791467 0.768-3.0208 4.266667 0.017067 5.768534 0.725334 29.3632 13.917867 59.170133 9.864533 87.936-3.601067z" fill="#599643" /><path d="M875.247113 588.0832c-3.9168 4.9408-5.367467 6.749867-10.0864 11.528533-2.909867 2.952533-5.341867 6.562133-8.490667 9.3696l1.288533 2.158934c-3.9168-0.034133-9.9328 2.628267-12.2624 5.819733-0.776533 1.066667-0.5888 2.688-0.7168 2.824533-0.878933 0.955733-20.0192 10.052267-23.0656 11.528534-8.081067-4.821333-10.0096-14.779733-17.297066-20.181334 19.584-9.173333 39.9872-24.6784 53.333333-41.796266-0.324267 2.875733 2.013867 4.053333 3.6096 5.76 4.215467 4.522667 8.797867 9.1904 13.687467 12.970666z" fill="#60A84A" /><path d="M770.014046 436.753067l-7.2448 7.893333-11.0848 6.2464-1.851733 6.033067c-1.553067 3.157333-5.819733 4.411733-8.584534 6.545066-34.6368 26.717867-70.3488 91.7504-34.6624 130.372267l-3.566933 1.408c-2.304-4.437333-7.936-8.900267-10.845867-2.850133-0.512-1.024-1.8944-1.911467-1.7152-4.130134l-2.6112-0.196266c-13.841067-37.5808-2.551467-71.3728 19.072-102.766934 0.9216-1.3312 0.7936-3.396267 1.109334-3.882666 0.3584-0.546133 4.522667-3.549867 5.8368-5.0176 1.365333-1.536 1.2288-3.490133 1.373866-3.626667 0.170667-0.170667 1.954133 0.1536 2.816-0.7168 17.783467-17.902933 28.612267-25.531733 51.959467-35.310933z" fill="#69B34F" /><path d="M706.585779 593.851733c-35.6864-38.621867 0.017067-103.6544 34.6624-130.372266 2.7648-2.133333 7.031467-3.387733 8.584534-6.545067 36.352-24.5248 103.3216-32.512 121.8304 17.271467 16.981333 45.687467-23.330133 102.391467-62.225067 123.741866-30.523733 16.759467-76.706133 24.183467-102.843733-4.104533z m74.9568-109.5424c-1.245867 8.96 2.363733 16.298667 9.5488 21.444267 4.7616 1.390933 19.191467-0.9984 24.072534-2.952533 10.146133-4.053333-2.474667-12.637867-7.645867-14.916267-8.183467-3.592533-17.186133-3.9424-25.975467-3.575467z m-10.129066 7.2448c-2.423467-0.034133-4.898133-0.512-7.202134 0.648534-1.3312 0.674133-9.3952 10.376533-10.743466 12.322133-3.549867 5.102933-11.630933 19.447467-10.9056 25.207467 0.170667 1.314133 1.109333 3.293867 2.235733 3.584 0.853333 0.221867 14.1056-5.853867 16.119467-6.929067 15.104-8.098133 13.149867-19.712 10.496-34.833067z m25.992533 27.349334c8.490667 0.913067 20.718933-1.536 23.0656-10.794667-0.938667-3.6864-9.284267-0.9216-11.588267-0.059733-4.334933 1.621333-10.820267 5.853867-11.477333 10.8544z m25.941333-1.442134c-7.296 0.119467-22.109867 6.203733-25.745066 12.450134-2.653867 4.565333-4.573867 22.2208-2.397867 26.496 1.9968 3.925333 3.9168 2.952533 6.528 0.682666 11.630933-10.129067 21.469867-23.7824 21.614933-39.637333z m-52.386133 18.926934c-5.76 3.3536-14.446933 5.248-19.6864 9.173333-5.051733 3.780267 3.293867 8.004267 6.212267 9.6512 3.541333 1.9968 11.2384 5.725867 14.9248 6.698667 1.4592 0.384 11.707733 1.800533 12.578133 1.527466 1.553067-0.477867 3.771733-3.1744 3.8656-4.9152-1.8688-7.406933-8.285867-24.362667-17.885867-22.135466z" fill="#D9F0B1" /><path d="M882.449246 523.229867c5.384533 1.7664 10.129067 6.664533 15.172267 8.618666 3.456 1.339733 1.1776-3.9424 3.566933-4.292266-0.520533 4.932267-0.213333 9.173333-1.442133 14.4128-0.401067 1.723733-2.065067 6.254933-2.884267 8.644266-2.5856 7.5008-6.229333 14.754133-10.0864 21.614934 0.1024-4.471467-4.548267-5.418667-7.2448-7.893334-3.490133-3.2-7.2704-7.0144-10.052267-10.845866 3.549867-6.058667 11.1616-23.6032 12.970667-30.267734z" fill="#64AB4A" /><path d="M901.188446 527.556267c-2.389333 0.349867-0.110933 5.632-3.566933 4.292266-5.0432-1.954133-9.787733-6.852267-15.172267-8.618666 2.944-10.8032 5.495467-27.5712 2.909867-38.2208l-1.467734-15.104c10.615467 16.6656 16.477867 29.6192 18.7136 49.749333 0.4608 4.1472-1.186133 5.666133-1.416533 7.901867z" fill="#538E41" /><path d="M886.775646 572.228267c-3.899733 6.920533-6.9888 10.120533-11.528533 15.854933-4.8896-3.780267-9.472-8.448-13.687467-12.970667-1.595733-1.706667-3.933867-2.884267-3.6096-5.76 2.952533-3.7888 9.472-12.3392 11.528533-15.854933 2.781867 3.822933 6.570667 7.637333 10.052267 10.845867 2.696533 2.474667 7.3472 3.421867 7.2448 7.893333z" fill="#549241" /><path d="M771.413513 491.554133c2.653867 15.1296 4.608 26.743467-10.496 34.833067-2.0224 1.083733-15.274667 7.150933-16.119467 6.929067-1.1264-0.290133-2.065067-2.269867-2.235733-3.584-0.725333-5.76 7.355733-20.113067 10.9056-25.207467 1.348267-1.937067 9.412267-11.648 10.743466-12.322133 2.304-1.160533 4.778667-0.682667 7.202134-0.648534z m-4.283734 14.378667c-4.7104-0.802133-6.613333 0.989867-9.301333 4.386133-1.6896 2.133333-7.7312 11.639467-2.926933 12.9024 6.8096 1.792 14.011733-11.246933 12.2368-17.288533z" fill="#C5E292" /><path d="M823.347379 517.461333c-0.1536 15.854933-9.984 29.508267-21.614933 39.637334-2.6112 2.269867-4.5312 3.242667-6.528-0.682667-2.176-4.2752-0.256-21.9392 2.397867-26.496 3.6352-6.2464 18.449067-12.330667 25.745066-12.450133z m-8.6528 7.210667c-2.4064-0.392533-3.2512 0-5.077333 1.408-3.003733 2.321067-14.0544 15.445333-7.125333 17.3056 8.533333-0.546133 15.829333-10.845867 12.202666-18.7136z" fill="#C2DF90" /><path d="M770.961246 536.388267c9.6-2.2272 16.017067 14.728533 17.885867 22.135466-0.093867 1.7408-2.304 4.437333-3.8656 4.9152-0.878933 0.264533-11.127467-1.143467-12.578134-1.527466-3.677867-0.9728-11.383467-4.701867-14.9248-6.698667-2.9184-1.646933-11.264-5.870933-6.212266-9.6512 5.239467-3.925333 13.934933-5.819733 19.6864-9.173333z m-8.746667 8.584533c-1.937067 0.5632-2.7648 2.858667-2.184533 4.8128 1.339733 4.514133 15.6928 9.0624 18.5856 2.926933 0.187733-7.953067-10.402133-9.472-16.401067-7.739733z" fill="#C5E193" /><path d="M781.542579 484.309333c8.797867-0.366933 17.800533-0.017067 25.975467 3.575467 5.179733 2.2784 17.792 10.862933 7.645867 14.916267-4.881067 1.954133-19.310933 4.343467-24.072534 2.952533-7.185067-5.1456-10.8032-12.475733-9.5488-21.444267z m8.789334 14.2848c5.597867 2.397867 13.115733 7.7824 18.594133 2.295467 1.809067-6.562133-14.011733-11.537067-18.6624-7.842133l0.068267 5.5552z" fill="#C4E192" /><path d="M797.406046 518.903467c0.657067-5.000533 7.150933-9.233067 11.477333-10.8544 2.304-0.861867 10.641067-3.626667 11.588267 0.059733-2.346667 9.258667-14.574933 11.707733-23.0656 10.794667z" fill="#C5E090" /><path d="M767.129779 505.9328c1.774933 6.0416-5.4272 19.072-12.2368 17.288533-4.804267-1.262933 1.237333-10.760533 2.926934-12.9024 2.688-3.396267 4.590933-5.188267 9.301333-4.386133z" fill="#E4F7C4" /><path d="M814.694579 524.672c3.626667 7.867733-3.677867 18.167467-12.202666 18.7136-6.929067-1.860267 4.1216-14.984533 7.125333-17.3056 1.826133-1.408 2.670933-1.792 5.077333-1.408z" fill="#E2F4C0" /><path d="M762.214579 544.9728c5.998933-1.732267 16.5888-0.213333 16.401067 7.739733-2.8928 6.135467-17.237333 1.5872-18.5856-2.926933-0.580267-1.954133 0.238933-4.2496 2.184533-4.8128z" fill="#E2F3BD" /><path d="M790.331913 498.594133l-0.068267-5.5552c4.6592-3.6864 20.471467 1.288533 18.6624 7.842134-5.4784 5.486933-12.996267 0.110933-18.594133-2.295467z" fill="#DFF3BB" /><path d="M1012.181513 478.549333l1.408 23.748267c-2.466133 11.374933-4.0704 23.1168-8.618667 33.902933-3.712 8.789333-11.5456 21.1712-17.297067 28.8256-2.952533 3.925333-6.656 8.2688-10.0864 11.528534-16.64 15.812267-35.541333 27.067733-57.659733 33.152-17.416533 4.7872-29.969067 6.6816-48.264533 4.292266-4.2496-0.554667-9.301333-2.816-13.7216-2.850133l-1.288534-2.158933c3.1488-2.807467 5.5808-6.417067 8.490667-9.3696-0.938667 3.387733 2.816 3.8656 5.0688 4.3008 65.134933 12.4928 138.103467-49.8176 130.397867-117.4016-4.701867-41.250133-54.8608-61.627733-91.4688-55.492267-14.216533 2.3808-29.175467 8.7808-41.105067 16.546133 5.853867 7.031467 10.990933 14.711467 15.8464 22.340267l1.467733 15.104c2.5856 10.6496 0.034133 27.409067-2.909866 38.2208-1.8176 6.664533-9.429333 24.209067-12.970667 30.267733-2.065067 3.515733-8.576 12.066133-11.528533 15.854934-13.354667 17.117867-33.757867 32.622933-53.333334 41.796266-28.757333 13.474133-58.5728 17.518933-87.936 3.601067-1.493333-0.708267-4.992-3.746133-5.768533-0.725333-5.282133-5.410133-12.450133-11.5456-17.297067-17.297067-1.186133-1.408-0.9728-3.387733-1.442133-4.3264 2.909867-6.050133 8.541867-1.578667 10.845867 2.850133l3.566933-1.408c26.1376 28.279467 72.32 20.864 102.843733 4.104534 38.894933-21.358933 79.214933-78.0544 62.225067-123.741867-18.5088-49.792-85.4784-41.8048-121.8304-17.271467l1.851733-6.033066 11.0848-6.2464 7.2448-7.893334c0.273067-0.110933 1.169067-1.570133 2.7904-2.2016 28.040533-11.042133 60.194133-12.245333 85.845334 5.162667 11.0592-6.024533 21.239467-12.066133 33.518933-15.581867 31.658667-9.053867 67.490133-6.0928 93.371733 15.479467 11.537067 9.608533 20.1984 25.506133 26.641067 38.9376z" fill="#6EB952" /><path d="M931.464713 631.3216c-16.6912 4.829867-30.958933 7.082667-48.264534 4.292267-13.730133-2.210133-26.862933-8.021333-38.229333-15.829334 0.128-0.136533-0.059733-1.757867 0.7168-2.824533 2.3296-3.191467 8.3456-5.853867 12.2624-5.819733 4.420267 0.042667 9.472 2.304 13.7216 2.850133 18.295467 2.3808 30.848 0.494933 48.264533-4.292267 3.6096 5.316267 7.0656 10.786133 10.333867 16.324267 1.2544 2.1248 3.4304 2.5344 1.194667 5.290667z" fill="#589343" /><path d="M990.558046 596.727467c-16.7936 16.733867-36.283733 27.9808-59.101867 34.5856 2.2272-2.756267 0.059733-3.165867-1.194666-5.290667-3.268267-5.538133-6.724267-11.008-10.333867-16.324267 22.1184-6.075733 41.019733-17.339733 57.659733-33.152l2.2016 7.168 10.7776 13.0048z" fill="#61A74B" /><path d="M1019.392179 550.613333c-4.206933 13.7472-9.173333 20.718933-17.297066 31.709867-0.597333-2.952533-3.805867-7.1424-5.7344-9.3952-2.363733-2.756267-5.6576-5.853867-8.6784-7.901867 5.751467-7.6544 13.585067-20.027733 17.297066-28.8256l14.4128 14.4128z" fill="#66AC4F" /><path d="M1019.392179 550.613333l-14.4128-14.4128c4.548267-10.786133 6.152533-22.528 8.618667-33.902933l-1.408-23.748267c12.1344 25.309867 15.624533 44.535467 7.210667 72.064z" fill="#598F45" /><path d="M1002.095113 582.314667c-3.6608 4.957867-6.7328 9.6256-11.528534 14.4128l-10.7776-13.0048-2.2016-7.168c3.4304-3.259733 7.1424-7.6032 10.0864-11.528534 3.0208 2.039467 6.314667 5.1456 8.6784 7.901867 1.928533 2.2528 5.137067 6.442667 5.7344 9.3952z" fill="#569346" /><path d="M883.891379 469.905067c-4.864-7.6288-10.001067-15.3088-15.8464-22.340267 11.9296-7.765333 26.888533-14.1568 41.105067-16.546133 36.608-6.144 86.766933 14.242133 91.4688 55.492266 7.7056 67.592533-65.262933 129.8944-130.397867 117.4016-2.2528-0.4352-6.007467-0.913067-5.0688-4.3008 4.718933-4.778667 6.178133-6.587733 10.0864-11.528533 4.539733-5.7344 7.637333-8.9344 11.528534-15.854933 3.8656-6.8608 7.509333-14.114133 10.0864-21.614934 4.096 3.063467 10.308267 7.3472 14.293333 2.048 1.160533-6.289067-1.8176-12.296533-6.365867-16.452266l-2.158933 9.3696-2.884267-3.6096c1.2288-5.239467 0.9216-9.480533 1.442134-14.4128 0.238933-2.2272 1.877333-3.746133 1.416533-7.901867-2.235733-20.130133-8.098133-33.083733-18.7136-49.749333z m59.042134 27.3152l-0.622934-7.185067c-9.6768-8.618667-22.1184-14.3104-35.362133-12.936533-0.853333 7.048533 2.321067 17.152 8.661333 20.8896 1.595733 0.938667 10.4192 3.447467 11.972267 3.328 4.3264-0.341333 10.6752-3.549867 15.342933-4.104534z m1.493333 5.853866c-8.507733-2.875733-16.836267 0.2304-23.048533 6.459734 6.178133 6.1952 16.034133 4.1728 22.408533-0.648534l0.64-5.8112z m-25.941333 25.198934c-1.092267 4.906667 0 17.0752 0 23.057066 0 1.9456 4.215467 2.423467 6.272 1.954134 9.9328-2.2784 22.6048-26.9312 25.2928-36.565334l-6.0928-3.370666c-5.896533 3.5328-16.7424 2.679467-21.205334 7.671466-0.7168 0.802133-4.138667 6.647467-4.2752 7.261867z" fill="#DAEFB2" /><path d="M918.485513 528.273067c0.136533-0.6144 3.5584-6.4512 4.2752-7.261867 4.462933-4.992 15.3088-4.130133 21.205333-7.671467l6.0928 3.370667c-2.688 9.634133-15.36 34.286933-25.2928 36.565333-2.056533 0.469333-6.272-0.008533-6.272-1.954133 0-5.981867-1.092267-18.158933 0-23.057067z m5.768533 9.3696c8.0384 4.548267 20.522667-10.333867 13.678933-17.297067-4.3776-1.066667-15.069867 12.032-13.678933 17.297067z" fill="#C4E194" /><path d="M942.933513 497.220267c-4.667733 0.554667-11.016533 3.7632-15.342934 4.104533-1.553067 0.119467-10.376533-2.389333-11.972266-3.328-6.3488-3.7376-9.514667-13.841067-8.661334-20.8896 13.243733-1.373867 25.685333 4.317867 35.362134 12.936533l0.622933 7.185067z m-26.504534-11.357867c-1.117867 0.324267-2.670933 2.133333-2.269866 3.490133 1.860267 4.155733 16.930133 12.1344 18.679466 5.717334 2.048-7.492267-10.9824-10.8032-16.418133-9.207467z" fill="#C3DF92" /><path d="M944.426846 503.074133l-0.64 5.8112c-6.3744 4.821333-16.2304 6.843733-22.408533 0.648534 6.212267-6.237867 14.5408-9.335467 23.048533-6.459734z" fill="#C0DE8E" /><path d="M896.862046 550.613333c0.8192-2.389333 2.4832-6.929067 2.884267-8.644266l2.884266 3.6096 2.158934-9.3696c4.548267 4.155733 7.5264 10.1632 6.365866 16.452266-3.985067 5.307733-10.197333 1.024-14.293333-2.048z" fill="#C0E291" /><path d="M924.254046 537.642667c-1.390933-5.265067 9.301333-18.363733 13.678933-17.297067 6.843733 6.9632-5.640533 21.845333-13.678933 17.297067z" fill="#E3F4C3" /><path d="M916.428979 485.8624c5.435733-1.595733 18.466133 1.7152 16.418134 9.207467-1.757867 6.417067-16.8192-1.5616-18.679467-5.717334-0.4096-1.3568 1.152-3.157333 2.269867-3.490133z" fill="#E4F4BE" /><path d="M654.694579 381.986133c-16.2816-1.425067-28.168533-0.298667-41.105066 10.0608-51.0208 40.849067-56.900267 144.494933-26.641067 198.912-22.826667 0.0768-45.687467-0.068267-68.5312-0.068266-64.657067 0-130.696533 0.068267-195.908267 0.145066l-1.5872-3.037866-17.9456-1.365334c-0.9472-0.068267-1.9456 0.1024-2.884266 0-0.392533-0.042667-4.113067-2.781867-7.210667-1.442133l-64.093867-8.695467c-49.425067-9.813333-98.816-24.618667-140.5952-53.2736-0.315733-0.213333-0.093867-2.235733-2.8672-1.442133l-2.176 4.317867-3.601066-2.875734c0.187733-2.679467-2.158933-4.565333-2.653867-6.715733-0.4608-1.9712-1.501867-7.432533-1.664-9.1392-0.443733-4.667733-0.4608-12.637867 0-17.297067 0.503467-5.051733 2.9952-13.4144 4.6336-19.1488 0.896-3.140267 2.577067-4.053333 2.577067-8.234666 3.746133 0.810667 2.7648-1.664 4.036266-3.857067 38.3744-65.988267 123.895467-74.0352 192.6912-76.8768 122.069333-1.774933 245.1968-2.491733 367.607467-1.408 2.372267 0.017067 6.7328-1.066667 7.936 1.4336z m-318.5664 47.5648c-7.722667 0.9984-14.933333-0.904533-22.2976-1.493333-30.2592-2.414933-60.433067-2.8928-90.922666-1.4592-35.7376 1.672533-106.376533 16.2816-129.6128 46.242133-0.878933 1.134933-4.539733 6.2976-3.6608 7.1424 2.269867 0.324267 3.8656-1.194667 5.6832-2.244266 58.624-33.732267 137.6256-44.16 203.989333-46.8224 10.538667-0.418133 21.213867 0.273067 31.778133 0.059733 1.749333-0.034133 5.384533 1.0752 5.0432-1.4336z m-4.3264 92.2368c-5.9648-0.315733-12.125867 0.392533-18.082133 0.059734-22.4-1.262933-45.166933-2.901333-67.6608-4.411734-50.133333-3.370667-100.113067-10.0864-149.9136-14.4128-2.3552-0.2048-4.992-2.269867-7.953067-1.408 1.083733 2.304 4.522667 4.2496 6.715734 5.538134 9.617067 5.6576 23.7056 9.0112 34.705066 11.426133 56.4736 12.398933 125.218133 10.9568 182.7072 6.0672 1.493333-0.128 2.909867-1.28 4.386134-1.3824 3.336533-0.238933 6.715733 0.0256 10.0608-0.034133 1.7408-0.0256 5.384533 1.066667 5.0432-1.4336z" fill="#6CB64E" /><path d="M88.192179 523.229867c-2.8672 0.571733 1.518933 3.677867 2.158934 4.3264 9.403733 9.4208 17.706667 18.4832 29.047466 25.719466 49.5616 31.616 114.184533 36.2752 171.383467 36.317867l12.1856-2.944 17.9456 1.365333 1.5872 3.037867c65.211733-0.0768 131.2512-0.136533 195.908267-0.145067 22.843733 0 45.704533 0.145067 68.5312 0.068267 7.927467 14.2592 26.274133 35.080533 42.743466 38.690133 2.5344 0.554667 6.468267-0.9216 7.7056 1.664-108.893867 3.029333-219.3152-1.092267-327.970133-1.408-76.7232-2.670933-172.416-10.385067-220.074667-79.735466l-11.255466-24.064c0.315733-0.9216 1.390933-2.116267 1.442133-2.884267l3.601067 2.875733 2.176-4.317866c2.773333-0.7936 2.551467 1.2288 2.8672 1.442133z" fill="#62A648" /><path d="M654.694579 381.986133c7.338667 0.64 14.498133 4.5824 20.181334 8.644267l-1.314134 0.827733c-1.092267 4.241067 1.954133 7.8592 1.314134 12.142934-22.3232-18.423467-49.860267-10.4704-66.9696 10.146133-32.631467 39.338667-36.078933 117.2736-15.940267 162.824533 7.714133 17.442133 21.742933 35.8912 40.686933 41.472 22.331733 6.5792 44.586667-11.579733 55.202134-29.969066l2.6112 0.196266c-0.1792 2.218667 1.2032 3.0976 1.7152 4.130134 0.469333 0.938667 0.256 2.909867 1.442133 4.3264-7.381333 12.9792-17.390933 25.386667-31.6928 31.010133-9.156267 3.601067-15.044267 3.319467-24.5248 3.584-1.237333-2.5856-5.1712-1.109333-7.7056-1.664-16.469333-3.6096-34.816-24.430933-42.743467-38.690133-30.2592-54.417067-24.379733-158.062933 26.641067-198.912 12.936533-10.359467 24.823467-11.485867 41.105067-10.0608z" fill="#549040" /><path d="M68.010846 487.202133c0.9984 0.273067 3.396267 2.517333 6.340267 1.621334l0.861866 1.262933c-0.4608 4.6592-0.443733 12.629333 0 17.297067l-17.297066-1.442134c-12.885333-0.008533-27.1104-4.181333-38.946134-9.344-3.84-1.672533-14.1568-6.647467-16.5632-9.378133-8.669867-9.864533 7.970133-29.3632 20.010667-25.770667 2.082133 0.622933 8.593067 7.381333 11.042133 9.130667 10.973867 7.773867 21.888 13.218133 34.5344 16.631467z" fill="#605630" /><path d="M75.212979 507.374933c0.162133 1.706667 1.211733 7.159467 1.664 9.1392 0.494933 2.1504 2.8416 4.036267 2.653867 6.715734-0.0512 0.759467-1.1264 1.962667-1.442133 2.884266-2.2528 6.647467-5.2736 13.687467-10.0608 19.4816-6.485333 7.842133-16.733867 14.958933-27.3408 13.5936-6.152533-20.7872 8.106667-39.739733 24.430933-51.0976l-7.202133-2.158933 17.297066 1.442133z" fill="#588343" /><path d="M82.423646 462.6944c0 4.181333-1.672533 5.0944-2.577067 8.234667-1.6384 5.7344-4.130133 14.088533-4.6336 19.1488l-0.861866-1.262934c-2.944 0.887467-5.341867-1.3568-6.340267-1.621333-12.0576-11.511467-18.244267-30.045867-12.305067-46.173867 2.696533-7.313067 4.898133-9.3696 11.613867-4.3008 6.5024 4.906667 15.095467 17.646933 15.104 25.975467z" fill="#588341" /><path d="M682.086579 396.398933l-1.28 2.158934 0.477867 0.7168c2.056533 1.749333 3.5072 4.6336 6.562133 4.3264 8.046933 11.682133 14.404267 19.285333 19.473067 33.134933 4.1728 11.383467 6.818133 23.953067 7.9104 36.0448-0.136533 0.136533 0 2.090667-1.373867 3.626667-1.314133 1.467733-5.4784 4.471467-5.8368 5.0176-2.0224-16.264533-5.4528-32.5632-12.228266-47.581867-3.968-8.789333-13.602133-24.192-20.923734-30.242133 0.64-4.283733-2.4064-7.901867-1.314133-12.142934l1.314133-0.827733c1.885867 1.348267 4.9408 3.9936 7.210667 5.768533z" fill="#4F853C" /><path d="M687.846579 403.6096c-3.063467 0.315733-4.5056-2.577067-6.562133-4.3264l-0.477867-0.7168 1.28-2.158933c4.5312 3.5328 3.4816 3.882667 5.768534 7.202133z" fill="#549040" /><path d="M331.801779 521.787733c0.341333 2.5088-3.3024 1.408-5.0432 1.4336-3.345067 0.0512-6.7328-0.2048-10.0608 0.034134-1.467733 0.1024-2.884267 1.2544-4.386133 1.3824-57.489067 4.8896-126.2336 6.331733-182.7072-6.0672-10.999467-2.414933-25.079467-5.76-34.705067-11.426134-2.184533-1.288533-5.632-3.234133-6.715733-5.538133 2.9696-0.861867 5.597867 1.2032 7.953067 1.408 49.800533 4.3264 99.780267 11.042133 149.9136 14.4128 22.493867 1.5104 45.2608 3.157333 67.6608 4.411733 5.956267 0.3328 12.117333-0.375467 18.082133-0.059733z" fill="#5A9B41" /><path d="M336.128179 429.550933c0.341333 2.5088-3.293867 1.399467-5.0432 1.4336-10.564267 0.213333-21.239467-0.4864-31.778133-0.059733-66.363733 2.653867-145.365333 13.0816-203.989333 46.8224-1.8176 1.0496-3.413333 2.577067-5.6832 2.244267-0.878933-0.8448 2.781867-6.007467 3.6608-7.1424 23.236267-29.960533 93.8752-44.561067 129.6128-46.242134 30.481067-1.4336 60.654933-0.955733 90.922666 1.4592 7.355733 0.5888 14.574933 2.491733 22.2976 1.493334z" fill="#599B3F" /><path d="M292.881246 585.198933l0.853333 1.288534 6.357334 0.1536c0.938667 0.1024 1.937067-0.068267 2.884266 0l-12.1856 2.944c-57.198933-0.042667-121.821867-4.701867-171.383466-36.317867-11.3408-7.236267-19.643733-16.3072-29.047467-25.719467-0.648533-0.648533-5.034667-3.754667-2.158933-4.3264 41.7792 28.654933 91.170133 43.460267 140.5952 53.2736l64.093866 8.695467z" fill="#58953F" /><path d="M300.091913 586.641067l-6.357334-0.1536-0.853333-1.288534c3.0976-1.339733 6.818133 1.399467 7.210667 1.442134z" fill="#62A648" /><path d="M674.875913 403.6096c7.3216 6.0416 16.964267 21.444267 20.923733 30.242133 6.775467 15.0272 10.197333 31.317333 12.228267 47.581867-0.315733 0.494933-0.196267 2.551467-1.109334 3.882667-21.623467 31.394133-32.904533 65.186133-19.072 102.766933-10.606933 18.3808-32.861867 36.548267-55.202133 29.969067-18.944-5.5808-32.9728-24.029867-40.686933-41.472-20.138667-45.550933-16.6912-123.485867 15.940266-162.824534 17.109333-20.616533 44.6464-28.578133 66.9696-10.146133z m-33.672534 49.1776c-4.676267 0.913067-16.7424 14.958933-19.438933 19.498667-3.2512 5.495467-4.625067 9.984-5.3248 16.341333-0.145067 1.322667-1.527467 2.210133 0.733867 3.652267 5.4272 3.456 14.711467 1.672533 20.974933 2.158933l2.158933-0.7168c2.500267-2.363733 5.239467-5.0944 5.725867-8.686933 0.776533-5.691733 0.8192-23.210667 0.042667-28.868267-0.418133-3.054933-2.065067-3.933867-4.8896-3.3792z m15.675734 1.28c-6.3232 1.757867-2.517333 28.0064-2.039467 33.706667 1.314133 4.522667 17.902933 5.512533 22.144 8.064 6.050133-1.518933-1.467733-18.833067-3.259733-22.621867-2.517333-5.333333-7.901867-14.216533-12.509867-17.757867-1.416533-1.092267-2.295467-1.962667-4.343467-1.390933z m20.872533 53.282133c3.310933-10.231467-16.708267-11.426133-18.6368-4.906666-2.321067 7.850667 14.0288 6.8096 18.6368 4.906666z m-36.027733 44.706134c2.2272-8.610133 5.572267-29.277867 1.237333-36.548267-5.282133-8.8576-17.8176-9.864533-27.1872-9.5744-0.4352 7.466667 1.271467 15.351467 4.5312 22.135467 2.423467 5.0432 12.219733 19.6352 16.5888 22.3232 1.4848 0.913067 2.961067 1.92 4.821333 1.664z m11.528533-26.666667c-1.117867 6.570667 0 18.577067 0 25.941333 0 0.4352 2.372267 2.7136 3.601067 2.158934 11.537067-10.410667 22.084267-25.557333 20.906666-41.796267-6.4512-0.1536-18.7904 2.978133-22.331733 8.661333-0.315733 0.512-2.1248 4.7616-2.176 5.034667z" fill="#DAF0B1" /><path d="M641.203379 452.7872c2.824533-0.554667 4.462933 0.324267 4.8896 3.3792 0.776533 5.6576 0.725333 23.176533-0.042666 28.868267-0.4864 3.584-3.2256 6.314667-5.725867 8.686933l-2.158933 0.7168c-6.263467-0.477867-15.556267 1.297067-20.974934-2.158933-2.261333-1.442133-0.878933-2.3296-0.733866-3.652267 0.699733-6.357333 2.0736-10.8544 5.3248-16.341333 2.688-4.548267 14.762667-18.5856 19.438933-19.498667z m-4.386133 12.936533c-3.387733 0.981333-11.741867 17.0496-5.905067 18.594134 5.9904 1.5872 10.564267-11.1104 12.1088-15.325867l-2.048-3.387733c-1.365333-0.0512-2.833067-0.264533-4.155733 0.119466z" fill="#C5E394" /><path d="M641.723913 552.055467c-1.860267 0.256-3.336533-0.750933-4.821334-1.664-4.369067-2.688-14.165333-17.28-16.5888-22.3232-3.259733-6.784-4.9664-14.6688-4.5312-22.135467 9.3696-0.290133 21.905067 0.708267 27.1872 9.5744 4.334933 7.2704 0.989867 27.946667-1.237333 36.548267z m-4.3264-17.297067c1.698133-4.9664-2.167467-22.186667-9.233067-20.078933-5.504 1.6384-3.131733 7.671467-1.595733 11.451733 2.116267 5.1968 4.386133 9.856 10.8288 8.6272z" fill="#C6E395" /><path d="M656.879113 454.0672c2.048-0.571733 2.9184 0.298667 4.343466 1.390933 4.599467 3.549867 9.984 12.424533 12.509867 17.757867 1.783467 3.7888 9.309867 21.102933 3.259733 22.621867-4.232533-2.56-20.829867-3.549867-22.144-8.064-0.477867-5.700267-4.292267-31.957333 2.039467-33.706667z m9.096533 16.1024c-0.853333-0.836267-6.3232-2.338133-6.954667-1.706667-0.4352 7.714133 1.9456 18.0224 9.386667 21.486934 5.691733-3.5328 3.362133-8.6784 1.024-13.8752-0.349867-0.776533-3.208533-5.674667-3.447467-5.9136z" fill="#C5E292" /><path d="M653.252446 525.3888c0.042667-0.273067 1.851733-4.522667 2.176-5.034667 3.541333-5.6832 15.880533-8.823467 22.331733-8.661333 1.1776 16.238933-9.3696 31.3856-20.906666 41.796267-1.2288 0.554667-3.601067-1.723733-3.601067-2.158934 0-7.364267-1.117867-19.370667 0-25.941333z m17.297067-7.927467c-2.423467-0.366933-3.234133 0-5.077334 1.408-5.666133 4.334933-8.379733 11.767467-7.893333 18.7648 8.2176 4.283733 15.2064-17.877333 12.970667-20.1728z" fill="#C5E393" /><path d="M677.751646 507.349333c-4.608 1.902933-20.957867 2.935467-18.6368-4.906666 1.928533-6.519467 21.947733-5.3248 18.6368 4.906666z" fill="#C2E08D" /><path d="M636.817246 465.723733c1.322667-0.384 2.7904-0.170667 4.155733-0.119466l2.048 3.387733c-1.544533 4.215467-6.1184 16.913067-12.1088 15.325867-5.8368-1.544533 2.517333-17.6128 5.905067-18.594134z" fill="#E2F5BF" /><path d="M637.397513 534.7584c-6.442667 1.220267-8.712533-3.4304-10.8288-8.6272-1.536-3.780267-3.908267-9.813333 1.595733-11.451733 7.074133-2.107733 10.9312 15.112533 9.233067 20.078933z" fill="#E2F4BF" /><path d="M665.975646 470.1696c0.247467 0.238933 3.0976 5.137067 3.447467 5.9136 2.346667 5.188267 4.676267 10.3424-1.024 13.8752-7.441067-3.464533-9.813333-13.7728-9.386667-21.486933 0.631467-0.64 6.101333 0.861867 6.954667 1.706666z" fill="#E3F5BE" /><path d="M670.549513 517.461333c2.235733 2.295467-4.753067 24.456533-12.970667 20.1728-0.4864-6.997333 2.2272-14.4384 7.893333-18.7648 1.8432-1.408 2.645333-1.774933 5.077334-1.408z" fill="#E2F4BB" /></svg>