<?xml version="1.0" standalone="no"?><!DOCTYPE svg PUBLIC "-//W3C//DTD SVG 1.1//EN" "http://www.w3.org/Graphics/SVG/1.1/DTD/svg11.dtd"><svg class="icon" width="256px" height="256.00px" viewBox="0 0 1024 1024" version="1.1" xmlns="http://www.w3.org/2000/svg"><path d="M1021.710669 248.96c-5.205333 69.6576 6.920533 148.829867 0.213333 217.2928-1.143467 11.6992-7.560533 32.366933-15.3344 40.8576-35.874133 21.947733-71.586133 44.424533-107.690667 65.979733-71.8592 42.897067-147.592533 83.857067-221.175466 126.165334-69.717333 40.0896-140.663467 87.364267-212.778667 121.787733-10.9312 0-19.2256 4.317867-30.6432 5.111467l35.746133-23.005867c2.730667-12.049067-8.098133-5.674667-15.598933-10.0864-3.370667-1.988267-3.4048-6.1184-4.821333-7.773867l25.540266 5.128534c-1.7152-8.618667 3.7632-15.445333 5.034667-23.082667 5.137067-30.8736 8.123733-51.473067 10.2912-84.1984 2.423467-36.599467 8.6528-67.797333 10.2144-107.264 0.7936-20.087467 3.498667-50.781867 17.860267-66.551467 3.396267-3.729067 8.6528-3.584 11.6992-6.331733 1.6896-1.518933 0.418133-6.724267 1.860266-7.8336 2.653867-2.048 9.386667-0.8448 14.327467-3.652267 53.2224-30.208 109.986133-52.949333 163.4816-81.826133 59.886933-32.3328 116.548267-73.454933 173.866667-109.6192 22.877867-14.429867 48.0512-29.482667 71.278933-43.648 14.6944-8.968533 29.3376-18.551467 43.997867-27.630933l22.638933 20.206933z" fill="#FEDD79" /><path d="M265.742669 371.549867c6.331733-7.2192 6.135467-10.769067 19.677866-11.272534l1.501867-8.123733 39.3984-12.288 1.288533-8.354133 39.509334-12.117334 1.5872-8.064C465.926135 266.120533 562.967202 212.104533 657.533602 163.1488c34.500267-17.860267 72.507733-42.794667 111.4624-46.890667 21.265067-2.235733 23.406933 6.442667 36.437333 9.326934 8.046933 1.783467 16.580267-0.571733 24.0384 1.501866 15.368533 4.2752 46.446933 31.7184 68.957867 30.9504l1.194667 8.448c19.4048-3.754667 24.328533 6.664533 36.701866 12.0832 33.032533 14.446933 82.978133 26.888533 85.393067 70.4l-22.638933-20.206933c-14.660267 9.088-29.303467 18.670933-43.997867 27.630933-23.2192 14.173867-48.401067 29.218133-71.278933 43.648 8.840533-11.656533 4.5056-12.509867-7.688534-10.248533-31.394133 5.828267-66.500267 39.125333-99.012266 41.719467l-1.288534 8.354133c-28.509867 5.632-50.875733 31.172267-80.426666 32.520533l-1.3312 8.32c-44.834133 20.923733-94.916267 42.615467-139.067734 68.104534-9.480533 5.469867-14.0032 15.146667-27.1104 18.858666-40.379733 11.434667-79.991467 6.7584-118.545066-5.0176l-1.117867-8.5504c-14.250667 3.498667-21.4272-8.362667-28.245333-10.333866-10.0608-2.9184-23.739733 0.989867-35.012267-5.853867l-2.474667 15.146667 25.4208 15.5392c-13.141333-5.691733-26.385067-12.16-40.0896-16.392534l-1.348266-8.311466-19.857067-3.387734-66.4064-43.4176c8.772267-8.7552 17.2544-16.1024 25.540267-25.540266z" fill="#FEF0B3" /><path d="M265.742669 371.549867c-8.285867 9.437867-16.768 16.785067-25.540267 25.540266-1.220267 1.211733-5.154133 1.399467-7.5264 5.026134-19.165867 29.269333-13.917867 115.456-12.9024 153.3184 0.580267 21.5296-6.033067 36.420267 12.680533 51.165866 10.325333 8.132267 19.114667 7.662933 28.16 12.706134 9.454933 5.2736 19.421867 11.178667 29.226667 16.7424 12.228267 6.9376 22.869333 19.037867 37.188267 21.5552 1.3056 8.3968-6.8864 4.932267-12.740267 5.0944-11.451733 0.3072-30.4896-4.283733-38.331733 5.111466-19.387733 2.193067-46.336 20.573867-58.5216 35.976534-3.899733 4.923733-21.9904 31.991467-23.202134 35.5328l-15.300266 10.222933c0.443733-7.9872-4.343467-13.346133-10.3424-17.800533-32.9216-24.3968-68.1984-48.0512-102.178134-71.4752-6.357333-4.3776-15.633067-6.152533-20.462933-10.180267-7.261867-6.050133-1.979733-14.5408-7.492267-18.030933-38.673067 30.088533-26.436267 79.274667-28.1088 122.589866-13.9776-30.583467-12.2112-44.689067-4.0448-78.1056 10.180267-41.668267 37.751467-77.883733 73.9584-99.703466 15.2832 0.162133 24.8832-10.4192 39.722667-11.400534 12.552533-0.827733 44.1344 5.717333 55.432533 11.374934 10.641067 5.333333 13.021867 14.754133 29.124267 16.930133 2.619733 5.239467 10.120533-4.522667 10.120533-5.0944V414.976c0-8.533333 25.4976-27.4944 29.6448-36.8384l21.435734-6.5792z" fill="#FEF2BD" /><path d="M41.000269 795.502933c1.262933-14.2336-22.408533-30.472533-24.9088-38.9376-4.4544-15.112533 1.885867-41.2928-0.622934-58.103466l10.8544 9.284266c32.520533 0.2304 40.772267 25.796267 56.4224 40.874667 6.5024 6.263467 35.037867 9.5232 45.277867 13.4912 10.308267 3.9936 13.422933 11.178667 20.2752 15.488 10.197333 6.408533 23.6288 0.930133 20.4032 23.04l15.317333-20.4544c-2.978133 38.254933 6.365867 84.420267 41.002667 104.584533 22.7072 13.218133 35.165867 3.1488 52.778667 8.490667 5.316267 1.6128 9.275733 11.3152 15.650133 9.3952l12.7232-12.663467c-4.957867-5.1968-8.507733-7.432533-9.838933-15.274666-2.346667-13.806933 12.5952-3.4048 15.377066-12.808534 5.060267-0.128 10.3168 0.469333 15.325867 0 29.4656-2.7648 39.808-25.403733 59.5712-29.815466 13.738667-3.063467 32.469333 4.599467 42.581333-5.9392 1.698133-0.119467 3.413333 0.119467 5.111467 0 11.4176-0.785067 19.720533-5.102933 30.6432-5.111467-1.4336 0.682667-3.959467 5.819733-9.787733 7.927467-22.4256 8.1152-44.142933 6.050133-67.0464 9.728l-4.386134 5.8368c5.367467 38.792533-59.392 60.398933-90.001066 63.214933-38.6304 3.549867-90.888533-20.164267-126.523734-36.701867-40.209067-18.6624-92.637867-47.138133-126.208-75.5456z" fill="#FDE487" /><path d="M10.348535 754.645333C12.012535 711.338667-0.224265 662.152533 38.448802 632.064c5.521067 3.490133 0.2304 11.9808 7.492267 18.030933 4.8384 4.027733 14.114133 5.794133 20.462933 10.180267 33.979733 23.424 69.265067 47.0784 102.178133 71.4752 5.998933 4.445867 10.786133 9.813333 10.3424 17.800533l15.300267-10.222933c-1.2288 3.584 0.827733 10.7776 0 15.325867-9.728 6.152533-9.437867 15.530667-10.2144 25.540266l-15.317333 20.4544c3.217067-22.1184-10.205867-16.631467-20.4032-23.04-6.852267-4.309333-9.9584-11.4944-20.2752-15.488-10.248533-3.968-38.775467-7.2192-45.277867-13.4912-15.650133-15.0784-23.901867-40.644267-56.4224-40.874666l-10.8544-9.284267c2.5088 16.810667-3.831467 42.990933 0.622933 58.103467 2.500267 8.465067 26.1632 24.712533 24.9088 38.9376-18.619733-15.761067-20.795733-19.310933-30.6432-40.866134z" fill="#FEEAA2" /><path d="M240.210935 397.090133l66.4064 43.4176 19.857067 3.387734 1.348267 8.311466c13.704533 4.232533 26.948267 10.7008 40.0896 16.392534 13.141333 5.691733 26.385067 12.16 40.0896 16.392533l1.339733 8.32c27.946667-4.898133 38.203733 28.996267 51.84 40.686933 2.1504 1.8432 6.792533 0.3584 8.2176 1.476267 2.8928 2.286933 4.096 61.841067 5.879467 73.4976 2.0992 13.696 7.714133 29.5424 10.129066 43.511467l10.103467-23.082667c3.0976-16.110933-6.212267-40.123733 5.205333-53.5296-1.5616 39.466667-7.790933 70.664533-10.2144 107.264-19.626667-2.952533-22.0672-23.552-39.0144-35.0464-26.069333-17.681067-51.3792-13.0816-78.336-28.928-24.132267-14.190933-97.809067-65.962667-121.0368-67.9168-7.68-0.648533-21.504 7.9616-32.3328 4.1984-1.015467-37.8624-6.263467-124.049067 12.9024-153.3184 2.372267-3.626667 6.314667-3.805867 7.5264-5.026133z" fill="#FEEBA4" /><path d="M490.493602 683.127467c-2.167467 32.725333-5.1456 53.3248-10.2912 84.1984-1.271467 7.645867-6.741333 14.464-5.034667 23.082666l-25.540266-5.128533c-6.869333-7.978667-12.330667-3.438933-20.5568-7.552-6.775467-3.387733-12.373333-13.269333-25.412267-17.988267 10.402133-22.715733 1.390933-38.016-12.996267-55.9616-14.7456-18.389333-18.363733-10.999467-33.211733-17.8688-11.630933-5.384533-19.652267-14.600533-33.9712-17.109333-12.5696-2.2016-34.798933-2.449067-47.522133-1.006933 7.842133-9.3952 26.88-4.795733 38.331733-5.111467 5.853867-0.162133 14.045867 3.3024 12.740267-5.0944-14.318933-2.517333-24.96-14.6176-37.188267-21.5552-9.813333-5.563733-19.771733-11.460267-29.226667-16.7424-9.045333-5.0432-17.834667-4.565333-28.16-12.706133-18.7136-14.754133-12.100267-29.636267-12.680533-51.165867 10.8288 3.7632 24.6528-4.846933 32.3328-4.1984 23.227733 1.954133 96.913067 53.725867 121.0368 67.9168 26.9568 15.8464 52.266667 11.246933 78.336 28.928 16.9472 11.4944 19.396267 32.1024 39.0144 35.0464z" fill="#FDE590" /><path d="M367.903735 468.599467l-25.4208-15.5392 2.474667-15.146667c11.272533 6.843733 24.951467 2.935467 35.012267 5.853867 6.818133 1.9712 13.994667 13.832533 28.245333 10.333866l1.117867 8.5504c38.5536 11.776 78.173867 16.452267 118.545066 5.0176 13.1072-3.712 17.629867-13.3888 27.1104-18.858666 44.151467-25.489067 94.225067-47.1808 139.067734-68.104534l1.3312-8.32c29.550933-1.348267 51.9168-26.888533 80.426666-32.520533l1.288534-8.354133c32.512-2.602667 67.618133-35.8912 99.012266-41.719467 12.194133-2.261333 16.529067-1.408 7.688534 10.248533-57.3184 36.164267-113.979733 77.294933-173.866667 109.6192-53.495467 28.8768-110.2592 51.618133-163.4816 81.826134-4.9408 2.807467-11.6736 1.604267-14.327467 3.652266-1.4336 1.109333-0.170667 6.314667-1.860266 7.8336-3.054933 2.756267-8.302933 2.602667-11.6992 6.331734-14.353067 15.7696-17.066667 46.464-17.860267 66.551466-11.4176 13.405867-2.116267 37.418667-5.205333 53.5296l-10.103467 23.082667c-2.414933-13.960533-8.029867-29.815467-10.129067-43.511467-1.783467-11.656533-2.986667-71.2192-5.879466-73.4976-1.416533-1.117867-6.0672 0.366933-8.2176-1.476266-13.636267-11.690667-23.893333-45.585067-51.84-40.686934l-1.339734-8.32c-13.704533-4.232533-26.948267-10.7008-40.0896-16.392533z" fill="#FDF5CA" /><path d="M224.885069 759.748267c0.989867-4.241067 10.129067-28.654933 11.357866-29.781334 1.544533-1.408 6.212267-0.256 7.773867-1.92 2.619733-2.7904 2.338133-8.2688 6.306133-11.6736 2.602667-2.235733 19.003733-14.788267 20.394667-15.505066 8.149333-4.224 37.9136-4.317867 46.250667-0.008534 4.599467 2.3808 19.524267 24.96 20.386133 30.6688 3.754667 24.8576-10.948267 31.402667-10.6752 53.384534l-45.3888 5.248c-11.298133-20.266667 8.516267-29.5936 4.881067-50.850134-29.4656-5.4784-47.368533 34.0736-40.226134 58.103467 2.2016 7.3984 25.122133 30.685867 33.314134 33.1008 7.364267 2.167467 26.641067 1.7152 35.234133 0.955733 6.587733-0.580267 27.136-9.181867 32.904533-13.064533 13.013333-8.763733 22.647467-21.546667 21.3248-37.691733l8.567467-1.1008c1.646933-10.043733-1.408-18.952533 8.704-24.96 5.4784 2.133333 12.6208 3.259733 17.655467 5.077333 13.038933 4.718933 18.645333 14.600533 25.412266 17.988267 8.226133 4.113067 13.687467-0.426667 20.5568 7.552 1.425067 1.655467 1.450667 5.7856 4.821334 7.773866 7.5008 4.420267 18.3296-1.962667 15.598933 10.0864l-35.746133 23.005867c-1.698133 0.119467-3.413333-0.119467-5.111467 0-12.4416 0.853333-26.120533-1.493333-38.229333 0.085333-24.576 3.2-43.9552 22.562133-63.931734 35.669334-5.000533 0.469333-10.2656-0.128-15.325866 0-11.511467 0.290133-27.938133 1.6896-38.434134 0.119466-9.130667-1.365333-15.5136-12.398933-27.178666-11.127466-12.373333-21.8112-23.261867-37.034667-26.274134-63.0528 5.5296-9.002667 3.242667-20.3008 5.051734-28.100267z" fill="#FDD051" /><path d="M275.965602 667.810133c12.7232-1.442133 34.952533-1.194667 47.522133 1.006934 14.318933 2.5088 22.340267 11.7248 33.9712 17.109333 14.848 6.869333 18.4576-0.520533 33.211734 17.8688 14.395733 17.9456 23.406933 33.245867 12.996266 55.9616-5.034667-1.8176-12.177067-2.944-17.655466-5.077333-10.120533 6.007467-7.057067 14.916267-8.704 24.96l-8.567467 1.1008c1.322667 16.136533-8.311467 28.919467-21.3248 37.691733-5.768533 3.882667-26.3168 12.4928-32.904533 13.064533-8.584533 0.750933-27.869867 1.211733-35.234134-0.955733-8.192-2.414933-31.112533-25.7024-33.314133-33.1008-7.1424-24.0384 10.752-63.581867 40.226133-58.103467 3.626667 21.256533-16.1792 30.583467-4.881066 50.850134l45.3888-5.248c-0.273067-21.981867 14.429867-28.526933 10.6752-53.384534-0.861867-5.7088-15.778133-28.296533-20.386134-30.6688-8.337067-4.3008-38.101333-4.215467-46.250666 0.008534-1.3824 0.7168-17.783467 13.269333-20.394667 15.505066-3.976533 3.4048-3.6864 8.8832-6.306133 11.6736-1.5616 1.664-6.229333 0.503467-7.773867 1.92-1.2288 1.1264-10.376533 25.531733-11.357867 29.781334-4.155733 1.450667-6.382933 18.4576-12.8256 5.162666-4.138667-8.533333-0.349867-19.1744-10.1632-25.591466l-7.6544 15.317333c0.827733-4.548267-1.2288-11.733333 0-15.325867 1.220267-3.541333 19.310933-30.609067 23.202134-35.5328 12.1856-15.402667 39.133867-33.774933 58.5216-35.976533z" fill="#FDE185" /><path d="M194.233335 754.645333l7.6544-15.317333c9.821867 6.417067 6.033067 17.0496 10.1632 25.591467 6.442667 13.294933 8.669867-3.712 12.8256-5.162667-1.8176 7.799467 0.469333 19.106133-5.051733 28.100267 3.012267 26.018133 13.9008 41.250133 26.274133 63.0528 11.665067-1.271467 18.048 9.762133 27.178667 11.127466 10.496 1.570133 26.922667 0.170667 38.434133-0.119466-2.781867 9.412267-17.7152-0.989867-15.377066 12.808533 1.3312 7.842133 4.881067 10.0864 9.838933 15.274667l-12.7232 12.663466c-6.382933 1.911467-10.333867-7.7824-15.650133-9.3952-17.6128-5.341867-30.071467 4.727467-52.778667-8.490666-34.6368-20.164267-43.9808-66.321067-41.002667-104.584534 0.776533-10.001067 0.4864-19.387733 10.2144-25.540266zM429.198669 826.154667c-10.112 10.538667-28.842667 2.875733-42.581334 5.9392-19.771733 4.411733-30.114133 27.042133-59.5712 29.815466 19.976533-13.1072 39.355733-32.469333 63.931734-35.669333 12.1088-1.578667 25.787733 0.768 38.229333-0.085333z" fill="#FEDD79" /></svg>