<?xml version="1.0" standalone="no"?><!DOCTYPE svg PUBLIC "-//W3C//DTD SVG 1.1//EN" "http://www.w3.org/Graphics/SVG/1.1/DTD/svg11.dtd"><svg class="icon" width="256px" height="256.00px" viewBox="0 0 1024 1024" version="1.1" xmlns="http://www.w3.org/2000/svg"><path d="M753.540722 30.753978c14.651659-0.401065-5.691705 7.551962-5.674638 9.949816 4.164246 10.709279 21.119893 9.386619 25.062273 13.328999 1.109328 1.109328 0.861862 4.462911 3.285317 6.553567 5.23944 4.505577 15.513522 9.139154 20.070298 14.114062 4.172779 4.556777 6.946098 16.204718 9.105021 18.073509 9.608485 8.328491 8.917288 14.916191 14.088462 26.94813 1.578659 3.669315 5.18824 6.229302 6.6133 10.436214 10.521547 31.086776 14.301794 67.028994 15.760987 100.931756 0.366931 8.58449-4.889575 16.46925-5.324773 23.287349-0.67413 10.666613 1.476259 5.000508-2.867186 17.06658-2.312522 6.417034-2.210122 15.342856-3.976513 21.589224-3.430383 12.108739-12.040472 23.500681-15.027124 36.129951-9.924216 11.468742-27.169996 6.681566-35.361955 21.623357-1.041061 4.727443 6.929032 10.734879 7.96156 14.310328 4.488511 15.428189-9.23302 22.178021-16.580183 33.766229-31.428108 11.665008-58.299438 37.879275-81.100389 60.910625-3.421849 3.455983-12.569536 11.306609-14.199395 14.378594-1.501859 2.815986-0.827729 6.741299-1.817591 8.063959-0.759463 1.015462-6.766899 1.365326-9.506085 6.135436-7.722628 13.422865-18.704972 29.849449-23.577481 44.620574-15.812187 47.931491-17.467645 102.817613-28.91932 152.96776-3.899714 17.058047-8.063959 33.885695-11.485809 51.037608-2.321055 11.630875-6.630366 8.703956-7.970093 10.367948-1.860257 2.312522-4.846909 20.215364-8.917288 26.316667-3.618115 5.410106-2.02239-2.466121-6.203702 11.221276-1.24586 4.087446-8.951421 7.98716-10.521547 15.112457-2.210122 10.018083-2.756253 22.911884-3.660781 33.288365-5.307706 10.487414-9.25862 5.512505-15.32579 5.563705-10.820212 0.102399-27.630794 32.110771-35.344888 40.396596-3.26825 3.507182-7.509295 7.26183-11.366342 11.272476-8.209025 8.516224-24.814808 25.634004-34.252627 31.197709-4.61651 2.730653-13.465532 3.899714-18.158841 6.997298-2.577054 1.706658-1.32266 4.676243-2.107723 5.29064-2.602654 2.04799-15.010057 2.380788-19.549768 4.74451-3.908247 2.039456-7.594628 9.139154-13.277799 12.305004-6.143969 3.421849-43.425914 15.411122-46.335766 11.90394l-2.747719-12.919402c-6.468234-4.411711-13.977529 0.69973-19.123103 0.895996-9.18182 0.349865-18.653772 0.520531-27.77586 0.776529-17.356712 0.494931-40.959793-2.54292-57.019445-0.196265-4.573844 0.665597-11.784474 6.954631-15.522055 10.163148-1.015462 3.96798 14.045796 19.472968-0.042666 18.320974-48.460555-27.357728-92.082734-78.736668-112.298099-130.687339-34.28676-88.114754-5.88797-200.114188 62.514884-264.472262 28.893721-27.187062 67.003394-47.760825 100.940289-70.920175 13.013268 0.708263 9.241553 4.889575 12.748736 11.33221 1.023995 1.885857 16.238851 16.622849 17.424978 16.878848 10.63248-1.467726 18.764705-7.569028 27.460128-11.784474 9.386619-4.556777 23.611614-8.823422 27.408928-18.005242 12.091672-1.006928 22.442553-7.705561 19.899633-20.949228-4.659176 0.469331-7.18503-4.650643-10.137549-5.495438-4.027713-1.160527-8.729556 0.162133-13.209533-0.989862-5.273573-1.34826-20.377497-7.176497-23.364149-7.176497-3.618115 0-7.697028 6.425567-12.748735 4.923708 3.814381-3.703448 4.138646-8.319958 5.683171-11.357809 7.927427-15.624454 17.698044-28.287857 19.822833-46.958696 6.5365-57.352243-8.66129-121.061788 6.348768-178.388431 7.116764-27.195596 33.971028-79.973995 53.281864-100.197893 30.719845-32.170504 70.228978-59.272234 113.689025-73.872693 50.167213-16.861781 103.40641-16.895915 155.058416-23.987079 15.274589-2.099189 46.105367-7.389829 58.214105-17.100713zM469.433359 169.906341c8.191959-2.397855 11.545542 7.039964 15.880453 8.285824 4.232512 1.211727 9.241553-0.563197 13.482598 0.72533 3.524249 1.075195 5.29064 7.048498 11.724741 5.282107 4.582377-2.431988 3.592515-7.816494 5.734371-11.33221 2.491721-4.078913 9.028221-9.318353 11.349276-14.216461 7.569028-15.965786-18.969504-25.07934-30.933177-28.228124-8.302891 6.5621-15.530588 14.975924-19.174303 25.05374l-8.115159 0.366931 0.0512 14.054329z m316.789864-22.613219c-11.366343 15.061257-5.819704 34.525692-10.53008 51.97627-2.329588 8.627156-7.628761 22.997217-11.366343 31.265975-3.404783 7.534895-12.60367 17.663911-13.67033 26.163068-1.91999 15.411122 23.202016 32.36677 32.853167 18.51724 0.972795-1.390926-0.964262-3.814381-0.042667-5.683172 2.72212-5.486906 8.823422-10.828745 11.400476-16.98978 8.550357-20.48843 13.559398-45.533636 14.941791-66.406065-3.737581-7.150897-1.203194-14.370061-3.583982-21.930555-3.276783-10.393547-14.370061-7.586095-20.002032-16.930048z m-141.268619 39.321401c1.228794-1.561592 0.469331-5.333306 1.979724-8.03836 3.131717-5.606372 13.456999-10.623946 15.496455-18.704972 1.570125-9.250087-23.560414-8.260225-29.328919-6.5621-7.355696 2.167456-18.397774 20.104432-30.369979 17.945509-2.312522 14.617526-15.274589 17.510311-22.672952 25.642537-4.01918 4.411711-8.729556 15.24899-12.791402 21.316159-5.179707 7.731161-8.174892 5.768504-7.099698 18.704972 1.092261 13.1498 21.503891 25.830269 34.28676 19.856966 1.791991-0.921595 8.721023-10.598346 9.83035-12.902334 11.042077-22.963084 19.635101-36.522482 34.773158-51.882404 2.02239-2.056523 5.614905-5.026108 5.88797-5.375973zM469.322426 300.755812c5.555172-11.238343 7.423962-24.294277 16.716715-33.0409v-19.191369c-11.707674-10.939678-25.787603-22.596152-42.17152-24.45641-0.255999 6.476767-6.792499 10.069282-8.072492 16.093786-1.143461 5.375973-0.102399 18.38924-0.614397 25.00254-0.221866 2.867185-3.054918 5.83677-2.551454 8.251691 9.275686 12.825535 23.210549 19.856966 36.693148 27.340662z m-8.772222 59.929297c-10.965278-2.926919-30.276114-34.329426-39.039803-12.561003-6.118369 15.214856-5.29064 42.87125 2.875719 57.258377l20.983361 14.566326c8.234625 0.187732 5.86237-7.662895 7.466628-12.083139 5.88797-16.264451 10.717812-28.816921 7.714095-47.180561z m212.760524 44.71444c0.870396-0.802129 6.280502-13.260733 6.033036-14.711392-0.401065-2.389321-3.379183-4.863975-4.104513-7.389829-1.109328-3.882647-1.134928-8.166359-2.577054-11.622341-3.532782-8.499157-14.122595-22.698552-21.427091-28.304924l-28.057458 47.334161c2.764786 15.342856 10.931145 33.791829 29.448384 32.435036 8.422357-0.614397 12.398871-12.799935 16.358317-16.674049 0.913062-0.887462 3.438916-0.255999 4.317845-1.066662zM519.506705 403.368626c-17.919909 2.926919-16.44365 27.844126-19.447368 40.35393-1.433593 5.973303-8.081026 16.708182-8.072492 20.445763 0.0256 8.516224 14.190862 20.693229 21.78549 23.944412 15.214856-4.957842 15.368456-21.947622 18.679372-34.730491 0.930129-3.609582 3.985047-6.476767 4.659176-9.548752 1.578659-7.219163-0.930129-15.103924 3.387716-22.35722l-1.425059-4.266645c-4.369045-3.985047-13.422865-14.839392-19.566835-13.832463z m77.584675 133.144927c-0.477864-6.314635 6.5621-8.541823 8.191958-13.141267 3.925313-11.033544 14.591926-28.32199 16.238851-34.93529 0.631463-2.525854-1.578659-4.821309-1.117861-6.758366 0.708263-2.969585 5.469839-4.51411 5.324774-8.900221-0.0768-2.329588-2.235722-4.573844-2.278389-6.306102-0.085333-3.404783 3.259717-6.186635 0.964262-9.412219-8.362624-7.978626-19.123103-13.474065-30.96731-10.871412-11.537008 2.525854-8.439424 7.671428-10.982345 14.583393-5.631972 15.300189-10.939678 30.685711-16.375383 46.054167 2.705053 3.566915-0.204799 8.797822 0.290131 10.931145 1.561592 6.732766 27.016397 23.039883 30.719845 18.773238zM418.702949 622.426718c1.365326-1.425059 7.475162-2.363721 10.794612-4.863975 17.049514-12.851135 30.327313-36.129951 44.100043-52.522401 4.710376-11.366343-0.69973-31.317175-15.64152-24.157745-3.96798 1.902924-19.899633 11.613808-22.690019 14.250595-12.808469 12.083139-28.100125 26.3508-42.623784 34.047828-4.215445 2.235722-11.093277 11.673541-17.083647 14.250594l30.148114 29.678784c9.079421 0.238932 10.103416-7.662895 12.996201-10.675146z m136.626509 13.090067c-1.476259-1.587192-1.305593-4.69331-3.524249-6.4853-3.746114-3.029318-9.88155-5.674638-14.131129-8.678356-4.727443-3.34505-6.698633-8.908755-12.842601-9.890084-12.561003-1.99679-8.311425 2.389321-10.598347 5.000508-1.24586 1.425059-4.573844 1.34826-6.5365 3.498649-2.739186 3.003718-3.874114 9.719418-6.869299 13.269267-0.62293 3.583982 10.513013 13.79833 14.105529 16.537516 4.027713 3.071984 22.843618 12.390337 26.811598 12.979134 5.614905 0.836262 12.569536-0.563197 18.457506-0.145066 0.742396-7.91036 5.99037-18.244174-0.563197-25.011073-0.767996-0.785063-3.438916-0.145066-4.309311-1.083728z m-359.695248 43.869645c-3.601048 0.469331-15.906053 3.327983-15.871919 6.391434 3.780248 6.604767 1.663992 17.936976 0.469331 25.75347 0.255999 6.323168 23.125216 12.646336 29.013186 15.522055 8.371158-10.282615 18.679372-45.576303-0.383998-47.829091-2.261322-0.264532-4.241045 1.621325-5.717304 1.570125-2.858652-0.085333-5.358906-1.681058-7.500762-1.407993z m291.147328 72.678032l43.716045 13.883664c27.588127-13.363132 24.686808-48.776287 18.047909-74.060426l-2.312522-3.370649c-10.547147 0.494931-26.990797-12.014873-35.370487-9.514619-5.111441 1.518926-16.110852 22.135355-20.326298 28.023325-4.556777 6.357301-7.509295 11.639408-11.281009 17.14338-4.795709 7.005831-16.119385 10.879945-7.176497 21.444158l14.037262 1.740791 0.657063 4.710376z m-176.178309 9.497552c-1.34826 10.171682-8.089559 21.196693-10.50448 30.702778-1.390926 5.486906-1.27146 6.6645-3.558382 13.516732-4.036246 12.074606-10.803145 20.650562 0.759462 29.363052 19.984966 15.061257 31.769439-16.588716 38.852071-29.559318 4.078913-7.466629 5.000508-7.927427 8.661289-16.921514 2.295455-5.640505 8.55889-7.125297 3.822914-16.238851-0.827729-1.595725-18.884171-19.216969-20.232431-19.609501-7.978626-1.97119-10.052216 7.756761-17.79191 8.746622z m176.297775 68.283388c2.602654-2.705053 13.87513-5.307706 13.866596-13.277799 0-10.359414-17.058047-13.653264-22.886284-17.075114-2.210122-1.29706-3.609582-4.403178-5.768504-5.597838-8.328491-4.599443-15.402589-7.18503-24.627076-9.642618l-3.729047 0.887462c-7.295963 5.819704-16.819115 18.773238-13.934863 28.262257 0.264532 0.878929 9.497552 12.885268 11.042077 14.591926 7.057031 7.756761 21.742823 21.213759 32.349703 18.030843 0.546131-0.162133 9.420752-5.36744 9.821817-5.785571 1.962657-2.04799 1.928524-8.371158 3.865581-10.393548z m-63.171947 104.515738c0.409598-7.278897 1.928524-17.254313-5.512506-21.299092-2.030923-1.109328-4.445844 1.356793-6.655966 1.006928-5.905037-0.947195-21.196693-9.710884-26.461733-10.436214-3.089051-0.426665-6.323168 3.421849-10.513013 2.227189-9.429286-2.687986-17.450578-8.413824-31.112376-11.733274-3.276783-0.793596-10.700746-4.633577-12.040473-4.556777-2.867185 0.170666-14.847925 13.533798-8.149292 16.554583 7.091164 3.199984 8.755156 7.748227 14.293261 10.948211 5.563705 3.21705 11.059144 2.346655 15.300189 4.590911 12.142872 6.425567 8.644223 3.959447 20.915095 7.500762 2.918385 0.844796 5.333306 5.572238 9.395152 7.654361 13.82393 7.082631 26.99933 2.133323 40.541662-2.466121z" fill="#FBDCA6" /><path d="M753.540722 30.753978c7.202097-5.777037 15.598854-17.203113 22.032955-23.440948 1.058128-1.023995 0.469331-3.583982 1.22026-4.300779 12.305004-11.758874 33.919828 14.079929 42.17152 23.423882 81.765986 92.628865 119.124731 253.174186 53.495196 363.390162-45.806702 76.927611-154.392819 120.805789-161.671715 216.310372-7.458096 97.808572 16.213251 169.163944-36.266483 262.142674-87.628357 155.237615-276.444468 198.219797-429.693827 111.709302 14.088462 1.151994-0.964262-14.352994 0.042667-18.320974 3.746114-3.21705 10.956745-9.497552 15.522055-10.163149 16.059652-2.346655 39.662733 0.691197 57.019444 0.196266 9.113554-0.264532 18.594039-0.435198 27.77586-0.776529 5.145574-0.196266 12.654869-5.307706 19.123103-0.895996l2.74772 12.919401c2.909852 3.507182 40.191797-8.48209 46.335765-11.903939 5.683171-3.165851 9.369553-10.265548 13.2778-12.305005 4.53971-2.363721 16.947114-2.69652 19.549768-4.744509 0.776529-0.614397-0.469331-3.583982 2.107722-5.29064 4.69331-3.106118 13.533798-4.275178 18.158842-6.997298 9.437819-5.572238 26.043602-22.690019 34.252626-31.197709 3.86558-4.010646 8.106626-7.765294 11.366343-11.272476 7.714094-8.285825 24.524676-40.294196 35.344888-40.396596 6.067169-0.0512 10.018083 4.923708 15.325789-5.563705 0.904529-10.376481 1.450659-23.270282 3.660781-33.288365 1.570125-7.116764 9.267153-11.016478 10.521547-15.112457 4.181312-13.687397 2.585587-5.811171 6.203702-11.221276 4.078913-6.101302 7.065564-24.012679 8.917288-26.316667 1.339727-1.663992 5.649038 1.262927 7.970093-10.367948 3.421849-17.151913 7.586095-33.979561 11.485809-51.037608 11.451675-50.150146 13.107134-105.027735 28.91932-152.96776 4.872509-14.771125 15.854853-31.206242 23.577481-44.620574 2.747719-4.770109 8.746622-5.119974 9.506085-6.135436 0.989862-1.32266 0.315732-5.23944 1.817591-8.063959 1.638392-3.071984 10.777545-10.914078 14.199395-14.378594 22.800951-23.022817 49.672282-49.237084 81.10039-60.910625 7.347163-11.596741 21.06016-18.346574 16.580183-33.766229-1.041061-3.575449-9.002621-9.574352-7.96156-14.310328 8.200492-14.941791 25.437738-10.154615 35.361954-21.623357 2.986652-12.629269 11.596741-24.012679 15.027124-36.129951 1.766391-6.254902 1.672525-15.17219 3.976513-21.589224 4.343445-12.066072 2.193056-6.408501 2.867186-17.06658 0.435198-6.818099 5.691705-14.702859 5.324773-23.287349-1.459193-33.911295-5.230907-69.84498-15.760987-100.931756-1.425059-4.206912-5.034641-6.766899-6.6133-10.436214-5.171174-12.023406-4.479977-18.611106-14.088462-26.948131-2.158922-1.868791-4.932242-13.516732-9.10502-18.073508-4.556777-4.974908-14.830858-9.608485-20.070299-14.114062-2.423454-2.082123-2.175989-5.444239-3.285317-6.553567-3.94238-3.94238-20.889494-2.611187-25.062273-13.328999-0.0256-2.397855 20.326297-10.342348 5.674638-9.949817z" fill="#EFC587" /><path d="M347.134244 471.268016c-1.544526 3.037851-1.868791 7.654361-5.683171 11.357809 5.060241 1.510392 9.13062-4.915175 12.748735-4.923708 2.986652 0 18.099108 5.819704 23.364149 7.176497 4.479977 1.151994 9.18182-0.170666 13.209533 0.989862 2.952518 0.844796 5.486906 5.96477 10.137549 5.495439 2.54292 13.243666-7.807961 19.942299-19.899633 20.949227-3.797314 9.173287-18.022309 13.448465-27.408928 18.005242-8.695423 4.223979-16.827648 10.316748-27.460128 11.784474-1.186127-0.255999-16.400984-14.992991-17.424978-16.878848-3.507182-6.451167 0.264532-10.63248-12.748736-11.332209 15.513522-10.589813 27.357728-19.609501 39.662733-32.725168 3.34505-3.566915 7.116764-7.748227 11.494342-9.90715z" fill="#F3CE8D" /><path d="M486.781538 752.064462l-0.657064-4.710376-14.037262-1.740791c-8.942888-10.564213 2.380788-14.438327 7.176497-21.444158 3.771714-5.503972 6.724233-10.786079 11.28101-17.14338 4.215445-5.88797 15.214856-26.495866 20.326297-28.023325 8.379691-2.500254 24.823341 10.009549 35.370488 9.514619l2.312521 3.370649c6.6389 25.284139 9.531685 60.697293-18.047908 74.060426l-43.716046-13.883664z" fill="#EFC88B" /><path d="M644.954604 186.614523c-0.273065 0.349865-3.86558 3.31945-5.88797 5.375973-15.129523 15.359922-23.722547 28.91932-34.773157 51.882404-1.109328 2.303988-8.038359 11.980739-9.830351 12.902334-12.791402 5.973303-33.194499-6.707166-34.28676-19.856966-1.075195-12.927935 1.91999-10.965278 7.099698-18.704972 4.061846-6.067169 8.772222-16.895915 12.791402-21.316159 7.389829-8.132226 20.36043-11.025011 22.672952-25.642537 11.972206 2.158922 23.014284-15.76952 30.36998-17.945509 5.759971-1.698125 30.899044-2.687986 29.328918 6.5621-2.039456 8.081026-12.364737 13.0986-15.496455 18.704972-1.510392 2.705053-0.75093 6.476767-1.979723 8.03836z" fill="#F2CB8C" /><path d="M786.223223 147.293122c5.631972 9.343953 16.725249 6.5365 20.002032 16.930047 2.389321 7.560495-0.153599 14.788192 3.583982 21.930556-1.382393 20.863894-6.391434 45.917634-14.941791 66.406064-2.56852 6.161036-8.678356 11.494342-11.400476 16.989781-0.930129 1.868791 1.015462 4.292245 0.042667 5.683171-9.659684 13.84953-34.773157-3.114651-32.853167-18.51724 1.058128-8.499157 10.265548-18.636706 13.67033-26.163067 3.737581-8.268758 9.036754-22.638819 11.366343-31.265975 4.710376-17.450578-0.836262-36.915013 10.53008-51.976271z" fill="#F0C98D" /><path d="M418.702949 622.426718c-2.892785 3.012251-3.91678 10.905545-12.996201 10.675146l-30.148114-29.678783c5.981836-2.585587 12.868202-12.014873 17.083647-14.250595 14.52366-7.697028 29.815316-21.964689 42.623784-34.047827 2.790386-2.628253 18.722039-12.347671 22.690019-14.250595 14.933258-7.150897 20.351897 12.791402 15.64152 24.157745-13.77273 16.383917-27.05053 39.671266-44.100043 52.522401-3.327983 2.508787-9.429286 3.438916-10.794612 4.863975z" fill="#F1C887" /><path d="M597.09138 536.513553c-3.703448 4.266645-29.158253-12.040472-30.719845-18.773239-0.494931-2.133323 2.423454-7.364229-0.290132-10.931144 5.444239-15.368456 10.751946-30.745444 16.375384-46.054167 2.54292-6.911965-0.554664-12.057539 10.982345-14.583393 11.844207-2.59412 22.596152 2.892785 30.96731 10.871411 2.295455 3.225584-1.041061 6.007436-0.964262 9.41222 0.042666 1.732258 2.201589 3.976513 2.278388 6.306101 0.145066 4.386111-4.61651 5.93917-5.324773 8.900222-0.460798 1.94559 1.749324 4.241045 1.117861 6.758365-1.646925 6.6133-12.313538 23.901746-16.238851 34.93529-1.629858 4.59091-8.669823 6.826632-8.191959 13.141267z" fill="#F3CB8B" /><path d="M310.603229 761.562014c7.739694-0.989862 9.821817-10.717812 17.79191-8.746622 1.356793 0.392531 19.404702 18.022309 20.232431 19.609501 4.735976 9.113554-1.527459 10.598346-3.822914 16.238851-3.660781 8.994088-4.582377 9.454886-8.66129 16.921514-7.082631 12.962068-18.875638 44.620574-38.85207 29.559318-11.554075-8.712489-4.787176-17.288446-0.759463-29.363052 2.295455-6.860765 2.167456-8.029826 3.558382-13.516732 2.406388-9.506085 9.147687-20.531096 10.504481-30.702778z" fill="#F3CB8F" /><path d="M486.901004 829.845402c-1.94559 2.02239-1.902924 8.345558-3.865581 10.393548-0.392531 0.409598-9.275686 5.614905-9.821817 5.785571-10.60688 3.191451-25.292672-10.274081-32.349703-18.030843-1.544526-1.698125-10.777545-13.712997-11.042077-14.591926-2.884252-9.489019 6.630366-22.43402 13.934863-28.262257l3.729047-0.887462c9.224487 2.457588 16.298584 5.043174 24.627076 9.642618 2.158922 1.194661 3.558382 4.300778 5.768504 5.597838 5.828237 3.413316 22.886284 6.715699 22.886284 17.075114 0 7.96156-11.272476 10.572747-13.866596 13.277799z" fill="#F1CB91" /><path d="M469.322426 300.755812c-13.482598-7.483695-27.417461-14.515127-36.693148-27.340662-0.503464-2.423454 2.329588-5.393039 2.551454-8.251691 0.511997-6.6133-0.520531-19.618034 0.614397-25.00254 1.279994-6.024503 7.816494-9.617018 8.072492-16.093786 16.375384 1.860257 30.463846 13.516732 42.17152 24.45641v19.191369c-9.292753 8.755156-11.161544 21.802556-16.716715 33.0409z" fill="#F3C88B" /><path d="M673.310728 405.399549c-0.878929 0.810663-3.404783 0.179199-4.317845 1.066662-3.959447 3.874114-7.944493 16.059652-16.358318 16.674049-18.51724 1.356793-26.683598-17.09218-29.448384-32.435036l28.057458-47.334161c7.304496 5.606372 17.894309 19.805766 21.427092 28.304924 1.433593 3.455983 1.467726 7.739694 2.577053 11.622341 0.72533 2.525854 3.703448 5.000508 4.104513 7.389829 0.247465 1.459193-5.162641 13.909263-6.033036 14.711392z" fill="#F0C78A" /><path d="M423.729057 934.36114c-13.533798 4.599443-26.709198 9.548752-40.541662 2.466121-4.061846-2.082123-6.476767-6.809566-9.395152-7.654361-12.279405-3.541315-8.772222-1.083728-20.915095-7.500762-4.241045-2.244255-9.736484-1.37386-15.300189-4.59091-5.529572-3.191451-7.193564-7.748227-14.293261-10.948212-6.707166-3.020785 5.273573-16.39245 8.149292-16.554582 1.339727-0.0768 8.763689 3.763181 12.040473 4.556776 13.661798 3.31945 21.68309 9.045288 31.112376 11.733274 4.198379 1.194661 7.423962-2.653853 10.513013-2.227188 5.26504 0.72533 20.556696 9.489019 26.461733 10.436214 2.210122 0.358398 4.625043-2.107723 6.655966-1.006929 7.441029 4.04478 5.91357 14.020196 5.512506 21.299093z" fill="#EFC587" /><path d="M519.506705 403.368626c6.143969-1.006928 15.19779 9.847417 19.566835 13.832464l1.425059 4.266645c-4.326378 7.26183-1.817591 15.138057-3.387716 22.35722-0.67413 3.071984-3.729048 5.947703-4.659176 9.548752-3.310917 12.791402-3.464516 29.772649-18.679372 34.730491-7.586095-3.251184-21.75989-15.428189-21.78549-23.944413-0.008533-3.729048 6.630366-14.463927 8.072492-20.445763 3.012251-12.509803 1.527459-37.435544 19.447368-40.353929z" fill="#EFC686" /><path d="M460.550204 360.685109c3.003718 18.372174-1.826124 30.91611-7.714095 47.180561-1.604259 4.420244 0.767996 12.270871-7.466628 12.083139l-20.983361-14.566326c-8.166359-14.387127-8.994088-42.034987-2.875719-57.258377 8.755156-21.776957 28.074525 9.634085 39.039803 12.561003z" fill="#F0C989" /><path d="M469.433359 169.906341l-0.0512-14.054329 8.115159-0.366932c3.643715-10.077816 10.871412-18.49164 19.174303-25.05374 11.963673 3.140251 38.502205 12.253805 30.933177 28.228124-2.321055 4.898109-8.857555 10.137549-11.349276 14.216462-2.141856 3.515716-1.160527 8.900222-5.734371 11.332209-6.434101 1.766391-8.200492-4.206912-11.724741-5.282107-4.232512-1.288527-9.250087 0.486398-13.482598-0.725329-4.334911-1.24586-7.679961-10.692213-15.880453-8.285825z" fill="#EFC98B" /><path d="M555.329458 635.516785c0.870396 0.938662 3.549849 0.290132 4.309311 1.083728 6.5621 6.766899 1.305593 17.100713 0.563197 25.011074-5.88797-0.418131-12.842602 0.981328-18.457506 0.145066-3.96798-0.588797-22.775351-9.90715-26.811598-12.979135-3.592515-2.739186-14.728459-12.953534-14.105529-16.537516 2.995185-3.558382 4.130112-10.265548 6.869299-13.269266 1.962657-2.150389 5.29064-2.07359 6.5365-3.498649 2.286922-2.611187-1.962657-7.005831 10.598347-5.000508 6.143969 0.981328 8.115159 6.545034 12.842601 9.890083 4.258112 3.012251 10.385014 5.657571 14.131129 8.678356 2.218655 1.791991 2.04799 4.898109 3.524249 6.485301z" fill="#F2CC8E" /><path d="M195.63421 679.38643c2.141856-0.281599 4.64211 1.314127 7.500762 1.407993 1.476259 0.042666 3.464516-1.843191 5.717305-1.570125 19.06337 2.252789 8.755156 37.546477 0.383998 47.829091-5.88797-2.875719-28.757188-9.20742-29.013187-15.522055 1.186127-7.816494 3.310917-19.14017-0.469331-25.75347-0.0256-3.054918 12.270871-5.922103 15.87192-6.391434z" fill="#E9C587" /></svg>