<?xml version="1.0" standalone="no"?><!DOCTYPE svg PUBLIC "-//W3C//DTD SVG 1.1//EN" "http://www.w3.org/Graphics/SVG/1.1/DTD/svg11.dtd"><svg t="1778769636111" class="icon" viewBox="0 0 1024 1024" version="1.1" xmlns="http://www.w3.org/2000/svg" p-id="5362" xmlns:xlink="http://www.w3.org/1999/xlink" width="256" height="256"><path d="M410.13 341.87s-17.57-46.15-32.6-87.79c-4.85-13.42 2.94-28.11 16.78-31.58 17.02-4.27 41.19-9.61 67.54-13.16l8.23-4.56c-1.24-8.26-2.42-16.05-3.47-22.91-2.16-14.11 8.33-27.01 22.58-27.73 17.53-0.89 42.27-1.45 68.81 0.16 13.76 0.84 24.02 13.04 22.49 26.74-0.41 3.72-0.89 7.82-1.43 12.27h4.97c26.35 3.55 50.52 8.89 67.54 13.16 13.84 3.47 21.63 18.16 16.78 31.58-15.04 41.64-38.87 102.42-38.87 102.42l-219.37 1.4z" fill="#879D4B" p-id="5363"></path><path d="M728.48 500.09c0 102.1-93.33 391.91-208.47 391.91S311.54 602.19 311.54 500.09s93.33-184.86 208.47-184.86S728.48 398 728.48 500.09z" fill="#FFAA39" p-id="5364"></path><path d="M520.01 904.5c-30.66 0-61.14-17.22-90.59-51.19-24.16-27.86-47.12-66.19-68.25-113.92-36-81.32-62.13-181.96-62.13-239.3 0-53 23.18-102.75 65.27-140.07 41.66-36.95 96.96-57.29 155.7-57.29s114.04 20.35 155.7 57.29c42.09 37.32 65.27 87.07 65.27 140.07 0 57.34-26.13 157.98-62.13 239.3-21.13 47.73-44.09 86.06-68.25 113.92-29.45 33.97-59.93 51.19-90.59 51.19z m0-576.77c-108.06 0-195.97 77.32-195.97 172.36 0 60.84 30.91 163.49 59.99 229.18 19.84 44.82 42.07 82.04 64.28 107.66 24.49 28.25 48.61 42.57 71.7 42.57s47.21-14.32 71.7-42.57c22.21-25.62 44.44-62.85 64.28-107.66 29.08-65.69 59.99-168.34 59.99-229.18 0-95.04-87.91-172.36-195.97-172.36z" p-id="5365"></path><path d="M560.03 316.57c-0.75 0-1.52-0.07-2.29-0.21-6.79-1.26-11.27-7.78-10.02-14.57 11.7-63.23 17.74-114.27 19.31-128.41 0.36-3.2-0.59-6.31-2.66-8.77-2.07-2.46-4.97-3.92-8.17-4.11-26.57-1.62-51.33-0.98-67.42-0.16-3.31 0.17-6.28 1.68-8.38 4.25-2.1 2.58-2.99 5.82-2.48 9.11 6.62 43.3 18.49 124.63 18.61 125.45 1 6.83-3.73 13.18-10.56 14.17-6.83 1-13.18-3.73-14.17-10.56-0.12-0.82-11.97-82.06-18.58-125.27a36.72 36.72 0 0 1 7.82-28.69 36.64 36.64 0 0 1 26.48-13.42c16.73-0.85 42.48-1.52 70.21 0.17 10.1 0.62 19.26 5.22 25.78 12.97 6.43 7.64 9.48 17.71 8.38 27.63-1.6 14.35-7.73 66.14-19.58 130.19-1.11 6.02-6.37 10.23-12.28 10.23z" p-id="5366"></path><path d="M409.09 348.1c-5.04 0-9.79-3.07-11.69-8.06-0.18-0.46-17.78-46.73-32.68-87.99a36.694 36.694 0 0 1 2.12-29.66 36.63 36.63 0 0 1 23.38-18.29c16.25-4.08 41.39-9.71 68.92-13.42 6.85-0.92 13.14 3.88 14.06 10.72 0.92 6.84-3.88 13.14-10.72 14.06-26.38 3.56-50.54 8.98-66.17 12.9-3.21 0.81-5.84 2.86-7.4 5.79-1.57 2.94-1.8 6.29-0.67 9.42 14.83 41.06 32.35 87.13 32.53 87.59 2.46 6.45-0.78 13.67-7.24 16.13a12.4 12.4 0 0 1-4.44 0.82zM628.45 346.7c-1.52 0-3.06-0.28-4.56-0.87-6.43-2.52-9.59-9.77-7.07-16.2 0.24-0.61 23.95-61.1 38.75-102.1 1.13-3.14 0.89-6.48-0.67-9.42-1.56-2.93-4.19-4.98-7.4-5.79-15.63-3.92-39.79-9.34-66.17-12.9-6.84-0.92-11.64-7.22-10.72-14.06 0.92-6.84 7.21-11.64 14.06-10.72 27.52 3.71 52.67 9.35 68.92 13.42a36.63 36.63 0 0 1 23.38 18.29 36.697 36.697 0 0 1 2.12 29.66c-14.92 41.32-38.75 102.13-38.99 102.74-1.93 4.93-6.65 7.94-11.64 7.94z" p-id="5367"></path><path d="M445 499.67a21.85 24.51 0 1 0 43.7 0 21.85 24.51 0 1 0-43.7 0Z" p-id="5368"></path><path d="M556.91 499.67a21.85 24.51 0 1 0 43.7 0 21.85 24.51 0 1 0-43.7 0Z" p-id="5369"></path><path d="M523.33 617.15c-23.97 0-45.86-12.16-58.56-32.53-3.65-5.86-1.87-13.57 3.99-17.22 5.86-3.65 13.57-1.87 17.22 3.99 8.11 13 22.07 20.76 37.35 20.76s29.24-7.76 37.35-20.76c3.65-5.86 11.36-7.64 17.22-3.99 5.86 3.65 7.65 11.36 3.99 17.22-12.7 20.37-34.6 32.53-58.56 32.53z" p-id="5370"></path></svg>