<?xml version="1.0" standalone="no"?><!DOCTYPE svg PUBLIC "-//W3C//DTD SVG 1.1//EN" "http://www.w3.org/Graphics/SVG/1.1/DTD/svg11.dtd"><svg class="icon" width="256px" height="256.00px" viewBox="0 0 1024 1024" version="1.1" xmlns="http://www.w3.org/2000/svg"><path d="M769.02061 113.130347c-5.768508-0.349865-11.818615-0.136533-17.638322 0-7.765299 0.179199-14.890601-3.737584-12.84261 7.603167 5.375976 10.862885 28.202542 9.881556 37.444101 13.525273 4.753046 1.877325 2.95252 4.172782 3.199986 4.275181-36.582239-2.389323-56.498951-1.698126-88.140411 16.042596-24.85749 13.926339-47.018459 36.27504-72.985279 48.989651-25.070823 12.279413-69.537827 28.63774-96.579841 35.54971-69.281828 17.723655-142.104974 7.825032-211.139335 27.716145C74.837003 334.69737-12.706077 622.696101 153.983321 806.938489c57.010949 63.018389 130.70449 96.451841 213.545725 109.166452 88.754809 13.627673 186.83651-5.469843 264.276169-55.901621 8.046898 11.246884 5.009045 11.639415-2.517322 20.368977-7.5861 8.797828-22.792433 21.427106-26.871349 26.453217-3.404785 4.189848-21.07724 33.339586-21.597771 36.940637-2.474656 17.203124 13.337541 34.960913 30.660131 38.212098-267.928419 127.87997-550.51704-51.993371-569.426823-342.825155-8.669828-133.392479 30.395599-247.721575 134.809006-333.191064 116.658686-95.496112 225.116874-60.833865 354.609637-97.706236 77.88339-22.178036 144.485763-87.534547 210.670004-99.319029 7.577567-1.348261 22.937499-5.051711 26.879882 3.993582z" fill="#F5B8B3" /><path d="M819.844919 372.320671c13.678873 13.59354 18.517252 23.654296 40.260089 25.830286l0.409599 14.830868 20.317777-5.085844c-51.771505 94.574516-63.999718 167.167263-56.00402 276.871313L804.664186 780.801004l-9.156226 3.950916c-15.735397 40.089423-35.208378 74.726071-62.054127 105.949399-7.594633-5.367443-14.574869-0.563198-15.334332-12.467145-1.988258-30.984397 18.841517-38.305964 31.905993-62.76239l9.096493-3.839983-0.264532-47.991255-15.231933 5.077311v-35.566776-5.085845c66.243975-105.522735 9.873023-225.714205 63.445053-340.572365 4.445847-9.531691 12.151413-14.003138 12.791411-15.180733z" fill="#E8807A" /><path d="M977.386625 57.228727c-35.65211 3.259719-40.720887 36.317707-60.885065 58.538409-15.590331 17.186058-33.066521 21.538038-48.375254 37.734233-9.719424-12.689011-25.471888-14.412736-38.118232-20.044711-10.043689-4.471447-21.623371-11.835681-30.489465-15.249 12.629278-1.587193 28.023343-18.372186 35.669176-27.86121 14.771135-18.338052 21.051641-39.97849 33.075054-58.401876 21.119907-32.358257 45.021668-43.434475 78.420988-17.706589 16.204729 12.484212 25.122023 23.364164 30.711331 42.982211z" fill="#F4D9D1" /><path d="M880.82385 204.607277c6.067173 9.267159 11.972214 25.855886 15.249 35.57531 13.892205 41.224352 22.041503 84.923359 7.876232 127.308239-4.735979 14.182337-16.136462 27.622278-23.125232 40.396622l-20.317777 5.085844-0.409598-14.830868c-21.751371-2.17599-26.581216-12.236746-40.260089-25.830286 1.271461-2.372256 1.100795-8.644229 3.916783-13.69594 26.709216-47.880322 57.55708-80.656711 40.968352-140.483647-2.141857-7.731166-8.763695-12.04048-9.309825-13.525274-1.663993-4.53118 0.921596-13.687406-5.085845-20.317777 17.996721-3.88265 15.906063 6.929036 23.099632 15.214866 2.764788 3.191453 7.150902 4.727446 7.398367 5.102911z" fill="#EC8985" /><path d="M977.386625 57.228727c20.121511 70.689822-16.204729 95.863044-56.140553 144.750295-5.273577 6.459705-12.91941 12.84261-13.704473 13.849539-4.223981 5.393043-10.786086 17.143391-11.468749 24.362559-3.276786-9.719424-9.181826-26.308151-15.249-35.575309-6.425572-28.851073-34.355049-48.272854-50.824309-71.15062 12.637811 5.631975 28.390275 7.355701 38.118232 20.044711 15.317266-16.196195 32.793455-20.548176 48.375253-37.734233 20.164178-22.229235 25.232955-55.27869 60.885065-58.538409z" fill="#E8C3B8" /><path d="M672.457836 824.628011c13.013276 14.907668-6.690104 8.371163-4.957845 12.492745 4.667713 11.118884 3.199986 16.213262 5.759974 24.823357 2.150391 7.253301 14.916201 19.686313 14.412737 31.376928l-5.051711 43.118743c-27.88681 21.913503-37.862233 29.849468-71.15062 45.738465-17.32259-3.251186-33.126254-21.017507-30.660131-38.212098 0.520531-3.601051 18.192986-32.750789 21.597771-36.940637 4.078915-5.017578 19.285248-17.655389 26.871348-26.453217 7.526367-8.729562 10.56422-9.122093 2.517322-20.368977 12.578078-8.191964 29.149738-24.703891 40.661155-35.575309z" fill="#F1A19B" /><path d="M743.608455 733.151081v35.566776l15.231933-5.077311 0.264532 47.991255-9.096493 3.839983c-13.064476 24.456426-33.894251 31.777993-31.905993 62.76239 0.767997 11.903948 7.739699 7.091169 15.334333 12.467145-19.541247 22.7327-28.79134 28.432941-50.82431 45.738465l5.051712-43.118743c0.503464-11.690615-12.262346-24.123627-14.412737-31.376928-2.559989-8.610095-1.083729-13.704473-5.759975-24.823357-1.732259-4.121582 17.962587 2.414923 4.957845-12.492745 29.499603-27.878277 52.300569-54.664292 71.15062-91.47693z" fill="#EA8A83" /><path d="M769.02061 113.130347c10.879952 0.657064 20.095911 1.083729 30.489465 5.085844 8.866094 3.413318 20.445777 10.769019 30.489466 15.249 16.469261 22.869233 44.398738 42.299547 50.824309 71.15062-0.247466-0.375465-4.625046-1.911458-7.398367-5.102911-7.193568-8.28583-5.102911-19.097516-23.099632-15.214867 5.998907 6.630371 3.421852 15.778064 5.085845 20.317778-7.876232-5.051711-8.994094-15.180733-15.1466-22.954566-4.804245-6.067173-11.221284-8.652762-15.342866-12.620744-18.389252-17.672455-21.188173-20.155644-45.738465-30.489466-0.247466-0.1024 1.55306-2.406389-3.199986-4.275181-9.241559-3.643717-32.068125-2.670922-37.444101-13.525274-2.047991-11.34075 5.077311-7.423967 12.84261-7.603166 5.819708-0.136533 11.869814-0.349865 17.638322 0z" fill="#F3A6A3" /><path d="M779.183765 138.542502c24.550292 10.333821 27.349213 12.81701 45.738465 30.489465-0.938663 20.650576 7.406901 36.812638 4.949312 58.33361-4.095982 35.908108-40.550221 96.554241-53.307499 134.715139-25.130556 75.178335-23.611629 149.494808-32.861721 226.320069-5.102911 42.342213-17.808988 91.024665-35.660643 129.501296-0.529064 1.134928-9.352492 13.789806-12.94501 20.104445-27.152947 47.74379-81.76604 93.251856-128.596766 118.160546l-1.50186 8.081031c-44.68887 6.485305-99.856626 42.120348-139.826584 51.046175-17.134858 3.83145-39.662758-1.041062-57.642413 0.802129-82.841235-12.714611-156.534777-46.148063-213.545725-109.166452-166.689399-184.233855-79.146318-472.232585 156.347044-540.089352 69.034362-19.891112 141.857508-10.001023 211.139336-27.716145 27.050547-6.920503 71.517551-23.278831 96.579841-35.54971 25.966819-12.714611 48.127788-35.063312 72.985278-48.98965 31.649994-17.732188 51.566706-18.423385 88.140412-16.042596z m-32.068125 51.814171c-27.28948 4.804245-47.53899 25.60842-69.776759 36.915038-45.397133 23.082565-130.644757 41.130485-83.839631 109.661383 29.806802 15.906063 86.11802 67.39597 117.981347 70.22049 28.134276 2.491722 42.120348-50.56831 51.44724-68.880763 18.832984-36.97477 64.144784-96.067843 29.090005-133.78501-13.269275-14.276204-25.76202-17.50179-44.902202-14.131138zM636.882526 412.973292c-18.295386-14.105538-41.889949-27.980677-56.072286-42.999277-25.924152-27.443079-45.115534-65.023713-88.55001-69.017296-131.412754-12.100213-261.903912 20.650576-332.303602 135.687935-42.145948 68.863696-53.947496 170.665914-23.739628 245.76745 31.129463 77.396992 103.978208 135.551402 180.419471 165.161939 18.602585 7.202102 40.93422 13.218075 61.055731 12.629277 29.269204 16.179129 115.353091-3.362119 148.82921-16.341261 133.401012-51.754439 221.703556-180.325605 190.505827-325.528165-2.082124-9.710891-5.922107-27.801477-9.924223-35.814242-3.413318-6.83517-9.318359-9.284226-11.895414-13.721539-2.474656-4.266648-1.817592-9.16476-2.414923-10.077823-5.759975-8.797828-7.338634-9.403692-15.248999-15.248999-13.704473-10.120489-27.152947-20.078845-40.661154-30.489466z" fill="#FCE3DF" /><path d="M708.033145 717.902081l17.791922 25.403621 15.248999-20.30071 2.534389 5.060244v5.085845c-18.85005 36.812638-41.651016 63.598653-71.150619 91.47693-11.502883 10.871419-28.083076 27.383346-40.661155 35.575309-77.439659 50.431778-175.512826 69.529293-264.276168 55.901621 17.979654-1.843192 40.507555 3.020787 57.642413-0.80213 39.969957-8.934361 95.137714-44.56087 139.826583-51.046175l1.50186-8.081031c46.830727-24.90869 101.443819-70.42529 128.596767-118.160546 3.592517-6.314639 12.415945-18.969516 12.945009-20.104445z" fill="#FAD5CF" /><path d="M855.420229 204.607277c0.546131 1.484793 7.167968 5.794108 9.309826 13.525274 16.588727 59.83547-14.259137 92.603325-40.968353 140.483647-2.815988 5.051711-2.645322 11.323683-3.916783 13.69594-0.631464 1.177595-8.345563 5.649042-12.79141 15.180733-53.572031 114.85816 2.790388 235.04963-63.445054 340.572365l-2.534389-5.060244-15.248999 20.30071-17.791922-25.403621c17.851655-38.485164 30.566265-87.159082 35.660643-129.501296 9.258626-76.825261 7.731166-151.150267 32.861722-226.320069 12.757277-38.152365 49.211516-98.798498 53.307498-134.715139 2.457589-21.520972-5.887974-37.683034-4.949311-58.33361 4.130115 3.967983 10.53862 6.553571 15.342866 12.620745 6.152506 7.773832 7.270368 17.902854 15.146599 22.954565z" fill="#F8CBC4" /><path d="M377.692202 860.20332c-20.121511 0.588797-42.461679-5.427176-61.055731-12.629277-76.441263-29.610536-149.298542-87.77348-180.419471-165.161939-30.199334-75.101536-18.397786-176.903753 23.739628-245.76745 70.39969-115.03736 200.890848-147.779615 332.303602-135.687935 43.434475 4.002116 62.625857 41.574217 88.55001 69.017296 14.190871 15.0186 37.7769 28.893739 56.072286 42.999277-18.25272-1.254394-6.476771 3.302385-3.942383 11.562616 11.912481 38.860629 10.069289 62.352792-3.447451 100.471023-22.698567 8.328497-24.055361 16.861792-36.010508 35.131579-9.352492 14.284737-11.98928 4.036249-8.294364 24.072427 0.477865 2.568522 0.785063 4.642113-1.331194 6.630371-14.532203 16.213262-32.853189 30.276133-55.509088 31.223329l-5.964774 4.198381c-6.664504 50.346445-52.044571 69.094095-78.719653 104.234208-17.143391 22.587634-32.656923 41.198752-50.952309 60.859465-6.271972 6.741304-8.550362 17.527389-14.924734 25.744953-9.01116 11.613815-26.231351 24.13216-40.746487 27.869744l37.205169 10.999418c2.773321 1.092262 2.969587 3.967983 3.447452 4.232514z m-66.61944-456.821452c-20.846841-10.018089-38.911828-5.631975-58.98214 3.413318-17.715122 7.978631-39.543292 34.87558-49.476049 52.181103-18.107654 31.556128-18.662318 63.359721-22.485234 98.030501l14.310337 31.598794 35.404644 1.774926 30.873464-87.841746 10.53862-6.118373c-4.420247-21.213773 3.524251-14.353003 12.535412-22.220702 23.372697-20.411643 39.850491-38.800896 27.280946-70.817821z" fill="#F8A19D" /><path d="M636.882526 412.973292c13.499674 10.410621 26.956681 20.368977 40.661154 30.489466v15.257532l15.248999-0.008533c0.597331 0.921596-0.059733 5.819708 2.414923 10.077822 2.577055 4.437314 8.473563 6.88637 11.895414 13.72154 4.010649 8.012765 7.842099 26.103352 9.924223 35.814242 31.197729 145.20256-57.104815 273.773726-190.505827 325.528165-33.467586 12.987676-119.560006 32.52039-148.82921 16.341261-0.477865-0.264532-0.67413-3.140253-3.447452-4.232515l-37.205169-10.999418c14.515136-3.737584 31.735327-16.247395 40.746487-27.869743 6.374372-8.20903 8.652762-19.00365 14.924734-25.744954 18.295386-19.660713 33.808918-38.271831 50.952309-60.859465 26.675082-35.140112 72.055149-53.887762 78.719653-104.234207l5.964774-4.198381c22.6559-0.947196 40.976886-15.010067 55.509088-31.223329 2.116257-1.988258 1.809059-4.061849 1.331194-6.630371-3.686384-20.036178-1.058129-9.78769 8.294364-24.072427 11.963681-18.278319 13.311941-26.803082 36.010508-35.131579 13.51674-38.118232 15.359932-61.610395 3.447451-100.471024-2.534389-8.26023-14.310337-12.81701 3.942383-11.562615z" fill="#F79993" /><path d="M747.11564 190.356673c19.140182-3.370652 31.632927-0.153599 44.902202 14.131138 35.046246 37.7257-10.265555 96.81024-29.090005 133.78501-9.326892 18.312453-23.312964 71.372485-51.44724 68.880763-31.863326-2.815988-88.166011-54.305894-117.981347-70.22049-46.805127-68.539431 38.442497-86.587352 83.839631-109.661383 22.237769-11.306617 42.495813-32.110792 69.776759-36.915038z" fill="#F89693" /><path d="M692.784146 458.711757h-15.257533l0.008534-15.248999c7.910365 5.845308 9.489025 6.451172 15.248999 15.248999z" fill="#F8A19D" /><path d="M311.072762 403.381868c12.569545 32.016926-3.908249 50.414711-27.280946 70.817821-9.01116 7.867699-16.955659 1.006929-12.535412 22.220702l-10.53862 6.118373-30.873464 87.841746-35.404644-1.774926-14.310337-31.598794c3.814383-34.67078 4.369047-66.482907 22.485234-98.030501 9.932756-17.305524 31.760927-44.202472 49.476049-52.181103 20.070312-9.03676 38.135299-13.431407 58.98214-3.413318z" fill="#FAB4AF" /></svg>