<?xml version="1.0" standalone="no"?><!DOCTYPE svg PUBLIC "-//W3C//DTD SVG 1.1//EN" "http://www.w3.org/Graphics/SVG/1.1/DTD/svg11.dtd"><svg t="1778769613946" class="icon" viewBox="0 0 1024 1024" version="1.1" xmlns="http://www.w3.org/2000/svg" p-id="5004" xmlns:xlink="http://www.w3.org/1999/xlink" width="256" height="256"><path d="M393.21 252.78s230.53-186.71 415.73 95.37c0 0 141.76 206.32-53.7 391.84 0 0-34.65 34.62-98.91 47.69-18.44 3.75-35.73 11.8-52.52 20.28-11.51 5.81-25.22 13.07-39.21 21.22-43.11 25.1-91.89 39.04-141.78 39.31-62.49 0.34-139.08-17.02-190.64-89.59 0 0-64.08-74.51-24.78-213 0 0 3.31-21.17-8.45-42.89 0 0-52.3-97.24-3.06-175.12 0 0 46.83-78.76 144.34-79.13 0 0 28.5 1.88 52.98-15.98z" fill="#F7F3E7" p-id="5005"></path><path d="M545.543631 654.335693a166.74 159.62 1.55 1 0 8.63522-319.12319 166.74 159.62 1.55 1 0-8.63522 319.12319Z" fill="#FDB23B" p-id="5006"></path><path d="M468 453.67a21.85 24.51 0 1 0 43.7 0 21.85 24.51 0 1 0-43.7 0Z" p-id="5007"></path><path d="M579.91 453.67a21.85 24.51 0 1 0 43.7 0 21.85 24.51 0 1 0-43.7 0Z" p-id="5008"></path><path d="M546.33 571.15c-23.97 0-45.86-12.16-58.56-32.53-3.65-5.86-1.87-13.57 3.99-17.22 5.86-3.65 13.57-1.87 17.22 3.99 8.11 13 22.07 20.76 37.35 20.76s29.24-7.76 37.35-20.76c3.65-5.86 11.36-7.65 17.22-3.99s7.65 11.36 3.99 17.22c-12.7 20.37-34.59 32.53-58.56 32.53z" p-id="5009"></path><path d="M421 880.99c-37.43 0-71.81-6.17-102.25-18.35-39.18-15.68-71.64-41.29-96.49-76.11-2.84-3.47-18.3-23.39-29.16-58.51-10.59-34.26-18.8-90.58 2-164.61 0.31-3.1 1.34-18.75-7.16-34.45-0.59-1.09-14.05-26.37-21.25-61.82-9.7-47.71-3.28-91.22 18.55-125.82 1.35-2.22 13.92-22.38 38.28-42.5 33.52-27.68 73.85-42.4 116.65-42.57h0.44l0.43 0.03c0.19 0.01 24.32 1.2 44.57-13.44 2.97-2.36 26.66-20.77 63.87-37.18 36.11-15.92 92.35-32.84 155.21-23.05 81.65 12.72 153.86 66.07 214.63 158.58 2.42 3.55 37.29 55.8 48.43 131.49 6.67 45.29 3.39 89.54-9.73 131.55-16.33 52.27-47.99 100.96-94.08 144.74-2.9 2.85-39.32 37.58-105.12 50.96-17.58 3.57-34.7 11.78-49.38 19.19-13.68 6.91-26.65 13.93-38.56 20.86-45.59 26.55-96.76 40.73-148 41.01h-1.89z m-81.06-599.74c-37.02 0.21-70.59 12.41-99.77 36.26-22.21 18.14-33.44 36.6-33.55 36.79l-0.16 0.27c-18.53 29.31-23.71 65.29-15.39 106.92 6.4 31.99 18.77 55.38 18.9 55.61 13.59 25.1 9.95 49.69 9.79 50.72l-0.12 0.75-0.21 0.73c-10.63 37.46-19.76 93.89-2.85 149.97 10.1 33.51 24.96 51.33 25.11 51.5l0.38 0.44 0.3 0.43c22.06 31.05 50.89 53.85 85.68 67.77 27.93 11.18 59.79 16.74 94.71 16.56 46.87-0.26 93.74-13.27 135.55-37.61 12.33-7.18 25.75-14.44 39.87-21.57 16.12-8.14 35.05-17.18 55.67-21.37 47.53-9.67 81.35-33.21 92.59-44.31l0.2-0.2c42.85-40.67 72.23-85.61 87.34-133.57 12.05-38.26 15.14-78.66 9.19-120.07C832.92 406 798.98 355.7 798.64 355.2l-0.14-0.21C741.83 268.68 675.42 219 601.11 207.34c-56.65-8.89-107.81 6.43-140.75 20.85-36.19 15.84-59.06 34.12-59.29 34.3l-0.49 0.38c-26.21 19.12-56.13 18.58-60.63 18.38z" p-id="5010"></path><path d="M550.29 666.88c-1.7 0-3.39-0.02-5.11-0.07-47.76-1.29-92.2-20.33-125.15-53.62-33.09-33.43-50.63-77.21-49.38-123.28 2.56-94.87 85.02-169.89 183.82-167.22 47.76 1.29 92.2 20.33 125.15 53.62 33.09 33.43 50.63 77.21 49.38 123.28-2.52 93.23-82.2 167.29-178.71 167.29z m-0.92-319.26c-83.04 0-151.58 63.28-153.73 142.96-1.06 39.18 13.92 76.47 42.16 105.02 28.39 28.69 66.77 45.1 108.05 46.21 85 2.3 155.97-61.81 158.16-142.9 1.06-39.18-13.92-76.47-42.16-105.02-28.39-28.69-66.77-45.1-108.05-46.21-1.48-0.04-2.95-0.06-4.42-0.06z" p-id="5011"></path></svg>