<?xml version="1.0" standalone="no"?><!DOCTYPE svg PUBLIC "-//W3C//DTD SVG 1.1//EN" "http://www.w3.org/Graphics/SVG/1.1/DTD/svg11.dtd"><svg class="icon" width="256px" height="256.00px" viewBox="0 0 1024 1024" version="1.1" xmlns="http://www.w3.org/2000/svg"><path d="M6.847889 499.7632c6.084267-34.7392 22.7584-79.249067 47.8464-105.5488 15.36-16.1024 56.311467-35.985067 65.237333-46.3872 15.3088-17.8432 8.7808-6.152533 33.314134-11.434667 31.9232-6.877867 74.4704-38.673067 93.9008-62.2848 18.696533-22.724267 27.357867-36.753067 51.285333-57.156266 9.045333-7.7056 20.232533-21.469867 22.135467-22.954667 3.985067-3.1232 85.6832-34.5856 93.422933-35.908267 45.4144-7.739733 116.206933-8.8832 160.068267 6.024534 14.7712 5.0176 42.385067 23.697067 56.362666 27.972266 19.345067 5.9136 17.979733 4.283733 35.131734 18.705067 61.252267 51.4816 83.089067 49.604267 162.542933 48.674133 9.617067-0.110933 17.083733-6.229333 23.799467-6.229333 10.146133 0 30.788267 9.053867 39.099733 11.963733l-21.051733 6.007467c11.656533 15.854933 26.7008 30.848 36.061866 48.1536 20.693333 38.272 1.339733 74.487467-3.976533 113.5616l-9.7792 1.5872c-5.640533 37.521067-56.3968 50.517333-49.024 91.9552l-12.6976 6.690133c6.203733 54.263467-27.3152 113.655467-68.736 147.165867-13.312 10.769067-58.146133 36.701867-73.156267 41.122133-9.770667 2.875733-96.768 2.884267-106.5216 0-4.795733-1.416533-8.482133-7.953067-14.097066-9.9584-20.224-7.227733-41.096533-15.5392-61.636267-19.618133l-0.375467-17.595733c-28.919467 5.341867-19.831467-5.632-29.892266-15.086934-12.970667-12.194133-48.119467-34.005333-65.6128-34.082133L408.989756 615.253333c-93.218133-30.882133-187.648 17.3824-284.2624-7.0144l-4.241067-11.264c-17.032533-0.6656-42.231467-14.651733-56.738133-24.7808-13.943467-9.736533-20.829867-34.722133-28.381867-41.156266-2.551467-2.176-8.021333-0.401067-9.6768-1.732267-3.6864-2.986667 6.673067-45.610667-18.833067-29.533867z m332.066133-257.3824c-1.297067 1.314133-21.0944 26.897067-22.263466 28.859733-2.389333 4.027733-15.240533 36.445867-14.788267 38.459734 9.975467 18.167467 31.880533 18.568533 50.9696 15.761066 16.930133-2.491733 38.946133-30.276267 56.8832-39.3472 10.0096-5.060267 42.453333-18.090667 52.411733-19.7632 30.088533-5.051733 52.974933 5.0176 67.566934-33.442133-12.066133-26.606933-34.176-36.514133-62.993067-34.116267-14.984533 1.245867-45.696 4.4032-58.888533 7.236267-7.082667 1.518933-64.196267 31.616-68.898134 36.360533z m-73.4208 113.024c-12.714667 0.9472-26.538667-1.544533-39.005866 0.110933-5.649067 0.750933-54.016 17.262933-56.311467 19.157334-1.604267 1.322667-0.4864 11.656533-13.252267 14.165333l6.6048 44.484267c15.121067-1.220267 36.130133 3.447467 49.979734-0.5632 12.475733-3.6096 35.080533-27.605333 51.4304-29.764267l0.554666-47.581867z" fill="#F9F4E8" /><path d="M891.012156 265.1904c51.5328 18.065067 86.263467 40.106667 111.035733 90.453333 19.456 39.534933 27.0848 83.012267 18.397867 126.08-0.034133 0.1536-3.0464-0.315733-3.131734 0l-5.998933-30.062933c-0.733867 12.945067-1.7152 31.018667-16.938667 30.890667-9.480533 47.36-55.773867 69.905067-78.370133 111.3856-18.466133 33.911467-14.301867 69.1712-29.7216 102.596266-12.561067 27.229867-36.078933 48.008533-50.653867 72.6528-103.5008 83.362133-214.8608 83.2-325.930666 13.5424-5.3248-3.336533-3.054933-9.6768-4.846934-10.786133-36.676267-22.6048-79.9744-48.349867-123.3664-54.3744-63.726933-8.849067-131.925333 11.170133-197.4528 4.983467-39.313067-3.712-82.773333-31.982933-113.979733-54.434134L6.847889 577.9456c-0.128-0.836267-5.2992-2.4064-6.314667-14.557867-2.0992-25.096533 2.414933-41.378133 6.314667-63.633066 25.4976-16.0768 15.138133 26.5472 18.833067 29.533866 1.655467 1.339733 7.125333-0.4352 9.6768 1.732267 7.552 6.434133 14.4384 31.419733 28.381866 41.156267 14.506667 10.129067 39.7056 24.123733 56.738134 24.7808l4.241066 11.264c96.6144 24.3968 191.0528-23.867733 284.2624 7.0144l1.5104 9.847466c17.493333 0.0768 52.642133 21.896533 65.6128 34.082134 10.0608 9.454933 0.9728 20.437333 29.892267 15.086933l0.375467 17.595733c20.548267 4.078933 41.4208 12.3904 61.636266 19.618134 5.623467 2.005333 9.301333 8.541867 14.097067 9.9584 9.7536 2.884267 96.750933 2.875733 106.5216 0 15.010133-4.420267 59.844267-30.353067 73.156267-41.122134 41.4208-33.5104 74.9312-92.9024 68.736-147.165866l12.6976-6.690134c-7.364267-41.437867 43.392-54.434133 49.024-91.9552l9.7792-1.5872c5.316267-39.074133 24.6784-75.2896 3.976533-113.5616-9.361067-17.3056-24.3968-32.298667-36.061867-48.1536l21.051734-6.007466z" fill="#FAECD1" /><path d="M1017.314022 481.723733c-21.896533 85.819733-49.9712 77.550933-89.3952 136.157867-30.037333 44.654933-24.3712 107.392-60.859733 155.6736-70.690133 93.533867-193.954133 121.181867-300.945067 78.165333-62.2592-25.0368-123.502933-91.784533-189.5168-99.191466-58.7264-6.587733-109.525333 16.546133-162.5088 12.151466-96.315733-7.9872-183.5776-70.485333-207.1296-165.9904-1.595733-6.4512 0.8448-14.421333-0.119466-20.727466l63.2064 90.171733c31.2064 22.442667 74.666667 50.722133 113.979733 54.434133 65.536 6.186667 133.7344-13.832533 197.4528-4.983466 43.392 6.024533 86.690133 31.7696 123.3664 54.3744 1.792 1.1008-0.477867 7.441067 4.846933 10.786133 111.061333 69.6576 222.429867 69.819733 325.930667-13.5424 14.574933-24.635733 38.0928-45.422933 50.653867-72.6528 15.419733-33.425067 11.255467-68.693333 29.7216-102.596267 22.596267-41.480533 68.898133-64.0256 78.370133-111.3856 15.214933 0.128 16.2048-17.9456 16.938667-30.890666l5.998933 30.062933z" fill="#EFE1C2" /><path d="M338.914022 242.3808c4.701867-4.744533 61.815467-34.8416 68.898134-36.360533 13.192533-2.833067 43.904-5.9904 58.888533-7.236267 28.8256-2.397867 50.926933 7.509333 62.993067 34.116267-14.592 38.468267-37.4784 28.3904-67.566934 33.442133-9.966933 1.672533-42.402133 14.702933-52.411733 19.7632-17.937067 9.070933-39.944533 36.855467-56.8832 39.3472-19.089067 2.807467-40.994133 2.4064-50.9696-15.761067-0.452267-2.013867 12.398933-34.423467 14.788267-38.459733 1.169067-1.9712 20.957867-27.5456 22.263466-28.859733z" fill="#FDFDFB" /><path d="M265.493222 355.4048l-0.554666 47.581867c-16.349867 2.158933-38.954667 26.154667-51.4304 29.764266-13.8496 4.010667-34.858667-0.657067-49.979734 0.5632l-6.6048-44.484266c12.765867-2.500267 11.648-12.834133 13.252267-14.165334 2.295467-1.8944 50.670933-18.4064 56.311467-19.157333 12.4672-1.655467 26.2912 0.836267 39.005866-0.110933z" fill="#FDFCF9" /></svg>