<?xml version="1.0" standalone="no"?><!DOCTYPE svg PUBLIC "-//W3C//DTD SVG 1.1//EN" "http://www.w3.org/Graphics/SVG/1.1/DTD/svg11.dtd"><svg class="icon" width="256px" height="256.00px" viewBox="0 0 1024 1024" version="1.1" xmlns="http://www.w3.org/2000/svg"><path d="M745.00186 128.052171c-8.362658 0.964266 1.041066 19.370646 2.756263 23.261841 62.779665 143.103845 92.347633 304.622603 47.863415 457.949371-82.286844 283.647693-402.516897 367.726535-631.525716 189.286195-11.033588-8.601591-16.213316-10.581322-14.412784 5.742927-55.278873-115.020675-48.785014-266.171445-15.94025-388.735579 75.852718-282.990627 344.089227-597.281486 611.259072-287.504755zM396.458237 117.632982c-47.479415 8.371191-103.748154 86.35724-118.365738 130.167326-11.221321 33.638364-17.971181 72.396722 4.403195 102.894821 3.148797 4.292262 17.066648 18.218647 21.07731 19.387713 65.800462 19.157313 139.443049-59.246869 161.194493-114.790276 25.753572-65.757795 26.333838-154.359299-68.300727-137.659584z" fill="#FAF2DB" /><path d="M149.683038 804.292505c-1.800531-16.324249 3.379196-14.344518 14.412784-5.742927 229.008819 178.44034 549.238872 94.370031 631.525716-189.286195 44.484218-153.326767 14.907717-314.845526-47.863415-457.949371-1.706665-3.891196-11.118921-22.297576-2.756263-23.261841 142.293179 164.983288 219.536829 459.365902 135.918786 664.771546-51.114611 125.567864-161.800358 204.748578-294.971414 225.211489-183.372601 28.177036-354.465749-43.554086-436.266194-213.742701z" fill="#F4E1B7" /><path d="M396.458237 117.632982c94.634564-16.691182 94.054298 71.910322 68.300726 137.659584-21.751443 55.543406-95.385497 133.947588-161.194492 114.790276-4.010662-1.169065-17.928514-15.086917-21.07731-19.387713-22.374376-30.4981-15.624516-69.256458-4.403196-102.894821 14.617584-43.810086 70.886323-121.796135 118.365739-130.167326z" fill="#FDFDF5" /></svg>