<?xml version="1.0" standalone="no"?><!DOCTYPE svg PUBLIC "-//W3C//DTD SVG 1.1//EN" "http://www.w3.org/Graphics/SVG/1.1/DTD/svg11.dtd"><svg class="icon" width="256px" height="256.00px" viewBox="0 0 1024 1024" version="1.1" xmlns="http://www.w3.org/2000/svg"><path d="M430.208 141.3888c10.222933 22.613333 24.132267 2.372267 39.057067-3.012267 28.151467-10.154667 62.506667-5.188267 81.6128 19.84l8.413866-22.442666c0.264533 10.5216-4.2752 21.154133-4.061866 25.480533 0.273067 5.418667 18.4576 17.015467 15.505066 39.150933-1.211733 9.096533-13.917867 21.8112-22.673066 25.1648-4.360533 1.672533-27.3664 1.621333-28.288 8.789334l0.238933 210.082133 11.2128-16.827733c-1.117867 16.708267-5.2992 33.792-5.853867 47.4624-2.944 72.311467-1.2032 152.0128 0.247467 224.7424 0.136533 6.8096-4.1728 20.949333 5.597867 19.6352l11.3408-114.944c8.9856-65.2544 32.017067-130.850133 33.5872-196.514134 0.221867-9.309867-4.241067-26.146133 5.597866-30.882133l5.597867 33.664c-3.012267-24.174933 7.0656-47.035733 11.067733-70.2976 1.493333-8.695467 5.410133-22.229333 5.7856-25.105067l39.278934 5.623467-16.8192 95.402667c14.8736-10.666667 30.856533-6.656 39.2704-22.4512l0.017066 11.153066c12.603733-2.5088 23.799467 7.671467 33.655467 0.0768l2.619733 11.255467c32.896 25.480533 24.482133 69.640533-19.345066 67.438933-0.622933 4.4288 0.631467 9.122133-0.3072 13.550934-16.733867 78.967467-36.3264 156.450133-44.5952 236.194133-7.031467 67.857067-2.269867 140.637867-11.349334 207.530667-3.114667 22.9376-19.626667 31.018667-41.617066 24.789333-12.834133-3.6352-9.7536-35.566933-8.772267-47.112533 6.5024-76.672 16.085333-152.644267 22.434133-230.1184l34.321067-178.944c7.492267-19.575467 50.3552 4.625067 44.168533-31.616-13.858133 0.4352-35.566933-4.241067-47.172266-11.776-10.1376-6.5792-5.316267-16.4864-14.5664-16.2816l-16.9472 109.3376c-6.8864 44.4416-17.006933 90.299733-22.237867 134.903466-9.642667 82.261333-7.7824 166.5536-22.4256 246.9632-2.141867 11.767467 3.575467 26.197333-11.204267 33.672534-17.723733 8.968533-28.544-4.309333-41.984-3.165867-13.943467 1.186133-23.364267 11.2384-42.077866-0.059733-1.774933-26.9312 1.3056-54.391467-0.034134-81.339734-4.5824-92.023467-15.752533-183.099733-22.6816-274.816l-5.623466 2.858667c-0.042667-0.494933-5.085867-1.390933-5.700267-8.098133-3.063467-33.476267-1.3312-70.058667-5.521067-104.149334l33.672534-11.229866 16.930133 131.797333 11.1104 42.180267c-1.578667-26.6496 2.116267-55.227733 0.256-81.6128-2.389333-33.860267-9.130667-67.370667-11.4688-103.586134 16.7936 3.089067 11.178667-8.610133 11.204267-19.601066 0.042667-18.4576-5.102933-30.139733-5.8368-44.6976-2.688-53.572267 0.247467-111.684267 0.247466-165.802667l39.338667-2.816-0.059733-19.626667-39.278934 11.221334c-7.3472-6.5792-22.024533-7.9104-28.0576-11.221334-6.9888-3.84-25.514667-19.575467-27.400533-25.898666-5.845333-19.626667 6.4768-26.4192 9.6768-39.552 1.9712-8.081067 0.520533-16.256 0.878933-24.3456z m61.730133 11.229867c-23.108267-4.4544-46.3872 8.251733-44.885333 33.664 25.915733 4.855467 41.659733-8.260267 44.885333-33.664z" fill="#F3EAD2" /><path d="M761.335467 360.2688c-16.1536 61.653333-29.815467 127.146667-44.9024 190.813867-26.7776 113.066667-67.601067 238.9248-78.446934 356.488533-3.8656 41.8304 8.260267 61.7728 44.765867 30.754133l0.017067 39.287467c-13.610667 23.1424-51.652267 32.648533-77.064534 37.9904-54.775467 11.511467-162.1248 11.963733-214.980266-6.920533-15.837867-5.6576-36.1728-16.5632-44.6976-31.069867l0.017066-39.287467c18.193067 21.0688 30.301867 4.642133 44.885334 5.614934 2.2272 0.145067 9.019733 3.9424 11.221333 5.614933 0.981333 0.7424 1.604267 5.589333 5.538133 8.2688 9.2416 6.2976 19.3536 10.615467 30.685867 8.328533 5.853867-3.413333 7.936-6.894933 8.849067-13.6192 3.0976-22.9632 1.083733-65.467733 0.0768-90.205866-2.56-63.172267-12.014933-132.0704-17.083734-193.3824-1.365333-16.571733 1.365333-33.937067 0-50.5088l5.623467-2.858667c6.929067 91.716267 18.0992 182.792533 22.6816 274.816 1.339733 26.948267-1.7408 54.417067 0.034133 81.339733 18.7136 11.298133 28.1344 1.245867 42.077867 0.059734 13.44-1.143467 24.260267 12.1344 41.984 3.165866 14.779733-7.4752 9.0624-21.905067 11.204267-33.672533 14.6432-80.4096 12.782933-164.701867 22.4256-246.9632 5.230933-44.603733 15.351467-90.4704 22.237866-134.903467l16.9472-109.3376c9.2416-0.2048 4.4288 9.7024 14.5664 16.2816 11.605333 7.534933 33.314133 12.2112 47.172267 11.776 6.186667 36.241067-36.667733 12.040533-44.168533 31.616l-34.321067 178.944c-6.3488 77.474133-15.931733 153.454933-22.434133 230.1184-0.981333 11.5456-4.061867 43.477333 8.772266 47.112534 21.981867 6.229333 38.5024-1.8432 41.617067-24.789334 9.079467-66.8928 4.317867-139.6736 11.349333-207.530666 8.2688-79.744 27.8528-157.218133 44.5952-236.194134 0.938667-4.4288-0.315733-9.122133 0.3072-13.550933 43.818667 2.193067 52.241067-41.9584 19.345067-67.438933l-2.619733-11.255467 48.068266-174.1568c-15.854933-8.302933-39.799467-27.178667-36.215466-46.549333 3.3792-18.235733 34.909867-40.6016 52.693333-43.067734 57.949867-8.0384 81.220267 19.831467 97.390933 71.1424-4.821333 29.696-37.486933 42.257067-63.351466 30.0032-7.4752 1.5104-21.085867 49.4592-24.260267 60.16-5.5552 18.7136-7.688533 38.869333-12.586667 57.565867z" fill="#E0CEAC" /><path d="M284.288 253.636267c14.455467 11.323733 23.3984-13.44 33.7152-19.601067 20.573867-12.279467 43.050667-9.6768 64.682667-3.037867 10.5728 3.242667 15.5904 12.8512 13.8496-5.4272 0.196267 0.9216 6.9888 14.216533 8.482133 16.7424 5.9392 10.0352 17.646933 14.583467 19.6608 30.976 2.952533 24.055467-14.011733 22.698667-16.913067 42.077867-11.392-1.314133-20.744533-0.0256-22.613333 13.866667-3.9936 29.602133 8.7296 63.104 11.400533 92.7744 23.867733 0.6144 16.4352-27.6224 16.827734-44.9024l5.742933 39.133866 44.765867 11.374934c10.3936 8.0128 4.727467 26.274133 5.614933 39.287466l-7.5776 0.8192c-14.677333 12.945067-28.509867 18.679467-48.452267 16.110934-1.143467 5.2992 1.024 12.032-0.093866 16.7424-8.6528 36.497067 1.373867 56.004267 5.495466 92.714666 2.773333 24.7296 1.937067 52.855467 5.7088 78.523734l5.632-2.875734c5.0688 61.312 14.5152 130.210133 17.083734 193.3824 1.006933 24.746667 3.0208 67.2512-0.0768 90.205867-0.904533 6.724267-2.9952 10.2144-8.849067 13.6192-11.332267 2.286933-21.444267-2.039467-30.685867-8.328533-3.925333-2.670933-4.5568-7.5264-5.538133-8.2688 4.027733-17.109333-4.932267-32.469333-5.853867-47.4624-7.7568-125.713067-8.328533-237.243733-33.4336-362.24 14.344533-10.376533 1.553067-30.6688 0.1024-42.1888-4.5568-36.113067-5.393067-75.707733-11.4432-112.034134-2.901333-17.4336-12.970667-35.089067-11.153066-53.410133-1.467733-1.672533-21.7856 1.211733-28.014934-0.0256-5.256533-1.041067-31.522133-20.4288-33.160533-25.8816 0.981333-18.7392 6.135467-32.878933 5.0944-52.6848z" fill="#F3EAD2" /><path d="M828.680533 410.7776c-10.043733 19.080533-19.447467 46.8224-28.0576 67.345067-51.182933 122.001067-102.920533 297.668267-112.4864 429.098666-1.450667 19.899733 2.747733 43.0592 0.392534 62.344534-0.981333 8.029867-5.410133 7.466667-5.76 8.055466l-0.017067-39.287466c-36.5056 31.018667-48.622933 11.076267-44.765867-30.754134 10.8544-117.563733 51.669333-243.421867 78.446934-356.488533l5.870933 3.114667c13.149867-42.743467 30.600533-84.283733 49.1264-124.893867 6.0928-13.3632 13.568-30.370133 23.569067-40.968533 0.9216 5.358933-0.896 10.043733 5.410133 14.208l28.270933 8.2432z" fill="#F0E5CB" /><path d="M598.5792 175.061333l-4.992 3.498667-0.6144 13.3376c-1.143467 4.616533 0.768 11.5968 0 16.836267-15.914667 9.873067-35.797333 30.788267-25.412267 50.688 0.6912 1.322667 18.6112 21.376 19.797334 22.272l-5.614934 95.4112c-9.838933 4.736-5.376 21.572267-5.597866 30.882133-1.570133 65.664-24.6016 131.259733-33.5872 196.514133l-11.3408 114.944c-9.770667 1.322667-5.461333-12.817067-5.597867-19.6352-1.450667-72.7296-3.191467-152.4224-0.247467-224.7424 0.554667-13.6704 4.736-30.754133 5.853867-47.4624 3.464533-51.652267 6.280533-103.0656 10.9824-154.581333 1.408-15.428267 9.565867-30.216533 5.853867-47.4624 8.7552-3.3536 21.461333-16.068267 22.673066-25.1648 2.944-22.135467-15.240533-33.723733-15.505066-39.150933-0.213333-4.3264 4.3264-14.958933 4.061866-25.480534-0.093867-3.6608 0.529067-7.355733-0.1536-10.990933-78.6688-13.201067-20.6592-86.877867 36.642134-78.779733 23.620267 3.336533 54.3488 38.5536 52.9152 63.803733-10.606933 19.4048-30.754133 17.0496-47.5904 25.693867l-2.525867 39.560533z" fill="#E0CEAC" /><path d="M233.7792 405.162667c39.517867 65.416533 68.036267 148.2496 89.5744 221.952l5.8368-3.072c20.522667 89.642667 47.018667 184.4736 61.6192 277.922133 1.723733 11.0336 4.027733 31.232 0.110933 41.975467-14.583467-0.964267-26.692267 15.453867-44.885333-5.614934l-0.017067 39.287467c-0.349867-0.597333-4.616533 0.0256-5.742933-8.046933-2.090667-14.933333 3.822933-28.987733 3.549867-39.662934-0.682667-26.120533-10.171733-53.358933-14.523734-78.677333-25.130667-146.013867-64.913067-289.245867-129.194666-423.620267l33.3056-11.716266 0.375466-10.734934z" fill="#F3EAD2" /><path d="M278.673067 225.570133c2.2784 10.018133 5.051733 17.297067 5.614933 28.0576 1.032533 19.805867-4.1216 33.9456-5.0944 52.6848 1.6384 5.4528 27.904 24.840533 33.160533 25.8816 15.684267 69.4528 36.48 137.770667 50.5088 207.658667 25.096533 124.996267 25.6768 236.5184 33.4336 362.24 0.9216 14.993067 9.890133 30.344533 5.853867 47.4624-2.2016-1.672533-9.002667-5.461333-11.221333-5.614933 3.9168-10.743467 1.6128-30.941867-0.110934-41.975467-14.609067-93.448533-41.096533-188.279467-61.6192-277.922133-0.759467-3.319467 0.7424-7.8592 0-11.221334l-0.6144-13.3376-4.992-3.498666c-0.384-3.6352 0.571733-7.7312 0-11.221334l-0.6144-13.3376-4.992-3.498666c-10.4192-57.847467-20.445867-117.888-34.9696-175.488-13.141333-52.113067-33.425067-102.698667-43.605333-155.630934 0.64-0.247467 1.8944-8.593067 8.977067-10.513066 9.4208-2.551467 25.173333 1.536 30.3104-0.7168z" fill="#E0CFAD" /><path d="M396.535467 225.570133c-5.0176-23.850667-3.003733-61.7216-5.742934-86.8608-5.504-50.542933-20.7104-27.733333-56.029866-44.987733-32.2304-28.424533 16.128-84.4544 48.657066-91.716267 65.9456-14.72 141.687467 71.168 47.138134 94.830934-1.2032 14.754133 0.315733 29.789867-0.341334 44.552533-0.3584 8.0896 1.092267 16.264533-0.878933 24.3456-3.2 13.1328-15.530667 19.925333-9.6768 39.552 1.885867 6.331733 20.411733 22.058667 27.400533 25.898667l16.836267 196.4288-44.765867-11.374934-5.742933-39.133866c0.256-11.136 0.315733-22.545067 0-33.672534-0.1792-6.3232 0.904533-12.740267-0.6144-19.054933l-5.000533-3.396267c0.008533-1.826133-0.264533-3.84 0-5.614933 2.909867-19.3792 19.874133-18.0224 16.913066-42.077867-2.013867-16.392533-13.7216-20.9408-19.6608-30.976-1.493333-2.525867-8.285867-15.8208-8.482133-16.7424zM351.6416 62.805333c24.669867 1.6384 47.8208-17.834667 25.224533-39.2704-17.749333 5.060267-28.919467 21.102933-25.224533 39.2704z" fill="#E3D2B2" /><path d="M643.473067 40.362667c35.822933-54.4 119.176533-53.8112 144.8448 9.4976 18.414933 45.422933-5.282133 56.942933-46.865067 57.813333-16.597333 0.349867-10.018133 0.0256-19.4048 11.264-0.119467-3.6608 0.546133-7.364267-0.1536-10.999467-15.095467 0.1536-25.693867-11.511467-39.133867-0.2304l-0.494933-10.641066c-26.2144-11.502933-40.832-26.743467-38.792533-56.704z" fill="#F2EBD2" /><path d="M699.5968 225.570133c-0.503467 22.903467 24.814933 41.403733 2.9696 61.9008-13.482667 12.6464-19.387733 9.224533-25.4208 33.5104-2.414933-8.738133 7.995733-21.589333-8.277333-22.459733-9.3184-0.494933-18.807467 0.981333-28.091734-0.093867-14.737067-1.7152-26.103467-15.906133-36.590933 5.717334-0.392533-27.2896-8.669867-16.264533-16.836267-22.4512-1.186133-0.896-19.106133-20.949333-19.797333-22.272-10.385067-19.899733 9.4976-40.814933 25.412267-50.688 21.7088-13.474133 38.894933-12.5696 64.042666-10.939734l8.917334-11.511466c-0.1024 5.8368-1.134933 11.895467 2.517333 17.083733l31.1552 22.203733z" fill="#F4EAD3" /><path d="M278.673067 225.570133c-5.137067 2.2528-20.881067-1.834667-30.3104 0.7168-7.082667 1.92-8.337067 10.257067-8.977067 10.513067-0.964267 0.375467-4.9408-3.584-8.149333-3.1744-42.146133 5.358933-66.039467-0.861867-59.178667-50.133333 2.978133-21.4016 39.338667-53.435733 59.8272-58.0096 35.6096-7.953067 91.810133 16.384 86.075733 58.0096-3.080533 22.340267-17.058133 24.874667-33.732266 33.834666-4.1472 2.2272-5.085867 8.046933-5.546667 8.2432z m-69.597867-72.3968c-10.752 3.089067-29.226667 33.732267-11.690667 38.638934 20.667733 4.232533 27.844267-10.146133 36.078934-25.540267l-8.192-13.568c-5.3248-0.187733-11.0336-1.015467-16.187734 0.469333z" fill="#E9DBBE" /><path d="M228.164267 388.3264c-2.730667 1.143467-9.4208-1.058133-16.5888 2.875733-8.021333 4.394667-21.290667 18.952533-22.690134 19.575467-14.455467 6.4-50.6624-2.491733-55.722666-20.394667-1.476267-5.230933 6.545067-33.143467 9.6-39.7568 15.9744-34.619733 52.795733-40.5504 85.623466-27.050666 17.245867 7.0912 27.383467 19.2768 21.572267 38.852266-0.477867 1.621333-20.224 25.250133-21.7856 25.898667z" fill="#F3EBD4" /><path d="M682.760533 107.716267c13.44-11.2896 24.0384 0.384 39.133867 0.2304 0.699733 3.6352 0.034133 7.330133 0.1536 10.999466 1.032533 32.802133-25.096533 71.1424-22.4512 106.632534l-31.1552-22.203734c-3.652267-5.188267-2.6112-11.246933-2.517333-17.083733 0.418133-24.567467 12.578133-54.050133 16.836266-78.574933z" fill="#E0CEAC" /><path d="M228.164267 388.3264c-0.392533 6.331733 2.500267 11.690667 5.614933 16.836267l-0.375467 10.734933-33.3056 11.716267c-3.131733-6.545067-8.516267-10.368-11.221333-16.836267 1.399467-0.622933 14.677333-15.172267 22.690133-19.575467 7.168-3.933867 13.858133-1.732267 16.5888-2.875733z" fill="#E3D3B4" /><path d="M592.964267 191.8976l0.6144-13.3376 4.992-3.498667c4.3008 10.683733-5.376 15.889067-5.614934 16.836267z" fill="#F4EAD3" /><path d="M323.575467 584.7552c-0.1536-0.955733-3.7888-6.698667-5.614934-16.836267l4.992 3.498667 0.6144 13.3376zM329.1904 612.821333c-0.068267-0.298667-3.968 1.501867-4.992-3.498666l-0.6144-13.3376 4.992 3.498666 0.6144 13.3376z" fill="#F3EAD2" /><path d="M604.1856 304.145067c10.487467-21.623467 21.853867-7.432533 36.590933-5.717334 9.284267 1.083733 18.781867-0.401067 28.091734 0.093867 16.273067 0.8704 5.8624 13.7216 8.277333 22.459733l-11.221333 72.96c-8.413867 15.7952-24.405333 11.784533-39.2704 22.4512l16.8192-95.402666-39.278934-5.623467c0.452267-3.464533 0.0512-7.6032 0-11.221333z" fill="#E1D0AE" /><path d="M469.495467 466.901333c0.375467 5.563733-0.3584 11.264 0 16.836267 2.338133 36.206933 9.079467 69.725867 11.4688 103.586133 1.860267 26.385067-1.834667 54.9632-0.256 81.6128l-11.1104-42.180266-16.930134-131.797334-33.672533 11.229867c-0.443733-3.592533-1.664-6.186667-5.614933-5.614933 1.117867-4.7104-1.0496-11.4432 0.093866-16.7424 19.9424 2.568533 33.774933-3.165867 48.452267-16.110934l7.5776-0.8192z" fill="#DFD0B2" /><path d="M604.1856 304.145067c0.0512 3.626667 0.452267 7.7568 0 11.221333-0.375467 2.875733-4.283733 16.401067-5.7856 25.105067-4.002133 23.261867-14.08 46.122667-11.067733 70.2976l-5.597867-33.664 5.614933-95.4112c8.1664 6.186667 16.452267-4.8384 16.836267 22.4512z" fill="#FCF9ED" /><path d="M418.986667 506.1888c4.189867 34.090667 2.4576 70.664533 5.521066 104.149333 0.6144 6.7072 5.666133 7.6032 5.700267 8.098134 1.365333 16.571733-1.365333 33.937067 0 50.5088l-5.632 2.875733c-3.771733-25.668267-2.935467-53.794133-5.7088-78.523733-4.1216-36.7104-14.148267-56.226133-5.495467-92.714667 3.950933-0.571733 5.1712 2.013867 5.614934 5.614933z" fill="#FCF9EA" /><path d="M491.938133 152.618667c-3.2256 25.403733-18.9696 38.519467-44.885333 33.664-1.501867-25.412267 21.777067-38.1184 44.885333-33.664z" fill="#FDFBF2" /><path d="M475.1104 242.4064l39.2704-11.2128 0.059733 19.626667-39.330133 2.816v-11.229867z" fill="#E1D3B4" /><path d="M828.680533 410.7776l-28.270933-8.2432c-6.2976-4.164267-4.488533-8.849067-5.410133-14.208-3.746133-21.870933-6.903467-14.805333-11.221334-22.4512-4.693333-8.302933-7.7824-32.2816-5.0432-41.5488 16.512-18.346667 44.322133-24.6016 68.6592-19.259733 33.698133 7.389867 62.3872 78.4896 28.296534 88.174933-19.7632 5.614933-32.904533-9.2672-47.010134 17.536z" fill="#E4D3B3" /><path d="M351.6416 62.805333c-3.694933-18.167467 7.4752-34.218667 25.224533-39.2704 22.596267 21.435733-0.554667 40.9088-25.224533 39.2704z" fill="#F8F0DE" /><path d="M413.371733 343.432533l-5.000533-3.396266c-1.365333-6.3232-0.657067-12.706133-0.6144-19.054934l5.000533 3.396267c1.518933 6.314667 0.4352 12.7232 0.6144 19.054933z" fill="#F3EAD2" /><path d="M209.0752 153.173333c5.162667-1.4848 10.862933-0.657067 16.187733-0.469333l8.192 13.568c-8.234667 15.394133-15.4112 29.764267-36.078933 25.540267-17.536-4.906667 0.938667-35.541333 11.690667-38.638934z" fill="#FCF7EC" /></svg>