<?xml version="1.0" standalone="no"?><!DOCTYPE svg PUBLIC "-//W3C//DTD SVG 1.1//EN" "http://www.w3.org/Graphics/SVG/1.1/DTD/svg11.dtd"><svg class="icon" width="256px" height="256.00px" viewBox="0 0 1024 1024" version="1.1" xmlns="http://www.w3.org/2000/svg"><path d="M920.2688 427.6224c-3.234133 16.768-27.9552 52.9664-40.8064 66.312533-8.337067 8.6528-30.916267 21.5808-35.140267 26.077867-1.681067 1.792-0.042667 10.897067-1.6128 16.128-7.748267 25.821867-18.0224 35.191467-9.4976 64.571733-57.685333 24.712533 0.7168 56.977067 0.725334 84.514134 0 7.936-15.197867 42.760533-20.6592 46.1312-4.693333 2.8928-11.707733 1.024-14.6944 3.3024-1.467733 1.117867 0.759467 6.442667-3.805867 9.463466-35.857067 23.714133-103.936 14.267733-146.5088 26.1632-45.1328 12.603733-76.757333 20.625067-122.478933 30.549334-9.258667 2.013867-16.2048 12.168533-21.947734 13.755733-7.808 2.167467-16.5376-0.861867-24.174933 1.3312-6.417067 1.834667-10.026667 12.1088-16.529067 14.0544-13.021867 3.882667-25.412267-1.7152-37.649066-4.462933 0.955733-11.050667 4.8896-17.314133 10.205866-25.506134h5.102934c8.055467 11.400533 29.9008-5.12 44.433066-9.122133 43.835733-12.066133 88.123733-18.346667 130.4832-32.750933 62.037333-21.0944 85.9392-17.826133 148.872534-24.558934 8.251733-0.878933 19.182933-6.263467 28.407466-7.296 8.797867-16.5632 27.383467-40.132267 17.749334-59.0336-1.365333-2.679467-13.1072-13.653333-16.068267-14.5152-10.376533-3.037867-54.903467-1.860267-68.224-0.64l7.645867-15.3088c-101.956267 1.083733-184.0896 40.704-268.023467 94.139734-83.5072 53.162667-150.894933 99.6608-249.924267 142.839466-18.517333 8.072533-35.874133 19.106133-55.645866 23.424l4.9152 45.636267c20.317867-4.7104 40.942933-2.935467 61.149866-5.085867l-33.271466 10.0864c-65.109333 5.102933-128.4608-5.666133-164.974934-64.341333-55.005867-88.388267-18.619733-225.800533 14.609067-318.1056l4.445867-3.268267 0.657066-6.9376c15.7184-2.756267 9.565867 7.825067 10.2144 17.809067 0.9984 15.2832 2.176 47.598933 5.802667 60.535467 3.3792 12.023467 29.1328 36.224 40.0896 44.074666 10.8288 7.765333 15.6416 10.299733 29.312 14.045867 108.347733 29.7472 216.738133-28.484267 310.920533-74.24 71.005867-34.491733 125.038933-72.413867 207.889067-77.755733 38.024533-2.449067 68.215467 0.8448 107.426133-4.795734 25.992533-3.7376 35.345067 2.628267 51.3792-25.378133 16.068267 6.9888 32.290133 7.5776 45.704534-5.077333 5.418667-5.111467 5.9136-11.9808 8.439466-14.498134 8.516267-8.4992 24.3968-17.390933 32.4608-31.650133l-0.682666-20.522667 23.296-10.077866z" fill="#F9BEB6" /><path d="M160.238933 340.906667c49.450667-66.7904 101.7856-131.2 173.4912-176.034134 9.429333-5.896533 21.5296-11.485867 32.3584-18.517333 113.629867-73.8048 274.4576-90.4448 402.602667-49.194667 9.3696 3.012267 66.338133 23.082667 69.2224 25.378134 0.7424 0.597333 2.525867 8.465067 10.939733 14.327466-15.317333-2.449067-17.7664 22.510933-23.022933 30.532267-3.84 5.8624-11.502933 9.6512-15.104 15.505067-9.0368 14.6688-13.226667 33.058133-20.573867 45.730133-1.450667 2.500267-40.661333 37.060267-43.229866 38.391467-26.0352 13.448533-60.219733 22.8352-88.721067 38.801066-22.570667 12.6464-31.965867 14.1568-52.753067 23.7568-22.109867 10.2144-43.298133 37.486933-75.477333 41.847467-9.634133 1.3056-20.949333-1.877333-29.892267 0.708267-8.490667 2.4576-18.3552 21.8368-26.769066 24.234666-9.728 2.773333-20.565333-1.024-32.776534 2.926934-13.329067 4.317867-30.6176 25.668267-44.049066 32.4608-17.322667 8.7552-33.058133 3.396267-49.2288 6.877866-13.6448 2.935467-33.262933 21.393067-42.350934 23.9616-15.2832 4.309333-47.854933 8.0128-65.450666 11.0592-15.138133 2.628267-69.307733 15.598933-69.154134-7.893333-0.315733-11.008 18.653867-18.670933 20.164267-26.001067 0.7936-3.8656-4.113067-10.794667-4.701867-17.262933 15.249067 12.885333 21.794133 18.577067 43.4944 15.419733 9.608533-1.399467 13.056-9.506133 20.906667-14.7968 4.599467-3.0976 10.811733-3.396267 14.139733-5.469866 4.138667-2.577067 2.321067-6.971733 4.4032-9.173334 1.774933-1.8688 6.749867-0.7168 7.8336-2.082133 2.193067-2.773333 0.810667-9.582933 3.541334-14.4384 3.456-6.152533 12.7744-10.658133 17.2288-18.594133 6.152533-10.973867 6.263467-23.7056 11.0848-35.140267-27.477333-53.4528-68.608-5.538133-99.6864 17.9456-2.542933 2.8928-22.144 42.530133-22.929067 45.9264l-45.9008 5.0944-0.034133-15.291733 20.5824-2.449067 1.954133-18.176 12.945067-5.162667c2.551467-7.278933-2.167467-12.663467-3.797334-18.653866-3.1232-11.4432 3.319467-15.752533-11.246933-6.570667z m514.423467-203.016534c-1.911467-1.536-41.890133-10.496-47.812267-11.101866-42.3936-4.3008-96.221867 3.874133-136.814933 15.982933-6.4256 1.911467-18.397867 13.713067-28.612267 17.3056-17.501867 6.161067-21.546667 7.3728-37.76 18.321067-26.5984 17.9712-73.856 45.934933-78.958933 79.351466-1.655467 10.845867 0.9216 16.529067 5.009067 26.308267 7.3984 2.6112 13.960533 5.8624 22.135466 6.1952 22.4256 0.904533 68.608-21.742933 89.284267-33.553067 37.111467-21.1968 95.914667-36.061867 140.433067-43.195733 9.5488-1.527467 20.6592 1.8944 29.781333-0.8192 4.9408-1.476267 7.338667-8.3712 15.880533-9.608533 9.028267-1.314133 18.7136 1.655467 27.733334-0.3328 6.843733-19.012267 24.866133-31.121067 10.820266-52.548267-2.773333-4.232533-6.9376-2.363733-9.088-4.4288-1.911467-1.834667-0.750933-6.818133-2.048-7.867733z" fill="#FDD8D1" /><path d="M894.762667 203.1872c1.578667 10.939733 9.915733 20.846933 15.300266 30.609067-3.968 9.156267 4.718933 14.4384 5.102934 15.300266 3.848533 8.763733 3.746133 11.656533 5.102933 20.4032 0.554667 3.592533-1.041067 8.209067 0.5632 12.1344l4.539733 3.165867c0.469333 4.9408-0.853333 10.8288 0 15.300267 3.9424 23.9872-18.167467 20.753067-30.5664 28.091733-14.301867 8.465067-31.3856 32.349867-49.399466 37.307733-27.426133 7.552-55.415467 15.8976-80 32.213334-8.7808 5.828267-17.5872 19.362133-23.552 22.357333-6.852267 3.438933-15.2064 1.245867-20.753067 4.753067-5.777067 3.652267-7.517867 17.425067-12.475733 23.227733-6.664533 7.790933-44.987733 27.946667-56.260267 30.455467-70.6048 15.675733-74.914133 28.586667-133.282133 60.552533-45.047467 24.669867-108.2112 40.874667-148.1472 66.090667-8.337067 5.265067-20.6848 19.524267-25.130667 20.778666-31.086933 8.772267-78.1312 11.844267-110.882133 21.742934-8.046933 2.432-14.148267 16.896-21.742934 19.063466-19.3024 5.521067-37.290667 1.774933-56.405333 20.488534l-52.6336-9.659734c-10.9568-7.850667-36.7104-32.0512-40.0896-44.074666-3.6352-12.936533-4.804267-45.252267-5.802667-60.535467-0.648533-9.984 5.504-20.565333-10.2144-17.809067v-5.102933c0.1024-9.787733 6.826667-17.024 10.205867-25.506133 22.084267-15.0784-0.1792 15.5392 5.239467 20.241066 13.7216-1.015467 30.378667 22.570667 38.749866 25.0368 9.890133 2.909867 58.069333 2.056533 70.9888 0.836267 13.4912-1.271467 24.029867-8.8576 35.584-10.325333 12.936533-1.646933 27.0848 1.979733 39.9104-0.896 20.522667-4.590933 46.848-25.216 68.104534-28.808534 21.444267-3.626667 44.125867 3.242667 64.366933-7.04 9.2416-4.693333 13.115733-13.866667 22.289067-18.517333 32.9472-16.699733 42.922667-1.902933 72.840533-34.2784 4.6592-5.034667 109.9008-57.070933 122.350933-61.277867 11.008-3.729067 21.973333-0.853333 32.810667-7.995733 9.002667-5.930667 10.1888-16.375467 21.717333-24.183467 21.4016-14.498133 64.878933-23.364267 90.24-32.1792 7.8336-2.722133 13.499733-14.037333 21.905067-18.901333 7.313067-4.241067 16.221867-4.599467 22.2976-8.311467 6.212267-3.7888 43.52-63.104 56.021333-76.5952 13.661867-14.7456 28.407467-28.322133 46.0032-38.161066h5.102934z" fill="#FCCBC1" /><path d="M848.853333 136.874667c7.364267 5.137067 14.882133 11.434667 20.4032 15.300266l-5.077333 2.542934c12.945067 11.426133 24.209067 31.5392 25.480533 48.4608-17.595733 9.838933-32.349867 23.415467-46.0032 38.161066-12.501333 13.499733-49.809067 72.8064-56.021333 76.5952-6.075733 3.703467-14.984533 4.0704-22.2976 8.311467-8.3968 4.872533-14.071467 16.1792-21.905067 18.901333-25.361067 8.814933-68.8384 17.681067-90.24 32.1792-11.528533 7.816533-12.714667 18.2528-21.717333 24.183467-10.845867 7.1424-21.802667 4.266667-32.810667 7.995733-12.450133 4.215467-117.691733 56.2432-122.350933 61.277867-29.917867 32.375467-39.893333 17.578667-72.840533 34.2784-9.173333 4.650667-13.047467 13.824-22.289067 18.517333-20.241067 10.282667-42.9312 3.421867-64.366933 7.04-21.256533 3.592533-47.581867 24.2176-68.104534 28.808534-12.834133 2.8672-26.973867-0.750933-39.9104 0.896-11.5456 1.467733-22.0928 9.053867-35.584 10.325333-12.919467 1.211733-61.098667 2.0736-70.9888-0.836267-8.3712-2.4576-25.028267-26.043733-38.749866-25.0368-5.418667-4.701867 16.8448-35.328-5.239467-20.241066 29.909333-75.153067 54.442667-119.3728 102.016-183.6288 14.5664-9.1904 8.123733-4.872533 11.246933 6.570666 1.6384 5.9904 6.357333 11.374933 3.797334 18.653867l-12.945067 5.162667-1.954133 18.176-20.5824 2.449066 0.034133 15.291734 45.9008-5.0944c-1.024 4.437333-0.4864 15.112533 0 20.4032 0.597333 6.459733 5.504 13.397333 4.701867 17.262933-1.5104 7.330133-20.48 14.993067-20.164267 26.001067-0.145067 23.492267 54.016 10.513067 69.154133 7.893333 17.595733-3.0464 50.176-6.749867 65.450667-11.0592 9.088-2.568533 28.706133-21.026133 42.350933-23.9616 16.170667-3.4816 31.906133 1.877333 49.2288-6.877867 13.44-6.792533 30.728533-28.142933 44.049067-32.4608 12.2112-3.950933 23.048533-0.1536 32.776533-2.926933 8.4224-2.397867 18.2784-21.777067 26.769067-24.234667 8.942933-2.594133 20.258133 0.5888 29.892267-0.708266 32.1792-4.360533 53.367467-31.624533 75.477333-41.847467 20.7872-9.608533 30.1824-11.1104 52.753067-23.7568 28.4928-15.965867 62.677333-25.352533 88.721066-38.801067 2.568533-1.322667 41.7792-35.8912 43.229867-38.391466 7.355733-12.680533 11.537067-31.069867 20.573867-45.730134 3.601067-5.845333 11.264-9.642667 15.104-15.505066 5.256533-8.021333 7.7056-32.981333 23.022933-30.532267z" fill="#FCD4CC" /><path d="M226.551467 937.7024c-20.215467 2.141867-40.840533 0.366933-61.149867 5.085867l-4.9152-45.636267c19.771733-4.317867 37.128533-15.351467 55.645867-23.424 99.029333-43.178667 166.417067-89.6768 249.924266-142.839467 83.933867-53.4272 166.0672-93.056 268.023467-94.139733l-7.645867 15.3088c-44.834133 4.104533-88.482133 30.685867-131.8912 41.8304l-1.467733 8.1408c-45.218133 17.664-92.5696 44.945067-131.8912 72.439467-11.042133 7.722667-18.082133 14.0544-25.506133 25.506133-5.307733 8.192-9.2416 14.455467-10.205867 25.506133-2.688 31.0528 15.726933 29.4912 40.8064 30.609067 28.578133 1.271467 56.149333-1.834667 84.078933-5.188267 16.520533-1.988267 39.953067-9.557333 56.081067-10.427733 21.2992-1.152 53.461333 18.176 28.142933 33.442133-14.336 8.644267-33.3824 10.350933-48.221866 2.269867l-3.4304 9.514667-29.934934 11.1872c-57.412267 8.021333-110.464 0.238933-165.674666 5.205333-54.690133 4.923733-107.170133 29.909333-160.785067 35.601067z" fill="#F8AA9E" /><path d="M961.0752 238.890667c65.0752 82.926933 87.3216 205.201067 29.909333 297.7024-11.810133 19.037867-23.586133 25.565867-37.751466 38.7584-21.4016 19.933867-22.058667 102.4-53.367467 127.709866l-25.489067 30.600534c5.469867-19.959467-7.0144-26.513067-12.868266-40.695467-7.7824-18.833067-6.382933-39.739733-22.613334-54.1696-1.1264-4.821333 15.6416-22.954667 20.036267-25.130667 7.7568-3.848533 16.861867-1.732267 25.915733-4.693333 4.48-1.467733 39.722667-23.586133 40.430934-25.8816 4.9664-16.256-6.7328-10.734933-12.706134-17.578667-5.060267-5.794133-8.721067-19.652267-13.380266-27.528533-7.970133-13.482667-22.2976-23.534933-19.712-44.049067 12.8512-13.346133 37.572267-49.544533 40.8064-66.312533 5.5552-28.817067 17.732267-65.800533 15.172266-94.2592-0.913067-10.154667-8.814933-26.632533-10.077866-33.262933-0.853333-4.48 0.469333-10.368 0-15.300267-0.349867-3.652267 1.006933-7.8336-0.810667-11.5968l-4.292267-3.703467c-1.3568-8.746667-1.2544-11.639467-5.102933-20.4032 3.268267-9.352533-3.234133-11.9296-5.102933-15.300266-5.393067-9.7536-13.7216-19.669333-15.300267-30.609067l12.731733-20.394667c15.982933 11.912533 26.043733 29.4912 38.178134 43.426134 4.462933 5.128533 13.627733 10.410667 15.402666 12.672z" fill="#F9B4A7" /><path d="M879.4624 493.934933c-2.5856 20.514133 11.741867 30.5664 19.712 44.049067 4.6592 7.876267 8.32 21.725867 13.380267 27.528533 5.981867 6.852267 17.681067 1.3312 12.706133 17.578667-0.699733 2.295467-35.950933 24.4224-40.430933 25.8816-9.045333 2.961067-18.158933 0.8448-25.915734 4.693333-4.386133 2.176-21.154133 20.309333-20.036266 25.130667 16.2304 14.429867 14.830933 35.336533 22.613333 54.1696 5.8624 14.1824 18.338133 20.736 12.868267 40.695467l25.489066-30.600534c-0.1792 9.1904-4.957867 15.991467-10.094933 23.074134-20.9664 28.893867-54.621867 58.939733-84.215467 78.993066-7.168 4.855467-13.661867 10.368-23.005866 10.154667 0.9984-2.167467-0.768-7.5776 2.3808-10.3936l12.279466-0.247467c0.059733-16.418133 22.698667-13.422933 21.034667-30.165333-38.9888-2.909867-76.740267 9.002667-114.850133 15.2064-61.312 9.984-127.368533 21.162667-187.562667 36.872533-16.938667 4.420267-40.994133 13.218133-49.536 29.533867-25.079467-1.117867-43.4944 0.452267-40.8064-30.609067 12.228267 2.747733 24.618667 8.354133 37.649067 4.462934 6.5024-1.937067 10.112-12.2112 16.529066-14.0544 7.645867-2.193067 16.366933 0.836267 24.174934-1.3312 5.742933-1.595733 12.689067-11.7504 21.947733-13.755734 45.7216-9.924267 77.346133-17.9456 122.478933-30.549333 42.564267-11.895467 110.651733-2.449067 146.5088-26.1632 4.565333-3.0208 2.338133-8.3456 3.805867-9.463467 2.986667-2.269867 10.001067-0.401067 14.6944-3.3024 5.461333-3.370667 20.6592-38.1952 20.6592-46.1312 0-27.537067-58.410667-59.8016-0.725333-84.514133-8.5248-29.380267 1.757867-38.741333 9.4976-64.571733 1.570133-5.230933-0.068267-14.336 1.6128-16.128 4.232533-4.497067 26.811733-17.416533 35.140266-26.077867z" fill="#FABCB1" /><path d="M466.286933 856.0896c8.541867-16.3072 32.5888-25.105067 49.536-29.533867 60.194133-15.701333 126.250667-26.888533 187.562667-36.872533 38.109867-6.203733 75.861333-18.116267 114.850133-15.2064 1.664 16.7424-20.974933 13.738667-21.034666 30.165333l-12.279467 0.247467c-3.1488 2.816-1.3824 8.226133-2.3808 10.3936-14.626133 31.8208-190.7968 76.194133-229.538133 81.6128l29.934933-11.1872 3.4304-9.514667c14.830933 8.072533 33.885867 6.365867 48.221867-2.269866 25.3184-15.2576-6.852267-34.5856-28.142934-33.442134-16.119467 0.8704-39.552 8.439467-56.081066 10.427734-27.9296 3.362133-55.492267 6.459733-84.078934 5.188266z" fill="#FAB2A6" /><path d="M961.0752 238.890667c-1.774933-2.261333-10.939733-7.543467-15.402667-12.672-12.1344-13.943467-22.1952-31.522133-38.178133-43.426134l-12.731733 20.394667h-5.102934c-1.271467-16.9216-12.535467-37.034667-25.480533-48.4608l5.077333-2.542933c0.9728 0.682667 5.922133-0.162133 9.873067 2.670933 31.249067 22.365867 66.961067 47.4624 81.9456 84.0448zM920.2688 427.6224l-23.296 10.077867 0.682667 20.522666c-8.055467 14.2592-23.944533 23.150933-32.4608 31.650134-2.517333 2.517333-3.0208 9.386667-8.439467 14.498133-13.4144 12.654933-29.636267 12.066133-45.704533 5.077333-16.034133 28.0064-25.386667 21.640533-51.3792 25.378134-39.210667 5.640533-69.4016 2.338133-107.426134 4.795733-82.850133 5.341867-136.8832 43.264-207.889066 77.755733-94.1824 45.755733-202.564267 103.9872-310.920534 74.24-13.661867-3.754667-18.474667-6.280533-29.312-14.045866l52.6336 9.659733c19.114667-18.7136 37.102933-14.976 56.405334-20.488533 7.594667-2.167467 13.696-16.631467 21.742933-19.063467 32.7424-9.9072 79.7952-12.970667 110.882133-21.742933 4.437333-1.2544 16.7936-15.522133 25.130667-20.778667 39.936-25.216 103.0912-41.412267 148.1472-66.090667 58.368-31.965867 62.685867-44.8768 133.282133-60.552533 11.272533-2.500267 49.595733-22.664533 56.260267-30.455467 4.9664-5.802667 6.698667-19.575467 12.475733-23.227733 5.546667-3.5072 13.9008-1.314133 20.753067-4.753067 5.9648-2.9952 14.7712-16.529067 23.552-22.357333 24.584533-16.315733 52.573867-24.669867 80-32.213333 18.013867-4.957867 35.0976-28.842667 49.399467-37.307734 12.398933-7.338667 34.5088-4.096 30.5664-28.091733 1.2544 6.621867 9.156267 23.099733 10.077866 33.262933 2.56 28.458667-9.617067 65.442133-15.172266 94.2592z" fill="#FBC5BA" /><path d="M726.434133 652.0576c13.312-1.220267 57.838933-2.397867 68.224 0.64 2.961067 0.861867 14.702933 11.835733 16.068267 14.5152 9.642667 18.909867-8.951467 42.4704-17.749333 59.0336-9.224533 1.041067-20.155733 6.417067-28.407467 7.296-62.933333 6.7328-86.8352 3.464533-148.872533 24.558933-42.359467 14.404267-86.638933 20.676267-130.4832 32.750934-14.532267 4.002133-36.3776 20.522667-44.433067 9.122133 9.3696-5.265067 20.855467-14.190933 20.4032-25.506133 39.313067-27.4944 86.673067-54.775467 131.8912-72.439467l1.467733-8.1408c43.409067-11.144533 87.057067-37.7344 131.8912-41.8304z" fill="#FBC9C2" /><path d="M440.789333 799.982933h-5.102933c7.424-11.451733 14.464-17.783467 25.506133-25.506133 0.452267 11.3152-11.0336 20.241067-20.4032 25.506133z" fill="#FABCB1" /><path d="M674.6624 137.890133c1.297067 1.041067 0.128 6.033067 2.048 7.867734 2.1504 2.065067 6.314667 0.187733 9.088 4.4288 14.045867 21.4272-3.976533 33.536-10.820267 52.548266-9.019733 1.988267-18.7136-0.9728-27.733333 0.3328-8.541867 1.245867-10.939733 8.1408-15.880533 9.608534-9.122133 2.722133-20.232533-0.708267-29.781334 0.8192-44.509867 7.133867-103.3216 21.998933-140.433066 43.195733-20.6848 11.818667-66.858667 34.466133-89.284267 33.553067-8.174933-0.3328-14.737067-3.575467-22.135467-6.1952-4.087467-9.7792-6.664533-15.4624-5.009066-26.308267 5.111467-33.408 52.369067-61.380267 78.958933-79.351467 16.213333-10.9568 20.258133-12.16 37.76-18.321066 10.2144-3.592533 22.186667-15.3856 28.612267-17.3056 40.584533-12.1088 94.421333-20.283733 136.814933-15.982934 5.922133 0.597333 45.892267 9.557333 47.812267 11.101867z" fill="#FDE9E5" /><path d="M185.745067 402.116267c0.785067-3.4048 20.394667-43.0336 22.929066-45.9264 31.0784-23.483733 72.209067-71.3984 99.6864-17.9456-4.8128 11.434667-4.932267 24.1664-11.0848 35.140266-4.4544 7.944533-13.764267 12.450133-17.2288 18.594134-2.730667 4.855467-1.348267 11.665067-3.541333 14.4384-1.083733 1.373867-6.058667 0.213333-7.8336 2.082133-2.082133 2.193067-0.256 6.587733-4.4032 9.173333-3.328 2.0736-9.540267 2.3808-14.139733 5.469867-7.850667 5.290667-11.298133 13.397333-20.906667 14.7968-21.700267 3.165867-28.245333-2.525867-43.4944-15.419733-0.4864-5.290667-1.024-15.965867 0-20.4032z" fill="#FDE9E4" /><path d="M915.165867 249.088c-0.375467-0.861867-9.070933-6.144-5.102934-15.300267 1.8688 3.3792 8.3712 5.947733 5.102934 15.300267zM925.3632 284.8l-4.539733-3.165867c-1.595733-3.925333 0-8.541867-0.5632-12.1344l4.292266 3.703467c1.826133 3.771733 0.4608 7.944533 0.810667 11.5968z" fill="#FBC5BA" /></svg>