<?xml version="1.0" standalone="no"?><!DOCTYPE svg PUBLIC "-//W3C//DTD SVG 1.1//EN" "http://www.w3.org/Graphics/SVG/1.1/DTD/svg11.dtd"><svg class="icon" width="256px" height="256.00px" viewBox="0 0 1024 1024" version="1.1" xmlns="http://www.w3.org/2000/svg"><path d="M529.527467 61.550933l50.0224-22.2208c-9.728 15.317333-28.398933 22.519467-44.458667 27.776 0.512-3.8912-2.005333-5.12-5.5552-5.5552z" fill="#E5AD96" /><path d="M90.4704 78.225067c-5.7344 10.205867-15.4624 22.724267-27.784533 22.229333 5.205333-5.828267 9.0368-14.728533 16.802133-19.566933 4.676267-2.909867 9.659733-1.8944 10.9824-2.6624z" fill="#EC9D7E" /><path d="M696.260267 661.7856c7.261867 0.802133 15.863467-2.286933 22.5536 2.4576l5.922133 19.089067c79.2832 39.202133 175.573333 62.592 260.5312 28.4672-10.146133 22.016-15.061333 45.064533-28.654933 68.599466-49.493333 85.6832-110.062933 120.0128-197.563734 158.1312-46.788267 20.386133-126.404267 51.0464-176.5888 45.457067-17.339733-1.928533-36.753067-14.677333-50.1504-16.546133-14.660267-2.039467-32.093867 1.365333-47.240533 0 0.4864-0.042667 1.3056-4.872533 8.021333-5.649067 11.648-1.339733 24.567467 1.041067 36.445867 0.0768l-27.784533-77.7984 11.118933-38.903467c19.2-2.978133 30.0288-24.5504 44.6976-35.882666 26.368-20.3776 61.380267-33.544533 88.686933-53.034667 0.2048 54.621867 51.805867 108.1856 96.1792 134.468267 6.8864 4.078933 45.184 23.799467 48.324267 21.137066L704.759467 822.801067l-36.266667-83.2256c6.545067-7.278933 14.173867-26.077867 22.126933-36.224 6.647467-8.4736 24.0896-20.189867 27.8784-27.707734 7.048533-14.0032-21.6064-3.601067-22.2208-13.8752z m197.930666 84.010667c-11.716267 3.4304-41.540267 60.6208-53.3248 74.487466-13.2864 15.624533-37.546667 26.0352-47.377066 41.5488-4.6592 7.3472-0.034133 15.214933 5.6576 16.699734 8.379733 2.176 21.0688-5.930667 28.808533-10.0096 26.683733-14.071467 88.738133-64.4608 95.300267-93.6448 5.256533-23.3984-4.6592-36.215467-29.064534-29.064534z" fill="#FC9E77" /><path d="M757.4016 222.72c-9.378133 2.048-5.393067 17.408-5.5552 25.0112-0.9216 44.091733 1.3568 75.349333-15.573333 117.819733-23.1424 58.0608-64.4352 105.864533-117.819734 135.057067l-3.2768-4.949333c-16.5376 0.802133-58.496-5.802667-63.4112-22.843734-0.4864-1.6896 0.366933-3.7888 0-5.5552 6.4512-26.410667 25.198933-46.737067 28.023467-74.8032 6.638933-66.141867-43.886933-119.1424-16.904533-180.855466v-5.5552c14.711467 1.902933 28.151467-9.224533 41.770666-11.025067 50.048-6.596267 90.871467 5.4784 137.719467 17.749333 8.721067 2.286933 14.1568 9.693867 15.0272 9.941334z m-129.664 0.9472c-19.182933 4.061867-26.658133 20.317867-17.757867 38.109867 7.893333 15.7696 25.7024 9.0624 38.946134 11.0592 5.930667 0.896 11.3152 4.906667 16.878933 5.3504 12.654933 1.015467 59.707733 4.48 63.419733-8.584534 11.3408-47.0528-70.673067-52.462933-101.495466-45.934933z" fill="#FEA27C" /><path d="M985.2672 711.808c-2.048-9.3696-17.408-5.4016-25.0112-5.5552-81.297067-1.664-180.846933-11.656533-231.1424-82.8672-8.064-2.0224-16.750933 0.938667-24.849067-0.392533-6.818133-1.1264-7.509333-5.614933-7.995733-5.666134h27.8016l-0.631467-24.4992-4.9408-3.285333c0.341333-0.0768 1.0496-3.9168 3.8912-4.573867 13.380267-3.063467 28.040533-3.7376 42.001067-7.893333 92.066133-27.374933 179.310933-87.364267 209.7664-182.058667 58.4704 52.292267 61.883733 224.375467 28.9792 292.974934-4.138667 8.6272-15.249067 18.141867-17.8688 23.816533z m-5.905067-249.762133c-21.0944-4.5824-37.8624 4.736-44.253866 24.533333l11.630933 83.592533-17.425067 88.789334 20.5056 24.618666c32.4096-0.6144 43.323733-41.924267 46.429867-69.179733 5.435733-47.701333 2.3552-108.407467-16.887467-152.362667z" fill="#FCA079" /><path d="M968.593067 389.4528c-13.397333 7.2192-18.269867 25.053867-27.690667 36.224-43.707733 51.857067-104.840533 90.461867-170.9568 106.922667-24.644267 6.135467-49.348267 7.927467-73.6768 12.4672L690.346667 528.733867l-16.3072-0.3328c7.0912-21.742933 27.946667-33.297067 41.437866-50.261334 43.409067-54.587733 55.150933-128.6656 52.923734-196.949333L757.4016 222.72c6.263467 1.809067 17.117867-1.6896 24.8576 0.128 81.015467 19.029333 171.144533 81.5872 186.3424 166.6048zM805.2224 261.930667c-12.561067 2.7648-27.810133 31.189333-17.408 44.322133 14.6432 14.011733 34.577067 20.4288 50.269867 33.083733 19.140267 15.428267 49.706667 61.943467 67.438933 66.005334 16.520533 3.7888 31.726933-6.664533 28.9792-23.168-4.608-27.682133-38.510933-67.054933-60.629333-84.181334-8.8576-6.8608-62.114133-37.504-68.650667-36.061866z" fill="#FCA079" /><path d="M501.742933 884.096l27.784534 77.7984c-11.8784 0.964267-24.797867-1.416533-36.445867-0.0768-6.715733 0.776533-7.534933 5.6064-8.021333 5.649067-9.053867 0.768-18.628267-0.273067-27.784534 0v-2.8928c-13.499733-5.700267-29.781333-1.536-44.458666-2.6624-65.809067-9.096533-144.648533-26.743467-194.474667-75.076267-2.013867-1.954133-18.935467-23.381333-19.6608-24.789333-7.893333-15.240533-3.1488-26.171733 14.0544-27.963734 13.269333-1.3824 27.844267 0.981333 41.5744-0.110933 62.702933-5.009067 103.441067-10.3424 165.632 12.4416 27.9296 10.231467 52.923733 30.634667 81.800533 37.691733z" fill="#ED673E" /><path d="M123.818667 61.550933l55.569066-11.1104c3.985067 17.6128-19.626667 13.917867-29.346133 17.774934-3.089067 1.2288-3.6096 4.292267-3.9936 4.4544-17.271467 7.236267-42.939733 13.943467-55.5776 27.784533-0.213333 0.2304-4.138667-0.9216-5.546667 2.781867v8.328533h8.3456c2.244267-0.964267 2.0736-5.248 2.756267-5.546667 4.027733-1.7664 10.837333-3.1744 16.674133-5.5552l13.218134-0.6144 3.456-4.949333c40.789333-10.0352 82.935467-4.215467 124.936533-5.444267l141.832533 27.6736 3.362134 4.949334 18.8672 0.605866c1.809067 0.273067 3.7376-0.247467 5.5552 0l27.784533 5.572267c-4.096 14.583467-19.857067 11.281067-33.348267 11.101867-3.601067-0.401067-7.586133 0.494933-11.118933 0l-3.2768-4.949334-24.507733-0.605866c-75.921067-12.663467-182.493867-35.3536-255.872-14.114134-26.820267 7.765333-55.074133 22.2976-71.338667 45.380267-4.8128 41.984-1.271467 68.6336 24.5504 101.879467 4.7104 6.058667 34.730667 37.4016 38.6816 39.133866 2.432 1.066667 9.173333 1.3824 8.311467-2.756266l-16.657067-41.685334c19.003733 4.215467 36.701867-3.643733 52.906667-5.4528 24.311467-2.7136 53.239467-2.346667 77.602133-5.768533 111.991467-15.7184 212.2496-58.9568 325.2224-44.3648v5.5552c-14.958933 2.244267-26.820267-6.6304-41.7792-5.930667-50.286933 2.3552-92.834133 17.032533-139.716267 27.298134-52.411733 11.477333-105.9584 15.2832-160.1792 23.2192-34.312533 5.026133-65.851733 16.9728-102.9376 10.990933-2.9696 10.632533 8.0384 12.791467 10.257067 20.3008 4.770133 16.1024 5.5552 35.5584-0.238933 51.182933l-9.2416 1.399467-0.7936 16.0256c23.739733-2.389333 41.309867 0.750933 61.0048 14.037333 51.677867 34.8672 106.308267 81.553067 170.5216 96.256 43.9296 10.0608 127.863467 23.406933 170.6496 11.2128 7.6544-2.184533 15.5904-16.298667 31.342933-10.3424 0.366933 1.7664-0.4864 3.8656 0 5.5552-18.3552 3.976533-32.955733 14.984533-52.565333 16.904534-93.2352 9.122133-209.493333-28.535467-286.318934-80.9472-13.730133-9.361067-36.8896-34.747733-49.8688-39.048534-24.721067-8.200533-53.376-9.053867-79.6672-20.3776C23.313067 323.498667-7.4752 268.458667 1.553067 203.281067c2.9952-21.597867 45.858133-85.742933 61.124266-102.826667 12.322133 0.494933 22.058667-12.023467 27.784534-22.229333 10.615467-6.203733 22.357333-14.805333 33.348266-16.674134z m-16.674134 266.760534c-8.209067-16.896-26.530133-22.766933-39.005866-36.010667-19.396267-20.599467-26.496-39.739733-34.56-65.4848-1.7664-5.649067-2.3552-16.5632-9.796267-15.189333-7.381333 51.925333 29.0048 110.3872 83.3536 116.693333z" fill="#EE916F" /><path d="M512.861867 845.192533l-11.118934 38.903467c-28.8768-7.057067-53.8624-27.460267-81.800533-37.691733-62.190933-22.784-102.929067-17.450667-165.632-12.4416-13.7216 1.092267-28.305067-1.262933-41.5744 0.110933l50.0224-5.572267c-16.750933-18.7648-52.215467-70.903467-36.352-94.6944 10.9056-16.349867 83.413333 2.645333 103.1936 8.405334C397.764267 762.0864 460.356267 798.122667 512.853333 845.184z" fill="#F7875F" /><path d="M974.148267 395.016533c-30.455467 94.685867-117.700267 154.683733-209.7664 182.058667-13.969067 4.155733-28.6208 4.829867-42.001067 7.893333-2.8416 0.648533-3.541333 4.497067-3.8912 4.573867-27.682133 5.998933-55.6288 7.586133-83.362133 11.118933-3.9424 0.503467-8.226133-0.853333-12.893867 0.768-9.9072 3.447467-12.731733 19.950933-26.001067 1.988267l22.2208-30.549333c0.9216-0.597333 1.5104-6.545067 9.1904-10.0864 18.491733-8.507733 48.119467-13.883733 68.616534-17.706667 24.337067-4.5312 49.032533-6.331733 73.6768-12.4672 66.116267-16.4608 127.249067-55.074133 170.9568-106.922667 9.4208-11.178667 14.293333-29.013333 27.690666-36.224 1.015467 5.666133 4.1472 4.292267 5.5552 5.5552z" fill="#F0754D" /><path d="M674.030933 528.401067c-35.822933 15.522133-75.989333 23.168-105.6 50.0224l-16.699733-0.034134 5.5808-33.3056c22.980267-27.9808 31.240533-28.1088 61.1328-44.458666 53.384533-29.192533 94.677333-76.996267 117.819733-135.057067 16.9216-42.461867 14.6432-73.719467 15.573334-117.819733 0.162133-7.6032-3.822933-22.9632 5.5552-25.0112l10.999466 58.4704c2.218667 68.283733-9.514667 142.3616-52.923733 196.949333-13.4912 16.964267-34.346667 28.5184-41.437867 50.261333z" fill="#F0724B" /><path d="M696.260267 617.326933c0.4864 0.0512 1.1776 4.539733 7.995733 5.666134 8.098133 1.339733 16.785067-1.629867 24.849067 0.392533 50.295467 71.202133 149.845333 81.2032 231.1424 82.8672 7.6032 0.1536 22.9632-3.8144 25.0112 5.5552-84.957867 34.1248-181.248 10.734933-260.5312-28.4672l-5.922134-19.089067c-6.690133-4.744533-15.291733-1.655467-22.5536-2.4576-23.611733-2.6112-32.426667-8.234667-55.338666 3.012267-19.6096 9.6256-46.6688 41.156267-64.162134 47.0016-3.9424 1.314133-3.438933-4.2752-2.807466-8.362667 3.328-21.614933 55.8848-79.5392 75.861333-85.316266 9.130667-2.6368 35.669333-1.8944 46.446933-0.7936z" fill="#F0764E" /><path d="M418.3808 67.106133c0.4864 0.0768 1.339733 4.3008 3.848533 4.642134 19.336533 2.6112 44.125867 2.2528 62.848-1.749334v-2.8928c5.504-0.3584 11.1872 0.477867 16.674134 0l13.201066-0.6144 3.464534-4.949333c3.473067-0.221867 7.739733-0.4096 11.118933 0 3.549867 0.4352 6.0672 1.664 5.5552 5.5552-5.8112 1.902933-9.5488 4.113067-16.674133 5.5552-3.677867 0.7424-9.002667-1.2288-13.218134 0.6144l-3.456 4.949333c-1.8432 0.1024-3.720533-0.145067-5.5552 0-6.1952 0.494933-12.654933-1.109333-18.8672 0.605867l-3.362133 4.949333c-100.104533 2.6624-193.681067-23.688533-292.0192-16.913066-12.2112 0.8448-23.057067 8.311467-35.882667 5.802666 0.375467-0.162133 0.904533-3.2256 3.9936-4.4544 9.719467-3.857067 33.3312-0.162133 29.346134-17.774933l-55.569067 11.1104c10.7264-8.106667 34.491733-15.069867 47.377067-16.5376 74.538667-8.5248 172.356267 10.752 247.185066 22.101333z" fill="#EC9D7E" /><path d="M668.475733 739.592533l36.266667 83.2256 85.998933 89.053867c-3.131733 2.6624-41.429333-17.058133-48.324266-21.137067-44.373333-26.282667-95.9744-79.8464-96.1792-134.468266 5.179733-3.703467 19.4816-13.6192 22.229333-16.674134z" fill="#EE7047" /><path d="M423.936 122.683733c74.6496 10.052267 158.097067 11.204267 229.444267-17.877333 16.128-6.570667 28.151467-15.0784 42.5984-24.098133 4.795733-2.9952 11.4944-14.472533 16.955733-5.2736-32.768 34.176-74.606933 52.983467-120.763733 62.634666-42.368 8.8576-122.8544 12.808533-165.6576 6.9888-10.461867-1.425067-7.560533-5.640533-8.132267-5.7088 13.4912 0.1792 29.252267 3.4816 33.348267-11.101866l-27.784534-5.572267z" fill="#E9A185" /><path d="M674.030933 528.401067l16.3072 0.3328 5.922134 16.3328c-20.488533 3.8144-50.1248 9.198933-68.616534 17.706666-7.688533 3.541333-8.2688 9.480533-9.1904 10.0864-1.809067 1.1776-8.1408-0.170667-14.122666 5.154134-3.959467 3.524267-9.557333 11.8784-13.661867 17.0752v-16.6656c-3.592533-3.618133-17.322667 7.125333-22.229333 11.1104v-11.118934c29.610667-26.8544 69.768533-34.500267 105.6-50.0224z" fill="#FDF0E6" /><path d="M618.453333 572.859733l-22.2208 30.549334c13.269333 17.962667 16.1024 1.4592 26.001067-1.988267 4.667733-1.621333 8.942933-0.264533 12.893867-0.768-25.787733 19.2768-45.4912 45.610667-69.469867 66.688-6.254933 5.495467-9.1648 13.312-19.447467 11.1104-6.289067-6.690133 36.096-72.789333 44.458667-83.362133 4.113067-5.1968 9.7024-13.550933 13.661867-17.0752 5.981867-5.3248 12.3136-3.976533 14.122666-5.154134z" fill="#EA8360" /><path d="M557.320533 545.0752l-5.5808 33.3056 16.699734 0.034133v11.118934c-20.855467 16.913067-27.144533 46.165333-50.005334 61.1328 1.416533-29.0304 14.173867-76.2624 30.702934-100.130134 2.705067-3.899733 7.338667-4.437333 8.192-5.469866z" fill="#EA8563" /><path d="M457.284267 967.458133c-20.002133 0.5888-30.114133-3.575467-44.458667-5.5552 14.685867 1.134933 30.967467-3.029333 44.4672 2.6624v2.8928z" fill="#FC9E77" /><path d="M407.261867 139.357867c-11.298133-1.595733-20.650667-4.369067-27.784534-5.5552l24.507734 0.605866 3.2768 4.949334zM418.3808 122.683733l-18.8672-0.605866-3.362133-4.949334c11.5456-4.9152 21.000533 5.367467 22.229333 5.5552z" fill="#E9A185" /><path d="M496.187733 78.225067l-3.362133 4.949333c-6.254933 1.493333-12.603733 0.4352-18.8672 0.605867l3.362133-4.949334c6.212267-1.723733 12.672-0.110933 18.8672-0.605866z" fill="#E5AD96" /><path d="M129.373867 94.8992l-3.456 4.949333-13.218134 0.6144c7.057067-2.875733 7.364267-3.268267 16.674134-5.5552z" fill="#EC9D7E" /><path d="M518.417067 61.550933l-3.464534 4.949334-13.201066 0.6144c0.955733-0.085333 2.884267-4.6848 16.674133-5.5552z" fill="#E5AD96" /><path d="M96.0256 106.0096c-0.682667 0.298667-0.512 4.5824-2.756267 5.546667h-8.354133v-8.32c1.408-3.703467 5.333333-2.551467 5.546667-2.781867l5.5552 5.5552z" fill="#EC9D7E" /><path d="M518.417067 72.661333l-3.882667 4.753067c-4.155733 1.809067-8.558933 0.5632-12.791467 0.810667l3.456-4.949334c4.215467-1.834667 9.540267 0.136533 13.218134-0.6144z" fill="#E5AD96" /><path d="M894.190933 745.796267c24.3968-7.150933 34.321067 5.666133 29.064534 29.064533-6.562133 29.184-68.616533 79.573333-95.300267 93.6448-7.739733 4.078933-20.437333 12.194133-28.808533 10.0096-5.700267-1.4848-10.3168-9.344-5.6576-16.699733 9.8304-15.5136 34.0992-25.915733 47.377066-41.5488 11.793067-13.866667 41.608533-71.048533 53.3248-74.487467z" fill="#FCBEA1" /><path d="M562.875733 211.6096C535.893333 273.322667 586.4192 326.3232 579.780267 392.465067c-2.816 28.066133-21.563733 48.392533-28.023467 74.8032-15.752533-5.956267-23.68 8.157867-31.342933 10.3424-42.794667 12.194133-126.728533-1.152-170.6496-11.2128-64.2048-14.702933-118.8352-61.3888-170.5216-96.256-19.694933-13.2864-37.265067-16.426667-61.0048-14.037334l0.7936-16.0256 9.2416-1.399466c5.802667-15.624533 5.009067-35.072 0.238933-51.182934-2.2272-7.509333-13.2352-9.659733-10.257067-20.3008 37.085867 5.981867 68.625067-5.973333 102.9376-10.990933 54.2208-7.936 107.776-11.741867 160.1792-23.2192 46.882133-10.2656 89.429333-24.942933 139.716267-27.298133 14.9504-0.699733 26.811733 8.174933 41.7792 5.930666zM310.4256 297.053867c0-14.830933-12.023467-26.862933-26.862933-26.862934s-26.862933 12.023467-26.862934 26.862934 12.023467 26.862933 26.862934 26.862933 26.862933-12.023467 26.862933-26.862933z" fill="#FC8A66" /><path d="M627.7376 223.6672c30.830933-6.528 112.836267-1.1264 101.495467 45.934933-3.712 13.064533-50.773333 9.6-63.419734 8.584534-5.563733-0.443733-10.9568-4.4544-16.878933-5.3504-13.252267-1.9968-31.0528 4.7104-38.946133-11.0592-8.9088-17.783467-1.425067-34.048 17.757866-38.109867z" fill="#FDBE9F" /><path d="M979.362133 462.045867c19.242667 43.9552 22.3232 104.661333 16.887467 152.362666-3.106133 27.255467-14.020267 68.565333-46.429867 69.179734l-20.5056-24.618667 17.425067-88.789333-11.630933-83.592534c6.391467-19.797333 23.168-29.124267 44.253866-24.533333z" fill="#FCBD9E" /><path d="M805.2224 261.930667c6.536533-1.442133 59.793067 29.201067 68.650667 36.061866 22.1184 17.134933 56.021333 56.4992 60.629333 84.181334 2.747733 16.503467-12.458667 26.9568-28.9792 23.168-17.723733-4.061867-48.298667-50.577067-67.438933-66.005334-15.701333-12.654933-35.626667-19.072-50.269867-33.083733-10.402133-13.1328 4.855467-41.557333 17.408-44.322133z" fill="#FDBE9F" /><path d="M107.144533 328.311467c-54.3488-6.306133-90.734933-64.768-83.3536-116.693334 7.441067-1.373867 8.029867 9.5488 9.796267 15.189334 8.064 25.745067 15.163733 44.893867 34.56 65.4848 12.4672 13.243733 30.7968 19.114667 39.005867 36.010666z" fill="#FEF0E5" /><path d="M283.562667 297.053867m-26.862934 0a26.862933 26.862933 0 1 0 53.725867 0 26.862933 26.862933 0 1 0-53.725867 0Z" fill="#423333" /></svg>