<?xml version="1.0" standalone="no"?><!DOCTYPE svg PUBLIC "-//W3C//DTD SVG 1.1//EN" "http://www.w3.org/Graphics/SVG/1.1/DTD/svg11.dtd"><svg class="icon" width="256px" height="256.00px" viewBox="0 0 1024 1024" version="1.1" xmlns="http://www.w3.org/2000/svg"><path d="M764.3648 168.686933l-9.147733-2.2016 9.6256 40.192c7.210667 30.1056-12.578133 65.698133-36.309334 82.9696-20.625067 15.018667-45.0048 22.417067-69.9392 26.555734-40.558933 6.724267-130.56 21.563733-164.266666 36.923733L470.024533 364.202667c-34.756267 15.837867-51.293867 31.658667-76.0064 61.226666l-24.0896 28.817067-19.746133 23.586133c-3.3024 3.9424-13.3888 11.733333-17.809067 14.378667-68.9664 41.309867-131.080533 47.325867-151.304533 60.680533l-34.500267 22.775467-22.562133 14.916267c-21.717333 14.353067-72.234667 25.5744-96.776533 4.155733L7.048533 577.1264C5.870933 589.653333 4.625067 600.081067 5.2736 608.426667l-5.2736-4.3008c1.518933-14.941867 3.114667-30.472533 9.941333-42.5472 30.0288-53.102933 34.474667-45.073067 64.1536-110.378667 12.3392-27.144533 23.534933-51.310933 40.183467-75.682133 42.222933-61.7984 90.5216-102.340267 160.9216-129.646934l59.886933-23.227733c4.5056-1.749333 14.446933-7.8848 18.295467-10.5728l68.343467-47.709867c44.066133-30.762667 92.040533-47.086933 146.858666-50.807466 56.413867-3.831467 88.064 0.1792 140.4928 20.053333 21.256533 8.055467 39.534933 21.777067 55.2704 35.089067z m-159.863467 22.280534l37.640534 4.078933c8.328533 0.904533 22.775467-7.441067 22.331733-15.086933-1.058133-18.440533-12.407467-26.077867-27.477333-29.4144-37.376-8.277333-63.172267-6.9632-98.858667 4.804266l-26.0352 8.584534c-5.307733 1.749333-43.605333 25.326933-28.5184 35.7888 49.578667-0.725333 70.510933-14.225067 120.9088-8.763734z m-156.5184 28.407466c-3.771733-2.269867-10.538667-6.033067-13.098666-5.768533-9.608533 0.9984-24.226133 11.997867-26.504534 23.261867 17.117867 6.2208 34.653867 0.64 39.611734-17.493334zM278.186667 322.039467l26.052266-26.606934c9.1392-9.335467 17.834667-20.6848 25.122134-31.342933l23.569066-34.449067-8.123733-7.9872c-31.189333 14.907733-34.158933 36.2496-47.342933 50.833067l-48.196267 53.3248c-5.4528 6.033067-7.492267 13.44-3.5584 22.664533 13.508267-9.9328 23.022933-16.785067 32.477867-26.436266zM171.869867 400.5632l14.9248-14.190933c7.108267-6.7584 13.6192-19.268267 7.236266-29.627734-9.301333-15.104-70.656 45.141333-62.293333 74.820267 0.699733 2.491733 9.668267-2.005333 11.511467-3.771733l28.612266-27.229867z" fill="#FEC5B7" /><path d="M764.3648 168.686933c47.7184 40.379733 97.783467 101.853867 61.653333 166.2208l-7.236266 8.004267c-2.722133 3.012267-7.227733 7.6032-10.205867 7.893333l-0.3328-7.927466-39.6288-6.0416c-21.947733-3.345067-71.227733-0.7168-94.1056 4.002133-57.250133 11.810133-93.568 25.608533-141.559467 58.146133l-72.081066 48.861867c-53.888 36.539733-80.5888 51.114667-125.380267 104.072533l-31.470933 37.205334c-13.329067 15.761067-16.4608 31.249067-40.6784 31.0784l-69.111467-0.4864c-39.8592-0.2816-80.085333 8.541867-117.8368 17.9968-5.879467 1.476267-21.051733 3.6864-26.8544 4.8128-1.160533 0.221867 0.4608 5.853867 0.3584 5.725866C30.276267 643.848533 8.405333 629.6832 5.282133 608.426667c-0.648533-8.3456 0.597333-18.781867 1.774934-31.300267l20.181333 17.6128c24.541867 21.418667 75.0592 10.205867 96.776533-4.155733l22.562134-14.916267 34.500266-22.775467c20.224-13.354667 82.338133-19.362133 151.304534-60.680533 4.420267-2.645333 14.506667-10.436267 17.809066-14.378667l19.746134-23.586133 24.0896-28.817067c24.721067-29.568 41.258667-45.3888 76.0064-61.226666l24.302933-11.076267c33.706667-15.36 123.6992-30.199467 164.266667-36.923733 24.9344-4.138667 49.314133-11.528533 69.9392-26.555734 23.7312-17.28 43.52-52.872533 36.309333-82.9696l-9.6256-40.192 9.147733 2.2016zM270.1312 547.191467c-12.3904 4.053333-22.2464 7.944533-34.0224 13.0048L201.1392 575.232c-2.346667 1.006933-6.408533 4.667733-7.9872 6.050133-20.48 17.979733 94.139733-9.3184 76.9792-34.0992z" fill="#FDB1A3" /><path d="M808.576 350.805333c-6.997333 0.6912-21.3504 0.503467-30.6432 0.520534l-60.731733 0.1536c-61.986133 0.1536-131.3792 32.580267-181.802667 66.2784l-36.608 24.4736-75.8016 52.334933c-20.7104 14.301867-60.0832 53.6064-76.032 73.1392l-46.72 57.224533c-11.323733 13.8752-21.870933 1.706667-25.2672 11.810134l-56.4224 0.187733c-24.1664 0.0768-48.384-0.238933-72.234667 3.2l-71.483733 10.308267c-7.287467 1.0496-18.048-0.631467-24.925867-2.176 0.1024 0.128-1.518933-5.504-0.3584-5.725867 5.802667-1.1264 20.974933-3.336533 26.8544-4.8128 37.751467-9.454933 77.9776-18.2784 117.8368-17.9968l69.111467 0.4864c24.2176 0.170667 27.349333-15.317333 40.6784-31.0784l31.470933-37.205333c44.791467-52.957867 71.492267-67.5328 125.380267-104.072534l72.081067-48.861866c47.991467-32.5376 84.309333-46.336 141.559466-58.146134 22.877867-4.718933 72.1664-7.3472 94.1056-4.002133l39.6288 6.0416 0.3328 7.927467z" fill="#F78F84" /><path d="M604.501333 190.967467c-50.4064-5.461333-71.330133 8.0384-120.9088 8.763733-15.095467-10.461867 23.210667-34.039467 28.5184-35.7888l26.0352-8.584533c35.6864-11.767467 61.482667-13.090133 98.858667-4.804267 15.069867 3.336533 26.4192 10.973867 27.477333 29.4144 0.443733 7.645867-14.0032 15.991467-22.331733 15.086933l-37.640533-4.078933z" fill="#FDDAD2" /><path d="M278.186667 322.039467c-9.4464 9.6512-18.9696 16.503467-32.477867 26.436266-3.933867-9.224533-1.885867-16.631467 3.5584-22.664533l48.196267-53.3248c13.184-14.583467 16.1536-35.925333 47.342933-50.833067l8.123733 7.9872-23.569066 34.449067c-7.296 10.658133-15.982933 22.007467-25.122134 31.342933l-26.052266 26.606934z" fill="#F9A096" /><path d="M171.869867 400.5632l-28.612267 27.229867c-1.851733 1.757867-10.811733 6.263467-11.511467 3.771733-8.3712-29.6704 52.992-89.915733 62.293334-74.820267 6.3744 10.350933-0.136533 22.869333-7.236267 29.627734l-14.9248 14.190933z" fill="#FDDBD2" /><path d="M447.982933 219.374933c-4.957867 18.133333-22.493867 23.714133-39.611733 17.493334 2.286933-11.264 16.896-22.272 26.504533-23.261867 2.56-0.264533 9.335467 3.498667 13.098667 5.768533z" fill="#FDDBD0" /><path d="M270.1312 547.191467c17.160533 24.7808-97.450667 52.0704-76.9792 34.0992 1.578667-1.3824 5.632-5.0432 7.9872-6.050134l34.9696-15.035733c11.776-5.060267 21.632-8.951467 34.0224-13.0048z" fill="#F89386" /><path d="M965.486933 421.512533l-12.0832-4.7616 2.6368 26.5984 5.512534 53.341867-26.794667 35.7376-21.410133 28.9024c-9.565867 28.347733-20.667733 78.813867-55.799467 82.218667l-52.036267 5.0432c-11.528533 1.117867-25.079467 4.3008-36.599466 7.2192l-19.643734 4.9664-16.4096 4.138666c-2.116267 0.529067-7.074133 3.456-7.620266 4.155734-14.574933 3.5328-55.765333 21.632-67.0208 36.693333l11.221333 2.986667c-0.034133 7.3216-20.1472 1.262933-33.0496 3.9936-13.5424 2.875733-34.321067 7.816533-48 12.407466l-29.7728 10.0096c-10.461867 3.515733-18.2016 8.081067-26.7776 17.4336 16.4352 4.3264 55.816533-10.231467 72.576-10.624l100.650667-2.338133c9.0624-0.213333 25.898667-10.786133 34.2272-13.277867l25.6-7.637333c5.947733-1.774933 16.145067-8.3456 23.893333-13.4912l-11.255467-9.4976 11.383467 1.143467 8.8576 6.468266c-5.9136 67.012267-90.914133 94.3872-152.7296 94.336l-52.334933-0.0512-56.354134-0.861866c-11.52-0.1792-24.516267 1.578667-36.078933 2.952533l-36.437333 4.334933c-10.990933 1.3056-25.5744 1.860267-35.9424 5.4016l-77.422934 26.410667-30.165333 10.325333c-38.1184 13.047467-63.982933 19.0464-105.019733 14.353067-18.850133-2.158933-42.077867-35.0464-46.830934-54.6304l-6.528 3.182933c5.888-17.1008 15.7184-33.373867 28.4672-47.709866l9.873067-11.101867c11.6992-13.1584 25.250133-26.376533 35.157333-40.823467l48.477867-70.698666-8.925867-2.0224c3.396267-10.103467 13.943467 2.065067 25.2672-11.810134l46.72-57.224533c15.9488-19.5328 55.313067-58.837333 76.032-73.1392l75.8016-52.334933 36.608-24.4736c50.414933-33.698133 119.816533-66.1248 181.802667-66.2784l60.731733-0.1536c9.301333-0.0256 23.645867 0.162133 30.6432-0.520534 2.978133-0.290133 7.483733-4.881067 10.205867-7.893333l7.236267-8.004267-5.248 12.8 17.5872 3.234134c26.641067 4.898133 53.7344 13.8496 76.8512 27.050666 10.8288 6.186667 50.389333 34.133333 50.2784 43.528534zM588.765867 477.696l29.6704-12.023467c60.791467-24.635733 135.415467-7.7568 172.347733-37.1712 4.992-3.976533 5.418667-22.690133 0.298667-26.478933-20.821333-15.419733-54.075733-22.442667-73.0368-18.0224l-39.7824 9.2672c-18.875733 4.394667-62.097067 25.019733-80.648534 35.0208-72.9088 39.296-90.222933 83.712-73.0112 79.556267 24.721067-5.973333 33.041067-17.536 64.162134-30.139734z m-100.2752 65.186133c1.066667-2.005333 3.566933-11.0848 2.568533-12.373333-4.9664-6.434133-22.340267-8.814933-30.429867-4.036267-9.847467 5.8112-14.429867 16.759467-13.448533 29.943467 15.650133 10.845867 33.809067 0.5376 41.3184-13.525333zM300.936533 716.322133l25.992534-28.552533c34.176-37.538133 85.418667-52.949333 66.065066-88.849067-24.465067 8.157867-38.050133 19.882667-51.191466 35.575467l-18.619734 22.229333c-13.499733 16.119467-22.314667 31.854933-32.571733 52.437334l10.325333 7.150933z" fill="#FEC5B9" /><path d="M209.9712 905.198933c-34.5088-9.728-68.343467-37.1712-54.0416-78.711466l5.9904-17.408 6.528-3.182934c4.753067 19.592533 27.9808 52.48 46.830933 54.6304 41.0368 4.693333 66.901333-1.314133 105.019734-14.353066l30.165333-10.325334 77.422933-26.410666c10.376533-3.541333 24.96-4.096 35.9424-5.4016l36.437334-4.334934c11.562667-1.373867 24.558933-3.1232 36.078933-2.952533l56.354133 0.861867 52.334934 0.0512c61.815467 0.059733 146.816-27.323733 152.7296-94.336l-8.8576-6.468267 13.9264 2.440533 35.029333 4.002134 38.058667 3.848533-22.980267 62.4384c-3.490133 9.472-39.8848 38.519467-49.425067 44.6976-20.462933 13.243733-45.764267 18.628267-69.640533 23.0144l-36.676267 6.7328c-20.48 3.754667-40.618667 9.4976-60.347733 16.631467l-17.629867 6.3744-29.124266 10.965333c-27.707733 10.427733-55.867733 13.841067-85.521067 10.308267l-29.192533-3.4816c-38.126933-4.548267-77.371733-12.603733-115.2-5.5296l-53.316267 9.966933c-30.011733 5.614933-61.269333 7.6288-91.9808 8.5248-1.723733 0.0512-6.1696 2.005333-6.016 3.438933 0.1024 0.964267 0.853333 3.165867 1.109333 3.9424z m604.842667-109.371733c5.060267-2.7904 10.897067-8.6016 11.665066-12.458667 0.605867-3.080533-3.242667-11.195733-5.956266-12.782933-4.462933-2.602667-16.4352 5.597867-18.030934 10.555733l-4.608 14.3616c6.2208 1.134933 13.781333 2.056533 16.930134 0.315734z m-402.6624 59.392l49.851733 1.408c2.798933 0.0768 8.5248-7.441067 10.299733-9.6512 1.314133-1.629867-4.3008-8.337067-6.766933-8.814933-55.586133-10.8032-111.419733 15.010133-98.005333 16.452266 23.261867 2.491733 11.648-0.324267 44.612266 0.605867z" fill="#FDB2A2" /><path d="M965.486933 421.512533c37.026133 33.681067 67.003733 114.568533 56.337067 166.101334-4.241067 20.497067-17.937067 43.818667-30.9248 56.8832l-2.107733-7.185067-11.1616 9.0624c-17.6128 2.261333-33.322667 7.876267-47.982934 17.4848l-33.706666 22.084267c-2.5856 1.698133-11.042133 4.539733-12.8256 4.770133l-56.695467-8.482133-27.972267-3.959467-48.725333-7.3984-24.4992-1.783467c0.546133-0.699733 5.504-3.618133 7.620267-4.155733l16.4096-4.138667 19.643733-4.9664c11.511467-2.909867 25.070933-6.101333 36.599467-7.2192l52.036266-5.0432c35.131733-3.4048 46.2336-53.870933 55.799467-82.218666l21.410133-28.9024 26.794667-35.7376-5.512533-53.341867-2.6368-26.5984 12.0832 4.7616z m-21.410133 194.338134l13.252267-26.786134c2.884267-5.8368 5.9904-20.6336 2.013866-25.736533-4.360533-5.597867-18.090667 2.7392-20.224 7.995733l-9.685333 23.867734c-2.858667 7.057067-3.131733 22.058667-3.524267 32.034133 6.2976 1.28 9.7536 2.807467 11.221334 0.8192 1.604267-2.176 4.983467-8.2432 6.9376-12.194133z" fill="#FEB2A2" /><path d="M990.8992 644.497067c-3.4048 3.421867-10.171733 11.144533-14.967467 13.627733l-15.018666 7.790933c-28.945067 15.018667-67.396267 36.590933-76.202667 69.077334-9.8816 36.462933-30.5152 66.048-62.3616 86.519466-14.0544 9.028267-31.880533 19.328-48.256 23.850667-73.5488 20.3264-73.3184 7.176533-152.900267 40.405333-52.4032 21.879467-91.665067 25.617067-149.5808 17.621334l-43.639466-6.024534c-33.390933-4.608-65.109333-4.0704-97.553067 2.978134l-37.239467 8.098133c-26.257067 5.7088-58.752 3.643733-83.208533-3.2512-0.247467-0.776533-1.006933-2.986667-1.109333-3.9424-0.1536-1.4336 4.292267-3.387733 6.016-3.438933 30.711467-0.887467 61.969067-2.909867 91.9808-8.5248l53.316266-9.966934c37.828267-7.074133 77.073067 0.981333 115.2 5.5296l29.192534 3.4816c29.653333 3.5328 57.813333 0.128 85.521066-10.308266l29.124267-10.965334 17.629867-6.3744c19.729067-7.1424 39.867733-12.8768 60.347733-16.631466l36.676267-6.7328c23.876267-4.386133 49.1776-9.770667 69.640533-23.0144 9.5488-6.178133 45.943467-35.2256 49.425067-44.6976l22.980266-62.4384-38.058666-3.848534-35.029334-4.002133-13.9264-2.440533-11.383466-1.143467c-23.7824-9.224533-83.003733 6.263467-108.091734 13.021867l-11.221333-2.986667c11.264-15.061333 52.4544-33.160533 67.0208-36.693333l24.4992 1.783466 48.725333 7.3984 27.972267 3.959467 56.695467 8.482133c1.783467-0.2304 10.24-3.072 12.8256-4.770133l33.706666-22.084267c14.660267-9.6 30.370133-15.223467 47.982934-17.4848l11.1616-9.0624 2.107733 7.185067z" fill="#F79487" /><path d="M588.765867 477.696c-31.121067 12.612267-39.441067 24.174933-64.162134 30.139733-17.2032 4.155733 0.1024-40.260267 73.0112-79.556266 18.551467-10.001067 61.7728-30.626133 80.648534-35.0208l39.7824-9.2672c18.961067-4.411733 52.215467 2.602667 73.0368 18.0224 5.12 3.7888 4.693333 22.5024-0.298667 26.478933-36.932267 29.422933-111.556267 12.535467-172.347733 37.1712l-29.6704 12.023467z" fill="#FDDAD3" /><path d="M777.5232 695.739733l11.255467 9.4976c-7.748267 5.1456-17.9456 11.7248-23.893334 13.4912l-25.6 7.637334c-8.328533 2.4832-25.1648 13.064533-34.2272 13.277866l-100.650666 2.338134c-16.759467 0.392533-56.1408 14.9504-72.576 10.624 8.576-9.352533 16.315733-13.917867 26.7776-17.4336l29.7728-10.0096c13.678933-4.599467 34.4576-9.540267 48-12.407467s33.015467 3.319467 33.0496-3.9936c25.088-6.7584 84.309333-22.2464 108.091733-13.021867z" fill="#FDD9D2" /><path d="M300.936533 716.322133l-10.325333-7.150933c10.257067-20.5824 19.072-36.317867 32.571733-52.437333l18.619734-22.229334c13.141333-15.6928 26.7264-27.4176 51.191466-35.575466 19.3536 35.899733-31.889067 51.310933-66.065066 88.849066l-25.992534 28.552534zM488.490667 542.882133c-7.509333 14.071467-25.668267 24.3712-41.3184 13.525334-0.981333-13.184 3.601067-24.132267 13.448533-29.943467 8.0896-4.770133 25.463467-2.389333 30.429867 4.036267 0.9984 1.288533-1.493333 10.368-2.568534 12.373333z" fill="#FDDAD2" /><path d="M412.151467 855.2192c-32.964267-0.930133-21.3504 1.885867-44.612267-0.605867-13.4144-1.4336 42.4192-27.255467 98.005333-16.452266 2.4576 0.477867 8.081067 7.185067 6.766934 8.814933-1.774933 2.210133-7.5008 9.728-10.299734 9.6512l-49.851733-1.408z" fill="#FA9788" /><path d="M814.813867 795.8272c-3.140267 1.732267-10.709333 0.8192-16.930134-0.315733l4.608-14.3616c1.5872-4.957867 13.568-13.1584 18.030934-10.555734 2.7136 1.5872 6.562133 9.693867 5.956266 12.782934-0.759467 3.857067-6.596267 9.659733-11.665066 12.458666z" fill="#FDCABF" /><path d="M944.0768 615.850667c-1.954133 3.950933-5.333333 10.018133-6.9376 12.194133-1.467733 1.988267-4.923733 0.4608-11.221333-0.8192 0.392533-9.975467 0.657067-24.977067 3.524266-32.034133l9.685334-23.867734c2.133333-5.256533 15.863467-13.5936 20.224-7.995733 3.976533 5.102933 0.8704 19.908267-2.013867 25.736533l-13.252267 26.786134z" fill="#F99588" /></svg>