<?xml version="1.0" standalone="no"?><!DOCTYPE svg PUBLIC "-//W3C//DTD SVG 1.1//EN" "http://www.w3.org/Graphics/SVG/1.1/DTD/svg11.dtd"><svg class="icon" width="256px" height="256.00px" viewBox="0 0 1024 1024" version="1.1" xmlns="http://www.w3.org/2000/svg"><path d="M950.109867 488.0128c18.730667 61.329067 21.956267 115.6864 17.792 179.447467-0.238933 3.720533-1.655467 8.174933 4.027733 6.997333-1.8688 2.039467-5.213867 3.268267-5.768533 5.1456-9.6256 85.188267-57.506133 157.1072-128.384 202.845867-12.7232 8.209067-27.648 14.0288-40.388267 22.084266l-5.947733-0.981333c15.3344-25.216 25.045333-55.3216 30.634666-84.4032 37.077333-39.8848 64.631467-87.253333 80.017067-140.142933 2.5088-8.610133 7.534933-26.9056 8.4224-35.217067 0.221867-2.090667 1.006933-5.5808-2.056533-5.026133-2.176 7.227733-4.113067 14.813867-6.929067 21.8368-14.344533 35.7632-35.242667 70.5024-56.516267 100.181333l-17.885866 18.807467c-0.443733-9.5488 0.554667-19.293867 0.085333-28.842667-1.476267-29.9776-6.3232-65.373867-14.455467-94.634667-1.1008-3.968-2.56-8.029867-3.968-11.904-0.768-2.116267-0.725333-5.905067-3.4816-5.435733 2.0736 7.057067 1.399467 13.7472 2.0224 20.7872 2.8416 32.469333 3.7376 60.740267 0 93.294933-3.780267 32.9216-12.637867 69.649067-27.374933 99.566934-1.672533 3.396267-12.5952 22.186667-14.276267 23.406933-2.2784 1.655467-3.754667 1.143467-5.034666-0.989867-2.4064-3.9936-4.189867-11.264-6.468267-15.351466-18.372267-32.930133-47.5904-60.8512-77.866667-82.7904-1.928533-1.399467-10.513067-8.337067-11.810133-7.022934-0.785067 3.669333 1.9968 4.7104 3.968 6.9376 27.895467 31.658667 51.080533 51.268267 68.462933 92.202667 2.773333 6.536533 9.480533 26.487467 8.951467 32.7168-0.605867 7.04-4.7104 6.391467-5.504 7.381333-0.9984 1.245867-1.109333 3.182933-2.397867 4.590934-4.522667 4.974933-10.427733 9.019733-13.969066 14.839466-3.6352 0.6144-9.506133 5.0688-14.8992 5.922134-71.04 11.2384-129.1008 9.361067-199.313067 3.9936 5.563733-2.747733-1.134933-4.957867-2.6112-6.314667-56.192-51.908267-30.8992-131.848533 30.3872-165.239467 6.493867-3.541333 15.044267-5.538133 21.76-9.975466 18.013867-11.904 33.297067-34.372267 53.026133-42.180267 21.777067-8.618667 44.4672-4.5312 66.645334-8.721067 32.136533-6.075733 60.168533-25.4208 79.624533-51.2768 13.124267-17.450667 16.162133-30.6688 37.384533-41.949866 15.470933-8.226133 31.5392-6.775467 47.573334-11.9296 27.639467-8.8832 51.1232-31.5392 63.803733-57.1904 7.424-15.018667 8.413867-27.246933 20.8384-40.661334 2.577067-2.781867 6.391467-2.116267 6.314667-6.4768l15.5648-8.32z" fill="#9FE266" /><path d="M65.493333 486.033067c13.056 9.736533 12.074667 25.847467 16.349867 40.174933 7.3984 24.7552 26.845867 45.474133 49.194667 57.9072 15.854933 8.823467 35.242667 9.557333 49.4592 17.979733 9.5744 5.666133 18.551467 18.261333 23.441066 28.125867 6.186667 12.4672 7.799467 14.557867 15.744 24.814933 2.944 3.805867 4.317867 8.6272 8.379734 12.544 18.158933 17.4848 45.9008 29.585067 70.519466 32.622934 19.054933 2.346667 40.738133-1.4592 57.1648 8.2944 15.5904 9.250133 23.611733 23.099733 40.285867 33.1008 4.053333 2.432 17.911467 7.7312 19.601067 10.146133 3.473067 4.9664-3.6352 8.456533-4.718934 13.294933-4.676267 21.000533-9.762133 41.335467-8.337066 63.232 2.193067 33.826133 22.289067 74.564267 49.723733 95.061334 1.015467 0.759467 5.6832 3.285333 5.888 3.029333l2.2784-7.645867c11.4944-6.8352 16.469333 4.1472 26.564267 7.569067l-1.083734 8.004267 19.848534 3.976533c-4.181333-0.418133-8.644267 0.494933-12.8512-0.0512-8.840533-1.143467-26.427733-8.0896-33.7664-8.046933-14.600533 0.085333-37.0944 7.261867-53.461334 8.183466-32.3584 1.8176-59.178667-1.476267-90.333866-6.033066l-39.620267-24.840534c-12.040533-13.755733-29.764267-22.587733-37.802667-39.5776 5.461333-30.097067 20.992-56.4736 37.717334-81.399466l37.717333-44.586667c-2.901333-0.273067-5.649067 1.4592-7.8848 3.0208-21.751467 15.2832-53.504 46.557867-67.182933 69.674667l-17.160534 32.4096c-5.3248-2.679467-18.065067-29.354667-21.230933-36.292267-23.364267-51.1744-29.678933-101.546667-27.281067-157.0048 0.443733-10.222933-0.494933-20.608-0.093866-30.830933l-5.486934 17.314133c-6.818133 32.827733-10.9056 65.6128-8.302933 98.628267 0.384 4.8384-0.4352 10.069333-0.093867 14.958933-13.0816-10.402133-24.3456-24.942933-33.408-38.980267-14.4384-22.365867-28.893867-51.3536-39.0144-76.023466-2.0736-5.060267-3.4816-10.632533-4.932266-15.8976l-1.954134 4.923733c8.6016 36.1728 18.926933 72.644267 37.973334 104.840533 4.343467 7.338667 11.579733 18.363733 16.597333 25.053867 8.251733 11.008 23.5008 22.954667 29.687467 33.783467 5.077333 8.891733 9.079467 33.6384 13.824 45.678933 7.594667 19.259733 18.158933 38.2464 30.805333 54.4768 2.952533 3.7888 3.6352 5.563733-1.9712 4.949333-5.2224-4.923733-5.1456-3.106133-10.624-6.237866C89.949867 829.8496 46.3872 743.278933 45.627733 620.9024c-0.315733-49.9456 7.022933-87.2192 19.831467-134.877867z" fill="#9FE266" /><path d="M896.554667 277.768533c-5.546667 4.2496-4.360533 17.8944-3.925334 24.7552 1.152 18.2272 3.080533 26.359467-2.525866 45.1584-1.006933 3.3792-1.3568 7.099733-4.4544 9.4208-2.414933-0.0768-16.887467-27.153067-19.925334-31.6416-19.6608-29.056-39.714133-54.638933-68.394666-74.4192-5.0688-3.498667-12.637867-4.2752-15.394134-10.402133l-2.4064 1.425067c-3.464533-7.278933-8.5248-8.448-11.904-13.883734-10.9568-17.655467-21.9392-23.876267-39.5776-34.798933-32.452267-20.104533-63.803733-25.4464-102.1952-22.673067l-14.916266 5.905067c-16.648533-4.138667-34.551467-5.930667-51.566934-7.936-12.484267-1.467733-26.2912-4.1216-39.671466-3.968-20.164267 0.238933-43.1872 3.498667-63.470934 5.947733 3.191467-5.1456 2.3808-3.140267-2.039466-4.881066-6.7328-2.653867-15.2576-5.1456-21.76-7.022934-2.7904-5.111467-7.8848-9.4208-13.883734-9.924266 5.4528-5.947733 7.082667-9.301333 5.998934-17.792l26.487466-2.2784c6.152533-3.797333 6.212267-12.8256 15.0528-11.741867l-0.059733-7.7056-11.776-4.113067v-7.927466c9.4976-2.167467 21.905067-10.939733 33.1008-13.508267 23.842133-5.461333 46.5152-0.836267 67.447467 11.144533 10.478933 5.998933 19.268267 13.422933 27.537066 22.152534l1.629867-0.042667c14.865067-12.3136 30.08-22.9632 48.750933-28.706133 44.253867-13.610667 89.659733 0.443733 119.0912 35.712 6.144 7.355733 10.052267 16.750933 15.7952 23.876266 19.456 24.1408 36.650667 19.072 61.550934 29.687467 31.274667 13.329067 58.496 47.5392 63.394133 81.399467 0.896 6.161067-2.286933 14.3872 4.010667 18.798933z" fill="#76BA45" /><path d="M942.173867 460.245333c0.0512 9.924267 5.111467 18.517333 7.936 27.767467l-15.5648 8.32c0.0768 4.360533-3.7376 3.694933-6.314667 6.4768-12.424533 13.4144-13.405867 25.642667-20.8384 40.661333-12.680533 25.642667-36.164267 48.3072-63.803733 57.1904-16.034133 5.154133-32.1024 3.703467-47.573334 11.9296-21.2224 11.281067-24.260267 24.4992-37.384533 41.949867-19.456 25.856-47.488 45.201067-79.624533 51.2768-22.186667 4.1984-44.8768 0.110933-66.645334 8.721067-19.729067 7.808-35.012267 30.276267-53.026133 42.180266-6.715733 4.437333-15.266133 6.434133-21.76 9.975467-61.2864 33.390933-86.5792 113.3312-30.3872 165.239467 1.476267 1.365333 8.174933 3.575467 2.6112 6.314666-1.3056-0.1024-2.670933 0.128-3.968 0l-19.848533-3.976533 1.083733-8.004267c-10.094933-3.421867-15.069867-14.404267-26.564267-7.569066l-2.2784 7.645866c-0.213333 0.256-4.872533-2.269867-5.888-3.029333-27.434667-20.497067-47.530667-61.243733-49.723733-95.061333-1.425067-21.905067 3.6608-42.24 8.337067-63.232 1.0752-4.8384 8.192-8.328533 4.718933-13.294934-1.6896-2.414933-15.547733-7.714133-19.601067-10.146133-16.682667-10.001067-24.704-23.842133-40.285866-33.1008-16.426667-9.7536-38.109867-5.9392-57.1648-8.2944-24.618667-3.037867-52.360533-15.138133-70.519467-32.622933-4.0704-3.9168-5.435733-8.738133-8.379733-12.544-7.944533-10.257067-9.557333-12.347733-15.744-24.814934-4.8896-9.864533-13.866667-22.4512-23.441067-28.125866-14.216533-8.4224-33.604267-9.147733-49.4592-17.979734-22.3488-12.4416-41.796267-33.160533-49.194667-57.9072-4.283733-14.318933-3.3024-30.4384-16.349866-40.174933 0.2816-1.058133-0.0768-2.781867 0.392533-4.48 1.245867-4.488533 5.077333-11.682133 5.5552-15.351467 3.6096-2.875733 4.5568-0.776533 6.980267 1.954134 10.487467 11.8272 11.400533 34.875733 17.783466 49.646933 10.0608 23.2704 33.194667 41.634133 56.482134 50.619733 14.907733 5.751467 32.699733 5.307733 44.782933 16.708267 12.424533 11.7248 17.672533 34.978133 27.767467 49.578667 19.029333 27.511467 54.1952 45.6704 87.099733 47.7696 22.365867 1.4336 40.721067-4.1216 59.630933 11.776 6.545067 5.504 12.16 13.431467 18.8928 18.798933 11.2896 9.002667 26.3168 15.351467 39.586134 20.9152 3.498667 1.467733 16.477867 7.7824 17.851733 7.936 4.590933 6.186667-3.447467 12.330667-5.5552 17.2544-17.757867 41.582933-15.189333 84.992 8.6272 123.537067 1.570133 2.542933-0.512 5.102933 4.855467 3.9936 2.082133-2.500267-4.718933-14.0544-5.6064-17.2032-11.997867-42.6752 26.0864-97.245867 61.2352-118.562134 16.008533-9.710933 32.9472-16.580267 46.549333-28.765866 13.371733-11.9808 21.469867-25.0624 39.2448-32.221867 19.6096-7.893333 32.810667-3.6608 51.9168-5.597867 34.432-3.490133 66.321067-17.655467 88.3456-44.544 10.5728-12.910933 19.2256-35.566933 31.786667-45.568 19.959467-15.889067 46.72-13.0048 69.367466-21.870933 25.173333-9.856 43.7504-32.4096 54.545067-56.5248 3.336533-7.466667 6.033067-19.345067 9.898667-25.8048 6.058667-10.120533 24.029867-20.804267 32.375466-29.141333l6.280534-0.622934z" fill="#8AD654" /><path d="M779.537067 242.065067l2.4064-1.425067c2.7648 6.126933 10.333867 6.903467 15.394133 10.402133 28.672 19.780267 48.725333 45.3632 68.394667 74.4192 3.037867 4.488533 17.501867 31.5648 19.925333 31.6416 3.0976-2.321067 3.447467-6.0416 4.4544-9.4208 5.6064-18.798933 3.677867-26.9312 2.525867-45.1584-0.4352-6.8608-1.621333-20.5056 3.925333-24.7552 1.749333-1.339733 10.4192-3.643733 12.936533-3.9168 73.693867-8.0128 117.512533 72.046933 101.6832 137.386667-2.9184 12.0576-10.180267 24.285867-13.056 36.5312-9.105067 38.715733 15.581867 60.091733 22.929067 95.249067 11.818667 56.558933-13.457067 92.544-49.1264 131.438933-5.6832 1.1776-4.266667-3.268267-4.027733-6.997333 4.164267-63.7696 0.938667-118.126933-17.792-179.447467-2.824533-9.250133-7.876267-17.8432-7.936-27.767467-0.008533-2.218667-0.290133-4.4544 0.247466-6.656l14.062934-19.694933c6.9376-17.783467 9.105067-38.613333-0.699734-55.697067-3.857067-6.715733-13.9776-15.735467-21.4528-18.218666-3.217067-1.0752-13.7472-3.191467-16.878933-2.8928-13.6704 1.297067-31.112533 13.44-39.739733 23.893333-2.2528 2.730667 0.9216 5.888-4.9664 1.911467-0.904533-5.495467-7.125333-11.383467-9.915734-15.863467-12.501333-20.0448-27.9808-42.820267-43.5968-60.535467-7.808-8.8576-32.6912-29.098667-35.387733-38.058666-0.708267-2.3552 0.034133-4.7872-0.349867-6.528-0.238933-2.952533 0.426667-6.1696 0.059734-9.053867s-1.979733-2.688-2.039467-2.850133c-1.083733-2.816-1.604267-7.1424-1.979733-7.936z" fill="#5DA533" /><path d="M126.984533 250.001067l7.901867 5.077333c-2.978133 5.2224-1.143467 10.641067-1.988267 15.709867-1.5616 9.412267-6.792533 20.718933-7.842133 29.841066-1.399467 12.16 1.0496 26.308267-0.0512 38.6304-0.017067 0.170667-2.133333 0.4864-2.048 2.850134 0.093867 2.6624 4.215467 13.201067 5.623467 16.375466 2.432 5.495467 6.007467 13.0304 12.288 14.4896-1.186133 1.962667-4.753067 9.275733-5.947734 11.904-8.157867 5.649067-7.517867-4.130133-10.1632-8.6784-1.8432-3.1744-8.832-11.9552-11.707733-14.071466-14.882133-10.965333-36.0704-7.688533-50.244267 2.875733-1.672533 1.245867-1.066667 2.798933-1.774933 3.5072s-2.4832 0.375467-2.935467 0.930133c-15.488 18.961067-14.481067 39.7568-10.120533 62.8224l3.234133 0.512c1.92 10.8544 12.066133 19.490133 19.3024 27.4432 1.169067 1.800533 1.2032 3.959467 0.938667 5.9904-0.477867 3.669333-4.309333 10.862933-5.5552 15.351467-0.469333 1.698133-0.110933 3.421867-0.392533 4.48-12.817067 47.658667-20.1472 84.932267-19.831467 134.877867C8.823467 591.36-8.994133 539.272533 4.5056 493.474133c5.248-17.826133 19.712-35.268267 21.418667-53.956266 1.9968-21.9136-6.792533-32.7424-11.5712-52.0704-10.641067-42.999467 1.962667-92.228267 37.358933-120.490667 22.007467-17.570133 48.034133-21.666133 75.281067-16.9472z" fill="#5BA534" /><path d="M454.2464 97.271467v7.927466l11.776 4.113067 0.059733 7.7056c-8.840533-1.083733-8.900267 7.944533-15.0528 11.741867l-26.487466 2.2784c1.083733 8.490667-0.546133 11.844267-5.998934 17.792 5.998933 0.503467 11.093333 4.804267 13.883734 9.924266-49.851733-14.3872-88.9344-14.523733-135.560534 10.222934-19.131733 10.154667-41.352533 31.249067-54.8864 48.256-4.266667 5.367467-7.483733 12.817067-11.8272 17.92-5.614933 6.6048-14.6688 11.118933-20.898133 16.785066-27.707733 25.1904-53.188267 51.968-73.301333 83.387734-1.6896 2.645333-2.858667 7.287467-4.974934 8.9088-4.864 3.729067-4.4288-3.2768-5.973333-4.983467 1.1008-12.322133-1.3568-26.4704 0.0512-38.6304 1.0496-9.122133 6.280533-20.4288 7.842133-29.841067 0.8448-5.0688-0.989867-10.487467 1.988267-15.709866l-7.901867-5.077334c3.3792 0.5888 6.6048 1.143467 9.915734 1.988267 4.010667-19.140267 16.452267-38.263467 30.711466-51.6608 1.553067-1.4592 5.0688-5.102933 5.393067-5.358933 10.478933-8.234667 29.6704-16.896 42.6496-19.925334 10.368-2.423467 20.497067-2.048 30.830933-4.864 27.886933-7.594667 34.218667-32.657067 51.029334-52.113066 20.027733-23.185067 58.0352-37.3248 88.388266-34.756267 21.376 1.809067 48.6912 18.449067 68.343467 13.969067z" fill="#70B23C" /><path d="M206.318933 896.605867c5.6064 0.6144 4.923733-1.160533 1.9712-4.949334-12.654933-16.238933-23.210667-35.217067-30.805333-54.4768-4.744533-12.040533-8.746667-36.7872-13.824-45.678933-6.186667-10.820267-21.435733-22.766933-29.687467-33.783467-5.0176-6.690133-12.253867-17.7152-16.597333-25.053866-19.037867-32.196267-29.371733-68.667733-37.973333-104.840534l1.954133-4.923733c1.450667 5.265067 2.858667 10.837333 4.932267 15.8976 10.120533 24.6784 24.576 53.6576 39.0144 76.023467 9.0624 14.037333 20.334933 28.578133 33.408 38.980266-0.341333-4.8896 0.469333-10.129067 0.093866-14.958933-2.602667-33.015467 1.4848-65.800533 8.302934-98.628267l5.486933-17.314133c-0.401067 10.2144 0.529067 20.608 0.093867 30.830933-2.389333 55.458133 3.9168 105.8304 27.281066 157.0048 3.165867 6.9376 15.906133 33.6128 21.230934 36.292267l17.160533-32.4096c13.6704-23.125333 45.431467-54.391467 67.182933-69.674667 2.2272-1.570133 4.974933-3.3024 7.8848-3.0208l-37.717333 44.586667c-16.725333 24.925867-32.256 51.310933-37.717333 81.399467 8.0384 16.989867 25.762133 25.821867 37.802666 39.5776l39.620267 24.840533c-20.727467-3.037867-35.797333-3.5328-54.946133-11.4944-12.5184-5.205333-46.378667-16.887467-54.144-24.200533z" fill="#F5FED4" /><path d="M724.002133 928.341333c3.549867-5.828267 9.454933-9.864533 13.969067-14.839466 1.288533-1.416533 1.399467-3.345067 2.397867-4.590934 0.7936-0.989867 4.898133-0.3328 5.504-7.381333 0.5376-6.229333-6.1696-26.1888-8.951467-32.7168-17.373867-40.9344-40.567467-60.544-68.462933-92.202667-1.962667-2.2272-4.744533-3.2768-3.968-6.9376 1.3056-1.314133 9.8816 5.623467 11.810133 7.022934 30.2848 21.9392 59.4944 49.860267 77.866667 82.7904 2.2784 4.078933 4.061867 11.357867 6.468266 15.351466 1.28 2.1248 2.756267 2.645333 5.034667 0.989867 1.681067-1.220267 12.603733-20.0192 14.276267-23.406933 14.737067-29.917867 23.594667-66.645333 27.374933-99.566934 3.7376-32.5632 2.850133-60.8256 0-93.294933-0.6144-7.04 0.0512-13.730133-2.0224-20.7872 2.756267-0.469333 2.705067 3.319467 3.4816 5.435733 1.408 3.874133 2.8672 7.936 3.968 11.904 8.132267 29.2608 12.970667 64.657067 14.455467 94.634667 0.469333 9.5488-0.520533 19.293867-0.085334 28.842667l17.885867-18.807467c21.265067-29.6704 42.1632-64.418133 56.516267-100.181333 2.816-7.022933 4.744533-14.609067 6.929066-21.8368 3.063467-0.554667 2.2784 2.935467 2.056534 5.026133-0.887467 8.32-5.9136 26.606933-8.4224 35.217067-15.3856 52.8896-42.939733 100.258133-80.017067 140.142933-5.597867 29.0816-15.300267 59.1872-30.634667 84.4032l5.947734 0.981333c-6.0672 3.831467-10.112 4.573867-17.262934 7.534934-22.391467 9.275733-32.221867 12.228267-56.123733 16.264533z" fill="#F5FDD7" /><path d="M559.368533 168.6784c-20.155733 13.141333-48.162133 11.451733-67.3536 26.862933-10.0864 8.098133-14.071467 18.7392-6.971733 30.600534 17.066667 28.526933 58.2144 32.546133 85.623467 47.274666 11.426133 6.135467 22.869333 14.344533 32.384 23.150934l32.964266 18.602666c4.386133 1.271467 16.366933-0.7168 21.1968-2.039466 3.234133-0.887467 3.933867-2.824533 5.2992-3.626667 5.060267-2.952533 8.311467-5.794133 11.904-9.915733 15.5648-17.885867 25.8048-35.336533 44.586667-51.6096 2.397867-2.0736 15.880533-13.422933 16.896-13.8496 4.258133-1.783467 14.216533-5.2224 18.884267-5.905067 4.078933-0.597333 8.6784 0.273067 12.8512-0.042667 3.3792 5.435733 8.439467 6.6048 11.904 13.883734 0.375467 0.7936 0.904533 5.12 1.979733 7.936 0.256 2.551467-0.384 5.512533 0 7.936-13.098667-1.450667-25.710933 2.56-35.7376 10.9312-1.6128 1.348267-1.476267 3.601067-2.3808 4.497066s-3.1744 0.768-4.497067 2.3808c-13.7728 16.750933-14.045867 36.923733-36.036266 49.3056-19.165867 10.786133-32.7936 9.173333-52.855467 12.5952-4.241067 0.725333-8.661333 3.729067-12.689067 5.162667-6.5024 2.321067-18.9696 5.6832-23.978666 10.734933-0.8704 0.878933-0.9472 3.182933-2.304 4.573867-5.393067 5.546667-9.4976 9.335467-13.661867 16.145067-9.275733 15.1552-13.252267 33.527467-24.072533 47.325866-22.6048 28.842667-49.117867 23.970133-77.312 39.714134-13.0816 7.304533-25.873067 21.6064-37.768534 28.680533l-3.831466-0.1024c-2.0992-3.857067-1.297067-8.644267-2.397867-12.5696-0.7168-2.542933-3.5328-2.909867-3.694933-3.2-0.520533-0.981333-0.3328-3.4048-1.527467-5.3504-6.459733-10.5216-16.6144-18.141867-27.52-24.1152-5.981867-3.2768-4.744533-0.853333-8.9856-5.768533-0.7168-0.836267-5.973333-2.389333-8.618667-4.4032-8.251733-6.280533-18.389333-25.053867-20.411733-35.1232-3.345067-16.682667-1.672533-36.369067-17.92-46.498134 0.657067-6.621867-10.103467-11.758933-16.145067-14.6432-19.498667-9.301333-40.704-9.181867-55.6032-27.6992-17.595733-21.870933-14.7968-65.706667-55.5008-60.526933 0.3328-1.160533-0.4608-3.2768 0.059734-4.821333 3.242667-9.557333 5.930667-18.5856 17.194666-20.573867 15.872-2.798933 16.964267 3.703467 28.3392 8.610133 2.158933 0.930133 5.742933 0.7168 5.973334 0.913067 0.1536 0.128-0.136533 2.286933 0.989866 3.882667 3.182933 4.514133 9.284267 8.5248 12.936534 12.936533 11.630933 14.0544 18.8416 32.145067 29.713066 46.651733 0.290133 0.392533-0.187733 2.542933 0.9728 3.908267 4.778667 5.6064 8.6528 8.3712 14.8992 11.963733 0.187733 0.1024 0.187733 1.399467 1.262934 1.7152 3.9168 1.152 10.052267 0.682667 14.327466 2.653867l1.467734 3.6352c7.586133-1.501867 10.641067 5.5552 15.675733 9.838933 6.263467-8.823467 16.861867-20.241067 26.7776-24.7808 4.48-2.048 14.882133-1.7664 20.48-3.319466 17.664-4.906667 19.549867-17.723733 32.042667-27.460267 12.1088-9.437867 27.562667-13.252267 42.683733-13.8496 1.160533-4.881067-1.024-3.140267-2.602667-4.3008-7.8592-5.7856-26.197333-17.467733-28.8512-26.7264-1.152-4.010667 1.723733-10.1632-2.261333-12.612267 0.196267-4.189867-0.366933-8.2944 0.392533-12.509866 3.310933-18.4832 31.650133-33.1776 48.2816-37.009067 4.232533-0.9728 6.749867 1.988267 2.8928-4.036267 13.371733-0.162133 27.1872 2.500267 39.671467 3.968z m-29.7472 261.8112c4.036267-1.578667 8.2688-1.979733 12.603734-4.258133 9.122133-4.7872 23.048533-19.498667 26.171733-29.3632 2.6368-8.3456 8.814933-38.084267 13.1584-43.460267 0.443733-0.554667 2.423467-0.017067 3.1232-0.622933 1.006933-0.8704 1.834667-5.256533 3.498667-7.543467 3.6608-5.026133 20.027733-18.176 25.856-19.822933 2.9696-0.836267 3.370667 1.066667 2.8672-4.010667-12.023467-3.950933-23.466667-9.403733-33.6384-16.955733-4.573867-3.396267-11.093333-11.357867-15.914667-13.832534-8.251733-4.232533-20.616533-8.123733-29.824-11.8272-9.002667-3.618133-11.562667-7.9872-22.869333-7.057066-11.579733 0.955733-25.9584 4.010667-36.642134 8.968533-9.685333 4.497067-13.3632 11.1616-19.754666 17.928533-13.4144 14.199467-20.241067 13.934933-38.340267 17.2032-5.282133 0.955733-21.12 8.285867-24.763733 11.9296-1.7664 1.7664-3.524267 7.816533-7.458134 9.506134l-0.631466 0.9728c2.167467 4.7616 6.007467 11.434667 7.338666 16.238933 4.3008 15.4624 1.809067 32.0768 4.6336 44.9536 0.375467 1.706667 6.3232 14.1056 7.517867 15.982933 1.058133 1.664 2.824533 0.930133 3.575467 1.6896s0.324267 2.5088 0.853333 3.012267c4.522667 4.3008 24.1664 10.3168 31.317333 15.402667 4.829867 3.4304 13.329067 12.407467 16.9728 16.657066 3.421867 3.985067 6.050133 8.4736 9.941334 12.023467l2.926933-0.904533c10.589867-11.050667 23.364267-20.138667 37.538133-25.941334 3.2256-1.322667 6.161067-1.339733 10.018134-2.875733 3.293867-1.3056 6.621867-2.679467 9.915733-3.968z" fill="#9CDF41" /><path d="M610.944 176.6144c3.771733 0.938667 9.7024 3.072 14.464 4.3776 6.664533 1.826133 12.8768 5.393067 19.968 5.853867l1.262933 1.672533c-4.3264 1.5104-0.6912 6.272 0.034134 8.900267 5.162667 18.619733 9.301333 40.260267 7.9872 59.613866-0.366933 5.367467-3.515733 10.709333-2.0736 16.768-1.2288 1.373867-9.9072-5.6832-11.810134-7.022933-21.495467-15.1552-45.7472-32.878933-70.1184-42.939733-1.9456-0.802133-5.9136-3.345067-7.3216-0.6144 23.7056 16.7936 47.5136 34.030933 67.473067 55.5008 6.8864 7.406933 13.866667 17.297067 20.744533 24.874666 2.9696 3.2768 5.7344 6.869333 10.9568 5.905067-1.365333 0.802133-2.065067 2.7392-5.2992 3.626667-4.8384 1.3312-16.810667 3.310933-21.1968 2.039466l-32.964266-18.602666c-9.5232-8.797867-20.9664-17.006933-32.384-23.150934-27.400533-14.728533-68.5568-18.747733-85.623467-47.274666-7.099733-11.869867-3.114667-22.5024 6.971733-30.600534 19.191467-15.4112 47.189333-13.7216 67.3536-26.862933 17.024 2.005333 34.9184 3.797333 51.566934 7.936z" fill="#B6EE6E" /><path d="M432.4352 158.762667c6.5024 1.877333 15.018667 4.369067 21.76 7.022933 4.420267 1.7408 5.239467-0.264533 2.039467 4.881067-4.701867 0.571733-9.224533 1.297067-13.883734 1.979733-4.8128 0.708267-5.435733 0.4864-9.915733 1.979733-13.038933 4.352-27.229867 8.072533-39.671467 11.904-16.3072 5.026133-31.906133 9.890133-47.633066 16.827734-19.6864 8.669867-39.4496 19.1232-57.489067 30.779733-0.2304-0.196267-3.822933 0.017067-5.973333-0.913067-11.374933-4.906667-12.4672-11.409067-28.3392-8.610133-11.264 1.988267-13.952 11.016533-17.194667 20.573867-0.520533 1.536 0.2816 3.6608-0.059733 4.821333-1.783467 6.126933-5.563733 18.9696-8.977067 23.748267-9.002667 12.6208-38.254933 39.978667-50.525867 51.618133l-2.9696-1.979733c-5.597867 3.925333-1.237333 5.060267-0.9984 5.947733 0.7424 2.816-12.347733 16.5376-14.788266 19.9168-4.0704 5.623467-7.227733 11.997867-10.990934 17.7664-0.520533 0.802133-4.701867 3.8912-5.947733 5.947733-6.280533-1.4592-9.856-8.994133-12.288-14.4896-1.408-3.182933-5.5296-13.7216-5.623467-16.375466-0.085333-2.363733 2.030933-2.679467 2.048-2.850134 1.544533 1.706667 1.109333 8.712533 5.973334 4.983467 2.116267-1.621333 3.285333-6.263467 4.974933-8.9088 20.1216-31.419733 45.5936-58.197333 73.301333-83.387733 6.229333-5.666133 15.2832-10.180267 20.898134-16.785067 4.343467-5.111467 7.560533-12.552533 11.8272-17.92 13.533867-17.006933 35.754667-38.101333 54.8864-48.256 46.626133-24.746667 85.7088-24.610133 135.560533-10.222933z" fill="#5EAC34" /><path d="M519.7056 164.7104c3.857067 6.024533 1.339733 3.063467-2.8928 4.036267-16.631467 3.831467-44.970667 18.525867-48.2816 37.009066-0.750933 4.215467-0.196267 8.32-0.392533 12.509867-0.034133 0.657067 0.059733 1.3312 0 1.979733-3.729067 0.426667-9.1392 1.143467-12.509867 2.372267-21.5552 7.8336-41.352533 19.217067-61.841067 29.397333-2.2784 1.134933-3.498667 2.901333-6.971733 1.9456 0.384-6.8096-0.580267-14.020267 0.042667-20.7872 0.930133-10.1632 4.864-29.627733 8.260266-39.3472 0.9216-2.645333 7.7568-7.3728 0.6144-7.304533-1.015467 0.008533-2.432-0.2304-2.9696 0 12.4416-3.831467 26.632533-7.552 39.671467-11.904l8.746667-0.213333 1.169066-1.7664c4.6592-0.682667 9.181867-1.416533 13.883734-1.979734 20.283733-2.4576 43.306667-5.7088 63.470933-5.947733z" fill="#B7EE6D" /><path d="M610.944 176.6144l14.916267-5.905067c38.391467-2.773333 69.742933 2.577067 102.1952 22.673067 17.6384 10.9312 28.6208 17.143467 39.5776 34.798933-4.181333 0.315733-8.772267-0.554667-12.8512 0.042667-4.667733 0.682667-14.626133 4.1216-18.884267 5.905067-23.125333-12.9536-45.696-27.332267-70.016-38.084267-5.1456-2.2784-11.639467-5.162667-17.2544-5.5552-0.494933-0.9216-0.494933-1.9712-1.979733-1.979733l-1.262934-1.672534c-7.0912-0.4608-13.303467-4.027733-19.968-5.853866-4.7616-1.3056-10.692267-3.438933-14.464-4.3776z" fill="#61AD38" /><path d="M872.7552 382.890667c5.888 3.976533 2.7136 0.8192 4.9664-1.911467 8.6272-10.453333 26.069333-22.596267 39.739733-23.893333 3.131733-0.298667 13.661867 1.8176 16.878934 2.8928 7.466667 2.491733 17.595733 11.511467 21.4528 18.218666 9.8048 17.0752 7.637333 37.905067 0.699733 55.697067l-14.062933 19.694933c-0.5376 2.2016-0.256 4.437333-0.247467 6.656l-6.280533 0.622934c-8.354133 8.337067-26.3168 19.0208-32.375467 29.141333-3.8656 6.459733-6.5536 18.338133-9.898667 25.8048-10.794667 24.1152-29.380267 46.6688-54.545066 56.5248-22.647467 8.866133-49.408 5.981867-69.367467 21.870933-12.561067 10.001067-21.213867 32.657067-31.786667 45.568-22.016 26.897067-53.9136 41.053867-88.3456 44.544-19.106133 1.937067-32.3072-2.295467-51.9168 5.597867-17.774933 7.159467-25.873067 20.241067-39.2448 32.221867-13.5936 12.1856-30.5408 19.054933-46.549333 28.765866-35.1488 21.3248-73.233067 75.895467-61.2352 118.562134 0.887467 3.140267 7.688533 14.702933 5.6064 17.2032-5.367467 1.109333-3.285333-1.450667-4.855467-3.9936-23.816533-38.545067-26.385067-81.962667-8.6272-123.537067 2.0992-4.923733 10.146133-11.067733 5.5552-17.2544 0.930133 0.1024 1.834667 0.093867 2.7392-0.187733 5.819733-3.336533 6.7072-10.504533 10.205867-15.624534 2.525867-3.703467 15.573333-22.6048 16.810667-23.850666 0.187733-0.187733 2.909867 0.324267 4.9408-1.937067 15.214933-16.9216 28.023467-44.0832 44.637866-59.5456 2.7904-2.594133 6.613333-5.0176 9.915734-7.936 8.900267-7.867733 18.696533-16.7424 29.755733-21.819733 4.352-1.9968 12.689067-5.077333 17.834667-6.9632 26.453333-9.7024 45.047467-9.770667 63.488-34.688 2.1248-2.875733 5.828267-10.811733 7.936-13.883734 18.0224-26.325333 32.768-47.581867 61.482666-63.470933 3.8144-2.107733 10.709333-6.587733 13.883734-7.936 2.781867-1.1776 9.250133-3.2256 11.904-3.968 5.998933-1.672533 15.223467-2.5088 21.819733-3.968 7.722667-1.706667 17.518933-2.218667 24.439467-4.3264 12.322133-3.746133 24.507733-15.104 33.117866-24.3968 12.0064-12.945067 22.468267-27.8784 33.6384-41.728 4.923733-6.109867 11.477333-11.204267 15.684267-18.0992 0.298667-1.5104 0.477867-3.157333 0.221867-4.667733z" fill="#7CC54E" /><path d="M134.912 384.8704c-0.4096 0.887467-1.928533 6.2464-1.834667 6.7072 1.536 2.466133 4.0192 3.8912 5.5296 6.4512 11.656533 19.805867 28.8768 54.766933 49.271467 65.7664 10.359467 5.589333 24.849067 8.7296 36.283733 12.305067 9.0368 2.824533 19.234133 5.248 27.767467 9.915733 12.689067 6.946133 28.765867 22.2464 37.6832 33.7152 2.850133 3.669333 5.4016 7.978667 7.936 11.904 7.406933 11.4944 12.3392 24.866133 18.858667 35.6864 6.519467 10.811733 18.875733 23.7312 30.139733 29.3632 15.786667 7.893333 31.479467 11.264 48.187733 20.241067 2.321067 1.245867 4.9152 2.0992 7.936 3.968 6.647467 4.104533 13.986133 8.584533 19.831467 13.883733 4.1984 3.805867 12.032 11.656533 15.863467 15.863467 3.908267 4.292267 10.606933 11.707733 13.883733 15.863466 3.549867 4.5056 8.3968 15.069867 11.904 19.831467-4.8896 4.949333-11.733333 11.52-15.906133 16.827733-3.2768 4.1728-7.893333 10.5728-10.786134 15.0016-3.140267 4.795733-7.552 9.693867-7.031466 15.778134-13.269333-5.5552-28.288-11.904-39.586134-20.9152-6.7328-5.367467-12.3392-13.294933-18.8928-18.798934-18.909867-15.8976-37.265067-10.3424-59.630933-11.776-32.913067-2.107733-68.0704-20.266667-87.099733-47.7696-10.103467-14.600533-15.351467-37.853867-27.767467-49.578666-12.0832-11.400533-29.8752-10.9568-44.782933-16.708267-23.287467-8.9856-46.421333-27.349333-56.482134-50.619733-6.382933-14.7712-7.296-37.819733-17.783466-49.646934-2.414933-2.722133-3.370667-4.829867-6.980267-1.954133 0.264533-2.030933 0.2304-4.189867-0.938667-5.9904-7.227733-7.9616-17.3824-16.5888-19.3024-27.4432l-3.234133-0.512c-4.360533-23.0656-5.367467-43.861333 10.120533-62.8224 0.452267-0.554667 2.218667-0.213333 2.935467-0.930133s0.1024-2.261333 1.774933-3.5072c14.173867-10.564267 35.3536-13.841067 50.244267-2.875734 2.875733 2.116267 9.864533 10.897067 11.707733 14.071467 2.645333 4.548267 2.005333 14.327467 10.1632 8.6784z" fill="#7CC34F" /><path d="M478.0544 702.225067c-1.237333 1.245867-14.2848 20.155733-16.810667 23.850666-3.498667 5.128533-4.386133 12.296533-10.205866 15.624534-0.904533 0.2816-1.809067 0.290133-2.7392 0.187733-1.373867-0.145067-14.353067-6.468267-17.851734-7.936-0.520533-6.084267 3.8912-10.9824 7.031467-15.778133 2.8928-4.420267 7.509333-10.8288 10.786133-15.0016 4.164267-5.307733 11.016533-11.869867 15.906134-16.827734 0.349867 0.477867 2.7904 1.220267 4.002133 2.8672 3.1488 4.283733 5.393067 10.487467 9.8816 12.996267z" fill="#62B13C" /><path d="M781.5168 257.937067c0.520533 3.310933 1.928533 3.7376 1.979733 3.968 0.384 1.7408-0.3584 4.1728 0.349867 6.528 2.696533 8.968533 27.579733 29.201067 35.387733 38.058666 15.616 17.706667 31.095467 40.490667 43.5968 60.535467 0.443733 3.959467-2.773333 5.5808-4.9664 7.927467-6.997333 7.5008-30.062933 28.834133-33.7408 35.729066-2.858667 5.367467-6.766933 11.076267-11.8016 15.9744-7.0144 6.8096-20.1728 17.672533-30.208 21.307734-3.3792 1.220267-8.7808 1.9456-12.509866 2.363733 0.0512-0.657067-0.042667-1.322667 0-1.979733 1.9968-33.160533-2.286933-63.069867-11.741867-94.370134-0.8192-2.705067-0.119467-6.050133-4.1216-6.784 0.247467 6.2208-0.392533 12.5696 0.034133 18.798934 1.9968 29.021867 3.396267 53.1456-2.0224 82.3552-0.955733 5.162667-0.1024 4.9408-0.349866 8.6016-0.384 5.768533-6.6048 16.733867-7.586134 23.133866-2.653867 0.7424-9.1136 2.7904-11.904 3.968 1.322667-4.462933-2.321067-6.2464-3.592533-9.301333-2.1248-5.085867-3.182933-11.886933-6.3232-16.477867-10.6496-15.573333-21.6064-32.546133-33.681067-46.651733-11.835733-13.832533-26.717867-25.898667-39.7056-38.638933-0.836267 4.334933 0.6144 5.1712 2.952534 7.953066 23.406933 27.758933 37.5296 56.721067 52.573866 89.2416 0.256 0.554667-0.264533 1.467733 0 1.979734-4.497067 0.878933-6.8352 4.855467-9.941333 6.920533-22.510933 14.958933-32.6144 28.6208-47.317333 51.857067-2.2528 3.5584-5.640533 8.704-2.2528 12.6208-1.9456-1.297067-3.498667-2.2272-5.947734-3.968-21.205333-15.0528-46.557867-31.7952-70.818133-41.250134-5.632-2.193067-12.3136-4.599467-18.432-4.369066l45.533867 28.842666c10.9056 9.949867 23.057067 18.568533 33.800533 28.672 1.3568 1.271467 2.645333 2.6624 3.968 3.968-3.959467-0.443733-5.572267 2.773333-7.927467 4.9664-4.8384 4.497067-7.4496 8.064-13.892266 10.9056-9.7792 4.309333-23.4752 6.912-33.800534 10.8288-3.438933 1.3056-22.459733 8.584533-23.4496 9.378134-0.554667 0.443733-0.017067 2.423467-0.622933 3.1232-0.512 0.597333-10.683733 5.4528-13.448533 7.509333-7.3728 5.469867-29.2608 23.944533-32.836267 30.677333-2.944 5.546667-1.749333 3.268267-4.4032 6.340267-4.334933 5.0176-14.1568 25.736533-19.4048 27.3408-5.0688-0.759467-7.074133-8.004267-9.966933-11.8016-14.830933-19.464533-28.714667-34.193067-48.512-47.684267-5.230933-3.566933-10.555733-7.534933-15.957334-10.820266-2.807467-1.706667-8.465067-1.979733-9.685333-6.272-1.476267-5.1968 8.6272-16.5632 10.837333-22.510934 5.8112-15.624533 8.021333-28.8512 17.809067-43.6736 2.901333-4.394667 12.578133-13.1328 13.909333-15.837866 1.937067-3.950933 0.9472-10.914133 5.205334-15.5904 3.575467-3.012267 7.534933 0.247467 10.359466-0.469334 1.2032-0.3072 1.1264-1.774933 1.237334-1.8432 11.895467-7.074133 24.686933-21.367467 37.768533-28.680533 28.194133-15.744 54.7072-10.88 77.312-39.714133 10.820267-13.806933 14.805333-32.170667 24.072533-47.325867 4.1728-6.818133 8.2688-10.606933 13.661867-16.145067 1.3568-1.390933 1.4336-3.694933 2.304-4.573866 5.009067-5.051733 17.476267-8.405333 23.978667-10.734934 4.027733-1.4336 8.439467-4.445867 12.689066-5.162666 20.061867-3.421867 33.6896-1.809067 52.855467-12.5952 21.998933-12.381867 22.263467-32.5632 36.036267-49.3056 1.3312-1.6128 3.592533-1.476267 4.497066-2.3808s0.768-3.157333 2.3808-4.497067c10.026667-8.3712 22.638933-12.381867 35.7376-10.9312z" fill="#B3EE6C" /><path d="M872.7552 382.890667c0.247467 1.518933 0.0768 3.157333-0.221867 4.667733-4.206933 6.894933-10.752 11.989333-15.684266 18.0992-11.170133 13.858133-21.632 28.782933-33.6384 41.728-8.618667 9.2928-20.795733 20.650667-33.117867 24.3968-6.912 2.0992-16.7168 2.6112-24.439467 4.3264 2.158933-6.920533 1.288533-13.8496 2.013867-20.855467 0.221867-2.1248 1.885867-4.0448 1.9456-4.932266 3.729067-0.418133 9.130667-1.143467 12.509867-2.363734 10.0352-3.6352 23.202133-14.498133 30.208-21.307733 5.034667-4.8896 8.942933-10.606933 11.8016-15.9744 3.677867-6.903467 26.743467-28.228267 33.7408-35.729067 2.193067-2.3552 5.410133-3.968 4.9664-7.927466 2.7904 4.48 9.0112 10.368 9.915733 15.863466z" fill="#A2E453" /><path d="M783.505067 261.896533c-0.0512-0.2304-1.4592-0.657067-1.979734-3.968-0.384-2.423467 0.256-5.384533 0-7.936 0.059733 0.162133 1.681067 0.0768 2.039467 2.850134s-0.298667 6.101333-0.059733 9.053866z" fill="#76BA45" /><path d="M146.816 367.0272c6.715733 11.784533 11.4688 24.567467 18.158933 36.386133 4.155733 7.3472 11.9296 20.2752 17.450667 26.1888 3.7376 4.002133 15.163733 12.603733 20.488533 15.2064 8.704 4.2496 17.28 2.2272 25.216 7.509334 1.578667 9.966933 3.2256 13.192533-5.7344 20.829866l1.774934 2.978134c-11.4432-3.575467-25.924267-6.715733-36.283734-12.305067-20.394667-10.999467-37.614933-45.960533-49.271466-65.7664-1.5104-2.56-3.9936-3.985067-5.5296-6.4512-0.093867-0.4608 1.425067-5.819733 1.834666-6.7072 1.194667-2.619733 4.7616-9.9328 5.947734-11.904s5.4272-5.1456 5.947733-5.947733z" fill="#A1E252" /><path d="M236.074667 250.001067c40.704-5.1712 37.905067 38.664533 55.5008 60.526933 14.8992 18.517333 36.104533 18.4064 55.6032 27.6992 6.0416 2.884267 16.802133 8.021333 16.145066 14.6432 16.256 10.129067 14.574933 29.824 17.92 46.498133 2.0224 10.077867 12.16 28.842667 20.411734 35.1232 2.645333 2.013867 7.893333 3.575467 8.618666 4.4032 4.241067 4.9152 3.003733 2.491733 8.9856 5.768534 10.9056 5.9648 21.051733 13.5936 27.52 24.1152 1.194667 1.9456 1.006933 4.369067 1.527467 5.3504l-2.193067 9.7024c-3.473067 1.8176-8.635733 1.5616-11.7248 3.157333-0.8704 0.452267-13.508267 11.400533-14.8992 12.868267-7.927467 8.302933-19.933867 30.1568-24.302933 41.147733-5.469867 13.738667-7.509333 27.776-10.3936 42.171733-2.193067 0.290133-4.343467 0.145067-6.528-0.324266-14.4128-3.089067-28.962133-11.9552-38.007467-23.483734-7.278933-9.2672-11.9552-21.649067-17.885866-31.6928-1.800533-3.054933-2.048-6.5024-6.954667-5.9392 1.792-1.058133 4.215467-3.012267 5.947733-3.968 20.795733-11.485867 41.1648-21.0944 64-28.2368 2.013867-0.631467 5.9136-0.8448 5.418667-3.498666-4.241067 0.221867-8.610133-0.401067-12.8512 0.034133-19.438933 1.9968-48.648533 13.550933-66.4832 21.777067-2.653867 1.220267-5.435733 2.747733-7.936 3.968 1.425067-3.413333 4.616533-3.328 3.0976-7.978667-0.708267-2.176-7.099733-10.6752-9.0112-12.885333-5.213867-6.024533-17.8176-17.5616-24.3968-21.2224-3.438933-1.911467-9.403733-3.874133-13.320533-5.521067 0.247467-0.554667-0.247467-1.442133 0-1.979733 15.607467-33.962667 42.9824-66.0992 70.3744-91.281067 3.857067-3.549867 10.6496-6.050133 12.928-11.861333-5.393067-0.657067-8.516267 4.7616-11.946667 6.894933-36.411733 22.656-56.098133 37.879467-82.9184 71.825067-1.1264 1.425067 0.580267 3.84-4.3008 2.602666 0.349867-7.543467-3.447467-15.4624-4.053333-22.724266-2.312533-27.741867 1.1776-56.2432 8.4992-82.909867 2.1504-7.825067 5.845333-15.317333 7.4496-23.287467-4.104533 3.310933-8.541867 11.2384-10.8288 15.9488-20.0448 41.301333-23.108267 78.634667-16.938667 122.897067 0.093867 0.648533-0.1024 1.339733 0 1.979733-7.944533-5.282133-16.512-3.259733-25.216-7.509333-5.3248-2.602667-16.750933-11.204267-20.488533-15.2064-5.521067-5.9136-13.294933-18.8416-17.450667-26.1888-6.690133-11.8272-11.434667-24.6016-18.158933-36.386133 3.7632-5.768533 6.920533-12.142933 10.990933-17.7664 2.449067-3.3792 15.5392-17.109333 14.788267-19.9168 2.670933-0.1536 3.003733-3.054933 3.968-3.968 12.270933-11.639467 41.5232-38.997333 50.525866-51.618134 3.413333-4.778667 7.1936-17.621333 8.977067-23.748266z" fill="#B3EE6C" /><path d="M519.7056 434.4576c-3.8656 1.536-6.801067 1.553067-10.018133 2.875733-14.1824 5.8112-26.948267 14.8992-37.538134 25.941334l-2.926933 0.904533c-3.8912-3.549867-6.528-8.046933-9.941333-12.023467-3.652267-4.2496-12.142933-13.218133-16.9728-16.657066-7.150933-5.077333-26.794667-11.093333-31.317334-15.402667-0.529067-0.503467-0.128-2.2784-0.853333-3.012267s-2.517333-0.0256-3.575467-1.6896c-1.194667-1.8688-7.1424-14.276267-7.517866-15.982933-2.824533-12.868267-0.3328-29.4912-4.6336-44.9536-1.339733-4.804267-5.1712-11.477333-7.338667-16.238933l0.631467-0.9728c3.9424-1.6896 5.700267-7.739733 7.458133-9.506134 3.643733-3.652267 19.473067-10.973867 24.763733-11.9296 18.090667-3.268267 24.925867-3.003733 38.340267-17.2032 6.391467-6.766933 10.069333-13.431467 19.754667-17.928533 10.683733-4.957867 25.0624-8.0128 36.642133-8.968533 11.306667-0.930133 13.858133 3.4304 22.869333 7.057066 9.207467 3.703467 21.572267 7.594667 29.824 11.8272 4.821333 2.474667 11.3408 10.4448 15.914667 13.832534 10.171733 7.543467 21.6064 12.996267 33.6384 16.955733 0.503467 5.085867 0.1024 3.1744-2.8672 4.010667-5.828267 1.6384-22.186667 14.788267-25.856 19.822933-1.664 2.286933-2.491733 6.673067-3.498667 7.543467-0.699733 0.605867-2.679467 0.068267-3.1232 0.622933-4.343467 5.376-10.5216 35.114667-13.1584 43.460267-3.1232 9.864533-17.0496 24.576-26.171733 29.3632-4.334933 2.269867-8.567467 2.679467-12.603733 4.258133-2.133333-11.195733 6.903467-18.525867 11.588266-27.0848 9.557333-17.450667 18.048-38.1952 18.158934-58.197333l-5.0432 7.842133c-5.376 16.776533-14.549333 35.524267-26.6496 48.725333-1.8176 1.979733-2.961067 3.549867-5.981867 2.935467-8.669867-23.5776-24.302933-45.474133-43.639467-61.4912 0.085333 7.185067 7.867733 12.689067 10.871467 17.877333 11.4432 19.7376 21.4528 47.547733 22.843733 70.434134 0.349867 5.768533 4.804267 2.065067 7.927467 2.926933z" fill="#B6F16D" /><path d="M448.298667 474.129067c0.1536 0.290133 2.978133 0.657067 3.694933 3.2 1.1008 3.9168 0.298667 8.712533 2.397867 12.5696l3.831466 0.1024c-0.110933 0.068267-0.034133 1.536-1.237333 1.8432-2.824533 0.7168-6.784-2.551467-10.359467 0.469333-4.258133 4.6848-3.268267 11.648-5.205333 15.5904-1.3312 2.705067-11.008 11.4432-13.909333 15.837867-9.796267 14.8224-12.0064 28.049067-17.809067 43.6736-2.210133 5.947733-12.3136 17.322667-10.837333 22.510933 1.220267 4.292267 6.877867 4.565333 9.685333 6.272 5.410133 3.2768 10.7264 7.253333 15.957333 10.820267l7.927467 12.893866c-2.816 5.316267-6.971733-0.256-8.942933 2.926934l-0.964267 11.946666c-5.845333-5.2992-13.184-9.7792-19.831467-13.883733l1.7664-1.169067c1.672533-7.893333-0.7168-16.827733-8.763733-10.794666l-0.938667 7.995733c-16.708267-8.968533-32.4096-12.347733-48.187733-20.241067-11.264-5.632-23.620267-18.551467-30.139733-29.3632-6.519467-10.820267-11.451733-24.192-18.858667-35.6864 2.824533-2.952533 7.082667-3.310933 9.890133-4.974933 2.670933-1.578667 5.358933-3.4048 7.9616-4.9408 4.906667-0.554667 5.1456 2.884267 6.954667 5.9392 5.930667 10.052267 10.615467 22.434133 17.885867 31.6928 9.053867 11.52 23.594667 20.394667 38.007466 23.483733 2.176 0.469333 4.3264 0.6144 6.528 0.324267 2.875733-14.395733 4.9152-28.424533 10.3936-42.171733 4.3776-10.990933 16.375467-32.8448 24.302934-41.147734 1.399467-1.467733 14.0288-12.416 14.8992-12.868266 3.089067-1.595733 8.251733-1.339733 11.7248-3.157334l2.193066-9.7024z" fill="#A1E456" /><path d="M392.763733 186.530133c-0.827733 0.3584-8.533333 13.2352-9.514666 15.2832-9.130667 19.106133-12.834133 42.8544-12.484267 63.880534-15.6416 7.108267-26.496 21.1456-39.492267 31.914666-10.871467-14.506667-18.082133-32.597333-29.713066-46.651733-3.652267-4.411733-9.7536-8.4224-12.936534-12.936533-1.1264-1.595733-0.836267-3.754667-0.989866-3.882667 18.039467-11.648 37.802667-22.101333 57.489066-30.779733 15.735467-6.929067 31.325867-11.8016 47.633067-16.827734z" fill="#B6ED6C" /><path d="M468.130133 218.2656c3.9936 2.440533 1.109333 8.6016 2.261334 12.612267 2.653867 9.258667 21.000533 20.9408 28.8512 26.7264 1.570133 1.160533 3.7632-0.580267 2.602666 4.3008-15.121067 0.597333-30.574933 4.411733-42.683733 13.8496-12.4928 9.736533-14.378667 22.5536-32.042667 27.460266-5.597867 1.553067-16 1.271467-20.48 3.319467-9.915733 4.539733-20.514133 15.957333-26.7776 24.7808-5.034667-4.283733-8.0896-11.3408-15.675733-9.838933l-1.467733-3.6352c-4.2752-1.9712-10.402133-1.493333-14.327467-2.653867-1.0752-0.315733-1.083733-1.604267-1.262933-1.7152 5.256533 0.546133 6.058667 0.580267 9.591466-3.293867 15.214933-16.657067 29.4656-32.2048 47.8464-45.3888 16.6144-11.912533 35.669333-23.150933 53.725867-33.544533 6.647467-3.831467 8.96-0.8704 9.8304-10.990933 0.059733-0.657067-0.034133-1.322667 0-1.979734z" fill="#B1ED6A" /><path d="M735.8976 234.129067c-1.015467 0.426667-14.498133 11.767467-16.896 13.8496-18.781867 16.273067-29.021867 33.723733-44.586667 51.6096 1.0752-6.724267-3.456-8.285867-8.029866-11.050667 0.2816-7.9104-0.017067-15.829333 0-23.739733s1.109333-15.4112 0.0512-23.68c-2.2272-17.493333-9.659733-35.447467-17.809067-50.619734 5.614933 0.384 12.1088 3.2768 17.2544 5.5552 24.32 10.752 46.890667 25.130667 70.016 38.084267z" fill="#B9EF70" /><path d="M392.763733 186.530133c0.529067-0.2304 1.9456 0.008533 2.9696 0 7.133867-0.059733 0.3072 4.667733-0.6144 7.304534-3.387733 9.719467-7.330133 29.184-8.260266 39.3472-0.622933 6.7584 0.349867 13.969067-0.042667 20.7872 3.4816 0.955733 4.693333-0.810667 6.971733-1.9456 20.48-10.1888 40.277333-21.563733 61.841067-29.397334 3.370667-1.220267 8.7808-1.9456 12.509867-2.372266-0.8704 10.129067-3.182933 7.168-9.8304 10.990933-18.048 10.3936-37.111467 21.632-53.725867 33.544533-18.372267 13.184-32.631467 28.7232-47.8464 45.3888-3.5328 3.874133-4.334933 3.84-9.591467 3.293867-6.2464-3.592533-10.120533-6.357333-14.8992-11.963733-1.160533-1.3568-0.682667-3.515733-0.9728-3.908267 12.996267-10.769067 23.850667-24.8064 39.492267-31.914667-0.349867-21.0176 3.3536-44.765867 12.484267-63.880533 0.981333-2.048 8.686933-14.916267 9.514666-15.2832z" fill="#DEF9B5" /><path d="M648.6272 190.498133c8.149333 15.163733 15.581867 33.1264 17.809067 50.619734 1.058133 8.2688-0.0256 15.991467-0.0512 23.68s0.273067 15.829333 0 23.739733c4.573867 2.7648 9.105067 4.3264 8.029866 11.050667-3.592533 4.130133-6.843733 6.9632-11.904 9.915733-5.2224 0.964267-7.978667-2.628267-10.9568-5.905067-6.869333-7.5776-13.858133-17.467733-20.744533-24.874666-19.959467-21.469867-43.767467-38.7072-67.473067-55.5008 1.408-2.730667 5.376-0.187733 7.3216 0.6144 24.362667 10.0608 48.622933 27.784533 70.1184 42.939733 1.911467 1.348267 10.589867 8.405333 11.810134 7.022933-1.442133-6.058667 1.706667-11.409067 2.0736-16.768 1.314133-19.3536-2.824533-40.994133-7.9872-59.613866-0.725333-2.628267-4.352-7.389867-0.034134-8.900267 1.493333 0.017067 1.4848 1.066667 1.979734 1.979733z" fill="#EEFCCD" /><path d="M519.7056 434.4576c-3.131733-0.861867-7.5776 2.8416-7.927467-2.926933-1.390933-22.8864-11.400533-50.696533-22.843733-70.434134-3.012267-5.188267-10.794667-10.692267-10.871467-17.877333 19.336533 16.017067 34.9696 37.9136 43.639467 61.4912 3.0208 0.6144 4.1728-0.955733 5.981867-2.935467 12.100267-13.201067 21.265067-31.9488 26.6496-48.725333l5.0432-7.842133c-0.110933 20.002133-8.593067 40.746667-18.158934 58.197333-4.693333 8.558933-13.7216 15.889067-11.588266 27.0848-3.293867 1.288533-6.6304 2.6624-9.915734 3.968z" fill="#EEFDCB" /><path d="M176.5632 325.367467c-0.964267 0.913067-1.288533 3.8144-3.968 3.968-0.238933-0.887467-4.599467-2.0224 0.9984-5.947734l2.9696 1.979734z" fill="#5BA534" /><path d="M442.350933 172.6464l-1.169066 1.7664-8.746667 0.213333c4.48-1.493333 5.102933-1.28 9.915733-1.979733z" fill="#70B23C" /><path d="M610.944 571.3152c-1.4592 2.9952-4.334933 6.084267-7.304533 7.569067-7.466667 3.746133-16.904533 4.718933-24.533334 7.202133-4.1216 1.348267-6.6304 6.0672-9.088 6.775467-2.722133 0.785067-5.6064-0.3328-8.712533 1.2032-0.981333 0.4864-9.5488 9.463467-9.7024 10.2144l1.826133 8.686933c4.539733-2.696533 9.4208-11.025067 13.883734-1.979733-11.050667 5.077333-20.846933 13.952-29.755734 21.819733l-3.968-9.915733-11.8272 4.0448c-1.809067 6.9888 2.730667 8.823467 5.879467 13.7984-16.6144 15.470933-29.431467 42.632533-44.637867 59.5456-2.039467 2.261333-4.7616 1.749333-4.9408 1.937066-4.48-2.5088-6.7328-8.712533-9.8816-12.996266-1.211733-1.646933-3.652267-2.389333-4.002133-2.8672-3.5072-4.7616-8.354133-15.3344-11.904-19.831467l4.0704-5.0176-2.176-7.901867c-0.034133-4.864 6.912-3.089067 0.136533-11.921066-1.809067-2.3552-4.983467-4.625067-7.150933-6.8352-3.2256 2.0992-7.594667 3.054933-10.794667 4.864-4.292267 2.432 0.861867 4.113067 2.705067 5.316266 4.411733 2.8672 3.805867 3.498667-0.682667 5.640534-3.831467-4.206933-11.665067-12.066133-15.863466-15.863467l0.964266-11.946667c1.9712-3.182933 6.135467 2.389333 8.942934-2.926933l-7.927467-12.893867c19.797333 13.4912 33.672533 28.219733 48.512 47.684267 2.8928 3.797333 4.898133 11.0336 9.966933 11.8016 5.248-1.595733 15.069867-22.3232 19.4048-27.3408 2.653867-3.072 1.4592-0.785067 4.4032-6.340267 3.575467-6.7328 25.463467-25.207467 32.836267-30.677333 2.7648-2.056533 12.928-6.912 13.448533-7.509333 0.605867-0.699733 0.068267-2.679467 0.622934-3.1232 0.989867-0.7936 20.010667-8.072533 23.4496-9.378134 10.325333-3.9168 24.021333-6.510933 33.800533-10.8288z m-146.781867 77.3632h-3.959466v2.9696l2.9696 2.978133h0.981333v-5.947733z" fill="#A2E558" /><path d="M706.1504 474.129067c-1.288533 3.703467 1.3056 4.7104 1.979733 5.947733 1.962667 3.566933 4.445867 7.022933 4.0192 11.8528l5.896534 0.0512c-28.714667 15.889067-43.460267 37.1456-61.482667 63.470933-0.017067-6.016-7.355733-8.866133-11.904-11.904-3.387733-3.925333 0-9.070933 2.2528-12.6208 14.702933-23.236267 24.8064-36.898133 47.317333-51.857066 3.106133-2.065067 5.435733-6.0416 9.941334-6.920534 0.810667 1.604267 1.792 1.706667 1.979733 1.979734z" fill="#A2E551" /><path d="M632.763733 555.451733c4.565333 4.5312 8.968533 13.175467 15.863467 13.883734-18.449067 24.917333-37.034667 24.994133-63.488 34.688-5.137067 1.885867-13.482667 4.957867-17.834667 6.9632-4.462933-9.045333-9.335467-0.7168-13.883733 1.979733l-1.826133-8.686933c0.1536-0.7424 8.721067-9.728 9.7024-10.2144 3.114667-1.536 5.9904-0.4096 8.712533-1.2032 2.4576-0.708267 4.9664-5.435733 9.088-6.775467 7.6288-2.491733 17.058133-3.464533 24.533333-7.202133 2.9696-1.4848 5.845333-4.573867 7.304534-7.569067 6.442667-2.8416 9.045333-6.4 13.892266-10.9056 2.3552-2.184533 3.968-5.410133 7.927467-4.9664z" fill="#A2E455" /><path d="M731.9296 484.0448c-3.1744 1.339733-10.069333 5.828267-13.883733 7.936l-5.896534-0.0512c0.418133-4.829867-2.056533-8.285867-4.0192-11.8528 1.1008-3.797333-0.896-4.3776-1.979733-5.947733-0.187733-0.273067-1.169067-0.384-1.979733-1.979734-0.264533-0.520533 0.256-1.4336 0-1.979733 6.510933-0.605867 11.101867-6.562133 17.800533-6.007467l0.0512-5.896533c3.140267 4.590933 4.1984 11.392 6.3232 16.477867 1.271467 3.054933 4.9152 4.8384 3.592533 9.301333z" fill="#CAEA92" /><path d="M751.7696 448.341333v3.968c1.322667 1.365333 15.112533-2.5344 17.851733-3.968-0.042667 0.657067 0.0512 1.322667 0 1.979734-0.068267 0.887467-1.723733 2.807467-1.9456 4.932266-0.733867 7.005867 0.145067 13.934933-2.013866 20.855467-6.596267 1.4592-15.8208 2.286933-21.819734 3.968 0.981333-6.4 7.202133-17.365333 7.586134-23.133867 0.247467-3.669333-0.6144-3.438933 0.349866-8.6016z" fill="#CAE895" /><path d="M638.711467 539.579733c2.4576 1.7408 4.002133 2.670933 5.947733 3.968 4.548267 3.037867 11.8784 5.879467 11.904 11.904-2.107733 3.072-5.802667 11.008-7.936 13.883734-6.894933-0.708267-11.298133-9.352533-15.863467-13.883734-1.322667-1.3056-2.6112-2.696533-3.968-3.968l3.729067-0.196266c0.401067-4.096 3.8656-5.8368 5.9392-8.994134l0.247467-2.7136z" fill="#CAE698" /><path d="M527.633067 640.7424c-3.1488-4.983467-7.688533-6.818133-5.879467-13.7984l11.8272-4.0448 3.968 9.915733c-3.3024 2.9184-7.125333 5.341867-9.915733 7.936z" fill="#A2E455" /><path d="M259.874133 464.213333c3.9168 1.646933 9.8816 3.6096 13.320534 5.521067 6.587733 3.6608 19.182933 15.197867 24.3968 21.2224 1.911467 2.210133 8.302933 10.709333 9.0112 12.885333 1.5104 4.650667-1.672533 4.565333-3.0976 7.978667-4.360533 2.133333-11.921067 3.515733-13.883734 7.936-8.917333-11.477333-25.002667-26.769067-37.6832-33.7152 0.546133-7.364267 4.881067-14.967467 7.936-21.819733z" fill="#A5E455" /><path d="M259.874133 462.225067c-0.247467 0.546133 0.247467 1.4336 0 1.979733-3.0464 6.852267-7.389867 14.455467-7.936 21.819733-8.533333-4.676267-18.730667-7.0912-27.767466-9.915733l-1.774934-2.978133c8.96-7.637333 7.3216-10.862933 5.7344-20.829867-0.1024-0.64 0.093867-1.3312 0-1.979733l31.735467 11.904z" fill="#CBE69D" /><path d="M438.382933 650.658133c4.488533-2.141867 5.0944-2.773333 0.682667-5.640533-1.8432-1.194667-6.997333-2.884267-2.705067-5.316267 3.2-1.809067 7.569067-2.7648 10.794667-4.864 2.167467 2.210133 5.341867 4.48 7.150933 6.8352 6.775467 8.832-0.1792 7.0656-0.136533 11.921067l2.176 7.901867-4.0704 5.0176c-3.285333-4.164267-9.975467-11.579733-13.883733-15.863467z" fill="#A1E456" /><path d="M311.441067 507.844267l0.3072 3.720533 3.3536 0.494933 0.341333 5.666134 5.9136 0.034133c-1.732267 0.955733-4.155733 2.909867-5.947733 3.968-2.602667 1.536-5.290667 3.362133-7.9616 4.9408-2.807467 1.664-7.0656 2.030933-9.890134 4.974933-2.525867-3.925333-5.077333-8.234667-7.936-11.904 1.962667-4.411733 9.5232-5.802667 13.883734-7.936 2.500267-1.220267 5.282133-2.747733 7.936-3.968z" fill="#CCE89D" /><path d="M402.679467 620.9024c-3.0208-1.860267-5.614933-2.722133-7.936-3.968l0.938666-7.995733c8.046933-6.033067 10.436267 2.901333 8.763734 10.794666l-1.7664 1.169067z" fill="#B3EE6C" /><path d="M704.162133 470.161067c-15.044267-32.520533-29.175467-61.474133-52.573866-89.2416-2.338133-2.773333-3.7888-3.6096-2.952534-7.953067 12.9792 12.740267 27.869867 24.8064 39.7056 38.638933 12.066133 14.1056 23.031467 31.0784 33.681067 46.651734l-0.0512 5.896533c-6.698667-0.554667-11.2896 5.4016-17.800533 6.007467z" fill="#F1FDCD" /><path d="M769.621333 448.341333c-2.7392 1.4336-16.529067 5.333333-17.851733 3.968v-3.968c5.418667-29.2096 4.027733-53.3248 2.0224-82.3552-0.426667-6.229333 0.2048-12.578133-0.034133-18.798933 4.002133 0.7424 3.3024 4.078933 4.1216 6.784 9.454933 31.300267 13.738667 61.2096 11.741866 94.370133z" fill="#EFFDC7" /><path d="M638.711467 539.579733l-0.247467 2.7136c-2.082133 3.157333-5.538133 4.898133-5.9392 8.994134l-3.729067 0.196266c-10.743467-10.103467-22.903467-18.722133-33.800533-28.672l-45.533867-28.842666c6.1184-0.2304 12.808533 2.167467 18.432 4.369066 24.260267 9.454933 49.6128 26.1888 70.818134 41.250134z" fill="#EEFDC9" /><path d="M228.138667 450.3296c-6.1696-44.2624-3.114667-81.595733 16.938666-122.897067 2.286933-4.701867 6.724267-12.637867 10.8288-15.9488-1.604267 7.978667-5.2992 15.4624-7.4496 23.287467-7.330133 26.666667-10.811733 55.168-8.4992 82.909867 0.605867 7.261867 4.4032 15.189333 4.053334 22.724266 4.881067 1.2288 3.182933-1.186133 4.3008-2.602666 26.820267-33.954133 46.506667-49.169067 82.9184-71.825067 3.4304-2.133333 6.5536-7.552 11.946666-6.894933-2.286933 5.8112-9.070933 8.311467-12.928 11.861333-27.392 25.173333-54.766933 57.309867-70.3744 91.281067l-31.735466-11.904z" fill="#F1FDCE" /><path d="M311.441067 507.844267c17.8432-8.226133 47.044267-19.780267 66.4832-21.777067 4.241067-0.4352 8.610133 0.1792 12.8512-0.034133 0.494933 2.653867-3.4048 2.8672-5.418667 3.498666-22.8352 7.1424-43.204267 16.750933-64 28.2368l-5.9136-0.034133-0.341333-5.666133-3.3536-0.494934-0.3072-3.720533z" fill="#ECFCC8" /><path d="M464.162133 648.6784v5.947733l-0.981333-0.008533-2.978133-2.978133v-2.961067h3.959466z" fill="#A1E456" /><path d="M708.130133 480.0768c-0.682667-1.237333-3.2768-2.244267-1.979733-5.947733 1.083733 1.578667 3.089067 2.1504 1.979733 5.947733z" fill="#B3EE6C" /></svg>