<?xml version="1.0" standalone="no"?><!DOCTYPE svg PUBLIC "-//W3C//DTD SVG 1.1//EN" "http://www.w3.org/Graphics/SVG/1.1/DTD/svg11.dtd"><svg t="1778769453438" class="icon" viewBox="0 0 1024 1024" version="1.1" xmlns="http://www.w3.org/2000/svg" p-id="3066" xmlns:xlink="http://www.w3.org/1999/xlink" width="256" height="256"><path d="M245 801c-15.51-10.89-20.18-59-3-67 47.3-22.01 64.09-54.79 87.88-105.77 9.87-21.14 16.24-43.02 19.35-64.98 1.78-12.55 2-25.28 0.75-37.89-1.83-18.44-3.04-39.66-3.04-39.7 0.74-25.32 5.69-50.86 15.23-75.63 50.9-132.14 197.91-186.94 322.88-120.35 107.15 57.08 152 188.74 100.04 300.04-0.05 0.17-61.95 192.39-261.55 247.68-128.41 35.57-220.29 4.5-278.55-36.39z" fill="#F56766" p-id="3067"></path><path d="M422.02 865.51c-59.76 0-118.11-16.03-174.38-48.02-18.95-10.77-30.78-30.22-31.63-52.02-0.85-21.88 9.46-42.26 27.6-54.54 32.39-21.92 58.31-52.35 74.95-87.99 9.5-20.35 15.77-41.85 18.64-63.91 1.35-10.35 1.47-21.22 0.37-32.33-1.84-18.53-3.04-39.46-3.09-40.34l-0.03-0.54 0.02-0.54c1-34.36 9.18-67.57 24.3-98.73 27.59-56.84 75.75-100.07 135.61-121.74 59.86-21.67 124.53-19.28 182.11 6.72 30.16 13.62 56.34 32.24 77.8 55.35 20.83 22.43 36.75 48.55 47.32 77.64 21.04 57.88 19.36 125.14-4.73 189.41-1.38 4.01-17.84 50.46-58.19 104.49-24.26 32.49-52.18 61-83 84.74-38.59 29.73-81.82 52-128.49 66.19-35.44 10.78-70.54 16.16-105.17 16.16z m-162.03-69.75c35.9 20.4 72.91 33.99 110 40.37 48.61 8.37 99.05 4.77 149.92-10.7 43.59-13.25 83.98-34.02 120.06-61.73 28.96-22.24 55.25-48.99 78.13-79.51 39.18-52.25 54.99-98.03 55.15-98.48l0.14-0.38c45.86-122.13 1.78-241.79-107.21-291-51.62-23.31-109.62-25.44-163.32-6-53.7 19.44-96.89 58.21-121.63 109.15-13.49 27.79-20.82 57.4-21.79 88 0.2 3.41 1.35 22.36 2.98 38.75 1.29 13 1.14 25.79-0.45 38.02-3.2 24.61-10.19 48.59-20.78 71.26-18.55 39.74-47.45 73.67-83.59 98.12-10.93 7.4-17.15 19.68-16.63 32.86 0.51 13.1 7.62 24.79 19 31.26z" p-id="3068"></path><path d="M661.96 175.88c-8.85 24.42-28.92 79.3-40.06 97.58 0 0-8.59 32.71-44.95 39.1l-62.33 8.54c-11.76 1.61-13.24 18.02-1.95 21.71l72.5 23.65 32.15 88.44 53.55-71.8 43.43 18.64c10.95 4.7 20.68-8.71 12.8-17.66l-37.04-42.09s-18.09-18.46-2.55-44.58l52.6-94.08c4.15-7.43 0.38-16.79-7.76-19.26l-53.96-16.39c-6.78-2.06-13.99 1.54-16.4 8.21z" fill="#CFD768" p-id="3069"></path><path d="M619.79 458.66c-1 0-2-0.07-3.01-0.22a20.558 20.558 0 0 1-16.34-13.32l-23.48-64.6a8.81 8.81 0 0 0-5.58-5.4l-75.48-24.63c-9.17-2.99-14.97-11.79-14.11-21.4 0.86-9.61 8.14-17.23 17.69-18.54l74.92-10.27c23.49-6.63 33.72-20.78 34.74-22.26 10.88-18.07 33.62-84.17 41.1-105.95a25.742 25.742 0 0 1 31.93-16.31l53.78 16.33c7.52 2.28 13.51 7.77 16.45 15.06 2.94 7.29 2.42 15.4-1.41 22.26l-52.6 94.08c-0.05 0.1-0.11 0.19-0.17 0.29-4.34 7.29-5.57 14.35-3.67 20.99 1.4 4.86 4.05 8.04 4.47 8.53 0.18 0.18 0.18 0.19 0.39 0.43l46.16 52.45c6.4 7.27 6.9 17.82 1.21 25.66-5.68 7.84-15.87 10.65-24.77 6.83l-40.62-17.44a8.853 8.853 0 0 0-10.61 2.85l-34.53 46.3a20.527 20.527 0 0 1-16.48 8.27zM522 332.71l57.14 18.64c9.97 3.25 17.74 10.77 21.32 20.63l20.68 56.88 29.62-39.72c9.4-12.61 26.06-17.08 40.51-10.88l22.57 9.69-32.99-37.49c-8.55-8.96-20.07-32.43-4.19-59.29l52.52-93.95c0.06-0.1 0.19-0.35 0.05-0.71a0.75 0.75 0 0 0-0.53-0.48l-53.78-16.33a0.82 0.82 0 0 0-1.02 0.52c-14.56 42.34-32.66 93.22-43.52 111.03-0.04 0.07-0.08 0.14-0.13 0.2-0.61 0.97-15.44 23.76-50.03 33.17-0.52 0.14-1.05 0.25-1.58 0.32L522 332.7z m165.49-35.31z" p-id="3070"></path><path d="M469 549.67a21.85 24.51 0 1 0 43.7 0 21.85 24.51 0 1 0-43.7 0Z" p-id="3071"></path><path d="M580.91 549.67a21.85 24.51 0 1 0 43.7 0 21.85 24.51 0 1 0-43.7 0Z" p-id="3072"></path><path d="M547.33 667.15c-23.97 0-45.86-12.16-58.56-32.53-3.65-5.86-1.87-13.57 3.99-17.22 5.86-3.65 13.57-1.87 17.22 3.99 8.11 13 22.07 20.76 37.35 20.76s29.24-7.76 37.35-20.76c3.65-5.86 11.36-7.64 17.22-3.99 5.86 3.65 7.65 11.36 3.99 17.22-12.7 20.37-34.6 32.53-58.56 32.53z" p-id="3073"></path></svg>