<?xml version="1.0" standalone="no"?><!DOCTYPE svg PUBLIC "-//W3C//DTD SVG 1.1//EN" "http://www.w3.org/Graphics/SVG/1.1/DTD/svg11.dtd"><svg t="1778769398995" class="icon" viewBox="0 0 1024 1024" version="1.1" xmlns="http://www.w3.org/2000/svg" p-id="2003" xmlns:xlink="http://www.w3.org/1999/xlink" width="256" height="256"><path d="M449.68 211.4c-36.96-16.8-77.5-15.7-111.88-0.35-6.54 2.92-9.9 10.31-7.8 17.15 11.03 35.99 36.85 67.26 73.82 84.07 36.96 16.8 77.5 15.7 111.88 0.35 6.54-2.92 9.9-10.31 7.8-17.15-11.03-35.99-36.85-67.26-73.82-84.07z" fill="#879D4B" p-id="2004"></path><path d="M460.14 336.96c-20.99 0-41.97-4.44-61.48-13.31-38.74-17.61-68.11-51.06-80.6-91.78-3.95-12.88 2.35-26.74 14.65-32.23 38.89-17.37 83.41-17.23 122.15 0.38 38.74 17.61 68.11 51.06 80.6 91.78 3.95 12.88-2.35 26.74-14.65 32.23a148.732 148.732 0 0 1-60.66 12.92z m-66.77-125.24c-17.2 0-34.41 3.58-50.47 10.75-0.77 0.34-1.19 1.27-0.94 2.08 10.38 33.88 34.82 61.7 67.04 76.35 32.22 14.65 69.25 14.76 101.6 0.31 0.77-0.34 1.19-1.27 0.94-2.08-10.38-33.87-34.82-61.7-67.04-76.35a123.517 123.517 0 0 0-51.14-11.07z" p-id="2005"></path><path d="M492 330s-26-119 66.91-171.54c0 0 32.36-9.85 50.65 9.85 0 0 18.29 19.7-2.11 44.32 0 0-44.32 41.51-41.51 103.42 0 0-12.04 73.04-73.95 13.95z" fill="#6E4E25" p-id="2006"></path><path d="M492.48 343c-6.14 0-11.49-4.52-12.36-10.77-0.21-1.47-4.95-36.5 2.73-76.82 10.49-55.14 39.23-93.37 83.1-110.55l0.12-0.05c1.17-0.44 28.92-10.58 52.66 14.99 8.91 9.59 20.03 34.65-1.65 60.8l-0.5 0.61-0.58 0.54c-0.38 0.36-40.07 38.6-37.56 93.73 0.31 6.9-5.02 12.74-11.92 13.05-6.89 0.31-12.74-5.02-13.05-11.92-2.88-63.39 38.73-106.55 44.79-112.47 5.53-6.88 7.43-13.38 5.8-19.85-1.13-4.46-3.61-7.46-3.64-7.48-12.15-13.08-24.78-8.88-25.44-8.64-35.74 14.04-58.43 44.75-67.44 91.29-7.04 36.35-2.69 68.99-2.64 69.32 0.94 6.83-3.83 13.14-10.67 14.09-0.58 0.08-1.16 0.12-1.73 0.12z" p-id="2007"></path><path d="M498.96 859.8l-32.23-14.65a37.171 37.171 0 0 0-16.72-3.3l-35.38 1.29c-10.75 0.39-21.15-3.9-28.49-11.76l-24.17-25.87a37.113 37.113 0 0 0-14.19-9.45l-33.18-12.35a37.134 37.134 0 0 1-21.82-21.77l-12.43-33.15a37.102 37.102 0 0 0-9.49-14.16l-25.93-24.1a37.13 37.13 0 0 1-11.83-28.46l1.2-35.38c0.2-5.76-0.95-11.48-3.35-16.71l-14.73-32.19a37.13 37.13 0 0 1-0.04-30.82l14.65-32.23a37.171 37.171 0 0 0 3.3-16.72l-1.29-35.38a37.146 37.146 0 0 1 11.76-28.49l25.87-24.17c4.21-3.93 7.44-8.79 9.45-14.19l12.35-33.18a37.134 37.134 0 0 1 21.77-21.82l33.15-12.43a37.102 37.102 0 0 0 14.16-9.49l24.1-25.93a37.13 37.13 0 0 1 28.46-11.83l35.38 1.2c5.76 0.2 11.48-0.95 16.71-3.35l32.19-14.73a37.13 37.13 0 0 1 30.82-0.04l32.23 14.65a37.171 37.171 0 0 0 16.72 3.3l35.38-1.29c10.75-0.39 21.15 3.9 28.49 11.76L666 318.48c3.93 4.21 8.79 7.44 14.19 9.45l33.18 12.35a37.134 37.134 0 0 1 21.82 21.77l12.43 33.15a37.102 37.102 0 0 0 9.49 14.16l25.93 24.1a37.13 37.13 0 0 1 11.83 28.46l-1.2 35.38c-0.2 5.76 0.95 11.48 3.35 16.71l14.73 32.19a37.13 37.13 0 0 1 0.04 30.82l-14.65 32.23a37.171 37.171 0 0 0-3.3 16.72l1.29 35.38c0.39 10.75-3.9 21.15-11.76 28.49l-25.87 24.17a37.113 37.113 0 0 0-9.45 14.19l-12.35 33.18a37.134 37.134 0 0 1-21.77 21.82l-33.15 12.43a37.102 37.102 0 0 0-14.16 9.49l-24.1 25.93a37.13 37.13 0 0 1-28.46 11.83l-35.38-1.2c-5.76-0.2-11.48 0.95-16.71 3.35l-32.19 14.73a37.13 37.13 0 0 1-30.82 0.04z" fill="#F56766" p-id="2008"></path><path d="M514.33 875.64c-7.01 0-14.01-1.48-20.54-4.45l-32.23-14.65c-3.46-1.57-7.3-2.33-11.09-2.19l-35.38 1.29c-14.38 0.52-28.26-5.2-38.08-15.72l-24.17-25.87a24.643 24.643 0 0 0-9.41-6.27l-33.18-12.35a49.633 49.633 0 0 1-29.17-29.09l-12.43-33.15a24.77 24.77 0 0 0-6.29-9.4l-25.93-24.1a49.603 49.603 0 0 1-15.81-38.04l1.2-35.38c0.13-3.8-0.64-7.63-2.22-11.09l-14.73-32.19a49.589 49.589 0 0 1-0.05-41.2l14.65-32.23c1.57-3.46 2.33-7.3 2.19-11.09l-1.29-35.38a49.603 49.603 0 0 1 15.72-38.08l25.87-24.17c2.78-2.59 4.95-5.85 6.27-9.41l12.35-33.18a49.633 49.633 0 0 1 29.09-29.17l33.15-12.43a24.77 24.77 0 0 0 9.4-6.29l24.1-25.93a49.553 49.553 0 0 1 38.04-15.81l35.38 1.2c3.8 0.13 7.63-0.64 11.09-2.22l32.19-14.73a49.589 49.589 0 0 1 41.2-0.05l32.23 14.65c3.46 1.57 7.31 2.33 11.09 2.19l35.38-1.29c14.37-0.52 28.26 5.2 38.08 15.72l24.17 25.87c2.59 2.78 5.85 4.95 9.41 6.27l33.18 12.35a49.633 49.633 0 0 1 29.17 29.09l12.43 33.15a24.77 24.77 0 0 0 6.29 9.4l25.93 24.1a49.603 49.603 0 0 1 15.81 38.04l-1.2 35.38c-0.13 3.8 0.64 7.63 2.22 11.09l14.73 32.19c5.99 13.08 6.01 28.1 0.05 41.2l-14.65 32.23c-1.57 3.46-2.33 7.3-2.19 11.09l1.29 35.38c0.52 14.38-5.2 28.26-15.72 38.08l-25.87 24.17a24.643 24.643 0 0 0-6.27 9.41l-12.35 33.18a49.633 49.633 0 0 1-29.09 29.17l-33.15 12.43a24.77 24.77 0 0 0-9.4 6.29l-24.1 25.93a49.568 49.568 0 0 1-38.04 15.81l-35.38-1.2c-3.79-0.13-7.63 0.64-11.09 2.22l-32.19 14.73c-6.56 3-13.61 4.5-20.66 4.5z m-62.99-46.32c7.06 0 14.14 1.53 20.57 4.45l32.23 14.65c6.5 2.96 13.95 2.95 20.45-0.03l32.19-14.73a49.674 49.674 0 0 1 22.34-4.47l35.38 1.2c7.15 0.23 14.02-2.62 18.88-7.85l24.1-25.93a49.864 49.864 0 0 1 18.93-12.68l33.15-12.43A24.609 24.609 0 0 0 724 757.02l12.35-33.18a49.928 49.928 0 0 1 12.63-18.96l25.87-24.17a24.62 24.62 0 0 0 7.8-18.9l-1.29-35.38a49.863 49.863 0 0 1 4.42-22.35l14.65-32.23c2.96-6.5 2.95-13.95-0.03-20.45l-14.73-32.19a49.836 49.836 0 0 1-4.47-22.34l1.2-35.38c0.24-7.14-2.62-14.02-7.85-18.88l-25.93-24.1a49.864 49.864 0 0 1-12.68-18.93l-12.43-33.15a24.609 24.609 0 0 0-14.48-14.44l-33.18-12.35a49.928 49.928 0 0 1-18.96-12.63l-24.17-25.87a24.648 24.648 0 0 0-18.9-7.8l-35.38 1.29c-7.65 0.28-15.38-1.25-22.35-4.42l-32.23-14.65a24.582 24.582 0 0 0-20.45 0.03l-32.19 14.73a49.674 49.674 0 0 1-22.34 4.47l-35.38-1.2a24.627 24.627 0 0 0-18.88 7.85l-24.1 25.93a49.864 49.864 0 0 1-18.93 12.68l-33.15 12.43A24.609 24.609 0 0 0 304 366.96l-12.35 33.18a49.928 49.928 0 0 1-12.63 18.96l-25.87 24.17a24.62 24.62 0 0 0-7.8 18.9l1.29 35.38c0.28 7.65-1.25 15.38-4.42 22.35l-14.65 32.23c-2.96 6.5-2.95 13.95 0.03 20.45l14.73 32.19a49.836 49.836 0 0 1 4.47 22.34l-1.2 35.38a24.627 24.627 0 0 0 7.85 18.88l25.93 24.1a49.864 49.864 0 0 1 12.68 18.93l12.43 33.15a24.609 24.609 0 0 0 14.48 14.44l33.18 12.35a49.928 49.928 0 0 1 18.96 12.63l24.17 25.87a24.613 24.613 0 0 0 18.9 7.8l35.38-1.29c0.59-0.02 1.19-0.03 1.78-0.03z" p-id="2009"></path><path d="M438 526.67a21.85 24.51 0 1 0 43.7 0 21.85 24.51 0 1 0-43.7 0Z" p-id="2010"></path><path d="M549.91 526.67a21.85 24.51 0 1 0 43.7 0 21.85 24.51 0 1 0-43.7 0Z" p-id="2011"></path><path d="M516.33 644.15c-23.97 0-45.86-12.16-58.56-32.53-3.65-5.86-1.87-13.57 3.99-17.22 5.86-3.65 13.57-1.87 17.22 3.99 8.11 13 22.07 20.76 37.35 20.76s29.24-7.76 37.35-20.76c3.65-5.86 11.36-7.65 17.22-3.99 5.86 3.65 7.65 11.36 3.99 17.22-12.7 20.37-34.59 32.53-58.56 32.53z" p-id="2012"></path></svg>