<?xml version="1.0" standalone="no"?><!DOCTYPE svg PUBLIC "-//W3C//DTD SVG 1.1//EN" "http://www.w3.org/Graphics/SVG/1.1/DTD/svg11.dtd"><svg class="icon" width="256px" height="256.00px" viewBox="0 0 1024 1024" version="1.1" xmlns="http://www.w3.org/2000/svg"><path d="M408.465067 165.614933c8.516267-0.1536 17.1264-0.008533 25.6512 0 9.668267 0.008533 19.4048-0.119467 29.073066 0l1.006934 1.527467c3.072 0.452267 6.186667 0.145067 9.258666 0.187733 5.060267 0.068267 10.3936-0.3584 15.394134 0l1.066666 1.518934 4.061867 0.187733c67.7376 8.362667 124.791467 22.570667 185.2928 54.9888 84.906667 45.4912 167.7568 129.1776 211.473067 215.2192 82.986667 163.336533 53.8624 327.534933-82.978134 448.034133-70.331733 61.934933-152.686933 94.916267-243.669333 114.6112l-104.9088-56.695466c-50.9184-31.735467-99.626667-67.9424-153.847467-94.1312-46.4896-22.459733-97.501867-37.8112-144.8704-58.641067-26.965333-11.861333-53.1456-25.557333-78.634666-40.2176-43.383467-90.717867-58.052267-203.434667-29.9776-301.038933 41.745067-145.117867 136.814933-252.014933 289.032533-278.741334 8.533333-1.501867 17.1264-3.703467 25.719467-5.060266l11.0848-0.034134c3.2256 1.544533 6.468267-1.6896 6.843733-1.706666 7.773867-0.477867 16.068267 0.145067 23.944533 0z" fill="#E65D63" /><path d="M564.087467 1001.890133c-87.645867 18.978133-179.421867 25.540267-269.277867 20.445867-14.139733-0.802133-23.005867 0.6656-37.341867-3.703467-17.083733-5.1968-30.421333-14.941867-41.326933-28.791466-49.698133-63.112533-98.961067-148.155733-130.0736-222.225067-1.860267-4.420267-2.833067-12.458667-4.2496-15.419733 25.489067 14.660267 51.669333 28.356267 78.634667 40.2176 47.368533 20.829867 98.3808 36.181333 144.8704 58.641066 54.2208 26.1888 102.929067 62.395733 153.847466 94.1312l104.9088 56.695467z" fill="#F7CAC6" /><path d="M145.220267 451.882667c11.178667-3.328 44.8 14.600533 55.9616 20.565333 31.274667 16.725333 65.536 36.215467 95.7696 54.724267 11.332267 6.9376 40.900267 24.8064 47.0528 35.037866 9.6256 16.008533-15.6416 12.7488-24.260267 10.581334-27.477333-6.912-65.672533-26.5728-90.6752-41.0112-21.674667-12.5184-72.046933-43.9552-85.725867-63.061334-2.065067-2.875733-5.4528-8.7552-3.524266-11.972266 1.7664-1.245867 3.464533-4.3008 5.393066-4.872534z" fill="#F5DAD8" /><path d="M171.810133 589.952c7.611733-2.2272 22.186667 5.870933 29.201067 9.710933 15.5392 8.507733 233.233067 137.5744 247.424 148.155734 6.5536 4.8896 18.2272 13.6448 18.961067 22.084266 0.938667 10.845867-6.4768 13.9008-16.2816 12.8512-20.625067-2.193067-273.501867-154.146133-282.4448-172.987733-3.746133-7.893333-4.8384-14.370133 3.140266-19.822933z" fill="#F5D7D6" /><path d="M787.1488 785.006933c-0.554667-3.396267-0.256-11.008 0.136533-14.762666 1.979733-18.909867 30.890667-87.031467 39.9872-103.714134 10.197333-18.7136 22.528-17.024 28.740267 5.538134 3.259733 11.8272-6.0928 34.9184-10.6496 45.038933-7.936 17.6384-20.078933 43.127467-29.2608 58.786133-4.3264 7.381333-13.6704 22.698667-20.266667 20.676267-2.235733-0.682667-8.132267-8.1664-8.686933-11.5712z" fill="#E7837F" /><path d="M743.6544 136.541867c7.082667 26.222933 7.9616 52.727467 6.8096 79.488l-3.387733 16.2816-87.185067-45.346134c-73.309867-31.470933-152.507733-45.8496-231.688533-48.785066-17.117867-0.631467-33.425067 2.679467-50.517334 1.783466-0.017067 4.548267 0.034133 9.1392 0 13.687467-2.901333-1.373867-1.7664-6.664533-1.698133-9.403733C377.301333 92.7488 430.506667 38.5536 475.136 17.664 578.773333-30.839467 713.386667 24.413867 743.662933 136.5504z" fill="#7CB25B" /><path d="M914.679467 430.6944c2.184533-3.089067 2.056533-5.137067 0.9472-8.644267-1.006933-3.2-4.138667-9.4976-5.7344-13.073066-17.4336-39.0912-45.329067-75.1872-74.760534-104.7552-13.824-13.892267-27.639467-26.9824-42.8288-39.3984-0.768-1.271467 5.614933-22.289067 6.0416-26.555734 3.319467-32.964267 0.768-65.024-8.9344-97.024-1.373867-4.522667-3.464533-8.6528-4.821333-13.141333-2.7904-0.221867-5.649067-0.1792-8.439467-0.110933l14.574934-3.387734c137.2416-10.299733 233.787733 128.384 181.2736 254.805334-12.049067 29.013333-28.893867 40.567467-57.3184 51.2768z" fill="#7EB35B" /><path d="M776.149333 127.991467c2.798933-0.0768 5.6576-0.110933 8.439467 0.110933 1.3568 4.488533 3.447467 8.618667 4.821333 13.141333 9.7024 31.991467 12.253867 64.0512 8.9344 97.024-0.426667 4.266667-6.8096 25.284267-6.0416 26.555734 15.1808 12.416 28.996267 25.506133 42.8288 39.3984 29.431467 29.568 57.326933 65.664 74.760534 104.7552 1.595733 3.575467 4.718933 9.873067 5.7344 13.073066 1.109333 3.515733 1.237333 5.5552-0.9472 8.644267-7.876267 2.9696-16.4096 4.6336-23.944534 8.5504-43.716267-86.0416-126.5664-169.728-211.473066-215.2192-60.4928-32.418133-117.546667-46.626133-185.2928-54.9888-0.290133-0.034133-0.981333-1.408-5.128534-1.706667-5.000533-0.3584-10.333867 0.068267-15.394133 0l-1.006933-1.527466c-3.072-0.452267-6.186667-0.145067-9.258667-0.187734-9.668267-0.119467-19.4048 0.008533-29.073067 0l-1.006933-1.527466c-8.132267 0.008533-16.785067-1.083733-24.644267 0.631466v0.887467c-7.876267 0.145067-16.170667-0.477867-23.944533 0l-5.0432-0.0768-0.384-3.8912-1.416533-1.169067c0-2.2784-0.017067-4.565333 0-6.843733 0.034133-4.548267-0.0256-9.1392 0-13.687467 17.092267 0.896 33.399467-2.414933 50.517333-1.783466 79.1808 2.935467 158.378667 17.314133 231.688533 48.785066l87.185067 45.346134 3.387733-16.2816c1.160533-26.760533 0.273067-53.265067-6.8096-79.488 10.308267-4.4032 21.205333-8.251733 32.494934-8.5504z" fill="#659E48" /><path d="M377.6768 160.4864l1.416533 1.169067 0.384 3.8912 5.0432 0.0768c-0.375467 0.0256-3.6096 3.2512-6.843733 1.706666v-6.843733zM434.116267 165.614933c-8.5248-0.008533-17.134933-0.1536-25.6512 0v-0.887466c7.8592-1.7152 16.520533-0.622933 24.644266-0.631467l1.006934 1.527467zM473.4464 167.330133c-3.072-0.042667-6.186667 0.264533-9.258667-0.187733l-1.006933-1.527467c3.072 0.034133 6.186667-0.264533 9.258667 0.187734l1.006933 1.527466zM493.969067 169.0368l-4.061867-0.187733-1.066667-1.518934c4.155733 0.298667 4.8384 1.672533 5.128534 1.706667z" fill="#7CB25B" /></svg>