<?xml version="1.0" standalone="no"?><!DOCTYPE svg PUBLIC "-//W3C//DTD SVG 1.1//EN" "http://www.w3.org/Graphics/SVG/1.1/DTD/svg11.dtd"><svg class="icon" width="256px" height="256.00px" viewBox="0 0 1024 1024" version="1.1" xmlns="http://www.w3.org/2000/svg"><path d="M897.161975 415.8976c0.196267 0.375467 1.698133 0.955733 2.3808 2.440533 4.462933 9.710933 0.725333 23.799467-0.384 33.834667-0.802133 7.2192 1.706667 8.516267 4.010667 14.5152l11.6224 0.136533c-0.981333 4.855467-1.1264 12.578133-2.2272 16.375467-0.494933 1.6896-2.884267 2.773333-3.3792 4.462933-0.810667 2.798933 0.085333 6.101333-0.580267 9.207467-2.909867 13.5168-27.255467 46.2592-37.845333 56.174933-40.413867 37.853867-95.2576 37.179733-136.2176 73.3696-22.562133 19.933867-38.024533 48.0768-61.917867 65.399467-14.805333 10.734933-43.272533 24.5504-60.936533 29.166933-33.143467 8.661333-67.106133 5.162667-99.012267 14.592-36.462933 10.7776-58.641067 33.399467-90.811733 50.218667-19.694933 10.299733-41.591467 18.952533-64.375467 21.8112-46.8992 5.870933-128.187733-8.2688-170.0096-31.658667-17.041067-9.5232-50.8416-31.035733-64-43.733333-2.056533-1.979733-2.2528-5.154133-4.864-6.528l-9.949866 3.5072-0.878934 7.936-3.9168-7.8336c6.528-11.0592 34.6624-15.7696 47.086934-20.497067 22.656-8.610133 52.078933-23.8592 71.790933-37.896533 2.525867-1.800533 5.5296-2.8416 6.485333-6.2464 0.622933-0.128 4.2496-3.677867 7.8336-1.962667-1.186133 1.066667-1.544533 2.346667-3.8656 2.0992l1.834667 5.649067-3.4048 0.401067c-13.781333 48.930133 0.5632 94.062933 49.877333 112.9216 40.951467 15.658667 119.133867-0.128 149.512534-33.8688 30.327467-33.6896 31.2064-72.7552 1.962666-107.810134-3.003733-3.601067-13.252267-14.395733-16.605866-16.6912-2.3296-1.5872-12.014933-6.519467-14.7712-7.7568 8.917333 2.397867 14.8224 2.0736 23.5776-0.904533 18.705067-6.365867 33.3312-16.810667 48.896-28.475733 3.396267-2.542933 6.203733-5.597867 9.796266-7.8336 1.646933 10.2912-5.051733 18.2272-5.956266 28.322133-0.827733 9.173333 0.256 23.995733 2.423466 32.9984 2.944 12.2368 19.950933 36.667733 30.242134 44.1856 8.533333 6.237867 15.479467 7.3728 24.832 10.427733 1.860267 0.605867 2.909867 2.7136 4.599466 3.234134 41.096533 12.8 91.383467-15.018667 122.026667-39.927467 15.726933-12.782933 31.274667-40.448 33.339733-60.680533 0.5888-5.725867-0.648533-19.694933-2.193066-25.1392-0.426667-1.5104-2.517333-2.730667-3.242667-4.590934-6.203733-15.812267-14.250667-27.332267-26.871467-37.7088-6.690133-5.495467-19.549867-14.165333-27.8016-17.3056-13.789867-5.248-46.421333-2.304-61.2864 1.544534l1.2544-1.621334c6.596267-1.979733 13.457067-3.285333 20.292267-4.2496 6.775467-0.955733 7.441067 0.119467 12.654933 0.093867 7.876267-0.042667 15.752533-0.170667 23.6288-0.042667 14.267733-9.344 26.632533-21.384533 39.0912-33.3824 1.706667-1.6384 4.360533-2.244267 6.016-3.7888 6.766933-6.3232 7.594667-13.994667 12.637867-19.677866-0.2816 6.075733-3.234133 9.796267-3.882667 14.72-2.4576 18.6368 6.877867 45.226667 18.594134 59.7504 0.725333 0.896 5.111467 5.137067 6.749866 6.843733 32.042667 33.476267 89.088 36.6848 125.3632 7.722667 31.701333-25.301333 66.875733-72.96 62.728534-115.438934-0.315733-3.268267-3.054933-6.826667-1.92-10.820266z" fill="#90BE5D" /><path d="M948.088909 411.972267l-1.928534 1.006933-0.1024 1.928533 0.1024 1.928534 1.928534 1.006933c0.759467 56.925867-14.1824 117.546667-52.795734 159.6672-37.6832 41.1136-80.1024 38.8096-124.168533 63.931733-31.872 18.167467-46.2848 46.472533-71.8848 71.168-13.678933 13.192533-30.404267 25.710933-48.853333 33.3568-35.882667 14.8736-65.024 9.770667-100.864 14.702934-51.217067 7.048533-96.238933 52.497067-145.408 70.058666-29.2864 10.461867-59.451733 11.6736-89.6 10.129067-35.8912-1.8432-63.214933-5.248-97.0752-18.491733-29.943467-11.716267-95.633067-47.112533-111.368534-74.709334-2.167467-3.805867-4.693333-11.255467-4.2496-15.5136 0.298667-2.833067 1.937067-2.6624 2.048-2.8416l3.9168 7.8336 0.878934-7.936 9.949866-3.5072c2.6112 1.373867 2.807467 4.539733 4.864 6.528 13.1584 12.6976 46.958933 34.2016 64 43.733334 41.8304 23.389867 123.118933 37.5296 170.0096 31.658666 22.792533-2.850133 44.680533-11.511467 64.375467-21.8112 32.170667-16.8192 54.3488-39.441067 90.811733-50.218666 31.906133-9.429333 65.8688-5.930667 99.012267-14.592 17.664-4.616533 46.122667-18.432 60.936533-29.166934 23.893333-17.322667 39.355733-45.4656 61.917867-65.399466 40.96-36.189867 95.803733-35.515733 136.2176-73.3696 10.589867-9.915733 34.935467-42.658133 37.845333-56.174934 0.6656-3.106133-0.2304-6.417067 0.580267-9.207466 0.4864-1.6896 2.884267-2.7648 3.3792-4.462934 1.109333-3.797333 1.245867-11.528533 2.2272-16.375466 2.107733-10.436267-1.006933-15.624533 0.017067-24.448 0.187733-1.629867 3.6096-12.142933 4.138666-12.544 0.785067-0.597333 3.652267-0.1024 5.640534-1.169067 4.343467-2.338133 4.1728-11.8016 10.8288-7.313067l2.781866-2.619733c0.213333-3.1488-0.128-6.212267 0.4608-9.352533 1.211733-6.417067 4.0448-4.4032 5.256534-5.410134 0.955733-0.7936-0.7168-9.045333 2.218666-11.5712 0.366933 5.597867 1.774933 12.8512 1.962667 19.584z" fill="#669A4D" /><path d="M399.634509 437.435733c1.1008 4.872533-1.604267 5.9136-3.9168 8.814934-6.084267 7.620267-9.156267 28.296533-9.8816 39.0912-1.237333 18.423467 5.2736 39.2704 17.672533 53.009066 9.890133 10.9568 18.304 12.637867 30.8224 18.141867 2.218667 0.9728 3.959467 3.549867 5.725867 4.0704 3.643733 1.058133 9.173333 0.068267 13.380266 0.315733 1.9968 0.119467 3.9168 1.902933 5.930667 1.902934 3.5072 0 15.146667-1.416533 19.5584-1.9712 4.027733-0.512 20.573867-7.637333 22.442667-5.6576l0.119466 3.729066-17.629866 21.546667c-3.592533 2.235733-6.391467 5.290667-9.796267 7.8336 0.802133-7.04-2.372267-2.7136-5.2992-2.372267-7.253333 0.861867-9.608533-1.339733-15.189333-1.629866-11.485867-0.5888-30.122667-1.1264-41.173334 0.128-14.327467 1.629867-30.8224 10.197333-45.4656 13.294933-9.386667 1.979733-23.3472-1.314133-26.077866 10.154667 2.824533 0.631467 4.394667-1.629867 6.852266-1.9712 5.4272-0.7424 8.004267 1.6128 11.793067 1.928533 7.466667 0.631467 16.366933-1.774933 22.485333 3.959467-42.9056-7.697067-82.056533 3.541333-117.5296 25.463466 1.058133-6.033067-3.003733-3.669333-6.8352-3.925333-75.972267-4.957867-126.395733-23.620267-187.1616-67.490133-13.175467-9.514667-25.540267-17.604267-36.155733-30.4384l-4.5312 8.8576c3.114667 3.874133 8.337067 8.209067 10.402133 12.731733 1.220267 2.688 0.5632 4.2496 0.981334 5.828267-3.84-2.397867-7.893333-6.340267-10.692267-9.8816-9.5488-12.100267-22.442667-32.494933-27.579733-46.856534-0.733867-2.048-2.858667-9.326933-2.884267-10.871466-0.1536-8.849067 11.972267-17.4848 20.522667-16.622934 16.0768 1.6128 38.024533 10.914133 54.954666 13.6704 16.776533 2.730667 35.601067 1.749333 52.804267 1.962667l30.404267-5.8368c-3.5072 1.885867-6.920533 4.497067-11.7504 3.925333-0.4352 3.464533 4.445867 1.834667 6.869333 1.954134 7.0144 0.341333 0.093867 5.0944-1.416533 8.3968-1.885867 4.138667-5.179733 11.101867-6.510934 15.035733-4.113067 12.2368-5.819733 31.7696-0.503466 43.741867 5.188267 11.690667 17.501867 29.218133 28.970666 35.6608 1.134933 0.631467 2.705067-0.571733 3.882667 0.068266 7.714133 4.232533 11.3408 7.936 21.0176 10.2912 26.436267 6.4256 48.0256 4.164267 74.0864-1.4848 19.6864-4.266667 41.9584-10.402133 56.721067-25.5488 9.9072-10.154667 20.053333-29.952 20.736-44.023466 0.1536-3.140267-1.134933-5.435733-1.297067-7.876267-0.0768-1.134933 1.211733-2.645333 1.041067-3.8656-0.5376-3.9936-3.601067-12.219733-5.3504-16.128-5.572267-12.4672-14.472533-23.765333-23.8336-32.904533-4.522667-4.411733-9.514667-8.1664-13.7984-12.706134 24.200533 3.413333 49.373867 2.1504 71.185066-10.103466 7.611733-4.2752 13.9264-10.589867 20.872534-15.36z" fill="#89BB57" /><path d="M307.576909 462.907733c4.292267 4.539733 9.275733 8.285867 13.7984 12.706134 9.361067 9.147733 18.261333 20.437333 23.8336 32.904533 1.749333 3.908267 4.8128 12.142933 5.3504 16.128 0.162133 1.220267-1.117867 2.730667-1.041067 3.8656 0.162133 2.449067 1.450667 4.736 1.297067 7.876267-0.682667 14.071467-10.8288 33.8688-20.736 44.023466-14.762667 15.138133-37.0432 21.282133-56.721067 25.5488-26.069333 5.649067-47.658667 7.918933-74.0864 1.4848-9.6768-2.3552-13.303467-6.058667-21.0176-10.2912-1.1776-0.648533-2.747733 0.5632-3.882667-0.068266-11.477333-6.442667-23.7824-23.970133-28.970666-35.6608-5.316267-11.963733-3.6096-31.505067 0.503466-43.741867 1.322667-3.933867 4.616533-10.9056 6.510934-15.035733 1.5104-3.3024 8.430933-8.055467 1.416533-8.3968-2.423467-0.119467-7.304533 1.5104-6.869333-1.954134 4.829867 0.571733 8.2432-2.039467 11.7504-3.925333 25.984-13.952 51.0464-29.294933 81.2032-31.428267 25.1392-1.774933 43.7248 2.5856 67.6608 5.9648zM197.309175 486.826667c-6.8352 0.896-14.7968 4.855467-20.027733 9.335466-2.807467 2.4064-14.0544 15.889067-14.1056 18.619734-0.187733 9.207467 7.722667 11.844267 15.726933 10.410666 4.087467-0.725333 16.3584-6.673067 20.386134-8.9856 2.670933-1.536 20.241067-16.213333 21.179733-17.9968 5.111467-9.787733-16.136533-12.305067-23.150933-11.392z" fill="#B4D85B" /><path d="M507.367842 396.305067c12.288 0.119467 12.433067 2.961067 21.563733 6.8352 2.3808 1.015467 4.923733 0.6656 6.459734 1.3824 20.778667 9.659733 46.2848 31.1296 48.452266 55.364266 0.6144 6.903467-0.776533 22.016-2.9184 28.586667-2.474667 7.611733-11.776 14.583467-16.8448 20.420267-1.348267 1.553067-1.681067 4.266667-2.167466 4.6336-1.408 1.083733-7.714133 0.597333-9.489067 5.205333l11.7504 0.9728c-10.0096 4.420267-22.408533 11.818667-32.0512 17.902933-5.4528 3.438933-11.2128 8.354133-14.8224 12.561067-2.875733 3.345067-8.558933 2.952533-7.978667 10.683733l-7.825066-1.9712-0.119467-3.729066c-1.860267-1.979733-18.414933 5.1456-22.442667 5.6576-4.411733 0.5632-16.0512 1.9712-19.5584 1.9712-2.005333 0-3.933867-1.783467-5.930666-1.902934-4.215467-0.247467-9.736533 0.7424-13.380267-0.315733-1.7664-0.512-3.5072-3.089067-5.725867-4.0704-12.526933-5.504-20.9408-7.185067-30.8224-18.141867-12.398933-13.738667-18.909867-34.5856-17.672533-53.009066 0.725333-10.786133 3.797333-31.4624 9.8816-39.0912 2.312533-2.901333 5.0176-3.9424 3.9168-8.814934 31.1296-21.384533 49.348267-33.578667 88.1408-39.176533 3.345067-0.477867 10.282667-1.851733 11.7504-1.962667 2.56-0.187733 5.256533-0.0256 7.8336 0z m-5.888 23.517866c-9.258667 1.8176-18.7904-1.237333-28.356267 0.0256-5.6576 0.7424-11.101867 5.461333-17.536 3.780267l-1.288533 3.746133c-9.608533-2.432-10.9056 4.881067-15.453867 7.176534-2.5088 1.262933-5.418667 0.605867-7.9104 1.885866-1.723733 0.887467-21.7088 17.408-22.485333 18.645334-1.646933 2.645333-2.065067 7.210667-3.328 10.376533-0.759467 1.911467-3.037867 3.268267-3.336533 4.590933-0.2048 0.904533 2.005333 7.3728 2.7392 8.541867 3.805867 6.084267 14.677333 9.326933 21.546666 7.825067 8.823467-4.514133 19.208533-6.775467 27.8528-11.323734 3.473067-1.826133 8.874667-7.1168 11.6736-7.9616 10.641067-3.2 14.592-10.197333 24.226134-14.9504 2.013867-0.989867 5.239467-0.836267 5.6064-1.2032 0.452267-0.452267 0.093867-3.677867 1.143466-5.674666 1.271467-2.414933 5.845333-4.4032 6.6304-7.1168 1.629867-5.614933-0.238933-12.859733-1.723733-18.3552z" fill="#B0D551" /><path d="M716.955042 282.7008c5.137067 1.937067 5.76 1.160533 10.7776 1.962667 7.330133 1.169067 5.410133 3.541333 7.185067 5.435733 1.4336 1.527467 5.896533 1.5872 7.509333 2.397867-1.339733 7.099733 1.220267 4.718933 3.805867 6.8864s5.102933 4.420267 6.493866 7.4752c1.595733 3.5072 1.757867 10.043733 2.389334 13.1328 0.546133 2.6368 3.072 6.314667 2.730666 8.448-0.273067 1.706667-2.304 3.3792-2.7904 5.102933-3.976533 14.037333-5.6064 10.453333-11.630933 19.694933-2.884267 4.420267-2.218667 6.980267-7.816533 11.818667-5.9904 5.179733-2.551467 2.312533-5.888 7.714133-3.234133 5.230933-32.238933 35.9424-37.154134 39.287467-2.6112 1.783467-5.4528 1.646933-7.048533 2.7904-3.012267 2.167467-1.152 2.269867-7.7056 5.9136-2.909867 1.6128-5.435733 6.459733-9.105067 8.576-1.732267 0.9984-12.0576 5.358933-13.730133 5.8624-5.384533 1.621333-14.3104-0.554667-20.283733 0.2816-3.549867-2.986667-17.476267-4.906667-25.378134-10.8544-10.734933-8.081067-16.042667-15.872-21.205333-27.767467-0.964267-2.218667-3.592533-3.985067-4.0704-5.725866-1.493333-5.393067-2.747733-23.185067-2.3296-29.184 0.264533-3.84 2.4576-6.869333 2.056533-10.7008 17.408-25.070933 24.8064-36.4032 52.215467-52.5824 22.0672-13.021867 55.901867-25.429333 80.981333-15.9744z" fill="#ABCE4C" /><path d="M903.041442 274.858667c6.6816 10.325333 10.734933-4.2496 10.709333-9.890134l2.0224-1.578666c7.560533 0.494933 9.7792 7.6032 17.749334 9.386666l1.0752 7.748267 5.6064 3.285333c-3.677867 5.572267 0.1792 8.797867 0.221866 13.576534 0.0256 3.310933-2.030933 6.126933-2.210133 9.7024-0.571733 11.374933 0.5888 22.980267 0.093867 34.363733 3.413333 0.4608 1.902933-4.48 1.954133-6.852267 0.128-6.519467-0.042667-13.056 0-19.584 0.0256-3.217067-1.442133-9.147733 1.954133-10.7776-0.8448 29.917867 1.962667 58.6752 3.9168 88.1408-2.935467 2.5344-1.262933 10.7776-2.218666 11.5712-1.211733 1.006933-4.0448-1.006933-5.256534 5.410134-0.5888 3.140267-0.256 6.203733-0.4608 9.352533l-2.781866 2.619733c-6.656-4.488533-6.485333 4.974933-10.8288 7.313067-1.979733 1.066667-4.855467 0.571733-5.640534 1.169067-0.529067 0.401067-3.950933 10.9056-4.138666 12.544-1.015467 8.832 2.0992 14.020267-0.017067 24.448l-11.6224-0.136534c-2.304-5.998933-4.8128-7.304533-4.010667-14.5152 1.109333-10.0352 4.846933-24.123733 0.384-33.834666-0.682667-1.4848-2.184533-2.065067-2.3808-2.440534-2.645333-5.034667-4.053333-11.4432-6.903466-15.624533-8.465067-12.424533-29.4656-31.377067-43.4176-36.8896-6.306133-2.491733-15.470933-2.670933-22.1696-6.289067l1.988266-3.874133-5.674666 0.264533-1.288534 3.7632c-3.498667 0.110933-7.236267-0.4608-10.6752-0.110933l9.770667-1.979733 0.0256-5.870934c2.466133-0.7936 4.6336 1.92 5.870933 1.9712 1.476267 0.059733 9.557333-5.461333 11.665067-6.946133 20.488533-14.353067 54.229333-47.522133 66.688-69.4528z" fill="#7BAF56" /><path d="M634.685175 435.4816c5.341867 4.497067 13.9008 0.315733 20.292267 2.235733 1.902933 0.571733 2.816 3.2 6.101333 3.6864 5.717333 0.8448 14.2336-1.348267 19.396267 0.196267 0.776533 0.2304 8.917333 7.022933 9.053867 7.594667-6.272 2.414933-14.071467 2.5856-20.155734 4.3264-26.4448 7.552-53.819733 28.970667-71.893333 49.536-2.338133 2.653867-5.0944 2.8672-1.962667 6.852266-6.8352 0.964267-13.687467 2.269867-20.292266 4.2496l-1.2544 1.621334c-1.860267 0.4864-7.2192 2.781867-9.796267 3.9168l-11.7504-0.9728c1.774933-4.608 8.081067-4.1216 9.489067-5.205334 0.477867-0.366933 0.810667-3.080533 2.167466-4.6336 5.0688-5.8368 14.378667-12.808533 16.8448-20.420266 2.133333-6.570667 3.5328-21.691733 2.9184-28.586667-2.167467-24.234667-27.6736-45.696-48.452266-55.364267-1.527467-0.708267-4.0704-0.366933-6.459734-1.3824-9.130667-3.874133-9.275733-6.715733-21.563733-6.8352l20.155733-4.3264c11.400533-4.650667 24.610133-9.173333 34.645334-16.2816 9.361067-6.6304 15.112533-15.104 21.589333-24.439466 0.401067 3.831467-1.792 6.8608-2.056533 10.7008-0.4096 5.998933 0.836267 23.790933 2.3296 29.184 0.4864 1.7408 3.106133 3.498667 4.0704 5.725866 5.162667 11.886933 10.4704 19.6864 21.205333 27.767467 7.901867 5.956267 21.828267 7.876267 25.378133 10.8544z" fill="#87B453" /><path d="M836.438775 267.025067c-0.554667-6.2976-1.578667-13.2352-1.8688-20.642134-0.170667-4.488533-2.858667-7.415467-0.093866-12.654933l-3.9168 9.787733-5.870934-1.954133 1.911467 5.768533-3.456 0.4096c-5.896533 29.192533-16.768 56.021333-29.405867 83.336534l-14.1056 24.0896c0.196267-2.4832 2.116267-5.0688 1.757867-6.587734s-3.0464-2.696533-3.1232-4.104533c-0.068267-1.211733 1.604267-2.961067 1.160533-5.572267-0.861867-4.974933-6.954667-8.354133-9.326933-12.381866-1.757867-2.9952-5.2224-15.2832-6.3744-16.1536-0.930133-0.708267-3.831467 0.0512-5.674667-1.134934-3.242667-2.0736-8.32-13.073067-15.624533-16.7424-1.6128-0.810667-6.075733-0.8704-7.509333-2.397866-1.7664-1.885867 0.145067-4.266667-7.185067-5.435734-5.0176-0.7936-5.632-0.0256-10.7776-1.962666 4.701867-0.469333 10.222933 0.6912 14.737067 0.042666 7.3472-1.058133 46.805333-31.505067 53.8112-38.254933 3.362133-3.242667 11.127467-11.8784 13.457066-15.9232 7.569067-13.166933 8.576-28.842667 8.200534-43.707733 6.391467-3.191467 35.089067-3.677867 37.026133 2.961066l-7.697067 54.766934-0.042666 24.448z" fill="#83B35C" /><path d="M41.183309 562.798933c-0.418133-1.570133 0.238933-3.140267-0.981334-5.828266-2.065067-4.522667-7.287467-8.8576-10.402133-12.731734l4.5312-8.8576c10.606933 12.8256 22.980267 20.923733 36.155733 30.4384 60.765867 43.869867 111.189333 62.532267 187.1616 67.490134 3.831467 0.247467 7.901867-2.116267 6.8352 3.925333-12.8512 7.944533-17.169067 16.187733-27.426133 25.463467-3.584-1.723733-7.2192 1.826133-7.8336 1.962666-1.988267 0.418133-34.500267-6.9376-39.748267-8.2432-43.383467-10.8288-88.533333-34.619733-121.890133-64.196266-6.2208-5.512533-24.704-23.0656-26.402133-29.422934z" fill="#699949" /><path d="M903.041442 274.858667c4.181333-7.355733 7.202133-18.090667 12.0576-26.1376 7.901867-13.098667 10.641067-12.100267 26.094933-11.042134 4.6848 0.324267 12.740267 1.288533 17.629867 1.954134 14.071467 1.937067 40.7296 8.2176 51.8656 16.6912 9.821867 7.4752 16.580267 24.430933 11.741867 36.053333-25.0112 1.442133-47.778133-14.967467-73.156267-11.460267-7.560533 6.382933-6.801067 14.3616-7.057067 23.304534-3.396267 1.629867-1.928533 7.560533-1.954133 10.7776-0.0512 6.528 0.128 13.064533 0 19.584-0.0512 2.372267 1.4592 7.313067-1.954133 6.852266 0.503467-11.383467-0.6656-22.980267-0.093867-34.363733 0.1792-3.575467 2.235733-6.4 2.210133-9.7024-0.034133-4.778667-3.899733-8.004267-0.221866-13.576533l-5.6064-3.285334-1.0752-7.748266c-7.970133-1.783467-10.1888-8.891733-17.749334-9.386667l-2.0224 1.578667c0.017067 5.632-4.027733 20.206933-10.709333 9.890133z" fill="#84B76A" /><path d="M779.632375 355.1744l14.1056-24.0896c12.637867-27.3152 23.509333-54.144 29.405867-83.336533l3.456-0.4096-1.911467-5.768534 5.870934 1.954134 3.9168-9.787734c-2.7648 5.230933-0.0768 8.157867 0.093866 12.654934 0.290133 7.406933 1.314133 14.353067 1.8688 20.642133 1.117867 12.714667-2.312533 38.1696-3.968 51.857067-1.288533 10.717867-8.797867 21.205333-7.790933 32.366933-1.245867-0.0512-3.413333-2.7648-5.870933-1.9712l-0.0256 5.870933-9.770667 1.979734c-7.867733 0.810667-18.184533 2.926933-25.463467 5.879466h-3.9168c0.128-2.577067-0.2048-5.256533 0-7.8336z" fill="#649A45" /><path d="M499.534242 396.305067c-1.467733 0.110933-8.413867 1.476267-11.7504 1.962666l1.152-1.749333 10.606933-0.213333z" fill="#87B453" /><path d="M948.088909 417.851733l-1.928534-1.006933-0.1024-1.928533 0.1024-1.928534 1.928534-1.006933c0.0512 1.954133-0.0256 3.9168 0 5.879467z" fill="#7BAF56" /><path d="M382.004642 611.771733c7.005867 1.2544 12.9792 2.909867 19.584 5.879467 2.756267 1.237333 12.450133 6.161067 14.7712 7.7568 3.3536 2.295467 13.602133 13.098667 16.605867 16.6912 29.252267 35.0464 28.373333 74.120533-1.962667 107.810133-30.378667 33.7408-108.561067 49.527467-149.512533 33.8688-49.314133-18.858667-63.658667-63.991467-49.877334-112.9216l3.4048-0.401066-1.834666-5.649067c2.321067 0.247467 2.679467-1.032533 3.8656-2.0992 10.248533-9.275733 14.574933-17.527467 27.426133-25.463467 35.473067-21.922133 74.624-33.160533 117.5296-25.463466z m-44.049067 16.4864c-23.492267 2.7392-59.255467 15.4624-75.4688 33.425067-1.7152 1.8944-8.3712 10.897067-8.9344 12.757333-1.006933 3.310933 0.853333 4.334933 1.015467 6.903467 0.1024 1.672533-1.834667 3.3792-0.955733 4.898133s8.900267 11.118933 10.1376 11.477334c7.210667-0.3072 16.4352 1.3056 23.313066 0.290133 4.770133-0.708267 15.5392-6.980267 20.471467-8.9088 15.8208-6.186667 44.245333-14.5664 55.850667-26.410667 0.674133-0.6912 6.468267-8.4992 6.6304-9.0368 0.768-2.619733 0.768-14.5152 0-17.143466-1.553067-5.316267-9.5488-7.6544-14.464-8.234667-2.901333-0.349867-14.677333-0.341333-17.5872 0z" fill="#BCE168" /><path d="M809.021175 357.128533c3.438933-0.3584 7.176533 0.221867 10.6752 0.110934l1.288534-3.7632 5.674666-0.264534-1.988266 3.874134c6.698667 3.618133 15.863467 3.797333 22.1696 6.289066 13.952 5.512533 34.952533 24.465067 43.4176 36.8896 2.850133 4.181333 4.258133 10.589867 6.903466 15.624534-1.134933 3.9936 1.595733 7.543467 1.92 10.820266 4.1472 42.478933-31.0272 90.129067-62.728533 115.438934-36.2752 28.962133-93.320533 25.7536-125.3632-7.722667-1.6384-1.706667-6.024533-5.947733-6.749867-6.843733-11.716267-14.523733-21.051733-41.1136-18.594133-59.7504 0.648533-4.923733 3.6096-8.6528 3.882667-14.72 5.461333-6.161067 6.698667-12.654933 10.8032-19.5584 10.180267-17.1264 35.720533-40.021333 51.968-51.848534 8.132267-5.922133 22.161067-15.018667 31.2576-18.696533 7.278933-2.944 17.595733-5.060267 25.463466-5.879467z m3.515734 56.5248c1.134933-7.1424 6.331733-12.3648 4.0704-20.0448-8.8832-12.296533-13.6448-12.7488-27.7504-8.644266-26.9824 7.850667-58.350933 33.1776-70.843734 58.436266-3.8912 7.876267-6.4768 15.0784-2.0736 23.466667 0.9472 1.800533 9.5744 7.543467 11.7504 7.842133 2.978133 0.4096 6.510933-0.187733 9.796267 0 1.885867 0.110933 3.754667 1.92 5.632 1.6384 0.836267-0.128 9.557333-3.933867 10.973867-4.7104 13.090133-7.1936 25.403733-22.741333 35.3024-33.2544 6.954667-7.389867 17.7152-14.4128 20.027733-24.149333l3.114667-0.580267z" fill="#BADF67" /><path d="M573.961975 515.7888c14.865067-3.857067 47.496533-6.792533 61.2864-1.544533 8.260267 3.140267 21.111467 11.810133 27.8016 17.3056 12.6208 10.376533 20.667733 21.896533 26.871467 37.7088 0.725333 1.860267 2.816 3.089067 3.242667 4.590933 1.544533 5.444267 2.781867 19.413333 2.193066 25.1392-2.065067 20.232533-17.6128 47.8976-33.339733 60.680533-30.651733 24.917333-80.930133 52.727467-122.026667 39.927467-1.6896-0.529067-2.7392-2.628267-4.599466-3.234133-9.352533-3.054933-16.298667-4.189867-24.832-10.427734-10.2912-7.517867-27.298133-31.957333-30.242134-44.1856-2.167467-9.002667-3.2512-23.825067-2.423466-32.9984 0.904533-10.094933 7.6032-18.030933 5.956266-28.322133l17.629867-21.546667 7.825067 1.9712c-0.580267-7.7312 5.102933-7.338667 7.978666-10.683733 3.6096-4.206933 9.3696-9.1136 14.8224-12.561067 9.642667-6.084267 22.0416-13.482667 32.0512-17.902933 2.577067-1.134933 7.936-3.438933 9.796267-3.9168z m15.965867 61.1072c1.058133-0.810667 3.677867-0.290133 5.563733-1.339733 7.304533-4.0704 15.556267-16.989867 17.442134-25.1904-2.7648-6.084267-9.540267-14.0288-16.443734-14.976-6.818133-0.938667-20.8384 1.2032-27.0592 4.2752-2.833067 1.399467-4.411733 4.6848-6.4768 5.282133-2.926933 0.8448-6.4-0.375467-9.3184 0.469333-4.497067 1.297067-16.827733 12.347733-20.829866 14.481067-6.920533 3.6864-4.650667 3.720533-7.7056 5.9136-1.570133 1.1264-4.4288 1.0496-7.048534 2.7904-5.6576 3.746133-9.207467 13.678933-15.633066 17.664-2.935467 6.493867-0.221867 10.922667 4.992 14.6944 10.069333 7.287467 21.742933 9.8048 33.809066 6.485333 7.688533-2.116267 18.935467-10.043733 26.990934-14.199466 8.183467-4.215467 14.626133-10.888533 21.717333-16.341334z" fill="#BCE166" /><path d="M382.004642 611.771733c-6.126933-5.7344-15.018667-3.328-22.485333-3.959466-3.7888-0.315733-6.3744-2.670933-11.793067-1.928534-2.4576 0.3328-4.027733 2.602667-6.852267 1.9712 2.730667-11.477333 16.6912-8.174933 26.077867-10.154666 14.651733-3.0976 31.138133-11.665067 45.4656-13.294934 11.050667-1.2544 29.687467-0.725333 41.173333-0.128 5.5808 0.290133 7.927467 2.491733 15.189334 1.629867 2.9184-0.349867 6.101333-4.667733 5.2992 2.372267-15.5648 11.665067-30.199467 22.109867-48.896 28.475733-8.746667 2.978133-14.660267 3.3024-23.5776 0.904533-6.613333-2.961067-12.578133-4.616533-19.584-5.879466z" fill="#5D9139" /><path d="M689.528909 449.194667c-0.042667 1.3056 0.059733 2.619733 0 3.9168-5.0432 5.6832-5.870933 13.354667-12.637867 19.677866-1.655467 1.544533-4.309333 2.1504-6.016 3.7888-12.458667 11.997867-24.823467 24.0384-39.0912 33.3824-7.876267-0.128-15.752533 0-23.6288 0.042667-5.213867 0.0256-5.879467-1.0496-12.654933-0.093867-3.131733-3.985067-0.366933-4.1984 1.962666-6.852266 18.0736-20.565333 45.448533-41.984 71.893334-49.536 6.0928-1.7408 13.883733-1.911467 20.155733-4.3264z" fill="#62913E" /><path d="M197.309175 486.826667c7.0144-0.913067 28.2624 1.604267 23.150934 11.392-0.930133 1.783467-18.500267 16.469333-21.179734 17.9968-4.027733 2.304-16.3072 8.251733-20.386133 8.9856-8.004267 1.425067-15.914667-1.2032-15.726933-10.410667 0.0512-2.730667 11.298133-16.213333 14.1056-18.619733 5.230933-4.48 13.192533-8.448 20.027733-9.335467z" fill="#CFEB96" /><path d="M501.479842 419.822933c1.4848 5.486933 3.3536 12.740267 1.723733 18.3552-0.785067 2.7136-5.367467 4.701867-6.6304 7.1168-1.0496 1.9968-0.6912 5.2224-1.143466 5.674667-0.366933 0.366933-3.592533 0.213333-5.6064 1.2032-9.634133 4.753067-13.585067 11.758933-24.226134 14.9504-2.798933 0.8448-8.200533 6.126933-11.6736 7.9616-8.644267 4.548267-19.0208 6.801067-27.8528 11.323733-6.869333 1.501867-17.749333-1.7408-21.546666-7.825066-0.733867-1.169067-2.944-7.637333-2.7392-8.541867 0.298667-1.322667 2.568533-2.679467 3.336533-4.590933 1.262933-3.157333 1.681067-7.7312 3.328-10.376534 0.776533-1.237333 20.7616-17.7664 22.485333-18.645333 2.500267-1.28 5.4016-0.6144 7.9104-1.885867 4.548267-2.295467 5.8368-9.608533 15.453867-7.176533l1.288533-3.746133c6.434133 1.681067 11.8784-3.029333 17.536-3.780267 9.565867-1.2544 19.0976 1.800533 28.356267-0.0256z" fill="#CBE68A" /><path d="M742.418509 292.488533c7.304533 3.669333 12.381867 14.6688 15.624533 16.7424 1.851733 1.186133 4.744533 0.426667 5.674667 1.134934 1.152 0.8704 4.616533 13.1584 6.3744 16.1536 2.372267 4.027733 8.4736 7.406933 9.326933 12.381866 0.452267 2.6112-1.2288 4.360533-1.160533 5.572267 0.085333 1.408 2.747733 2.5088 3.1232 4.104533s-1.5616 4.113067-1.757867 6.587734 0.128 5.256533 0 7.842133h3.9168c-9.088 3.669333-23.1168 12.765867-31.2576 18.688-16.247467 11.8272-41.7792 34.722133-51.968 51.848533-4.104533 6.903467-5.341867 13.405867-10.8032 19.5584 0.059733-1.3056-0.042667-2.6112 0-3.9168-0.136533-0.571733-8.277333-7.364267-9.053867-7.594666-5.154133-1.544533-13.678933 0.648533-19.396266-0.196267-3.285333-0.4864-4.1984-3.114667-6.101334-3.6864-6.391467-1.92-14.9504 2.261333-20.292266-2.235733 5.973333-0.836267 14.8992 1.339733 20.283733-0.2816 1.672533-0.503467 11.997867-4.864 13.730133-5.8624 3.669333-2.116267 6.1952-6.9632 9.105067-8.576 6.5536-3.6352 4.693333-3.746133 7.7056-5.9136 1.595733-1.143467 4.437333-1.006933 7.048533-2.7904 4.9152-3.345067 33.92-34.056533 37.154134-39.287467 3.336533-5.410133-0.1024-2.542933 5.888-7.714133 5.597867-4.8384 4.932267-7.3984 7.816533-11.818667 6.024533-9.250133 7.6544-5.6576 11.630933-19.694933 0.4864-1.723733 2.517333-3.396267 2.7904-5.102934 0.341333-2.141867-2.184533-5.819733-2.730666-8.448-0.64-3.089067-0.802133-9.634133-2.389334-13.1328-1.390933-3.054933-3.985067-5.367467-6.493866-7.4752s-5.1456 0.213333-3.805867-6.8864z" fill="#95BE4D" /><path d="M337.955575 628.258133c2.909867-0.341333 14.685867-0.341333 17.5872 0 4.9152 0.5888 12.910933 2.9184 14.464 8.234667 0.768 2.628267 0.776533 14.523733 0 17.143467-0.162133 0.5376-5.956267 8.354133-6.6304 9.0368-11.605333 11.844267-40.0384 20.224-55.850666 26.410666-4.932267 1.928533-15.701333 8.200533-20.471467 8.9088-6.877867 1.015467-16.1024-0.597333-23.313067-0.290133-1.237333-0.3584-9.2416-9.9328-10.1376-11.477333s1.058133-3.2256 0.955734-4.898134c-0.162133-2.568533-2.0224-3.601067-1.015467-6.903466 0.5632-1.860267 7.227733-10.8544 8.9344-12.757334 16.213333-17.962667 51.976533-30.685867 75.4688-33.425066z" fill="#D6EF98" /><path d="M812.536909 413.653333l-3.114667 0.580267c-2.321067 9.736533-13.0816 16.759467-20.027733 24.149333-9.898667 10.513067-22.212267 26.0608-35.3024 33.2544-1.416533 0.776533-10.1376 4.5824-10.973867 4.7104-1.877333 0.2816-3.746133-1.527467-5.632-1.6384-3.285333-0.196267-6.818133 0.4096-9.796267 0-2.176-0.298667-10.8032-6.0416-11.7504-7.842133-4.4032-8.3968-1.8176-15.598933 2.0736-23.466667 12.4928-25.258667 43.861333-50.577067 70.843734-58.436266 14.1056-4.104533 18.8672-3.643733 27.7504 8.644266 2.269867 7.68-2.926933 12.9024-4.0704 20.0448z" fill="#D2EC98" /><path d="M589.927842 576.896c-7.0912 5.4528-13.533867 12.117333-21.717333 16.341333-8.055467 4.155733-19.293867 12.074667-26.990934 14.199467-12.066133 3.319467-23.739733 0.802133-33.809066-6.485333-5.213867-3.771733-7.927467-8.200533-4.992-14.6944 6.417067-3.985067 9.975467-13.917867 15.633066-17.664 2.628267-1.7408 5.4784-1.664 7.048534-2.7904 3.054933-2.193067 0.785067-2.218667 7.7056-5.9136 3.9936-2.133333 16.3328-13.184 20.829866-14.481067 2.926933-0.8448 6.4 0.375467 9.3184-0.469333 2.065067-0.597333 3.643733-3.882667 6.4768-5.282134 6.2208-3.072 20.241067-5.213867 27.0592-4.2752 6.903467 0.9472 13.678933 8.900267 16.443734 14.976-1.885867 8.200533-10.1376 21.12-17.442134 25.1904-1.885867 1.0496-4.5056 0.529067-5.563733 1.339734z" fill="#D1EC8F" /></svg>