<?xml version="1.0" standalone="no"?><!DOCTYPE svg PUBLIC "-//W3C//DTD SVG 1.1//EN" "http://www.w3.org/Graphics/SVG/1.1/DTD/svg11.dtd"><svg class="icon" width="256px" height="256.00px" viewBox="0 0 1024 1024" version="1.1" xmlns="http://www.w3.org/2000/svg"><path d="M702.71408 40.536064l58.188309 86.663803c18.841441 33.962381 39.19327 91.41683 15.556136 126.019205-28.065897 41.079121-82.883568 50.789972-129.782373 47.334001-161.150642-11.8527-465.617411 1.800518-579.647383 135.960455-13.516686 15.905999-19.942232 35.259436-38.288744 47.4364-13.491086-42.623641-14.472411-56.925387-5.700219-103.252463C55.560065 208.905845 212.299011 64.002533 377.383487 19.680773 500.390451-13.342949 586.78119-3.751563 702.71408 40.536064zM394.42441 82.784241c-42.111645-18.542777-88.541121 1.220256-125.32801 23.713934-32.639725 19.959299-71.534331 52.872088-72.199926 93.703744 6.203681 4.300764 12.083098 14.99294 18.807309 16.95559 39.287136 11.451637 111.22253-26.632309 141.25961-52.351559 22.544877-19.302237 55.073669-52.095561 37.452484-82.030242z" fill="#945C3F" /><path d="M649.509195 661.313767c-2.995175-15.453736-4.027699-24.524593-5.913551-41.386318 37.273286 0.44373 77.91721-8.73806 113.850775-19.174238 37.17942-10.786042 124.978147-41.91538 137.709773-81.048918 15.812133-48.61399-14.907608-74.094309-52.351559-96.033324-144.169452-84.479288-449.754077-86.484605-602.909054-27.135771-45.414017 17.595585-149.13581 67.728496-107.536161 128.630383 39.841798 58.333375 174.675862 88.319256 242.165427 94.941067 17.552919 1.723719 15.940132-4.684761 14.856408 17.552918-1.271456 7.06554 0.887459 16.110798 0.008533 23.671268l-17.749184-0.0256C263.140183 648.940538 78.497472 615.020824 31.436535 501.724712c-3.012241-7.244739-1.416521-13.712951-2.705044-17.783317 18.346512-12.176964 24.772058-31.530401 38.288744-47.436401C181.050208 302.345058 485.516976 288.69184 646.667618 300.54454c46.907338 3.447438 101.716476-6.254881 129.782374-47.334001 23.637134-34.602375 3.285306-92.056824-15.556136-126.019205L702.705546 40.527531c166.833794 63.73493 325.936454 243.112618 301.420394 434.445406-7.637269 59.587765-84.581687 113.799575-135.789789 136.165253-67.404232 29.448285-145.765172 43.90363-218.83549 50.167044z" fill="#7F4D36" /><path d="M549.004441 460.304261c9.855917 38.741007 23.381136 82.072909 29.448286 121.317378 13.090023 84.71822 3.575437 225.431701-42.068979 300.6012-30.84774 50.798505-67.916228 67.643163-126.206937 75.101234l-79.913993-12.21963c-34.491443-67.694363 10.939641-134.893797 34.209845-199.319921 9.011124-24.93419 14.899074-51.054503 24.865923-75.638829l-17.68945-8.823393 17.749183 0.0256c0.870393-7.56047-1.279989-16.605727-0.008533-23.671267 0.093866-0.511996 5.358888-1.493321 6.007416-8.533262 2.961042-32.187462-8.746593-119.303528 8.73806-139.305493l60.287492-28.398694c34.192779-5.222356 50.926504-9.47192 84.598754-1.12639z" fill="#ECD1B3" /><path d="M643.595644 619.927449c1.885851 16.853191 2.918375 25.932582 5.913551 41.386318 0.435196 2.244248-7.398338 29.038689-6.152482 44.611891 5.725818 71.619663 6.289014 146.3369-20.368895 215.609917-33.100521 86.015275-93.661078 110.514269-183.217656 100.282888-46.830539-5.350355-88.447255-35.361835-109.515878-76.71402l79.913994 12.21963c58.290709-7.45807 95.36773-24.302729 126.206936-75.101234 45.644415-75.1695 55.159002-215.882981 42.068979-300.6012-6.067149-39.235936-19.583835-82.567838-29.448285-121.317378 28.509626 7.057007 78.258541 22.877674 82.764103 56.17446 3.635169 26.913907 3.037841 60.705622 6.024482 88.762985 0.674128 6.340213 5.469821 11.673502 5.811151 14.694276z" fill="#DDBA94" /><path d="M394.42441 82.784241c17.612652 29.934681-14.916141 62.719472-37.452484 82.030242-30.03708 25.71925-101.972474 63.803196-141.25961 52.351559-6.72421-1.96265-12.603627-12.654827-18.807308-16.95559 0.665594-40.831656 39.5602-73.752979 72.199925-93.703744 36.78689-22.493677 83.216366-42.256711 125.328011-23.713934z" fill="#AD7759" /><path d="M643.595644 619.927449c-0.34133-3.020775-5.137023-8.354063-5.811151-14.694276-2.986642-28.057364-2.389313-61.849079-6.024482-88.762986-4.497029-33.296786-54.254476-49.117453-82.764103-56.17446-33.67225-8.336996-50.405975-4.087432-84.598754 1.126391l-60.287492 28.398694c-17.476119 20.010498-5.777018 107.118031-8.73806 139.305493-0.648528 7.039941-5.91355 8.021266-6.007416 8.533261 1.083724-22.237679 2.705044-15.8292-14.856408-17.552918-67.489565-6.613278-202.323629-36.607692-242.165426-94.941067-41.59965-60.91042 62.122143-111.034798 107.53616-128.630383 153.154976-59.348833 458.739602-57.35205 602.909054 27.135771 37.443951 21.939015 68.172226 47.419334 52.351559 96.033324-12.731626 39.125004-100.530353 70.254341-137.709773 81.048918-35.933564 10.427645-76.586021 19.617968-113.850774 19.174238zM524.693179 392.456299l-8.345529 36.923422 15.718267 3.55837 8.34553-36.923422-15.718268-3.55837zM359.813502 478.019311c-17.825983-25.079255-54.920071-26.265379-82.764103-29.542151-3.336505 14.60041 6.067149 12.458562 16.170531 16.27293 20.56516 7.773801 44.526558 14.114014 66.585039 13.260688z m-124.150421 53.221952c18.363579-1.066658 37.802348 1.629853 56.029395-0.119466 7.014341-0.674128 44.449759-8.200464 44.441225-14.65161-7.603136-11.272438-15.231872-8.644194-26.581109-8.925791-20.001965-0.503462-40.951122 5.734352-60.475224 10.67511-10.777509 2.72211-15.931599-3.012241-13.414287 13.03029z" fill="#CDA989" /><path d="M235.663081 531.241263c-2.517312-16.042532 2.636778-10.299647 13.414287-13.03029 19.524102-4.940758 40.481792-11.178572 60.475224-10.67511 11.349238 0.281598 18.96944-2.346647 26.581109 8.925791 0.008533 6.451146-37.426885 13.977482-44.441225 14.65161-18.227046 1.749319-37.665816-0.947192-56.029395 0.119466z" fill="#B89071" /><path d="M359.813502 478.019311c-22.058481 0.844793-46.028412-5.486887-66.585039-13.260688-10.103382-3.822901-19.507036-1.672519-16.170531-16.272929 27.844032 3.276772 64.929586 4.454362 82.764103 29.542151z" fill="#B69175" /><path d="M516.343383 429.369481l8.34809-36.921715 15.722534 3.554956-8.34809 36.920863z" fill="#B48A6B" /></svg>