<?xml version="1.0" standalone="no"?><!DOCTYPE svg PUBLIC "-//W3C//DTD SVG 1.1//EN" "http://www.w3.org/Graphics/SVG/1.1/DTD/svg11.dtd"><svg class="icon" width="256px" height="256.00px" viewBox="0 0 1024 1024" version="1.1" xmlns="http://www.w3.org/2000/svg"><path d="M12.416 632.507733c-11.7504-35.899733-6.510933-81.2544-3.413333-118.126933l7.3472-5.060267 1001.1904-174.464 0.034133 425.028267-12.4416 21.444267c-20.1728 2.4064-39.304533 8.849067-59.067733 12.279466-260.369067 45.192533-520.507733 91.246933-781.858134 136.328534-54.468267 9.3952-109.8496 15.112533-164.206933 25.019733V793.736533c90.376533-11.5968 100.693333-141.917867 12.407467-161.220266z m835.746133-197.418666c-27.0592 4.155733-50.9184 31.010133-53.896533 57.992533-6.9376 62.941867 62.464 96.5632 108.7232 52.8384 41.557333-39.278933 0.8192-119.3728-54.826667-110.839467zM277.819733 588.3904c0-21.649067-17.5616-39.1936-39.2192-39.1936s-39.2192 17.544533-39.2192 39.1936 17.5616 39.1936 39.2192 39.1936 39.2192-17.544533 39.2192-39.1936z m300.142934-1.646933c0-16.349867-13.2608-29.610667-29.627734-29.610667s-29.627733 13.2608-29.627733 29.610667 13.2608 29.610667 29.627733 29.610666 29.627733-13.2608 29.627734-29.610666z m176.7424 123.246933c0-21.947733-17.800533-39.739733-39.765334-39.739733s-39.765333 17.792-39.765333 39.739733 17.800533 39.739733 39.765333 39.739733 39.765333-17.792 39.765334-39.739733z m-384.375467-8.1152c-15.931733 2.944-47.010133 17.322667-56.866133 29.9776-32.341333 41.514667-18.474667 99.114667 42.2912 85.666133 19.182933-4.2496 57.233067-35.874133 63.36-54.4768 12.16-36.932267-9.0112-68.514133-48.785067-61.166933z" fill="#F9C131" /><path d="M848.162133 435.089067c55.645867-8.541867 96.384 71.560533 54.826667 110.839466-46.2592 43.7248-115.6608 10.103467-108.7232-52.8384 2.978133-26.990933 26.837333-53.845333 53.896533-57.992533z" fill="#EEA823" /><path d="M370.3296 701.8752c39.765333-7.355733 60.945067 24.234667 48.785067 61.166933-6.126933 18.6112-44.168533 50.235733-63.36 54.4768-60.765867 13.448533-74.624-44.142933-42.2912-85.666133 9.856-12.654933 40.9344-27.0336 56.866133-29.9776z" fill="#ECA622" /><path d="M675.1744 709.9904a39.765333 39.739733 0 1 0 79.530667 0 39.765333 39.739733 0 1 0-79.530667 0Z" fill="#ECA622" /><path d="M199.381333 588.3904a39.2192 39.1936 0 1 0 78.4384 0 39.2192 39.1936 0 1 0-78.4384 0Z" fill="#ECA924" /><path d="M518.7072 586.743467a29.627733 29.610667 0 1 0 59.255467 0 29.627733 29.610667 0 1 0-59.255467 0Z" fill="#EDA824" /><path d="M12.416 632.507733c-3.575467-0.785067-8.413867 0.5888-12.407467 0.008534L2.952533 508.330667c29.909333-30.276267 66.858667-53.205333 99.549867-80.3328 65.1008-54.033067 139.818667-131.268267 207.872-176.708267 25.9584-17.3312 47.428267-9.0368 71.0656-40.593067 34.133333-45.576533 38.4256-45.1328 80.9216-80.341333 14.882133-12.330667 61.397333-59.195733 75.264-61.2608 6.365867-0.580267 11.912533 4.881067 17.826133 5.1712 167.031467 8.0896 419.5328 90.2912 468.548267 269.653333l-0.247467 437.435734c-6.0928 0.477867-12.6208-0.733867-18.628266-0.017067l12.4416-21.444267-0.034134-425.028266L16.349867 509.320533l-7.3472 5.060267c-3.0976 36.872533-8.337067 82.2272 3.413333 118.126933z m582.331733-422.5792c1.169067-0.930133 11.400533-22.024533 13.312-26.8544-6.229333-23.0656-120.465067-28.305067-96.4864 21.888 15.675733 13.576533 36.002133 14.088533 56.021334 11.9552 3.7632-0.401067 26.0608-6.109867 27.153066-6.9888z m172.808534 14.651734c-26.8032 3.584-72.618667 16.887467-65.834667 50.747733 9.3952 31.5648 106.2144 27.016533 129.6384 12.987733 3.712-2.2272 23.9872-22.7072 24.7296-25.1392-11.050667-32.5376-58.427733-42.615467-88.533333-38.587733z m-248.4992 80.256c-10.922667 2.397867-21.4528 12.6464-28.8768 20.753066 7.176533 25.813333 37.469867 24.686933 57.745066 14.293334 36.864-18.8928 0.725333-41.540267-28.868266-35.0464z m-235.716267 37.248c-10.205867 2.2272-29.303467 15.351467-29.303467 26.88 7.005867 41.181867 103.594667 33.211733 111.650134 5.666133 9.984-34.1504-60.501333-37.307733-82.338134-32.546133z" fill="#FDDE73" /><path d="M767.556267 224.580267c30.114133-4.027733 77.482667 6.050133 88.533333 38.587733-0.7424 2.432-21.0176 22.912-24.7296 25.1392-23.424 14.0288-120.2432 18.5856-129.6384-12.987733-6.784-33.860267 39.031467-47.163733 65.834667-50.747734z" fill="#F9C53A" /><path d="M283.3408 342.084267c21.845333-4.7616 92.322133-1.595733 82.338133 32.546133-8.046933 27.537067-104.644267 35.515733-111.650133-5.666133 0-11.528533 19.0976-24.6528 29.303467-26.88z" fill="#F9C237" /><path d="M594.747733 209.928533c-1.092267 0.8704-23.389867 6.587733-27.153066 6.9888-20.0192 2.133333-40.337067 1.621333-56.021334-11.9552-23.9872-50.184533 90.248533-44.9536 96.4864-21.888-1.911467 4.8384-12.1344 25.924267-13.312 26.8544z" fill="#F8C33C" /><path d="M519.057067 304.836267c29.5936-6.493867 65.732267 16.1536 28.868266 35.0464-20.283733 10.3936-50.577067 11.52-57.745066-14.293334 7.432533-8.106667 17.962667-18.3552 28.8768-20.753066z" fill="#F7C646" /></svg>