<?xml version="1.0" standalone="no"?><!DOCTYPE svg PUBLIC "-//W3C//DTD SVG 1.1//EN" "http://www.w3.org/Graphics/SVG/1.1/DTD/svg11.dtd"><svg t="1778769574799" class="icon" viewBox="0 0 1024 1024" version="1.1" xmlns="http://www.w3.org/2000/svg" p-id="4296" xmlns:xlink="http://www.w3.org/1999/xlink" width="256" height="256"><path d="M413.16 228.01s-166.62 69.9-220.07 111.02c0 0-28.78 20.56-26.04 68.53 0 0 1.45 36.94 9.45 55.94 0 0 4 15 20 23 0 0 27 10 24 46 0 0-1 20-27.41 32.68 0 0-16.59 9.32-16.45 34.15 0 0 0 90.57 4.11 127.58 0 0 0.74 33.58 45.57 38.38 0 0 510.57 52.69 594.18 47.21 0 0 49 0 56.53-41.72 0 0 5.48-31.52 5.48-58.94 0 0 3.02-26.26-23.02-41.34 0 0-38-17-38-48 0 0-1.27-34.76 33-46 0 0 33-6 33.5-41.47v-58.82s0.5-25.71-24.67-43.98c0 0-66.68-52.98-121.75-82.13-16.3-8.63-36.31-6.37-50.14 5.82-13.61 12-37.19 22.08-74.82 7.78-42.83-16.28-46.58-49.15-43.37-71.52 2.44-17.01-4.74-33.99-18.94-43.66-14.99-10.21-35.72-21.34-59.68-26 0 0-46.43-9.59-81.47 5.48z" fill="#FFDB53" p-id="4297"></path><path d="M225.26 401.15S546.67 458.08 829 485.92c55 5.42 59-9.71 59-9.71s0.5-25.71-24.67-43.98c0 0-66.68-52.98-121.75-82.13-16.3-8.63-36.31-6.37-50.14 5.82-13.61 12-37.19 22.08-74.82 7.78-42.83-16.28-46.58-49.15-43.37-71.52 2.44-17.01-4.74-33.99-18.94-43.66-14.99-10.21-35.72-21.34-59.68-26 0 0-46.43-9.59-81.47 5.48 0 0-166.62 69.9-220.07 111.02 0 0-13.45 9.61-21.08 31.01 0 0-11.49 19.77 53.25 31.12z" fill="#FFECB4" p-id="4298"></path><path d="M434 592.67a21.85 24.51 0 1 0 43.7 0 21.85 24.51 0 1 0-43.7 0Z" p-id="4299"></path><path d="M545.91 592.67a21.85 24.51 0 1 0 43.7 0 21.85 24.51 0 1 0-43.7 0Z" p-id="4300"></path><path d="M512.33 710.15c-23.97 0-45.86-12.16-58.56-32.53-3.65-5.86-1.87-13.57 3.99-17.22 5.86-3.65 13.57-1.87 17.22 3.99 8.11 13 22.07 20.76 37.35 20.76s29.24-7.76 37.35-20.76c3.65-5.86 11.36-7.65 17.22-3.99 5.86 3.65 7.65 11.36 3.99 17.22-12.7 20.37-34.59 32.53-58.56 32.53z" p-id="4301"></path><path d="M805.29 825.39c-116.97 0-560.44-45.62-580.26-47.66-43.56-4.66-56.11-34.33-56.76-49.92-4.09-37.54-4.13-124.76-4.13-128.47-0.15-25.35 14.28-40.25 22.83-45.05 0.23-0.13 0.47-0.25 0.71-0.37 17.86-8.58 20.11-20.56 20.34-22.18 0-0.12 0 0 0.03-0.27 2.19-26.23-15.7-33.17-15.88-33.24-0.43-0.16-0.84-0.34-1.25-0.54-18.58-9.29-24.8-25.53-26.2-29.99-8.32-20.42-9.96-55.05-10.14-59.53-2.94-52.17 27.5-76.5 30.99-79.1 54.07-41.54 215.17-109.38 222.73-112.56 37.8-16.24 85.82-6.84 88.8-6.23 21.65 4.22 43.27 13.61 64.27 27.93 18.14 12.36 27.44 33.73 24.27 55.77-4.03 28.06 7.89 47.59 35.43 58.05 25.92 9.85 46.82 8.01 62.12-5.47 17.6-15.51 43.42-18.52 64.26-7.49C801.9 367.9 866 418.4 870.91 422.3c28.84 21.08 29.61 50.72 29.61 53.94v58.99c-0.5 35.41-27.65 50.24-42.78 53.4-9.87 3.42-16.81 9.78-20.63 18.94-3.19 7.64-3.09 14.53-3.09 14.6 0.01 0.22 0 0.14 0 0.36 0 22.28 30.3 36.45 30.6 36.59 0.4 0.18 0.78 0.38 1.16 0.59 30.13 17.44 29.65 46.95 29.25 52.66-0.06 28.04-5.44 59.25-5.67 60.58-3.9 21.62-17.32 37.49-38.81 45.99-13.96 5.52-26.7 6.04-29.57 6.09-4.24 0.27-9.51 0.39-15.67 0.39z m-612.04-98.83c0.19 2.81 2.64 22.91 34.4 26.31 5.05 0.52 510.42 52.51 592.03 47.16 0.27-0.02 0.54-0.03 0.82-0.03 1.53-0.01 38.68-0.67 44.23-31.44 0.04-0.22 5.28-30.75 5.28-56.72 0-0.56 0-0.84 0.07-1.37 0.19-2.25 0.88-18.59-16.4-28.89-5.96-2.83-44.53-22.55-44.69-58.86-0.47-15.36 7.6-46.95 41.6-58.1 0.6-0.2 1-0.31 1.61-0.41 2.65-0.55 22.9-5.52 23.28-29.27v-58.72-0.19c-0.02-1.54-0.69-20.02-19.51-33.68-0.15-0.11-0.29-0.22-0.43-0.33-0.66-0.52-66.44-52.61-119.82-80.87-11.71-6.2-26.18-4.53-36.03 4.15-10.4 9.17-26.2 17.97-48.48 17.97-11.3 0-24.26-2.26-39.05-7.88-22.3-8.47-37.74-21.94-45.9-40.02-5.97-13.22-7.78-28.35-5.4-44.96 1.8-12.52-3.41-24.61-13.6-31.55-12.51-8.53-32.22-19.62-55.03-24.06-0.05 0-0.1-0.02-0.14-0.03-0.41-0.08-43.1-8.57-74 4.72-0.03 0.02-0.07 0.03-0.1 0.04-1.65 0.69-165.73 69.74-217.29 109.4-0.17 0.13-0.16 0.13-0.31 0.23-1.57 1.2-23.12 18.39-20.87 57.68 0 0.07 0 0.15 0.01 0.22 0.38 9.65 2.66 37.75 8.48 51.58 0.26 0.61 0.39 0.93 0.54 1.55 0.33 1.05 3.38 9.86 13.15 14.93 2.61 1.11 10.13 4.74 17.15 12.46 7.47 8.2 15.97 22.8 14.1 45.78-0.61 10.18-8.39 30.28-33.8 42.76-1.63 1.13-10.12 7.74-10.03 23.14 0 0.97 0.05 90.38 4.04 126.27 0.05 0.47 0.08 0.59 0.07 1.02z m219.91-498.55h0.01-0.01z" p-id="4302"></path><path d="M829.01 498.42c-0.34 0-0.69-0.01-1.04-0.04-280.18-23-601.86-84.33-605.07-84.95-6.78-1.3-11.22-7.85-9.92-14.63 1.3-6.78 7.85-11.22 14.63-9.92 3.2 0.61 323.6 61.7 602.41 84.59 6.88 0.56 12 6.6 11.44 13.48-0.54 6.53-6 11.48-12.44 11.48z" p-id="4303"></path></svg>