<?xml version="1.0" standalone="no"?><!DOCTYPE svg PUBLIC "-//W3C//DTD SVG 1.1//EN" "http://www.w3.org/Graphics/SVG/1.1/DTD/svg11.dtd"><svg class="icon" width="256px" height="256.00px" viewBox="0 0 1024 1024" version="1.1" xmlns="http://www.w3.org/2000/svg"><path d="M1002.496734 678.766933l2.807467-18.474666 11.246933-48.494934c1.621333-7.005867 1.314133-16.1792-0.110933-22.8608l-3.976534 18.909867c-1.5616 7.441067-2.449067 15.965867-5.486933 21.597867l-13.166933 24.405333c-6.468267 11.9808-12.9792 24.0896-20.744534 34.858667l-21.000533 29.115733c-2.978133 4.1216-10.666667 11.281067-14.890667 14.805333l-17.058133 14.2592c-10.1376 8.4736-20.795733 13.858133-34.858667 19.4816l-2.1504-11.246933c12.654933-30.976 21.2736-64.008533 25.949867-98.5856l3.729067-27.562667c5.5552-41.070933 5.154133-87.355733 0-128.426666l-3.131734-24.9088c-0.8192-6.5024-1.979733-14.788267-3.498666-20.9408l-8.5504-34.551467c-6.9632-28.125867-20.642133-67.054933-33.8432-92.125867l-10.641067-20.206933c-4.8896-9.275733-11.4176-18.986667-17.621333-27.4688l-15.872-21.674667c-14.481067-19.780267-56.925867-57.659733-78.1056-69.418666l-25.719467-14.276267c-1.442133-0.401067-4.5056 3.464533-4.2752 5.1456l27.1616 19.012267c19.140267 13.397333 34.2528 29.431467 49.646933 48.110933 16.7424 20.317867 29.115733 42.9056 41.668267 65.937067 25.813333 47.3856 45.303467 108.765867 52.215467 162.372266l2.807466 21.802667c3.669333 28.484267 5.333333 66.722133 2.850134 94.933333l-2.978134 33.9456-2.5856 21.316267-2.824533 18.901333c-4.906667 32.8448-18.705067 88.277333-36.608 113.28-0.64 0.349867-4.5312 2.8928-5.768533 4.1216l-18.184534 18.184534c-1.2288 1.2288-3.7376 4.855467-4.087466 5.504-1.245867 1.0496-4.522667 1.911467-5.896534 2.798933l-15.104 9.719467c-12.910933 8.311467-22.4256 10.8544-25.173333 15.1552-0.785067 0.136533-2.2016 0.170667-3.072 0.196266l-3.029333 2.901334c-2.312533 0.836267-6.587733 2.2784-8.840534 2.875733l-12.936533 3.4304-2.773333 3.012267-11.8784 3.072-3.6096 2.594133-5.640534 0.213333c-1.979733 0.0768-6.237867 2.133333-6.647466 2.8416l-20.898134-0.085333c-8.106667-0.034133-17.6896-3.8656-26.4704-7.3728l-1.032533-13.9776 2.065067-9.173333 4.497066-19.959467c5.085867-22.596267 11.050667-54.741333 13.7216-77.917867l3.242667-28.125866c1.015467-8.789333 2.1504-18.670933 2.525867-27.221334l2.389333-55.330133c0.2816-6.434133 1.698133-15.0784 1.501867-21.5552l-1.501867-49.3056-2.2016-52.514133c-0.3584-8.6016-1.877333-18.5088-2.8672-27.409067l-3.089067-27.716267-2.8928-21.597866-3.2256-20.974934c-0.759467-4.9152-1.706667-10.8544-2.833066-15.7696l-9.813334-42.9056c-3.2-13.9776-22.9376-67.848533-30.250666-82.679466-2.7136-5.512533-47.488-83.285333-50.833067-60.305067 3.882667 5.265067 9.224533 12.842667 10.922667 16.9728l19.652266 47.726933c2.6112 6.340267 5.137067 16.384 7.04 23.7568l8.234667 31.829334a537.9584 537.9584 0 0 1 10.965333 53.2224l3.310934 21.538133 3.0464 21.444267 2.722133 21.572266 2.850133 33.809067 2.3808 42.717867c0.221867 4.0192 1.629867 11.357867 1.6384 15.470933l0.042667 98.7392c0 5.4528-1.3312 13.2864-1.621333 18.602667l-2.6368 48.529066-1.570134 21.888c-0.529067 7.432533-1.3056 14.848-2.321066 21.870934l-3.072 21.077333-3.584 24.576-2.389334 16.392533-10.922666 36.232534-7.6544 7.159466c-8.746667 8.174933-19.899733 15.547733-30.685867 21.085867l-16.238933 8.149333-52.3776 15.854934-58.752-0.657067c-4.795733-0.0512-15.598933-2.850133-19.899734-4.343467l-18.653866-6.5024c-4.462933-1.553067-13.098667-7.048533-16.8192-9.787733l-8.9856-6.6048c-1.322667-3.541333-5.614933-10.1888-6.784-14.3616l-7.3472-26.248533c-3.336533-11.921067-5.1968-24.157867-7.108267-36.386134l-2.474667-15.837866-3.0976-20.855467-2.901333-24.738133c-6.0672-51.6864-6.391467-169.941333-0.136533-221.192534l3.003733-24.635733 2.9184-21.597867 3.191467-21.444266 5.521066-31.018667c7.5264-42.257067 18.986667-82.432 33.3056-122.376533 7.7568-21.649067 17.442133-41.326933 29.013334-61.0816 14.677333-25.0624 12.3392-13.3888 22.331733-34.3808-6.331733 0.238933-11.025067 1.109333-13.269333 2.833066l-14.139734 10.837334-15.0016 19.4816c-50.816 65.9968-80.605867 171.528533-90.436266 252.9024l-3.3024 27.332266-2.542934 25.079467c-1.408 13.892267-0.9984 28.040533-1.979733 42.5728l-1.28 18.858667c-1.518933 22.391467-2.9184 44.3648-0.3072 66.816l1.4336 12.356266 1.809067 34.090667 2.5088 31.069867c1.5104 18.722133 7.637333 54.5792 12.629333 72.251733l14.122667 50.0736c-0.128 2.107733-3.285333 10.948267-6.485334 12.398933-26.333867 11.912533-48.520533 6.289067-74.965333-1.3824-22.007467-6.382933-54.0928-21.725867-71.8592-35.1232l-11.946667-9.0112c-14.071467-24.593067-22.570667-29.550933-35.882666-66.645333l-8.994134-25.070933c-1.9712-5.504-4.1728-12.714667-5.367466-18.466134l-6.971734-33.672533c-1.655467-7.978667-3.310933-16.9984-4.053333-25.335467l-2.4832-27.946666c-1.9968-22.4768-2.056533-45.115733-0.017067-67.5328l2.816-30.805334c0.64-7.048533 1.339733-14.523733 2.645334-21.614933l8.0128-43.298133c2.756267-14.882133 7.0656-28.834133 11.52-43.042134l3.2768-10.461866 9.489066-28.450134c1.646933-4.932267 5.888-12.253867 8.029867-17.408 21.879467-52.718933 56.2688-103.424 100.5824-139.511466l13.8496-11.281067c3.165867-2.577067 8.379733-6.7072 11.349333-8.029867 9.2928-4.130133 26.1888-16.213333 36.266667-19.285333l52.804267-16.110933c13.397333-4.087467 24.7296-2.551467 39.031466-0.341334l30.549334 4.718934c25.787733 22.058667 52.8384-17.757867 115.549866 13.064533 19.7376-4.821333 16.2816-7.944533 30.532267-13.184 8.098133-2.978133 24.277333-4.744533 35.9936-5.290667l17.143467-0.810666c1.672533-4.6336 3.677867-11.127467 6.314666-12.2624l17.1008-7.415467c-16.5632-12.458667-36.087467-14.020267-37.538133-19.677867 19.771733-0.042667 33.220267 18.116267 48.733867 18.312534l43.101866 0.546133c21.853867 0.2816 74.965333 26.103467 94.882134 38.1696 72.6784 44.032 133.486933 122.5216 162.986666 202.103467 25.386667 68.488533 35.089067 128.2048 30.301867 201.557333l-1.041067 16.0256c-0.443733 6.766933-1.271467 14.907733-2.705066 21.358933l-13.021867 58.581334-3.5584 3.217066z" fill="#FE8A23" /><path d="M486.093534 118.656l-3.310933 6.8352c-7.9104-6.4768-18.773333-10.1888-30.472534-9.915733l-45.806933 1.083733c-3.703467 0.085333-47.812267 13.474133-52.4288 21.230933l23.748267 7.7824c1.092267 0.3584 3.473067 4.795733 3.822933 5.845334 0.349867 1.058133-2.0224 2.6112-3.5584 2.884266-24.388267 4.343467-49.7664 10.513067-73.2928 20.5056-9.531733 4.053333-50.901333 25.5232-52.343467 33.646934-14.208 9.1904-39.842133 32.384-50.525866 46.685866l-29.124267 39.0144c-3.387733 4.539733-8.388267 11.528533-10.769067 16.2816l-20.821333 41.582934c-2.602667 5.1968-4.974933 11.835733-7.210667 17.664l-14.4896 37.828266c-8.558933 22.357333-19.208533 73.591467-21.597866 98.722134l-2.3296 24.4736-1.834667 24.814933c-1.2544 16.964267-1.629867 35.072-0.008533 52.087467l2.653866 27.835733c0.631467 6.6304 1.7408 14.882133 3.054934 21.1712l6.954666 33.134933c2.944 14.0032 14.4384 47.240533 20.616534 61.218134l11.298133 25.531733c-1.348267-3.0464 7.936 19.285333 1.885867 18.3296-7.534933-1.194667-20.616533-10.026667-28.0832-15.351467l-14.865067-10.606933-25.591467-18.244267c-3.780267-2.688-8.772267-7.918933-12.347733-11.639466l-3.2-3.336534c-0.5888-0.6144-2.193067-0.315733-1.928533 0.494934 2.807467 8.3968 7.560533 15.940267 13.610666 24.832l10.146134 14.907733c15.470933 22.7328 7.671467 5.7088 14.685866 22.528-8.482133-3.882667-13.525333-13.559467-17.450666-19.592533l-9.9584-15.274667c-13.738667-21.085867-25.984-42.094933-35.396267-65.8176C0.154334 623.069867-2.294733 567.8592 1.238067 488.354133c1.595733-35.822933 23.364267-109.6448 40.9344-142.481066l14.165334-26.487467c19.9936-37.384533 47.872-69.8368 78.583466-99.626667 5.0432-4.8896 10.8032-10.103467 16.315734-14.242133l23.338666-17.570133c29.047467-21.870933 93.056-51.524267 129.902934-52.795734l47.044266-1.629866c32.145067-22.4512 85.956267-29.8752 120.7552-19.131734l13.824 4.266667z" fill="#FE8A23" /><path d="M1002.496734 678.766933c-1.937067 12.782933-22.075733 59.383467-30.122667 73.3184-34.005333 58.922667-66.440533 93.781333-125.354666 127.880534-28.253867 16.349867-53.538133 23.7056-83.9936 26.197333-1.3056 0.110933-3.268267 2.491733-3.413334 3.080533-6.135467 4.437333-19.515733 11.3152-27.332266 12.3648-7.714133-0.3584-14.737067 1.544533-22.912 4.1216l-26.257067 8.285867-48.955733-0.887467-18.397867-3.771733-15.9232-1.954133 6.485333-3.2c2.688-1.322667 7.424-3.797333 9.1392-5.3248l14.754134-13.1584 0.6912 13.525333c0.349867 6.826667 21.230933 20.206933 44.1856 3.874133l18.039466-12.8256c6.408533-4.5568 29.457067-6.8096 28.0832-15.121066-1.390933-8.405333-11.195733-14.301867-20.599466-18.9696l-24.311467-12.0832 10.112-4.667734 2.926933-3.157333 20.898134 0.085333 4.608-0.128c1.092267-0.034133 1.5104-1.399467 2.039466-2.7136l5.640534-0.213333c1.262933-0.0512 3.6864-2.235733 3.6096-2.594133l11.8784-3.072c5.5808-0.4864 12.151467-2.747733 15.709866-6.434134 2.2528-0.597333 6.528-2.039467 8.840534-2.875733 1.117867-0.401067 2.551467-2.133333 3.029333-2.901333 0.8704-0.0256 2.286933-0.059733 3.072-0.196267 2.773333-0.4864 8.823467-2.269867 11.281067-3.677867l19.857066-11.3664c3.1232-1.783467 7.8848-7.5264 9.1392-9.838933 1.373867-0.887467 4.650667-1.749333 5.896534-2.798933l11.818666-9.966934c3.746133-3.157333 7.748267-6.109867 10.7776-8.200533l-1.6128 7.133867c-2.9696 13.175467-7.773867 26.325333-14.506666 38.536533-3.9936 7.253333-9.079467 17.348267-13.559467 22.946133l-21.0176 26.282667c-4.292267 5.367467-9.557333 10.402133-14.293333 14.9504 1.220267 0.170667 7.022933 1.143467 8.5504 0.904533l15.7952-2.500266c10.436267-1.655467 16.0768-11.153067 33.322666-15.5136l-7.022933-0.896c-2.0736-0.264533-2.8416-7.936-1.604267-9.975467l21.384534-35.1488 12.6976-21.802667c5.973333-10.257067 11.127467-21.12 16.503466-32.145066l11.050667-27.042134 2.1504 11.246934c14.071467-5.623467 24.721067-11.008 34.858667-19.4816l17.058133-14.2592c4.215467-3.524267 11.912533-10.683733 14.890667-14.805334l21.000533-29.115733c7.773867-10.769067 14.2848-22.877867 20.744533-34.858667l13.166934-24.405333c3.037867-5.623467 3.9168-14.1568 5.486933-21.597867l3.976533-18.909866c1.425067 6.690133 1.7408 15.863467 0.110934 22.8608l-11.246934 48.494933-2.807466 18.474667zM797.509001 847.0528l9.258666-14.856533-13.653333 8.311466c-1.2032 0.733867-4.932267 5.239467-3.5328 5.435734l7.927467 1.109333z m-51.729067 40.2176l-11.9808 3.780267 2.005333 6.357333 11.9808-3.780267-2.005333-6.357333z" fill="#FA6511" /><path d="M624.453001 39.432533l3.054933-4.957866-16.315733-20.369067c-8.8064 9.122133-22.2208 5.3248-31.965867 19.524267-14.660267 21.367467-23.944533 44.714667-27.562667 70.408533l-3.4048 24.200533-3.413333 25.105067c-0.3584 2.653867-0.0512 9.301333 2.321067 10.154667l8.6016 3.106133c4.992 1.800533 9.565867 3.805867 14.933333 6.203733 0.187733 0.042667 8.695467-0.6912 10.717867-1.979733l16.699733-10.6496c-20.992-26.197333-16.938667-18.0736-16.648533-52.8128 0-0.887467 3.7376-4.317867 3.328-3.6864l3.080533 11.784533c-13.329067 24.669867 14.702933 35.319467 15.940267 48.913067-14.250667 5.239467-10.794667 8.362667-30.532267 13.184-62.702933-30.8224-89.762133 8.994133-115.549867-13.064533-3.362133-11.101867 9.361067-6.5792 25.0624-39.005867l3.310934-6.8352c8.6528-17.8688 10.077867-76.091733 69.76-110.967467 46.242133-27.016533 75.784533 25.787733 74.8288 26.581334l-6.229334 5.162666z" fill="#788D2A" /><path d="M138.334601 776.610133c1.5872 1.467733 5.034667 5.828267 6.638933 8.618667l18.466133 32.059733c5.0432 8.763733 16.503467 22.2976 24.251734 30.6176 30.498133 32.776533 4.770133 31.684267 22.536533 37.751467l19.029333 6.493867c2.116267 0.725333 7.492267 2.090667 10.4704 2.3296l15.377067 1.220266 25.284267 3.319467c7.185067 8.917333 17.954133 12.637867 27.050666 13.892267 18.577067 2.56 3.968 12.032 33.1776 10.385066 4.872533-0.273067 11.6992 0.3584 16.170667 1.954134 34.952533 12.458667 29.832533 0.981333 45.909333 1.373866 6.152533 0.145067 17.3056-1.425067 22.698667-3.754666 4.548267-1.962667 16.384 4.0192 21.973333 7.125333 31.36 17.408 20.599467 5.4528 45.892267 12.270933 29.6448 7.995733 88.968533-3.029333 98.218667-15.889066l8.354133 1.032533 15.9232 1.954133 18.397867 3.771734 48.955733 0.887466 26.257067-8.285866c8.183467-2.577067 15.197867-4.48 22.912-4.1216-1.646933 4.821333-29.3376 11.588267-36.445867 12.791466l-19.2256 3.2512c-19.882667 3.362133-42.2912 1.442133-60.9024-4.676266-25.693867-8.439467-20.949333 4.258133-55.7312 12.936533-3.285333 0.8192-10.197333 2.321067-13.226667 2.4064l-32.938666 0.989867c-28.245333 0.853333-54.766933-2.389333-79.778134-15.854934-8.849067-4.7616-18.5088-3.012267-28.322133-1.194666l-18.653867 3.456c-4.6592 0.861867-15.505067 1.0496-20.3264 0.366933l-19.140266-2.705067c-27.8016-3.925333-53.393067-13.252267-77.371734-26.9824-24.2176-13.866667-42.888533 5.819733-127.061333-56.917333-6.050133-4.5056-12.3904-10.692267-18.0224-15.931733l-24.209067-22.519467c-2.816-2.619733-6.894933-9.207467-8.277333-12.526933-7.0144-16.8192 0.785067 0.2048-14.685867-22.528l-10.146133-14.907734c-6.050133-8.891733-10.8032-16.443733-13.610667-24.832-0.273067-0.810667 1.339733-1.1008 1.928534-0.494933l3.2 3.336533c3.575467 3.720533 8.567467 8.951467 12.347733 11.639467l25.591467 18.244267 14.865066 10.606933c7.458133 5.3248 20.548267 14.148267 28.0832 15.351467 6.050133 0.964267-3.2256-21.367467-1.885866-18.3296z" fill="#FB6C13" /><path d="M624.453001 39.432533l-20.829867 22.186667c-10.3936 11.067733-13.738667 28.612267-18.833067 42.052267 0.4096-0.631467-3.319467 2.798933-3.328 3.6864-0.290133 34.730667-4.343467 26.606933 16.648534 52.8128l-16.699734 10.6496c-2.0224 1.288533-10.530133 2.0224-10.717866 1.979733-5.358933-2.397867-9.941333-4.4032-14.933334-6.203733l-8.6016-3.106134c-2.372267-0.853333-2.679467-7.509333-2.321066-10.154666l3.413333-25.105067 3.4048-24.200533c3.618133-25.693867 12.9024-49.041067 27.562667-70.408534 9.745067-14.199467 23.168-10.3936 31.965866-19.524266l16.315734 20.369066-3.054934 4.957867z" fill="#5C741E" /><path d="M642.816734 118.903467c1.450667 5.6576 20.974933 7.227733 37.538133 19.677866l-17.1008 7.415467c-2.628267 1.143467-4.6336 7.6288-6.314666 12.2624l-17.143467 0.810667c-11.716267 0.554667-27.895467 2.321067-35.9936 5.290666-1.245867-13.5936-29.277867-24.2432-15.940267-48.913066 2.756267-5.077333 53.751467-0.119467 54.946134 3.447466z" fill="#F85C08" /><path d="M759.603934 909.243733c0.145067-0.597333 2.107733-2.978133 3.413333-3.080533-0.443733 0.503467-2.372267 2.3296-3.413333 3.080533z" fill="#FC6710" /><path d="M396.869001 856.797867l9.890133 26.385066c9.1904 24.5248 12.654933 23.159467 18.6368 39.688534-5.393067 2.321067-16.5376 3.899733-22.698667 3.754666-0.554667-1.365333-2.5344-5.632-3.754666-7.3472l-20.369067-28.637866c-17.058133-23.978667-12.2624-29.422933-22.0416-43.426134l-14.122667-50.0736c-4.983467-17.681067-11.1104-53.5296-12.629333-72.251733l-2.5088-31.069867-1.809067-34.090666-1.4336-12.356267c-2.6112-22.4512-1.211733-44.424533 0.3072-66.816l1.28-18.858667c0.989867-14.532267 0.571733-28.680533 1.979734-42.5728l2.542933-25.079466 3.3024-27.332267c9.8304-81.373867 39.6288-186.9056 90.436267-252.9024l15.0016-19.4816 14.139733-10.837333c2.244267-1.7152 6.9376-2.594133 13.269333-2.833067-9.992533 20.983467-7.6544 9.3184-22.331733 34.3808-11.5712 19.746133-21.256533 39.432533-29.013333 61.0816-14.3104 39.953067-25.7792 80.119467-33.3056 122.376533l-5.521067 31.018667-3.191467 21.444267-2.9184 21.597866-3.003733 24.635734c-6.2464 51.2512-5.930667 169.506133 0.136533 221.192533l2.901334 24.738133 3.0976 20.855467 2.474666 15.837867c1.911467 12.228267 3.771733 24.4736 7.108267 36.386133l7.3472 26.248533c1.169067 4.1728 5.461333 10.820267 6.784 14.3616z" fill="#ED5005" /><path d="M661.829001 834.944c-8.379733 3.191467 0.981333 6.340267-6.690134 21.5552l-17.527466 34.7392c-2.244267 4.445867-7.594667 10.641067-7.3984 14.4896l-14.754134 13.1584c-1.7152 1.527467-6.4512 4.002133-9.1392 5.3248l-6.485333 3.2-8.354133-1.032533c28.970667-40.2944 27.025067-65.954133 35.456-93.934934l10.922666-36.232533 2.389334-16.392533 3.584-24.576 3.072-21.077334c1.024-7.022933 1.792-14.4384 2.321066-21.870933l1.570134-21.888 2.6368-48.529067c0.290133-5.3248 1.621333-13.149867 1.621333-18.602666l-0.042667-98.7392c0-4.104533-1.408-11.451733-1.6384-15.470934l-2.3808-42.717866-2.850133-33.809067-2.722133-21.572267-3.0464-21.444266-3.310934-21.538134a537.9584 537.9584 0 0 0-10.965333-53.2224l-8.234667-31.829333c-1.911467-7.3728-4.437333-17.416533-7.04-23.7568l-19.652266-47.726933c-1.698133-4.130133-7.04-11.716267-10.922667-16.9728 3.345067-22.971733 48.110933 54.801067 50.833067 60.305066 7.313067 14.839467 27.050667 68.701867 30.250666 82.679467l9.813334 42.9056c1.1264 4.9152 2.0736 10.8544 2.833066 15.7696l3.2256 20.974933 2.8928 21.597867 3.089067 27.716267c0.989867 8.900267 2.5088 18.807467 2.8672 27.409066l2.2016 52.514134 1.501867 49.3056c0.196267 6.4768-1.220267 15.121067-1.501867 21.5552l-2.389333 55.330133c-0.366933 8.5504-1.5104 18.432-2.525867 27.221333l-3.242667 28.125867c-2.670933 23.168-8.6272 55.3216-13.7216 77.917867l-4.497066 19.959466-2.065067 9.173334z" fill="#ED4C03" /><path d="M299.077001 195.5072c-2.9696 1.322667-8.174933 5.444267-11.349334 8.029867l-13.8496 11.281066c-44.3136 36.078933-78.702933 86.784-100.5824 139.511467-2.141867 5.154133-6.382933 12.475733-8.029866 17.408l-9.489067 28.450133-3.2768 10.461867c-4.4544 14.208-8.763733 28.168533-11.52 43.042133l-8.0128 43.298134c-1.314133 7.0912-2.005333 14.5664-2.645333 21.614933l-2.816 30.805333c-2.048 22.4256-1.988267 45.064533 0.017066 67.5328l2.4832 27.946667c0.7424 8.337067 2.397867 17.3568 4.053334 25.335467l6.971733 33.672533c1.194667 5.751467 3.396267 12.970667 5.367467 18.466133l8.994133 25.070934c13.312 37.0944 21.8112 42.043733 35.882667 66.645333 1.186133 2.082133 3.208533 7.227733 4.821333 9.6l9.198933 13.499733c2.2016 3.234133 20.6592 27.332267 22.237867 28.9536l23.031467 23.5776c1.339733 1.373867 3.848533 4.846933 4.5568 5.9904l-15.377067-1.220266c-2.978133-0.238933-8.354133-1.604267-10.4704-2.3296l-19.029333-6.493867c-17.774933-6.0672 7.9616-4.974933-22.536534-37.751467-7.748267-8.32-19.2-21.853867-24.251733-30.6176l-18.466133-32.059733c-1.604267-2.781867-5.051733-7.150933-6.638934-8.618667l-11.298133-25.531733c-6.186667-13.9776-17.681067-47.223467-20.616533-61.218133l-6.954667-33.134934c-1.322667-6.289067-2.423467-14.5408-3.054933-21.1712l-2.653867-27.835733c-1.621333-17.024-1.245867-35.131733 0.008533-52.087467l1.834667-24.814933 2.3296-24.4736c2.389333-25.130667 13.038933-76.3648 21.597867-98.722133l14.4896-37.828267c2.2272-5.828267 4.608-12.458667 7.210666-17.664l20.821334-41.582933c2.3808-4.753067 7.381333-11.741867 10.769066-16.2816l29.124267-39.0144c10.6752-14.301867 36.317867-37.495467 50.525867-46.685867 1.792-1.160533 5.922133-2.653867 8.337066-4.010667l12.928-7.278933 22.016-12.373333c1.646933-0.930133 9.207467-0.6656 8.388267 0.5888l-5.051733 10.018133z" fill="#EF5004" /><path d="M883.106867 755.131733l-11.050666 27.042134c-5.376 11.016533-10.530133 21.888-16.503467 32.145066l-12.6976 21.802667-21.384533 35.1488c-1.237333 2.039467-0.469333 9.710933 1.604266 9.975467l7.022934 0.896c-17.245867 4.360533-22.894933 13.858133-33.322667 15.5136l-15.7952 2.500266c-1.527467 0.238933-7.330133-0.733867-8.5504-0.904533 4.736-4.539733 10.001067-9.5744 14.293333-14.9504l21.0176-26.282667c4.48-5.597867 9.565867-15.6928 13.559467-22.946133 6.7328-12.219733 11.528533-25.361067 14.506667-38.536533l1.6128-7.133867c2.423467-1.672533 4.4032-6.715733 5.4528-9.6512 17.902933-25.002667 31.701333-80.4352 36.608-113.28l2.824533-18.901333 2.5856-21.316267 2.978133-33.9456c2.474667-28.219733 0.8192-66.449067-2.850133-94.933333l-2.807467-21.802667c-6.903467-53.6064-26.3936-114.986667-52.215466-162.372267-12.544-23.031467-24.917333-45.6192-41.668267-65.937066-15.394133-18.679467-30.5152-34.7136-49.646933-48.110934l-27.1616-19.012266c-0.221867-1.681067 2.833067-5.546667 4.2752-5.1456l25.719466 14.276266c21.179733 11.758933 63.616 49.6384 78.1056 69.418667l15.872 21.674667c6.212267 8.482133 12.740267 18.193067 17.621334 27.4688l10.641066 20.206933c13.201067 25.070933 26.88 64 33.8432 92.125867l8.5504 34.551466c1.518933 6.144 2.679467 14.429867 3.498667 20.9408l3.131733 24.9088c5.162667 41.070933 5.563733 87.3472 0 128.426667l-3.729066 27.562667c-4.676267 34.577067-13.294933 67.6096-25.949867 98.5856z" fill="#EE4D03" /><path d="M591.480201 926.378667c-9.2416 12.859733-68.573867 23.8848-98.218667 15.889066-25.2928-6.818133-14.532267 5.137067-45.892267-12.270933-5.597867-3.106133-17.425067-9.088-21.973333-7.125333-5.981867-16.529067-9.4464-15.163733-18.6368-39.688534l-9.890133-26.385066 8.9856 6.6048c3.720533 2.730667 12.356267 8.234667 16.8192 9.787733l18.653866 6.5024c4.3008 1.501867 15.104 4.292267 19.899734 4.343467l58.752 0.657066 52.3776-15.854933 16.238933-8.149333c10.786133-5.538133 21.9392-12.9024 30.685867-21.085867l7.6544-7.159467c-8.439467 27.9808-6.485333 53.632-35.456 93.934934z" fill="#FC6710" /><path d="M356.531934 847.2064c9.7792 14.0032 4.992 19.447467 22.0416 43.426133l20.369067 28.637867c1.220267 1.723733 3.2 5.981867 3.754666 7.3472-16.068267-0.384-10.948267 11.093333-45.909333-1.373867-4.471467-1.595733-11.2896-2.2272-16.170667-1.954133-29.2096 1.646933-14.609067-7.825067-33.1776-10.385067-9.096533-1.2544-19.8656-4.974933-27.050666-13.892266l-25.284267-3.319467c-0.708267-1.134933-3.217067-4.616533-4.5568-5.9904l-23.031467-23.5776c-1.578667-1.621333-20.036267-25.719467-22.237866-28.9536l-9.198934-13.499733c-1.6128-2.372267-3.6352-7.517867-4.821333-9.6l11.946667 9.0112c17.7664 13.405867 49.860267 28.740267 71.8592 35.1232 26.4448 7.671467 48.631467 13.294933 74.965333 1.3824 3.2-1.450667 6.357333-10.2912 6.485333-12.398934z" fill="#FD6910" /><path d="M482.791134 125.482667c-15.701333 32.426667-28.424533 27.904-25.0624 39.005866l-30.549333-4.718933c-14.293333-2.210133-25.634133-3.746133-39.031467 0.341333l-52.804267 16.110934c-10.077867 3.072-26.973867 15.1552-36.266666 19.285333l5.051733-10.018133c0.827733-1.2544-6.7328-1.518933-8.388267-0.5888l-22.016 12.373333-12.928 7.278933c-2.414933 1.3568-6.545067 2.850133-8.337066 4.010667 1.4336-8.1152 42.811733-29.5936 52.343466-33.646933 23.517867-9.992533 48.904533-16.170667 73.2928-20.5056 1.536-0.273067 3.9168-1.826133 3.5584-2.884267-0.349867-1.058133-2.730667-5.486933-3.822933-5.845333l-23.748267-7.7824c4.608-7.7568 48.7168-21.1456 52.4288-21.230934l45.806934-1.083733c11.707733-0.273067 22.562133 3.438933 30.472533 9.915733z" fill="#F96B0C" /><path d="M689.331934 856.2944l-2.926933 3.157333-10.112 4.667734 24.311466 12.0832c9.403733 4.676267 19.208533 10.564267 20.599467 18.9696 1.373867 8.311467-21.674667 10.564267-28.0832 15.121066l-18.039467 12.8256c-22.954667 16.324267-43.844267 2.944-44.1856-3.874133l-0.6912-13.525333c-0.196267-3.84 5.154133-10.043733 7.3984-14.4896l17.527467-34.7392c7.671467-15.2064-1.681067-18.3552 6.690133-21.5552l1.032534 13.9776c8.7808 3.498667 18.363733 7.338667 26.4704 7.3728zM837.419401 789.410133c-3.0208 2.090667-7.031467 5.0432-10.7776 8.200534l-11.818667 9.966933c0.349867-0.648533 2.858667-4.2752 4.087467-5.504l18.184533-18.184533c1.237333-1.237333 5.128533-3.780267 5.768533-4.1216-1.0496 2.926933-3.029333 7.970133-5.4528 9.6512zM768.649267 835.2512c2.747733-4.3008 12.2624-6.843733 25.173334-15.1552l15.104-9.719467c-1.2544 2.304-6.016 8.046933-9.1392 9.838934l-19.857067 11.3664c-2.4576 1.408-8.507733 3.191467-11.281067 3.677866zM753.707401 841.224533c-3.5584 3.694933-10.120533 5.956267-15.709867 6.434134l2.773333-3.012267 12.936534-3.4304zM716.877534 853.546667c-0.529067 1.314133-0.955733 2.679467-2.039467 2.7136l-4.608 0.128c0.4096-0.708267 4.667733-2.7648 6.647467-2.8416zM762.547934 838.3488l3.029333-2.901333c-0.477867 0.776533-1.902933 2.500267-3.029333 2.901333zM722.518067 853.333333l3.6096-2.594133c0.085333 0.3584-2.346667 2.551467-3.6096 2.594133zM797.509001 847.0528l-7.927467-1.109333c-1.399467-0.196267 2.3296-4.701867 3.5328-5.435734l13.653333-8.311466-9.258666 14.856533zM733.846067 890.96704l11.979094-3.779413 2.005333 6.355626-11.979093 3.779414z" fill="#FC6710" /></svg>