<?xml version="1.0" standalone="no"?><!DOCTYPE svg PUBLIC "-//W3C//DTD SVG 1.1//EN" "http://www.w3.org/Graphics/SVG/1.1/DTD/svg11.dtd"><svg class="icon" width="256px" height="256.00px" viewBox="0 0 1024 1024" version="1.1" xmlns="http://www.w3.org/2000/svg"><path d="M1021.8752 341.879467c0.1024 11.306667-0.298667 33.3824 1.698133 45.226666-1.476267 2.670933-2.926933 6.792533-2.8928 10.973867l1.681067 224.8192-363.767467 168.584533-12.1344 11.357867 1.288534-5.1712-21.879467 9.591467c-1.655467 0.725333-5.358933 1.6896-7.074133 1.774933l-0.0768-4.232533c-0.110933-1.885867-1.109333-5.597867-1.8176-6.519467l0.068266-11.938133-0.0768-4.7872 0.256-37.367467c0.034133-5.393067 1.092267-3.140267 1.109334-19.3536l0.0256-20.471467 0.110933-15.223466 0.366933-52.130134 0.068267-50.346666 0.085333-64.802134 2.542934-4.394666 16.631466-7.6544 10.180267-4.5568 16.3584-7.236267 15.8464-7.04 68.0448-30.506667 14.4128-6.459733 25.8816-11.767467 21.700267-10.026666 11.5968-5.179734 32.597333-14.2336 18.8928-8.3712 21.725867-9.6512 20.0704-8.925866 13.3888-5.9648 54.843733-24.6016 24.6272-11.485867c4.292267-2.005333 9.352533-2.6368 13.602133-1.92z" fill="#EEE4CD" /><path d="M1021.8752 341.879467c-4.2496-0.7168-9.309867-0.085333-13.602133 1.92l-24.6272 11.485866-54.843734 24.6016-13.3888 5.9648-20.0704 8.925867-21.725866 9.6512-18.8928 8.3712-32.597334 14.2336-11.5968 5.179733-21.700266 10.026667-25.8816 11.767467-14.4128 6.459733-68.0448 30.506667-15.8464 7.04-16.3584 7.236266-10.180267 4.5568-16.631467 7.6544c-2.090667 0.964267-7.159467 2.4064-8.311466 4.352l-2.944 4.974934c-0.853333 1.442133-5.802667 1.3824-6.6048-0.1024-1.732267-3.2-6.212267-9.813333-9.5744-10.538667-25.2672-5.4528-8.482133-10.205867-25.403734-5.674667l-4.1984-8.4224c-16.298667-6.971733-17.2544-0.443733-26.555733-6.007466-16.145067-9.6512-9.335467 1.399467-24.661333-7.261867l-6.4256 0.733867-25.489067-11.1104c-2.730667-1.186133-6.6304-3.362133-9.719467-5.060267l-9.796266-5.384533c-1.877333-1.032533-6.784 1.3568-9.4464 2.858666l-11.144534-2.363733c-2.901333-0.6144-6.4-8.046933-9.216-9.088l-11.4432-4.241067c-4.6336-1.7152-7.7312-1.792-13.824-1.450666-10.658133 0.5888-9.992533-6.3232-28.245333-6.050134l-11.153067-5.998933c-9.9584-5.3504-3.566933-9.924267-15.701333-6.5536-1.9712 0.546133-6.4768-1.1264-8.507733-2.235733-1.6896-0.930133-7.6288-0.708267-9.531734-1.664l-21.051733-10.564267c-9.5744-4.804267-1.527467 2.312533-21.5552-2.645333-6.306133-1.5616-42.837333-10.606933-42.274133-17.578667l-11.281067 0.0256-9.710933-7.9104c-15.940267-5.5552-16.0256-2.7392-32.546134-9.1648l-10.1632-3.950933-12.433066 4.701866c-0.520533 4.2752-1.493333 10.129067-1.5872 13.8752l-0.64 24.9856c-0.682667 26.487467 4.0192 10.871467-7.176534 26.333867l-10.257066-2.628267c-3.618133-0.930133-5.640533-3.242667-9.454934-4.906666l-15.470933-6.7328c-15.547733-6.766933-8.840533 9.4976-21.495467-0.494934-2.8672-2.261333-7.458133-5.845333-10.0096-6.698666l-11.451733-3.848534c-18.602667-6.254933-2.935467 1.7408-22.912-3.703466l-13.405867-3.652267c-8.430933-2.295467-16.477867-3.626667-25.096533-4.829867l-11.016533-1.536 2.466133 14.011734 2.158933 13.098666-2.952533 25.309867-1.536 13.2352c-0.247467 2.116267-1.28 5.947733-2.346667 7.389867l-2.670933 3.618133c-1.860267 2.525867 9.864533 2.56 7.816533 9.437867l-3.054933 10.257066c-0.6144 2.0736-0.7936 6.306133-0.759467 9.053867l10.257067-4.2752c1.809067-0.750933 4.4544-1.408 5.9392-1.0496 6.545067 1.595733-3.669333 8.439467-0.7936 14.165333 5.870933 11.6992-1.8688-0.725333-1.783467 28.782934 0.059733 20.317867-11.170133 16.443733-4.855466 22.971733l6.562133 6.784c0.580267 0.597333 4.130133 2.167467 4.0704 1.3312l-0.366933-5.384533c-0.0512-0.7936-1.706667-3.387733-1.0752-3.874134l4.164266-3.2c0.9984-0.768 6.289067-0.8192 6.664534 0.3584 3.7632 11.665067 0.238933 18.338133 2.2272 18.798934l4.4288 1.006933c3.7376 0.853333 10.658133 1.1264 14.7712-0.733867 6.024533-2.730667-2.824533-12.9536-1.024-13.969066l4.548266-2.5856 5.102934-2.679467c1.083733-0.571733 2.756267 3.140267 2.926933 4.4544l1.928533 14.830933c2.577067 19.882667 15.291733-2.158933 21.4784 9.514667 1.408 2.645333 3.345067 6.749867 4.932267 7.816533 4.497067 3.029333 12.544-1.681067 13.696-7.2192 0.4352-2.090667 1.2544-4.7872 2.3296-5.230933 11.639467-4.744533 18.645333 8.968533 20.096 6.9632l3.259733-4.539733c9.352533-13.0048 8.5504 0.7936 9.6512-10.436267l1.3824-14.088533c5.6832 2.039467 9.864533 8.1664 9.608534 14.4128l-0.699734 16.571733c-0.162133 3.7888 2.722133 10.6752 3.831467 14.242133l4.7616 15.342934 5.2224 17.7152c2.688 9.122133 14.984533 2.670933 19.362133 10.666666l3.106134 5.674667-18.2784-6.485333c-12.834133-4.548267 3.8656-12.305067-20.778667-19.669334l-6.152533-1.834666-16.827734-5.230934-10.862933-3.6352-23.099733-7.995733-17.749334-5.418667-17.536-6.024533-9.796266-3.9936-21.922134-6.4256-12.424533-4.104533-13.568-4.6336c-11.4176-3.899733-7.150933-18.850133-6.894933-23.620267 0.64-11.989333 1.365333-23.381333 0.6912-35.5584l-1.152-20.881067c-0.853333-15.479467-0.2304-30.626133-0.093867-46.114133l0.110933-12.8768-0.631466-51.456c11.946667-10.129067 9.745067-6.2208 24.7552-10.3424 24.994133-6.869333 10.0096-4.795733 40.226133-18.235733 4.753067-2.116267 9.3696-5.358933 14.711467-8.337067 10.2912-5.751467 10.7776 0.836267 27.656533-9.344 16.861867-10.171733 5.538133-1.9712 25.4208-10.129067l15.5136-6.365866 11.690667-4.6848 25.284266-11.1616c11.5456-5.0944 28.014933-5.981867 37.8624-2.9184l12.9792 4.036266 13.738667 4.036267c6.9632-2.056533 21.8624 4.1216 30.148267 0.392533l13.303466-5.981866 9.403734-4.027734 13.764266-5.4528c27.784533-11.008 11.6736-7.799467 29.038934-13.824l18.1504-6.2976 22.4512-8.2432c4.855467-1.783467 9.181867-3.84 13.9008-6.033066 18.926933-8.763733 18.167467-5.802667 30.958933-12.433067l15.505067-8.0384c4.9152-2.551467 10.743467-4.898133 16.2816-7.1424l10.8288-4.394667 17.92-7.2704c17.834667-7.236267 9.762133-5.486933 26.197333-11.067733 8.942933-3.037867 17.032533-6.997333 25.787733-11.170133l7.765334-1.655467c22.5792-4.8128 12.305067 1.493333 23.722666 2.688 4.539733 0.477867 12.3392 1.664 16.878934 2.7904l17.134933 4.266667 12.151467 3.0208 16.802133 5.2736 25.019733 6.690133 18.884267 5.051733 15.5648 3.694934 11.5712 2.679466c4.565333 1.058133 10.453333 3.003733 14.4896 4.949334 18.577067 8.951467-0.375467-0.6144 25.8048 6.434133l17.058133 4.590933c14.830933 3.9936 23.671467 3.208533 37.8624 12.6208l10.743467 2.747734 9.019733 2.286933 12.970667 3.037867 12.7488 2.833066 11.648 3.054934 19.7632 5.495466c4.334933 1.2032 11.8016 2.4576 15.300267 3.9424 7.125333 3.029333 14.088533 6.434133 21.435733 8.209067l16.955733 4.096 9.002667 4.061867c2.542933 1.152 5.888 1.800533 7.867733 3.498666 1.774933 1.527467 5.265067 3.848533 6.929067 3.9168l12.5952 0.546134c28.091733 1.211733 20.2752 16.861867 36.394667 6.9632l8.1152 2.056533c2.030933 0.512 5.751467 1.911467 5.768533 3.6352zM129.0496 610.773333l-11.810133-7.8848 1.9712 12.1088 9.838933-4.224z" fill="#FBF8E9" /><path d="M170.308267 422.903467l1.6384 1.8944 1.826133 15.1808 2.491733 16.7424c0.238933 1.604267-0.418133 5.5552-1.2544 6.647466l-3.6864 4.8384c-0.836267 1.092267 1.928533 4.189867 2.7904 5.4784l5.154134 7.7056-6.007467-1.595733c-1.442133-0.384-3.908267 2.184533-5.0432 3.985067-7.296 11.605333 15.232 19.985067 1.954133 36.770133l3.106134 12.910933 4.3776 17.570134c0.7936 3.182933 2.5856 10.683733 4.9664 12.637866l9.608533 7.8592c12.2112 9.992533-1.851733 16.571733 0.4864 30.805334l-8.3712 1.5616c-2.619733 0.4864-7.406933 3.029333-7.0144 5.307733 3.003733 17.476267-3.541333 19.208533 0.068267 22.8864 2.295467 2.338133 8.4736 5.7856 11.4176 6.331733 5.162667 0.964267 7.296-8.567467 23.168 4.9152 0.452267 8.3456 1.348267 15.0016 6.016 21.8368 2.3296 3.4048 10.555733 0.093867 12.509866-3.6608 6.852267-13.098667 27.101867 2.525867 33.979734-13.909333 0.878933-2.0992 4.462933-5.76 5.700266-4.5568 2.5344 2.466133 7.236267 7.330133 10.0096 8.456533l17.373867 7.022934 7.594667-6.229334 8.439466 4.078934c1.6128 0.785067 7.5008 1.450667 8.797867 2.6368l14.805333 13.661866 8.721067 3.874134c3.3024 5.6064 7.4752 10.5984 11.076267 14.6432 1.681067 2.090667 3.84 9.847467 6.7584 10.3168l27.460266 4.386133c1.245867 0.196267 5.435733-1.732267 5.768534-0.631467l1.7152 5.589334c0.674133 2.210133 2.312533 8.814933 4.590933 9.301333 2.107733 0.452267 7.748267-0.853333 10.0608-1.365333l10.2656 8.994133c0.597333 0.520533 2.961067 2.193067 3.6352 1.774933 5.538133-3.4048 6.289067-6.6304 6.4512-6.596266 11.861333 2.432 12.654933 5.649067 18.065067 7.381333 5.12 1.6384 11.8528 2.568533 15.726933 5.3248 2.6368 1.877333 6.178133 5.461333 8.192 4.898133 1.774933-0.494933 5.6832-3.464533 7.552-4.599466 1.595733-0.964267 5.367467 3.797333 6.126933 5.333333l-4.8384-0.2304c-1.032533-0.0512-1.928533 4.5824-1.604266 5.589333 3.925333 12.032 20.3776-6.664533 23.978666 2.432l8.448 2.056534 6.357334 11.076266c1.5104 0.1536 7.364267 0.290133 9.233066 0.981334l14.600534 5.410133 9.3184-5.009067c2.3552-1.271467 7.8592 4.4544 10.538666 4.872534 4.5312 0.708267 12.458667 0.384 17.646934 0.1792l10.026666-0.4096 4.923734-11.562667c0.2816-0.657067-0.042667-4.5568-0.725334-4.497067l-4.625066 0.4096c-3.072 0.273067-9.3696-2.8416-9.301334-6.5024 0.042667-2.210133 6.024533-2.884267 8.712534-2.901333 2.449067-0.017067 5.521067-6.212267 4.983466-8.789333-0.733867-3.5328 0.503467-7.3216 2.056534-10.274134 2.2784-4.360533 1.792-19.643733-7.296-21.393066l4.7872-3.106134c1.297067-0.8448 3.319467-3.618133 3.3024-5.154133-0.093867-8.4736-13.090133-2.0992-16.221867-11.136-3.831467-11.0592 8.977067-9.3184 4.6336-23.330133l-4.027733-12.987734-4.206934-13.3376c-0.733867-2.338133-0.520533-6.997333 0.3328-9.5744 6.7584-20.514133-0.861867-10.436267 6.792534-22.357333l-2.321067-10.026667 9.8304-8.618666c1.749333-11.178667 14.7712-17.373867 18.5344-14.481067 1.348267 1.032533 2.082133 5.3504 2.0992 7.168l0.110933 12.526933c0.017067 1.450667-0.128 4.334933-0.264533 6.656l-0.9216 16.503467c-1.2544 22.4512 5.853867 15.189333 0.392533 24.226133l-5.956266 9.847467-2.6368 0.785067c3.464533 7.688533 6.801067 13.6192 6.775466 19.7888l-0.2048 48.597333c-0.093867 21.1456 8.6528 9.582933 1.425067 21.1712-1.271467 2.030933 0.989867 7.159467 3.0464 8.302933l-0.256 37.367467c-0.2048-0.273067-3.080533 2.5856-2.167467 3.2256l2.244267 1.570133-0.068267 11.938134c-0.008533 1.783467 1.109333 5.614933 1.8176 6.519466l0.0768 4.232534c-1.962667 0.093867-5.870933-0.5376-8.226133-1.2544l-9.941333-3.029334-19.345067-6.382933-24.2688-7.483733c-8.004267-2.466133-16.3328-5.9648-24.226133-8.951467-30.011733-11.349333-16.529067-1.501867-36.317867-11.605333-4.744533-2.423467-11.221333-4.693333-16.597333-6.331734l-14.711467-4.471466-11.101867-3.601067-14.574933-5.085867-13.124267-4.8896-23.3728-7.9872-9.258666-3.106133-13.056-4.3264-13.124267-4.343467-18.5344-6.126933-14.378667-4.744533c-7.125333-2.346667-14.813867-6.365867-22.050133-8.192-23.304533-5.888-16.750933-6.3232-27.8272-9.838934l-19.473067-6.178133c-10.333867-3.2768-20.411733-6.0672-30.395733-9.8048-7.842133-2.935467-15.3856-5.4528-23.406933-8.021333l-14.097067-4.522667-3.106133-5.674667c-4.3776-8.004267-16.674133-1.544533-19.362134-10.666666l-5.2224-17.7152-4.7616-15.342934c-1.109333-3.566933-3.9936-10.4448-3.831466-14.242133l0.699733-16.571733c0.264533-6.2464-3.925333-12.373333-9.608533-14.4128l-1.3824 14.088533c-1.1008 11.229867-0.298667-2.568533-9.6512 10.436267l-3.259734 4.539733c-1.442133 2.005333-8.456533-11.707733-20.096-6.9632-1.0752 0.4352-1.8944 3.140267-2.3296 5.230933-1.152 5.538133-9.198933 10.248533-13.696 7.2192-1.578667-1.066667-3.524267-5.1712-4.932266-7.816533-6.1952-11.6736-18.901333 10.376533-21.4784-9.514667l-1.928534-14.830933c-0.170667-1.314133-1.8432-5.0176-2.926933-4.4544l-5.102933 2.679467-4.548267 2.5856c-1.800533 1.024 7.048533 11.246933 1.024 13.969066-4.113067 1.860267-11.025067 1.5872-14.7712 0.733867l-4.4288-1.006933c-1.988267-0.452267 1.536-7.125333-2.2272-18.798934-0.375467-1.1776-5.666133-1.117867-6.664533-0.3584l-4.164267 3.2c-0.64 0.4864 1.015467 3.080533 1.0752 3.874134l0.366933 5.384533c0.059733 0.836267-3.490133-0.725333-4.0704-1.3312l-6.562133-6.784c-6.314667-6.528 4.9152-2.6624 4.855467-22.971733-0.085333-29.508267 7.6544-17.083733 1.783466-28.782934-2.875733-5.725867 7.338667-12.5696 0.7936-14.165333-1.4848-0.3584-4.130133 0.290133-5.9392 1.0496l-10.257066 4.2752c-0.034133-2.747733 0.145067-6.980267 0.759466-9.053867l3.054934-10.257066c2.048-6.877867-9.6768-6.912-7.816534-9.437867l2.670934-3.618133c1.058133-1.442133 2.0992-5.2736 2.346666-7.389867l1.536-13.2352 2.952534-25.309867-2.158934-13.098666-2.466133-14.011734 11.016533 1.536c8.610133 1.2032 16.6656 2.5344 25.096534 4.829867l13.405866 3.652267c19.985067 5.444267 4.317867-2.551467 22.912 3.703466l11.451734 3.848534c2.551467 0.853333 7.1424 4.437333 10.0096 6.698666 12.654933 9.992533 5.947733-6.263467 21.495466 0.494934l15.470934 6.7328c3.822933 1.664 5.845333 3.976533 9.454933 4.906666l10.257067 2.628267c11.195733-15.4624 6.493867 0.1536 7.176533-26.333867z m119.406933 245.905066c3.114667-3.310933 3.336533-5.777067-2.730667-2.3296-1.6896 0.145067-0.964267 0.622933 2.730667 2.3296zM441.173333 730.564267l-4.0192 4.923733 7.722667 6.306133 4.0192-4.923733-7.722667-6.306133z" fill="#F4F2E1" /><path d="M621.4656 517.469867l-2.542933 4.394666-0.085334 64.802134-0.068266 50.346666-0.366934 52.130134-0.110933 15.223466-0.0256 20.471467c-0.017067 16.2048-1.0752 13.960533-1.109333 19.3536-2.065067-1.134933-4.317867-6.263467-3.0464-8.302933 7.227733-11.588267-1.518933-0.0256-1.425067-21.1712l0.2048-48.597334c0.0256-6.1696-3.3024-12.100267-6.775467-19.7888l2.6368-0.785066 5.956267-9.847467c5.461333-9.0368-1.646933-1.774933-0.392533-24.226133l0.9216-16.503467c0.128-2.3296 0.273067-5.213867 0.264533-6.656l-0.110933-12.526933c-0.017067-1.8176-0.750933-6.135467-2.0992-7.168-3.7632-2.8928-16.785067 3.3024-18.5344 14.481066l-9.8304 8.618667 2.321066 10.026667c-7.662933 11.921067-0.042667 1.834667-6.792533 22.357333-0.8448 2.577067-1.066667 7.236267-0.3328 9.5744l4.206933 13.3376 4.027734 12.987733c4.334933 14.0032-8.4736 12.2624-4.6336 23.330134 3.131733 9.0368 16.128 2.6624 16.221866 11.136 0.017067 1.536-2.005333 4.309333-3.3024 5.154133l-4.7872 3.106133c9.088 1.749333 9.582933 17.032533 7.296 21.393067-1.544533 2.961067-2.7904 6.741333-2.056533 10.274133 0.5376 2.577067-2.5344 8.7808-4.983467 8.789334-2.688 0.017067-8.661333 0.682667-8.712533 2.901333-0.0768 3.669333 6.229333 6.775467 9.301333 6.5024l4.625067-0.4096c0.674133-0.059733 0.9984 3.848533 0.725333 4.497067l-4.923733 11.562666-10.026667 0.4096c-5.188267 0.213333-13.115733 0.529067-17.646933-0.1792-2.679467-0.418133-8.183467-6.135467-10.538667-4.872533l-9.3184 5.009067-14.600533-5.410134c-1.8688-0.6912-7.722667-0.827733-9.233067-0.981333l-6.357333-11.076267-8.448-2.056533c-3.601067-9.096533-20.053333 9.6-23.978667-2.432-0.3328-1.006933 0.571733-5.640533 1.604267-5.589333l4.8384 0.2304c-0.759467-1.536-4.5312-6.2976-6.126933-5.333334-1.8688 1.1264-5.777067 4.104533-7.552 4.599467-2.005333 0.5632-5.5552-3.029333-8.192-4.898133-3.874133-2.756267-10.606933-3.677867-15.726934-5.3248-5.410133-1.732267-6.203733-4.949333-18.065066-7.381334-0.1536-0.034133-0.913067 3.191467-6.4512 6.596267-0.674133 0.418133-3.037867-1.2544-3.6352-1.774933l-10.2656-8.994134c-2.312533 0.512-7.9616 1.8176-10.0608 1.365334-2.269867-0.4864-3.908267-7.082667-4.590934-9.301334l-1.7152-5.589333c-0.341333-1.1008-4.5312 0.827733-5.768533 0.631467l-27.460267-4.386134c-2.9184-0.469333-5.077333-8.2176-6.7584-10.3168-3.601067-4.0448-7.773867-9.0368-11.076266-14.6432l-8.721067-3.874133-14.805333-13.661867c-1.297067-1.194667-7.176533-1.860267-8.797867-2.6368l-8.439467-4.078933-7.594666 6.229333-17.373867-7.022933c-2.781867-1.1264-7.4752-5.998933-10.0096-8.456533-1.237333-1.2032-4.821333 2.4576-5.700267 4.5568-6.877867 16.4352-27.136 0.810667-33.979733 13.909333-1.962667 3.754667-10.1888 7.0656-12.509867 3.6608-4.667733-6.8352-5.563733-13.4912-6.016-21.8368-15.872-13.482667-18.005333-3.959467-23.168-4.9152-2.952533-0.554667-9.122133-3.9936-11.4176-6.331733-3.6096-3.677867 2.935467-5.418667-0.068266-22.8864-0.392533-2.2784 4.394667-4.821333 7.0144-5.307734l8.3712-1.5616c-2.338133-14.242133 11.7248-20.821333-0.4864-30.805333l-9.608534-7.8592c-2.3808-1.954133-4.1728-9.454933-4.9664-12.637867l-4.3776-17.570133-3.106133-12.910933c13.277867-16.785067-9.2416-25.173333-1.954133-36.770134 1.134933-1.800533 3.601067-4.369067 5.0432-3.985066l6.007466 1.595733-5.154133-7.7056c-0.861867-1.288533-3.626667-4.386133-2.7904-5.4784l3.6864-4.8384c0.836267-1.092267 1.493333-5.0432 1.2544-6.647467l-2.491733-16.7424-1.826134-15.1808-1.6384-1.8944 0.64-24.9856c0.093867-3.746133 1.066667-9.6 1.5872-13.8752l12.433067-4.701866 10.1632 3.950933c16.520533 6.4256 16.605867 3.6096 32.546133 9.1648l9.710934 7.9104 11.281066-0.0256c-0.5632 6.971733 35.968 16.017067 42.274134 17.578667 20.027733 4.957867 11.9808-2.158933 21.5552 2.645333l21.051733 10.564267c1.902933 0.955733 7.842133 0.733867 9.531733 1.664 2.030933 1.117867 6.528 2.7904 8.507734 2.235733 12.1344-3.362133 5.742933 1.2032 15.701333 6.5536l11.153067 5.998933c18.261333-0.273067 17.5872 6.638933 28.245333 6.050134 6.101333-0.341333 9.1904-0.264533 13.824 1.450666l11.4432 4.241067c2.816 1.041067 6.314667 8.4736 9.216 9.088l11.144533 2.363733c2.6624-1.501867 7.569067-3.8912 9.4464-2.858666l9.796267 5.384533c3.089067 1.698133 6.997333 3.874133 9.719467 5.060267l25.489066 11.1104 6.4256-0.733867c15.317333 8.661333 8.516267-2.389333 24.661334 7.261867 9.309867 5.563733 10.257067-0.964267 26.555733 6.007466l4.1984 8.4224c16.9216-4.5312 0.136533 0.221867 25.403733 5.674667 3.362133 0.725333 7.842133 7.338667 9.5744 10.538667 0.802133 1.4848 5.751467 1.544533 6.6048 0.1024l2.944-4.974934c1.152-1.9456 6.229333-3.387733 8.311467-4.352zM618.7264 804.8128c-0.708267-0.913067-1.826133-4.744533-1.8176-6.519467 0.708267 0.930133 1.698133 4.642133 1.8176 6.519467zM616.9856 786.346667l-2.244267-1.570134c-0.913067-0.64 1.962667-3.498667 2.167467-3.2256l0.0768 4.7872z" fill="#F6EFDD" /><path d="M129.0496 610.773333l-9.838933 4.224-1.9712-12.1088 11.810133 7.8848z" fill="#F4F2E1" /><path d="M437.154133 735.424l4.0192-4.92544 7.722667 6.30272-4.020053 4.924587zM289.7152 668.808533c-3.6864-1.706667-4.411733-2.184533-2.730667-2.3296 6.0672-3.447467 5.8368-0.981333 2.730667 2.3296z" fill="#F6EFDD" /></svg>