<?xml version="1.0" standalone="no"?><!DOCTYPE svg PUBLIC "-//W3C//DTD SVG 1.1//EN" "http://www.w3.org/Graphics/SVG/1.1/DTD/svg11.dtd"><svg t="1778769416428" class="icon" viewBox="0 0 1024 1024" version="1.1" xmlns="http://www.w3.org/2000/svg" p-id="2355" xmlns:xlink="http://www.w3.org/1999/xlink" width="256" height="256"><path d="M682.47 185.47c-27.54-27.54-65.32-38.61-101.1-33.21-5.4 35.77 5.66 73.55 33.21 101.1s65.32 38.61 101.1 33.21c5.4-35.77-5.66-73.55-33.21-101.1z" fill="#879D4B" p-id="2356"></path><path d="M698.2 300.37c-34.37 0-67.89-13.62-92.46-38.18-25.31-25.31-39.21-60.36-38.14-96.17 0.45-14.99 12.55-27.09 27.54-27.54 35.8-1.08 70.85 12.83 96.17 38.14 29.17 29.17 42.9 70.96 36.73 111.8l-1.38 9.12-9.12 1.38a129.9 129.9 0 0 1-19.34 1.45z m17.48-13.81h0.01-0.01z m-116.5-123.13c-1.09 0-2.19 0.02-3.29 0.05-1.77 0.05-3.25 1.53-3.3 3.3-0.88 29.37 10.07 56.98 30.83 77.74 21.32 21.32 50.99 32.43 80.89 30.68 1.75-29.9-9.36-59.57-30.68-80.89-19.98-19.99-46.32-30.88-74.45-30.88z" p-id="2357"></path><path d="M766.94 288.59c-14.12-14.12-33.8-19.27-52-15.47-11.97 2.5-24.36 1.03-35.65-3.67-101.8-42.37-242.35-6.39-346.63 97.9-105.11 105.11-140.83 247.05-96.88 349.03 4.55 10.55 6.12 22.17 4.23 33.5-2.94 17.56 2.36 36.22 15.89 49.76s32.19 18.83 49.76 15.89c11.33-1.89 22.95-0.32 33.5 4.23 101.98 43.95 243.93 8.23 349.03-96.88 104.28-104.28 140.27-244.84 97.9-346.63-4.7-11.29-6.17-23.68-3.67-35.65 3.8-18.2-1.35-37.89-15.47-52z" fill="#FFDB53" p-id="2358"></path><path d="M432.9 850.66c-3.85 0-7.67-0.08-11.48-0.23-31.27-1.27-60.61-7.73-87.22-19.19-8.54-3.68-17.7-4.85-26.49-3.38-22.14 3.7-44.82-3.54-60.66-19.38-15.84-15.84-23.09-38.52-19.38-60.66 1.47-8.79 0.3-17.95-3.38-26.49-11.47-26.61-17.93-55.95-19.19-87.22-1.24-30.6 2.51-62.34 11.15-94.33 17.84-66.06 55.04-128.74 107.56-181.27 52.1-52.1 114.27-89.16 179.78-107.16 31.73-8.72 63.24-12.63 93.66-11.64 31.06 1.02 60.27 7.14 86.84 18.2 9.29 3.87 19.08 4.9 28.29 2.97 23.07-4.81 46.77 2.24 63.39 18.87 16.63 16.63 23.68 40.33 18.86 63.4-1.92 9.22-0.9 19 2.97 28.29 11.06 26.56 17.18 55.78 18.2 86.84 1 30.42-2.92 61.93-11.64 93.66-18 65.51-55.06 127.67-107.16 179.78-52.53 52.53-115.21 89.72-181.27 107.56-28.01 7.56-55.82 11.38-82.85 11.38z m-117.72-48.42c9.8 0 19.62 2.04 28.91 6.04 47.34 20.4 105.99 22.84 165.14 6.87 61.84-16.7 120.67-51.67 170.11-101.11 49.04-49.04 83.87-107.39 100.73-168.72 16.11-58.64 14.15-116.98-5.53-164.27-5.81-13.96-7.32-28.84-4.37-43.01 3.08-14.79-1.43-29.97-12.07-40.61s-25.83-15.16-40.61-12.07c-14.17 2.96-29.04 1.45-43.01-4.37-47.29-19.68-105.63-21.65-164.27-5.53-61.34 16.86-119.68 51.69-168.72 100.73-49.44 49.44-84.4 108.26-101.11 170.11-15.97 59.15-13.54 117.79 6.87 165.14 5.58 12.96 7.34 26.97 5.08 40.5-2.37 14.19 2.26 28.72 12.4 38.86s24.67 14.78 38.86 12.4c3.84-0.64 7.71-0.96 11.59-0.96z" p-id="2359"></path><path d="M433 504.67a21.85 24.51 0 1 0 43.7 0 21.85 24.51 0 1 0-43.7 0Z" p-id="2360"></path><path d="M544.91 504.67a21.85 24.51 0 1 0 43.7 0 21.85 24.51 0 1 0-43.7 0Z" p-id="2361"></path><path d="M511.33 622.15c-23.97 0-45.86-12.16-58.56-32.53-3.65-5.86-1.87-13.57 3.99-17.22 5.86-3.65 13.57-1.87 17.22 3.99 8.11 13 22.07 20.76 37.35 20.76s29.24-7.76 37.35-20.76c3.65-5.86 11.36-7.65 17.22-3.99 5.86 3.65 7.65 11.36 3.99 17.22-12.7 20.37-34.59 32.53-58.56 32.53z" p-id="2362"></path></svg>