<?xml version="1.0" standalone="no"?><!DOCTYPE svg PUBLIC "-//W3C//DTD SVG 1.1//EN" "http://www.w3.org/Graphics/SVG/1.1/DTD/svg11.dtd"><svg class="icon" width="256px" height="256.00px" viewBox="0 0 1024 1024" version="1.1" xmlns="http://www.w3.org/2000/svg"><path d="M815.332503 300.46653c1.937001 3.780139 3.993465 7.22749 3.55828 11.784136-0.409586 112.090086 0.051198 224.222838-0.145062 336.270259l-6.826436 20.470777c-4.206791 0.930102-8.737839-1.501816-9.906866-5.444083-2.628178-8.874367-0.238925-35.702263-0.341322-47.435201-0.051198-5.606211 2.517248-15.931196-3.404685-18.781233l-20.470776-10.239655V348.225986c-19.754 0.733842-38.330441 7.500547-57.000745 12.953163-8.09786 2.363654-19.335881-0.136529-24.541039 9.582611-1.467684 30.590968 0.691177 61.344065-0.204793 91.935032-0.179194 6.015797-3.549747 10.76017-3.711875 16.767435-0.78504 29.609668 0.887437 59.372931 0.162128 89.008198-0.247458 10.08606 0.059731 6.092595-6.834969 11.809735l-208.351374 42.451902c-9.471681 6.271788-6.621643 53.826451-6.621643 66.736949h-23.892528c-0.093864-19.284683 0.145062-38.714428 0-58.007644 8.174658 6.322987 15.385081 2.07353 22.35658-3.234024l1.68101-234.078506c0.511983-4.556646-1.715142-7.995464-3.55828-11.784136 10.017795 2.85857 16.340782-4.73584 23.883994-6.826436 41.726593-11.57081 86.320289-20.018525 128.678327-30.002188 65.081538-15.333883 130.640927-28.944091 195.500607-45.071547z m-171.719009 150.522924c-13.328617 2.542848-27.732398 18.593506-29.601135 32.041586-2.713508 19.506542-2.619645 56.650889 22.185919 59.765451 24.737299 3.097496 38.279242-39.618931 35.75346-59.722786-1.629812-12.987295-12.808101-35.036685-28.338244-32.075718z" fill="#C3EAEA" /><path d="M214.759691 310.697652c5.077162 4.812638 6.553379 2.363654 11.26362 4.095862 29.413408 10.836968 60.234769 20.240384 90.100428 29.328077 43.68066 13.285952 88.496215 24.942092 131.93795 37.989119 6.638709-4.590779 12.074259-8.678107 5.563546-16.8101 3.421751 4.795572 9.966597 9.514346 13.652873 17.057558 1.851671 3.788672 4.070263 7.22749 3.55828 11.784136l-1.68101 234.078506c-6.971498 5.316087-14.181922 9.557011-22.35658 3.234024 0-1.134895 0.008533-2.278323 0-3.413218-0.093864-9.027962 1.442085-19.062824-1.638344-27.297213h-1.774874c-0.127996-14.685371 0.247458-29.507272-0.162128-44.192643-24.01199-8.618376-48.254373-16.647972-72.471156-24.779964-19.404146-6.519247-51.60786-21.725134-72.257829-19.771066-10.896699 1.032499-46.76109 15.879998-56.3437 22.296848-1.612746 1.083697-13.038494 10.95643-13.738204 11.8524-9.480214 7.270155-18.038858 1.629812-20.547573-8.456248l0.076797-230.409296c1.535948-3.984932 1.467684-3.652143 3.413218-6.826437-1.032499 6.169392-0.068264 6.937366 3.413219 10.239655z" fill="#B3E5E6" /><path d="M665.193566 109.368975c-3.9508-0.127996-9.411949 6.570445-10.239654 6.826436-55.072276 16.955162-129.019649 18.875097-185.909464 30.778696l-151.91381 27.228948c-2.551381-2.252724-8.678107-3.933734-12.023061-6.02433l-5.04303 2.611112c1.979667-30.462973-2.628178-63.886912-0.136529-93.974431 0.870371-10.546844 7.893067-15.376548 16.076258-21.460609C420.687679 37.827921 524.321517 18.29578 629.243845 3.482413c3.797205-0.537582 7.108027-3.123095 10.487113-3.421752 11.553744-1.015432 23.892528 10.896699 25.445542 22.288315 3.600945 26.384177-2.636711 59.782517 0 87.011466z" fill="#EBEBE3" /><path d="M815.332503 300.46653c-64.859679 16.127456-130.410535 29.737664-195.500607 45.071547-42.358038 9.97513-86.943201 18.431378-128.678327 30.002188-1.186093-12.304652 17.59514-14.002728 20.052657-22.604038-4.966233-38.799758 25.675934-62.666687 46.342971-90.151626 32.596234-43.339338 65.968975-87.805039 95.604242-133.021647 1.937001-2.952434 8.806103-11.997462 1.79194-13.567543 0.827705-0.255991 6.288855-6.954432 10.239654-6.826436l100.809401 129.523098c14.053926 18.055924 39.209344 41.820456 49.329536 61.565924z" fill="#D7F1F0" /><path d="M228.412563 546.149978c-4.223858 5.409951-4.778506 18.337515-6.971498 25.445542 0.827705 87.625845-0.622912 175.268756 0.153595 262.886067 0.051198 5.614744-2.517248 15.931196 3.404685 18.781234 0.230392 4.880902-0.947168 8.823169 1.621279 13.738203 1.339688 2.568447 18.832432 19.370013 22.348046 22.015257 19.003092 14.309917 48.194641 26.964424 69.356594 39.84079 28.764897 17.501276 57.069009 37.06755 86.354422 53.553394 17.526876 9.864201 36.197179 21.119288 38.850956-7.850402 6.041396-65.968975-2.355121-143.952479-0.290124-211.858455 0.870371-28.534504 1.023965-47.913051 0.145062-76.626749-0.58878-19.250551 0.230392-38.740027 0-58.007644h3.413218c0.008533 1.134895 0 2.278323 0 3.413218 0.136529 19.293216-0.093864 38.722961 0 58.016177h23.892528v274.68727c6.442449 24.327713 23.150153 24.592237 45.344604 21.460609 79.758377-25.21515 165.660546-39.866389 244.804544-65.721517 17.68047-5.776872 32.195181-10.649241 37.434471-30.812827-3.549747-92.831003 4.778506-189.143488 0-281.513706-0.179194-3.396152 0.11093-6.843503 0-10.239655 5.921934 2.841504 3.353487 13.166489 3.404685 18.781234 0.102397 11.732938-2.286856 38.5523 0.341322 47.4352 1.169027 3.942267 5.700074 6.374185 9.906866 5.444083l6.826436-20.470776c-0.145062 83.555582 0.11093 167.205028 0 250.803275-5.495281 19.480943-17.953528 31.427207-36.572633 38.501101-51.650525 19.626005-118.037619 31.649066-172.452851 45.933384-25.624736 6.72404-51.002013 15.760535-76.609683 22.348047-16.562641 4.25799-68.332629 18.986026-81.0554 17.799933-16.434646-1.535948-39.388538-13.200621-54.201905-21.025425-60.18357-31.785595-116.928323-73.281795-176.130593-107.089721l-16.528509-31.248013-0.170661-555.066081c0.366921-1.800473 2.841504-1.979667 2.926834-2.192992l-0.076797 230.409296c2.508715 10.08606 11.075893 15.726403 20.547574 8.456248z" fill="#CDE8E3" /><path d="M317.130638 174.203055c6.980031 6.177925 13.209155 22.714967 18.849498 30.625101 8.191724 11.494012 17.185554 22.749099 25.513806 34.208979-2.431918 15.8032-26.776697 17.654871-37.681929 22.040857-31.469872 12.645974-64.723151 26.6743-95.476247 41.009817-5.247823 2.448984-8.771971 5.879268-13.576075 8.609843-3.481483-3.302289-4.445717-4.070263-3.413219-10.239655 27.126552-44.312106 61.702452-85.28779 88.718075-129.66816l5.04303-2.611112c3.344954 2.090596 9.471681 3.763073 12.023061 6.02433z" fill="#8ECDCC" /><path d="M654.953912 116.195411c7.014163 1.57008 0.145062 10.606576-1.79194 13.567543-29.635267 45.216608-63.008008 89.682309-95.604242 133.021647-20.667036 27.48494-51.309203 51.343335-46.342971 90.151626-2.457517 8.60131-21.23875 10.299386-20.052657 22.604038-7.543212 2.090596-13.866199 9.685007-23.883994 6.826436-3.677743-7.551745-10.231122-12.261986-13.652873-17.057558-30.23258-42.400703-61.531792-84.135829-92.131293-126.254942-8.328252-11.45988-17.322082-22.714967-25.513806-34.208979-5.640343-7.918666-11.869466-24.455709-18.849498-30.625101l151.91381-27.228948c56.881282-11.903599 130.837188-13.823534 185.909464-30.778695z" fill="#E2F5F4" /><path d="M685.664343 580.273627c6.894701-5.717141 6.587511-1.723675 6.834969-11.809735 0.725309-29.626734-0.947168-59.389997-0.162128-89.008198 0.162128-6.007264 3.532681-10.743104 3.711875-16.767435 0.887437-30.590968-1.262891-61.344065 0.204793-91.935033 5.213691-9.710606 16.443179-7.210423 24.541039-9.58261 18.670304-5.452616 37.255277-12.219321 57.000745-12.953163V587.082997c-1.996733 10.307919-32.664498 27.382543-42.631096 27.28868-3.285223-0.025599-6.664309-2.781773-10.36765-3.310822-11.007629-1.561547-18.934828-1.09223-28.961157-8.550111l-3.75454-16.733303-6.408317-5.52088z" fill="#E1F7F7" /><path d="M685.664343 580.273627l6.408317 5.520881 3.75454 16.733302c10.026329 7.457882 17.962061 6.988564 28.961157 8.550112 3.703342 0.520516 7.090961 3.276689 10.36765 3.310821 9.966597 0.093864 40.642896-16.980761 42.639629-27.288679l20.470776 10.239654c0.11093 3.396152-0.179194 6.843503 0 10.239655-6.322987-3.199892-17.765801-8.370918-23.372012-2.850037-1.169027 1.151961-1.262891 5.461149-3.771606 8.021062-10.999096 11.203889-25.053022 13.874732-40.105314 18.004727-54.833351 15.060825-111.834095 27.945724-167.205028 40.950085-29.567003 6.937366-59.782517 12.35585-89.63111 17.859665-2.116195 1.817539 3.652143 20.718235-3.498549 23.798664V689.479544c0-12.919031-2.841504-60.465161 6.621643-66.736949l208.351374-42.451902z" fill="#E7F1E6" /><path d="M643.613494 450.989454c15.530143-2.960967 26.708433 19.088423 28.338244 32.075718 2.525781 20.103855-11.016162 62.820281-35.75346 59.722786-24.805563-3.106029-24.890894-40.258909-22.185919-59.765451 1.868737-13.44808 16.272518-29.498738 29.601135-32.041586z" fill="#DEF5F4" /><path d="M228.412563 546.149978c0.69971-0.904503 12.125458-10.777237 13.738204-11.8524 9.58261-6.41685 45.447001-21.26435 56.3437-22.296848 20.64997-1.954067 52.853684 13.25182 72.257829 19.771066 24.216783 8.131992 48.459166 16.161588 72.471156 24.779964 0.418119 14.685371 0.034132 29.507272 0.162128 44.192643 0.076797 9.070627-0.11093 18.235118 0 27.297213 0.230392 19.267617-0.58878 38.757093 0 58.007644l-70.687749-29.976589-147.698486-79.212262c3.148694 91.286521-4.232391 185.440146 0 276.393878-5.921934-2.841504-3.353487-13.166489-3.404685-18.781233-0.776507-87.617312 0.674111-175.260223-0.153595-262.886067 2.192993-7.108027 2.747641-20.035591 6.971498-25.445542z" fill="#E1F1E7" /><path d="M453.625235 365.30061c6.510714 8.140525 1.075164 12.219321-5.563546 16.8101-43.441735-13.038494-88.25729-24.694634-131.93795-37.989119-29.874192-9.087694-60.68702-18.49111-90.100428-29.328077-4.701708-1.732208-6.177925 0.716776-11.26362-4.095862 4.804105-2.730575 8.328252-6.160859 13.576075-8.609843 30.753096-14.335517 64.006375-28.363843 95.476247-41.009817 10.905232-4.377452 35.250011-6.237656 37.681929-22.040857 30.599501 42.119113 61.898712 83.862772 92.131293 126.254942z" fill="#94D7D7" /><path d="M446.798798 628.050149h-3.413218c-0.11093-9.070627 0.076797-18.226585 0-27.297213h1.774874c3.080429 8.234389 1.535948 18.269251 1.638344 27.297213z" fill="#C3EAEA" /><path d="M798.274945 607.57084c4.778506 92.370218-3.55828 188.682703 0 281.513706-5.23929 20.17212-19.754 25.035956-37.434471 30.812827-79.143998 25.855128-165.046167 40.506367-244.804544 65.721517-22.185918 3.131628-38.902155 2.867103-45.336071-21.460609V713.355006c7.142159-3.080429 1.37382-21.981125 3.490016-23.798664 29.848593-5.503814 60.064108-10.922298 89.63111-17.859665 55.370933-13.004361 112.38021-25.88926 167.205028-40.950085 15.052292-4.129994 29.106218-6.800837 40.105314-18.004727 2.517248-2.559914 2.602579-6.869102 3.771606-8.021062 5.606211-5.52088 17.049025-0.349855 23.372012 2.850037z" fill="#F8F5E4" /><path d="M443.38558 686.057793c0.870371 28.722231 0.716776 48.092245-0.145062 76.626749-2.064997 67.905977 6.33152 145.88948 0.290124 211.858455-2.653777 28.978223-21.324081 17.714603-38.850956 7.850402-29.285412-16.477311-57.589524-36.052117-86.354422-53.553394-21.161953-12.876366-50.353502-25.530872-69.356594-39.84079-3.515615-2.645244-21.008358-19.438278-22.348046-22.015257-2.568447-4.915034-1.390886-8.857301-1.621279-13.738204-4.232391-90.953733 3.148694-185.107357 0-276.393878l147.698486 79.212262 70.687749 29.976589z" fill="#FBFBEE" /></svg>