<?xml version="1.0" standalone="no"?><!DOCTYPE svg PUBLIC "-//W3C//DTD SVG 1.1//EN" "http://www.w3.org/Graphics/SVG/1.1/DTD/svg11.dtd"><svg class="icon" width="256px" height="256.00px" viewBox="0 0 1024 1024" version="1.1" xmlns="http://www.w3.org/2000/svg"><path d="M1018.1376 427.818667c1.1008-23.936 0.477867-49.9968 0-74.1376-0.119467-6.186667 3.805867-19.080533-5.102933-17.885867 0.682667 17.186133-2.295467 35.950933-6.186667 52.608-27.067733 115.899733-130.3808 267.2384-218.769067 346.154667-71.6288 63.957333-185.0368 120.746667-281.181866 132.923733-165.3504 20.932267-346.513067-42.939733-442.103467-184.174933-27.221333-40.226133-53.307733-94.293333-53.819733-143.018667-8.900267-1.194667-4.974933 11.6992-5.102934 17.885867-0.315733 16.0768-0.580267 32.5632 0 48.571733-8.866133-4.258133-5.034667-19.7376-5.0944-28.1344-0.981333-129.5104 1.4336-246.741333 126.037334-318.72 119.313067-68.906667 243.1232-35.831467 364.945066-74.7264C599.424 150.784 661.8624 58.001067 780.322133 44.305067c6.7328-0.776533 12.049067-5.870933 20.292267-5.230934 5.230933 0.401067 10.24 4.7104 15.6672 5.230934 66.312533 6.3488 125.559467 28.330667 163.3792 87.1168 51.191467 79.581867 44.381867 176.8704 43.5712 268.253866-0.0768 8.405333 3.771733 23.867733-5.0944 28.1344zM771.268267 76.151467c-89.079467 9.5744-177.501867 106.513067-273.1008 135.893333-95.957333 29.4912-200.661333 11.0592-293.102934 44.322133-244.386133 87.944533-192.674133 394.1632-1.681066 513.288534 299.4944 186.8032 627.456-33.5104 745.8048-321.314134 50.594133-123.042133 62.933333-303.6416-84.360534-360.576-31.496533-12.177067-59.835733-15.240533-93.559466-11.613866z" fill="#CB7C4D" /><path d="M506.888533 867.490133c5.879467 36.181333-10.333867 25.0368-35.182933 31.325867 0 13.166933-19.191467 25.6512-15.786667 37.461333 2.0736 7.202133 31.7696 19.797333 40.7552 18.141867l-5.12 20.4288c8.482133-0.136533 17.0752 0.221867 25.557334 0l-53.7856 10.120533c-226.7136 0.546133-448.580267-133.077333-457.454934-378.222933-0.580267-16.008533-0.315733-32.494933 0-48.571733 0.119467-6.186667-3.805867-19.080533 5.102934-17.885867 0.503467 48.725333 26.589867 102.801067 53.819733 143.018667 95.5904 141.2352 276.753067 205.1072 442.103467 184.174933z" fill="#B45F34" /><path d="M788.0704 734.5664c13.346133 7.108267 14.071467 22.340267 15.342933 35.805867l30.660267-10.2656 2.56 15.351466 17.902933-10.205866-5.111466 20.437333c-79.650133 87.7312-208.6656 185.966933-332.3136 189.1584-8.482133 0.221867-17.0752-0.145067-25.557334 0l5.12-20.4288c-8.9856 1.655467-38.6816-10.939733-40.7552-18.141867-3.396267-11.8016 15.786667-24.2944 15.786667-37.461333 24.849067-6.289067 41.053867 4.864 35.182933-31.325867 96.1536-12.177067 209.5616-68.9664 281.181867-132.923733z" fill="#AB552C" /><path d="M1018.1376 427.818667c-6.306133 137.002667-79.5648 259.6864-168.712533 357.870933l5.111466-20.437333-17.902933 10.205866-2.56-15.351466-30.660267 10.2656c-1.271467-13.4656-1.9968-28.6976-15.342933-35.805867 88.388267-78.916267 191.701333-230.254933 218.769067-346.154667 3.8912-16.657067 6.869333-35.4304 6.186666-52.608 8.900267-1.194667 4.974933 11.6992 5.102934 17.885867 0.477867 24.1408 1.1008 50.2016 0 74.1376z" fill="#A24924" /><path d="M771.268267 76.151467c33.723733-3.626667 62.071467-0.554667 93.559466 11.613866 147.293867 56.942933 134.954667 237.5424 84.360534 360.576-118.3488 287.7952-446.3104 508.1088-745.8048 321.314134-190.993067-119.125333-242.705067-425.344 1.681066-513.288534 92.433067-33.262933 197.137067-14.830933 293.102934-44.322133 95.598933-29.380267 184.021333-126.318933 273.1008-135.893333zM634.7008 182.417067c-30.583467 20.369067-75.963733 42.862933-112.3328 53.819733-49.783467 15.0016-102.161067 20.898133-153.489067 28.032-0.3584 22.263467 5.879467 40.635733-0.938666 62.933333-7.790933 25.463467-35.6096 47.6416-16.8192 74.897067 13.969067 20.266667 50.978133 25.437867 74.052266 33.3056 9.429333 3.217067 17.621333 11.3664 28.049067 12.842667 41.565867 5.896533 47.6416-17.595733 74.350933-38.109867 30.882133-23.722667 65.2544-32.785067 102.126934-15.650133 17.314133 8.046933 22.775467 24.942933 40.8064 28.2112l5.128533 10.2144c-9.079467 0.0512-18.0736 0.725333-27.144533-0.981334-30.2336-5.691733-26.615467-22.272-64.964267-6.749866-37.444267 15.1552-42.3936 53.794133-90.487467 68.002133-5.6832 1.681067-32.4096 2.7136-32.221866 8.874667 14.344533 54.2208 70.587733 50.474667 112.725333 66.167466 54.1696 20.164267 52.488533 57.028267 79.197867 94.626134 55.176533 77.653333 137.873067-34.756267 171.0336-79.214934 11.426133-15.317333 21.009067-16.674133 15.189333-43.0848-30.5664-7.876267-61.243733-6.050133-91.835733-18.090666-8.123733-3.2-53.316267-26.308267-40.823467-38.408534 24.302933-4.258133 51.2256 15.752533 74.120533 15.752534 19.0976 0 46.856533-13.6448 63.906134-20.864 70.698667-29.9264 84.155733-63.214933 97.134933-138.0352 8.8576-51.063467 10.2912-103.381333-16.145067-150.007467-4.1216-7.2704-21.1968-33.501867-25.8048-38.0928-2.568533-2.56-23.057067-17.723733-27.776-20.795733-24.942933-16.221867-67.012267-23.466667-96.315733-21.060267-65.3824 5.367467-92.475733 39.364267-140.6976 71.466667zM445.5424 570.965333c-1.629867-0.836267-6.306133 0.768-10.274133-2.304-7.697067-5.956267-25.540267-36.974933-29.508267-47.3856-8.106667-21.265067-4.727467-41.787733-28.1344-53.666133-25.582933-12.987733-70.2208-22.050133-75.221333-57.685333-6.0416-43.0592 30.830933-75.6224 0.085333-117.691734-11.042133-15.112533-20.0192-19.336533-38.656-17.988266-39.5264 2.858667-100.3008 38.459733-125.141333 69.128533-50.2528 62.062933-1.015467 52.957867 41.105066 71.552 22.715733 10.026667 36.9152 28.475733 44.808534 52.3264 12.3392 37.290667 4.113067 82.978133 39.330133 108.936533 25.915733 19.106133 71.210667 12.919467 99.797333 35.6864 1.604267 1.28 19.677867 21.828267 20.164267 23.287467 2.167467 6.570667 1.783467 15.931733-7.3472 12.4672-13.474133-5.111467-28.765867-22.391467-43.281067-28.296533-24.3712-9.924267-52.8128-5.3248-78.3616-13.661867-17.604267-5.742933-27.835733-17.8432-43.605333-25.3952-21.444267-29.713067-15.121067-71.7312-29.0048-101.376-12.066133-25.762133-46.1824-26.4192-70.698667-19.473067-50.133333 14.216533-25.258667 96.8192-11.229866 132.0704 15.650133 39.338667 55.483733 102.331733 94.737066 119.9872 44.3648 19.950933 65.3312-24.567467 104.5248-28.253866 17.954133-1.6896 61.474133 1.979733 76.2368 11.093333 6.3232 3.899733 9.898667 6.510933 8.328534 14.677333h-74.129067c-1.237333 0-21.188267 10.3168-22.075733 11.178667-2.423467 2.346667-5.009067 14.0288-10.752 17.6384-3.012267 12.885333 24.379733 30.481067 35.2768 35.2 50.244267 21.751467 138.658133 27.8016 191.7184 17.681067 61.994667-11.8272 103.458133-60.433067 94.677333-125.141334-7.1168-52.4544-113.152-73.992533-153.3696-94.592z" fill="#FBDEC8" /><path d="M634.7008 182.417067l5.111467 15.325866 14.984533-4.881066 0.9984 9.045333 60.706133 21.410133c-7.9104 7.3728-19.310933 25.2416-23.185066 35.6096C662.997333 339.968 760.32 362.641067 816.298667 320.554667c14.890667-11.195733 24.1152-29.269333 38.2464-41.002667l2.372266 15.419733c13.8752 10.999467 38.007467 7.022933 48.904534 12.552534 9.489067 4.8128 16.580267 32.170667 35.6352 33.3824-12.9792 74.820267-26.436267 108.1088-97.134934 138.0352l-5.060266-10.146134c-20.258133-0.827733-29.866667-19.490133-43.409067-30.856533-17.6896-14.848-27.2128-22.741333-51.140267-20.241067-21.410133 2.244267-22.8352 0.571733-41.0624-0.017066-5.2224-0.170667-11.3408 5.256533-12.706133 5.0176-2.858667-0.512-7.970133-11.383467-20.445867 0-18.030933-3.268267-23.492267-20.164267-40.8064-28.2112-36.872533-17.134933-71.2448-8.064-102.126933 15.650133-26.7008 20.514133-32.785067 44.0064-74.350933 38.109867-10.4192-1.476267-18.6112-9.6256-28.049067-12.842667-23.074133-7.867733-60.0832-13.038933-74.052267-33.3056-18.7904-27.255467 9.0368-49.4336 16.8192-74.897067 6.818133-22.306133 0.5888-40.669867 0.938667-62.933333 51.336533-7.133867 103.714133-13.0304 153.489067-28.032 36.369067-10.965333 81.749333-33.4592 112.3328-53.819733z" fill="#E97D6E" /><path d="M690.935467 422.7072v15.3344c-3.3792 0.162133-6.8352-0.1792-10.222934 0 1.536-6.101333 5.1968-7.1168 0-15.325867h10.222934zM680.712533 438.0416c-4.4288 17.536 0.315733 14.5664 0.452267 28.125867 0.093867 9.352533-6.510933 17.8688-5.9648 27.716266-8.2944-1.3568-16.290133 5.444267-22.664533 5.589334-7.7312 0.1792-14.122667-7.893333-21.188267-9.514667-7.799467-1.783467-16.0512 0.315733-23.808-1.757867-14.506667-3.882667-29.073067-11.272533-43.8016-14.958933l-5.853867-26.914133c-0.2816-7.944533 30.6688-9.378133 26.043734 6.852266 21.998933-12.637867 45.832533 2.4064 67.6352-5.930666 12.782933-4.881067 9.480533-8.1152 29.141333-9.207467z" fill="#E97D6E" /><path d="M445.5424 570.965333c40.2176 20.599467 146.2528 42.1376 153.3696 94.592 8.772267 64.708267-32.6912 113.314133-94.677333 125.141334-53.060267 10.120533-141.474133 4.0704-191.7184-17.681067-10.897067-4.718933-38.289067-22.314667-35.2768-35.2 5.7344-3.601067 8.32-15.2832 10.752-17.6384 0.887467-0.861867 20.8384-11.178667 22.075733-11.178667h74.129067c1.570133-8.174933-2.005333-10.7776-8.328534-14.677333-14.754133-9.105067-58.282667-12.7744-76.2368-11.093333-39.185067 3.6864-60.16 48.2048-104.5248 28.253866-39.253333-17.655467-79.086933-80.657067-94.737066-119.9872-14.0288-35.259733-38.903467-117.853867 11.229866-132.0704 24.507733-6.954667 58.632533-6.289067 70.698667 19.473067 13.883733 29.6448 7.560533 71.662933 29.0048 101.376 15.7696 7.552 26.001067 19.652267 43.605333 25.3952 25.5488 8.328533 53.9904 3.7376 78.3616 13.661867 14.5152 5.905067 29.806933 23.1936 43.281067 28.296533 9.1392 3.464533 9.5232-5.896533 7.3472-12.4672-0.4864-1.4592-18.56-22.016-20.164267-23.287467 7.031467-5.0944 5.0176-13.166933 12.578134-20.6592 5.632-5.5808 39.7824-24.1152 43.656533-20.232533l-5.102933 20.437333c14.3872 2.781867 23.816533-8.635733 30.6688-20.445866z" fill="#EB8678" /><path d="M844.3136 478.941867c-17.0496 7.2192-44.808533 20.864-63.906133 20.864-22.894933 0-49.8176-20.002133-74.120534-15.752534-12.4928 12.100267 32.699733 35.208533 40.823467 38.408534 30.592 12.040533 61.269333 10.2144 91.835733 18.090666 5.819733 26.410667-3.7632 27.776-15.189333 43.0848-33.160533 44.4672-115.857067 156.868267-171.0336 79.214934-26.709333-37.597867-25.028267-74.461867-79.197867-94.626134-42.1376-15.6928-98.3808-11.946667-112.725333-66.167466-0.187733-6.161067 26.538667-7.1936 32.221867-8.874667 48.085333-14.208 53.0432-52.846933 90.487466-68.002133 38.3488-15.522133 34.730667 1.0496 64.964267 6.749866 9.070933 1.706667 18.065067 1.032533 27.144533 0.981334l-5.128533-10.2144c12.475733-11.383467 17.595733-0.512 20.445867 0h-10.222934c5.1968 8.226133 1.536 9.2416 0 15.3344-19.6608 1.092267-16.3584 4.3264-29.141333 9.207466-21.802667 8.337067-45.636267-6.715733-67.6352 5.930667 4.625067-16.2304-26.325333-14.7968-26.043733-6.852267l5.853866 26.914134c14.728533 3.6864 29.294933 11.076267 43.8016 14.958933 7.7568 2.0736 16.008533-0.0256 23.808 1.757867 7.0656 1.6128 13.448533 9.693867 21.188267 9.514666 6.3744-0.145067 14.370133-6.946133 22.664533-5.589333-0.546133-9.847467 6.058667-18.363733 5.9648-27.716267-0.136533-13.559467-4.881067-10.589867-0.452266-28.125866 3.387733-0.187733 6.843733 0.1536 10.231466 0v-15.3344c1.3568 0.238933 7.4752-5.179733 12.6976-5.0176 18.2272 0.5888 19.652267 2.261333 41.0624 0.017066 23.927467-2.5088 33.450667 5.393067 51.140267 20.241067 13.5424 11.3664 23.150933 30.0288 43.409067 30.856533l5.060266 10.146134z m-117.597867-10.2144c-10.769067-0.725333-22.186667-1.911467-25.557333 10.197333l25.557333-5.111467v-5.085866z m40.9088 0c-6.391467-3.328-17.860267 8.174933-15.3344 10.197333 6.391467 3.328 17.860267-8.174933 15.3344-10.197333z m35.7888 10.205866c-4.189867-13.832533-18.875733-10.1888-30.677333-10.197333 4.189867 13.832533 18.875733 10.1888 30.677333 10.197333z" fill="#EA8273" /><path d="M445.5424 570.965333c-6.852267 11.810133-16.2816 23.227733-30.6688 20.445867l5.102933-20.437333c-3.874133-3.882667-38.024533 14.660267-43.656533 20.232533-7.560533 7.492267-5.546667 15.556267-12.578133 20.6592-28.586667-22.766933-73.8816-16.580267-99.797334-35.6864-35.217067-25.9584-26.990933-71.645867-39.330133-108.936533-7.893333-23.850667-22.0928-42.299733-44.808533-52.3264-42.129067-18.594133-91.3664-9.489067-41.105067-71.552 24.832-30.6688 85.614933-66.269867 125.141333-69.128534 18.6368-1.348267 27.6224 2.884267 38.656 17.988267 30.7456 42.069333-6.126933 74.632533-0.085333 117.691733 5.000533 35.6352 49.6384 44.6976 75.221333 57.685334 23.3984 11.886933 20.0192 32.401067 28.1344 53.666133 3.968 10.402133 21.8112 41.429333 29.508267 47.3856 3.968 3.072 8.644267 1.467733 10.274133 2.304z" fill="#E98071" /><path d="M634.7008 182.417067c48.221867-32.110933 75.323733-66.0992 140.6976-71.466667 29.303467-2.4064 71.3728 4.8384 96.315733 21.060267 4.718933 3.072 25.207467 18.235733 27.776 20.795733 4.608 4.599467 21.691733 30.830933 25.8048 38.0928 26.436267 46.626133 25.002667 98.952533 16.145067 150.007467-19.054933-1.211733-26.146133-28.5696-35.6352-33.3824-10.897067-5.5296-35.029333-1.544533-48.904533-12.552534l-2.372267-15.419733c8.8576-33.3056 13.508267-70.971733-23.9872-85.930667-34.952533-13.943467-87.313067 4.753067-114.048 29.696l-60.706133-21.410133-0.9984-9.045333-14.984534 4.881066-5.111466-15.325866z" fill="#E87667" /><path d="M854.536533 279.552c-14.122667 11.733333-23.355733 29.806933-38.2464 41.002667-55.978667 42.0864-153.301333 19.413333-122.9824-61.627734 3.882667-10.368 15.2832-28.2368 23.185067-35.6096 26.734933-24.942933 79.095467-43.639467 114.048-29.696 37.495467 14.958933 32.8448 52.625067 23.9872 85.930667z m-36.727466 4.181333c7.2704-21.333333 24.567467-38.1696 6.263466-58.069333-22.638933-24.618667-62.122667-11.716267-82.090666 10.3424-15.940267 17.6128-17.109333 32.648533-15.5136 56.0128l13.354666 13.354667c19.968-0.247467 40.277333 1.800533 58.4448-7.9616 5.691733-3.063467 9.975467-12.8768 19.549867-13.678934z" fill="#FCECE0" /><path d="M803.413333 478.933333c-11.793067-0.008533-26.487467 3.6352-30.677333-10.197333 11.793067 0.008533 26.487467-3.6352 30.677333 10.197333zM726.715733 468.727467v5.085866l-25.557333 5.111467c3.370667-12.1088 14.788267-10.922667 25.557333-10.197333zM767.624533 468.727467c2.517333 2.0224-8.942933 13.525333-15.3344 10.197333-2.517333-2.0224 8.942933-13.525333 15.3344-10.197333z" fill="#E97D6E" /><path d="M817.809067 283.733333c-9.5744 0.802133-13.858133 10.624-19.549867 13.678934-18.167467 9.762133-38.4768 7.714133-58.4448 7.9616l-13.354667-13.354667c-1.604267-23.364267-0.426667-38.4 15.5136-56.0128 19.968-22.058667 59.460267-34.961067 82.090667-10.3424 18.304 19.908267 1.006933 36.736-6.263467 58.069333z" fill="#F3D8BF" /></svg>