<?xml version="1.0" standalone="no"?><!DOCTYPE svg PUBLIC "-//W3C//DTD SVG 1.1//EN" "http://www.w3.org/Graphics/SVG/1.1/DTD/svg11.dtd"><svg class="icon" width="256px" height="256.00px" viewBox="0 0 1024 1024" version="1.1" xmlns="http://www.w3.org/2000/svg"><path d="M882.551467 380.142933c-0.341333-0.136533-0.2304 5.666133 0.674133 6.852267l13.8496 18.261333 13.2352 15.8208c-4.9152 21.051733 48.657067 33.664 57.514667 45.218134 5.265067 6.869333 10.248533 14.1056 13.6704 19.1744-0.315733-0.477867-5.384533 5.597867-5.879467 8.029866l-11.716267 57.028267c-2.824533 13.730133-10.683733 32.017067-16.238933 43.477333-10.461867 21.5808-51.976533 26.231467-73.147733 29.568-34.602667 5.444267-40.2432-10.965333-89.403734-3.592533l-52.795733 7.918933c-6.0928 0.913067-69.717333-16.699733-54.340267-30.5408 55.722667-50.1504 31.4624-20.3008 104.917334-40.072533 8.0384-2.449067 7.3984-3.362133-0.964267-5.307733l-51.908267-4.386134c-5.2224-0.443733-16.426667 3.797333-19.797333 6.485334-39.355733 31.325867-45.559467 42.376533-97.646933 34.653866l-70.0416-10.376533c11.9808-19.1232 19.012267-11.5968 35.669333-38.664533 6.980267-11.3408 12.330667-23.936 15.761067-36.437334l7.5776-27.579733c0.349867-1.271467-0.384-7.2704-0.930134-7.125333s-3.5328-0.0256-4.701866-0.0512c5.418667-9.181867 12.945067-18.602667 20.957866-28.074667 25.378133-30.020267 54.161067-24.823467 84.736-42.752l0.1024-46.523733 2.901334 3.413333 1.237333 42.052267c45.1328-21.085867 47.6672-46.395733 103.808-47.488 29.397333-0.571733 57.258667 7.5776 72.9088 31.010133z m-8.482134 94.455467c-7.825067-6.2464-21.666133-13.7984-24.4736-20.352l-9.105066-21.265067c-40.174933-23.185067-50.525867-11.8528-92.125867-8.900266l-8.098133 7.569066 53.640533-0.529066c51.601067-0.512 28.6208 42.1632 80.1536 43.477333z" fill="#EC5563" /><path d="M386.304 677.9648c12.578133 28.0576 43.264 65.237333 80.170667 65.4336l81.877333 0.443733c6.980267 0.034133 21.341867 3.822933 27.8016 6.1952l50.4576 18.517334c34.295467 12.586667 71.944533 7.594667 102.058667-6.144 0.938667-0.930133 10.0352 3.8656 10.427733 6.7328l5.700267 41.088c1.6128 11.613867 3.5584 21.256533 5.589333 31.522133l11.332267 1.8688 13.8752-27.776c8.874667-17.757867 15.104-36.1216 19.6352-55.637333l6.894933-29.730134 2.986667-8.6272c1.297067-3.754667 5.137067-14.72 8.285866-17.152 50.048-38.6816 66.525867-36.753067 105.2928-63.6672l23.637334-16.4096c40.251733-27.946667 47.6416-86.126933 43.938133-128.315733l8.456533 7.799467 0.4608-13.764267 4.736-5.956267c5.12 12.8 6.784 28.578133 8.874667 44.1344 12.5184 93.0816 31.138133 85.2224-10.222933 172.0576-20.334933 42.683733-59.136 64.1024-102.954667 78.967467-25.258667 8.567467-45.704533 21.2224-64.392533 41.1392-34.500267 36.770133-78.301867 66.304-130.568534 71.0144-35.421867 3.191467-71.0912-6.826667-103.893333-17.211733l-42.939733-13.585067c-70.212267-22.212267-113.28-9.3952-147.5584-46.404267-11.835733-12.7744-22.237867-30.0544-23.278934-47.5136l-3.242666-54.459733c-0.853333-14.327467 2.594133-23.389867 6.5536-34.56z" fill="#D43646" /><path d="M576.1536 750.037333c-6.4512-2.363733-20.821333-6.152533-27.8016-6.1952l-81.877333-0.443733c-36.906667-0.196267-67.592533-37.376-80.170667-65.4336 6.843733-19.328 17.7664-36.957867 35.976533-48.503467l8.9344-7.808c1.015467-0.887467 2.56-2.909867 3.5072-4.061866 46.045867 3.0976 49.5104-17.570133 104.576-16.315734 23.415467 0.5376 42.948267 4.6336 65.595734 10.504534 38.212267 9.9072 32.6144-16.162133 83.669333 13.073066 33.006933 18.901333 96.136533 62.045867 64.810667 104.900267l-61.090134 20.206933c-18.6624 6.178133-40.4992 3.7632-60.270933 0.0512l-43.3408-8.149333c-3.3536-0.631467-13.499733 7.082667-12.526933 8.192z" fill="#EC5464" /><path d="M981.495467 485.469867c1.664 2.4576 4.514133 7.867733 4.778666 10.8288 3.703467 42.1888-3.6864 100.369067-43.938133 128.315733l-23.637333 16.4096-28.407467 3.652267c-17.911467 2.304-34.141867-3.080533-51.259733-8.209067-20.292267-6.075733-77.508267-13.090133-88.874667 0.401067-1.604267 1.902933-0.4864 9.984 1.2032 11.818666l24.302933 26.4704c6.510933 7.0912 5.572267 26.752 17.152 34.722134 6.784 16.520533-53.469867 47.6672-64.128 52.5312-30.1056 13.738667-67.7632 18.730667-102.058666 6.144l-50.4576-18.517334c-0.9728-1.109333 9.173333-8.823467 12.526933-8.192l43.3408 8.149334c19.780267 3.720533 41.608533 6.126933 60.270933-0.0512l61.090134-20.206934c31.325867-42.8544-31.803733-85.998933-64.810667-104.900266-51.0464-29.2352-45.457067-3.165867-83.669333-13.073067-22.647467-5.870933-42.180267-9.975467-65.595734-10.504533-55.0656-1.2544-58.530133 19.413333-104.576 16.315733l4.2496-5.922133c4.2496-1.416533 10.043733-4.113067 15.1296-7.1424l44.6464-26.615467-8.584533-0.477867 11.963733-5.845333c33.3312-16.2816 55.842133-38.749867 74.350934-70.1184l19.438933-32.955733c1.160533 0.0256 4.164267 0.187733 4.701867 0.0512s1.28 5.853867 0.930133 7.125333l-7.5776 27.579733c-3.4304 12.501333-8.7808 25.096533-15.761067 36.437334-16.657067 27.067733-23.688533 19.541333-35.669333 38.664533l70.0416 10.376533c52.087467 7.714133 58.2912-3.328 97.646933-34.653866 3.370667-2.679467 14.574933-6.920533 19.797334-6.485334l51.908266 4.386134c8.362667 1.9456 9.002667 2.8672 0.964267 5.307733-73.454933 19.771733-49.186133-10.077867-104.917333 40.072533-15.377067 13.841067 48.247467 31.453867 54.340266 30.5408l52.795734-7.918933c49.160533-7.381333 54.801067 9.0368 89.403733 3.592533 21.1712-3.328 62.685867-7.978667 73.147733-29.568 5.5552-11.460267 13.4144-29.7472 16.238934-43.477333l11.716266-57.028267c0.494933-2.423467 5.563733-8.507733 5.879467-8.029866z" fill="#FBACB1" /><path d="M999.9104 484.3776l-4.736 5.956267-0.4608 13.764266-8.456533-7.799466c-0.256-2.961067-3.114667-8.362667-4.778667-10.8288-3.4304-5.0688-8.405333-12.3136-13.6704-19.1744-8.8576-11.554133-62.429867-24.1664-57.514667-45.218134l-13.2352-15.8208-13.8496-18.261333c-0.896-1.186133-1.006933-6.9888-0.674133-6.852267l20.565333 18.875734c15.300267 14.037333 30.651733 26.069333 49.271467 35.9424 20.898133 11.076267 39.150933 28.501333 47.522133 49.425066z" fill="#DB4353" /><path d="M431.214933 621.6448l-8.9344 7.808c0.128-1.9456 0.162133-7.901867 2.389334-7.773867 1.570133 0.085333 5.469867 0 6.545066-0.034133z" fill="#FBEEEF" /><path d="M874.069333 474.5984c-51.5328-1.314133-28.552533-43.989333-80.1536-43.477333l-53.640533 0.529066 8.098133-7.569066c41.6-2.952533 51.9424-14.2848 92.125867 8.900266l9.105067 21.265067c2.807467 6.5536 16.648533 14.114133 24.4736 20.352z" fill="#FCA9AF" /><path d="M918.6816 641.024c-38.766933 26.914133-55.236267 24.9856-105.2928 63.6672-3.140267 2.432-6.980267 13.397333-8.285867 17.152l-2.986666 8.6272-1.390934-12.714667c-0.298667-2.756267-5.7344-6.357333-7.936-7.876266-11.5712-7.9616-10.641067-27.630933-17.152-34.722134l-24.302933-26.4704c-1.681067-1.834667-2.798933-9.915733-1.2032-11.818666 11.357867-13.4912 68.573867-6.4768 88.874667-0.401067 17.117867 5.12 33.348267 10.504533 51.259733 8.209067l28.407467-3.652267z" fill="#EB5360" /><path d="M802.1248 730.4704l-6.894933 29.730133c-4.5312 19.515733-10.760533 37.879467-19.6352 55.637334l-13.8752 27.776-11.332267-1.8688c-2.030933-10.2656-3.976533-19.908267-5.589333-31.522134l-5.700267-41.088c-0.401067-2.8672-9.4976-7.671467-10.427733-6.7328 10.658133-4.864 70.912-36.010667 64.128-52.5312 2.2016 1.5104 7.6288 5.12 7.936 7.876267l1.390933 12.714667z" fill="#F6888D" /><path d="M491.349333 136.738133c39.389867 10.257067 44.458667 24.2944 92.347734 44.8256 21.9392 9.403733 45.201067 16.708267 60.407466 32.554667-3.9424 6.8096 26.948267 47.0528 35.165867 47.325867l-1.134933 6.869333c-3.626667 21.0176-6.570667 43.733333-18.414934 62.8992-26.5728 42.9824-117.3248 48.776533-150.8352 70.741333-35.8144 23.4752-35.754667 43.067733-62.429866 62.72-1.288533-0.017067-3.003733 0.0512-3.925334-0.162133-61.525333-13.960533-115.310933 0.2816-99.413333-39.594667 5.205333-13.064533 7.057067-27.2896 7.611733-41.745066l0.9728-25.429334c1.937067-7.611733 1.288533-7.560533-2.705066-0.2048l-9.608534 27.630934-15.368533 45.320533c-19.191467 25.6512-45.755733 41.019733-74.4448 54.485333-13.550933 6.357333-38.647467 23.790933-36.411733 39.330134l-5.0432 0.315733-0.725334-7.739733c-3.8656 3.5072-5.998933 6.442667-7.688533 5.700266l-5.8368-2.577066c-9.028267-3.985067-18.500267-8.5504-27.426133-11.938134l-30.813867-11.716266c-3.677867-1.399467-8.917333-6.4768-11.554133-8.7552 6.766933-12.0832-18.978133-38.3232-32.776534-47.223467-32.554667-21.0176-36.804267-53.248-26.8288-88.994133 10.231467-36.6848 43.912533-51.626667 77.175467-63.607467 90.248533-32.503467 85.802667-7.150933 143.2832-14.3104 13.1584-1.6384 28.347733-9.557333 40.746667-14.4384l20.334933-8.004267c-12.347733-0.6912-25.326933 1.373867-39.662933 5.896534-38.272 12.091733-75.1872 5.819733-64.5632-2.389334 91.3664-70.596267 67.310933-79.726933 201.207466-100.104533 33.5616-5.111467 17.152-15.872 48.349867-17.698133z m-12.6976 66.773334c-29.892267-3.328-35.4048 51.5584-24.6784 68.8896 17.706667-28.7488-6.7584-29.4144 24.6784-68.8896z m-47.872 99.191466c-2.986667-2.397867-46.267733 3.925333-45.866666 19.319467l25.8304-10.990933 20.394666-0.682667c12.279467-0.4096 52.590933 16.708267 90.7264-5.6832 22.442667-13.184 22.8096-26.606933 53.1456-30.4896l40.610134-5.205333 20.616533-2.7136 8.174933-1.109334c1.749333-0.238933-0.3072-7.5008-1.937066-6.818133-30.0288 12.586667-58.786133-9.582933-107.869867 15.658667l-30.4128 15.6416c-11.895467 6.1184-27.1872 6.903467-41.224533 8.183466l-32.196267 4.906667z m184.413867 14.3104l18.184533-6.562133c-23.04-12.885333-52.087467-5.956267-61.4912 20.949333l43.306667-14.3872z m-433.169067 73.0368c-2.952533-8.132267-0.5632-24.541867 0.571734-36.778666-10.478933 7.0912-17.169067 28.817067-13.9776 41.617066 1.169067 4.693333 11.4432 12.1856 15.744 13.192534l31.479466 7.406933c0.196267-16.9472-30.190933-15.470933-33.8176-25.4464z" fill="#EC5563" /><path d="M701.696 351.1552l-0.1024 46.523733c-30.574933 17.928533-59.357867 12.731733-84.736 42.752-8.0128 9.472-15.5392 18.8928-20.957867 28.074667l-19.438933 32.955733c-18.500267 31.368533-41.0112 53.8368-74.350933 70.1184l-11.963734 5.845334c-23.867733 6.493867-45.013333 14.011733-68.7104 22.7328-7.7312 2.850133-17.28 10.24-23.227733 13.329066-17.297067 8.977067-32.2304 17.3312-48.4864 27.4688-44.296533 27.6224-88.644267 30.609067-141.090133 27.716267-8.004267-0.443733-21.0688-4.334933-28.245334-6.8352l22.417067-22.519467c21.4784-48.238933 32.964267-43.229867 38.647467-103.722666 0.349867-0.810667 0.8448-2.525867 1.143466-3.345067 39.7312 3.072 70.203733-3.140267 109.7728-17.698133 8.823467-3.242667 18.688-8.968533 27.221334-13.056l21.742933-10.4192 13.7984-6.459734c0.110933-0.119467 3.985067 6.2464 4.462933 8.328534l11.025067 48.554666c7.543467-8.738133 14.6432-22.417067 14.856533-32.221866l0.964267-44.5952c26.6752-19.652267 26.615467-39.2448 62.429867-62.72 33.5104-21.956267 124.2624-27.758933 150.8352-70.741334 11.844267-19.157333 14.788267-41.873067 18.414933-62.8992l1.134933-6.869333c-8.2176-0.273067-39.108267-40.516267-35.165866-47.325867 3.1744 0.7936 10.8288 3.976533 13.5936 6.365867 39.7568 34.4064 44.1088 82.602667 44.0064 130.6624z" fill="#D33544" /><path d="M124.074667 487.611733c2.6368 2.269867 7.876267 7.355733 11.554133 8.7552l30.813867 11.716267c8.917333 3.387733 18.397867 7.953067 27.426133 11.938133l5.8368 2.577067c1.681067 0.7424 3.822933-2.193067 7.688533-5.700267l0.725334 7.739734 1.885866 36.471466c0.657067 12.654933 2.602667 30.1056-0.4608 40.874667l-9.9328 34.901333 3.2 2.432-22.417066 22.519467c-20.317867-7.082667-36.608-19.2768-51.566934-33.365333-47.863467-45.064533-74.248533-44.066133-105.1136-72.1664-12.9024-11.741867-20.471467-28.228267-21.0176-43.562667 15.232-42.555733 16.443733-69.0688 29.696-113.416533l17.834667 27.3152c18.7392 28.714667 51.566933 41.7536 73.847467 60.9536z" fill="#E24A58" /><path d="M491.349333 136.738133c-31.197867 1.826133-14.788267 12.5952-48.349866 17.698134-133.896533 20.3776-109.841067 29.5168-201.207467 100.104533-10.624 8.209067 26.2912 14.481067 64.5632 2.389333 14.336-4.5312 27.3152-6.596267 39.662933-5.896533l-20.334933 8.004267c-12.407467 4.881067-27.5968 12.8-40.746667 14.4384-57.489067 7.168-53.0432-18.193067-143.2832 14.3104-33.262933 11.9808-66.944 26.922667-77.175466 63.607466-9.966933 35.746133-5.725867 67.976533 26.8288 88.994134 13.789867 8.900267 39.543467 35.140267 32.776533 47.223466-22.280533-19.208533-55.108267-32.247467-73.847467-60.9536l-17.834666-27.3152c-13.2608 44.347733-14.464 70.8608-29.696 113.416534-3.396267-4.676267-2.952533-12.7232-2.056534-17.962667l8.302934-48.443733c9.0624-52.855467 12.194133-98.756267 47.880533-138.359467 32.0256-35.541333 81.5104-48.494933 126.139733-63.598933 65.8432-22.272 74.5984-52.727467 146.850134-87.1424 33.979733-16.1792 74.24-26.641067 112.827733-25.454934l39.7056 1.220267c2.2528 0.068267 9.284267 3.4816 8.994133 3.729067z" fill="#F9A7A9" /><path d="M490.154667 577.425067l8.584533 0.477866-44.6464 26.615467c-5.085867 3.029333-10.88 5.725867-15.1296 7.1424l12.996267-10.026667c1.288533 1.7152-2.141867-2.833067-5.026134-6.656l-18.594133 7.8592c-9.412267 6.656-19.780267 10.8032-30.122667 10.658134 5.9392-3.080533 15.488-10.478933 23.227734-13.329067 23.697067-8.721067 44.842667-16.238933 68.7104-22.7328z" fill="#FBEEEF" /><path d="M442.5216 464.520533c-0.418133 0.469333-5.0176 3.9936-7.287467 5.137067l-19.874133 9.992533c-30.813867-12.6464-42.8032-2.432-86.613333-15.394133l-48.836267 23.1936c-17.28 8.209067-31.496533 28.9024-37.307733 44.8-0.298667 0.8192-0.7936 2.525867-1.143467 3.345067-10.368-1.194667-20.693333-4.667733-28.305067-11.281067-2.235733-15.5392 22.8608-32.964267 36.411734-39.330133 28.689067-13.4656 55.253333-28.834133 74.4448-54.485334l15.368533-45.320533L348.987733 357.546667c3.9936-7.355733 4.642133-7.406933 2.705067 0.2048l-0.9728 25.429333c-0.554667 14.446933-2.397867 28.680533-7.611733 41.745067-15.8976 39.867733 37.879467 25.634133 99.413333 39.594666z" fill="#FBB4B7" /><path d="M431.138133 310.3488l-0.3584-7.637333 32.196267-4.906667c14.037333-1.271467 29.329067-2.065067 41.224533-8.183467l30.4128-15.6416c49.0752-25.2416 77.832533-3.063467 107.869867-15.658666 1.629867-0.682667 3.6864 6.587733 1.937067 6.818133l-8.174934 1.109333-20.616533 2.7136-40.610133 5.205334c-30.344533 3.8912-30.702933 17.314133-53.1456 30.4896-38.135467 22.391467-78.4384 5.2736-90.7264 5.6832z" fill="#FCAEB4" /><path d="M241.4592 535.594667c-5.6832 60.4928-17.169067 55.483733-38.647467 103.722666l-3.2-2.432 9.9328-34.901333c3.063467-10.769067 1.117867-28.219733 0.4608-40.874667l-1.885866-36.471466 5.0432-0.315734c7.6032 6.613333 17.937067 10.0864 28.305066 11.281067z" fill="#F88991" /><path d="M415.138133 484.616533l0.221867-4.9664 19.874133-9.992533c2.269867-1.143467 6.869333-4.667733 7.287467-5.137067 0.9216 0.2048 2.6368 0.145067 3.925333 0.162134l-0.964266 44.5952c-0.213333 9.8048-7.313067 23.483733-14.856534 32.221866l-11.025066-48.554666c-0.469333-2.082133-4.343467-8.439467-4.462934-8.328534z" fill="#F8808C" /><path d="M182.024533 390.050133c3.618133 9.975467 34.005333 8.4992 33.8176 25.4464l-31.479466-7.406933c-4.3008-1.015467-14.574933-8.4992-15.744-13.192533-3.191467-12.808533 3.498667-34.5344 13.9776-41.617067-1.134933 12.228267-3.524267 28.6464-0.571734 36.778667z" fill="#FCAAAF" /><path d="M478.651733 203.511467c-31.4368 39.4752-6.971733 40.1408-24.6784 68.8896-10.717867-17.3312-5.213867-72.226133 24.6784-68.8896z" fill="#FBA9AF" /><path d="M615.1936 317.013333l-43.306667 14.3872c9.3952-26.9056 38.4512-33.834667 61.4912-20.949333l-18.184533 6.562133z" fill="#FCB2B5" /><path d="M430.779733 302.702933l0.3584 7.637334-20.394666 0.682666-25.8304 10.990934c-0.401067-15.394133 42.88-21.725867 45.866666-19.319467z" fill="#F7878F" /><path d="M415.368533 479.650133l-0.221866 4.9664-13.7984 6.459734-21.742934 10.4192c-8.533333 4.087467-18.397867 9.813333-27.221333 13.056-39.569067 14.557867-70.0416 20.770133-109.7728 17.698133 5.8112-15.8976 20.027733-36.590933 37.307733-44.8l48.836267-23.1936c43.810133 12.962133 55.799467 2.747733 86.613333 15.394133z" fill="#EB5565" /></svg>