<?xml version="1.0" standalone="no"?><!DOCTYPE svg PUBLIC "-//W3C//DTD SVG 1.1//EN" "http://www.w3.org/Graphics/SVG/1.1/DTD/svg11.dtd"><svg class="icon" width="256px" height="256.00px" viewBox="0 0 1024 1024" version="1.1" xmlns="http://www.w3.org/2000/svg"><path d="M185.437269 483.807609c-0.674131 8.277307-5.512516 25.779117-7.705576 34.679355-0.213333 0.853331-2.653858 4.241053-3.379189 7.22771-16.870346 69.409909-17.356744 137.949422 3.379189 206.651067 53.69156 177.92796 244.180546 287.674806 423.909033 235.075508l13.491157-1.928527c37.666012-4.25812 78.267481-14.020221 113.714833-27.90391 14.335954-5.614915 27.554044-14.225021 41.702266-19.959402 3.541322-1.433595 6.041581-3.131723 10.2997-2.235726-152.370709 142.327008-380.551306 145.885396-534.662809 3.814387C102.135137 786.432766 89.753311 600.833365 163.259207 425.960329c7.091177-16.870346 16.127948-33.14336 23.184992-50.030772 25.258585-60.364605 44.595056-122.982003 70.297373-183.082077 0.759464 7.048511-0.699731 13.055958-2.397859 19.763137-11.391963 45.038788-26.751914 89.266912-39.534806 133.887568-12.927958 45.124121-25.565784 90.563975-29.363105 137.309424z" fill="#53691F" /><path d="M904.146417 610.902666v2.005326c0.059733 8.968504 0.059733 18.013809 0 26.97378h-1.00693c-1.791994 5.939181-0.793597 12.902358-0.921597 19.268205-1.305596 64.01686-29.875104 139.681683-65.510188 192.682045-3.626655-0.90453-0.230399-5.990381 0.494931-8.18344 19.69487-59.920873 29.175373-127.265723 26.478848-190.284187-0.938664-21.998862-3.805854-46.446784-5.742915-68.445646-8.729572-99.003414-61.388602-192.22978-97.365019-284.15055-28.373242-72.490433-50.841436-156.99576-111.700973-210.081456-19.635137-17.126345-43.699059-28.185509-66.517119-40.422269-38.502276-20.659133-63.359796-32.622828-106.819922-42.51293-2.705058-0.614398-7.33011-1.245863-8.789305-3.737588 2.431992-0.324266 5.222383 0.255999 7.705575 0 3.839988-0.392532 7.287443-1.902927 7.705575-1.928527 7.022911-0.443732 14.284754 0.290132 21.290598-0.0768 5.853848-0.307199 11.707696-0.196266 17.570077 0.034133 6.237847 0.238933 12.706092-0.341332 18.952472 0.042667l1.169063 1.715194 6.545046 0.213333c2.449059 0.290132 5.410116-0.409599 7.705575 0l1.203196 1.715195 4.573852 0.213332C736.93629 41.765301 762.229008 193.094946 820.289621 335.464621c28.714574 70.399773 57.070749 124.364399 74.214161 200.353487l1.13493 4.326386s9.301303 62.139533 8.499172 70.732572z" fill="#A5C43B" /><path d="M466.754761 4.022489c1.459195 2.491725 6.084247 3.12319 8.789305 3.737588 43.460127 9.881568 68.317646 21.853796 106.819923 42.51293-1.348262 4.019187-6.126914 0.716798-8.797839 0.128-29.277772-6.459713-60.902204-8.994104-90.512775-5.990381-190.488986 19.362071-203.237745 250.452526-275.489244 385.423824l-22.126862 53.981692c3.797321-46.745449 16.435147-92.185303 29.363105-137.309424 12.782892-44.612123 28.142843-88.840247 39.534806-133.887568 1.698128-6.707178 3.157323-12.714626 2.397859-19.763136C297.001709 98.682451 357.647913 18.640042 466.754761 4.022489zM904.154951 613.530924c6.058647 92.560768-28.560975 169.351987-53.025963 214.953973-1.092263 2.030927-12.509826 20.497001-14.412753 23.355658-14.830886 22.058596-36.531082 45.50812-55.876087 63.590195-4.25812-0.895997-6.758378 0.802131-10.2997 2.235726-14.139688 5.725848-27.357778 14.344487-41.702265 19.959403-35.447352 13.883689-76.048821 23.654324-113.714833 27.90391l62.327265-27.272446c100.437009-56.481951 170.256518-156.483762 182.348212-272.391655l0.034133-15.377017 44.321991-36.957747z" fill="#53691F" /><path d="M522.630848 2.102496c-7.014377-0.128-14.182354-0.179199-21.196732 0V1.095566c6.186647-1.894394 13.49969-0.767998 20.061802-0.716798l1.13493 1.715194zM482.165912 2.102496c-0.418132 0.0256-3.865588 1.535995-7.705575 1.928527l1.169062-1.715195 6.536513-0.213332zM547.684634 4.022489l-6.545046-0.213332-1.169063-1.715195c4.411719 0.273066 7.27891 1.877327 7.705575 1.928527zM561.167257 5.951017l-4.573852-0.213333-1.203196-1.715195c3.438922 0.614398 5.452782 1.860261 5.777048 1.928528zM582.363989 50.273007c22.81806 12.245294 46.881982 23.295925 66.517118 40.42227 60.851004 53.094229 83.327731 137.591023 111.700973 210.081455 35.976417 91.92077 88.635447 185.147136 97.36502 284.150551 1.93706 21.998862 4.514119 40.575869 5.452782 62.574731l-3.566922 2.978124-0.034133 15.377017c-12.091694 115.907893-81.911203 215.909704-182.348212 272.391655l-62.327265 27.272445-13.491157 1.928527c-17.365277-0.827731-35.694818 1.143463-52.949163-0.042666-34.423356-2.363726-72.823232-11.673562-105.608192-23.492191-30.344435-10.948231-57.992346-27.152979-86.152256-41.975331-0.938664-3.353589-3.899721-4.377586-6.382912-6.143981-97.919684-69.870708-157.448026-173.217575-168.993589-293.44332-2.005327-20.906599-4.923717-46.583316-3.908254-67.558182 0.264532-5.478382 4.607985-10.521566 0.085333-16.290081 2.19306-8.900238 7.031444-26.410581 7.705575-34.679355l22.126862-53.981692C279.807098 294.871685 292.555857 63.78123 483.044842 44.419159c29.610571-3.012257 61.243536-0.469332 90.512775 5.990381 2.670925 0.588798 7.449576 3.899721 8.797838-0.128zM320.3147 508.861395c-10.111967 12.407427-16.093815 30.207903-19.268204 46.241984l-1.621328 1.211729c-46.352917 190.369519 165.068268 338.430909 325.246951 213.545978 30.958833-24.132189 50.892636-52.889429 63.666994-89.514378 5.649048-16.179148 13.789822-30.967367 18.355141-48.119311 40.19187-150.74938-98.704748-285.447613-248.148533-246.220006-59.767274 15.684216-105.975125 57.028083-132.846505 111.863106-2.184526 4.454386-1.817594 6.604779-5.393049 10.982364z" fill="#DDE584" /><path d="M356.922582 901.939594c28.168442 14.830886 55.816353 31.035633 86.152256 41.975331 32.784961 11.827162 71.184837 21.128465 105.608192 23.492191 17.254344 1.18613 35.583885-0.793597 52.949163 0.042666-179.728487 52.599297-370.217473-57.147549-423.909033-235.075508 5.06025 1.868794 5.666115 7.534909 9.668236 10.555699 6.818111 5.145583 14.805286-0.059733 19.106071 8.004241l-1.646928 7.22771 5.725849 7.910374c-6.391446 10.410633-5.341849 28.381775 2.781857 37.597746 1.570128 1.783461 4.23252 2.056527 5.811182 3.822921 2.559992 2.875724 2.133326 8.217573 4.727451 10.675165 4.701852 4.454386 8.268773 0.691198 10.436233 1.092264 6.084247 1.143463 5.879448 11.246897 3.276789 15.957281 6.732778 5.529582 6.638912 13.42289 16.290081 12.842626 6.954644-0.418132 13.516756-4.684785 21.171132-0.017067l5.734381-3.780254c9.745035 9.070904 20.795666 16.119415 28.979107 26.786047l-0.947197 8.533305 1.800528 2.133327c4.394652 4.010654 9.898635 1.885861 14.207954 3.131723 9.779168 2.833058 19.148738 11.48583 28.296442 16.102348 1.672528 0.844797 3.302389 0.716798 3.771721 0.964264z" fill="#C1CA66" /><path d="M356.922582 901.939594c-0.469332-0.247466-2.099193-0.119466-3.771721-0.964264-9.147704-4.625052-18.517274-13.269291-28.296442-16.102348-4.317853-1.245863-9.813302 0.87893-14.207954-3.131723l-1.800528-2.133327 0.947197-8.533305c-8.18344-10.666632-19.234071-17.715143-28.979106-26.786047l-5.734382 3.780254c-7.654375-4.667718-14.216487-0.401065-21.171132 0.017067-9.642636 0.580265-9.557303-7.313043-16.29008-12.842626 2.602658-4.710385 2.807458-14.813819-3.27679-15.957281-2.16746-0.409599-5.734382 3.353589-10.436233-1.092264-2.602658-2.457592-2.16746-7.799442-4.727451-10.675165-1.570128-1.766394-4.23252-2.047993-5.811181-3.822921-8.123707-9.21597-9.173304-27.187112-2.781858-37.597746l-5.725848-7.910374 1.646928-7.22771c-4.309319-8.063974-12.296494-2.858657-19.106072-8.004241-4.010654-3.02079-4.607985-8.686905-9.668236-10.555699-20.735933-68.710178-20.249535-137.249691-3.379189-206.651067 0.725331-2.978124 3.165856-6.374379 3.379189-7.22771 4.522652 5.768515 0.179199 10.811698-0.085333 16.290081-1.023997 20.974866 1.894394 46.651583 3.908254 67.558182 11.545563 120.225746 71.073904 223.572612 168.993589 293.44332 2.474659 1.766394 5.435716 2.798924 6.382913 6.14398z" fill="#C2CB67" /><path d="M301.046496 555.103379l0.017066 21.162598 5.742915 0.059733 0.119466 14.318888-3.669321 1.245862c-0.844797 4.812784-1.570128 11.588229 5.495449 11.374897-0.085333 1.894394 0.230399 3.967987 0 5.777048-0.179199 1.390929-2.713591 3.276789-1.928527 5.777048h3.848521c0.597331 6.502379 2.03946 15.027152 3.857054 21.196732l-0.853331 11.707695-4.701851 2.005327c-2.96959 11.810095-3.242656 18.48314 11.33223 17.117811 0.699731-4.138653-3.404789-4.625052-3.865588-8.652772-0.674131-5.811181 3.601055 0.017067 5.794115-0.972796 0.460799 1.800528 1.996794 3.234123 1.928527 5.777048-0.187733 6.971711 2.978124 10.956765 1.919994 18.312474-0.529065 3.703455-3.925321 6.698645-3.908254 9.634102 0.0512 8.226107 10.129034 9.659702 16.153548 12.799959 5.478382 2.858657 3.899721 5.751448 10.879965-0.281599 1.211729 2.09066 3.012257 3.754655 3.857054 5.777048 0.503465 1.220263-0.90453 4.28372 0.921597 5.819714l1.96266 1.877328 2.892791-1.911461c5.16265 6.357313 9.378103 10.103434 15.41115 15.41115l-1.91146 4.821318c0.95573 0.972797 1.911461 1.93706 2.892791 2.892791l4.804251-1.928527c1.672528 1.339729 4.02772 2.551458 5.777048 3.857054-0.921597 4.625052 1.254396 5.836781 3.857054 8.669839 3.22559 3.507189 11.554096 8.917305 15.991415 10.982364 3.839988 1.783461 5.393049 2.261326 9.053838-0.375465 19.438871 10.717832 41.864398 17.971142 63.590194 21.196731l1.169063 1.715195 6.545046 0.213333c2.542925 0.204799 5.154117-0.136533 7.705575 0l5.11145 5.546648c5.614915-2.056527 8.550372-4.189853 15.206351-3.711988 4.701852 0.341332 9.898635 5.119983 12.44156-1.83466 29.738571-1.570128 65.851521-13.772756 91.221039-29.200973 29.320439-17.826076 51.848366-44.663323 70.630172-72.917098-12.774359 36.624949-32.716694 65.382189-63.666994 89.514378-160.178683 124.884931-371.599868-23.176459-325.246951-213.545978l1.621328-1.21173z" fill="#C1CB68" /><path d="M308.752071 603.27389c-7.065577 0.213333-6.340246-6.570645-5.495449-11.374896l3.669321-1.245863-0.119466-14.318887-5.742915-0.059733-0.017066-21.162599c3.17439-16.034082 9.156237-33.843091 19.268204-46.241984-1.203196 9.122104-5.205317 17.50181-7.261843 26.453248-5.580782 24.268722-3.217056 43.861192-4.300786 67.959247zM349.217007 703.471967c-6.988777 6.033047-5.410116 3.140257-10.879965 0.281599-6.024514-3.14879-16.102348-4.573852-16.153548-12.799959-0.017067-2.935457 3.379189-5.930648 3.908254-9.634102 1.05813-7.35571-2.107727-11.340763-1.919993-18.312474 4.676252 4.974917 6.510912 12.202627 9.932768 18.005275 4.548252 7.705575 10.632499 14.702886 15.112484 22.459661zM322.243227 657.229983c-2.19306 0.998397-6.468246-4.838384-5.794114 0.972797 0.469332 4.036254 4.573852 4.522652 3.865587 8.652772-14.574886 1.365329-14.301821-5.307716-11.33223-17.117812l4.701852-2.005327 0.85333-11.707695c1.877327 6.399979 5.794115 13.747156 7.705575 21.196732zM380.047841 736.231328l-4.804251 1.928527c-0.972797-0.95573-1.93706-1.919994-2.892791-2.892791l1.911461-4.821317c2.201593 1.93706 4.539719 4.787185 5.777048 5.777048zM358.851109 715.034596l-2.89279 1.911461-1.962661-1.877327c-1.834661-1.535995-0.418132-4.599452-0.921597-5.819715 3.25119 0.895997 4.095987 3.703455 5.777048 5.777048zM310.680598 614.83652h-3.848521c-0.785064-2.500259 1.749328-4.394652 1.928527-5.777048l1.715195 1.203196c0.546132 1.493329 0.0768 3.114657 0.213332 4.582385z" fill="#C0C966" /><path d="M688.339113 680.346708c-18.781806 28.253776-41.309733 55.091022-70.630172 72.917098-25.378051 15.43675-61.491002 27.639378-91.221039 29.200973-10.137567 0.537598-22.621794 0.546132-32.759361 0-2.551458-0.136533-5.171183 0.204799-7.705575 0-0.426665-0.034133-4.23252-1.407995-7.705575-1.928527-21.717263-3.22559-44.151324-10.4789-63.590195-21.196732-9.762102-5.384516-19.933802-12.603693-28.902307-19.268204-1.749328-1.297062-4.113053-2.508792-5.777048-3.857055-1.237329-0.989863-3.583988-3.848521-5.777048-5.777048-6.041581-5.31625-10.2485-9.053837-15.41115-15.41115-1.689595-2.073593-2.534392-4.881051-5.777048-5.777048-0.836264-2.030927-2.645325-3.686388-3.857055-5.777048-4.479986-7.756775-10.564233-14.754086-15.112484-22.459661-3.421856-5.802648-5.256516-13.030358-9.932768-18.005275 0.068266-2.542925-1.467729-3.985054-1.928527-5.777048-1.919994-7.449576-5.828248-14.796752-7.705575-21.196732s-3.259723-14.694353-3.857055-21.196731c-0.136533-1.459195 0.341332-3.089057-0.213332-4.582386l-1.715195-1.203196c0.230399-1.809061-0.085333-3.882654 0-5.777048 1.08373-24.098056-1.279996-43.690526 4.300786-67.959247 2.056527-8.959971 6.058647-17.339677 7.261844-26.453248 3.575455-4.386119 3.208523-6.527979 5.393049-10.982365 26.862847-54.843556 73.079231-96.17889 132.846505-111.863106 149.443785-39.227607 288.340403 95.470625 248.148533 246.220006-4.573852 17.143411-12.714626 31.940164-18.355141 48.119312zM547.036102 403.202002c-13.747156 3.02079-16.57168 22.493794-8.038374 32.443629 3.976521 4.633585 22.76686 9.224504 29.798304 12.595159 27.238312 13.030358 53.299028 39.662805 65.970988 66.977917 7.057044 15.206351 8.038374 34.969487 31.086833 29.934837 6.186647-1.348262 13.559423-10.333833 14.50662-16.477813 1.126396-7.321576-10.700765-32.861761-14.771153-40.42227-13.695956-25.429251-40.24307-53.213695-65.228589-67.728848-12.731692-7.398376-39.065474-20.462867-53.333162-17.322611z" fill="#97612E" /><path d="M547.036102 403.202002c14.267687-3.140257 40.601469 9.924235 53.333162 17.322611 24.985519 14.515153 51.532634 42.299597 65.228589 67.728848 4.070387 7.560509 15.906082 33.100693 14.771153 40.42227-0.947197 6.14398-8.319973 15.129551-14.50662 16.477813-23.056992 5.03465-24.038322-14.728486-31.086833-29.934837-12.671959-27.315112-38.741208-53.947559-65.970987-66.977917-7.031444-3.362122-25.830317-7.961574-29.798304-12.595159-8.533306-9.949835-5.717315-29.422838 8.038374-32.443629z" fill="#CE9E67" /><path d="M414.727196 759.348054c-3.669321 2.645325-5.21385 2.158926-9.053838 0.375465-4.437319-2.056527-12.757292-7.475176-15.991415-10.982365-2.602658-2.833058-4.778651-4.044787-3.857054-8.669838 8.968504 6.664512 19.140205 13.883689 28.902307 19.268204zM526.487902 782.473312c-2.542925 6.963178-7.739708 2.175993-12.44156 1.834661-6.655979-0.477865-9.591436 1.655461-15.206351 3.711988l-5.11145-5.546649c10.137567 0.546132 22.61326 0.537598 32.759361 0zM486.022966 782.473312l-6.545046-0.213332-1.169063-1.715195c3.473055 0.511998 7.27891 1.894394 7.705576 1.928527z" fill="#C0C966" /></svg>