<?xml version="1.0" standalone="no"?><!DOCTYPE svg PUBLIC "-//W3C//DTD SVG 1.1//EN" "http://www.w3.org/Graphics/SVG/1.1/DTD/svg11.dtd"><svg class="icon" width="256px" height="254.51px" viewBox="0 0 1030 1024" version="1.1" xmlns="http://www.w3.org/2000/svg"><path d="M128.879141 483.412197c26.513004 21.870882 48.776419 47.061223 72.089431 72.089431 29.892196 32.093791 49.723616 57.386532 74.785957 92.560849 8.661313 12.159971 20.198353 23.406878 28.194068 36.164182 22.024482 35.131651 42.777499 92.398716 72.08943 118.425321 1.843196 1.638396 2.201595 6.041586 8.251714 9.625578 25.932739 15.377031 55.108137 16.469295 79.061148-2.116262 18.31249-14.207967 26.726337-27.14447 51.524145-36.010582 36.514048-13.055969 74.888357 2.875727 100.462697-33.416455 28.851132-40.942837 37.691645-81.382209 90.128855-105.540018 28.450066-13.107169 55.645736-9.036779 82.500073-23.057013 11.665039-6.092786 12.117305-7.13385 20.599418-15.445297 1.826129-1.791996 3.362125-3.259726 5.145588-5.145588 33.860187-35.814316 54.220673-88.516059 101.384295-107.152815 19.942353-7.876248 48.784952-4.061857 63.598784-23.935943l10.086377-43.980697c17.373826 36.590847 36.317781 73.676627 30.80526 115.762928-1.672529 12.74877-9.881577 27.06767-15.359963 38.707109l-9.292779-0.759465c-14.2933-49.168951-64.170516-54.493739-98.832834-19.839953-18.193024 18.184491-25.506073 37.410045-19.75462 63.521984 3.601058 16.332762 26.316738 32.972723 14.609032 49.757749l-56.038268 16.042629-26.342338 56.038269c-0.930131-2.355194-24.115143-35.148717-28.450067-41.062304-23.167946-31.581792-65.988112-19.80582-89.975255 5.017588-14.071434 14.566366-24.277276 48.144954-18.26129 67.208376 3.720525 11.810106 14.1397 21.785549 19.455954 32.179124 2.636794 5.145588 2.713594 11.579706 3.959457 13.883701-20.659151 10.282643-43.426031 19.822887-66.55131 20.966351-3.464525 21.879415-16.213295 37.469779-26.129005 56.268667l-9.079446-0.938664c-8.055448-15.061298-35.916716-61.030257-50.781747-65.356646-30.762594-8.942912-46.165225 4.42879-63.71825 25.096474-1.425063 1.681063-5.802653 2.346661-9.574378 8.29438-27.554069 43.434565 0.716798 64.238782 9.574378 104.985354-21.27355 1.698129-35.848449 7.18505-58.111864 4.053324-76.680353-10.794641-87.543261-96.904306-117.742656-155.152703-46.907623-90.478721-113.185867-170.819865-187.050227-240.323701-16.92156-15.923163-46.634557-34.491652-61.704389-51.566813-25.139141-28.475666-27.101803-69.171037-17.10076-104.268555 2.483194-8.712513 15.069831-37.981777 19.490088-44.868161 2.175995-3.387725 20.855418-20.420219 25.745006-25.745006l-5.529587 43.844164c3.891191 35.754583 20.104486 60.330525 41.463369 87.730994l10.402109 7.449582z" fill="#B04F26" /><path d="M736.45958 102.382693c-0.332799 0.0256-1.117864 3.686391-2.670927 3.601058-3.677858-0.2048-26.93967-16.196229-33.356722-19.046355l-10.308242 25.745006c-3.131726-1.36533-9.924243-0.546132-13.602101-4.650656l-7.048517 1.834662c-10.743441 7.330116-8.959979 13.115703-10.248509 23.415412-0.622932 4.966388 0.529065 10.367976-0.008534 15.411164-36.462848 0.887465-67.336375 25.668206-97.851503 43.767364-7.910381 4.693322-16.87036 5.324787-15.419697 18.056491-3.874124-1.851729-21.580749-9.096512-24.251676-9.651178-5.273588-1.100797-6.254919 4.42879-6.647452 4.50559-1.54453 0.307199-8.482113-6.749851-15.368497 0.0768l-0.247466-15.564764-15.266097 0.034133c3.976524 16.810627 4.019191 24.362609-10.308243 36.044716-10.111976-6.502385-24.627142-8.883179-33.612721-0.1536l-7.893315 13.030369c0.059733 5.580787 6.92905 12.919436 10.615442 18.013825 5.521054 7.645849 8.934379 16.648494 20.599418 15.445297 1.510396 1.407997 2.65386 3.01226 5.145588 5.145588-3.063459 11.43464-15.496497-0.290133-20.573818 2.52586-19.524221 10.820241-43.869764 25.215941-63.274518 34.628186-17.220226 8.354114-39.295908 12.962103-55.176404 24.635675-1.041064-0.665598-5.905053 0.1792-10.188776-2.474661-11.912505-7.398383-23.526345-26.180205-41.301236-23.253278 11.43464 12.69757 23.995677 23.645811 36.044715 36.027648-11.43464 9.446378-11.844239 31.539126-30.890594 30.890594-10.649575-8.021314-58.15453-38.783909-68.889438-35.660716-31.496459 25.779139-6.459718 30.540728 9.907177 45.712959 4.966388 4.607989 6.638918 10.359442 12.64637 15.692764l-62.011587 48.691085-46.114025 28.543933-10.402109-7.449582c-21.358883-27.391936-37.572178-51.976411-41.463369-87.730994l5.529587-43.844164c1.723729-1.877329 3.387725-8.57598 5.145587-10.299709 11.903972-11.673573 57.002533-40.541771 72.089431-46.344425 16.247428-6.246385 51.711878-6.664518 69.751303-5.393054 8.806379 0.622932 14.685832 5.051721 22.894879 5.393054 2.431994-2.577061 11.989305-35.140184 15.479431-41.198836 4.17279-7.227716 35.746049-47.325755 41.190303-51.490012 4.155724-3.182926 51.088947-28.987665 56.6356-30.890594 27.281003-9.369578 66.611043-12.279438 94.361378-4.24959 8.985579 2.602661 14.634632 10.879974 24.063944 9.412244-0.793598-11.059174 4.573856-21.777015 10.308242-30.907661 5.401587-8.593046 33.493255-40.012706 41.190303-46.344424 8.857579-7.270383 60.799857-32.70819 72.089431-36.044715 3.805858-1.126397 29.815397-5.572254 33.467655-5.572254 32.622857-0.0256 73.770493 28.4842 95.257376 51.916678z" fill="#C46433" /><path d="M736.45958 102.382693c27.929534-1.834662 155.195369 162.602285 175.069455 190.514752v20.599418l-20.590885-10.291176-4.206923 12.90237c15.436764 20.633552 42.7519 54.434005 24.797808 79.769413-22.331681 2.687994-24.063943-0.358399-36.044715-15.445297-12.526904-15.778096-17.885825-31.539126-24.840475-49.971083-2.184528-5.802653 1.51893-8.34558-8.277314-6.365852-13.371702 11.46024-34.04792 20.232486-46.788156 30.498062-15.257564 12.296504-16.588761 31.641526-41.41217 35.822849l-12.561037 26.060739c-2.124795-4.607989-11.494373-13.269302-15.445297-20.599418 18.372223-6.818117 5.785586-27.724735 12.740237-41.326837 3.583992-7.022917 44.723095-45.166827 54.203606-53.913473 6.135452-5.657587 10.282643-14.0629 20.582351-12.885303 5.751453 7.065583 2.67946 9.215978 15.445297 10.299709 8.994112 0.759465 10.436242 1.220264 15.445297-5.145588 7.526382-9.557311 0.571732-39.202041-6.297585-45.474026-1.561596-1.425063-6.169586-0.255999-7.859181-1.885862-9.173312-8.900246-22.527947-32.383924-32.085258-42.845766-20.462885-22.408481-82.36354-78.771015-108.228013-90.009389l10.308243-25.745006c6.417052 2.850127 29.678864 18.841556 33.356721 19.046355 1.553063 0.085333 2.338128-3.575458 2.670928-3.601058z" fill="#D17A49" /><path d="M988.764054 416.476888l-10.086376 43.980697c-14.805299 19.88262-43.656431 16.059696-63.598784 23.935943-47.163622 18.636756-67.524108 71.338499-101.384295 107.152815l-2.585594-5.145588c-5.282121-2.568527-14.847965 8.644246-12.859703 10.282643h10.299709c-8.482113 8.328514-8.934379 9.369578-20.599419 15.462363 4.539723-10.231443-8.584513-19.345021-8.712512-22.971679-0.366932-10.333842-0.187733-14.250633-1.527463-26.052205-3.985057-34.952451 20.249552-14.225033 30.233529-23.714078 20.872484-46.788157 63.649984-79.60728 90.615253-123.178377 2.901327-4.693322 1.553063-11.161574 3.746125-14.259167 1.015464-1.425063 5.930653-1.425063 9.233045-6.084252 17.945558-25.335407-9.361045-59.135861-24.797809-79.769413l4.206924-12.902369 20.573818 10.291176v-20.599419c28.944999 40.644171 55.150804 77.038752 77.243552 123.579443z" fill="#BE5F31" /><path d="M479.018052 848.987872c17.544492-20.676218 32.955656-34.039387 63.71825-25.096475 14.873565 4.32639 42.734833 50.295348 50.781747 65.356647l9.079446 0.938664c-7.611715 11.28104 3.908257 20.027686 7.807981 30.805261 8.490647 23.475145 10.231443 35.848449-3.336525 58.768929-3.566925 6.024519-8.328514 6.681584-9.625577 8.251714v-25.745007l10.282642 5.145588c2.244261-14.2677-1.843196-14.335966-10.282642-20.599418-0.725332-0.537599-0.375466-4.27519-5.145588-5.145588l-2.93546-4.684789a62.115694 62.115694 0 0 0-19.874087 0l-2.93546 4.684789c-1.587196 0.452266-24.217543 18.722089-25.745006 20.599418-15.385564-14.498099-19.711954-36.445781-29.892196-55.06547-10.385042-19.012222-26.91407-36.505514-31.897525-58.214263z" fill="#F2DFCC" /><path d="M808.549011 735.708138c0.281599 0.716798-4.27519 5.316254-2.78186 10.402109 5.785586 19.78022 27.775935 29.192465 23.492211 59.434527-0.972798 6.843717-5.128521 6.963184-5.265054 7.389849-0.1536-11.997838 3.447459-23.867677-8.004248-30.830861-9.378111 5.478387-21.418616 3.268259-29.738597 5.913586-2.875727 0.913065-3.191459 4.22399-3.447458 4.317857-9.898643 3.822924-24.063943 12.023438-30.890594 20.599418l-61.789722-113.279734c23.987144-24.823408 66.80731-36.599381 89.975255-5.017588 4.334923 5.913586 27.519935 38.707109 28.450067 41.062303z" fill="#F2DECA" /><path d="M896.083738 550.347507c34.662319-34.653785 84.539535-29.328998 98.832835 19.839953l9.292778 0.759465c1.450663 25.557273 23.944477 37.657512 25.745006 61.789721-2.491727 1.36533-9.94131 9.352511-10.299709 10.29971-3.106126-0.059733-4.795722-5.077321-5.145588-5.145588l-3.020793-4.590923c-8.200514-1.186131-16.639961-1.186131-24.849008 0l-3.020793 4.590923c-15.470897 2.175995-13.977567 10.487442-20.351952 18.278357-3.259726 3.985057-9.898643 6.519451-10.538642 7.466649-8.772246-10.197309-10.052243-25.267141-16.179162-37.879378-12.339171-25.378074-35.797249-47.513488-40.456438-75.400356z" fill="#F3E0CD" /><path d="M751.913411 812.943156c-10.265576 12.893836-14.583432 39.73964 7.731181 41.506036 28.125801 2.227195 89.966722-69.853703 23.159413-62.096921 0.255999-0.1024 0.571732-3.404792 3.447458-4.317856 8.311447-2.645327 20.360485-0.435199 29.738597-5.913586 11.451706 6.95465 7.850648 18.833022 8.004248 30.830861-8.942912 28.2794-32.972723 50.363615-61.516656 59.46866-20.095953 6.408518-29.380198 0.213333-41.565769-15.598897-7.697049-9.99251-19.114622-31.735392-25.642606-43.869763-1.245864-2.312528-1.322664-8.738113-3.959457-13.883701-5.316254-10.393576-15.726896-20.377552-19.455955-32.179125-6.015986-19.071955 4.189857-52.64201 18.261291-67.208375l61.789721 113.279734z" fill="#E3CAAE" /><path d="M952.719339 663.62724c-3.020793 4.462923-7.705582 33.211655-4.923722 35.82285 28.2282 16.204762 59.980659-21.000484 70.911833-44.706029 1.868796-4.04479 0.0768-9.412245 0.947198-11.707705 0.358399-0.947198 7.807982-8.934379 10.299709-10.29971 1.066664 14.361566-0.264533 33.783387-7.765315 46.301758-7.278916 12.142905-38.39991 37.282046-52.28361 40.379639-31.283126 6.98025-43.827097-3.729058-55.918802-29.92633-3.507192-7.594649-5.333321-17.382359-8.055448-25.463407l-14.993032-0.401066c11.707706-16.785027-11.007974-33.424988-14.609032-49.757749-5.751453-26.111939 1.561596-45.32896 19.75462-63.521984 4.659189 27.878334 28.117267 50.022282 40.456439 75.400356 6.135452 12.612237 7.406916 27.682068 16.179162 37.879377z" fill="#E4CBAE" /><path d="M540.79924 962.267605c-8.908779 10.922641-11.835706 27.323669-10.308242 41.190304 32.537524 5.674653 48.998285-12.407438 66.943842-36.044716v20.599419c-19.942353 24.174877-60.876657 53.068675-87.72246 23.364211-10.521575-11.639439-12.996236-34.414852-21.521016-48.29002l-9.181845-0.810664c-8.866112-40.746571-37.128446-61.542255-9.574378-104.985354 3.771724-5.947719 8.149314-6.613318 9.574378-8.29438 4.974922 21.700216 21.512483 39.202041 31.897525 58.214263 10.180243 18.628223 14.506633 40.567371 29.892196 55.065471z" fill="#E0C4A5" /><path d="M159.778269 287.751857c-15.078365 5.802653-60.176925 34.670852-72.089431 46.344425-18.013824-20.113019-35.822849-42.461767-58.30813-57.523065-7.458116-5.000522-9.437844-11.886905-18.926888-4.258124 1.54453-3.549858-0.0256-6.715718 4.915188-12.970636 6.963184-8.823446 33.220189-26.658071 43.98923-28.2026 38.024444-5.452787 52.505477 25.642606 77.243552 46.318824 7.645849 6.391452 10.487442 13.047436 23.167945 10.299709z" fill="#EFDCC9" /><path d="M607.734549 56.046802c-11.28104 3.327992-63.231851 28.765799-72.08943 36.044715C509.251581 78.702748 492.074021 50.346548 463.555688 40.601505c0.785065-1.382397-1.894396-6.442652 1.032531-9.343978 1.39093-1.382397 6.075719-0.358399 7.953048-2.252795 1.902929-1.928529 1.006931-6.485318 2.431994-7.620249 7.628782-6.084252 38.877775-22.56208 47.010023-21.316216C555.246139 11.827172 571.877567 51.916678 607.726016 56.046802z" fill="#F1DFCC" /><path d="M237.013287 143.581529c13.866634-20.898084 38.084177-39.56044 64.358249-36.044715 16.785027 2.244261 24.814875 15.880496 35.967915 25.983939 3.805858 3.447459 9.710911 3.805858 11.886906 5.981853 3.711991 3.703458 10.444775 19.191422 16.511961 24.678342-5.546654 1.902929-52.479877 27.716202-56.6356 30.890594l-72.089431-51.490013z" fill="#F1DECA" /><path d="M87.688838 334.087748c-1.757863 1.723729-3.421859 8.413847-5.145588 10.299709-4.889589 5.324787-23.569011 22.357281-25.745006 25.745007L0.759976 315.476592c-2.670927-8.780779 2.303995-30.062863 5.56372-39.492174 0.998398-2.892793 3.967991-3.302392 4.130124-3.677858 9.489044-7.628782 11.468773-0.733865 18.926888 4.258123 22.48528 15.069831 40.294305 37.418579 58.30813 57.523065z" fill="#E1C7AA" /><path d="M309.094184 195.071542c-5.444254 4.164257-37.026046 44.262296-41.190303 51.490012 3.003726-15.487964-3.874124-14.711432-11.929572-21.538083-13.158369-11.15304-27.494335-21.887949-33.851653-38.621776 0.725332-16.810627 5.990386-29.405798 14.890631-42.820166l72.089431 51.490013z" fill="#DFC4A4" /><path d="M535.653652 92.091517c-7.705582 6.323185-35.788716 37.742845-41.190303 46.344424l-45.977492-54.749738c-1.160531-4.12159 5.017588-27.272469 7.091183-33.228722 2.030929-5.828253 6.783984-7.731182 7.995715-9.855976 28.518333 9.745044 45.695893 38.101244 72.08943 51.490012z" fill="#E1C6A8" /><path d="M875.48432 380.432173c11.980772 15.086898 13.713034 18.141824 36.044715 15.445297-3.302392 4.659189-8.217581 4.650656-9.233045 6.084252-2.201595 3.097593-0.844798 9.565844-3.746124 14.259167-26.956737 43.571098-69.742769 76.398754-90.615254 123.178377-9.983977 9.489044-34.210053-11.238374-30.233529 23.714077 1.348263 11.801572 1.160531 15.718363 1.527463 26.052206 0.128 3.626658 13.252236 12.740237 8.712513 22.971679-26.845804 14.020234-54.041473 9.949843-82.500073 23.057013-52.43721 24.149277-61.277723 64.597182-90.128854 105.540018-25.57434 36.292181-63.94865 20.360485-100.462698 33.416455-24.797808 8.866112-33.211655 21.802615-51.524145 36.010582-23.95301 18.585556-53.119875 17.493292-79.061148 2.116262-6.050119-3.583992-6.408518-7.987181-8.251714-9.625578l0.213333-20.266619 9.78771-0.725331-2.65386-15.197831c4.650656-4.37759 11.170107-5.853853 15.931696-10.052243 35.327917-31.103927 93.192314-64.477715 138.265275-77.994484 10.581308-3.174393 5.46132-16.332762 13.525301-19.942353 7.253316 12.083172 14.182367 27.178603 25.736473 36.044716-0.383999-18.065024-9.907177-34.841518-15.436763-51.490013 15.325831 2.577061 11.007974-14.1397 20.650618-23.116745 16.375428-15.240498 40.703904-18.798889 58.504396-29.021799 19.421821-11.15304 32.58019-27.596735 46.736956-40.780704 13.781301-12.842636 36.275115-23.697011 49.143352-38.690043l25.770606 2.88426c2.875727 4.027724 14.489566 6.246385 10.308242 20.616485l10.282643-0.034133c0.315733-9.087979-7.364249-16.170629-5.145588-25.736473 1.126397-4.872522 6.468251-6.852251 0.255999-20.309285 19.70342-3.865591 25.070874-41.360969 38.32311-56.959867 5.905053-6.95465 33.305522-19.993553 43.357765-21.000484 0.1024-5.282121 1.62133-9.958377 3.012259-15.010098 2.62826-9.489044-0.580265-18.252757 12.87677-15.445297z" fill="#BF6439" /><path d="M396.628912 437.067773c30.557795 35.191384 60.83399 75.10169 87.534728 113.279734 3.353592 13.397302-7.586116 9.045312-12.885303 15.513563-2.124795 2.594127-1.655463 8.021314-3.345059 9.412245-2.88426 2.389328-17.621292 1.843196-25.139141 8.47358-6.015986 5.307721-3.891191 11.323707-4.966388 12.927969-0.767998 1.143464-7.893315 1.826129-9.634111 8.243181-2.321061 8.541847 0.0512 18.850089-0.665599 27.801535l-12.859703-30.882061c-14.0117 16.580228-35.037784 20.03622-52.505476 29.883663-7.295983 4.113057-45.448427 25.361007-47.163623 27.485802-3.01226 3.729058-0.469332 21.836749-11.05064 25.002608-8.004248-12.765837-19.532754-24.00421-28.194068-36.164182-25.053808-35.174317-44.893761-60.467058-74.785957-92.560849 15.172231-7.492249 12.040505-21.555149 20.386085-33.680987 4.650656-6.758384 27.084736-27.810068 34.389253-32.546057 15.112498-9.804777 47.010023-21.657549 53.299075 1.109331l10.350909-6.971717c20.377552 23.227679 29.738597 43.101765 46.242024 64.460648 10.333842 13.371702 42.615367 38.109777 46.591891 10.350909 4.898122-34.184453-25.804739-61.226523-43.972164-85.264866-2.875727-3.805858-1.851729-9.309845-2.517327-10.14611l7.722649 5.111455 7.142383-8.26878 2.90986-17.706626 13.124235-4.889588z" fill="#DA834F" /><path d="M551.098949 658.473119c-8.063981 3.609592-2.943993 16.767961-13.525301 19.942353-45.072961 13.516768-102.937358 46.890556-138.265276 77.994484-4.761589 4.189857-11.28104 5.674653-15.931695 10.052243l2.65386 15.197831-9.78771 0.725331-0.213333 20.266619c-29.303398-26.026606-50.064949-83.293671-72.089431-118.425321 10.589842-3.165859 8.046914-21.265017 11.050641-25.002608 1.715196-2.124795 39.86764-23.364212 47.163622-27.485802 17.459159-9.847444 38.485243-13.311969 52.505477-29.883663l12.859703 30.88206c8.729579 8.934379 9.91571 31.376993 23.756744 35.447384 49.544417 14.549299 28.3306-78.378482-13.457035-71.483566 1.075197-1.612796-1.049598-7.620249 4.966389-12.927969 7.526382-6.630384 22.254881-6.092786 25.139141-8.47358 1.689596-1.399463 1.220264-6.826651 3.345058-9.412245 5.307721-6.468251 16.247428-2.116262 12.885303-15.513563 24.789275 35.447383 44.816961 71.278766 66.93531 108.125612z" fill="#CB7344" /><path d="M247.312996 411.322767c25.233007 22.442614 49.80895 46.685757 72.089431 72.08943l-10.350909 6.971717c-6.280519-22.76688-38.186577-10.914108-53.299075-1.10933-7.304516 4.735989-29.738597 25.787673-34.389252 32.546056-8.34558 12.125838-5.213854 26.188738-20.386086 33.680988-23.313012-25.019675-45.567893-50.210015-72.08943-72.089431l46.114025-28.543933 62.011587-48.691085c2.500261 2.218661 7.961581 3.071993 10.299709 5.145588z" fill="#D27845" /><path d="M813.694599 591.53781c-1.791996 1.894396-3.327992 3.362125-5.145588 5.145588h-10.299709c-1.988262-1.646929 7.577582-12.859703 12.859703-10.291176l2.585594 5.145588z" fill="#BF6439" /><path d="M473.863931 225.962136l92.501116 74.97369 36.223914-8.038381c32.409524 35.583916 59.101728 74.632358 87.534728 113.279734-3.217059 5.597854-9.378111 0.921598-17.271426 5.69172-7.398383 4.479989-12.509837 11.707706-18.739156 17.476225 15.300231 12.057572 39.287374 49.902816 15.564763 61.926255-25.898606 13.124236-31.615926-22.775413-49.390817-33.484721h-4.497056c-28.706066 28.322067-62.412653 53.273475-100.72723 66.815843-15.837829-28.654866-63.701184-90.598187-87.534728-113.279734 4.283723-6.894917 14.728499-6.809584 22.442614-11.033574 10.001043-5.478387 42.461767-26.060739 49.595617-32.78499 9.975443-9.412245 8.174914-29.038865 25.787673-28.3306 1.971195-7.807982-1.706663-8.379714-5.119988-12.834103-17.553025-22.946079-30.958861-31.274593-51.515612-48.895885-2.491727-2.133328-3.643725-3.746125-5.145588-5.145588-5.495454-5.137055-8.072514-17.672492-20.599418-15.445297-3.677858-5.094388-10.547175-12.433037-10.615442-18.013825l7.893315-13.030369c8.994112-8.738113 23.509278-6.348785 33.612721 0.1536z" fill="#DA844F" /><path d="M468.718343 277.452148c20.556752 17.621292 33.962587 25.941272 51.515612 48.895885 3.404792 4.45439 7.091183 5.026122 5.119988 12.834103-17.612759-0.716798-15.81223 18.918356-25.787673 28.3306-7.13385 6.724251-39.58604 27.315136-49.595617 32.78499-7.705582 4.22399-18.158891 4.130124-22.442614 11.033574-24.482076-23.295945-68.701705-53.418541-97.834436-72.089431 15.880496-11.673573 37.956177-16.281562 55.176403-24.635675 19.404754-9.412245 43.758831-23.807944 63.274518-34.628185 5.077321-2.80746 17.510359 8.908779 20.573819-2.525861z" fill="#D27743" /><path d="M329.693603 339.241869c29.124198 18.670889 73.352361 48.793485 97.834436 72.089431 23.833544 22.681547 71.696898 84.624868 87.534728 113.279734 19.097555 34.559919 33.851654 80.801943 46.344425 118.425322 5.529587 16.648494 15.052765 33.424988 15.436763 51.490012-11.554106-8.866112-18.483157-23.961544-25.736473-36.044715-22.118348-36.846847-42.146034-72.678229-66.935309-108.125613-26.700737-38.178044-56.976933-78.08835-87.534728-113.279734-26.077805-30.020196-54.715605-59.084661-82.380606-87.534727-12.049038-12.381838-24.610075-23.330079-36.044715-36.027649 17.774892-2.926926 29.388731 15.854896 41.301236 23.253279 4.283723 2.662394 9.147712 1.809062 10.188776 2.47466z" fill="#B3572A" /><path d="M545.953361 210.516839c13.013303 6.220785 56.371068 32.648457 66.93531 41.190303 50.636681 40.934304 82.730472 87.568861 113.279733 144.170328 3.959457 7.330116 13.320502 15.991429 15.445297 20.599418 10.04371 21.777015 17.143426 48.025487 24.379676 70.8777 2.355194 7.449582 3.908257 18.210091 11.66504 21.811149-2.218661 9.574378 5.46132 16.657028 5.145588 25.736473l-10.282643 0.034133c4.189857-14.3701-7.432516-16.597294-10.308242-20.616485-25.053808-35.054851-45.158294-71.526232-72.089431-108.125613-28.433-38.647376-55.125204-77.687284-87.534728-113.279733L515.054234 205.379784c0.392532-0.0768 1.373863-5.597854 6.647451-4.505589 2.662394 0.554665 20.377552 7.799448 24.251676 9.651177z" fill="#B2572A" /><path d="M659.224562 133.28182c12.578104 2.235728 17.02396 20.505552 21.512482 24.814875 2.70506 2.594127 14.967431 5.521054 22.357281 11.135974 17.774892 13.491168 33.331122 35.447383 48.810552 51.583879 2.210128 16.913027-6.058652 9.241578-15.496497 7.773848-28.731666-4.462923-38.630309-0.648532-64.400915 2.431994-20.479952 2.449061-47.590288-3.541325-59.118794 20.684752-10.564242-8.541847-53.93054-34.969518-66.93531-41.190303-1.450663-12.731703 7.500782-13.354635 15.419697-18.056491 30.515128-18.099157 61.388656-42.888433 97.851504-43.767364 0.537599-5.043188-0.605865-10.444775 0.008533-15.411164z" fill="#D17644" /><path d="M690.123689 112.682402c25.864473 11.238374 87.765127 67.600908 108.228012 90.009388 9.557311 10.461842 22.911946 33.94552 32.085258 42.845766 1.689596 1.638396 6.297585 0.460799 7.859182 1.885863 6.869317 6.271985 13.832501 35.916716 6.297585 45.474026l-12.245305 0.563199-3.199992 4.582389c-12.765837-1.075197-9.693844-3.234126-15.445297-10.299709-19.080488-23.449545-41.412169-45.695893-61.789721-66.93531-15.47943-16.136495-31.03566-38.09271-48.810552-51.583878-7.389849-5.606387-19.65222-8.541847-22.357281-11.135974-4.488523-4.309323-8.934379-22.570614-21.512483-24.814875 1.279997-10.291176-0.494932-16.085296 10.248509-23.415412l7.048517-1.834662c3.677858 4.104524 10.461842 3.285326 13.602101 4.650656z" fill="#E2935E" /><path d="M473.863931 225.962136c14.335966-11.682106 14.284766-19.234088 10.308242-36.044716l15.266098-0.034133 0.247466 15.564764c6.886384-6.826651 13.823968 0.221866 15.368497-0.0768l87.534727 87.534727-36.223914 8.038381-92.501116-74.97369z" fill="#CC6F3E" /><path d="M314.248306 349.533045c27.673535 28.450066 56.311334 57.505998 82.380606 87.534728l-13.124236 4.889588-2.90986 17.706625-7.142383 8.268781-7.722648-5.111455c-19.455954-24.533276-48.016954-51.703345-72.089431-72.08943-3.404792-2.88426-6.894917-7.731182-10.299709-10.299709 19.046355 0.648532 19.455954-21.444216 30.890594-30.890594z" fill="#D17542" /><path d="M283.349178 380.432173c3.404792 2.568527 6.894917 7.415449 10.299709 10.299709-17.783425 0.605865-29.87513 21.836749-46.327357 10.274109v10.316776c-2.346661-2.082128-7.807982-2.93546-10.308243-5.145588-6.007453-5.333321-7.679982-11.084774-12.64637-15.692763-16.366895-15.172231-41.403636-19.942353-9.907177-45.71296 10.734908-3.123193 58.248396 27.647935 68.889438 35.660717z" fill="#DB8752" /><path d="M463.564221 272.30656c-11.665039 1.203197-15.069831-7.807982-20.599418-15.445297 12.526904-2.227195 15.095431 10.316776 20.599418 15.445297z" fill="#D27743" /><path d="M813.694599 287.751857c-10.308242-1.177597-14.455433 7.23625-20.582352 12.885303-9.489044 8.746646-50.619614 46.89909-54.203606 53.913473-6.95465 13.602101 5.631987 34.500186-12.740237 41.326837-30.549262-56.601467-62.643053-103.236024-113.279733-144.170328 11.528506-24.226076 38.647376-18.23569 59.118794-20.684752 25.770606-3.080526 35.66925-6.894917 64.400915-2.431994 9.437844 1.46773 17.715158 9.139179 15.496497-7.773848 20.377552 21.239417 42.709233 43.485764 61.789722 66.935309z" fill="#D9814D" /><path d="M741.613701 416.476888l12.561038-26.060739c24.814875-4.181324 26.146072-23.526345 41.412169-35.822849 12.740237-10.265576 33.424988-19.037822 46.788157-30.498062 9.78771-1.979729 6.084252 0.563199 8.277313 6.365852 6.946117 18.423423 12.305038 34.184453 24.840475 49.971083-13.457035-2.80746-10.257043 5.956253-12.876769 15.445297-1.399463 5.051721-2.90986 9.727977-3.01226 15.010098-10.052243 1.015464-37.444179 14.045834-43.357765 21.000484-13.252236 15.598897-18.61969 53.102809-38.32311 56.959866 6.212252 13.457035 0.870398 15.436764-0.255999 20.309285-7.756782-3.601058-9.301311-14.353033-11.665039-21.811148-7.23625-22.852213-14.327433-49.092151-24.379676-70.8777z" fill="#C76F42" /><path d="M844.593726 292.897445c-5.009055 6.365852-6.451185 5.905053-15.445297 5.145588l3.199992-4.582389 12.245305-0.563199z" fill="#D9814D" /><path d="M592.289252 941.668187c4.770122 0.878931 4.42879 4.616522 5.145588 5.145588v20.599418c-17.945558 23.637278-34.406319 41.719369-66.943842 36.044716-1.527463-13.866634 1.399463-30.267662 10.308242-41.190304 1.527463-1.877329 24.15781-20.147153 25.745006-20.599418 3.805858-1.075197 21.085817-0.853331 25.745006 0z" fill="#A97956" /><path d="M597.443374 946.822308c8.44798 6.263452 12.526904 6.331718 10.282642 20.599419l-10.282642-5.145588v-15.445297zM592.289252 941.668187c-4.659189-0.853331-21.939148-1.075197-25.745006 0l2.93546-4.684789c6.570651-1.066664 13.303435-1.066664 19.874087 0l2.935459 4.684789z" fill="#E0C4A5" /><path d="M782.804005 792.352271c66.80731-7.756782 4.966388 64.324116-23.159413 62.096921-22.314614-1.766396-17.996758-28.612199-7.731181-41.506036 6.826651-8.57598 20.991951-16.776494 30.890594-20.599418z" fill="#A36C49" /><path d="M1014.50906 637.882234c0.358399 0.068267 2.039462 5.085855 5.145588 5.145588-0.870398 2.295461 0.921598 7.662915-0.947198 11.707706-10.931174 23.697011-42.683633 60.91079-70.911833 44.706028-2.78186-2.602661 1.902929-31.359926 4.923722-35.822849 0.639998-0.947198 7.278916-3.473059 10.538642-7.466649 6.374385-7.790915 4.881055-16.102362 20.351952-18.278357 6.92905-0.972798 24.541809-1.279997 30.890594 0z" fill="#A97756" /><path d="M1014.50906 637.882234c-6.348785-1.279997-23.970077-0.972798-30.890594 0l3.020793-4.590922c8.209047-1.186131 16.648494-1.186131 24.849008 0l3.020793 4.590922z" fill="#E4CBAE" /><path d="M690.123689 406.177179c26.931137 36.599381 47.035623 73.079295 72.089431 108.125612l-25.770606-2.88426c-12.868236 14.993031-35.36205 25.847406-49.143352 38.690043-14.148233 13.183969-27.315136 29.627664-46.736956 40.780704-17.809025 10.222909-42.128968 13.781301-58.504396 29.021799-9.651177 8.977046-5.333321 25.693806-20.650618 23.116745-12.492771-37.623378-27.246869-83.865403-46.344425-118.425321 38.306043-13.542368 72.021164-38.493776 100.72723-66.815843h4.497056c17.774892 10.709308 23.492211 46.608957 49.390817 33.484721 23.722611-12.014905-0.264533-49.860149-15.564763-61.926255 6.229319-5.759986 11.340773-12.996236 18.739156-17.476225 7.893315-4.778655 14.054367-0.1024 17.271426-5.69172z" fill="#CC7344" /><path d="M293.648887 390.731882c24.063943 20.386085 52.624943 47.556155 72.089431 72.08943 0.665598 0.836265-0.358399 6.340252 2.517327 10.14611 18.167424 24.046877 48.870285 51.088947 43.972164 85.264866-3.976524 27.758868-36.258048 3.020793-46.591891-10.350909-16.503428-21.358883-25.864473-41.23297-46.242024-64.460648-22.280481-25.39514-46.84789-49.638283-72.089431-72.089431v-10.316776c16.460761 11.562639 28.552466-9.676777 46.344424-10.274109z" fill="#E59A66" /><path d="M427.528039 632.728113c0.708265-8.942912-1.663996-19.251155 0.665599-27.801535 1.740796-6.417052 8.866112-7.099717 9.634111-8.24318 41.787635-6.894917 63.001452 86.041398 13.457035 71.483565-13.841034-4.061857-15.027165-26.504471-23.756745-35.447383z" fill="#E08F5F" /></svg>