<?xml version="1.0" standalone="no"?><!DOCTYPE svg PUBLIC "-//W3C//DTD SVG 1.1//EN" "http://www.w3.org/Graphics/SVG/1.1/DTD/svg11.dtd"><svg class="icon" width="256px" height="256.00px" viewBox="0 0 1024 1024" version="1.1" xmlns="http://www.w3.org/2000/svg"><path d="M917.9136 272.494933c12.484267 16.930133-16.170667 41.412267-27.9808 51.1232-39.6544 32.64-93.943467 46.429867-132.795733 81.578667-3.729067 4.0448-4.667733 11.5968-7.645867 15.291733-43.989333 54.715733-47.214933 122.8544-102.289067 165.640534-35.3024 27.426133-128.768 54.0928-174.907733 70.058666-4.923733 1.706667-14.9504 8.96-18.7904 1.621334 43.298133-57.6256 117.9904-57.1648 163.396267-112.187734 20.087467-24.337067 33.885867-56.3712 48.477866-84.206933l15.232-40.9088c-31.752533 33.851733-39.594667 75.426133-76.458666 107.264-56.7808 49.032533-137.0368 64.2048-188.885334 117.3248-16.247467 16.648533-29.678933 47.291733-43.426133 66.295467-33.1008 45.781333-79.547733 88.704-130.235733 122.385066l-27.972267 25.617067c-5.1968-5.973333-14.993067-20.6336-15.556267-28.1856 2.645333-33.160533 47.0272-42.453333 71.4752-61.3376 48.1792-37.239467 63.6416-97.928533 102.186667-142.779733 67.6096-78.651733 161.322667-76.859733 224.750933-152.900267 25.941333-31.104 34.773333-68.6592 56.7296-101.4784 25.838933-38.6304 62.122667-64.750933 102.8352-85.998933 19.9168-10.3936 47.3088-17.194667 66.7392-30.225067 12.9792-8.704 20.608-24.021333 36.369067-28.4928 9.4976 3.575467 19.4048 5.614933 28.0064 11.460267 8.379733 5.691733 28.407467 31.940267 30.7456 33.0496z m-122.4704 71.441067c33.4336-3.2512 83.566933-15.121067 81.6384-56.132267-27.050667 11.093333-56.3712 16.264533-79.36 35.456l-2.2784 20.676267z" fill="#D67A50" /><path d="M565.777067 216.354133c-17.809067 25.941333-30.8736 65.3056-45.934934 91.861334C464.213333 406.306133 396.885333 414.062933 308.855467 462.122667c-36.548267 19.959467-63.240533 52.1984-92.672 80.8448-6.0416-3.413333-2.0224-15.249067-0.247467-20.6592 7.6288-23.278933 49.220267-68.7872 69.2736-83.831467 10.3168-7.739733 41.207467-19.396267 45.585067-30.967467 5.418667-14.336-5.333333-14.711467-17.629867-12.526933-13.090133 2.3296-55.185067 30.856533-66.449067 40.721067-53.845333 47.1552-58.3936 128.298667-120.046933 175.9488-20.309333 15.6928-47.624533 25.514667-67.976533 39.202133-11.938133 8.021333-18.619733 23.662933-33.877334 24.814933C14.353067 664.021333 5.393067 646.0672 0.0512 631.381333c-1.988267-23.022933 57.224533-45.789867 75.579733-60.552533 59.332267-47.735467 68.693333-128.093867 138.231467-178.184533 22.186667-15.982933 103.0912-58.427733 127.368533-64.008534 4.420267-1.015467 11.656533 0.503467 17.5616-0.145066 5.179733-0.571733 10.1888-4.9408 14.848-4.258134 9.813333 1.4336 19.976533 16.9472 33.2032 15.633067l1.109334 8.746667c10.4448 3.1744 10.914133-1.024 14.933333-4.667734 12.757333-11.5456 27.409067-22.1696 38.058667-35.9424 20.078933-25.9584 28.654933-61.5424 46.2848-86.408533 7.3472-10.368 19.1488-17.3568 27.938133-25.6512 10.248533 6.340267 26.103467 8.6528 30.6176 20.411733z" fill="#D06E45" /><path d="M519.850667 308.215467l40.823466 25.514666c-13.533867 19.592533-23.406933 43.451733-40.7296 63.889067-42.257067 49.8688-93.294933 77.533867-148.096 109.627733-71.9104 42.103467-71.338667 56.789333-113.0752 124.2368-34.773333 56.209067-83.396267 93.713067-136.994133 130.935467-0.5376-1.160533-15.488-10.487467-20.411733-15.3088l79.2064-56.0384c31.3856-26.496 34.944-39.338667 53.486933-71.552 23.355733-40.558933 49.5872-75.588267 84.104533-107.272533 8.0128-7.355733 24.738133-10.274133 23.057067-25.412267-36.437333 5.76-63.940267 36.5824-89.079467 61.457067l-43.5968 66.1248c-23.304533 19.720533-44.9024 42.359467-68.804266 61.329066-19.2512 15.274667-52.4288 25.5488-58.7776 50.944-16.401067-15.709867-42.069333-35.362133-56.1408-51.037866 15.2576-1.143467 21.9392-16.785067 33.877333-24.814934 20.352-13.678933 47.658667-23.5008 67.976533-39.202133 61.653333-47.650133 66.2016-128.7936 120.046934-175.9488 11.264-9.864533 53.358933-38.4 66.449066-40.721067 12.305067-2.184533 23.048533-1.809067 17.629867 12.526934-4.369067 11.5712-35.268267 23.227733-45.585067 30.967466-20.053333 15.044267-61.6448 60.552533-69.2736 83.831467-1.774933 5.410133-5.794133 17.245867 0.247467 20.6592 29.431467-28.637867 56.123733-60.885333 92.672-80.8448 88.029867-48.068267 155.357867-55.816533 210.986667-153.9072z" fill="#F6CFB4" /><path d="M688.264533 53.0432c19.157333 14.728533 33.826133 34.619733 51.037867 51.037867-23.6544 33.134933-66.304 48.128-97.083733 73.8816-17.9712 15.035733-44.279467 38.9888-40.704 63.906133l112.0512-58.9056c17.664-19.037867 43.963733-31.616 51.2512-58.4704 9.403733 9.489067 22.536533 21.486933 30.6176 30.6176-19.4816 0.2816-27.904 18.2528-41.045334 27.844267-17.536 12.8-36.642133 23.4752-55.918933 33.390933-12.228267 6.2976-16.401067 2.696533-25.514667 15.3088l-6.852266 0.768-3.3536 4.334933c-44.484267 19.968-74.564267 57.147733-102.0672 96.964267l-40.823467-25.514667c15.061333-26.555733 28.125867-65.92 45.934933-91.861333 12.859733-18.7392 35.7888-36.232533 51.029334-53.589333 5.0432-5.742933 12.219733-8.413867 10.205866-17.851734-9.975467-9.070933-65.527467 25.105067-76.3136 33.390934-7.569067 5.8112-10.743467 13.115733-15.547733 17.6384-8.789333 8.2944-20.590933 15.2832-27.938133 25.6512-17.621333 24.866133-26.205867 60.450133-46.2848 86.408533-10.6496 13.7728-25.2928 24.3968-38.058667 35.9424-15.3344 2.158933-9.821867-3.968-4.266667-11.9296 54.485333-78.199467 58.129067-147.0464 150.510934-196.522667 21.341867-11.426133 45.346133-17.988267 66.542933-30.421333 19.165867-11.2384 45.789867-29.738667 52.590933-52.027733z" fill="#F6CBAD" /><path d="M341.230933 976.768c-1.4336-12.6208 7.424-13.243733 15.2832-17.885867 37.282133-22.016 62.5408-30.208 91.9808-66.2272 35.131733-42.990933 41.454933-97.8432 84.0192-135.432533 9.898667-8.746667 37.640533-29.602133 48.580267-35.626667 73.019733-40.157867 107.648-27.6224 163.310933-107.170133 22.237867-31.778133 31.7184-68.2752 53.802667-96.7424 11.818667-15.232 29.713067-25.5488 37.956267-43.793067l10.308266-7.458133c56.840533-22.664533 114.5856-38.843733 156.782934-85.6576l11.630933-16.418133c16.7168 26.5472 9.250133 36.462933-12.663467 56.234666-43.221333 38.997333-91.9808 43.9296-137.198933 72.046934-68.727467 42.734933-77.866667 135.210667-138.385067 188.2368-58.7264 51.456-143.1552 52.104533-193.809066 117.495466-22.784 29.4144-34.235733 72.183467-56.482134 101.725867-27.3408 36.309333-74.4448 63.172267-112.938666 86.357333-9.0624 2.756267-15.249067-5.0176-22.178134-9.6768z" fill="#B44D28" /><path d="M142.190933 782.839467c-2.961067-14.993067 6.826667-8.533333 15.4112-12.5696 49.826133-23.415467 85.879467-46.370133 114.474667-94.856534 33.655467-57.070933 36.4288-91.101867 94.7968-134.8608 6.144-4.608 20.360533-6.971733 20.283733-12.893866 69.248-14.276267 120.046933-44.0064 160.5376-102.289067 20.642133-29.713067 31.547733-63.240533 49.501867-93.3888 23.236267-39.0144 41.506133-49.1264 80.853333-69.691733 30.813867-6.852267 65.646933-23.5264 90.811734-42.1376 1.544533-1.143467 0.529067-6.340267 2.0992-7.586134 5.333333-4.224 19.6864-8.874667 23.389866-12.586666 4.599467-4.616533 7.799467-20.608 16.384-24.448 2.773333 3.8144 8.490667 6.8096 9.685334 13.5936l-0.059734 8.490666c-3.669333 19.831467-53.9136 55.953067-72.32 65.774934-20.855467 11.136-50.705067 18.926933-71.808 30.2592-71.560533 38.459733-76.782933 112.503467-125.678933 170.325333-54.7072 64.699733-97.664 60.373333-161.851733 98.423467-81.9712 48.605867-83.7376 137.130667-154.88 192.1536-6.382933 4.932267-55.483733 36.6848-59.1872 37.76-7.389867 2.141867-16.554667 0.9984-24.260267 0.1024-6.4512-1.783467-7.0144-8.738133-8.192-9.5744z" fill="#B04924" /><path d="M560.674133 690.9696l23.2448 20.420267 1.698134 2.551466-4.522667 7.6544c-10.939733 6.016-38.6816 26.88-48.580267 35.626667-42.555733 37.589333-48.878933 92.450133-84.0192 135.432533-29.44 36.0192-54.690133 44.2112-91.9808 66.2272-7.8592 4.642133-16.725333 5.2736-15.2832 17.885867-22.101333-14.848-43.332267-41.301333-61.243733-61.243733 7.415467-17.911467 14.8736-4.1728 20.4032-7.552 11.357867-6.9376 14.037333-9.6768 30.139733-8.507734l1.2032-8.439466c25.8048-2.338133 42.9312-23.5776 50.6112-46.8992l7.483734 4.369066 12.637866-14.6176c-2.4576 8.183467-5.6832 16.708267-5.0944 25.514667 44.6976-9.344 46.9504-67.336533 71.338667-99.6096 24.5504-32.4864 59.562667-48.443733 91.963733-68.795733z" fill="#E08B60" /><path d="M688.264533 53.0432c-6.801067 22.289067-33.4336 40.7808-52.590933 52.027733-21.205333 12.4416-45.201067 18.9952-66.542933 30.421334-92.3904 49.467733-96.0256 118.3232-150.510934 196.522666-5.546667 7.9616-11.067733 14.088533 4.266667 11.9296-4.027733 3.643733-4.488533 7.842133-14.933333 4.667734l-1.109334-8.746667c-13.218133 1.322667-23.389867-14.199467-33.2032-15.633067-4.6592-0.682667-9.668267 3.6864-14.848 4.258134-5.905067 0.648533-13.141333-0.8704-17.5616 0.145066 1.8432-6.7072 11.136-6.8096 15.3088-10.205866l2.440534 4.650666 2.653866-2.048 5.085867-5.162666-5.077333-2.542934c64.273067-60.740267 73.173333-149.623467 151.2448-198.340266 30.3872-18.961067 72.2176-28.2368 100.676266-47.325867 18.2528-12.245333 28.612267-36.6592 56.260267-29.320533 5.981867 5.239467 12.1856 9.9072 18.449067 14.72z" fill="#D2754B" /><path d="M371.848533 711.389867c0.469333 4.48 4.241067 20.078933 7.509334 19.7888 14.592-1.297067 29.892267 1.450667 43.52-4.48-2.389333 2.8928-13.781333 19.84-17.7408 25.634133-16.776533 24.5504-29.2864 55.594667-48.512 79.0784-23.210667 28.347733-56.541867 53.632-86.852267 73.9072-17.792-10.001067-42.7008-30.481067-56.1408-45.934933l27.972267-25.617067c50.688-33.681067 97.134933-76.612267 130.235733-122.385067z" fill="#F6CBAD" /><path d="M917.9136 272.494933c18.56 8.797867 53.802667 48.8448 71.4496 66.346667-27.716267 2.372267-43.810133 29.5168-67.797333 41.924267-41.9328 21.700267-81.536 27.8272-126.1312 55.04-6.016 3.669333-15.581867 6.4512-20.411734 10.205866l-3.157333-4.445866-17.160533-0.759467-0.759467-17.160533-4.445867-3.157334c2.978133-3.703467 3.9168-11.246933 7.645867-15.291733 38.852267-35.1488 93.1328-48.938667 132.795733-81.578667 11.810133-9.719467 40.465067-34.193067 27.9808-51.1232z" fill="#F5CDAF" /><path d="M371.848533 507.246933l20.4032 5.12 0.0256 5.077334-10.274133 0.0768 5.154133 10.1376c0.0768 5.922133-14.139733 8.285867-20.283733 12.893866-58.368 43.758933-61.1328 77.789867-94.7968 134.8608-28.5952 48.4864-64.657067 71.432533-114.474667 94.856534-8.584533 4.036267-18.372267-2.423467-15.4112 12.5696-15.1808-10.717867-13.585067-5.674667-20.411733-20.411734 53.597867-37.2224 102.2208-74.7264 136.994133-130.935466 41.728-67.447467 41.1648-82.133333 113.0752-124.2368z" fill="#CA673D" /><path d="M989.3632 338.833067c9.506133 9.429333 17.6128 12.962133 25.514667 25.514666l-11.630934 16.418134c-42.197333 46.805333-99.9424 62.984533-156.782933 85.6576-9.198933-23.005867-37.418667-9.275733-51.037867-30.6176 44.5952-27.204267 84.206933-33.339733 126.1312-55.04 23.978667-12.407467 40.081067-39.552 67.797334-41.924267z" fill="#CE6840" /><path d="M402.466133 833.8688l-12.637866 14.6176-7.483734-4.369067c-7.68 23.3216-24.8064 44.561067-50.6112 46.8992l-1.2032 8.439467c-16.1024-1.160533-18.781867 1.578667-30.139733 8.507733-5.5296 3.370667-12.987733-10.359467-20.4032 7.552l-10.205867-10.205866c30.3104-20.2752 63.6416-45.559467 86.852267-73.9072 19.2256-23.4752 31.735467-54.528 48.512-79.0784 3.959467-5.802667 15.351467-22.741333 17.7408-25.634134 6.075733-7.3472 44.791467-34.7648 54.638933-39.773866 8.772267-4.462933 30.711467-13.661867 39.7824-16.3584 3.421867-1.015467 3.805867 4.718933 2.5344 7.6288-4.693333 10.7008-37.725867 28.842667-48.571733 38.1952-33.297067 28.731733-56.260267 75.665067-68.795733 117.4784z" fill="#D47C52" /><path d="M764.817067 124.4928c-7.296 26.8544-33.595733 39.432533-51.2512 58.4704L601.514667 241.8688c-3.584-24.917333 22.7328-48.8704 40.704-63.906133 30.788267-25.7536 73.429333-40.746667 97.083733-73.8816 6.7584 6.442667 19.089067 13.9264 25.514667 20.411733z" fill="#D0724A" /><path d="M234.052267 619.528533c-18.542933 32.213333-22.101333 45.047467-53.486934 71.552l-79.2064 56.0384c-6.869333-6.724267-13.312-13.6192-20.411733-20.411733 6.3488-25.3952 39.5264-35.669333 58.7776-50.944 23.901867-18.9696 45.499733-41.608533 68.804267-61.329067 4.795733-4.061867 11.383467-4.795733 10.222933-15.3088h5.077333l10.222934 20.411734z" fill="#C7643B" /><path d="M795.434667 155.1104c5.128533 5.7856 10.632533 13.9776 15.3088 20.411733-8.584533 3.84-11.784533 19.831467-16.384 24.448-3.703467 3.712-18.056533 8.3712-23.389867 12.586667-1.570133 1.245867-0.554667 6.442667-2.0992 7.586133-25.1648 18.6112-60.0064 35.285333-90.811733 42.1376 6.6816-3.490133 12.7744-13.781333 25.514666-10.222933l-9.403733-12.6976 5.0944-12.279467 6.570667-0.622933-7.364267-10.112c19.2768-9.915733 38.382933-20.599467 55.918933-33.390933 13.149867-9.591467 21.563733-27.562667 41.045334-27.844267z" fill="#CA663F" /><path d="M356.539733 318.421333c0.887467-0.725333 3.310933-3.4048 5.102934-5.102933l5.077333 2.542933-5.085867 5.162667-2.653866 2.048-2.440534-4.650667z" fill="#D06E45" /><path d="M371.848533 711.389867c13.738667-19.003733 27.178667-49.655467 43.426134-66.295467C467.114667 591.9744 547.3792 576.802133 604.16 527.7696c36.864-31.837867 44.6976-73.412267 76.458667-107.264l-15.232 40.9088c-14.592 27.844267-28.398933 59.869867-48.477867 84.206933-45.405867 55.022933-120.0896 54.562133-163.396267 112.187734 3.84 7.338667 13.8752 0.085333 18.7904-1.621334 46.139733-15.965867 139.613867-42.632533 174.907734-70.058666 55.074133-42.786133 58.299733-110.9248 102.289066-165.640534l4.445867 3.157334 0.759467 17.160533 17.160533 0.759467 3.157333 4.445866c-37.981867 29.550933-55.0656 77.696-76.552533 117.376-8.951467 16.529067-22.007467 30.6176-35.720533 43.383467 3.336533 7.2192 12.433067-1.024 16.989866-3.4304 6.843733-3.6096 9.540267-11.332267 18.730667-9.326933l-12.672 15.3856c-19.268267 9.966933-36.317867 26.624-53.802667 38.058666-23.057067 15.086933-48.059733 28.893867-71.3216 43.502934-32.401067 20.352-67.413333 36.309333-91.963733 68.795733-24.388267 32.2816-26.641067 90.274133-71.338667 99.6096-0.5888-8.797867 2.645333-17.3312 5.0944-25.514667 12.535467-41.813333 35.498667-88.746667 68.795734-117.4784 10.837333-9.352533 43.8784-27.4944 48.571733-38.1952 1.28-2.909867 0.887467-8.644267-2.5344-7.6288-9.070933 2.688-31.010133 11.886933-39.7824 16.3584-9.847467 5.0176-48.5632 32.426667-54.638933 39.773867-13.627733 5.930667-28.928 3.182933-43.52 4.48-3.268267 0.290133-7.048533-15.3088-7.509334-19.7888z" fill="#F8D3BB" /><path d="M795.4432 343.936l2.2784-20.676267c22.980267-19.191467 52.309333-24.362667 79.36-35.456 1.928533 41.0112-48.2048 52.881067-81.6384 56.132267z" fill="#F6CFB3" /><path d="M535.159467 195.9424c4.795733-4.522667 7.978667-11.8272 15.547733-17.6384 10.7776-8.285867 66.338133-42.453333 76.3136-33.390933 2.0224 9.437867-5.154133 12.1088-10.205867 17.851733-15.249067 17.3568-38.1696 34.850133-51.029333 53.589333-4.514133-11.758933-20.369067-14.071467-30.6176-20.411733z" fill="#D27E57" /><path d="M698.4704 216.354133l7.364267 10.112-6.570667 0.622934-5.0944 12.279466 9.403733 12.6976c-12.7488-3.566933-18.833067 6.724267-25.514666 10.222934-39.355733 20.573867-57.617067 30.677333-80.853334 69.691733-17.954133 30.148267-28.868267 63.684267-49.501866 93.3888-40.490667 58.282667-91.2896 88.021333-160.5376 102.289067l-5.154134-10.1376 10.274134-0.0768-0.0256-5.077334-20.4032-5.12c54.801067-32.085333 105.838933-59.758933 148.096-109.627733 17.322667-20.437333 27.195733-44.296533 40.7296-63.889067 27.502933-39.816533 57.582933-77.0048 102.0672-96.964266l2.542933 5.077333c4.360533-2.346667 5.469867-7.150933 7.662933-10.180267 9.122133-12.612267 13.2864-9.019733 25.514667-15.3088z" fill="#D3744A" /><path d="M208.5376 614.4256l43.5968-66.1248c25.147733-24.874667 52.642133-55.697067 89.079467-61.457067 1.672533 15.138133-15.0528 18.056533-23.057067 25.412267-34.517333 31.684267-60.757333 66.7136-84.104533 107.272533L223.829333 599.125333h-5.077333c1.160533 10.513067-5.4272 11.246933-10.222933 15.300267z" fill="#CA724C" /><path d="M672.955733 231.662933c-2.193067 3.029333-3.3024 7.8336-7.662933 10.180267l-2.542933-5.077333 3.3536-4.334934 6.852266-0.768z" fill="#CA663F" /><path d="M846.472533 466.423467l-10.308266 7.458133c-8.234667 18.244267-26.1376 28.561067-37.956267 43.793067-22.084267 28.4672-31.573333 64.9728-53.802667 96.7424-1.6384-8.840533 6.144-16.503467-6.528-21.384534-10.368-3.9936-23.7056-13.0048-31.889066-10.0864l-7.509334-19.566933c21.486933-39.68 38.570667-87.8336 76.552534-117.376 4.829867-3.754667 14.404267-6.536533 20.411733-10.205867 13.610667 21.341867 41.838933 7.620267 51.037867 30.6176z" fill="#D2744B" /><path d="M698.4704 563.387733l7.509333 19.566934c8.183467-2.9184 21.521067 6.0928 31.889067 10.0864 12.672 4.881067 4.8896 12.544 6.528 21.384533-55.662933 79.547733-90.2912 67.0208-163.310933 107.170133l4.522666-7.6544-1.698133-2.551466-23.2448-20.420267c23.261867-14.609067 48.264533-28.424533 71.3216-43.502933 17.4848-11.434667 34.5344-28.100267 53.802667-38.058667l12.672-15.3856c-9.1904-2.005333-11.886933 5.717333-18.730667 9.326933-4.548267 2.4064-13.6448 10.641067-16.989867 3.4304 13.704533-12.765867 26.769067-26.8544 35.720534-43.383466z" fill="#D97F56" /></svg>