<?xml version="1.0" standalone="no"?><!DOCTYPE svg PUBLIC "-//W3C//DTD SVG 1.1//EN" "http://www.w3.org/Graphics/SVG/1.1/DTD/svg11.dtd"><svg class="icon" width="256px" height="256.00px" viewBox="0 0 1024 1024" version="1.1" xmlns="http://www.w3.org/2000/svg"><path d="M844.9024 517.905067c-7.3984 4.642133-7.9104 4.5056-16.238933 7.509333-8.704 3.140267-11.904 5.7088-19.618134 7.125333l-12.066133 2.2016c-8.3712 1.527467-22.766933-1.134933-29.627733-6.0928-1.757867-1.271467-4.334933-2.781867-5.563734-3.822933l-10.888533-9.198933c-1.4592-1.2288-4.309333-3.285333-5.947733-4.061867-13.482667-6.365867-24.6784-6.766933-39.287467-4.0704l-9.762133 1.800533c-2.321067 0.426667-5.154133 1.698133-7.5264 2.645334l-22.741334 9.053866-11.6736 5.179734c-1.92 0.853333-4.608 4.1984-6.613333 5.9904-1.92 1.706667-4.872533 3.2-7.253333 4.616533l-6.016 3.5584c-1.237333 0.733867-3.3536 2.978133-4.334934 4.0448-2.269867 0.7936-5.922133 3.584-8.1408 5.051733l-7.1168 4.693334c-2.5856 1.706667-5.5552 3.3024-7.842133 5.085866l-6.673067 5.205334-7.9104 5.973333-6.152533 4.061867-6.562133 5.2992-5.947734 4.795733c-2.304 1.851733-5.0944 3.874133-7.031466 5.632-1.3568 0.580267-2.722133 1.6384-4.1472 2.858667l-5.0944 4.352-6.3744 5.376-6.3232 5.3504-9.454934 8.055466-5.085866 4.420267c-1.92 1.672533-4.1216 3.9936-6.024534 5.4784l-13.815466 10.8032-9.301334 7.2704c-8.209067 6.417067-4.309333 5.6832-15.377066 13.883733-1.339733 0.989867-4.6336 2.474667-5.7088 3.524267l-7.099734 6.920533-5.691733 5.0944c-2.730667 2.449067-10.6496 9.787733-6.5536 13.696 4.5056-1.134933 8.661333-2.3296 12.859733-3.959466l5.930667-2.295467 6.5792-2.568533 12.731733-5.051734 14.609067-5.2224c2.628267-0.938667 5.5296-2.3552 8.064-3.626666l6.3488-3.182934c5.316267-2.670933 9.088-4.241067 14.250667-5.700266l1.3568 0.2304c-0.1792 1.9456-3.524267 1.9456-10.231467 4.898133l-5.666133 2.500267-6.468267 2.9696-6.5024 2.944-6.417067 2.8416c-2.7904 1.237333-5.8368 2.3808-8.797866 3.421866l-12.808534 4.497067-5.009066 1.885867-22.3744 8.4736c-4.2496 1.6128-8.917333 4.258133-13.1328 6.314666-7.0144 3.4304-13.533867 7.313067-19.950934 11.605334l-14.6944 9.821866c-2.9184 1.954133-6.647467 3.6608-9.770666 5.435734l-7.168 4.078933-3.797334 1.6384-5.905066 3.165867c-1.476267 0.7936-3.114667 1.6384-4.650667 2.346666L366.805333 740.693333c-1.664 0.768-4.1472 1.860267-5.777066 2.269867l-9.608534 2.423467c-3.908267 0.989867-12.8-0.827733-17.8176-3.831467l-6.7584-4.053333c-2.926933-1.749333-5.666133-3.618133-8.337066-5.632l-5.521067-4.1728-9.1648-7.005867-7.3984-5.691733c-2.9696-2.286933-5.845333-4.1216-9.2672-6.229334-1.885867-1.160533-4.1728-3.490133-6.109867-5.0688l-5.8368-4.770133-11.298133-8.6528-6.340267-5.128533-8.0896-6.0928-4.565333-3.5328-6.075733-4.48-8.891734-6.570667-7.236266-5.589333-5.188267-4.138667c-4.898133-3.908267-14.395733-10.282667-20.053333-13.627733-1.646933-0.9728-3.8912-2.013867-5.188267-2.909867l-5.666133-3.968c-4.036267-2.824533-8.046933-5.4016-12.2624-7.978667l-20.992-12.8256-13.2352-7.773866-13.636267-8.226134-6.587733-4.1216-6.545067-3.908266-7.415467-4.3008-12.270933-7.185067c-0.725333-0.426667-2.346667-2.628267-2.4064-2.8416 2.594133 0.443733 4.7872 1.6384 7.3216 3.217067 8.968533 5.589333 7.7312 3.345067 14.660267 8.610133 3.933867 1.9968 7.620267 3.882667 11.349333 6.1184l8.1664 4.881067 8.686933 5.376 6.954667 4.411733c0.477867 0.298667 3.3536 0.145067 3.4304-0.418133l0.469333-3.208534c0.162133-1.083733-1.902933-3.3024-2.756266-4.0192l-7.808-6.519466c-2.013867-1.681067-5.213867-3.754667-7.210667-5.179734-6.1184-10.914133-9.949867-9.3696-19.968-21.2992l-4.266667-5.085866-3.831466-4.386134c-2.619733-3.003733-5.060267-6.664533-7.2192-10.231466-6.2976-10.376533-7.0656-8.3712-12.526934-19.165867l-4.292266-8.490667-2.9952-6.229333c-2.670933-5.5552-2.816-14.318933-1.6384-21.085867 5.4272-0.725333 10.24 0.315733 15.0784 2.594134l7.125333 3.362133c0.9216 0.4352 3.370667 0.708267 4.215467 0.750933l9.4976 4.6336c0.264533 0.375467 1.6896 1.911467 2.338133 2.2784l7.4752 4.258134 10.530133 5.9392 7.168 4.010666 6.101334 3.370667 13.5936 7.3984 11.904 6.775467c2.4832 1.416533 5.5808 3.234133 7.978666 4.471466l10.530134 5.410134 8.226133 4.343466 11.869867 5.956267 5.3504 2.6624 9.634133 4.872533c1.314133 0.6656 3.464533 1.425067 5.000533 2.065067l11.485867 4.821333 6.417067 2.6368 14.498133 5.751467 6.306133 2.8672 10.24 3.985067c12.8256 4.992 8.712533 0.9728 15.931734 5.998933 4.753067 3.310933 13.610667 4.462933 23.825066 9.002667l4.923734 2.184533c6.5536 2.909867 1.928533 4.4544 11.861333 5.802667 5.179733 0.699733 11.374933 3.421867 15.556267 6.1696 4.957867 3.259733 3.003733-2.6368 11.835733 4.778666l5.034667 0.955734c3.080533 1.476267 6.075733 2.875733 9.2672 3.7888l8.174933 2.3296c1.954133 0.554667 5.768533 5.6832 12.0064 7.637333l5.674667 1.774933c4.974933 1.553067 9.736533-6.152533 10.222933-3.242666l0.443733 2.653866c0.290133 1.732267 1.595733 5.188267 3.089067 5.879467l6.0672 2.816c4.5312 2.0992 5.410133 8.977067 10.9056 7.492267-0.341333-4.411733 0.110933-9.386667 3.950933-11.52 4.343467-2.414933 10.845867 4.3264 13.329067 1.3056 1.365333-1.655467 0.110933-6.152533-1.339733-7.611734l-1.7152-1.732266c-0.418133-0.426667-1.2544 0.324267-2.2272 1.015466l-2.2016 1.570134c-0.657067 0.469333-2.8928-0.5376-3.421867-1.152-0.469333-0.546133-0.375467-2.824533 0.264533-3.157334 6.946133-3.6608 6.237867 0.571733 5.614934-4.1216-0.9216-6.912-4.744533-3.421867-9.864534-7.278933-8.866133-6.6816-13.6448-1.937067-14.549333-3.4304l-1.698133-2.7904c-0.469333-0.776533-2.338133-1.902933-3.677867-2.5856l-11.374933-5.76c-0.64-0.324267-2.833067 1.5616-3.217067 2.133333l-1.1264 1.681067c-0.238933 0.3584-1.442133-0.802133-1.7664-1.160533l-5.128533-5.5552c-1.373867-1.493333-5.614933-3.4304-7.662934-3.259734-2.935467 0.247467-12.1856 2.2016-14.250666-2.747733-0.6912-1.664-2.389333-4.727467-3.5584-5.5296l-5.5808-0.759467-6.664534-3.6096-12.398933-4.1984c-2.6368-0.896-4.898133-2.269867-7.970133-2.474666-3.584-0.238933-6.545067-1.809067-9.7536-3.029334l-11.195734-4.258133c-1.211733-0.4608-4.317867-1.041067-5.307733-1.732267-2.2272-1.544533-5.7088-3.464533-8.388267-4.258133l-9.224533-2.756267c-1.288533-0.384-3.8656-2.321067-5.137067-2.244266-2.304 0.145067-4.9152-0.5888-6.664533-1.681067l-6.8608-4.3008c-9.224533-5.777067-3.712-1.467733-10.5984-4.317867l-14.839467-6.152533-8.2432-3.464533-12.279466-5.290667-8.149334-3.5328-9.719466-4.1984-6.3744-2.798933-10.581334-4.9408-7.850666-3.9424-7.645867-3.84-11.306667-5.393067-7.688533-4.036267-7.714133-4.053333-9.156267-4.872533c-5.179733-2.756267-9.6768-6.613333-14.72-8.558934l-4.1984-2.798933c-2.065067-1.373867-4.053333-2.8416-6.0416-4.360533l-17.774933-13.6192-7.9616-6.135467-9.224534-7.594667-6.340266-5.034666c-0.7168-0.571733-2.926933-1.3568-3.456-1.442134-3.797333-4.846933-16.989867-10.9568-24.4736-13.226666-2.372267-0.7168-5.845333-0.554667-8.157867-0.6144l-2.440533-0.068267c-0.8192-1.5104 11.4688-3.712 12.509866-4.104533l20.497067-7.586134 7.671467-1.757866 12.1856-3.959467 27.042133-8.814933 7.108267-2.363734 10.0864-3.114666 22.212266-6.724267c10.120533-3.063467 10.709333-4.471467 20.010667-6.749867l7.953067-1.954133 10.564266-3.217067 15.803734-4.053333 10.197333-2.577067 8.098133-2.2016 6.656-1.954133 8.354134-2.2016 12.962133-3.131733 16.5632-3.4048 9.6256-1.9456 17.3824-3.694934 9.4976-2.261333 10.3424-2.5856 9.472-2.372267 7.108267-1.92 8.32-2.414933 10.052266-3.072 10.001067-3.2512c1.1008-0.3584 3.3536-1.450667 4.770133-2.048l15.7952-6.596267c3.268267-1.365333 6.749867-3.242667 9.864534-5.000533l6.8352-3.857067c1.237333-0.699733 3.370667-2.363733 4.778666-3.345066l11.076267-7.697067c9.7536-6.784 5.376-4.7872 15.351467-11.426133l6.417066-4.2752 6.946134-4.667734 7.2704-4.625066c3.677867-2.338133 8.004267-4.104533 11.912533-4.087467 11.963733 0.034133 11.502933-1.655467 16.375467-1.083733l12.936533 1.536c2.082133 0.247467 4.736 0.657067 7.005867 1.186133 28.578133 6.613333 8.832 2.440533 31.274666 13.4144 2.944 1.4336 6.0928 4.804267 8.849067 6.647467l8.081067 5.393066 6.519466 3.9936c3.959467 2.423467 8.96 5.538133 12.151467 8.618667 3.293867 3.182933 5.418667 6.254933 9.745067 8.098133 4.4544 1.8944 7.3472 6.016 10.666666 9.053867l5.384534 4.906667 4.369066 5.4016c4.2496 5.256533 7.936 0.469333 14.754134 12.228266 1.7408 2.9952 6.587733 4.590933 9.4464 6.638934 9.5744 6.8608 10.6752 10.888533 20.701866 15.5648 0.8448 1.032533 2.670933 3.669333 3.669334 4.48l6.254933 5.0944c3.037867 2.474667 5.205333 5.0176 8.183467 7.611733l7.261866 6.3232c6.784 9.565867 4.736 4.241067 16.315734 14.336l6.3232 5.512533c2.372267 2.0736 6.391467 4.0192 9.2416 5.930667 1.749333 1.1776 4.0448 5.026133 5.853866 6.946133 1.1008 1.169067 4.488533 2.56 5.7088 3.669334l12.3392 11.204266 4.334934 3.968c7.509333 6.877867 2.901333-0.622933 11.716266 7.773867l5.563734 5.307733c1.5104 1.442133 4.027733 3.4816 5.7344 4.437334l9.147733 5.137066c1.518933 0.853333 3.293867 4.292267 4.676267 5.751467 2.065067 2.176 5.666133 4.087467 8.3968 5.879467 2.184533 1.4336 4.957867 4.078933 7.0144 5.265066l9.984 5.751467c1.988267 1.143467 4.292267 3.438933 6.263466 5.461333 1.365333 0.682667 5.213867 1.664 6.673067 2.6368l10.436267 6.971734c5.060267 3.3792 10.2656 5.742933 16.4608 3.328l6.0672-2.363734c2.005333-0.785067 4.317867-1.314133 6.237866-1.4336z m-93.917867-7.978667c-0.494933-3.072-0.9216-3.447467-1.749333-2.184533l1.749333 2.184533z" fill="#FDE8B4" /><path d="M937.0112 483.4304c-1.245867-0.170667-3.447467-0.452267-4.5568-0.7936l-6.9888-2.141867c-4.625067 1.024-9.5232 2.653867-13.696 4.736l-9.5488 4.770134-8.576 4.283733-10.88 5.4528-6.263467 3.140267-5.4272 2.7136-10.282666 5.1456-6.101334 3.114666c-3.413333 1.7408-6.545067 3.3792-9.787733 4.061867-1.92 0.119467-4.232533 0.648533-6.237867 1.4336l-6.0672 2.363733c-6.186667 2.414933-11.392 0.059733-16.4608-3.328l-10.436266-6.971733c-1.467733-0.981333-5.307733-1.954133-6.673067-2.6368-1.9712-2.013867-4.2752-4.309333-6.263467-5.461333l-9.984-5.751467c-2.048-1.186133-4.829867-3.822933-7.0144-5.265067-2.730667-1.792-6.331733-3.694933-8.3968-5.879466-1.3824-1.467733-3.157333-4.898133-4.676266-5.751467l-9.147734-5.137067c-1.706667-0.955733-4.224-3.003733-5.7344-4.437333l-5.563733-5.307733c-8.814933-8.405333-4.206933-0.904533-11.716267-7.773867l-4.334933-3.968-12.3392-11.204267c-1.220267-1.109333-4.608-2.500267-5.7088-3.669333-1.809067-1.92-4.104533-5.76-5.853867-6.946133-2.850133-1.911467-6.8608-3.857067-9.2416-5.930667l-6.3232-5.512533c-11.579733-10.094933-9.531733-4.770133-16.315733-14.336l-7.261867-6.3232c-2.978133-2.594133-5.1456-5.1456-8.183466-7.611734l-6.254934-5.0944c-0.9984-0.810667-2.824533-3.447467-3.669333-4.48-10.0352-4.6848-11.127467-8.704-20.701867-15.5648-2.8672-2.048-7.714133-3.652267-9.4464-6.638933-6.818133-11.758933-10.504533-6.971733-14.754133-12.228267l-4.369067-5.4016-5.384533-4.906666c-3.319467-3.029333-6.2208-7.150933-10.666667-9.053867-4.334933-1.8432-6.4512-4.906667-9.745066-8.098133-3.182933-3.080533-8.192-6.1952-12.151467-8.618667l-6.519467-3.9936-8.081066-5.393067c-2.756267-1.8432-5.905067-5.205333-8.849067-6.647466-22.442667-10.965333-2.696533-6.801067-31.274667-13.4144-2.261333-0.520533-4.923733-0.938667-7.005866-1.186134l-12.936534-1.536c-4.872533-0.580267-4.411733 1.117867-16.375466 1.083734 1.0496-1.024 3.925333-2.218667 5.623466-2.3552l6.382934-0.512c1.237333-0.1024 4.1984-0.247467 5.563733-0.136534l11.921067 0.938667 6.903466 0.785067 9.275734 1.083733c10.7008 1.2544 27.392 1.262933 28.2624 1.373867l6.903466 0.913066 19.882667 0.349867 8.3968 0.1536 16.221867 0.426667 5.717333 0.315733 12.996267 0.6656 11.8016 0.64c5.870933 0.315733 12.194133 3.037867 17.322666 5.8368l9.130667 4.983467c4.778667 2.6112 9.207467 5.469867 13.815467 8.328533l8.7296 5.418667 6.570666 4.0704 10.769067 6.6816c4.497067 2.7904 8.9856 5.009067 13.6192 7.765333l7.3216 4.352 10.376533 5.7856 4.5824 2.466133c3.1232 1.681067 6.263467 3.106133 9.5232 4.599467l9.540267 4.394667 13.7984 6.638933 5.8368 2.944 9.028267 3.925333 16.145066 7.057067 4.471467 1.800533 6.519467 2.944 7.722666 3.5328 6.417067 2.747734 7.765333 3.345066 6.263467 2.705067 7.022933 2.7648 9.2928 3.703467c10.871467 4.334933 8.8576 2.6624 15.803734 5.9648 9.5488 4.5312 7.432533 0.162133 13.3888 4.957866l4.0448 1.399467 9.147733 3.4048 3.182933 1.1776 7.185067 2.594133 11.204267 4.002134 12.151466 4.5056 10.939734 4.164266 9.668266 3.703467c2.005333 0.768 5.000533 1.186133 6.784 1.962667 3.882667 1.698133 7.296 2.833067 11.221334 3.976533l7.108266 2.065067 8.2176 2.397866c2.500267 0.725333 5.981867 1.629867 8.004267 2.568534l7.936 3.6608c0.392533 0.1792 2.244267 0.674133 1.979733 1.015466l-1.774933 2.2784c-2.218667 2.833067-4.9664 4.138667-8.192 5.973334l-9.3952 5.3504c-2.568533 1.467733-5.956267 3.089067-8.6784 4.241066l-15.0016 6.3488-9.480533 3.677867c-1.271467 0.494933-3.242667 1.826133-5.2224 3.140267l2.602666 4.130133z" fill="#FCF0BF" /><path d="M937.0112 483.4304l11.0336 6.0672c3.5584 3.259733 7.364267 5.9648 11.477333 8.465067l18.935467 11.52 10.845867 6.5024 6.016 3.6096c1.7408 1.041067 16.878933 11.946667 17.621333 12.6464l10.077867 9.6512c1.143467 1.092267 1.450667 5.8368 0.0512 6.8096-10.3168 7.1424-24.1152 9.5488-36.667734 10.154666l-11.733333 0.571734-23.458133 0.878933c-3.720533 0.136533-7.790933 0.5376-11.630934 1.0752l-8.2176 1.152-9.070933 1.4336-10.862933 2.030933c-4.036267 0.750933-8.098133 1.732267-12.023467 2.730667l-13.7984 3.5072-8.7808 2.235733-9.122133 2.517334-10.530134 3.293866-7.031466 2.2016-14.2592 4.522667-11.3408 3.7376-8.430934 2.756267-5.930666 2.0224-7.0144 2.389333c-2.679467 0.913067-5.632 1.672533-8.533334 2.414933-4.8384 2.133333-9.8816 3.780267-15.163733 4.8128l-6.9888 1.9456-11.562667 2.833067c-2.935467 0.7168-5.981867 1.467733-8.9344 2.0224l-13.713066 2.5856-9.284267 1.245867-8.482133 1.2032-5.6832 1.041066-21.000534 2.474667-12.765866 1.134933-7.2192 0.776534-9.309867 0.989866-9.224533 1.706667-9.403734 1.297067-6.007466 0.964266-8.064 1.4336c-7.6544 1.365333-15.189333 2.3808-22.519467 4.386134l-17.698133 4.846933c-8.046933 2.2016-15.880533 4.770133-23.645867 8.029867l-17.9456 7.543466c-2.3808 0.9984-4.778667 1.800533-6.9632 2.312534l-1.3568-0.2304 3.054933-1.757867c8.174933-4.7104 0.733867-4.974933 15.889067-9.105067l10.7264-2.9184 6.826667-1.8944c11.477333-3.182933 12.535467-5.102933 14.429866-5.7344 4.992-1.664 10.325333-1.7408 15.530667-2.619733 1.467733-0.247467 4.206933-1.1776 6.0416-1.604267l6.741333-1.570133 5.282134-0.136533 12.740266-2.7136 6.024534-1.109334 5.435733-0.469333 9.6256-1.902933 5.930667-1.024 8.6784-1.442134 7.662933-1.518933c2.884267-0.571733 6.016-0.725333 9.233067-1.1008 5.137067-0.605867 10.077867-2.423467 15.368533-2.9184l8.644267-0.802133c1.9456-0.1792 4.48-1.041067 5.853866-1.0496 2.346667-0.008533 4.189867-0.2304 5.5296-1.6128 2.978133-3.054933 2.321067-7.3216 0.3328-10.282667-0.6656-0.989867 1.570133-3.643733 2.7904-3.84l9.454934-1.553067c2.141867-0.349867 4.420267-0.904533 6.272-1.4592l9.3696-2.833066 7.082666-2.141867c3.498667-1.058133 7.1424-2.1504 10.376534-3.5328l6.519466-2.798933c4.334933-1.860267 8.541867-3.8656 12.817067-6.0672l8.004267-4.113067 5.358933-2.474667 4.974933-2.338133 8.567467-4.241067c2.286933-1.134933 4.642133-2.414933 6.8608-3.669333l6.826667-3.84 11.178666-6.2208 12.9792-7.04 6.784-3.703467 14.037334-8.2176 11.690666-6.9632 9.489067-5.7088 11.741867-6.9632 8.234666-4.8128c2.551467-1.493333 5.794133-2.816 8.6528-4.1216l6.3232-2.884266c2.2272-1.015467 5.4272-2.193067 7.2192-3.259734l6.3232-3.771733c-2.619733-2.338133-4.932267-4.078933-7.441066-4.386133l-4.010667-2.218667c-1.0752-0.6912-2.696533-1.962667-3.268267-2.594133 1.1008 0.341333 3.310933 0.622933 4.5568 0.7936z" fill="#FCE8A3" /><path d="M39.918933 432.4352c0.981333 2.2528-6.289067 2.005333-9.173333 5.819733-5.5296 7.304533-9.762133 13.755733-5.777067 22.7584 1.2032 2.730667 5.666133 5.6576 8.558934 6.775467l17.851733 6.929067 9.984 4.206933c1.664 0.699733 3.950933 1.399467 5.367467 1.518933 1.672533 1.595733 4.155733 2.816 6.784 3.908267l8.260266 3.447467 5.256534 2.3552 7.406933 3.396266c1.928533 0.887467 9.2672 4.087467 9.7792 5.5808-0.8448-0.042667-3.293867-0.315733-4.215467-0.750933l-7.125333-3.362133c-4.8384-2.286933-9.6512-3.319467-15.0784-2.594134-1.1776 6.775467-1.032533 15.530667 1.6384 21.085867l2.9952 6.229333 4.292267 8.490667c5.461333 10.794667 6.229333 8.789333 12.526933 19.165867 2.158933 3.566933 4.599467 7.2192 7.2192 10.231466l3.831467 4.386134 4.266666 5.085866c10.018133 11.9296 13.8496 10.385067 19.968 21.2992 1.988267 1.425067 5.188267 3.490133 7.210667 5.179734l7.808 6.519466c0.853333 0.708267 2.9184 2.935467 2.756267 4.0192l-0.469334 3.208534c-0.085333 0.5632-2.961067 0.7168-3.4304 0.418133l-6.954666-4.411733-8.686934-5.376-8.1664-4.881067c-3.729067-2.2272-7.415467-4.1216-11.349333-6.1184-6.929067-5.265067-5.691733-3.0208-14.660267-8.610133-2.5344-1.578667-4.727467-2.773333-7.3216-3.217067-0.878933-0.3584-3.157333-1.262933-4.078933-1.8688l-11.3152-7.406933-6.178133-4.0448-6.485334-4.010667c-3.720533-2.304-7.2704-4.471467-10.8032-6.929067l-7.517866-5.230933-11.4944-8.2432-6.912-5.026133c-1.698133-1.237333-3.5072-2.824533-5.1712-4.2496l-4.5568-3.899734c-9.156267-7.8336-11.946667-11.221333-16.1792-22.4768-2.730667-7.261867 4.846933-19.037867 11.101866-23.9616 10.0864-7.936 9.429333-3.114667 16.802134-9.258666-0.2304-0.4096-1.5104-2.5088-1.911467-3.114667l-2.747733-4.181333c-5.8112-8.8576 3.268267-26.018133 13.653333-28.842667l2.440533 0.068267z" fill="#FDE59B" /><path d="M932.4544 482.6368c0.571733 0.631467 2.193067 1.902933 3.268267 2.594133l4.010666 2.218667 2.602667 5.307733c-1.271467 0.955733-3.771733 2.423467-5.691733 3.2256l-6.818134 2.8672c-3.959467 1.664-8.2944 4.215467-12.424533 4.727467-4.548267 0.571733-7.509333 2.005333-9.1648 6.766933l-8.081067 0.8192c-7.876267 8.0384-12.544 10.453333-22.7584 13.687467-4.7872 7.0656-2.210133 1.271467-10.632533 6.715733-8.174933 5.290667-6.468267-1.083733-11.895467 1.6896-0.110933 2.756267-0.162133 4.164267-0.776533 5.12-0.733867 1.143467-4.113067 1.979733-5.7088 1.809067-3.592533-0.375467-5.614933 1.706667-6.570667 5.034667l-6.280533 1.28c-0.6656 1.169067-1.979733 4.804267-3.259733 5.4784l-7.04 3.6864c-2.884267 1.5104-6.528 2.978133-8.8832 4.736-2.7392 2.039467-14.114133 11.460267-17.595734 8.260266-1.629867 0.622933-5.034667 3.720533-6.980266 4.642134l-11.409067 5.376-6.647467 1.809066-12.245333 4.923734-20.138667 7.236266c-1.501867 0.5376-3.882667 0.836267-5.563733 0.8704-10.9312 0.221867-0.861867 0.5632-14.813867 2.926934l-13.952 2.363733-7.074133 1.774933-9.6 1.2032c-1.655467 0.2048-3.6096 0.512-5.077333 0.8192l-16.0512 3.387734-10.6496 2.653866-5.853867 1.3312c-1.083733 0.247467-3.6864 0.238933-4.625067 0.2304 2.244267-1.186133 5.102933-1.962667 8.0896-2.696533l12.0576-2.926933 6.766934-1.527467 6.980266-1.390933 5.8624-1.109334 7.253334-1.109333c1.757867-0.264533 4.0192-0.631467 5.674666-1.024l8.686934-2.090667c-1.911467-2.7392-3.524267-3.447467-6.109867-3.712l-9.4976-0.9728c-17.570133-1.809067-25.1648-1.988267-43.426133-1.143466-10.530133 0.4864-33.9456 7.825067-42.624 13.226666l-10.0864 6.289067-15.470934 10.248533c-3.9168 2.594133-6.724267 5.614933-9.8048 9.506134 3.746133 0.170667 6.528-0.196267 9.787734-1.006934l12.288-3.072 8.814933-2.116266 7.483733-1.774934c-0.068267 0.4352-1.578667 2.235733-2.3552 2.372267l-4.881066 0.878933c-17.553067 3.165867-7.483733 4.6848-13.7472 5.0688-2.107733 0.128-6.382933-0.068267-8.106667 0.324267-7.9104 1.809067-15.5648 5.410133-19.0208 3.831467 7.2192-10.180267 5.282133-3.089067 9.489067-9.873067 10.376533-16.750933 9.710933-6.186667 17.1008-14.190933l-8.644267-6.280534-7.7824 6.024534c-7.2192 5.589333-0.913067 8.900267-17.911467 13.6192-1.058133 1.058133-2.858667 4.1728-4.241066 4.642133l-5.504 1.885867c2.389333-2.679467 5.162667-5.674667 8.098133-8.285867l6.826667-6.075733 5.512533-4.906667c6.075733-5.410133 10.743467-7.406933 15.9488-14.6944l3.643733-3.2512 7.355734-6.5536 9.378133-8.354133c2.8928-2.577067 6.263467-5.495467 9.719467-7.6032l5.111466-3.131734 9.1136-6.3232c4.539733-3.140267 13.687467-8.6272 18.397867-10.436266l10.325333-3.968c14.711467-5.649067 26.760533-5.435733 42.478934-2.798934l7.3216 1.2288c4.189867 0.708267 8.456533 1.6128 12.637866 2.568534l16.0768 3.6864c12.4416 2.858667 25.472 3.652267 38.033067 0.6912l17.664-4.164267c1.723733-0.4096 3.7632-0.887467 5.282133-1.3568l6.126934-1.8944c2.235733-0.6912 4.8128-1.553067 6.971733-2.4064l6.7072-2.653867 8.354133-3.114666 6.3488-2.363734 8.695467-3.268266c3.985067-1.399467 8.004267-2.747733 11.793067-4.5824l4.898133-2.3808 12.330667-5.256534 8.0128-3.6096c0.64-0.290133 1.194667-3.003733 1.3568-3.8912-7.236267-1.629867-6.664533 1.194667-18.116267 6.417067l-5.700267 2.594133c-8.832 2.218667-12.5952 5.9392-15.3344 6.8864l-14.933333 5.179734c-7.0144 2.432-13.559467 5.632-20.804267 7.3728l-14.6176 3.524266c-2.449067 0.5888-5.4528 1.109333-8.055466 1.4848l-7.304534 1.058134c-3.694933 0.5376-12.398933 1.194667-15.402666-0.938667-8.456533-1.962667-15.931733-5.333333-23.202134-10.0096l-12.2624-7.893333c-12.7232-7.7568-28.919467-10.2144-42.845866-4.974934l-6.0672 2.2784-6.6304 2.653867c-2.628267 1.0496-5.777067 2.295467-8.1664 3.618133l-14.421334 7.970134c-2.4832 1.373867-5.239467 3.362133-7.697066 5.256533-1.186133 0.2304-3.345067 0.571733-4.4032 0.938667 0.981333-1.066667 3.0976-3.310933 4.334933-4.0448l6.016-3.5584c2.389333-1.416533 5.333333-2.909867 7.253333-4.616534 2.013867-1.792 4.693333-5.137067 6.613334-5.9904l11.6736-5.179733 22.741333-9.053867c2.372267-0.9472 5.213867-2.210133 7.5264-2.645333l9.762133-1.800533c14.609067-2.696533 25.8048-2.304 39.287467 4.0704 1.6384 0.776533 4.497067 2.833067 5.947733 4.061866l10.888534 9.198934c1.237333 1.041067 3.805867 2.542933 5.563733 3.822933 6.8608 4.957867 21.256533 7.620267 29.627733 6.0928l12.066134-2.2016c7.714133-1.408 10.914133-3.985067 19.618133-7.125333 8.328533-3.003733 8.849067-2.8672 16.238933-7.509334 3.242667-0.682667 6.3744-2.321067 9.787734-4.061866l6.101333-3.114667 10.282667-5.1456 5.4272-2.7136 6.263466-3.140267 10.88-5.4528 8.576-4.283733 9.5488-4.770133c4.1728-2.082133 9.070933-3.712 13.696-4.736l6.9888 2.141866z" fill="#FBCE67" /><path d="M113.723733 503.748267c1.6384 0 3.797333 0.418133 5.4016 1.1008l7.9104 3.319466 6.408534 2.056534c3.336533 0.3584 6.715733 0.503467 10.0864 0.290133l6.254933-0.401067c-0.042667-5.162667-3.925333-4.8384-6.766933-7.7568l-5.188267-5.3248c-8.840533-9.0624-7.048533-4.394667-10.2656-9.770666 5.0432 1.9456 9.540267 5.802667 14.72 8.558933l9.156267 4.872533 7.714133 4.053334 7.688533 4.036266 11.306667 5.393067 7.645867 3.84 7.850666 3.9424 10.581334 4.9408 6.3744 2.798933 9.719466 4.1984 8.149334 3.5328 12.279466 5.290667 8.2432 3.464533 14.839467 6.152534c6.877867 2.858667 1.373867-1.4592 10.5984 4.317866l6.8608 4.3008c1.749333 1.1008 4.360533 1.826133 6.664533 1.681067 1.271467-0.0768 3.84 1.851733 5.137067 2.244267l9.224533 2.756266c2.679467 0.802133 6.161067 2.7136 8.388267 4.258134 0.989867 0.682667 4.087467 1.271467 5.307733 1.732266l11.195734 4.258134c3.208533 1.220267 6.1696 2.7904 9.7536 3.029333 3.072 0.2048 5.333333 1.578667 7.970133 2.474667l12.398933 4.1984 6.664534 3.6096 5.5808 0.759466c1.169067 0.810667 2.8672 3.874133 3.5584 5.5296 2.065067 4.949333 11.3152 2.9952 14.250666 2.747734 2.048-0.170667 6.289067 1.7664 7.662934 3.259733l5.128533 5.5552c0.3328 0.3584 1.527467 1.518933 1.7664 1.160533l1.1264-1.681066c0.384-0.580267 2.5856-2.4576 3.217067-2.133334l11.374933 5.76c1.348267 0.682667 3.208533 1.809067 3.677867 2.5856l1.698133 2.7904c0.904533 1.4848 5.6832-3.2512 14.549333 3.4304 5.12 3.857067 8.942933 0.366933 9.864534 7.278934 0.622933 4.693333 1.3312 0.4608-5.614934 4.1216-0.64 0.3328-0.7424 2.6112-0.264533 3.157333 0.529067 0.6144 2.7648 1.621333 3.421867 1.152l2.2016-1.570133c0.9728-0.6912 1.809067-1.442133 2.2272-1.015467l1.7152 1.732267c1.450667 1.4592 2.705067 5.9648 1.339733 7.611733-2.491733 3.0208-8.994133-3.720533-13.329067-1.3056-3.84 2.141867-4.292267 7.1168-3.950933 11.52-5.504 1.476267-6.3744-5.393067-10.9056-7.492267l-6.0672-2.816c-1.4848-0.6912-2.798933-4.1472-3.089067-5.879466l-0.443733-2.653867c-0.4864-2.909867-5.256533 4.795733-10.222933 3.242667l-5.674667-1.774934c-6.237867-1.954133-10.052267-7.074133-12.0064-7.637333l-8.174933-2.3296c-3.191467-0.904533-6.1952-2.312533-9.2672-3.7888l-5.034667-0.955733c-8.832-7.415467-6.877867-1.518933-11.835733-4.778667-4.1728-2.747733-10.376533-5.461333-15.556267-6.1696-9.9328-1.348267-5.307733-2.8928-11.861333-5.802667l-4.923734-2.184533c-10.2144-4.5312-19.072-5.691733-23.825066-9.002667-7.2192-5.026133-3.106133-1.006933-15.931734-5.998933l-10.24-3.985067-6.306133-2.8672-14.498133-5.751466-6.417067-2.6368-11.485867-4.821334c-1.536-0.648533-3.6864-1.399467-5.000533-2.065066l-9.634133-4.872534-5.3504-2.6624-11.869867-5.956266-8.226133-4.343467-10.530134-5.410133c-2.397867-1.237333-5.495467-3.054933-7.978666-4.471467l-11.904-6.775467-13.5936-7.3984-6.101334-3.370666-7.168-4.010667-10.530133-5.9392-7.4752-4.258133c-0.648533-0.366933-2.0736-1.902933-2.338133-2.2784z" fill="#FCDC8A" /><path d="M541.6704 655.6928c-5.1712 1.4592-8.9344 3.029333-14.250667 5.700267l-6.3488 3.182933c-2.5344 1.271467-5.435733 2.688-8.064 3.626667l-14.609066 5.2224-12.731734 5.051733-6.5792 2.568533-5.930666 2.295467c-4.1984 1.629867-8.354133 2.816-12.859734 3.959467-4.096-3.899733 3.822933-11.246933 6.5536-13.696l5.691734-5.0944 7.099733-6.920534c1.0752-1.0496 4.369067-2.5344 5.7088-3.524266 11.067733-8.200533 7.168-7.466667 15.377067-13.883734l9.301333-7.2704 13.815467-10.8032c1.8944-1.4848 4.104533-3.8144 6.024533-5.4784l5.085867-4.420266 9.454933-8.055467 6.3232-5.3504 6.3744-5.376 5.0944-4.352c1.425067-1.211733 2.7904-2.2784 4.1472-2.858667-1.518933 1.3824-3.515733 4.932267-5.265067 6.357334l-6.6304 5.367466-5.7344 4.650667-5.367466 4.394667c-4.104533 3.362133 0.110933 3.2768-10.1376 11.502933l-7.304534 5.870933c-7.953067 6.391467-4.4032 1.442133-14.634666 9.634134l-6.621867 5.2992-4.5312 3.729066-11.067733 10.2656c-1.399467 1.3056-3.3536 2.688-4.881067 3.959467l-10.333867 8.584533-6.331733 5.376c-1.143467 0.964267-2.722133 3.5328-3.310933 5.085867-0.4864 1.28 3.5328 3.285333 4.778666 2.730667l5.4528-2.432 7.159467-3.447467c1.655467-0.7936 4.027733-2.2272 5.700267-3.310933l7.901866-5.0944c9.4208-6.0672 9.130667-8.584533 19.2768-12.219734 8.2688-10.8544 11.0848-9.378133 21.230934-18.218666l7.022933-6.1184a55.697067 55.697067 0 0 1 2.491733-2.056534l5.504-1.885866c1.3824-0.477867 3.182933-3.584 4.241067-4.642134 16.989867-4.718933 10.683733-8.029867 17.911467-13.6192l7.7824-6.024533 8.644266 6.280533c-7.389867 8.0128-6.724267-2.551467-17.1008 14.190934-4.1984 6.784-2.261333-0.3072-9.489066 9.873066 3.456 1.578667 11.1104-2.0224 19.0208-3.831466 1.7152-0.392533 5.998933-0.196267 8.106666-0.324267 6.263467-0.375467-3.805867-1.8944 13.7472-5.0688l4.881067-0.878933c0.776533-0.136533 2.286933-1.937067 2.3552-2.372267 2.9696-0.699733 6.954667-2.884267 10.308267-3.899733l15.8208-4.7872 11.127466-2.901334c0.938667 0 3.541333 0.017067 4.625067-0.2304l5.853867-1.3312 10.6496-2.653866 16.0512-3.387734c1.4592-0.3072 3.421867-0.6144 5.077333-0.8192l9.6-1.2032 7.074133-1.774933 13.952-2.363733c13.952-2.363733 3.882667-2.705067 14.813867-2.926934 1.681067-0.034133 4.061867-0.3328 5.563733-0.8704l20.138667-7.236266 12.245333-4.923734 6.647467-1.809066 11.409067-5.376c1.937067-0.913067 5.341867-4.010667 6.980266-4.642134 3.490133 3.2 14.856533-6.2208 17.595734-8.260266 2.363733-1.757867 5.998933-3.2256 8.8832-4.736l7.04-3.6864c1.288533-0.674133 2.594133-4.309333 3.259733-5.4784l6.280533-1.28c0.955733-3.319467 2.978133-5.410133 6.570667-5.034667 1.595733 0.170667 4.974933-0.6656 5.7088-1.809067 0.6144-0.955733 0.6656-2.363733 0.776533-5.12 5.4272-2.773333 3.720533 3.601067 11.895467-1.6896 8.4224-5.444267 5.8368 0.341333 10.632533-6.715733 10.2144-3.234133 14.8736-5.649067 22.7584-13.687467l8.081067-0.8192c1.655467-4.7616 4.616533-6.1952 9.1648-6.766933 4.130133-0.520533 8.465067-3.063467 12.424533-4.727467l6.818134-2.8672c1.92-0.810667 4.420267-2.269867 5.691733-3.2256l-2.602667-5.307733c2.5088 0.315733 4.829867 2.048 7.441067 4.386133l-6.3232 3.771734c-1.792 1.066667-4.992 2.244267-7.2192 3.259733l-6.3232 2.884267c-2.858667 1.3056-6.101333 2.628267-8.6528 4.1216l-8.234667 4.8128-11.741866 6.9632-9.489067 5.7088-11.690667 6.9632-14.037333 8.2176-6.784 3.703466-12.9792 7.04-11.178667 6.2208-6.826666 3.84c-2.218667 1.245867-4.573867 2.5344-6.8608 3.669334l-8.567467 4.241066-4.974933 2.338134-5.358934 2.474666-8.004266 4.113067c-4.2752 2.193067-8.4736 4.206933-12.817067 6.0672l-6.519467 2.798933c-3.2256 1.3824-6.869333 2.4832-10.376533 3.5328l-7.082667 2.141867-9.3696 2.833067c-1.8432 0.554667-4.130133 1.109333-6.272 1.4592l-9.454933 1.553066c-1.220267 0.196267-3.456 2.850133-2.7904 3.84 1.9968 2.961067 2.645333 7.227733-0.3328 10.282667-1.339733 1.373867-3.182933 1.595733-5.5296 1.6128-1.3824 0-3.908267 0.8704-5.853867 1.0496l-8.644266 0.802133c-5.290667 0.494933-10.231467 2.312533-15.368534 2.9184-3.217067 0.375467-6.3488 0.529067-9.233066 1.1008l-7.662934 1.518934-8.6784 1.442133-5.930666 1.024-9.6256 1.902933-5.435734 0.469334-6.024533 1.109333-12.740267 2.7136-5.282133 0.136533-6.741333 1.570134c-1.834667 0.426667-4.573867 1.3568-6.0416 1.604266-5.205333 0.887467-10.538667 0.955733-15.530667 2.619734-1.8944 0.631467-2.952533 2.551467-14.429867 5.7344l-6.826666 1.8944-10.7264 2.9184c-15.163733 4.1216-7.722667 4.394667-15.889067 9.105066l-3.054933 1.757867z" fill="#F8D182" /><path d="M72.5504 446.276267c1.322667 1.6896 3.84 4.078933 5.853867 5.8624l8.2176 7.287466c4.096 3.6352 9.6 7.936 10.862933 13.943467-0.375467 1.6384-4.078933 3.592533-5.794133 3.968l-3.6096 4.804267c-1.860267 0.520533-6.0928 1.348267-7.9104 0.904533l-6.519467-1.604267c-2.304-0.5632-4.898133-0.836267-6.920533-1.015466-1.416533-0.128-3.703467-0.8192-5.367467-1.518934l-9.984-4.206933-17.851733-6.929067c-2.8928-1.117867-7.3472-4.053333-8.558934-6.775466-3.985067-9.002667 0.247467-15.445333 5.777067-22.7584 2.875733-3.805867 10.154667-3.5584 9.173333-5.819734 2.312533 0.059733 5.7856-0.1024 8.157867 0.6144 7.483733 2.269867 20.676267 8.379733 24.4736 13.226667z" fill="#F3BD46" /><path d="M634.1376 543.445333c-0.0512 0.136533-1.288533 1.757867-1.800533 2.056534l-9.275734 5.4016c-1.1776 0.682667-3.3024 3.072-4.3264 4.096-8.430933 8.405333-9.156267 2.423467-12.5696 12.1856l-11.844266 6.638933c-3.336533 1.8688-7.936 5.504-10.632534 7.995733l-9.873066 9.1392-5.6064 5.845334-5.282134 5.435733-5.751466 6.016c-0.529067 0.554667-8.081067 8.610133-4.266667 8.840533 3.114667 0.187733 7.748267-3.114667 10.658133-6.050133l5.6832-5.7344 3.2768-2.030933 5.8368-5.546667c0.7936-0.759467 1.7152-1.544533 3.2256-1.595733-5.1968 7.287467-9.864533 9.2928-15.9488 14.6944l-5.512533 4.906666-6.826667 6.075734c-2.935467 2.6112-5.7088 5.614933-8.098133 8.285866-0.605867 0.4608-1.621333 1.297067-2.491733 2.056534l-7.022934 6.1184c-10.1376 8.840533-12.962133 7.364267-21.230933 18.218666-10.146133 3.6352-9.847467 6.152533-19.2768 12.219734l-7.901867 5.0944c-1.672533 1.0752-4.0448 2.5088-5.700266 3.310933l-7.159467 3.447467-5.4528 2.432c-1.245867 0.554667-5.265067-1.442133-4.778667-2.730667 0.5888-1.553067 2.176-4.1216 3.310934-5.085867l6.331733-5.376 10.333867-8.584533c1.527467-1.271467 3.473067-2.653867 4.881066-3.959467l11.067734-10.2656 4.5312-3.729066 6.621866-5.2992c10.231467-8.192 6.673067-3.242667 14.634667-9.634134l7.304533-5.870933c10.24-8.226133 6.033067-8.1408 10.1376-11.502933l5.367467-4.394667 5.7344-4.650667 6.6304-5.367466c1.757867-1.425067 3.746133-4.974933 5.265067-6.357334 1.937067-1.757867 4.736-3.780267 7.031466-5.632l5.947734-4.795733 6.562133-5.2992 6.152533-4.061867 7.9104-5.973333 6.673067-5.205333c2.2784-1.774933 5.256533-3.3792 7.842133-5.085867l7.1168-4.693333c2.218667-1.467733 5.879467-4.258133 8.1408-5.051734 1.058133-0.366933 3.217067-0.7168 4.4032-0.938666z" fill="#F4BE57" /><path d="M127.547733 487.261867c3.217067 5.376 1.4336 0.708267 10.2656 9.770666l5.188267 5.3248c2.850133 2.9184 6.724267 2.594133 6.766933 7.7568l-6.254933 0.401067c-3.3792 0.213333-6.749867 0.068267-10.0864-0.290133l-6.408533-2.056534-7.9104-3.319466c-1.6128-0.674133-3.7632-1.1008-5.4016-1.1008l-9.4976-4.6336c-0.503467-1.493333-7.850667-4.701867-9.7792-5.5808l-7.406934-3.396267-5.256533-2.3552-8.260267-3.447467c-2.628267-1.1008-5.12-2.321067-6.784-3.908266 2.0224 0.1792 4.625067 0.452267 6.920534 1.015466l6.519466 1.604267c1.8176 0.443733 6.058667-0.384 7.9104-0.904533l3.6096-4.804267c1.7152-0.375467 5.418667-2.3296 5.794134-3.968-1.262933-6.007467-6.766933-10.3168-10.862934-13.943467l-8.2176-7.287466c-2.013867-1.792-4.539733-4.181333-5.853866-5.8624 0.5376 0.085333 2.7392 0.8704 3.456 1.442133l6.340266 5.034667 9.224534 7.594666 7.9616 6.135467 17.774933 13.6192c1.988267 1.518933 3.976533 2.986667 6.0416 4.360533l4.1984 2.798934z" fill="#FBC960" /><path d="M750.984533 509.9264l-1.749333-2.184533c0.836267-1.262933 1.262933-0.887467 1.749333 2.184533z" fill="#FCF0BF" /><path d="M581.597867 596.138667c-1.5104 0.0512-2.423467 0.8448-3.2256 1.595733l-5.8368 5.546667-3.2768 2.030933-5.6832 5.7344c-2.909867 2.935467-7.543467 6.237867-10.658134 6.050133-3.8144-0.2304 3.7376-8.285867 4.266667-8.840533l5.751467-6.016 5.282133-5.435733 5.6064-5.845334 9.873067-9.1392c2.696533-2.491733 7.296-6.126933 10.632533-7.995733l11.844267-6.638933c3.413333-9.762133 4.138667-3.771733 12.5696-12.1856 1.024-1.024 3.1488-3.4048 4.3264-4.096l9.275733-5.4016c0.512-0.298667 1.749333-1.911467 1.800533-2.056534 2.4576-1.8944 5.205333-3.882667 7.697067-5.256533l14.421333-7.970133c2.389333-1.322667 5.538133-2.568533 8.1664-3.618134l6.6304-2.653866 6.0672-2.2784c13.9264-5.239467 30.122667-2.781867 42.845867 4.974933l12.2624 7.893333c7.2704 4.676267 14.7456 8.046933 23.202133 10.0096 3.003733 2.133333 11.707733 1.476267 15.402667 0.938667l7.304533-1.058133c2.602667-0.375467 5.6064-0.896 8.055467-1.4848l14.6176-3.524267c7.2448-1.749333 13.789867-4.9408 20.804267-7.3728l14.933333-5.179733c2.7392-0.9472 6.510933-4.667733 15.3344-6.8864l5.700267-2.594134c11.451733-5.2224 10.88-8.055467 18.116266-6.417066-0.1536 0.887467-0.7168 3.6096-1.3568 3.8912l-8.0128 3.6096-12.330666 5.256533-4.898134 2.3808c-3.797333 1.8432-7.808 3.182933-11.793066 4.5824l-8.695467 3.268267-6.3488 2.363733-8.354133 3.114667-6.7072 2.653866c-2.158933 0.853333-4.736 1.7152-6.971734 2.4064l-6.126933 1.8944c-1.518933 0.469333-3.5584 0.9472-5.282133 1.3568l-17.664 4.164267c-12.561067 2.961067-25.591467 2.167467-38.033067-0.6912l-16.0768-3.6864c-4.181333-0.955733-8.448-1.860267-12.637867-2.568533l-7.3216-1.2288c-15.726933-2.6368-27.767467-2.850133-42.478933 2.798933l-10.325333 3.968c-4.7104 1.809067-13.858133 7.287467-18.397867 10.436267l-9.1136 6.3232-5.111467 3.131733c-3.447467 2.107733-6.826667 5.026133-9.719466 7.6032l-9.378134 8.354133-7.355733 6.5536-3.643733 3.2512z" fill="#EDA42F" /><path d="M648.072533 610.2016l-11.127466 2.901333-15.8208 4.7872c-3.3536 1.015467-7.338667 3.2-10.308267 3.899734l-7.483733 1.774933-8.814934 2.116267-12.288 3.072c-3.2512 0.810667-6.0416 1.1776-9.787733 1.006933 3.080533-3.8912 5.888-6.912 9.8048-9.506133l15.470933-10.248534 10.0864-6.289066c8.6784-5.4016 32.085333-12.740267 42.624-13.226667 18.261333-0.8448 25.847467-0.6656 43.426134 1.143467l9.4976 0.9728c2.5856 0.264533 4.1984 0.9728 6.109866 3.712l-8.686933 2.090666c-1.646933 0.392533-3.9168 0.759467-5.674667 1.024l-7.253333 1.109334-5.8624 1.109333-6.980267 1.390933-6.766933 1.527467-12.0576 2.926933c-2.9952 0.725333-5.845333 1.5104-8.0896 2.696534z" fill="#E4A036" /></svg>