<?xml version="1.0" standalone="no"?><!DOCTYPE svg PUBLIC "-//W3C//DTD SVG 1.1//EN" "http://www.w3.org/Graphics/SVG/1.1/DTD/svg11.dtd"><svg t="1778769594422" class="icon" viewBox="0 0 1024 1024" version="1.1" xmlns="http://www.w3.org/2000/svg" p-id="4650" xmlns:xlink="http://www.w3.org/1999/xlink" width="256" height="256"><path d="M791.18 375.11s53.4 384.46-302.58 477.01c0 0-195.79 39.16-245.63-135.27-57.23-200.32 142.39-259.87 142.39-259.87s106.79-35.6 149.51-85.44c42.72-49.84 53.4-78.32 53.4-78.32l167.31 3.56s32.04 32.04 35.6 78.32z" fill="#8D87C7" p-id="4651"></path><path d="M442.46 868.41c-17.6 0-38.59-1.49-60.64-6.29-53.68-11.69-123.42-45.78-150.86-141.83-31.3-109.55 11.67-178.81 53.22-217.62 43.34-40.48 93.07-56.27 97.39-57.59 4.48-1.52 104.58-35.88 143.83-81.66 40.3-47.02 51.1-74.35 51.2-74.62l3.11-8.3 8.84 0.24 172.33 3.67 3.55 3.55c1.44 1.44 35.19 35.71 39.19 85.82 1.04 7.8 12.62 101.97-18.23 208.6-18.63 64.39-48.95 119.78-90.13 164.62-51.48 56.06-119.95 95.5-203.52 117.22l-0.69 0.16c-1.29 0.26-20.65 4.02-48.59 4.03z m46.14-16.29z m107.6-546.21c-6.18 12.29-20.97 37.77-51.83 73.78-18.87 22.01-50.81 43.74-94.93 64.57-32.34 15.27-59 24.21-60.12 24.58l-0.38 0.12c-0.46 0.14-48.25 14.82-88.31 52.55-52.53 49.46-67.88 114.02-45.63 191.91 19.23 67.31 63.44 109.06 131.39 124.1 49.88 11.04 95.32 3.17 99.47 2.4 78.47-20.47 142.61-57.3 190.66-109.47 38.54-41.85 67.01-93.73 84.62-154.21 30.28-103.98 17.79-198.47 17.66-199.41l-0.08-0.75c-2.51-32.63-21.23-57.89-28.82-66.89l-153.71-3.27z" p-id="4652"></path><path d="M772.89 242.66c8.4 13.01 27.69 48.48 29.08 102 0.31 11.83-11.79 19.96-22.6 15.16l-28.63-12.72a16.103 16.103 0 0 0-14.71 0.85l-47.97 28.35c-8.43 4.98-19.31 1.34-23.04-7.71l-19.47-47.21a16.074 16.074 0 0 0-14.86-9.95H587.1c-13.29 0-20.82-15.19-12.81-25.79 17.56-23.25 52.11-54.68 112.88-60.57 8.02-0.78 14.27-7.29 14.6-15.34l1.99-47.67c0.36-8.61 7.44-15.41 16.06-15.41h51.62c10.49 0 18.17 9.89 15.57 20.06l-16.17 63.28a16.02 16.02 0 0 0 2.05 12.67z" fill="#879D4B" p-id="4653"></path><path d="M679.71 391.21c-3.01 0-6.03-0.48-8.95-1.46-7.76-2.6-14-8.42-17.11-15.99l-19.74-47.86a3.178 3.178 0 0 0-2.95-1.98h-44.62c-10.74 0-20.4-5.96-25.22-15.57-4.8-9.57-3.82-20.84 2.57-29.42 20-26.84 57.52-60.15 122.63-66.35 1.64-0.16 2.89-1.44 2.95-3.05l2.02-48.37c0.63-15.15 13-27.02 28.17-27.02h52.48c8.77 0 16.89 3.97 22.27 10.9 5.38 6.93 7.22 15.77 5.05 24.27l-16.34 63.92c-0.22 0.86-0.08 1.76 0.38 2.47 8.95 13.8 29.9 52.1 31.2 109.46 0.22 9.66-4.46 18.63-12.52 24-8.1 5.39-18.23 6.26-27.12 2.31l-29.37-13.05c-0.94-0.42-2.03-0.36-2.92 0.17l-48.52 28.67a28.13 28.13 0 0 1-14.34 3.92z m39.75-232.05a3.18 3.18 0 0 0-3.19 3.06l-2.02 48.37c-0.58 14-11.57 25.56-25.56 26.89-55.99 5.33-87.98 33.61-104.96 56.4-0.95 1.27-0.67 2.48-0.27 3.26 0.41 0.81 1.24 1.78 2.88 1.78h44.62c11.46 0 21.69 6.85 26.06 17.44l19.74 47.86c0.46 1.11 1.31 1.6 1.94 1.81 0.63 0.21 1.6 0.33 2.64-0.28l48.52-28.67a28.225 28.225 0 0 1 25.79-1.49l29.37 13.05c1.41 0.63 2.55 0.1 3.1-0.27 0.65-0.43 1.42-1.24 1.38-2.62-1.16-50.97-19.4-84.42-27.18-96.43-4.25-6.55-5.57-14.67-3.62-22.27l16.34-63.92c0.32-1.25-0.13-2.19-0.57-2.75-0.44-0.56-1.23-1.23-2.52-1.23h-52.48z" p-id="4654"></path><path d="M378 613.67a21.85 24.51 0 1 0 43.7 0 21.85 24.51 0 1 0-43.7 0Z" p-id="4655"></path><path d="M489.91 613.67a21.85 24.51 0 1 0 43.7 0 21.85 24.51 0 1 0-43.7 0Z" p-id="4656"></path><path d="M456.33 731.15c-23.97 0-45.86-12.16-58.56-32.53-3.65-5.86-1.87-13.57 3.99-17.22 5.86-3.65 13.57-1.87 17.22 3.99 8.11 13 22.07 20.76 37.35 20.76s29.24-7.76 37.35-20.76c3.65-5.86 11.36-7.64 17.22-3.99 5.86 3.65 7.65 11.36 3.99 17.22-12.7 20.37-34.6 32.53-58.56 32.53z" p-id="4657"></path></svg>