<?xml version="1.0" standalone="no"?><!DOCTYPE svg PUBLIC "-//W3C//DTD SVG 1.1//EN" "http://www.w3.org/Graphics/SVG/1.1/DTD/svg11.dtd"><svg class="icon" width="256px" height="256.00px" viewBox="0 0 1024 1024" version="1.1" xmlns="http://www.w3.org/2000/svg"><path d="M317.960533 219.835733c20.1216 3.319467 41.924267 18.8672 60.356267 27.101867 4.676267 2.090667 11.9296 0.366933 12.782933 1.032533 1.058133 0.810667 3.191467 19.447467 13.9264 21.5296 34.133333-18.2016 67.831467-14.395733 104.226134-15.906133 31.479467-1.3056 53.0944-5.410133 86.144 1.066667 11.1104 2.176 22.724267 11.665067 34.594133 10.487466l3.037867-11.554133c23.825067-3.797333 48.2304-28.074667 73.1392-33.757867 13.713067-3.131733 41.9328 0.059733 56.2688 2.696534v2.926933c-9.335467-0.264533-18.807467 0.170667-28.1344 0.017067 23.355733 32.913067 22.877867 76.177067 22.485333 115.310933-0.093867 9.250133 4.155733 26.257067-5.614933 30.958933-13.6192-45.44-51.063467-88.123733-101.2736-90.0096 3.0976 10.581333 15.470933 11.810133 22.741333 19.438934 25.856 27.144533 39.918933 63.940267 45.832533 100.445866 0.5632 3.473067 4.565333 5.5808 4.565334 6.6816v101.2736c0 1.271467-4.292267 3.319467-4.676267 6.570667-4.0704 34.500267-12.782933 64.9728-17.826133 97.5104-17.3312 19.037867-21.870933 48.401067-32.631467 71.458133-56.874667 121.838933-149.597867 238.8736-299.3152 221.1072-31.505067-87.876267-31.368533-195.089067-45.201067-289.553066-14.498133-98.9952-47.7184-209.544533 16.9728-298.487467l39.4752-36.4544c-48.418133 0.776533-80.187733 30.856533-98.5344 73.053867-43.4176 99.857067 11.323733 236.868267 19.652267 340.5824 5.5552 69.162667-1.501867 141.0048 33.8688 205.243733-4.266667 9.122133-22.562133 6.306133-31.121067 5.777067-33.911467-2.107733-62.190933-15.7184-89.7792-33.9712-3.5584-2.3552-17.928533-15.726933-19.754666-5.563734-22.2208-70.126933-16.802133-133.1712-28.322134-205.166933-17.860267-111.598933-81.6896-212.343467-36.4544-329.412267 29.866667-77.312 104.132267-126.3616 188.561067-112.443733zM177.962667 387.933867l13.405866 5.026133c25.335467-7.8336 30.609067-35.822933 45.2608-54.7328 10.9568-14.148267 52.898133-42.692267 19.6096-59.460267-44.5184-22.4256-106.120533 68.7872-78.267733 109.166934z m228.002133-66.013867c-7.253333 2.107733-26.231467 18.2272-30.958933 25.284267-34.6112 51.643733-36.7872 137.4976-16.452267 194.926933 12.868267 36.334933 41.309867 33.851733 53.819733-0.0256 10.7776-29.184 6.877867-71.3472 13.6704-104.482133 5.0688-24.738133 25.745067-62.020267 27.144534-80.162134 1.9712-25.531733-22.186667-42.837333-47.223467-35.541333z" fill="#5A9F3D" /><path d="M762.427733 225.4592c62.2336 1.749333 110.890667 43.6224 132.3008 101.188267 41.7792 112.349867-10.402133 210.833067-30.8224 318.165333-16.0256 84.241067-6.0672 176.657067-42.274133 255.914667-23.406933 51.2256-74.180267 83.729067-129.527467 89.8304l-66.781866-16.401067c-61.6704 66.3808-169.198933 68.2752-225.698134-5.3248l-61.969066 21.7344c-35.4048-6.596267-61.013333-10.171733-90.120534-33.595733-32.750933-26.350933-41.429333-52.497067-53.3504-90.120534 1.826133-10.1632 16.196267 3.208533 19.754667 5.563734 27.588267 18.244267 55.867733 31.863467 89.7792 33.9712 8.567467 0.529067 26.862933 3.345067 31.121067-5.777067 8.849067 16.0768 25.941333 36.292267 42.205866 45.0048 8.106667-4.2496 0.042667-15.351467-1.783466-20.778667-2.030933-6.0416-4.488533-12.5184-6.664534-18.594133 149.717333 17.7664 242.440533-99.268267 299.3152-221.1072 10.760533-23.048533 15.300267-52.420267 32.631467-71.458133-2.850133 18.389333-3.285333 40.4992-5.725867 58.973866-9.002667 68.215467-10.103467 152.669867-30.72 216.832-6.314667 19.6608-18.884267 35.7376-19.805866 56.132267 43.127467-28.6464 64.708267-82.816 73.0112-132.334933 9.813333-58.581333 8.584533-125.329067 17.092266-185.4464 12.16-85.888 42.6752-169.719467 16.776534-256.093867 9.770667-4.701867 5.521067-21.7088 5.614933-30.958933 0.384-39.133867 0.8704-82.397867-22.485333-115.310934 9.326933 0.1536 18.798933-0.273067 28.1344-0.017066z" fill="#4C903D" /><path d="M627.4048 62.301867l-5.546667-19.626667c-25.745067 6.7328-70.007467 39.4496-83.754666 62.5408-23.406933 39.330133-16.7168 104.1664-28.8512 148.3776-36.394667 1.5104-70.0928-2.295467-104.226134 15.906133-10.734933-2.090667-12.868267-20.718933-13.9264-21.5296 24.2944-16.3584 59.6736-10.3936 76.066134-39.381333l-2.9184-11.255467 10.436266-0.503466c10.1888-60.689067 28.962133-160.9728 90.717867-188.091734 11.588267-5.085867 29.5936-11.255467 41.668267-7.6544 15.726933 4.693333 28.1344 37.4016 26.1888 53.0176-0.930133 7.4496-5.666133 7.739733-5.845334 8.209067z" fill="#83B24A" /><path d="M627.4048 62.301867c-0.887467 2.432 1.544533 7.2704-0.503467 10.589866-29.909333 6.3744-55.970133 17.416533-68.1472 47.351467-11.400533 28.023467-11.613867 44.296533-3.2768 72.8832 0.861867 2.961067 4.1984 3.618133 4.411734 4.206933 1.2288 3.447467-1.2544 9.634133 2.730666 16.810667 13.909333 25.0624 51.490133 20.9664 70.417067 39.4496l-3.037867 11.554133c-11.869867 1.1776-23.483733-8.32-34.594133-10.487466-33.0496-6.4768-54.656-2.372267-86.144-1.066667 12.1344-44.2112 5.444267-109.047467 28.8512-148.3776 13.7472-23.099733 58.0096-55.816533 83.754667-62.5408l5.546666 19.626667z" fill="#6A963A" /><path d="M706.167467 219.835733c-24.9088 5.6832-49.314133 29.960533-73.1392 33.757867-18.926933-18.4832-56.4992-14.3872-70.417067-39.4496-3.985067-7.176533-1.493333-13.3632-2.730667-16.810667 47.684267-16.938667 112.119467-22.3744 146.2784 22.5024z" fill="#448639" /><path d="M464.238933 197.333333l2.9184 11.255467c-16.392533 28.987733-51.771733 23.022933-76.066133 39.381333-0.853333-0.657067-8.106667 1.058133-12.782933-1.032533-18.432-8.234667-40.2432-23.7824-60.356267-27.101867 35.584-42.171733 98.6624-41.224533 146.2784-22.5024z" fill="#4C8B3C" /><path d="M751.1808 371.746133c25.890133 86.3744-4.625067 170.205867-16.776533 256.093867-8.507733 60.117333-7.278933 126.865067-17.092267 185.4464-8.302933 49.518933-29.883733 103.688533-73.0112 132.334933 0.9216-20.394667 13.4912-36.471467 19.805867-56.132266 20.616533-64.170667 21.717333-148.616533 30.72-216.832 2.440533-18.474667 2.875733-40.584533 5.725866-58.973867 5.0432-32.5376 13.755733-63.010133 17.826134-97.5104 0.384-3.2512 4.676267-5.307733 4.676266-6.570667V408.328533c0-1.109333-4.002133-3.208533-4.565333-6.6816-5.9136-36.514133-19.976533-73.309867-45.832533-100.445866-7.2704-7.6288-19.643733-8.8576-22.741334-19.438934 50.210133 1.885867 87.6544 44.5696 101.2736 90.0096z" fill="#3B7D34" /><path d="M334.839467 900.608c-35.370667-64.238933-28.3136-136.081067-33.8688-205.243733-8.328533-103.7056-63.0784-240.7168-19.652267-340.5824 18.346667-42.1888 50.107733-72.277333 98.5344-73.053867l-39.4752 36.4544C275.6864 407.125333 308.906667 517.674667 323.4048 616.669867c13.832533 94.472533 13.696 201.6768 45.201067 289.553066 2.176 6.075733 4.6336 12.552533 6.664533 18.594134 1.826133 5.4272 9.890133 16.529067 1.783467 20.778666-16.264533-8.712533-33.3568-28.928-42.205867-45.0048z" fill="#3F7F34" /><path d="M405.9648 321.92c25.0368-7.296 49.194667 10.0096 47.223467 35.541333-1.399467 18.1504-22.075733 55.432533-27.144534 80.162134-6.792533 33.134933-2.8928 75.306667-13.6704 104.482133-12.509867 33.877333-40.96 36.360533-53.819733 0.0256C338.218667 484.693333 340.394667 398.848 375.005867 347.204267c4.727467-7.057067 23.7056-23.176533 30.958933-25.284267z" fill="#7CB95D" /><path d="M177.962667 387.933867c-27.8528-40.379733 33.749333-131.592533 78.267733-109.166934 33.288533 16.768-8.644267 45.312-19.6096 59.460267-14.6432 18.909867-19.925333 46.8992-45.2608 54.7328l-13.405867-5.026133z" fill="#7FBB60" /></svg>