<?xml version="1.0" standalone="no"?><!DOCTYPE svg PUBLIC "-//W3C//DTD SVG 1.1//EN" "http://www.w3.org/Graphics/SVG/1.1/DTD/svg11.dtd"><svg class="icon" width="256px" height="256.00px" viewBox="0 0 1024 1024" version="1.1" xmlns="http://www.w3.org/2000/svg"><path d="M861.968176 403.447425c-0.767999-0.341333-11.101855-3.327997-12.723187-1.228798-4.095996 5.299195-12.91092 17.621315-16.37545 23.287442l-8.831991 14.463985c12.714654-27.929571-27.059172-66.389265-40.499158-67.012197l-32.2133-1.493332c-18.824514-40.021292-11.170122-37.009028 9.821857-89.019641 16.315716-40.430892-1.937065-86.169511-42.12049-102.579094l-4.377595-22.826643c-1.962665-10.231456-6.271994-21.725844-10.658123-29.576503 0.264533-1.484798 0.511999-4.334929 0.6144-5.879461 0.145067-2.193064-4.121596-6.331727-4.829862-6.118394-1.399465-3.251197-4.087462-11.537055-6.527993-14.549318-16.699716-20.616512-45.422886-30.745568-71.09966-27.997838l4.514128-9.002657c41.770624-19.387713 92.108705-15.487984 125.559337 20.505579 18.099181 19.473047 28.108771 44.066088 33.919965 71.287393 63.795134-0.742399 113.843082 46.216486 119.978543 110.233486 4.667729 48.674083-11.562655 84.34338-38.42556 122.675073-2.372264 3.379197-5.162661 12.177054-5.717328 14.830918z" fill="#45970E" /><path d="M224.281368 199.603369c3.46453 30.890635 8.644258 59.733272 25.028241 89.608441 20.070379 36.599429-45.994619 41.745024-8.925857 119.594543l-19.174381 23.364243c-12.518387 15.249051-10.632522 45.917819-2.457597 64.921532 17.638382 40.994091 64.3242 71.389793 89.676707 120.22601l3.54133 5.836794 9.480524 43.699154c0.2816 1.279999-6.118394 8.277325-5.034662 6.835193-11.579721-21.384511-29.661836-45.45702-52.548212-58.564206l-67.140198-38.42556c-48.571683-27.793038-68.428729-86.306044-47.547684-138.692123 3.831463-9.617057-0.068267-23.526376-7.108259-30.566369-41.855957-58.359406-29.43997-135.78226 24.823441-181.162479 17.237316-14.412785 37.265028-23.910375 57.386607-26.692239z" fill="#55A41A" /><path d="M861.968176 403.447425c34.500231 45.516753 24.174908 114.338015-25.019708 147.728914l-53.98181 36.642096c-22.195177 15.061318-51.054881 52.932212-57.523141 76.168454-2.090665 7.509326-15.138118 18.227181-22.84371 25.531707l-3.609596-8.891724c-2.158931-42.12049 1.979731-46.062886 16.486383-88.780708 23.842109-70.203661 63.189268-78.950318 92.535371-126.352936 6.280527-7.082659 11.844254-16.40105 16.034117-25.523174l8.831991-14.463985c3.455996-5.666127 12.279454-17.988248 16.375449-23.287442 1.621332-2.099198 11.946654 0.878932 12.723187 1.228798z" fill="#3E8E0A" /><path d="M824.037548 439.978587c-4.189862 9.122124-9.75359 18.431981-16.034116 25.523174-18.645314-29.960502-63.197801 27.537038-77.474054 6.306127l-0.230399-5.265061c3.02933-1.689598 9.062391-7.534926 10.436256-11.477322l5.580794-15.999983c7.278926-20.872512 14.489585-47.428218 5.009061-67.592464l32.2133 1.493332c13.439986 0.622933 53.213812 39.082626 40.499158 67.012197z" fill="#5CA415" /><path d="M808.003432 465.493228c-29.346103 47.402618-68.701796 56.140742-92.535371 126.352936-14.506652 42.717823-18.645314 46.660218-16.486383 88.780708-9.258657-22.79251-13.730119-71.415393-8.994124-98.244165l8.524791-48.273017c14.788251-8.405325 7.876259-48.17915 32.017033-62.301802 14.276252 21.230911 58.828739-36.266629 77.474054-6.306127z" fill="#68AE1F" /><path d="M626.653219 63.914976l-4.514129 9.002657c25.676773-2.74773 54.399944 7.381326 71.09966 27.997838 2.440531 3.012264 5.137061 11.298122 6.527994 14.549318 0.861866 2.013865 4.292262 5.947727 4.829861 6.118394-0.1024 1.544532-0.349866 4.403195-0.614399 5.879461L682.665961 189.175647l-34.431964 93.926303c-1.160532-1.049599-4.010663-3.575463-5.239461-4.957862s-5.785594 1.604265-7.355726 2.87573l-26.675173 21.734378c-3.46453 2.82453-14.975985 8.669858-17.442115 5.137061-3.08053-4.411729-3.788796-15.138118-2.372264-20.130112l20.181312-41.99249c6.067194-12.620787 10.291189-26.572773 11.869855-41.147691l-46.617552 67.959396-30.011702 44.322088-20.812779 30.907701-2.483197-24.209041-4.215463-4.351996c-0.093867-18.611181-2.030931-39.022893-5.239461-57.045274l-3.857063-62.737002-2.935463-74.111923c-0.298666-7.449592-3.805863-19.370647-6.254927-26.111973-2.943997 6.126927-7.219193 15.044251-7.270393 17.715181l-2.295464 124.603605-3.225597 51.780213-1.322665 105.215891c-0.1024 7.807992-2.397864 18.602647-4.266662 28.774371l-31.411168-52.28368c-1.817598-3.02933-4.172796-6.62186-5.503994-8.277325-0.042667-1.160532-2.013865-9.668257-3.473063-12.29652-23.611709-42.530089-41.028224-90.359373-57.250074-140.057455-2.363731 15.325851-3.00373 36.497029 1.535998 53.367411l25.582907 95.061235 6.920526 4.292262c26.393573 79.231918 65.817532 76.151388 52.121546 193.143268l-25.429307-57.454874c-5.162661-36.983428-68.343396-115.276681-104.601492-129.5188 10.188789-1.126399-46.993018-30.489568-47.66715-23.398376l37.375961 38.98876c1.117866 1.160532 10.453323 3.583996 9.139191 3.114663 7.108259 8.789324 17.049582 17.945581 26.444772 27.946638 34.278365 36.497029 26.436239 45.311953 47.709818 72.618592 15.590384 40.806358 25.46344 83.67778 22.920509 129.945466l-2.85013 51.882613L423.167563 686.079667l-6.809593-32.7765-4.181329-4.940795c-0.930132-26.709306-26.111973-97.706566-41.412224-114.585481-4.795728-22.169577-83.037781-97.783366-112.324151-90.73484l44.595154 39.449559c14.591985 12.91092 34.833031 43.801555 35.464497 61.815403 0.938666 26.751972-12.066121 29.533836-17.271449 47.274618l-9.258657 31.564767-3.54133-5.836794c-25.352507-48.836216-72.038326-79.231918-89.676707-120.226009-8.174925-19.003714-10.06079-49.672482 2.457597-64.921533l19.174381-23.364242c-37.068762-77.858053 28.996237-82.995114 8.925857-119.594543-16.383983-29.875169-21.563711-58.717806-25.028241-89.608441 12.296521-41.625557 21.751444-79.760984 67.362064-105.488958C314.461542 81.237625 338.63645 76.928296 364.372957 81.485091l17.544515-27.784504C408.328111 11.878763 457.770194-2.960688 506.009077 0.478242c73.830324 5.265061 104.243092 67.182864 111.795085 65.459132l8.840524-2.022398z" fill="#A4DF4F" /><path d="M698.512345 534.101157l-8.524791 48.273017c-4.735995 26.828772-0.264533 75.451655 8.994124 98.244165l3.609596 8.891724c7.714125-7.304526 20.753045-18.013848 22.84371-25.531707-0.767999 10.547189-1.689598 24.567441-0.930133 36.727429l4.590929 73.676724c12.714654 204.159789-104.174826 178.977948-103.13376 209.19445-7.338659-8.200525-15.496517-10.777589-26.581306-10.751989l4.087462-21.119978c16.315716-16.742383 37.273561-34.372231 47.803684-56.516208 18.218648-38.306094 24.422375-78.591919 23.210643-121.301208l-3.08053-108.927888c-0.136533-4.915195 9.173324-15.803717 9.70239-20.036246 0.844799-6.69866 7.748259-74.239923-5.708794-69.367395l-12.817054 4.633596c2.730664-7.705592 7.910392-19.58398 12.953587-26.683706l20.070379-28.262371 2.918397 8.823458z" fill="#D8E3B9" /><path d="M354.9607 706.158579l-3.814396 37.666095c-5.845327 57.70234-0.418133 115.515614 30.660235 166.99716 8.106658 13.431453 56.635675 60.458604 66.141798 46.395686l14.139719-6.681593 16.511983 15.086917c11.281055 0.401066-71.927392 1.339732-51.071947 7.620259-1.425065 0-4.906662 3.558396-4.898129 4.940795l0.119467 20.974912c-1.399465-1.228799-5.811194-7.364259-5.879461-10.222923l-0.383999-15.291718c-32.349833-12.253854-57.915673-28.578104-76.731654-58.146073-45.30342-71.20206-15.453851-145.928383-22.81811-235.314957 6.62186 0.0256 17.442115 4.249596 21.649044 8.695458l16.358383 17.279982z" fill="#F1F6D7" /><path d="M599.380714 972.842037c11.084789-0.0256 19.242647 2.551464 26.581306 10.751989 0.3584 10.359456-5.521061 29.03037-18.474648 32.913032-11.724788 3.51573-27.153039 7.244793-37.759961 7.270393L494.932822 1023.999317c-21.674644 0.059733-66.064998-3.788796-72.174859-24.840507l-0.119466-20.974912c0-1.382399 3.46453-4.940795 4.898128-4.940795l171.844089-0.401066z" fill="#E1E1AE" /><path d="M354.9607 706.158579l-16.358383-17.279982c-4.206929-4.445862-15.027184-8.669858-21.649045-8.695458l-0.537599-6.485326c-1.083732 1.442132 5.307728-5.546661 5.034662-6.835193l-9.480524-43.699155 9.258657-31.564768c5.205328-17.740782 18.210115-20.514112 17.271449-47.274617h5.759994l7.987192 37.691694c3.908263 18.449048 5.435728 42.01809 4.804261 61.030337l-2.099197 63.095401z" fill="#A9E05D" /><path d="M511.811738 262.203838c3.20853 18.022381 5.145595 38.434094 5.239461 57.045274l0.145067 29.499703c0 1.621332 6.348793 8.942924 7.398392 7.705592 1.049599-1.237332 5.102928-5.913594 6.195194-7.679992l21.725844-35.123164 9.796256 9.113591c-7.569059 18.295448-12.211187 30.370102-14.523718 44.501287-9.47199 23.705576-12.561054 53.307678-8.191992 78.899119l7.065593 41.437824c0.708266 4.138662 4.275196 12.637854 5.887994 15.112517l13.678919 59.144473 6.092794-5.913594 17.177582-42.615423 13.073053-19.447447 12.287988-20.036246c17.373849 26.487439-3.15733 20.599445-4.351996 65.279933-2.82453 105.98389 2.534397 71.867659 10.922656 156.159839l2.124797 21.316244c6.82666 68.616462 15.103984 184.925676-36.846895 237.772555l-7.782392 7.918925c-7.167993 3.08053-20.949312 6.13546-31.197834 5.77706l-69.128462-2.449064-16.511983-15.086917c-31.889034-38.73276-42.862889-113.868682-38.80956-165.572096l8.669858-110.540686 2.85013-51.882613c2.542931-46.267686-7.330126-89.139108-22.92051-129.945466l-3.063463-20.215445 15.283184-2.645331c4.727462 8.490658 13.32052 34.483164 19.387713 33.100766l25.429307 57.454874c13.695986-116.991879-25.736507-113.911349-52.121546-193.143267 3.148797 9.454924-11.161588-44.84262-1.023999-37.896494l7.765326 5.316261c5.717327 10.692256 14.165319 25.011174 19.933846 32.2133 1.331199 1.663998 3.686396 5.256528 5.503994 8.277325l31.411168 52.283679c1.877331-10.171723 4.172796-20.966378 4.266662-28.77437l1.322665-105.215892 3.225597-51.780213 9.284257-7.807992 5.597861 13.11572c2.77333 6.485327 5.580794 12.142921 7.722658 15.325851z" fill="#FDFEEC" /><path d="M751.32509 371.464525c9.480524 20.164246 2.278398 46.719952-5.009061 67.592463l-5.580794 15.999984-10.436256 11.477321 0.230399 5.265062c-24.140775 14.114119-17.228782 53.887944-32.017033 62.301802l-2.918397-8.823458-20.070379 28.262371c-5.034661 7.091193-10.222923 18.96958-12.953587 26.683706h-4.130129l-18.594114 9.57439c-3.114663 1.604265-12.75732 3.302397-16.059717 2.466131-4.394662-1.109332-8.243191-11.195722-8.217591-15.880517l0.170666-37.265028c0.017067-4.002129 1.032532-13.354653 2.559997-17.766382l14.737052-42.692222c2.525864-7.321592 7.313059-16.964249 8.831991-22.570644 8.140792-4.275196 36.181296-59.084739 32.127967-74.547123l-45.491153 58.274073c-1.126399 1.442132-3.370663 11.886921-2.850131 10.598389-21.282111 19.541313-29.499703 46.395685-36.155696 62.916202l-17.177582 42.615423-6.092794 5.913594-13.678919-59.144473c1.851731-61.107137 53.939144-120.004143 73.727924-171.972089l5.486928-6.08426 0.162133-5.222395c1.117866-0.486399 4.983462-3.353597 5.034661-5.247994l0.1536-5.222395c1.083732-0.4352 4.855462-3.473063 4.923728-5.333328 0.059733-1.638398 0.1024-3.711996 0.162133-5.222394l5.674661-10.052257c0.674133-1.194665 0.384-3.379197 0.3584-5.222394L682.665961 189.20978l21.316245-61.713003c4.394662 7.850659 8.703991 19.345047 10.658122 29.576503l4.377596 22.826643c40.191958 16.409583 58.44474 62.148202 42.120489 102.579094-20.991978 52.019146-28.64637 48.998349-9.821856 89.019641z" fill="#92D13C" /><path d="M370.764417 533.802491c15.300251 16.878916 40.482092 87.876176 41.412224 114.585481l1.484798 42.615423c0.4096 11.895454-1.698132 28.117304-3.140263 40.430891l-5.640528 48.238884c-8.260258 70.570594-0.904532 124.612138 43.076222 177.535816-9.514657 14.062919-58.03514-32.964233-66.141798-46.395685-31.069835-51.481547-36.505562-109.29482-30.660235-166.997161l3.814396-37.666094 2.099198-63.095402c0.631466-19.012247-0.895999-42.581289-4.804262-61.030337l-7.987191-37.691694-6.399994-28.287971c-0.443733-1.962665 0.136533-7.645859 0.529066-9.685323s7.611725 1.416532 9.634124 2.363731l22.732776 25.079441z" fill="#FEFEF5" /><path d="M648.24253 283.10195c0.0256 1.843198 0.315733 4.036262-0.358399 5.222394-2.508797 0.861866-5.077328 1.245865-5.188262 2.875731l-0.486399 7.176525c-0.059733 1.518932-0.1024 3.583996-0.162133 5.222395l-4.923729 5.333328-0.1536 5.222395-5.034661 5.247994-0.162133 5.222395c-1.663998 1.305599-4.676262 3.959463-5.486928 6.08426-19.797313 51.967946-71.876192 110.864952-73.727924 171.972089-1.612798-2.466131-5.179728-10.973855-5.887994-15.112518l-7.065592-41.437824c-4.360529-25.59144-1.279999-55.193543 8.191991-78.899118 3.020797-7.551992 8.942924-19.421847 14.003186-28.79997l27.349305-50.696481c-1.416532 4.991995-0.708266 15.718384 2.372264 20.130112 2.474664 3.532796 13.977586-2.312531 17.442115-5.137061l26.675173-21.734378c1.570132-1.279999 6.178127-4.215462 7.355726-2.87573s4.070396 3.916796 5.239461 4.957862z" fill="#ABE65B" /><path d="M431.956887 674.423145l-8.669858 110.540686c-4.053329 51.703413 6.920526 126.839336 38.80956 165.572096l-14.139719 6.681593c-43.980755-52.932212-51.33648-106.965223-43.076222-177.535817l5.640528-48.238883c1.442132-12.313587 3.558396-28.535437 3.140263-40.430892l-1.484798-42.615423 4.181329 4.940795 6.809593 32.7765 8.789324-11.673588z" fill="#E0E6C6" /><path d="M338.883916 373.316256c36.258096 14.242119 99.438831 92.535371 104.601492 129.5188-6.067194 1.382399-14.660252-24.610108-19.387713-33.100766l-15.283184 2.645331 3.063463 20.215445c-21.273578-27.315172-13.431453-36.121563-47.709817-72.618591-9.39519-10.001056-19.336513-19.157314-26.444773-27.946638l-16.324249-20.198379c-0.443733-1.459198-1.749332-5.725861-1.535999-5.009062l19.012247 6.502394z" fill="#EEFBD1" /><path d="M511.811738 262.203838c-2.141864-3.191463-4.949328-8.840524-7.722659-15.325851l-5.597861-13.11572-9.284257 7.807992 2.295464-124.603604c0.0512-2.679464 4.326396-11.588255 7.270393-17.715182 2.449064 6.741326 5.964794 18.662381 6.254927 26.111973l2.935463 74.111923 3.857063 62.737002z" fill="#EEFBCD" /><path d="M443.476875 366.77973c-5.768527-7.202126-14.225052-21.512511-19.933846-32.2133l-7.765325-5.316261c-10.13759-6.946126 4.172796 47.351418 1.023999 37.896494l-6.920527-4.292262-25.582906-95.061236c-4.539729-16.878916-3.908263-38.050094-1.535999-53.367411 16.213317 49.706615 33.638365 97.527366 57.250074 140.057455 1.459198 2.628264 3.430396 11.135988 3.473063 12.296521z" fill="#ECFAD4" /><path d="M589.149258 287.761145l-27.349305 50.696481c-5.060261 9.378124-10.982389 21.247978-14.003186 28.79997 2.312531-14.122652 6.954659-26.20584 14.523719-44.501287l-9.796257-9.113591-21.725844 35.123164c-1.092266 1.766398-5.145595 6.44266-6.195194 7.679992-1.058132 1.245865-7.389859-6.075727-7.398392-7.705592l-0.145067-29.499703 4.215463 4.351995 2.483197 24.209042 20.812779-30.907701 30.011702-44.322088 46.617552-67.959396c-1.578665 14.566385-5.802661 28.526904-11.869855 41.147691l-20.181312 41.992489z" fill="#F1FCD7" /><path d="M370.764417 533.802491l-22.732777-25.079441c-2.022398-0.955732-9.250124-4.411729-9.634123-2.363731s-0.972799 7.722659-0.529066 9.685323l6.399993 28.287971h-5.759994c-0.631466-18.022381-20.872512-48.913016-35.464496-61.815403l-44.595154-39.449559c29.277836-7.048526 107.519889 68.565262 112.32415 90.73484z" fill="#E5F9C7" /><path d="M338.883916 373.316256l-19.012247-6.502393c-0.221866-0.716799 1.092266 3.549863 1.535999 5.009062l16.32425 20.198379c1.314132 0.469333-8.029858-1.945598-9.139191-3.114664l-37.375961-38.988759c0.674133-7.091193 57.85594 22.271977 47.66715 23.398375z" fill="#CDF09F" /><path d="M704.605139 121.57465c-0.529066-0.162133-3.959463-4.104529-4.829862-6.118394 0.708266-0.213333 4.974928 3.925329 4.829862 6.118394z" fill="#92D13C" /><path d="M603.468176 951.730592l-24.541841 10.555722 7.782392-7.918925c51.942346-52.846879 43.673555-169.164625 36.846895-237.772554l-2.124797-21.316245 8.994124 11.289589 4.522662-32.358367c4.130129-24.413841 8.541858-49.220216 16.17065-72.072459l7.321592-21.913577h4.130129l12.817053-4.633595c13.457053-4.872528 6.553593 62.668735 5.708795 69.367395-0.529066 4.232529-9.847456 15.121051-9.70239 20.036246l3.08053 108.927887c1.211732 42.709289-4.991995 82.995114-23.210643 121.301208-10.530122 22.143977-31.479434 39.773826-47.803684 56.516208z" fill="#E8EFCF" /><path d="M603.468176 951.730592l-4.087462 21.119978-171.844089 0.401066c-20.863978-6.28906 62.344469-7.227726 51.071947-7.620258l69.128462 2.449064c10.239989 0.3584 24.029842-2.696531 31.197834-5.777061l24.541842-10.555722z" fill="#E0E6C6" /><path d="M658.448386 580.215243l-7.321592 21.913577c-7.637325 22.852243-12.049054 47.658617-16.17065 72.072459l-4.522662 32.358366-8.994124-11.289588c-8.388258-84.29218-13.747186-50.175948-10.922656-156.159839h5.222395l-0.170666 37.265029c-0.0256 4.693328 3.822929 14.771185 8.217591 15.880516 3.293863 0.836266 12.945053-0.861866 16.059717-2.46613l18.594114-9.57439z" fill="#A5D25A" /><path d="M641.87667 456.072438c-1.518932 5.606394-6.306127 15.249051-8.831991 22.570643l-14.737051 42.692222c-1.527465 4.411729-2.542931 13.772786-2.559998 17.766382h-5.222394c1.194665-44.680487 21.725844-38.78396 4.351995-65.279932l-12.287987 20.036245-13.073053 19.447447c6.655993-16.511983 14.873585-43.374889 36.155696-62.916202 2.585597-2.372264 8.721058-7.022926 11.178655-10.641055l18.261314-26.828773 2.756264 13.201053c0.426666 2.047998-8.780791 3.276797-9.326923 5.316262l-6.655994 24.627174z" fill="#F0FBD4" /><path d="M641.87667 456.072438l6.655993-24.627175c0.554666-2.039465 9.75359-3.276797 9.326924-5.316261l-2.756264-13.201053-18.261314 26.828772c-2.466131 3.61813-8.593058 8.277325-11.178656 10.641056-0.520533 1.288532 1.723732-9.156257 2.850131-10.598389l45.491153-58.274073c4.053329 15.462384-23.987175 70.271927-32.127967 74.547123z" fill="#D9F5B2" /><path d="M642.20947 298.3766l0.486399-7.176525c0.110933-1.629865 2.679464-2.005331 5.188262-2.875731l-5.674661 10.052256zM626.286286 330.726434c0.810666-2.133331 3.822929-4.778662 5.486928-6.084261l-5.486928 6.084261zM631.935347 319.411245l5.034661-5.247994c-0.0512 1.894398-3.916796 4.770128-5.034661 5.247994zM637.115075 308.932323l4.923728-5.333328c-0.068267 1.860265-3.839996 4.898128-4.923728 5.333328z" fill="#A4DF4F" /><path d="M730.298979 466.534293l10.436256-11.477321c-1.373865 3.950929-7.415459 9.787723-10.436256 11.477321z" fill="#68AE1F" /></svg>