<?xml version="1.0" standalone="no"?><!DOCTYPE svg PUBLIC "-//W3C//DTD SVG 1.1//EN" "http://www.w3.org/Graphics/SVG/1.1/DTD/svg11.dtd"><svg class="icon" width="256px" height="256.00px" viewBox="0 0 1024 1024" version="1.1" xmlns="http://www.w3.org/2000/svg"><path d="M260.467926 968.627953l-5.922052-82.985539c3.891147-4.130077 42.188227 19.396003 51.668631 22.442361 112.715268 36.240574 246.558782 9.011078 309.320596-97.36401 27.23803-46.156173 21.170912-80.135444 24.660998-129.48304 8.507618-120.113567 11.920905-242.189775 23.483414-361.851081 1.416514-14.643001-0.657058-29.70413 0.119465-44.338598 31.649703-5.256462 57.991745-7.202035 89.052656-20.667452 72.028888-31.214509 17.783225-58.503738-29.576131-71.388897-108.516925-29.507866-340.577771-32.955285-445.229149 5.88792-15.794985 5.86232-40.037856 19.506935-41.317838 38.732274l-23.722344 5.930586c-1.809042-29.721196-10.009464-68.342538-11.741708-97.935736-0.878921-15.061129-2.901294-52.291556 0.622925-64.348992 5.452726-18.653613 50.619045-38.433611 68.700933-43.971669 119.038382-36.479504 364.803575-36.28324 483.918756 0 13.576349 4.13861 61.217301 23.611412 66.635895 34.175536l2.94396 8.917212-56.336301 892.45507c-12.919291 14.165141-26.248177 25.702051-44.432463 32.665156-97.722405 37.392558-325.789705 38.570142-421.558004 0.017066-15.154994-6.10125-29.081205-16.44351-41.300772-26.896701z" fill="#F4E7BC" /><path d="M663.807511 275.048046c-0.776523 14.634468 1.297049 29.70413-0.119465 44.338598-11.56251 119.661307-14.98433 241.737514-23.483414 361.851081-3.490086 49.347596 2.577032 83.318334-24.660998 129.48304-62.770347 106.375088-196.605328 133.604584-309.320596 97.36401-9.480404-3.046359-47.777484-26.580972-51.668631-22.442361l5.922053 82.985539c-0.887455-0.759456-4.309275 0.093865-5.350328-3.396221-2.073572-15.530456 0.725323-31.342507-0.699723-46.872963-20.889316-227.051847-27.519626-456.868457-41.394638-684.807759l23.722344-5.930586c0.426661 3.967946 2.781829 6.468179 5.964719 8.601483 97.048281 65.125515 308.100346 57.590684 421.09721 38.817606z m-345.953698 54.015266c-10.31666 1.911441-26.290843 14.48087-27.869488 25.872715-3.746082 27.050299-1.237317 77.865608-0.119465 107.100411 2.542899 66.43963 14.770999 134.799235 18.312285 201.034068 1.288516 24.106339-5.512458 88.259067 2.559965 104.147917 15.325658 30.147857 65.48391 22.766624 68.598534-14.728333 3.345021-40.293852-3.498619-94.582181-6.288981-136.463212-4.445806-66.780959-13.252087-134.807768-17.92829-201.418062-1.322649-18.798678 4.744469-54.373661-2.551432-68.590001-8.635616-9.113476-21.862103-19.344804-34.713128-16.964036z" fill="#FAF4DA" /><path d="M663.807511 275.048046c-112.996864 18.773078-324.048929 26.307909-421.09721-38.817606-3.18289-2.133304-5.538058-4.64207-5.964719-8.601483 1.279983-19.225339 25.522853-32.869953 41.317839-38.732273 104.651378-38.851739 336.712224-35.404319 445.229148-5.88792 47.359356 12.876625 101.605019 40.165854 29.576132 71.388896-31.069444 13.465417-57.411486 15.410991-89.052657 20.667453z" fill="#FBFBEC" /><path d="M317.853813 329.063312c12.851025-2.380768 26.077512 7.842027 34.713128 16.964036 7.295901 14.21634 1.228783 49.791323 2.551432 68.590001 4.676203 66.610295 13.491017 134.637103 17.92829 201.418063 2.790362 41.881031 9.634002 96.16936 6.288981 136.463211-3.114624 37.494957-53.272876 44.87619-68.598534 14.728334-8.072424-15.880317-1.271449-80.041579-2.559965-104.147918-3.541285-66.234833-15.769386-134.594437-18.312285-201.034068-1.117851-29.234803-3.618084-80.050112 0.119465-107.100411 1.578645-11.391845 17.552828-23.961274 27.869488-25.872715z" fill="#FDFEF7" /></svg>