<?xml version="1.0" standalone="no"?><!DOCTYPE svg PUBLIC "-//W3C//DTD SVG 1.1//EN" "http://www.w3.org/Graphics/SVG/1.1/DTD/svg11.dtd"><svg class="icon" width="256px" height="256.00px" viewBox="0 0 1024 1024" version="1.1" xmlns="http://www.w3.org/2000/svg"><path d="M681.138498 103.50793c17.365098 25.522854 35.933379 66.106837 44.099669 95.853634 31.069445 113.0822 8.439352 248.410499-85.588173 325.661718-1.160518 0.95572-8.908679 0.383995-12.168368 6.84364-0.861855 1.706644-4.974866 13.132622-5.119931 13.892078l-1.72371-3.438886c-7.645763 10.470258-24.882863 13.670215-25.932448 27.622025-0.042666-0.298663-2.875694-0.776523-3.498619-4.974866-3.302355-22.246098 13.072889-63.086078 24.780464-82.593013 4.334875-7.219102 10.495858-13.269153 14.873398-19.686133 3.430353-5.034598 8.789214-11.03345 8.780681-17.126168-5.742855 4.991932-12.620629 12.927825-17.356565 18.926677-21.264778 26.939368-41.360506 56.336303-44.876191 91.629691-3.140224 1.382381-6.903373-8.080957-6.903373-8.635617v-58.734137c0-24.302604 34.431533-99.505851 43.306079-129.465978 5.401527-18.244019 8.371087-37.051231 12.006237-55.372049 0.059733-0.298663 2.594098-0.750923 2.892761-2.389301 3.234089-17.313899 4.659137-35.122724 4.010612-52.888883l-10.359326 48.366278c-12.176902 56.856829-36.223509 102.270613-57.078693 155.441092-5.213796 13.303286-8.183356 28.603346-13.755546 41.531171-2.022373 4.69327-4.949266 13.619015-10.444659 6.911906-4.821268-5.879387-9.531604-25.420455-11.263847-33.65501-18.295219-87.124152-10.717721-189.3009-14.472337-279.215415l-7.056971-25.761784c-0.802122 29.328669 0.998386 58.904801 0.145064 88.250537-1.971173 67.403886-2.568499 166.807338-18.158687 230.61874-1.911441 7.824961-5.742855 23.048221-13.098489 26.632172-10.589723-48.443077-37.426693-91.211563-54.57846-137.21414-8.891613-23.833277-15.888851-48.989202-21.478109-73.547802-3.18289-13.994477-6.826574-27.980421-7.645763-42.461291l-6.178049-19.728799c-2.619698 11.835573 2.218637 22.766625 3.387687 32.878487 1.911441 16.580042 3.933813 25.06206 6.971639 39.670929 4.411674 21.16238 8.183356 42.094363 14.660068 63.086078 17.160301 55.628046 52.445156 110.249172 40.669315 170.143826-0.989853 5.043132 0.50346 10.444658-6.920439 12.074503 1.075185-24.277004-14.762467-46.275639-27.664692-65.646043-2.628231-3.95088-31.666771-44.782326-34.559531-41.462905-0.008533 6.109784 5.350327 12.074503 8.780681 17.126168 5.563658 8.183356 11.724641 15.351259 17.305365 24.302604 1.570112 2.517299 4.829801 3.140224 5.017532 3.481553 8.029758 13.985944 11.144382 35.976046 13.823813 51.822231v41.454371l-3.703417-13.661682-6.664443-0.153597-15.564589-20.718653-1.72371 3.438887c-0.145065-0.750923-4.258076-12.142769-5.128464-13.875012-2.244236-4.45434-9.454805-7.458032-12.151301-10.308127-11.511311-12.151302-22.672759-24.405002-34.568065-36.274708-1.553046-1.553046-9.002545-12.06597-10.36786-5.179663-7.577497-13.943278-16.571509-27.366029-24.200205-41.462905l-4.206876-21.708505c-46.46337-103.48233-29.499333-226.625194 31.863035-320.345524l5.043131-3.455953c42.239427-63.70047 121.035159-115.07044 199.933289-95.990165 51.344371 12.415832 104.847645 56.899495 133.817919 99.480251zM380.376709 442.106006c2.244236-4.326341-5.529525-12.06597-6.894839-10.36786-2.244236 4.326341 5.529525 12.06597 6.894839 10.36786z" fill="#99DC7D" /><path d="M670.770639 569.942139c-0.136531-0.563192-6.007385-5.128464-3.455953-10.367859 0.546126-1.996773-0.614392-5.188196 0-6.911907 1.126385-3.140224 5.486859-11.596643 7.406833-15.061129 3.276756-5.91352 8.712415-12.671828 13.328886-17.766159l-6.92044-3.430353c12.765694-22.288764 23.662613-45.610048 35.105657-68.590004 4.18981-8.405219 8.388153-16.887238 12.603563-25.403389 10.333727-20.87225 23.645546-43.152482 32.477426-64.280728 1.433581-3.430353 5.879387-10.248394 1.058119-12.774227l-26.461508 53.033948c-29.286003 51.071308-59.48506 102.099949-85.895368 154.280575-3.618084 7.150836-6.186583 16.784839-13.823813 20.727185l3.44742-48.37481c94.027525-77.259752 116.649085-212.579518 85.588173-325.661718-8.174822-29.746797-26.734571-70.33078-44.099669-95.853634 14.813666-9.736401 30.113725-9.156143 46.591368-10.419059 3.549819-0.273063 6.937506-3.370621 10.453192-3.370621 3.515686 0 6.903373 3.097558 10.453192 3.370621 29.200671 2.210103 46.557235 7.867627 69.127596 27.630559 71.346233 62.48022 61.635431 183.139917 27.647625 262.712171-34.772862 81.423963-96.143763 146.122819-174.640832 186.510538z m42.307693-78.625067l-18.969343 19.029075 3.490086 3.481553 18.969343-19.029075-3.490086-3.481553z" fill="#60B861" /><path d="M639.658527 525.023282l-3.44742 48.37481c7.628697-3.942347 10.197195-13.576349 13.823813-20.727185h17.288299c-0.614392 1.72371 0.546126 4.915133 0 6.911906-0.554659 2.030906-7.014305 7.816427-3.140224 15.308592l3.140224 1.971174c-13.439818 36.334441 25.036461 135.763493 33.774475 178.728243 9.582803 47.120428 17.305365 99.693582 2.662364 146.182551-14.276073 45.328452-52.701152 80.476776-98.831726 91.339562l-2.500233 3.47302c4.206876 10.376393-2.013839 22.945822-13.473951 25.394855-48.989202-2.047972-103.311666 4.735936-151.660877 0.725324-16.178981-1.339715-24.379403-17.074968-15.410991-31.223044-43.075683-5.264995-82.934342-39.611196-98.584263-79.427189-16.042449-40.805847-12.492631-96.442426-4.411674-139.253579 10.10333-53.511808 38.510411-121.257023 40.993578-173.420582 0.443727-9.250008-5.41006-17.151767-3.68635-25.975114 0.076799-0.409594 2.20157-1.732243 3.455953-6.911907 0.443727-1.817575-0.733857-4.488472 0.204797-6.613243l13.627549-3.746083 10.359326 17.271233v-44.910325c2.70503 2.850095 9.915599 5.853787 12.159835 10.308127 0.878921 1.740776 4.983399 13.124089 5.128464 13.875012 0.870388 4.522605-0.878921 10.453192 0.068265 15.453657 2.500233 13.28622 6.118317 26.214045 6.843641 39.824527 1.894374 35.336054-21.554908 90.639838-30.395321 126.829214-15.103795 61.831695-29.75533 127.477738 2.073572 186.519071 14.369939 26.657772 43.562076 48.861204 71.679028 59.109598 3.063425-0.059733 4.488472-5.973252 5.043131-6.229249 8.217489-3.737549 80.86077 1.604245 98.686662 0.145065 5.725789-0.469327 7.475099-1.902908 11.937972-3.601018-1.561579 10.094796 3.882614 7.799361 10.58119 5.392994 33.902474-12.176902 62.198623-39.961058 75.092315-73.522203 19.191206-49.944923 7.842027-109.89931-3.498619-160.834086-9.531604-42.828219-24.882863-84.896982-37.230429-126.906013 5.947653-21.990102 6.263382-47.794552 10.36786-69.101997 0.145065-0.750923 4.258076-12.185435 5.11993-13.892078 3.259689-6.459646 10.999318-5.88792 12.168369-6.84364z" fill="#F7FEDD" /><path d="M342.352692 103.50793c-61.362368 93.720329-78.326405 216.863193-31.863035 320.345523l4.206876 21.708506c-13.721414-25.335123-29.158005-49.902257-41.479971-76.013903l-24.191672-44.910324c-1.442114 6.357247 1.843175 9.949732 4.010613 14.98433 4.121544 9.57427 8.183356 19.694666 12.501163 29.115339 1.211717 2.636764 3.959413 3.720483 4.223943 4.275142 21.213579 44.603129 44.833525 88.062806 65.66311 133.041396l-1.706644 5.154063c-3.285289-4.616471-8.072424-7.125237-12.100102-10.359326-7.125237-5.717256-13.951811-14.24194-22.459429-17.279766l10.282527 13.968878 8.729482 3.319421c8.601483 12.688895 21.913303 20.974649 29.234803 34.696063l12.245168 30.94998c-1.254383 5.179663-3.379154 6.502312-3.455953 6.911907-49.816925-29.533466-98.507464-63.427407-132.938998-110.718499-59.339995-81.492228-98.379466-212.076058-46.284172-305.079597 27.596426-49.270799 76.952557-74.332859 132.478203-64.383127 10.726255 1.919974 22.800758 6.118317 32.912621 10.29106z" fill="#60B861" /><path d="M670.770639 569.942139c0.273063 1.117852-2.67943 4.804202-3.455953 6.911906l-3.140224-1.971173c-3.874081-7.492165 2.585565-13.277687 3.140224-15.308592-2.551432 5.239396 3.319422 9.796134 3.455953 10.367859zM622.370228 296.990107l3.089025 2.022372 0.366929 4.889534c-3.626617 18.320818-6.60471 37.136563-12.006238 55.372049-8.874546 29.96866-43.30608 105.163374-43.306079 129.465978v58.734137c0 0.554659 3.763149 10.017998 6.903373 8.635616 3.507152-35.301921 23.611413-64.698856 44.876191-91.629691 4.735936-5.998852 11.605176-13.934744 17.356565-18.926676 0 6.101251-5.341794 12.091569-8.780681 17.126168-4.377541 6.425513-10.538524 12.467031-14.873398 19.686133-11.707575 19.506936-28.082819 60.346915-24.780464 82.593013 0.622925 4.198343 3.464486 4.676203 3.498619 4.974866 2.747696 20.471189 5.469793 34.986192 10.367859 55.278184 24.575667 101.741554 98.515998 293.57682-38.024017 345.509982-4.462873 1.69811-6.212182 3.131691-11.937972 3.601018-17.825892 1.45918-90.469173-3.882614-98.686662-0.145065-30.036926-14.711267-54.586993-37.87042-67.463618-69.050797-19.805598-47.965216-14.583269-99.667982-4.334875-149.553172 12.083036-58.810936 33.484346-118.483727 47.521489-177.089866-0.546126-10.094796 1.211717-21.37571 0.136531-31.205977-0.460794-4.206876-3.455953-4.69327-3.507152-4.991932-2.67943-15.846185-5.794055-37.836287-13.823813-51.822231l3.455954-3.455953c12.902225 19.370404 28.739877 41.369039 27.664691 65.646043 7.423899-1.638378 5.930586-7.031371 6.92044-12.074503 11.77584-59.894655-23.509015-114.515781-40.669316-170.143826-6.476712-20.991715-10.248394-41.923698-14.660067-63.086078l0.383994-8.217489 3.080492-2.150371c5.589258 24.5586 12.595029 49.714526 21.478109 73.547803 17.160301 46.002576 43.988737 88.76253 54.57846 137.21414 7.355634-3.583951 11.187048-18.807212 13.098489-26.632172 15.581655-63.811401 16.187514-163.214854 18.158687-230.61874 0.853322-29.345735-0.947187-58.921868-0.145065-88.250537l7.056971 25.761784c3.754616 89.905981-3.822882 192.091262 14.472337 279.215414 1.732243 8.234555 6.442579 27.775623 11.263848 33.655011 5.495392 6.707109 8.422286-2.218637 10.444658-6.911907 5.572191-12.927825 8.541751-28.227884 13.755547-41.53117 20.846651-53.170479 44.901791-98.584263 57.078693-155.441092z" fill="#F7FEDD" /><path d="M456.433278 974.186258c-0.554659 0.247463-1.979706 6.160983-5.043131 6.229249-28.116952-10.256928-57.30909-32.451827-71.679029-59.109598-31.820369-59.041333-17.168834-124.687376-2.073571-186.519071 8.840413-36.189376 32.289696-91.49316 30.395321-126.829214l6.920439 5.179663 3.455953-43.186615 6.664443 0.153598 3.694884 13.661682v-41.454372c0.059733 0.298663 3.054892 0.785056 3.515685 4.991933 1.075185 9.830267-0.682657 21.11118-0.136531 31.205977-14.037143 58.606139-35.438453 118.27893-47.521489 177.089865-10.248394 49.88519-15.470724 101.587956 4.334874 149.553173 12.876625 31.180377 37.435226 54.330997 67.463619 69.050797z" fill="#E2F0CE" /><path d="M314.696533 445.561959c7.628697 14.096876 16.622708 27.519627 24.200205 41.462904 12.219568 22.476495 23.056754 46.762033 34.568065 69.101997l-13.627548 3.746082c-0.938654 2.124771 0.23893 4.795668-0.204798 6.613244l-12.245167-30.94998c-7.321501-13.721414-20.641853-22.007168-29.234804-34.696063h3.455954c4.036212 3.234089 8.823347 5.751389 12.100102 10.359326l1.706644-5.154063c-20.838117-44.97859-44.449531-88.438268-65.66311-133.041397l3.455953-3.455953c12.321966 26.111646 27.76709 50.670246 41.479971 76.013903z" fill="#F7FEDD" /><path d="M622.370228 545.759c-4.113011 21.307444-4.420207 47.111895-10.367859 69.101997-0.162131 0.614392-5.119931 9.454805-6.911906 10.367859-4.898067-20.291992-7.620163-34.806995-10.36786-55.278184 1.049586-13.951811 18.286685-17.151767 25.932449-27.622025l1.72371 3.438887z" fill="#E2F0CE" /><path d="M383.841196 528.479235v44.910324l-10.36786-17.271232c-11.511311-22.339964-22.35703-46.625501-34.568064-69.101997 1.365315-6.877773 8.814814 3.635151 10.367859 5.179663 11.903839 11.878239 23.056754 24.123406 34.568065 36.274708z" fill="#F7FEDD" /><path d="M418.40926 569.942139l-3.455953 43.186615-6.920439-5.179663c-0.725323-13.610482-4.343408-26.538307-6.843641-39.824527-0.938654-5.000466 0.810656-10.931052-0.068266-15.453657l1.72371-3.438887 15.564589 20.718652z" fill="#E2F0CE" /><path d="M401.120961 296.990107l-3.080491 2.15037-0.383995 8.217489c-3.046359-14.608869-5.060198-23.090887-6.971639-39.670929-1.169051-10.111863-6.007385-21.042915-3.387687-32.878487l6.178049 19.728799c0.819189 14.48087 4.45434 28.466814 7.645763 42.461291zM418.40926 487.024863l-3.455953 3.455954c-0.196264-0.341329-3.455953-0.964254-5.017532-3.481553-5.580724-8.951345-11.741707-16.119248-17.305365-24.302604-3.430353-5.051665-8.789214-11.024917-8.780681-17.126168 2.892761-3.327955 31.9313 37.512025 34.559531 41.462905zM625.826182 303.902013l-0.366929-4.889534-3.089025-2.022372 10.359327-48.366278c0.657058 17.774692-0.776523 35.574984-4.010613 52.888883-0.307196 1.638378-2.833028 2.090638-2.89276 2.389301zM380.376709 442.106006c-1.365315 1.706644-9.147609-6.041518-6.894839-10.36786 1.365315-1.706644 9.147609 6.041518 6.894839 10.36786zM650.026387 552.670907c26.401775-52.180626 56.609366-103.209267 85.895368-154.280575l26.461508-53.033948c4.829801 2.525832 0.375462 9.343873-1.058119 12.774227-8.83188 21.13678-22.1437 43.408478-32.477426 64.280728-4.21541 8.524684-8.422286 16.99817-12.603562 25.403389-11.443045 22.979955-22.339964 46.301239-35.105658 68.590004l6.92044 3.430353c-4.616471 5.094331-10.05213 11.852639-13.328886 17.766159-1.919974 3.464486-6.288981 11.920905-7.406833 15.061129h-17.288299zM694.117522 510.358947l18.954837-19.034195 3.494352 3.479846-18.954836 19.035049z" fill="#F7FEDD" /><path d="M612.002369 614.860997c12.347566 42.00903 27.698824 84.077793 37.230428 126.906013 11.340646 50.943309 22.689826 110.889163 3.49862 160.834086-12.893692 33.552612-41.189842 61.336768-75.092315 73.522203-6.698576 2.406367-12.134235 4.701803-10.58119-5.392994 136.540015-51.933163 62.599685-243.768428 38.024017-345.509982 1.791976-0.913054 6.749775-9.753468 6.911907-10.367859z" fill="#E2F0CE" /><path d="M273.216562 369.548056l-3.455953 3.455953c-0.26453-0.554659-3.012226-1.629845-4.223943-4.275142-4.317808-9.420672-8.37962-19.541068-12.501163-29.115338-2.167437-5.034598-5.452726-8.61855-4.010613-14.98433l24.191672 44.910324zM321.616973 500.840143h-3.455953l-8.729482-3.319422-10.282527-13.968877c8.507618 3.037825 15.334192 11.56251 22.459429 17.279766z" fill="#F7FEDD" /></svg>