<?xml version="1.0" standalone="no"?><!DOCTYPE svg PUBLIC "-//W3C//DTD SVG 1.1//EN" "http://www.w3.org/Graphics/SVG/1.1/DTD/svg11.dtd"><svg class="icon" width="256px" height="256.00px" viewBox="0 0 1024 1024" version="1.1" xmlns="http://www.w3.org/2000/svg"><path d="M199.397163 573.764267c14.762667 27.2384 33.578667 51.857067 55.816533 75.912533 20.232533 21.888 68.215467 40.917333 95.368533 43.716267l10.0864 6.766933-6.365866 14.122667c-33.4592 24.4992-49.792 58.129067-50.1248 99.626666l-16.8704 5.230934c-23.944533-4.266667-8.558933 6.229333-30.4896 15.505066l-23.133867 9.787734-0.324267-13.0816c17.902933-25.250133 19.0464-45.568 24.4224-79.889067 3.328-21.282133-6.0672-41.1648-18.5088-57.173333-31.863467-41.028267-18.628267-48.324267-68.138666-85.026134 1.4336-3.336533 4.343467-9.6 6.528-12.936533l14.472533-22.144 7.253333-0.426667z" fill="#BD7C37" /><path d="M173.908096 511.940267c18.978133 0.4096 7.748267 29.073067 25.4976 61.824l-7.253333 0.426666-14.472534 22.144c-2.176 3.336533-5.085867 9.6-6.528 12.936534-30.702933-15.1808-71.534933-29.149867-105.5488-12.501334l-16.989866 8.32-7.978667-8.4224 11.6736-19.0464-1.1776-10.7264c-0.571733-5.239467 21.188267 0.6912 51.310933-13.3632 24.055467-11.221333 5.265067-32.4864 46.976-32.9216l24.490667-8.661333z m-6.0672 54.6048c2.909867-1.0752 1.570133-14.3872-1.4848-14.011734l-11.8016 1.4592c-4.548267 0.5632-6.126933 9.326933-5.632 19.5584l18.9184-7.0144z" fill="#D0944D" /><path d="M48.604629 605.073067c-21.8112 28.987733-36.087467 56.686933-26.504533 97.425066 4.096 17.390933 16.0512 30.3104 27.323733 44.0576 28.3648 34.577067 6.528 62.225067 77.704534 85.6576 43.264 14.242133 66.850133 29.730133 106.24-0.8704l0.324266 13.0816 23.133867-9.787733c21.930667-9.275733 6.545067-19.771733 30.4896-15.505067-32.887467 26.6752-78.395733 59.349333-123.758933 43.562667l-49.911467-17.373867c-19.575467-6.8096-43.4944-18.517333-53.256533-37.8112l-25.770667-50.935466-20.462933-29.073067c-28.8512-40.9856-10.385067-100.096 26.4704-130.858667l7.978666 8.4224z" fill="#B48040" /><path d="M330.085163 345.3696c-2.500267 5.282133-10.743467 9.156267-17.6384 11.630933-5.691733-8.968533-13.124267-19.9424-21.230934-28.2112l-29.243733-29.841066c-33.6384 27.008-94.72 47.872-119.620267 71.68l-23.2192 22.1952c-16.366933-18.389333-3.4816-104.465067 1.698134-126.097067 5.435733-22.664533 15.4112-41.386667 31.598933-57.489067 6.442667-6.408533 25.463467-10.8288 32.955733-5.768533 10.5984 7.159467 15.0528 20.215467 17.501867 33.408l6.1696 5.998933c12.706133-12.040533 22.587733-21.0432 35.9168-24.251733 20.770133-4.992 39.432533 8.567467 39.8848 29.7728 0.213333 10.2656-4.386133 23.645867-8.635733 33.467733l37.376 37.8368c6.391467 6.468267 12.706133 18.2272 16.4864 25.6768z" fill="#82C933" /><path d="M400.988629 306.875733c-1.339733 9.105067-9.4976 11.5456-17.297066 15.744l0.187733-3.1232c-0.9728-3.908267-3.029333-10.811733-3.985067-13.201066-4.352-43.758933-22.954667-118.656-43.776-157.7728-64.145067 13.568-84.078933-12.398933-132.002133-16.375467l-44.450133-3.694933c27.3152-39.3728 73.028267-71.9104 113.262933-84.667734 9.540267-3.0208 48.1792-5.256533 51.976533 6.3488 1.399467 4.283733 0.759467 15.752533-0.512 20.232534l-2.1248 7.5264c-1.399467 4.9664 26.018133-3.345067 42.973867 11.246933 14.6688 12.629333 11.2896 28.151467 0.896 40.174933l-11.221333 12.9792c23.1424 42.666667 42.2656 120.832 46.0544 164.599467z" fill="#82C933" /><path d="M438.543829 272.861867l-3.822933 9.864533c-1.501867 3.874133-7.125333 9.821867-12.765867 13.917867l-5.12-10.845867c0.597333-38.408533 9.642667-73.984 21.060267-111.8976-12.279467-7.7568-27.221333-23.825067-20.881067-39.381333 6.920533-16.9984 26.939733-21.9392 43.613867-11.204267l7.338667-8.251733c0.7424-11.170133 6.724267-20.8384 13.5936-23.773867 25.617067-10.948267 51.797333 25.6512 63.445333 47.0528 6.314667 11.5968 25.0112 64.503467 16.477867 63.906133-13.9264-0.9728-33.954133-8.2944-63.470934-13.474133l-43.118933-7.569067c-7.748267 31.5136-13.9264 61.730133-16.349867 91.648z" fill="#82C932" /><path d="M383.879296 319.488l-3.959467-2.756267c0.034133-6.442667 0.136533-8.721067-0.034133-10.4448 0.964267 2.389333 3.012267 9.2928 3.985067 13.201067z" fill="#E5AE68" /><path d="M884.333696 235.52l-12.219733-1.826133-16.9472 44.416c-5.4784 14.3616-18.577067 44.7488-33.109334 45.0304l-13.056 0.256c-11.460267 0.221867 2.491733 14.4128-12.1088 21.777066-11.392 5.751467-27.613867 15.018667-38.306133 19.242667l-64.580267 25.540267c-6.980267 2.756267-16.622933 13.678933-21.981866 19.3792-45.602133 48.512-59.400533 63.530667-117.905067 93.824-48.3072 25.0112-56.5504 35.541333-114.1248 47.377066l-2.193067 12.1344c-9.019733-41.5488-26.624-81.979733-62.421333-112.802133-37.2992-32.119467-74.769067-48.9984-124.791467-39.406933-7.569067 1.450667-19.549867 9.0112-26.564266 12.919466l-6.434134 3.584-2.986666-6.280533-1.9456-4.206933c3.259733-2.6624 8.311467-11.016533 12.398933-13.184 21.213867-11.281067 43.4176-21.521067 65.749333-31.172267 8.5504-3.694933 16.827733-9.5488 21.649067-15.1296 6.894933-2.474667 15.138133-6.340267 17.6384-11.630933 1.297067 0.674133 10.231467 0.5888 13.090133-0.9472l40.5248-21.802667c7.799467-4.1984 15.957333-6.638933 17.297067-15.744l10.939733 4.974933 3.0976-18.5856c0.418133-2.5344 1.4848-6.698667 1.8176-7.458133l5.12 10.845867c5.640533-4.096 11.264-10.043733 12.765867-13.917867l3.822933-9.864533 1.450667 10.069333c33.834667-9.454933 11.511467-15.505067 38.033067-32.2304 4.744533 3.84 13.6192 11.861333 17.390933 10.7264l72.6272-21.870933 20.736-1.698134 13.218133-11.6992 7.9872-7.048533c28.16-17.902933 57.0624-34.304 88.4736-52.036267 15.428267-8.712533 36.795733-17.1008 54.9632-15.214933 60.765867 6.314667 104.900267 32.597333 130.9184 83.669333z m-164.906667-19.2768l17.3312-13.5168c2.030933-1.5872 2.5344-10.7776-0.0512-11.0592-14.5664-1.6128-19.805867 3.2768-30.609066 18.363733 5.376 4.036267 11.5456 7.611733 13.320533 6.2208zM626.268629 249.480533c-5.077333-2.082133-14.4384 0.896-19.165866 4.9408l14.1056 5.7088c2.730667 1.109333 7.773867-9.540267 5.060266-10.6496z m187.357867 25.7024c2.218667 0.4352 3.652267-8.098133 3.182933-10.632533-1.826133-9.941333-16.5376-14.378667-25.361066-12.091733-1.8688 0.4864-7.594667 5.282133-6.161067 6.075733l7.424 4.138667c27.810133 15.496533-2.389333 7.944533 20.9152 12.501333z m-125.0048 39.0912c3.524267-6.0672-0.0512-24.5248-6.741333-28.578133-5.768533-3.498667-20.334933-3.3536-26.171734-1.339733-2.414933 0.827733-6.6304 8.797867-4.215466 9.5232l9.5744 2.884266 12.672 3.729067c1.860267 0.546133 0.520533 8.046933 0.554666 11.016533 0.034133 2.7648 2.816 10.4448 5.137067 9.207467 1.544533-0.8192 8.302933-4.923733 9.181867-6.442667z m-141.021867-0.4864c2.773333-0.221867 10.692267-7.057067 8.6784-8.8064-1.518933-1.314133-7.074133-6.178133-9.070933-5.973333l-39.611733 4.0448c-2.304 0.238933-7.9616 8.635733-5.8112 9.514667 1.425067 0.580267 7.483733 4.3264 9.0368 4.1984l36.778666-2.986667z m-160.9216 82.363734l42.359467-16.6144c-8.123733-6.0928-13.550933-7.338667-18.619733-5.6832l-32.674134 10.683733c-2.4576 0.802133-6.869333 7.7056-4.744533 8.6272 2.0992 0.913067 11.613867 3.7888 13.678933 2.978133z m141.7472-17.1008l-36.155733 9.565866c-0.4864 5.870933-2.0224 9.378133 0.162133 9.813334 9.856 1.937067 32.981333-0.708267 35.985067-19.3792z m106.231467 26.948266c5.691733 2.5344 15.018667 3.857067 19.037867 0.503467 3.498667-2.9184 3.268267-17.143467-1.152-17.348267l-28.928-1.348266c-2.7136-0.128-10.999467 8.055467-8.5504 9.216l8.4224 3.985066 11.178666 4.983467z m-129.365333 77.1072c2.961067 0.802133 7.773867 0.2048 10.4448-0.631466 2.679467-0.836267 1.604267-11.844267-0.878934-13.166934-19.029333-10.120533-41.8816 5.077333-33.527466 7.3216l7.850666 2.0992 16.1024 4.3776z" fill="#E5AE68" /><path d="M884.333696 235.52c6.3232 12.416 15.5136 25.3184 18.030933 40.994133 7.773867 48.349867 6.280533 68.906667-25.378133 108.2368l10.6496 5.358934 6.903467 8.516266c-8.448 23.68-31.957333 44.5952-53.290667 58.359467l-30.5152 19.6864-35.165867 21.0432-43.298133 25.847467c-12.962133 7.739733-25.856 16.5632-37.051733 26.350933l-31.6672 27.6992c-88.6528 77.550933-68.0192 22.229333-182.212267 111.351467l-24.379733 19.0208c-1.749333 1.365333-5.188267 4.7872-5.956267 5.7344l-3.515733-0.418134-3.780267-4.1472-34.363733 0.341334c-5.213867 0.0512-12.322133 0.512-18.816 1.117866l-21.768534 2.048-14.455466 1.6128 6.365866-14.122666-10.0864-6.766934c14.72 1.518933 29.346133-0.187733 42.3936-7.543466-0.64 0.682667 11.016533 4.932267 13.550934 3.6608l29.824-14.976c19.857067-9.966933 38.306133-21.393067 58.350933-29.5936 41.429333-16.9472 76.0064-38.357333 107.5968-70.101334 37.947733-38.126933 86.801067-60.305067 134.647467-84.130133 51.5072-25.6512 93.858133-60.1856 130.013866-103.6544-6.980267 1.604267-19.4304 4.6848-23.8336 8.430933l-34.542933 29.371734c-29.056 24.704-62.062933 41.0624-95.342933 58.990933l-52.770134 28.424533c-44.859733 24.1664-74.496 64.315733-116.036266 87.748267l-65.578667 36.992-27.050667 14.353067-24.644266 11.613866c0.110933-1.646933 0.0256-6.493867-0.452267-8.5248l-1.664-6.980266c18.722133-30.600533 14.404267-52.957867 12.7232-84.804267l2.193067-12.1344c57.5744-11.835733 65.8176-22.365867 114.1248-47.377067 58.504533-30.293333 72.311467-45.312 117.905066-93.824 5.358933-5.700267 15.0016-16.622933 21.981867-19.3792l64.580267-25.540266c10.692267-4.232533 26.914133-13.4912 38.306133-19.242667 14.592-7.364267 0.648533-21.5552 12.1088-21.777067l-0.6656 16.631467c-0.110933 2.7392 7.381333 9.156267 9.5488 7.594667 1.621333-1.169067 5.8368-5.230933 5.674667-7.125334l-1.501867-17.3568c14.532267-0.2816 27.630933-30.677333 33.109333-45.0304l16.9472-44.416 12.219734 1.826134zM779.757696 404.599467c-6.510933-4.497067-16.5376-7.415467-21.077333-6.229334l-12.509867 3.268267c-1.604267 0.418133-0.085333 8.866133 1.467733 9.480533 6.9376 2.7392 21.5296 1.4848 32.128-6.510933z m-170.538667 80.9728l-14.020266 21.0432 10.376533 6.903466 14.020267-21.0432-10.376534-6.903466zM508.995029 583.389867c11.451733-28.970667-3.217067-27.3664-1.783466-28.936534-1.450667 1.578667-4.881067 5.930667-5.623467 7.842134l-5.6576 14.660266c-0.896 2.321067-0.674133 7.611733-0.571733 10.077867 0.1024 2.474667 12.714667-1.322667 13.636266-3.643733z" fill="#D5974E" /><path d="M217.590229 426.965333c-8.098133 18.3552-21.1712 38.033067-20.701866 60.117334 1.092267 51.328 18.7136 87.278933 47.889066 126.532266 5.077333 6.8352 11.332267 15.36 16.9472 21.060267 31.607467 32.0512 105.770667 61.4656 141.7984 35.1744 7.168-5.230933 17.6384-15.982933 21.538134-22.365867l1.664 6.980267c0.4864 2.030933 0.571733 6.869333 0.452266 8.5248l-14.293333 8.6272c-7.125333 4.3008-14.336 9.668267-19.9168 14.242133-13.047467 7.355733-27.6736 9.0624-42.3936 7.543467-27.153067-2.798933-75.136-21.8368-95.368533-43.716267-22.2464-24.055467-41.0624-48.674133-55.816534-75.912533-17.749333-32.750933-6.519467-61.422933-25.4976-61.824 19.0976-6.749867-7.688533-57.514667 38.749867-95.4624l1.9456 4.206933 2.986667 6.280534z" fill="#DAA664" /><path d="M609.987029 219.101867l-7.9872 7.048533-13.218133 11.6992-20.736 1.698133c3.7888-2.705067 10.589867-7.1168 15.496533-9.198933l26.4448-11.246933z" fill="#E1BB8B" /><path d="M437.792896 562.670933c1.681067 31.8464 5.998933 54.203733-12.7232 84.804267-3.908267 6.382933-14.370133 17.134933-21.538133 22.365867-36.027733 26.282667-110.199467-3.1232-141.7984-35.1744-5.623467-5.700267-11.869867-14.225067-16.9472-21.060267-29.175467-39.253333-46.7968-75.204267-47.889067-126.532267-0.469333-22.084267 12.603733-41.770667 20.701867-60.117333l6.434133-3.584c7.0144-3.908267 18.9952-11.4688 26.564267-12.919467 50.0224-9.591467 87.492267 7.287467 124.791466 39.406934 35.797333 30.8224 53.410133 71.253333 62.421334 112.802133z" fill="#FDF0D7" /><path d="M688.621696 314.274133c-0.878933 1.518933-7.637333 5.623467-9.181867 6.442667-2.3296 1.237333-5.111467-6.4512-5.137066-9.207467-0.034133-2.978133 1.3056-10.4704-0.554667-11.016533l-12.672-3.729067-9.5744-2.884266c-2.414933-0.725333 1.800533-8.686933 4.215467-9.5232 5.8368-2.005333 20.4032-2.158933 26.171733 1.339733 6.690133 4.061867 10.2656 22.510933 6.741333 28.578133z" fill="#B8772F" /><path d="M547.599829 313.787733l-36.778666 2.986667c-1.553067 0.128-7.611733-3.618133-9.0368-4.1984-2.141867-0.878933 3.5072-9.284267 5.8112-9.514667l39.611733-4.0448c1.9968-0.2048 7.552 4.6592 9.070933 5.973334 2.013867 1.7408-5.905067 8.576-8.6784 8.8064z" fill="#BB7B35" /><path d="M634.656896 405.998933l-11.178667-4.983466-8.4224-3.985067c-2.440533-1.160533 5.845333-9.344 8.5504-9.216l28.928 1.348267c4.4288 0.2048 4.6592 14.429867 1.152 17.348266-4.0192 3.3536-13.346133 2.030933-19.037866-0.503466z" fill="#BD8038" /><path d="M386.678229 396.151467c-2.065067 0.810667-11.579733-2.0736-13.678933-2.978134-2.1248-0.9216 2.2784-7.825067 4.744533-8.6272l32.674134-10.683733c5.077333-1.655467 10.496-0.4096 18.619733 5.6832l-42.359467 16.6144z" fill="#B87631" /><path d="M719.427029 216.2432c-1.783467 1.390933-7.953067-2.184533-13.320533-6.2208 10.8032-15.086933 16.034133-19.976533 30.609067-18.363733 2.577067 0.2816 2.082133 9.480533 0.0512 11.0592l-17.3312 13.5168z" fill="#B97A34" /><path d="M505.291563 483.106133l-16.1024-4.3776-7.850667-2.0992c-8.354133-2.235733 14.498133-17.442133 33.527467-7.3216 2.4832 1.322667 3.5584 12.330667 0.878933 13.166934-2.679467 0.836267-7.483733 1.4336-10.4448 0.631466z" fill="#B4762E" /><path d="M813.626496 275.182933c-23.304533-4.5568 6.903467 3.003733-20.9152-12.501333l-7.424-4.138667c-1.4336-0.802133 4.292267-5.589333 6.161067-6.075733 8.832-2.286933 23.534933 2.1504 25.361066 12.091733 0.4608 2.525867-0.9728 11.0592-3.182933 10.632534z" fill="#B97C37" /><path d="M528.425429 379.050667c-3.003733 18.679467-26.1376 21.316267-35.985066 19.3792-2.184533-0.426667-0.657067-3.933867-0.162134-9.813334l36.155734-9.565866z" fill="#B87C35" /><path d="M822.048896 323.1488l1.501867 17.3568c0.162133 1.8944-4.0448 5.956267-5.674667 7.125333-2.167467 1.5616-9.659733-4.855467-9.5488-7.594666l0.6656-16.631467 13.056-0.256z" fill="#B2722B" /><path d="M626.268629 249.480533c2.722133 1.117867-2.3296 11.758933-5.060266 10.6496l-14.1056-5.7088c4.727467-4.0448 14.088533-7.031467 19.165866-4.9408z" fill="#BD803B" /><path d="M392.975829 685.8496c5.5808-4.573867 12.791467-9.941333 19.9168-14.242133l14.293334-8.6272 24.644266-11.613867 27.050667-14.353067 65.578667-36.992c41.540267-23.432533 71.168-63.581867 116.036266-87.748266l52.770134-28.424534c33.28-17.928533 66.2784-34.2784 95.342933-58.990933l34.542933-29.371733c4.4032-3.746133 16.853333-6.826667 23.8336-8.430934-36.155733 43.4688-78.506667 78.0032-130.013866 103.6544-47.8464 23.825067-96.699733 45.994667-134.647467 84.130134-31.598933 31.752533-66.167467 53.162667-107.5968 70.101333-20.0448 8.200533-38.493867 19.626667-58.350933 29.5936l-29.824 14.976c-2.542933 1.271467-14.190933-2.9696-13.550934-3.6608z" fill="#B17129" /><path d="M508.995029 583.389867c-0.913067 2.312533-13.533867 6.109867-13.636266 3.643733-0.1024-2.466133-0.3328-7.7568 0.571733-10.077867l5.6576-14.660266c0.7424-1.92 4.1728-6.263467 5.623467-7.842134-1.4336 1.570133 13.2352-0.034133 1.783466 28.936534z" fill="#B06E27" /><path d="M779.757696 404.599467c-10.5984 7.995733-25.1904 9.250133-32.128 6.510933-1.553067-0.6144-3.063467-9.053867-1.467733-9.480533l12.509866-3.268267c4.539733-1.186133 14.5664 1.7408 21.077334 6.229333z" fill="#A96A25" /><path d="M595.210709 506.629973l14.01088-21.047466 10.371414 6.903466-14.01088 21.047467z" fill="#AD6D28" /><path d="M988.457429 449.783467l-5.828266 10.845866-10.5216 19.541334-16.9984 47.6416c-5.435733 15.232-63.479467 91.4944-86.306134 64.443733l-2.261333 21.367467c-24.302933 22.647467-95.095467 53.384533-113.1776 71.3728-2.141867 2.133333-1.749333 9.301333 0.6144 11.1872-0.904533 5.486933-4.292267 12.2112-8.3712 17.032533l-21.521067 25.412267c-23.048533 27.221333-53.4272 50.935467-86.126933 62.395733l-6.1696-2.7904-4.7104-7.236267c-1.629867-2.5088-10.845867-1.245867-10.871467 1.527467l-0.162133 18.440533-35.899733 9.3696c-3.490133 0.913067-8.721067 9.130667-7.850667 11.136-3.9936-15.402667-17.015467-33.928533-26.4192-47.479466l-14.651733-21.12c-20.8384-30.0288-47.232-39.048533-80.213334-49.152 0.768-0.9472 4.206933-4.369067 5.956267-5.7344l24.379733-19.0208c114.193067-89.122133 93.568-33.800533 182.212267-111.351467l31.6672-27.6992c11.1872-9.787733 24.0896-18.6112 37.051733-26.350933l43.298134-25.847467 35.165866-21.0432 30.5152-19.6864c21.333333-13.764267 44.842667-34.688 53.290667-58.359467l-6.903467-8.516266c22.971733 1.826133 45.073067 9.250133 65.092267 23.790933l24.644267 17.902933c4.445867 3.2256 9.9328 13.303467 11.0848 17.979734z m-168.3712 68.906666l11.392-10.837333-14.907733-16.256c-1.160533-1.262933-6.792533-1.902933-8.5504-2.013867-1.143467-0.0768-3.293867 5.691733-2.7648 6.5024l14.830933 22.6048z m94.865067 19.8144c13.841067-7.253333 17.143467-19.84 14.429867-27.2128-1.8432-5.0176-7.645867-9.3184-16.827734-13.687466l1.032534 19.7888 1.3568 21.12z m-94.532267 57.079467c1.6896-3.831467-7.586133-14.728533-12.202666-13.986133-45.4656 7.381333-34.909867 25.2416-33.595734 24.789333l9.344-3.234133c24.942933-8.644267 23.978667 20.7616 36.462934-7.569067z m-141.866666 11.229867c9.181867-0.341333 21.0944-9.173333 17.604266-20.155734l-19.592533 8.354134c-1.672533 0.7168-5.188267 6.126933-6.254933 7.492266s6.152533 4.386133 8.234666 4.309334z m-114.176 63.223466c2.218667-0.605867 9.1392-2.730667 7.944533-4.283733-13.559467-17.6384-31.6672-7.304533-50.3296 7.697067 2.7904 2.747733 6.698667 6.6048 6.4768 6.3744l35.908267-9.787734z m76.2368 57.463467c1.962667-5.026133 3.293867-16.6912 2.7648-20.932267-0.512-4.0704-14.634667-6.715733-17.501867-3.780266l-10.581333 10.8288 14.933333 6.6304 0.059733 10.333866c0.008533 1.501867 9.745067-1.578667 10.325334-3.072z" fill="#E6AE68" /><path d="M564.982229 956.9024c-1.314133-0.119467-7.7056-1.5104-7.2704-3.413333l2.926934-12.8256c15.138133-33.006933 21.7344-70.340267 11.656533-109.184-0.8704-2.005333 4.360533-10.231467 7.850667-11.136l35.899733-9.3696c1.732267 1.595733 10.8288 3.7632 11.784533 0.5376l3.959467-13.269334 6.1696 2.7904c32.699733-11.460267 63.0784-35.1744 86.126933-62.395733l21.521067-25.412267c4.078933-4.821333 7.466667-11.5456 8.3712-17.032533 1.553067 1.237333 5.623467 3.8656 6.647467 5.5296l4.872533 7.9616c1.467733 2.4064 7.560533-5.777067 7.287467-8.5504-0.384-3.882667-3.0208-14.088533-6.4-14.506667l-13.021867-1.621333c18.082133-17.988267 88.866133-48.725333 113.1776-71.3728l2.261333-21.367467c22.826667 27.050667 80.8704-49.211733 86.306134-64.443733l16.9984-47.6416 10.5216-19.541333 5.828266-10.845867c2.141867 1.8944 9.890133 9.7536 11.4176 14.199467l20.309334 59.1872c9.403733 27.409067 0.571733 54.1952-16.375467 75.895466-11.9808 15.342933-25.088 32.0512-40.183467 43.562667l-39.560533 30.1824 20.599467 7.953067c-6.1184 3.771733-14.242133 8.226133-18.5088 8.610133l-20.266667 1.809067c-36.590933 18.2528-64.375467 43.272533-95.2064 71.082666-11.477333 10.350933-7.748267 33.792-19.566933 48.4096l-11.144534-13.713066c-33.7152 20.411733-15.0528 42.3936-29.627733 48.5888-3.259733 1.390933-9.514667-2.568533-15.650133-6.280534l-49.937067 28.5696c-30.267733 17.314133-50.816 34.909867-75.7504 57.198934-13.824 12.356267-30.472533 21.691733-44.014933 31.863466z m354.235734-333.277867c8.2432-0.554667 13.5424-11.204267 9.4976-19.7376l-21.9904 6.792534c-2.551467 0.785067-4.650667 12.219733-1.988267 12.7744 2.653867 0.554667 6.562133 0.699733 14.481067 0.170666zM732.704896 763.170133c-4.420267-0.674133-9.582933-1.4592-6.161067-0.9216l-12.9792 23.543467c-1.271467 2.312533-1.1776 8.635733-0.7424 11.306667 0.4352 2.7392 24.789333-7.3472 19.8912-33.928534z" fill="#D5974D" /><path d="M409.351296 709.504v4.1984c-36.9408 0.375467-78.941867 26.7264-86.203733 70.152533-3.746133 22.408533-3.959467 48.8448 4.1472 70.647467 15.957333 42.922667 58.453333 90.2912 106.069333 99.84l51.6352 10.359467c28.142933 5.649067 53.597867-5.9648 75.639467-24.0384l-2.926934 12.8256c-0.4352 1.902933 5.956267 3.3024 7.2704 3.413333-21.7856 16.375467-44.740267 29.021867-76.5696 24.994133-32.682667-4.130133-79.342933-12.2368-105.941333-31.880533-42.6752-31.5136-78.711467-84.616533-78.293333-136.1152 0.3328-41.4976 16.674133-75.127467 50.1248-99.626667l14.455466-1.6128 21.768534-2.048c6.485333-0.605867 13.602133-1.066667 18.816-1.117866z" fill="#D8A96A" /><path d="M409.351296 713.7024l38.144-0.384 3.515733 0.418133c32.981333 10.103467 59.383467 19.131733 80.213334 49.152l14.651733 21.12c9.403733 13.550933 22.417067 32.0768 26.4192 47.479467 10.077867 38.8352 3.4816 76.177067-11.656533 109.184-22.0416 18.0736-47.496533 29.678933-75.639467 24.0384l-51.6352-10.359467c-47.616-9.557333-90.112-56.917333-106.069333-99.84-8.106667-21.802667-7.893333-48.238933-4.1472-70.647466 7.261867-43.426133 49.2544-69.777067 86.203733-70.152534z" fill="#FDF0D7" /><path d="M820.419029 595.584c-12.484267 28.322133-11.52-1.083733-36.462933 7.569067l-9.344 3.234133c-1.314133 0.452267-11.861333-17.399467 33.595733-24.789333 4.616533-0.750933 13.892267 10.146133 12.202667 13.986133z" fill="#B77934" /><path d="M564.376363 670.037333l-35.908267 9.787734c0.221867 0.2304-3.6864-3.6352-6.4768-6.3744 18.670933-14.993067 36.770133-25.335467 50.3296-7.697067 1.186133 1.544533-5.725867 3.677867-7.944533 4.283733z" fill="#B5762F" /><path d="M914.951296 538.504533l-1.3568-21.12-1.032533-19.7888c9.173333 4.369067 14.984533 8.669867 16.827733 13.687467 2.7136 7.3728-0.5888 19.959467-14.429867 27.2128z" fill="#BA7C38" /><path d="M640.613163 727.5008c-0.580267 1.4848-10.3168 4.573867-10.325334 3.072l-0.059733-10.333867-14.933333-6.6304 10.581333-10.8288c2.8672-2.935467 16.989867-0.290133 17.501867 3.780267 0.529067 4.2496-0.7936 15.906133-2.7648 20.932267z" fill="#B37330" /><path d="M820.086229 518.690133l-14.830933-22.6048c-0.529067-0.810667 1.6128-6.5792 2.7648-6.5024 1.757867 0.119467 7.389867 0.750933 8.5504 2.013867l14.907733 16.256-11.392 10.837333z" fill="#BA7E3A" /><path d="M678.552363 606.813867c-2.082133 0.0768-9.309867-2.926933-8.234667-4.309334s4.5824-6.784 6.254933-7.492266l19.592534-8.354134c3.4816 10.9824-8.4224 19.8144-17.604267 20.155734z" fill="#BC833D" /><path d="M631.789696 798.242133l-3.959467 13.269334c-0.964267 3.2256-10.052267 1.058133-11.784533-0.5376l0.162133-18.440534c0.0256-2.773333 9.2416-4.036267 10.871467-1.527466l4.7104 7.236266z" fill="#B67935" /><path d="M753.978496 696.192c-2.363733-1.885867-2.756267-9.053867-0.6144-11.1872l13.021867 1.621333c3.3792 0.418133 6.016 10.624 6.4 14.506667 0.273067 2.773333-5.8112 10.9568-7.287467 8.5504l-4.872533-7.9616c-1.024-1.672533-5.0944-4.292267-6.647467-5.5296z" fill="#B7782D" /><path d="M447.495296 713.309867l-38.144 0.392533v-4.1984l34.363733-0.341333 3.780267 4.1472z" fill="#E6AE68" /><path d="M919.217963 623.624533c-7.918933 0.5376-11.818667 0.384-14.481067-0.170666-2.653867-0.554667-0.5632-11.989333 1.988267-12.7744l21.9904-6.792534c4.036267 8.533333-1.262933 19.1744-9.4976 19.7376z" fill="#B8772D" /><path d="M732.704896 763.170133c4.898133 26.581333-19.447467 36.667733-19.8912 33.928534-0.426667-2.670933-0.529067-9.002667 0.7424-11.306667l12.9792-23.543467c-3.421867-0.5376 1.7408 0.238933 6.161067 0.9216z" fill="#B47328" /><path d="M171.151829 609.262933c49.5104 36.693333 36.2752 43.997867 68.138667 85.026134 12.433067 16.008533 21.8368 35.899733 18.5088 57.173333-5.367467 34.321067-6.519467 54.638933-24.4224 79.889067-39.389867 30.592-62.976 15.112533-106.24 0.8704-71.176533-23.432533-49.339733-51.089067-77.704533-85.6576-11.281067-13.7472-23.236267-26.666667-27.323734-44.0576-9.591467-40.738133 4.6848-68.437333 26.504534-97.425067l16.989866-8.32c34.013867-16.648533 74.845867-2.679467 105.5488 12.501333z" fill="#FCEED1" /><path d="M167.840896 566.545067l-18.9184 7.0144c-0.494933-10.24 1.083733-18.9952 5.632-19.5584l11.8016-1.4592c3.054933-0.375467 4.394667 12.936533 1.4848 14.011733z" fill="#B97731" /></svg>