<?xml version="1.0" standalone="no"?><!DOCTYPE svg PUBLIC "-//W3C//DTD SVG 1.1//EN" "http://www.w3.org/Graphics/SVG/1.1/DTD/svg11.dtd"><svg class="icon" width="256px" height="256.00px" viewBox="0 0 1024 1024" version="1.1" xmlns="http://www.w3.org/2000/svg"><path d="M667.728988 134.71798c2.542917 2.329585 5.759963 4.172773 8.294346 6.468224 62.770791 56.652431 86.646903 125.251451 96.758836 207.836514 14.992969 122.392803-4.889568 263.319886-57.591091 375.651955-41.932527 89.369018-121.607742 189.430234-218.998042 220.184167-38.297351 12.091655-71.474735 12.526852-111.188609 5.640497-11.477259-1.988254-21.939057-7.466618-33.672315-8.234613l0.52053 5.913561 1.382391 1.032527c3.635176 0.0256 9.932735 2.918381 11.758857 6.041561 0.716795 1.228792-0.776528 2.321052 1.689589 5.887961-2.542917-0.503463-5.666096-3.07198-7.697016-4.701836-4.019174-3.217046-7.739683-6.852222-11.195661-10.64953-2.00532-2.201586-4.104507-4.693303-5.905028-7.082621l5.307699 1.186126 0.597329-2.355185c-4.991968-0.810661-7.637284-6.886355-10.606864-10.060734-16.665492-17.817484-33.552848-35.609368-48.972481-54.92871C177.509245 733.830881 117.469102 523.152785 142.335074 347.793926c7.714083-54.399646 27.955018-117.708034 64.92971-159.384562 4.881035-5.495431 10.811663-10.666597 16.213228-15.684165l1.518924-4.949301c18.45748-11.596725 38.928813-21.97319 60.210808-27.15289 1.075193-0.264532 2.739182 0.273065 4.06184-0.0256 74.956312-16.878823 149.084896-1.689589 211.958087 41.96666 3.729042 2.594116 5.708763 6.852222 11.27246 6.527958 3.925308-0.230399 9.437805-5.768496 13.132715-8.140747 48.306886-31.044065 84.214919-43.272252 142.079075-46.224766z" fill="#E0332F" /><path d="M744.468755 141.8006c13.286314 3.626643 28.415815 10.188734 40.550136 16.708158 83.105592 44.671709 117.042438 126.650909 123.578929 217.615651 15.692698 218.451912-71.363802 432.423852-236.764326 575.55252-36.385897 31.487795-80.733341 64.554247-129.867955 70.843273-23.312915 2.986647-59.331881 1.314125-82.37173-3.771709-27.886752-6.152493-65.185709-32.682454-86.407971-51.720197-2.559983-2.295452-4.095973-2.380785-6.519424-5.879428s-0.972794-4.667703-1.689589-5.887962c-1.826121-3.12318-8.12368-6.024494-11.758857-6.041561l-1.382391-1.032526-0.52053-5.913562c11.733257 0.767995 22.186522 6.246359 33.672314 8.234613 39.713875 6.886355 72.891259 6.459691 111.18861-5.640496 97.398833-30.762466 177.065514-130.815149 218.998041-220.184167 52.710057-112.332069 72.584061-253.259152 57.591092-375.651955-10.111934-82.585063-33.988045-151.184083-96.758837-207.836514-2.534384-2.286918-5.742896-4.13864-8.294346-6.468225 25.14757-1.279992 51.814063 0.281598 76.739767 7.082621z" fill="#C9191D" /><path d="M224.996936 167.775898l-1.518924 4.949301c-5.393032 5.017567-11.332193 10.188734-16.213228 15.684165-36.974693 41.676529-57.215628 104.984917-64.92971 159.384562-24.865971 175.358859 35.174171 386.036954 145.876384 524.753918 15.4111 19.310808 32.298456 37.102692 48.972481 54.92871 2.969581 3.174379 5.614897 9.250073 10.606864 10.060734l-0.597329 2.355185-5.307699-1.186126c1.800522 2.380785 3.899708 4.872502 5.905028 7.082621-2.363718 0.273065-3.310912-1.655456-4.718902-2.952514-155.322722-143.231068-242.498688-347.31294-227.898251-559.620892 6.033027-87.781829 32.861653-167.073046 109.823286-215.439664z" fill="#F25951" /><path d="M435.145968 54.436902c0.127999-0.127999 2.133319 0.179199 3.524244-0.580263 1.971187-1.075193 5.853829-5.427165 8.311412-7.065554 18.645212-12.407386 37.401357-21.043063 54.894576-36.010432 2.372251-2.03092 8.294346-9.540205 10.598331-9.540205l1.809055 0.62293c8.831943 8.106614 17.945483 16.153495 27.852619 22.911851 4.275172 2.918381 8.422345 4.889568 13.405779 7.842082 11.920989 7.074087 24.567307 13.610578 35.498436 22.408387 0.844795 0.682662 2.210119 0.486397 2.312518 0.588797 0.230399 0.238932 1.868788 4.334905 3.003714 5.853828 10.709264 14.335907 12.885249 27.62222 8.516211 45.217839-2.065053 8.319946-6.161027 16.486293-9.156207 24.490507-7.816482 4.898101-17.629752 7.347152-26.316629 10.871396-7.688483 3.114646-18.090549 9.71087-26.171563 10.427666-7.62875 0.682662-15.539099-0.230399-23.048383-1.254392-1.442124-5.67463-0.785062-11.332193-1.228792-17.066556-1.433591-18.355081-3.669309-37.034426-4.753036-55.457772-0.247465-4.241039 0.44373-8.891675 0.093866-13.081515-0.162132-1.894388-0.102399-3.532777-2.397851-4.08744-0.247465 3.694909 0.315731 7.603151 0.0512 11.263927-1.663989 22.800918-3.558377 45.781035-5.930628 68.445421-0.273065 2.60265 0.870394 8.183413-1.151992 9.471938-2.312518 1.467724-10.572731 1.399458-13.610579 1.740789-12.987649 1.433591-9.745003 0.57173-20.650532-4.181306-11.810056-5.145567-23.756645-9.540205-35.447236-14.728438-0.96426-2.662383-4.753036-4.249572-5.708763-6.690089-2.491717-6.382892-5.905028-17.023889-7.031421-23.66278-0.96426-5.640497-0.776528-10.965262-0.264531-16.29856 0.750928-7.842082 0.981327-13.550845 5.358898-20.607866 1.570123-2.52585 5.956228-6.280492 7.065554-8.311413 0.759462-1.390924 0.452264-3.396245 0.580263-3.524243z" fill="#91B74F" /><path d="M305.278013 76.862356l0.785062 1.032527c0.861861 0.44373 2.05652-0.034133 2.756248 0.145066 0.375464 0.102399 0.827728-0.110933 1.177593 0 0.059733 0.017067-0.085333 0.998394 0.750928 0.981327l14.071375 4.846901c1.817588 11.042061 5.333299 23.176382 10.606865 33.074985 0.742395 1.399458 2.338118 3.729042 3.635176 4.625037 3.669309 2.52585 4.778636 0.221865 8.072481 0.093866 15.974296-0.622929 30.515001 2.00532 46.122366 3.575443 2.141853 0.213332 4.334905-0.068266 6.468225 0.0256 0.486397-2.022387-0.776528-2.346651-1.766389-3.54131-3.601043-4.334905-8.72101-8.089547-12.415919-12.373253-7.714083-8.925809-13.695911-18.92681-19.515606-28.893679-2.175986-3.720509-8.012748-10.632464-7.620217-14.81377l2.355184-0.597329c1.237325 3.865575 4.497037 7.987148 7.065554 11.24686 18.474546 23.440914 36.29203 35.242437 60.185209 51.976195 3.07198 2.150386 2.969581 3.413311 7.13382 5.265032 11.690591 5.188233 23.637179 9.582871 35.447236 14.728438 10.905529 4.753036 7.662883 5.614897 20.650532 4.181306 3.037847-0.332798 11.29806-0.264532 13.610578-1.740789 2.022387-1.288525 0.878928-6.869289 1.151993-9.471938 2.372251-22.664386 4.266639-45.653036 5.930628-68.445421 0.264532-3.669309-0.298665-7.577551-0.0512-11.263927 2.295452 0.554663 2.235719 2.201586 2.397851 4.08744 0.349864 4.189839-0.341331 8.840476-0.093866 13.081515 1.083726 18.43188 3.310912 37.102692 4.753036 55.457772 0.452264 5.734363-0.204799 11.391926 1.228792 17.066556 7.500751 1.023993 15.4111 1.937054 23.048383 1.254392 8.081014-0.725329 18.48308-7.313019 26.171563-10.427666 8.686877-3.524244 18.500146-5.964761 26.316629-10.871396 27.852619-17.46762 52.189527-38.007219 72.054998-64.332381 0.699729-0.930127 1.314125-1.715189 1.143459-2.969581l2.355185 0.59733-0.1024 2.252785c-2.926914 4.55677-5.819695 9.156207-8.69541 13.738577-4.471438 7.10822-9.29274 15.214834-14.78817 21.811058-6.749823 8.098081-16.059629 14.489506-22.451054 22.997184 2.52585-0.110933 5.119967 0.213332 7.65435-0.017067 3.797309-0.349864 9.130607-2.116253 12.962049-2.389317 13.363113-0.947194 27.741686 0.930127 41.224265-0.093866 2.423451-0.699729 9.412205-15.445233 10.794596-18.722012 1.356791-3.208512 2.833048-7.014354 3.822909-10.342333 0.554663-1.877321 1.211725-8.217547 1.544523-8.490611 0.375464-0.307198 1.791988 0.119466 2.57705-0.298665 0.674129-0.358398 0.819195-0.930127 0.887461-0.96426 14.31884-7.295953 32.221657-10.163134 47.248759-17.100689 9.966868-4.599437 18.090549-11.306593 27.12729-17.143355 0.119466 25.659566-6.553557 54.416713-21.887857 75.510975-4.403171 6.058627-9.966868 10.811663-14.702838 16.580159-24.925704-6.809556-51.592198-8.362612-76.739767-7.082621-57.864157 2.952514-93.77219 15.180701-142.079075 46.224766-3.694909 2.372251-9.207407 7.910349-13.132715 8.140747-5.563697 0.324265-7.543418-3.933841-11.27246-6.527957-62.881724-43.656249-137.001775-58.845484-211.958087-41.96666-1.322658 0.298665-2.986647-0.238932-4.06184 0.025599-24.840372-23.432381-35.592302-57.30096-35.413103-90.905008 2.039453-0.503463 2.346651 0.810661 3.54131 1.766389 15.095368 12.125788 33.714981 20.155602 51.942062 25.386501z" fill="#577931" /><path d="M593.344405 55.614495c0.57173-2.05652 2.389318-2.679449 3.908241-3.763176 29.576341-21.171062 66.149969-26.58116 97.671898-48.725016 1.006927-0.708262 5.171166-3.771709 5.853828-3.003714 0.409597 6.075694 2.705049 12.458586 3.524244 18.320947 3.003714 21.606259 2.414918 38.638682-0.0256 60.134009-0.204799 1.834655-1.117859 6.280492 2.414918 5.367432-0.0768 0.034133-0.213332 0.605863-0.887461 0.96426-0.785062 0.409597-2.201586-0.008533-2.57705 0.298665-0.332798 0.273065-0.98986 6.61329-1.544523 8.490611-0.981327 3.327978-2.466117 7.13382-3.822909 10.342333-1.382391 3.276779-8.371146 18.022283-10.794596 18.722012-13.482579 1.023993-27.861152-0.844795-41.224265 0.093866-3.831442 0.273065-9.156207 2.039453-12.962049 2.389317-2.534384 0.230399-5.119967-0.093866-7.65435 0.017067 6.391425-8.507678 15.701231-14.899103 22.451054-22.997184 5.495431-6.596224 10.325266-14.694304 14.78817-21.811058 2.875715-4.58237 5.777029-9.181807 8.69541-13.738577l0.1024-2.252785-2.355185-0.59733c0.170666 1.245859-0.44373 2.039453-1.143459 2.969581-19.874004 26.325162-44.202379 46.864762-72.054998 64.332381 2.995181-8.004215 7.091154-16.170561 9.156207-24.490507 4.369038-17.595619 2.193052-30.881932-8.516211-45.217839-1.134926-1.518923-2.764782-5.614897-3.003714-5.853829z" fill="#70A344" /><path d="M435.145968 54.436902c-0.127999 0.127999 0.179199 2.133319-0.580263 3.524244-1.109326 2.03092-5.495431 5.785562-7.065554 8.311413-4.377572 7.057021-4.60797 12.765784-5.358898 20.607865-0.511997 5.333299-0.691196 10.658064 0.264531 16.298561 1.126393 6.63889 4.539704 17.288421 7.031421 23.662779 0.955727 2.440517 4.735969 4.027707 5.708763 6.69009-4.16424-1.843188-4.06184-3.106113-7.13382-5.265032-23.893178-16.733758-41.710662-28.526748-60.185209-51.976195-2.568517-3.251179-5.828229-7.372752-7.065554-11.24686l-2.355184 0.597329c-0.392531 4.181306 5.444231 11.093261 7.620217 14.81377 5.819695 9.958335 11.801523 19.96787 19.515606 28.893679 3.703443 4.283705 8.814876 8.046881 12.415919 12.373253 0.98986 1.194659 2.261319 1.518923 1.766389 3.54131-2.133319-0.093866-4.326372 0.196265-6.468225-0.0256-15.598832-1.570123-30.14807-4.198373-46.122366-3.575443-3.285312 0.127999-4.394638 2.431984-8.072481-0.093866-1.297058-0.895994-2.892781-3.225579-3.635176-4.625037-5.265032-9.907136-8.789276-22.032923-10.606865-33.074985l-14.071375-4.846901c-0.836261 0.017067-0.691196-0.96426-0.750928-0.981327l14.165241 3.54131c0.96426-3.959441-1.04106-7.722616-1.228792-11.161527-0.708262-12.78285 0.665596-26.197163 0-39.065346l4.778635-31.231797c1.322658-0.0512 2.363718-0.187732 3.575444 0.554663 4.753036 2.909848 9.634071 7.876215 14.907636 11.067661 26.598227 16.110828 58.39322 21.47826 85.05118 38.911747 1.58719 1.032527 3.293845 1.766389 3.899708 3.771709zM308.819323 78.048482c-0.699729-0.187732-1.894388 0.290131-2.756248-0.145066l-0.785062-1.032526c0.691196 0.196265 1.937054-0.290131 2.807449 0.127999l0.733861 1.049593z" fill="#72A347" /></svg>