<?xml version="1.0" standalone="no"?><!DOCTYPE svg PUBLIC "-//W3C//DTD SVG 1.1//EN" "http://www.w3.org/Graphics/SVG/1.1/DTD/svg11.dtd"><svg class="icon" width="256px" height="256.00px" viewBox="0 0 1024 1024" version="1.1" xmlns="http://www.w3.org/2000/svg"><path d="M680.226133 109.576533c1.911467-0.426667 10.683733 6.536533 17.4336 6.784 39.901867 1.501867 73.745067-5.521067 110.6176 14.993067 3.2256 1.792 29.44 20.164267 30.779734 21.486933 4.471467 4.445867 23.1168 39.1424 26.0864 47.086934 9.454933 25.275733 6.741333 79.598933 24.149333 90.8288-26.9824-2.0224-23.483733 35.771733-21.051733 52.411733 2.3808 16.256 25.403733 35.6352 34.039466 49.578667 22.2208 35.882667 22.186667 85.981867-2.7136 120.823466-12.0064 16.7936-61.474133 54.698667-65.2032 67.182934-5.8624 19.601067 7.594667 32.5632 6.408534 47.650133-0.554667 7.0656-6.263467 13.832533-7.125334 21.358933-2.474667 21.444267 1.322667 43.426133-13.627733 63.0016-23.936 10.6496-40.029867 39.7312-62.856533 48.64-32.136533 12.544-57.489067 6.1696-87.355734 10.197334-39.424 5.3248-49.578667 71.415467-92.0832 89.122133-41.915733 17.467733-68.283733-6.493867-108.910933 2.56-56.917333 12.672-111.274667 73.6512-162.466133 102.340267l-99.959467 42.897066c-2.286933-0.298667-4.701867 0.341333-6.971733 0-0.9728-10.862933-28.484267-1.518933-20.8896-17.399466 3.618133-7.569067 21.265067-19.114667 27.997866-27.758934 34.628267-44.501333 64.810667-92.629333 100.616534-136.311466 21.794133-20.189867 40.1152-9.736533 62.865066-13.789867 27.076267-4.821333 53.8624-13.44 80.187734-20.974933l0.093866-20.6848-104.516266 6.954666c-7.022933-6.638933 36.215467-68.8128 44.996266-76.928 24.2688-22.442667 63.3088-15.6928 90.743467-20.753066 38.3232-7.074133 95.616-16.861867 131.0208-29.2608 9.898667-3.464533 19.140267-7.4496 25.898667-15.9232 2.798933-15.522133-6.749867-10.1376-17.365334-10.410667-35.831467-0.930133-76.8 6.852267-111.675733 13.781333l-66.048-3.336533 83.438933-111.675733c29.696-1.578667 172.4416-13.1584 181.341867-41.668267-9.2928-36.181333-36.3008-8.832-53.461333-4.6592-30.2336 7.338667-61.8752 9.386667-92.868267 8.157867 7.355733-20.949333 99.8656-116.437333 83.6096-132.3776-32.878933-5.828267-50.7648 28.782933-73.019733 48.913066-12.322133 11.144533-16.810667 17.28-25.787734 26.3936-4.053333 4.113067-30.506667 11.400533-33.578666 8.2944l20.8896-132.386133-27.485867 0.349867c-3.780267 3.950933-20.113067 69.7344-21.128533 79.940266-3.080533 30.916267 5.819733 73.053867-3.293867 101.230934-6.715733 20.7616-57.949867 53.205333-77.1328 69.205333-9.762133 8.149333-17.92 19.601067-27.7504 27.997867l-3.780267-80.4352c12.578133-41.693867 5.649067-85.589333 7.261867-128.622934h-27.861333l-7.1168 135.7568-24.064 122.274134-69.879467 62.4896c-10.9824-7.381333-9.7024-12.8512-10.5984-24.192-1.800533-22.7584-1.339733-51.5328 3.797333-73.4208l-14.071466-13.832534c-22.818133 7.0656-14.481067 123.383467-27.716267 146.517334-51.8656 48.733867-105.122133 92.023467-146.833067 153.088-3.362133 4.923733-9.838933 6.459733-10.1376 6.997333-2.0224-4.778667-4.906667-9.1904-6.971733-13.934933 12.347733-5.9648 6.485333-26.683733 6.971733-38.3232 2.2528-54.084267 17.2288-90.760533 42.820267-138.359467 17.5872-32.7168 53.521067-67.242667 60.356267-106.888533 10.581333-61.380267-41.591467-112.221867 11.630933-169.5488 19.2-20.676267 54.715733-22.280533 63.163733-48.3328 8.0128-24.695467 0.4864-54.5536 3.370667-80.256 3.456-30.813867 22.485333-72.891733 48.708267-90.658134 2.158933-1.4592 30.5408-15.991467 32.2816-16.503466 18.602667-5.469867 47.9232 1.792 68.6592-1.024 31.146667-4.232533 56.192-56.064 83.490133-76.782934 27.716267-21.034667 54.9376-25.3184 89.378133-19.421866 39.441067 6.749867 61.858133 50.039467 102.766934 37.358933 9.668267-2.9952 25.898667-17.442133 27.4944-17.800533z" fill="#A0CC60" /><path d="M46.097067 890.043733c0.298667-0.5376 6.775467-2.0736 10.1376-6.997333 41.710933-61.064533 94.967467-104.354133 146.833066-153.088 13.2352-23.133867 4.898133-139.451733 27.716267-146.517333l14.071467 13.832533c-5.137067 21.888-5.597867 50.670933-3.797334 73.4208 0.896 11.3408-0.384 16.810667 10.5984 24.192l69.879467-62.4896L345.6 510.122667l7.1168-135.7568h27.861333c-1.6128 43.0336 5.316267 86.929067-7.261866 128.622933l3.780266 80.4352c9.8304-8.3968 17.979733-19.857067 27.7504-27.997867 19.182933-16 70.417067-48.443733 77.1328-69.205333 9.1136-28.168533 0.213333-70.314667 3.293867-101.230933 1.015467-10.205867 17.348267-75.989333 21.128533-79.940267l27.485867-0.349867-20.8896 132.386134c3.072 3.106133 29.525333-4.1728 33.578667-8.2944 8.977067-9.1136 13.474133-15.2576 25.787733-26.3936 22.254933-20.130133 40.132267-54.741333 73.019733-48.913067 16.256 15.940267-76.253867 111.428267-83.6096 132.3776 31.0016 1.2288 62.6432-0.8192 92.868267-8.157867 17.160533-4.164267 44.16-31.522133 53.461333 4.6592-8.900267 28.509867-151.645867 40.081067-181.341866 41.668267l-83.438934 111.675733 66.048 3.336534c34.8672-6.929067 75.844267-14.711467 111.675734-13.781334 10.615467 0.273067 20.164267-5.111467 17.365333 10.410667-6.749867 8.4736-16 12.458667-25.898667 15.9232-35.396267 12.398933-92.6976 22.186667-131.0208 29.2608-27.434667 5.060267-66.466133-1.6896-90.743466 20.753067-8.7808 8.123733-52.027733 70.2976-44.996267 76.928l104.516267-6.954667-0.093867 20.6848c-26.325333 7.534933-53.111467 16.1536-80.187733 20.974933-22.749867 4.053333-41.070933-6.408533-62.865067 13.789867-35.805867 43.682133-65.988267 91.810133-100.616533 136.311467-6.7328 8.6528-24.3712 20.189867-27.997867 27.758933-7.594667 15.880533 19.9168 6.536533 20.8896 17.399467-45.1072-6.792533-25.258667 0.750933-55.389867 10.8032-77.678933 25.924267-135.5264-61.073067-97.911466-129.271467z" fill="#C0DC91" /><path d="M889.275733 290.756267c6.186667 3.985067 25.719467 7.714133 37.230934 15.035733 69.435733 44.16 93.098667 92.7232 72.814933 175.146667-4.488533 18.218667-17.024 39.671467-19.336533 57.3184-6.562133 50.065067 14.2848 106.4704 6.843733 160.1536-4.130133 29.7728-42.2656 76.416-67.1488 93.124266-21.597867 14.506667-83.959467 29.4656-91.904 37.051734-13.943467 13.329067-27.861333 59.5712-42.888533 79.018666-15.104 19.5584-36.906667 31.138133-60.6976 36.855467-17.169067 4.1216-58.709333 10.0864-75.648 8.576-76.663467-6.826667-139.5456-39.3984-217.079467-8.635733-98.116267 38.929067-102.647467 80.119467-225.092267 64.1024l99.959467-42.897067c51.191467-28.689067 105.557333-89.659733 162.466133-102.340267 40.6272-9.045333 66.9952 14.907733 108.910934-2.56 42.496-17.7152 52.6592-83.805867 92.0832-89.122133 29.866667-4.036267 55.2192 2.346667 87.355733-10.197333 22.826667-8.9088 38.920533-37.9904 62.856533-48.64 14.9504-19.575467 11.153067-41.557333 13.627734-63.0016 0.8704-7.517867 6.570667-14.293333 7.125333-21.358934 1.186133-15.0784-12.270933-28.049067-6.408533-47.650133 3.729067-12.475733 53.1968-50.3808 65.2032-67.182933 24.900267-34.833067 24.942933-84.932267 2.7136-120.823467-8.635733-13.943467-31.658667-33.322667-34.039467-49.578667-2.432-16.64-5.930667-54.434133 21.051733-52.411733z" fill="#84B848" /><path d="M680.226133 109.576533c-1.595733 0.3584-17.834667 14.805333-27.4944 17.800534-40.9088 12.680533-63.325867-30.609067-102.766933-37.358934-34.440533-5.888-61.661867-1.6128-89.378133 19.421867-27.298133 20.718933-52.343467 72.5504-83.490134 76.782933-20.736 2.816-50.056533-4.445867-68.6592 1.024-1.7408 0.512-30.122667 15.035733-32.2816 16.503467-26.222933 17.7664-45.252267 59.844267-48.708266 90.658133-2.884267 25.7024 4.642133 55.560533-3.370667 80.256-8.456533 26.043733-43.972267 27.656533-63.163733 48.3328-53.2224 57.326933-1.0496 108.16-11.630934 169.5488-6.8352 39.645867-42.769067 74.171733-60.356266 106.888534-25.591467 47.598933-40.567467 84.2752-42.820267 138.359466-0.4864 11.639467 5.384533 32.3584-6.971733 38.3232-12.987733-29.943467-24.490667-68.292267-20.718934-100.8896 8.874667-76.782933 71.671467-142.250667 62.3616-222.976-4.701867-40.797867-29.806933-91.938133-34.5088-132.736-4.292267-37.248-3.003733-92.868267 12.253867-126.762666 16.452267-36.539733 42.402133-40.7296 71.022933-61.397334 50.286933-36.317867 24.832-130.184533 104.994134-173.738666 21.981867-11.946667 68.821333-23.9872 93.661866-25.156267 15.505067-0.725333 24.337067 6.4512 35.106134 7.296 89.9072 7.022933 143.035733-69.853867 235.374933-26.3168 17.143467 8.081067 46.0544 32.068267 56.977067 47.556267 10.752 15.249067 13.141333 35.054933 24.576 48.597333z" fill="#81B446" /></svg>