<?xml version="1.0" standalone="no"?><!DOCTYPE svg PUBLIC "-//W3C//DTD SVG 1.1//EN" "http://www.w3.org/Graphics/SVG/1.1/DTD/svg11.dtd"><svg class="icon" width="256px" height="256.00px" viewBox="0 0 1024 1024" version="1.1" xmlns="http://www.w3.org/2000/svg"><path d="M11.8528 627.703467l8.106667 3.089066c4.471467 5.538133 11.118933 9.258667 17.467733 13.184 7.458133 4.608 14.8992 9.309867 23.560533 9.642667 9.4976 7.424 22.5024 10.018133 34.568534 9.070933 0.170667 0.3328 4.872533 2.798933 6.331733 2.781867l15.086933-0.170667 11.5968-0.298666 22.929067 1.297066 29.713067 2.568534 2.986666-3.6096c7.722667 0.1024 16.6144-1.024 25.8048-1.885867l35.131734-3.293867 29.303466-2.944c12.1088-1.211733 25.693867 0.042667 37.888-0.6912l29.397334-1.7664c8.337067-0.503467 16.546133-0.7936 23.7056-0.8192l66.568533-0.238933c5.230933-0.017067 11.605333-1.024 18.389333-1.493333l25.506134-1.757867c1.749333-0.119467 6.2208-1.877333 6.340266-2.2016l31.530667-5.947733 43.477333 10.0608c6.203733 1.4336 17.877333 1.194667 23.645867 0.8448 1.536-0.093867 4.445867 0.2304 6.1184 0.384-0.426667 0.119467 5.034667 3.362133 6.4 3.328l28.509867-0.7168c11.008-0.273067 19.899733-0.452267 30.2592-0.324267l66.781866 0.861867 67.5072-0.631467 14.592 0.196267 39.9104 0.546133c1.723733 0.0256 7.108267-2.926933 6.7072-3.1232 2.3296-0.119467 6.237867-0.264533 8.311467-0.494933l29.678933-3.413334c1.399467-0.162133 5.469867-2.005333 5.717334-2.3808l2.816 0.145067c2.7136-0.469333 7.5008-1.937067 8.917333-2.875733l26.001067-8.311467c9.9584-3.182933 19.771733-9.053867 28.7232-14.737067 19.4816-12.3648 30.318933-32.622933 26.922666-55.8848 12.177067 2.158933 23.9104 9.489067 32.8192 20.224 15.726933 18.944-0.256 45.371733-17.4592 59.605334-27.298133 22.587733-72.823467 36.0704-108.356266 37.034666l-38.536534 1.041067c-11.0848 0.298667-21.512533 0.315733-32.494933 0.273067l-28.970667-0.1024-40.866133 0.401066-32.0512 0.128-29.294933 0.110934-37.998934-0.136534-61.3632-1.237333-42.0608-1.553067-66.158933-1.006933-20.718933 0.896-201.284267-0.682667-61.533867 2.8416c-65.7152 3.037867-128.8192 13.064533-174.984533-36.369066-5.2992-5.674667-8.4992-13.448533-11.588267-19.490134z" fill="#E8BDA3" /><path d="M370.833067 446.933333l-24.5504 41.1136-31.5904 56.772267c-6.075733 10.914133-15.5136 30.805333-19.541334 41.3696-0.964267 2.5344-3.797333 6.9376-3.054933 9.5488l-35.114667 7.944533c-39.901867 4.181333-42.231467 7.5008-85.128533 6.4 2.184533-11.52 8.106667-19.2256 19.456-27.921066l36.693333-28.100267c13.294933-10.1888 24.209067-22.7328 34.705067-34.4064 7.364267-8.192 16-16.827733 23.005867-26.564267l13.5936-18.884266c9.0368-12.561067 18.030933-24.704 27.997866-36.650667l16.085334-19.285333c6.877867-8.2432 14.7456-16 22.493866-23.415467l5.0432-4.829867 28.919467-10.999466c2.670933-1.015467 8.5248-1.194667 12.091733-1.988267l17.749334-3.968-14.993067 17.297067-17.646933 20.369066c-14.882133 17.186133-15.837867 18.798933-26.231467 36.206934z" fill="#FD8D59" /><path d="M549.137067 343.586133l25.6512 1.4848c-0.750933 0.768-4.155733 3.9936-6.1184 4.957867-25.966933 12.765867-59.605333 31.112533-84.565334 50.952533-19.925333 15.829333-36.701867 39.799467-48.256 59.784534-13.184 22.801067-25.079467 52.753067-21.623466 80.529066l9.5232 0.913067c-1.664 2.372267-7.927467 4.6592-10.990934 3.9424l-13.841066-3.234133c-4.821333-1.1264-11.869867 9.540267-12.637867 14.037333l-3.6864 2.807467-8.567467 4.369066c-14.890667 7.6032-15.394133 2.1504-17.809066 8.192l-28.919467 11.511467-12.1344 5.213867c-0.034133-0.554667-0.008533-1.698133 0.017067-2.269867 3.106133-10.3424 8.618667-21.845333 14.429866-32.324267l12.458667-22.4768 20.590933-38.562133 16.776534-32.452267 10.094933-13.550933c23.6544-31.7696 50.6368-66.9184 84.804267-87.637333l7.645866-4.6336 45.6704-9.8816c6.596267-1.425067 15.547733-2.005333 21.4784-1.664z" fill="#FD8955" /><path d="M844.535467 411.2384c8.669867 3.9168 18.730667 9.856 27.0336 16.0768l25.557333 19.1488-5.2992 4.0448-29.943467-7.176533c-30.728533-7.364267-61.243733-15.232-93.3632-16.401067-12.612267-0.4608-52.1472 2.722133-64.426666 5.1968-29.166933 5.879467-42.658133 11.255467-68.9152 25.147733-7.355733 3.8912-16.580267 15.104-21.393067 20.906667-2.338133 2.816-6.7328 9.344-5.666133 12.9024s6.468267 9.489067 9.437866 11.767467l2.2272 1.706666c-2.986667-0.2816-7.722667-0.5888-11.912533-0.4864l-26.222933 0.648534c-2.3296 0.059733-7.748267 1.706667-8.849067 2.184533-0.238933-0.699733-0.571733-1.698133-0.827733-2.261333-10.555733-23.330133-25.685333-35.003733-11.7248-50.491734 49.297067-54.690133 154.368-60.817067 222.7968-51.345066l20.48 2.833066 41.002666 5.589334z" fill="#FD7644" /><path d="M914.670933 461.2864l22.144 18.056533c2.2528 1.8432 5.9904 6.528 7.389867 8.490667l-1.698133 3.976533c-7.125333-0.034133-16.494933 0.298667-22.3744-1.288533l-46.242134-12.526933c-37.102933-10.052267-75.332267-13.883733-113.757866-10.0864-15.249067 1.5104-29.056 6.6816-41.275734 13.013333-3.345067 1.732267-6.724267 3.6608-8.942933 6.203733l-2.474667 0.196267c-7.2448 3.234133-13.653333 9.7536-18.3808 16.622933l-49.1776 0.256 0.093867 29.312c0 1.493333-2.730667 6.826667-3.012267 6.613334l0.221867-24.849067c0.042667-4.642133-3.208533-10.990933-7.816533-16.017067-0.699733-4.352-1.092267-10.734933-0.930134-15.3088 21.521067-28.936533 58.752-40.814933 95.3856-45.1072 59.136-6.9376 96.128 4.352 153.198934 17.8176 5.845333 1.3824 14.1824 3.080533 19.456 3.421867l18.2272 1.186133z" fill="#FC7442" /><path d="M327.569067 408.763733l1.365333 3.985067-18.261333 22.664533-29.841067 37.0432-14.702933 18.030934c-5.7088 7.005867-11.008 13.482667-15.598934 19.84-24.669867 21.888-37.981867 37.5808-68.488533 57.1392l-19.805867 12.6976c-11.690667 7.492267-28.458667 15.3856-31.018666 26.965333l-0.469334 2.116267-30.6176-7.901867-1.2288 23.543467-2.807466 2.397866-0.392534-14.609066c-0.068267-2.688 1.058133-6.818133 2.218667-11.886934-1.988267-1.186133-7.611733-4.3008-10.3424-5.461333l-3.2512-2.730667-5.512533-4.625066c-7.6032-6.382933 38.638933-27.434667 42.555733-29.2608 44.3392-20.667733 78.8736-38.510933 110.609067-75.707734 6.178133-7.2448 21.8624-35.9424 33.553066-46.122666l45.380267-22.4c4.701867-2.321067 12.782933-3.6096 16.64-5.717334z" fill="#FD9967" /><path d="M979.037867 536.507733c-0.196267-0.5632 1.8944 3.0208 2.0224 3.882667l3.694933 25.335467c3.396267 23.2704-7.441067 43.52-26.922667 55.8848 0.128-3.054933-0.546133-11.076267-2.2528-14.481067l-25.719466-51.319467c-3.259733-6.5024-15.744-15.0784-22.442667-16.981333l-19.080533-5.410133c-6.690133-5.435733-15.138133-7.816533-25.873067-8.866134-3.003733 16.384-5.077333 31.931733-0.128 47.086934l14.4384 44.296533 8.925867 25.890133c0.631467 1.8432 4.7104 5.469867 5.674666 5.5552-0.247467 0.375467-4.317867 2.218667-5.717333 2.3808l-29.678933 3.413334c0.221867-0.759467 1.425067-6.058667 1.1776-8.448l-8.251734-79.957334c-0.9728-9.3952 1.885867-32.1536 4.343467-41.608533 0.4352-1.664-3.345067-6.0416-5.358933-6.4512l-28.032-5.674667c-16.110933 43.0848-18.056533 98.4832-20.445867 142.327467l48.273067 0.298667c0.4096 0.196267-4.974933 3.140267-6.7072 3.1232l-39.9104-0.546134-14.592-0.196266c-0.034133-0.930133-0.093867-2.321067-0.059734-3.114667 0.503467-11.7248 1.877333-34.909867 3.6096-47.138133l6.254934-44.117334c2.389333-16.861867 4.974933-32.068267 8.866133-49.365333 0.324267-1.425067 0.085333-3.9424-0.896-4.7616l-6.749867-5.6576c26.026667 0.725333 52.736 5.6832 78.993067 15.086933 41.540267 14.8736 52.9664 20.343467 100.4288 29.568l2.1248-10.0352z" fill="#FD9267" /><path d="M230.391467 454.9632l5.614933 1.9968-7.697067 10.5472c-15.1296 20.727467-40.200533 36.744533-63.4624 49.723733l-18.986666 10.589867-4.130134 0.324267c-0.938667 0.0768-1.348267 1.518933-1.988266 2.807466l-2.926934 0.128-2.705066 2.6624c-0.8448 0-2.107733 0.068267-2.730667-0.119466l-12.398933-3.712c-35.7376 7.799467-57.437867 16.887467-87.458134 39.236266l-21.162666-19.2c-2.363733-2.141867-2.517333-11.5712-1.8688-13.243733 6.775467-6.6048 16.810667-13.064533 27.1872-16.546133 26.376533-8.849067 51.6864-16.529067 78.464-23.9104 30.088533-8.2944 58.9568-17.015467 87.355733-29.866667 9.9328-4.497067 19.831467-8.3968 28.885333-11.4176z" fill="#FDA876" /><path d="M960.878933 503.9872c9.224533 8.763733 16.9984 18.944 18.158934 32.512l-2.1248 10.0352c-47.4624-9.224533-58.888533-14.685867-100.4288-29.568-26.257067-9.403733-52.9664-14.3616-78.993067-15.086933l6.749867 5.6576-9.565867-1.8944-13.832533-2.747734c-6.613333-1.314133-14.856533-0.418133-21.1456 1.749334l-2.670934-3.140267c-1.0752-1.262933-5.717333 0.494933-6.331733 2.005333-0.750933 1.877333-3.217067 8.0128-2.884267 7.202134 0.273067-1.9712 0-5.154133-0.136533-9.787734l-43.690667 0.853334c1.6896-2.423467 6.314667-5.316267 9.787734-7.697067l10.862933-7.424c31.240533-11.810133 56.507733-13.474133 91.579733-10.197333 24.2688 2.269867 46.7456 8.5248 70.254934 14.6432l49.390933 12.834133c6.724267 1.749333 18.286933 0.298667 25.019733 0.042667z" fill="#FD7040" /><path d="M678.101333 340.386133c-45.687467 0.2048-63.658667-4.0192-102.510933 26.2912 12.4928-0.162133 23.125333-1.339733 35.0208-2.9952l26.001067-3.618133c5.700267-0.7936 11.434667-1.698133 18.4064-2.0224l68.539733-3.157333c2.269867-0.1024 2.5344-4.104533 1.7664-5.213867 3.968-0.802133 30.993067 8.7296 31.650133 11.9552-32.904533 8.5504-56.644267 3.336533-90.3424 6.4256L640 370.491733l-40.430933 5.725867-12.8768 2.2528-26.990934 5.205333c-3.080533 0.597333-10.0096 2.730667-13.312 4.1216L509.44 403.345067c-8.3968 3.5328-32.3072 28.1344-39.7824 36.369066-8.849067 9.745067-16.657067 25.386667-22.7328 29.354667-0.759467-5.0432-5.853867-8.2688-11.076267-8.302933 11.554133-19.985067 28.330667-43.946667 48.256-59.784534 24.96-19.831467 58.5984-38.178133 84.565334-50.952533 1.962667-0.964267 5.358933-4.189867 6.1184-4.957867l-25.6512-1.4848 2.594133-2.679466 53.026133-1.6896 26.461867-0.759467 43.946667-0.938667 2.935466 2.858667z" fill="#FDA074" /><path d="M756.983467 361.617067c11.392 4.8384 23.236267 9.685333 34.944 16.759466l20.087466 12.1344c0.682667 0.170667-4.693333 2.3552-6.289066 2.210134l-31.274667-2.935467c-15.095467-1.416533-29.2352-2.4832-43.904-1.6128l-29.3376 1.723733c-25.3184 1.493333-68.309333 8.891733-91.648 17.681067-17.1008 6.442667-33.288533 13.431467-48.4608 21.0176l-9.070933 2.261333c-6.510933-9.847467 32.768-46.199467 37.4528-48.878933l10.0864-5.768533 40.430933-5.725867 26.632533-2.440533c33.6896-3.089067 57.429333 2.1248 90.3424-6.4256z" fill="#FD7B48" /><path d="M812.023467 390.519467l26.350933 14.805333c1.7408 0.9728 5.691733 5.1712 6.1696 5.9136l-41.002667-5.589333-20.48-2.833067c-68.4288-9.472-173.499733-3.345067-222.7968 51.345067-13.960533 15.488 1.169067 27.1616 11.7248 50.491733l-24.533333 3.293867-15.0784-27.767467c-11.605333-21.358933 21.461333-47.940267 28.740267-51.584 15.172267-7.5776 31.351467-14.574933 48.4608-21.0176 23.338667-8.789333 66.338133-16.196267 91.648-17.681067l29.3376-1.723733c14.6688-0.861867 28.808533 0.2048 43.904 1.6128l31.274666 2.935467c1.595733 0.145067 6.971733-2.039467 6.289067-2.210134z" fill="#FDAC86" /><path d="M131.3792 533.623467l-2.7904 3.217066-43.613867 21.085867-19.7888 10.043733c-3.8656 1.962667-10.922667 10.129067-11.588266 12.091734 6.894933 5.418667 10.3424 8.106667 13.508266 11.767466l-5.0432 35.387734-1.066666 26.410666c-8.661333-0.3328-16.1024-5.034667-23.560534-9.642666 0.529067-21.2736 3.328-41.019733 8.891734-64.0256-3.4816-2.978133-9.0624-6.459733-14.336-9.1136-5.4528 11.5456-8.4736 21.12-9.5488 32.810666l-2.474667 27.136-8.106667-3.089066C0.068267 604.6208-6.016 550.852267 8.4992 536.704c-0.648533 1.672533-0.494933 11.101867 1.8688 13.243733l21.162667 19.2c30.020267-22.3488 51.720533-31.4368 87.458133-39.236266l12.398933 3.712z" fill="#FCBA95" /><path d="M265.5488 436.881067c-11.690667 10.1888-27.374933 38.877867-33.553067 46.122666-31.735467 37.1968-66.2784 55.04-110.609066 75.707734-3.9168 1.826133-50.158933 22.8864-42.555734 29.2608l5.512534 4.625066 3.2512 2.730667-10.965334-4.650667c-2.133333-0.904533-7.978667 0.349867-9.5232 1.143467-3.165867-3.6608-6.613333-6.3488-13.508266-11.767467 0.6656-1.962667 7.722667-10.129067 11.588266-12.091733l19.7888-10.043733 43.613867-21.085867 2.7904-3.217067c0.622933 0.187733 1.885867 0.119467 2.730667 0.119467l2.705066-2.6624 2.926934-0.128 6.1184-3.131733 18.986666-10.589867c23.261867-12.970667 48.3328-28.996267 63.4624-49.723733l7.697067-10.5472-5.614933-1.9968c11.0848-6.596267 23.278933-12.219733 35.157333-18.090667z" fill="#FDC8A7" /><path d="M897.1264 446.464l17.544533 14.8224-18.2272-1.186133c-5.282133-0.341333-13.610667-2.048-19.456-3.421867-57.0624-13.4656-94.0544-24.7552-153.198933-17.8176-36.6336 4.292267-73.856 16.170667-95.3856 45.1072-2.952533 3.968-5.0176 7.876267-8.635733 14.958933l-9.224534-5.8368 3.242667-14.907733c4.8128-5.802667 14.0288-17.006933 21.393067-20.906667 26.257067-13.892267 39.748267-19.268267 68.9152-25.147733 12.279467-2.474667 51.822933-5.6576 64.426666-5.1968 32.110933 1.169067 62.634667 9.045333 93.3632 16.401067l29.943467 7.176533 5.2992-4.0448z" fill="#FCA682" /><path d="M944.2048 487.8336c6.545067 3.5328 11.4944 11.229867 16.674133 16.1536-6.7328 0.256-18.295467 1.706667-25.019733-0.042667l-49.390933-12.834133c-23.509333-6.109867-45.994667-12.373333-70.254934-14.6432-35.072-3.2768-60.347733-1.6128-91.579733 10.197333-8.209067 3.106133-14.429867 6.357333-25.361067 11.639467-0.529067 0.7168 2.107733-2.833067 4.036267-5.435733l4.113067-5.5296 2.474666-0.196267 8.942934-6.203733c12.219733-6.340267 26.026667-11.511467 41.275733-13.013334 38.4256-3.805867 76.663467 0.034133 113.757867 10.0864l46.242133 12.526934c5.879467 1.595733 15.2576 1.262933 22.3744 1.288533l1.698133-3.976533z" fill="#FCA883" /><path d="M370.944 390.016l-5.0432 4.829867c-7.748267 7.415467-15.616 15.1808-22.493867 23.415466l-16.085333 19.285334c-9.966933 11.9552-18.961067 24.098133-27.997867 36.650666l-13.5936 18.884267c-7.005867 9.736533-15.6416 18.372267-23.005866 26.564267 1.0496-0.699733 3.857067-10.0352 1.339733-10.658134-3.541333-0.887467-10.4704 0.238933-13.525333 1.339734 4.590933-6.357333 9.890133-12.834133 15.598933-19.84l14.702933-18.030934 29.841067-37.0432 18.261333-22.664533-1.365333-3.985067 14.532267-7.936 28.842666-10.811733z" fill="#FCBA95" /><path d="M678.101333 340.386133c15.701333-0.068267 32.213333 4.855467 47.223467 9.275734 0.768 1.109333 0.503467 5.111467-1.7664 5.213866l-68.539733 3.157334c-6.980267 0.324267-12.706133 1.2288-18.4064 2.0224l-26.001067 3.618133c-11.904 1.655467-22.528 2.833067-35.0208 2.9952 38.8608-30.3104 56.823467-26.0864 102.510933-26.2912z" fill="#FC834D" /><path d="M481.988267 355.131733l-7.645867 4.6336c-34.167467 20.718933-61.149867 55.867733-84.804267 87.637334l-10.094933 13.550933 4.7872-10.4192-3.3792-10.914133-10.026667 7.304533c10.3936-17.408 11.3408-19.0208 26.231467-36.206933l17.646933-20.369067 14.993067-17.297067-17.749333 3.968c-3.575467 0.802133-9.429333 0.9728-12.091734 1.988267-0.785067 0.213333 4.693333-4.036267 6.0928-4.411733l24.2432-6.434134 51.7888-13.047466z" fill="#FDAA7E" /><path d="M689.041067 503.9616l0.2816 6.186667-2.926934 2.500266 0.068267 9.617067c-6.920533 40.149333-24.686933 76.2624-51.882667 108.398933-4.48 5.290667-6.9632 15.035733-9.472 22.7328l-38.0928 0.128c-1.672533-0.1536-4.5824-0.477867-6.1184-0.384l-11.118933-11.153066-0.341333-4.1984c-0.068267-0.887467-0.9728-0.989867-2.414934-1.544534l-0.110933-2.9184 0.170667-20.1472c37.111467-15.803733 60.765867-34.619733 69.853866-73.028266 0.2816 0.213333 3.0208-5.12 3.012267-6.613334l-0.093867-29.312 49.1776-0.256z" fill="#FD441E" /><path d="M461.5936 589.269333c0.836267 0.0768 2.030933 0.093867 2.6112 0.3328 2.363733 4.616533 10.5728 6.144 14.916267 8.576 24.379733 13.6448 41.762133 11.5712 67.541333 9.710934l-3.84 13.7472c-5.922133 7.108267-13.952 11.895467-23.150933 17.194666l-5.896534 3.396267-31.530666 5.947733-15.342934 0.093867c-17.527467-9.710933-35.720533-20.2496-51.5328-33.237333-9.002667-7.3984-46.3616-46.1312-32.759466-55.2704l3.6864-2.807467c13.6192 0.6912 24.823467-18.440533 36.3776-2.193067 10.8032 15.1808 23.4496 27.067733 38.920533 34.5088z" fill="#FD441C" /><path d="M855.978667 653.175467c-2.0736 0.238933-5.981867 0.384-8.311467 0.494933l-48.273067-0.298667c2.389333-43.844267 4.334933-99.242667 20.445867-142.327466l28.032 5.674666c2.013867 0.4096 5.794133 4.7872 5.358933 6.4512-2.449067 9.454933-5.307733 32.213333-4.343466 41.608534l8.251733 79.957333c0.247467 2.389333-0.955733 7.688533-1.1776 8.448z" fill="#FC4B22" /><path d="M888.337067 533.410133c15.778133 20.642133 30.446933 58.120533 41.088 84.701867 2.602667 6.5024 2.517333 13.1328-0.315734 18.235733l-26.001066 8.311467-8.917334 2.875733-2.816-0.145066c-0.9728-0.085333-5.0432-3.712-5.674666-5.5552l-8.925867-25.890134-14.4384-44.296533c-4.9408-15.163733-2.875733-30.702933 0.128-47.086933 10.734933 1.0496 19.182933 3.4304 25.873067 8.866133z" fill="#FD4D22" /><path d="M432 653.627733l-66.568533 0.238934c-25.719467-10.7264-48.187733-33.937067-50.2528-64.8192l12.1344-5.213867 28.919466-11.511467c7.0912-1.109333 10.3936 16.64 27.076267 35.643734 9.531733 10.8544 20.113067 19.8912 31.8208 27.349333l22.434133 14.301867-5.572266 4.002133z" fill="#FD4B1E" /><path d="M256.989867 603.6736c2.397867 6.510933-16.418133-1.979733-23.799467 13.550933l10.786133 14.72c7.313067 9.984 20.983467 22.5024 30.455467 25.198934l-29.303467 2.944-35.131733 3.293866c-9.181867 0.861867-18.0736 1.988267-25.8048 1.885867l-18.295467-0.247467 2.653867-32.196266c0.657067-7.953067 2.030933-16.017067 3.310933-22.749867 42.897067 1.1008 45.226667-2.218667 85.128534-6.4z" fill="#FD6131" /><path d="M312.328533 656.4608c-12.202667 0.733867-25.787733-0.529067-37.888 0.6912-9.472-2.696533-23.1424-15.2064-30.455466-25.198933l-10.786134-14.72c7.381333-15.530667 26.197333-7.04 23.799467-13.550934l35.114667-7.944533 3.746133 13.184c4.206933 14.830933 11.0848 28.322133 21.5552 39.381333 0.699733 0.7424 3.234133 3.5328 3.037867 3.541334-0.2048 0-3.396267 1.006933-5.632 1.7152l-2.474667 2.9184z" fill="#FD5625" /><path d="M724.6336 486.664533l-10.862933 7.424c-3.4816 2.3808-8.098133 5.2736-9.787734 7.697067-4.4288 6.331733-7.9872 62.532267-32.366933 101.947733l-15.8464 25.608534-8.695467 14.097066c-0.827733 1.348267-0.759467 6.254933 0.085334 7.586134 0.853333 1.3312 5.137067 2.474667 6.8864 2.4832l41.463466 0.213333c28.8256-29.755733 39.8848-53.1968 45.661867-95.010133l6.6304-48.008534c-0.3328 0.810667 2.133333-5.3248 2.884267-7.202133 0.605867-1.518933 5.256533-3.268267 6.331733-2.005333l2.670933 3.140266-2.030933 20.8128-2.466133 20.5824c-3.4048 28.433067-6.144 57.9584-20.2752 83.217067l-12.8256 22.929067c2.158933 0.477867 8.3456 1.664 11.5456 1.6128l52.770133-0.8704c-0.034133 0.7936 0.0256 2.184533 0.059733 3.114666l-67.5072 0.631467-66.781866-0.861867c-10.359467-0.136533-19.2512 0.042667-30.2592 0.324267l-28.509867 0.7168c-1.365333 0.034133-6.826667-3.208533-6.4-3.328l38.0928-0.128c2.5088-7.697067 4.992-17.442133 9.472-22.7328 27.195733-32.136533 44.962133-68.2496 51.882667-108.398933 2.0224-2.6624 3.0464-8.021333 2.858666-12.117334l-0.2816-6.186666c4.727467-6.869333 11.136-13.3888 18.3808-16.622934l-4.113066 5.5296c-1.937067 2.602667-4.565333 6.152533-4.036267 5.435734 10.9312-5.282133 17.152-8.533333 25.361067-11.639467z" fill="#FC8664" /><path d="M957.832533 621.610667c-8.951467 5.6832-18.756267 11.554133-28.7232 14.737066 2.833067-5.102933 2.9184-11.733333 0.315734-18.235733-10.641067-26.581333-25.309867-64.0512-41.088-84.701867l19.080533 5.410134c6.698667 1.902933 19.182933 10.478933 22.442667 16.981333l25.719466 51.319467c1.706667 3.4048 2.372267 11.426133 2.2528 14.481066z" fill="#FD6635" /><path d="M382.600533 559.761067c-13.602133 9.1392 23.7568 47.872 32.759467 55.2704 15.812267 12.987733 34.005333 23.534933 51.5328 33.237333l15.342933-0.093867c-0.119467 0.3328-4.590933 2.082133-6.340266 2.2016l-25.506134 1.757867c-6.784 0.469333-13.1584 1.476267-18.389333 1.493333l5.572267-4.002133-22.434134-14.301867c-11.707733-7.466667-22.289067-16.494933-31.8208-27.349333-16.6912-19.012267-19.9936-36.7616-27.076266-35.643733 2.414933-6.0416 2.9184-0.597333 17.809066-8.192l8.567467-4.369067z" fill="#FC7A53" /><path d="M171.861333 610.0736c-1.28 6.7328-2.653867 14.805333-3.310933 22.749867l-2.653867 32.196266 18.295467 0.247467-2.986667 3.6096-29.713066-2.568533-22.929067-1.297067 2.0992-40.814933c0.264533-5.213867 0.162133-10.769067 0.085333-14.9504l0.469334-2.116267c13.303467 2.3296 27.042133 2.602667 40.644266 2.944z" fill="#FDA17D" /><path d="M87.586133 595.328c2.730667 1.160533 8.362667 4.2752 10.3424 5.461333-1.160533 5.0688-2.286933 9.198933-2.218666 11.886934l-2.6112 2.56 0.017066 41.591466 2.389334 2.901334 0.0512 2.961066c-12.066133 0.938667-25.070933-1.646933-34.568534-9.070933l1.066667-26.410667 5.0432-35.387733c1.544533-0.7936 7.389867-2.048 9.5232-1.143467l10.965333 4.650667z" fill="#FDCEB5" /><path d="M130.756267 609.245867c0.0768 4.1728 0.187733 9.736533-0.085334 14.9504l-2.0992 40.814933-11.5968 0.298667c-0.119467-7.765333-14.208 3.438933-20.872533-8.789334v-29.226666l2.807467-2.397867 1.2288-23.543467 30.6176 7.901867z" fill="#FD7A4C" /><path d="M315.195733 586.7776c-0.0256 0.580267-0.0512 1.7152-0.017066 2.269867 2.065067 30.882133 24.5248 54.0928 50.2528 64.8192-7.159467 0.0256-15.368533 0.324267-23.7056 0.8192l-29.397334 1.7664 2.474667-2.9184c2.235733-0.708267 5.4272-1.7152 5.632-1.7152 0.196267 0-2.338133-2.798933-3.037867-3.541334-10.4704-11.0592-17.339733-24.5504-21.5552-39.381333l-3.746133-13.184c-0.7424-2.6112 2.090667-7.0144 3.054933-9.5488l1.698134 8.226133c6.749867-2.107733 12.782933-4.420267 18.346666-7.6288z" fill="#FC8C67" /><path d="M566.920533 633.3184l0.110934 2.9184 0.401066 3.729067c0.1024 0.9472 1.629867 1.297067 2.3552 2.013866l11.118934 11.153067c-5.777067 0.349867-17.442133 0.597333-23.645867-0.8448l-43.477333-10.0608 5.896533-3.396267c9.198933-5.2992 17.2288-10.094933 23.150933-17.194666 2.568533-3.080533 4.616533-6.007467 8.3712-11.562667l12.791467 1.646933c-0.401067 9.3952-0.7424 16.580267 2.944 21.589334z" fill="#F9A48F" /><path d="M37.4272 643.976533c-6.3488-3.925333-12.996267-7.645867-17.467733-13.184l2.474666-27.136c1.066667-11.6992 4.096-21.2736 9.5488-32.810666 5.2736 2.653867 10.862933 6.135467 14.336 9.1136-5.563733 23.005867-8.362667 42.752-8.891733 64.0256z" fill="#FDD1B7" /><path d="M116.974933 665.309867l-15.086933 0.170666c-1.4592 0.017067-6.161067-2.449067-6.331733-2.781866l-0.0512-2.961067 0.597333-3.217067c6.664533 12.228267 20.753067 1.032533 20.872533 8.789334z" fill="#FDA17D" /><path d="M903.108267 644.650667c-1.416533 0.938667-6.203733 2.4064-8.917334 2.875733l8.917334-2.875733z" fill="#FD9267" /><path d="M262.715733 519.6544c-10.496 11.6736-21.4016 24.2176-34.705066 34.4064l-36.693334 28.100267c-11.3408 8.686933-17.271467 16.392533-19.456 27.921066-13.602133-0.349867-27.332267-0.6144-40.644266-2.944 2.56-11.5712 19.328-19.464533 31.018666-26.965333l19.805867-12.6976c30.506667-19.5584 43.818667-35.2512 68.488533-57.1392 3.054933-1.1008 9.984-2.2272 13.525334-1.339733 2.5088 0.622933-0.290133 9.9584-1.339734 10.658133z" fill="#FDC3A3" /><path d="M379.451733 460.9536l-16.776533 32.452267-20.590933 38.562133-12.458667 22.4768c-5.8112 10.487467-11.323733 21.9904-14.429867 32.324267-5.563733 3.208533-11.5968 5.521067-18.346666 7.6288l-1.698134-8.226134c4.0192-10.564267 13.4656-30.446933 19.541334-41.3696l31.5904-56.772266 24.5504-41.1136 10.026666-7.304534 3.3792 10.914134-4.7872 10.4192z" fill="#FCB693" /><path d="M599.5776 376.2176l-10.0864 5.768533c-4.6848 2.679467-43.972267 39.031467-37.4528 48.878934l9.070933-2.261334c-7.287467 3.643733-40.3456 30.216533-28.740266 51.584l15.0784 27.767467 24.533333-3.293867c0.256 0.5632 0.5888 1.5616 0.827733 2.261334-2.628267 10.9824-6.5536 22.468267-14.72 29.7984l-5.998933-1.2288c-1.621333-0.3328-1.8944-5.5808-2.500267-7.773867l-5.188266-18.833067-29.824 4.113067c-1.732267 0.238933-6.5792 3.217067-6.4768 3.524267-24.029867 5.154133-47.684267 12.023467-72.644267 20.1984-3.345067 16.6144 34.978133 42.5472 43.758933 50.2016l-11.4944-1.9968c-1.7152-0.298667-6.6816 3.7632-6.135466 4.369066-15.470933-7.441067-28.117333-19.328-38.920534-34.5088-11.554133-16.238933-22.766933 2.884267-36.3776 2.193067 0.768-4.5056 7.816533-15.172267 12.637867-14.037333l13.841067 3.234133c3.063467 0.7168 9.326933-1.570133 10.990933-3.9424l8.516267-4.957867c-0.068267-11.6992-0.571733-24.8576 3.0464-35.1488l11.6224-33.041066c6.075733-3.968 13.883733-19.6096 22.7328-29.354667 7.4752-8.226133 31.3856-32.836267 39.7824-36.369067l36.949333-15.547733c3.3024-1.390933 10.231467-3.524267 13.312-4.1216l26.990933-5.205333 12.8768-2.2528z" fill="#FD8450" /><path d="M446.933333 469.060267l-11.6224 33.041066c-3.618133 10.2912-3.114667 23.441067-3.0464 35.1488l-8.516266 4.957867-9.5232-0.913067c-3.456-27.767467 8.439467-57.719467 21.623466-80.529066 5.2224 0.034133 10.3168 3.2512 11.076267 8.302933z" fill="#FDAA84" /><path d="M619.793067 504.567467c10.368 11.3408 6.1184 32.699733 0.5632 47.598933-9.378133 25.173333-32.110933 42.88-58.1888 43.050667l-6.8608-27.613867c-2.952533 6.4-6.0416 13.3376-10.589867 20.616533-12.0064 19.217067-50.363733 5.12-65.493333-1.314133-8.7808-7.645867-47.104-33.5872-43.758934-50.2016 24.951467-8.1664 48.6144-15.035733 72.644267-20.1984l10.1632 1.2544c8.004267 9.275733 31.325867 36.462933 39.825067 18.944 8.157867-7.330133 12.091733-18.816 14.72-29.7984 1.1008-0.469333 6.519467-2.1248 8.849066-2.184533l26.222934-0.648534c4.189867-0.1024 8.925867 0.2048 11.912533 0.4864z" fill="#FD421C" /><path d="M628.411733 483.968c-0.1536 4.573867 0.2304 10.9568 0.930134 15.3088 4.608 5.026133 7.8592 11.374933 7.816533 16.017067l-0.221867 24.849066c-9.088 38.417067-32.7424 57.224533-69.853866 73.028267l-0.170667 20.1472c-3.694933-5.009067-3.3536-12.194133-2.944-21.589333l-12.791467-1.646934c-3.746133 5.5552-5.802667 8.482133-8.3712 11.562667l3.84-13.7472c-25.7792 1.860267-43.1616 3.933867-67.541333-9.710933-3.3024-2.6624-10.888533-6.929067-14.916267-8.576-0.580267-0.238933-1.7664-0.247467-2.6112-0.3328-0.546133-0.597333 4.4288-4.667733 6.135467-4.369067l11.4944 1.9968c15.1296 6.434133 53.486933 20.5312 65.493333 1.314133 4.548267-7.278933 7.637333-14.216533 10.589867-20.616533l6.8608 27.613867c26.077867-0.170667 48.810667-17.877333 58.1888-43.050667 5.5552-14.8992 9.8048-36.258133-0.5632-47.598933l-2.2272-1.706667c-2.9696-2.2784-8.362667-8.1664-9.437867-11.767467s3.328-10.0864 5.666134-12.9024l-3.242667 14.907734 9.224533 5.8368c3.618133-7.082667 5.6832-10.990933 8.635734-14.958934z" fill="#FB8566" /><path d="M718.848 480.930133l-8.942933 6.203734c2.218667-2.542933 5.597867-4.471467 8.942933-6.203734z" fill="#FC8664" /><path d="M804.241067 507.5456c0.981333 0.827733 1.220267 3.336533 0.896 4.7616-3.8912 17.297067-6.468267 32.503467-8.866134 49.365333l-6.254933 44.117334c-1.732267 12.219733-3.106133 35.413333-3.6096 47.138133l-52.770133 0.8704c-3.2 0.0512-9.386667-1.134933-11.5456-1.6128l12.8256-22.929067c14.1312-25.258667 16.878933-54.784 20.2752-83.217066l2.466133-20.5824 2.030933-20.8128c6.289067-2.167467 14.532267-3.063467 21.1456-1.749334l13.832534 2.747734 9.565866 1.8944z" fill="#FC4A21" /><path d="M145.851733 527.8208l-6.1184 3.131733c0.64-1.288533 1.0496-2.730667 1.988267-2.807466l4.130133-0.324267zM134.109867 533.742933l2.705066-2.6624-2.705066 2.6624z" fill="#FCBA95" /><path d="M747.810133 510.711467l-6.6304 48.008533c-5.777067 41.813333-16.836267 65.2544-45.661866 95.010133l-41.463467-0.213333c-1.7408-0.008533-6.033067-1.152-6.8864-2.4832s-0.913067-6.2464-0.085333-7.586133l8.695466-14.097067 15.8464-25.608533c24.379733-39.415467 27.946667-95.607467 32.366934-101.947734l43.690666-0.853333c0.136533 4.6336 0.4096 7.808 0.136534 9.787733z" fill="#FD4720" /><path d="M686.464 522.257067l-0.068267-9.617067 2.926934-2.500267c0.187733 4.104533-0.8448 9.454933-2.858667 12.117334z" fill="#FC7442" /><path d="M569.7792 641.979733c-0.7168-0.7168-2.2528-1.066667-2.3552-2.013866l-0.401067-3.729067c1.442133 0.554667 2.338133 0.657067 2.414934 1.544533l0.341333 4.1984z" fill="#FB8566" /><path d="M479.112533 598.178133c-4.343467-2.432-12.552533-3.959467-14.916266-8.576 4.027733 1.646933 11.613867 5.9136 14.916266 8.576z" fill="#FD8450" /><path d="M96.1024 627.293867v29.226666l-0.597333 3.217067-2.389334-2.901333-0.008533-41.591467 2.602667-2.56 0.392533 14.609067z" fill="#E8BDA3" /><path d="M558.088533 536.712533c-8.4992 17.518933-31.8208-9.668267-39.825066-18.944l-10.1632-1.2544c-0.1024-0.3072 4.744533-3.285333 6.4768-3.524266l29.824-4.113067 5.188266 18.833067c0.605867 2.193067 0.878933 7.441067 2.500267 7.773866l5.998933 1.2288z" fill="#FC6D49" /></svg>