<?xml version="1.0" standalone="no"?><!DOCTYPE svg PUBLIC "-//W3C//DTD SVG 1.1//EN" "http://www.w3.org/Graphics/SVG/1.1/DTD/svg11.dtd"><svg class="icon" width="256px" height="256.00px" viewBox="0 0 1024 1024" version="1.1" xmlns="http://www.w3.org/2000/svg"><path d="M414.001613 96.247467c-12.228267 2.875733-24.430933 6.254933-36.241067 10.581333-12.458667 4.565333-29.021867 14.199467-41.5488 16.341333-13.6704 2.3296-29.969067-5.1712-32.512 15.1552-0.2304 1.8432 1.408 3.4816 1.339733 3.899734-0.170667 0.9984-6.749867 7.611733-4.992 10.871466 3.575467 4.5312 9.122133 6.4256 12.603734 11.306667 4.855467 6.801067 6.920533 16.8448 11.374933 24.379733 3.362133 5.6832 7.790933 9.6256 11.656533 14.737067-25.472 5.4016-55.995733 13.7472-78.907733 27.511467-40.174933 24.123733-37.461333 55.381333-50.491733 95.0784-0.810667 2.474667-4.104533 6.784-4.846934 9.617066-0.469333 1.792-0.469333 3.771733-0.136533 5.5808 15.061333 6.152533 24.465067 20.343467 37.410133 29.841067 48.759467 35.780267 135.159467 32.477867 188.407467 8.072533 22.007467-10.0864 41.898667-24.456533 59.255467-41.198933 7.620267 10.0608 13.073067 21.853867 21.248 31.522133 16.981333 20.087467 50.141867 42.2656 74.9312 51.063467 31.9232 11.332267 65.1776 3.131733 97.9968 5.870933 4.795733 0.401067 10.7264 2.978133 15.291733 3.438934 21.205333 2.1504 46.8992-2.6112 63.0016-16.9472 3.9424-10.743467-3.0976-21.538133-4.258133-31.581867-1.237333-10.7264 0.4864-24.900267 1.6896-35.6864 2.2016-19.6608 7.2192-35.601067 3.0208-55.8592-1.706667-8.226133-7.620267-21.5552-12.458667-28.407467-1.314133-1.851733-9.710933-8.337067-7.620267-10.257066 27.9808-6.621867 55.714133-15.6416 73.992534-39.236267 3.328-4.3008 12.416-19.857067 11.025066-24.490667-0.725333-2.397867-4.6848-2.56-5.888-4.343466-0.887467-1.322667-0.955733-2.909867-2.5088-5.1456-4.2752-6.152533-20.113067-6.306133-28.945066-13.6192-17.066667-14.139733-28.1344-30.788267-48.785067-44.0064-52.48-33.5872-130.747733-25.531733-180.992 9.181866-5.666133 3.9168-20.864 19.950933-27.409067 15.3344-1.774933-1.245867-7.773867-11.118933-10.0864-13.738666-8.251733-9.344-20.053333-19.933867-30.677333-26.359467 12.6976-0.469333 25.582933 0.657067 38.272-0.034133 67.592533-3.6864 134.877867-19.7632 202.589867-8.4224 68.130133 11.4176 125.696 42.709333 174.574933 90.180266-3.626667 0.938667 0.008533 5.0688 0.9472 6.715734 41.1904 72.0384 61.013333 171.1104 53.6064 253.013333-14.984533 165.845333-120.900267 315.682133-271.300267 385.911467-99.2 46.318933-209.911467 47.607467-317.1072 40.593066-93.7984-6.135467-156.228267-24.379733-237.960533-70.2208-1.595733-0.896-7.0656-4.821333-7.995733-1.365333C58.443213 736.5632 24.454946 665.7536 8.787746 574.677333c7.534933 3.669333 14.498133-1.706667 20.4288-5.956266l-3.319467-4.923734 5.888-9.5488 4.104534 0.170667 0.162133 2.082133 5.085867 1.152-8.567467-19.5584 5.162667-2.577066c4.974933 15.035733 12.373333 22.613333 20.061866 3.8912 8.516267-20.727467 11.912533-48.503467 17.809067-70.7328 17.160533-64.708267 41.2416-123.912533 80.5376-178.261334 14.702933-20.334933 52.565333-61.6192 55.261867-85.205333l1.706666-11.912533 17.774934 1.595733 2.602666-2.5856 0.0512-7.5264c8.9856-10.9568 6.801067-21.725867-5.111466-28.945067 0.580267-4.155733 0.0768-5.435733-2.5344-8.541866-4.7104-5.614933-10.8032-10.385067-16.196267-15.300267 61.994667-32.315733 125.738667-53.6576 196.258133-38.766933 2.3296 0.494933 6.8608 1.058133 8.055467 3.012266z" fill="#F56F38" /><path d="M124.550946 801.134933c0.930133-3.456 6.408533 0.469333 7.995733 1.365334 81.732267 45.841067 144.162133 64.085333 237.960534 70.2208 107.195733 7.005867 217.9072 5.725867 317.1072-40.593067 150.408533-70.229333 256.315733-220.074667 271.300266-385.911467 7.3984-81.902933-12.416-180.974933-53.6064-253.013333-0.938667-1.6384-4.573867-5.777067-0.9472-6.715733 124.4416 120.866133 148.4032 315.221333 87.7056 473.352533-63.368533 165.077333-201.642667 248.183467-372.864 269.0304-170.615467 20.770133-366.2336-2.3552-494.6432-127.726933z" fill="#EA5B2B" /><path d="M209.679479 132.002133c5.4016 4.906667 11.485867 9.685333 16.196267 15.300267 2.602667 3.106133 3.114667 4.3776 2.5344 8.541867-20.420267-1.595733-28.398933 18.7904-10.8544 30.429866l15.957333-1.493333-0.0512 7.5264-2.602666 2.5856-17.774934-1.595733-1.706666 11.912533c1.2544-10.990933 0.2304-22.109867-12.7744-23.842133-10.359467-1.3824-31.266133 10.026667-39.936 16.256-55.048533 39.560533-96.546133 108.032-115.0464 172.6976-13.781333 48.1792-21.76 117.307733-5.9136 165.205333l-5.162667 2.577067 8.567467 19.5584-5.085867-1.152-0.162133-2.082134-4.104534-0.170666-5.888 9.5488 3.319467 4.923733c-5.930667 4.2496-12.885333 9.634133-20.4288 5.956267-2.321067-13.482667-5.4784-27.579733-6.8864-41.634134-0.349867-3.5328 0.375467-7.5264 0.0768-11.144533 0.008533 0.1536 1.518933 0.4096 1.732267 2.4576 0.426667 4.130133-0.341333 8.669867-0.0256 12.868267l8.610133-12.765867-0.896-2.6112c-6.690133-3.985067-3.456-9.9328-4.352-16.0768-0.597333-4.061867-2.816-8.6272-3.370667-12.808533-2.961067-0.401067-1.655467 3.8912-1.698133 5.956266-0.085333 4.224-0.1792 8.567467 0 12.7744-2.952533-1.425067-1.672533-6.570667-1.698133-9.3696-1.373867-156.552533 68.616533-296.925867 209.425066-370.3296z" fill="#F4743B" /><path d="M1.961079 511.684267c-0.1792-4.1984-0.085333-8.5504 0-12.7744 0.042667-2.065067-1.262933-6.357333 1.698134-5.956267 0.554667 4.181333 2.773333 8.746667 3.370666 12.808533 0.904533 6.152533-2.338133 12.091733 4.352 16.0768l0.896 2.6112-8.610133 12.765867c-0.315733-4.1984 0.452267-8.738133 0.0256-12.868267-0.213333-2.048-1.7152-2.304-1.732267-2.4576-0.247467-3.362133 0.145067-6.8352 0-10.2144z" fill="#F56F38" /><path d="M815.819213 177.9712c1.553067 2.235733 1.621333 3.831467 2.5088 5.1456 1.2032 1.792 5.162667 1.9456 5.888 4.343467 1.399467 4.625067-7.697067 20.189867-11.025067 24.490666-18.2784 23.594667-46.011733 32.6144-73.992533 39.236267-2.090667 1.92 6.306133 8.405333 7.620266 10.257067 4.8384 6.852267 10.752 20.181333 12.458667 28.407466 4.1984 20.258133-0.8192 36.1984-3.0208 55.8592-1.2032 10.786133-2.926933 24.96-1.6896 35.6864 1.160533 10.043733 8.200533 20.8384 4.258133 31.581867-16.1024 14.336-41.796267 19.0976-63.0016 16.9472-4.5568-0.4608-10.496-3.037867-15.291733-3.438933-32.8192-2.7392-66.065067 5.469867-97.9968-5.870934-24.789333-8.797867-57.949867-30.976-74.9312-51.063466-8.174933-9.668267-13.627733-21.461333-21.248-31.522134-17.348267 16.733867-37.248 31.112533-59.255467 41.198934-53.256533 24.405333-139.648 27.707733-188.407466-8.072534-12.945067-9.4976-22.3488-23.688533-37.410134-29.841066-0.3328-1.809067-0.3328-3.7888 0.136534-5.5808 0.750933-2.8416 4.036267-7.1424 4.846933-9.617067 5.1968 2.858667 10.146133 7.543467 15.325867 10.2144 5.794133 6.9632 14.660267 14.3104 22.212266 19.5072 55.185067 37.9904 144.213333 29.312 199.722667-4.445867 17.1264-10.4192 29.115733-23.867733 43.682133-37.188266 4.010667 16.989867 15.735467 30.370133 27.2384 42.564266 18.807467 19.9424 60.1856 49.160533 87.714134 52.753067 23.611733 3.080533 53.777067-1.783467 78.370133-0.042667 5.4784 0.384 13.312 3.037867 18.688 3.447467 11.8528 0.904533 35.694933-3.7632 45.696-10.4192 8.9344-5.947733 1.9968-14.250667 1.1264-22.784-1.9456-19.1744 4.010667-38.852267 5.1456-57.7792 1.8944-31.505067-0.042667-58.2144-32.401067-71.611733l-15.351466-5.077334c1.553067-2.577067 3.669333-2.048 5.819733-2.688 33.595733-10.0352 74.9056-16.136533 98.065067-44.9536 4.1216-5.128533 9.070933-12.757333 8.482133-19.6096z" fill="#E6582B" /><path d="M228.410146 155.835733c11.904 7.2192 14.097067 17.988267 5.111467 28.945067l-15.957334 1.493333c-17.544533-11.648-9.565867-32.034133 10.8544-30.429866z" fill="#F79D6E" /><path d="M488.915746 104.7552c10.624 6.417067 22.434133 17.015467 30.677333 26.359467 2.312533 2.619733 8.32 12.4928 10.0864 13.738666 6.545067 4.608 21.742933-11.4176 27.409067-15.3344 50.244267-34.7136 128.512-42.769067 180.992-9.181866 20.650667 13.218133 31.7184 29.866667 48.785067 44.0064-0.145067 6.7072-1.979733 13.610667-5.341867 19.345066-12.484267 21.333333-63.453867 45.3888-87.492267 50.423467-2.619733 0.546133-19.575467 0.802133-19.5328 4.292267 5.085867 4.1216 12.253867 4.736 18.210134 7.3216 15.0784 6.5536 33.297067 23.9104 38.8864 39.441066 10.3424 28.740267-8.081067 62.045867-6.0928 91.229867 0.315733 4.590933 3.054933 9.181867 1.732266 14.344533-6.0416 0.3072-13.764267 3.3024-19.5072 3.566934-7.108267 0.3328-19.6352-3.1744-27.195733-3.592534-32.452267-1.8176-65.339733 6.024533-96.708267-2.039466-15.991467-4.113067-37.4272-13.192533-51.822933-21.393067-5.819733-3.310933-11.0336-8.695467-17.544533-10.5472-11.502933-12.202667-23.227733-25.582933-27.2384-42.564267l-0.853334-18.730666c-8.942933 9.028267-16.298667 18.414933-26.461866 26.3168-59.4176 46.139733-172.731733 48.349867-238.293334 14.549333-5.179733-2.670933-10.129067-7.355733-15.325866-10.2144 13.0304-39.7056 10.3168-70.9632 50.491733-95.0784 22.912-13.755733 53.4272-22.109867 78.907733-27.511467 4.48-0.9472 10.837333-0.896 15.837867-2.048 1.066667-0.247467 4.9152-1.501867 4.599467-2.210133-7.0912-5.12-16.1792-8.6528-22.161067-15.300267-12.100267-13.448533-9.873067-35.950933-28.919467-41.745066 0.068267-0.418133-1.570133-2.056533-1.339733-3.899734 2.542933-20.3264 18.833067-12.817067 32.512-15.1552 12.526933-2.141867 29.090133-11.776 41.5488-16.341333 11.810133-4.3264 24.0128-7.7056 36.241067-10.581333 30.0288-7.057067 47.709867-7.927467 74.914133 8.516266z m-54.493867 47.675733c0.7168-3.720533-0.520533-4.445867-2.5344-6.818133-9.813333-11.588267-26.018133-24.610133-41.728-25.5232l23.765334 14.5408 20.5056 17.800533z m284.347734-10.2144c-22.903467 3.652267-44.117333 11.016533-62.9248 24.7552l-8.584534 9.2928 16.4352-9.949866c16.674133-9.506133 32.6912-15.488 51.208534-20.343467 3.072-0.810667 4.590933 0.887467 3.857066-3.754667z m-237.1584 10.5728c-33.4848 2.577067-84.898133 15.274667-106.811734 43.025067-15.061333 19.072-8.9344 41.412267 8.618667 56.149333 53.333333 44.782933 193.809067 46.762667 247.688533 2.653867 17.9968-14.728533 28.757333-34.875733 13.550934-56.174933-29.661867-41.540267-116.386133-49.237333-163.0464-45.653334zM369.730679 271.624533c-5.1968-0.64-8.951467-2.2016-14.4384-1.664-22.877867 2.235733-51.9168 10.018133-71.867733 21.76-3.729067 2.193067-8.7808 4.9408-10.734933 8.840534 8.4736-2.090667 15.8464-7.825067 23.808-11.093334 8.149333-3.336533 17.3056-5.188267 25.514666-8.533333l47.7184-9.309867z m301.3632 76.612267c-0.145067-2.952533-2.090667-6.656-3.626666-9.1392-10.743467-17.348267-40.413867-38.664533-59.3408-46.225067-3.208533-1.28-6.715733-2.670933-10.24-2.525866 0.392533 2.619733 3.182933 3.2 5.0944 4.266666 14.464 8.098133 29.047467 15.4624 41.762133 26.3424 9.7024 8.302933 16.776533 19.1232 26.350933 27.272534z" fill="#959139" /><path d="M211.386146 205.2096c-2.688 23.586133-40.558933 64.878933-55.261867 85.205333-39.304533 54.3488-63.377067 113.553067-80.5376 178.261334-5.896533 22.229333-9.2928 50.005333-17.809066 70.7328-7.688533 18.722133-15.086933 11.153067-20.061867-3.8912-15.854933-47.889067-7.867733-117.026133 5.9136-165.205334 18.500267-64.6656 59.997867-133.137067 115.0464-172.6976 8.669867-6.229333 29.576533-17.629867 39.936-16.256 13.0048 1.732267 14.0288 12.8512 12.7744 23.842134z" fill="#F79C6A" /><path d="M815.819213 177.9712c0.5888 6.852267-4.360533 14.4896-8.482134 19.6096-23.159467 28.817067-64.477867 34.9184-98.065066 44.9536-2.158933 0.64-4.266667 0.110933-5.819734 2.688l15.351467 5.077333c32.349867 13.397333 34.286933 40.106667 32.401067 71.611734-1.134933 18.926933-7.0912 38.6048-5.1456 57.7792 0.8704 8.533333 7.799467 16.836267-1.1264 22.784-10.001067 6.664533-33.8432 11.323733-45.696 10.4192-5.376-0.4096-13.2096-3.054933-18.688-3.447467-24.593067-1.7408-54.7584 3.1232-78.370134 0.042667-27.528533-3.592533-68.906667-32.810667-87.714133-52.753067 6.519467 1.851733 11.7248 7.227733 17.544533 10.5472 14.395733 8.192 35.831467 17.28 51.822934 21.393067 31.377067 8.064 64.256 0.221867 96.708266 2.039466 7.560533 0.426667 20.096 3.933867 27.195734 3.592534 5.742933-0.273067 13.4656-3.268267 19.5072-3.566934 1.322667-5.162667-1.416533-9.7536-1.732267-14.344533-1.988267-29.184 16.4352-62.4896 6.0928-91.229867-5.589333-15.530667-23.799467-32.887467-38.8864-39.441066-5.956267-2.5856-13.124267-3.208533-18.210133-7.3216-0.042667-3.490133 16.913067-3.746133 19.5328-4.292267 24.0384-5.034667 75.008-29.098667 87.492266-50.423467 3.362133-5.742933 5.1968-12.6464 5.341867-19.345066 8.832 7.313067 24.669867 7.466667 28.945067 13.6192z" fill="#7D782B" /><path d="M305.030946 142.216533c19.0464 5.794133 16.8192 28.296533 28.919467 41.745067 5.981867 6.647467 15.069867 10.180267 22.161066 15.300267 0.324267 0.708267-3.5328 1.962667-4.599466 2.210133-5.000533 1.143467-11.349333 1.092267-15.837867 2.048-3.8656-5.111467-8.2944-9.053867-11.656533-14.737067-4.462933-7.534933-6.528-17.578667-11.374934-24.379733-3.4816-4.881067-9.0368-6.775467-12.603733-11.306667-1.757867-3.259733 4.8128-9.873067 4.992-10.871466z" fill="#E55429" /><path d="M481.611213 152.789333c46.660267-3.584 133.384533 4.113067 163.0464 45.653334 15.2064 21.2992 4.4544 41.4464-13.550934 56.174933-53.888 44.100267-194.3552 42.120533-247.688533-2.653867-17.553067-14.737067-23.68-37.0688-8.618667-56.149333 21.9136-27.741867 73.326933-40.448 106.811734-43.025067z m0 13.627734c-21.341867 1.9712-67.0208 14.711467-79.300267 33.0752-17.186133 25.693867-0.324267 44.7488 23.099733 56.456533 46.395733 23.1936 132.590933 24.3712 176.503467-4.992 14.779733-9.8816 25.472-22.212267 19.012267-40.695467-6.980267-19.985067-34.2528-31.573333-53.256534-36.983466-25.5744-7.287467-59.4432-9.326933-86.058666-6.8608z" fill="#70692E" /><path d="M487.209079 314.180267c-14.574933 13.329067-26.555733 26.7776-43.682133 37.188266-55.5008 33.757867-144.529067 42.436267-199.722667 4.445867-7.543467-5.1968-16.418133-12.544-22.212266-19.5072 65.5616 33.800533 178.875733 31.5904 238.293333-14.549333 10.171733-7.893333 17.518933-17.288533 26.461867-26.3168l0.853333 18.730666z" fill="#7C7629" /><path d="M369.730679 271.624533l-47.7184 9.309867c-8.209067 3.345067-17.373867 5.1968-25.514666 8.533333-7.9616 3.268267-15.3344 8.994133-23.808 11.093334 1.954133-3.899733 7.005867-6.647467 10.734933-8.840534 19.959467-11.741867 48.9984-19.524267 71.867733-21.76 5.486933-0.5376 9.2416 1.024 14.4384 1.664zM671.093879 348.2368c-9.5744-8.149333-16.648533-18.9696-26.350933-27.272533-12.714667-10.88-27.298133-18.244267-41.762133-26.3424-1.911467-1.066667-4.701867-1.646933-5.0944-4.266667 3.524267-0.145067 7.031467 1.245867 10.24 2.525867 18.926933 7.560533 48.597333 28.868267 59.3408 46.225066 1.536 2.474667 3.4816 6.186667 3.626666 9.1392z" fill="#746E2F" /><path d="M718.769613 142.216533c0.733867 4.642133-0.785067 2.952533-3.857067 3.754667-18.517333 4.864-34.5344 10.845867-51.208533 20.343467l-16.4352 9.949866 8.584533-9.2928c18.798933-13.7472 40.021333-21.102933 62.9248-24.7552z" fill="#746F2F" /><path d="M434.421879 152.430933l-20.5056-17.800533-23.765333-14.5408c15.709867 0.913067 31.914667 13.934933 41.728 25.5232 2.013867 2.3808 3.2512 3.106133 2.5344 6.818133z" fill="#716B30" /><path d="M481.611213 166.417067c26.615467-2.466133 60.4928-0.418133 86.058666 6.8608 19.003733 5.410133 46.276267 16.9984 53.256534 36.983466 6.4512 18.4832-4.232533 30.813867-19.012267 40.695467-43.912533 29.3632-130.107733 28.1856-176.503467 4.992-23.415467-11.707733-40.285867-30.762667-23.099733-56.456533 12.279467-18.363733 57.9584-31.104 79.300267-33.0752z m13.585066 47.633066c-19.413333 3.310933-30.592 18.474667-6.3232 26.103467 13.678933 4.3008 38.084267 4.0448 50.065067-4.5056 10.555733-7.5264-2.3296-17.237333-10.376533-19.8656-8.021333-2.619733-25.0112-3.165867-33.365334-1.7408z" fill="#8F8745" /><path d="M495.196279 214.050133c8.354133-1.425067 25.344-0.878933 33.365334 1.7408 8.046933 2.628267 20.932267 12.3392 10.376533 19.8656-11.9808 8.541867-36.3776 8.8064-50.065067 4.5056-24.2688-7.6288-13.0816-22.792533 6.3232-26.103466z" fill="#6D6531" /></svg>