<?xml version="1.0" standalone="no"?><!DOCTYPE svg PUBLIC "-//W3C//DTD SVG 1.1//EN" "http://www.w3.org/Graphics/SVG/1.1/DTD/svg11.dtd"><svg class="icon" width="256px" height="256.00px" viewBox="0 0 1024 1024" version="1.1" xmlns="http://www.w3.org/2000/svg"><path d="M505.549508 498.3296c1.6896 8.797867 1.2032 30.984533-0.1024 40.388267-0.733867 5.316267-12.023467 44.0576-13.5168 45.9264-1.314133 1.6384-7.415467 0.0768-9.634133 2.141866-4.599467 4.292267-6.9632 16.341333-16.964267 23.8848-4.164267 3.140267-17.160533 10.1376-22.058666 12.202667-5.034667 2.1248-11.741867 6.007467-12.458667 6.229333-2.551467 0.768-32.512 6.178133-34.2528 6.178134-7.594667-0.0256-15.300267-8.5248-24.584533-6.050134l-9.668267 24.789334c-0.989867 10.709333-6.715733 22.2976-12.458667 31.138133-10.359467 15.965867-38.562133 43.2128-56.046933 49.8176-21.572267 8.1408-51.754667 5.845333-74.743467 6.2208-0.298667 4.087467 0.4608 8.3968 0.017067 12.458667-1.851733 16.7936-10.350933 40.866133-18.679467 56.046933-28.3648 51.6864-113.911467 61.405867-155.605333 21.725867-11.895467-11.323733-29.021867-39.816533-31.095467-56.072534-3.5072-27.52 3.054933-45.8496 17.416534-68.514133-55.005867-57.736533-33.390933-126.848 35.899733-158.532267-3.259733-56.362667 27.153067-110.677333 86.784-118.357333 16.042667-2.065067 40.072533-0.554667 52.829867-0.110933 2.7136 0.093867 7.099733 6.715733 12.4672 3.3536 31.650133-33.698133 72.635733-46.037333 114.397866-21.239467 9.659733 5.7344 19.131733 21.307733 26.427734 23.5264 11.9296 3.626667 34.798933-8.149333 55.2448-5.521067 8.021333 1.032533 35.208533 9.813333 42.530133 13.474134 7.517867 3.7632 46.7968 49.442133 47.8464 54.903466z" fill="#85B950" /><path d="M854.272708 784.776533c-12.450133-20.113067-11.3664-27.4944-12.458666-49.8176-0.1024-2.0736 0.0768-4.155733 0-6.229333l-3.293867-5.9904-21.614933-0.238933c-8.874667-2.397867-30.3872-3.234133-37.367467-6.229334-2.8672-1.2288-42.4448-34.730667-43.588267-37.367466-1.015467-2.3296 1.041067-9.122133-1.117866-14.173867-6.075733-14.276267-14.805333-24.738133-11.3408-41.864533l-3.2-6.058667c-25.250133 3.182933-38.0416-1.928533-59.076267-12.6208-4.138667-2.107733-8.2432-4.266667-12.458667-6.229333 0.341333-0.989867-5.179733-6.408533-3.370666-12.586667 4.215467-14.378667 51.729067-78.122667 65.646933-80.8192 35.8656-1.809067 72.328533 6.434133 105.591467-9.608533 19.8912-9.591467 27.460267-25.745067 50.082133-33.979734 54.186667-19.720533 109.4912 14.5408 118.2208 71.7056 1.783467 11.6736-2.3296 25.4464 0.8704 36.488534 2.432 8.379733 20.778667 19.7376 27.076267 28.970666 17.006933 24.925867 14.8224 75.6736-8.712534 97.134934 56.507733 105.531733-86.784 191.4624-149.905066 89.514666z" fill="#488C3F" /><path d="M430.823108 629.102933c-3.626667 34.9184 4.829867 68.078933 6.2208 102.741334l12.4672-9.335467c0.8704 24.900267 0 40.541867 15.3856 62.446933l7.381334 5.12c9.335467-3.285333 19.677867 6.980267 20.821333 7.159467l-15.505067 12.3904c9.250133 19.464533 44.450133 41.710933 37.7856 62.446933-9.2672 28.842667-45.380267 58.8544-72.328533 71.261867-48.648533 22.4-49.7664-14.1312-74.385067-43.460267-43.118933-51.387733-103.074133-78.5152-168.2432-90.180266 8.328533-15.1808 16.827733-39.253333 18.679467-56.046934 28.347733 7.0912 58.222933 9.873067 84.087467 24.8576 11.3408-10.231467 9.028267-5.9136 3.012266-15.4112-5.614933-8.866133-12.7488-16.6912-12.373333-28.125866 17.4848-6.6048 45.678933-33.851733 56.046933-49.8176-4.0704 16.785067 2.8672 20.164267 9.4464 31.035733 3.720533 6.161067 8.840533 19.072 15.453867 18.773333V635.3408l-12.4416 18.670933 9.668267-24.789333c9.284267-2.466133 16.989867 6.024533 24.584533 6.050133 1.7408 0 31.701333-5.4016 34.2528-6.178133z" fill="#C5E182" /><path d="M611.414042 498.3296c16.827733-1.604267 35.703467-21.751467 37.393066-37.376l9.2928 0.0256c9.7536 13.8752 22.920533 18.184533 36.283734 26.120533 9.378133 5.572267 20.189867 1.1776 16.674133 17.450667-13.909333 2.696533-61.422933 66.440533-65.646933 80.8192-1.809067 6.178133 3.712 11.5968 3.370666 12.586667-0.324267 0.938667-9.028267 4.002133-13.781333 14.225066-15.0784 32.418133-23.6544 83.7376-23.560533 119.714134 0.034133 12.168533-6.212267 25.1648 12.433066 21.742933-5.666133 10.427733-14.464 16.4864-13.013333 30.5408l-24.029867 0.597333c5.521067 16.0512-12.014933 23.253333-12.782933 24.900267l0.017067-12.458667c-2.926933-2.798933-67.054933 2.2016-80.9728 0-1.143467-0.1792-11.485867-10.4448-20.821334-7.159466l-7.381333-5.12c-15.3856-21.905067-14.5152-37.5552-15.3856-62.446934-0.7936-22.6816 1.288533-45.8752 0-68.497066 12.7488-12.032 29.994667-12.8768 43.451733-21.9392 18.756267-12.629333 50.3808-53.8112 55.168-75.605334 4.189867-19.063467-4.650667-40.226133 7.2448-58.1376 2.065067-0.1536 4.189867 0.238933 6.229334 0 8.789333-1.024 13.499733-5.179733 18.679466-6.229333l-6.2208 56.0384c16.785067 3.447467 10.3168-4.4544 15.266134-12.5184 9.122133-14.865067 15.5136-21.3248 22.0928-37.2992z" fill="#ADCC6A" /><path d="M723.499375 622.8736c-19.618133-3.370667-11.204267 9.7792-12.407467 21.8112-1.988267 19.933867-6.340267 39.133867-6.263466 59.144533l31.121066-24.9088c1.152 2.628267 40.721067 36.130133 43.588267 37.367467l-18.670933 31.1296 80.9472-12.450133c1.092267 22.3232 0 29.704533 12.458666 49.8176-67.080533 1.698133-121.181867 32.2304-165.1712 80.802133-25.5744 28.2368-16.5376 43.605333-61.2864 17.9968-16.785067-9.608533-24.209067-20.8128-34.798933-33.518933-9.301333-11.1616-27.5456-21.973333-18.9696-40.379734 0.768-1.646933 18.295467-8.849067 12.782933-24.900266l24.029867-0.597334c-1.450667-14.0544 7.3472-20.1216 13.013333-30.5408 25.233067-46.4384 41.429333-95.581867 37.367467-149.4528 21.034667 10.692267 33.826133 15.803733 59.076267 12.6208l3.2 6.058667z" fill="#A2C362" /><path d="M555.367108 498.3296c-11.895467 17.911467-3.054933 39.074133-7.2448 58.1376-4.7872 21.7856-36.411733 62.967467-55.168 75.605333-13.457067 9.0624-30.702933 9.898667-43.451733 21.9392-0.682667-11.912533-3.652267-20.027733-6.229333-31.138133 4.898133-2.065067 17.8944-9.0624 22.058666-12.202667 10.001067-7.543467 12.356267-19.592533 16.964267-23.8848 2.218667-2.065067 8.32-0.503467 9.634133-2.141866 1.493333-1.8688 12.7744-40.618667 13.5168-45.9264 1.3056-9.403733 1.792-31.5904 0.1024-40.388267 16.452267-0.836267 33.425067 1.2288 49.8176 0z" fill="#76A745" /><path d="M293.820442 734.958933c-0.375467 11.434667 6.7584 19.259733 12.373333 28.125867 6.016 9.4976 8.328533 5.179733-3.012267 15.4112-25.864533-14.984533-55.739733-17.774933-84.087466-24.8576 0.443733-4.061867-0.315733-8.3712-0.017067-12.458667 22.980267-0.375467 53.1712 1.92 74.743467-6.2208z" fill="#ECF7D9" /><path d="M443.273242 622.8736c2.577067 11.101867 5.546667 19.2256 6.229333 31.138133 1.288533 22.621867-0.7936 45.815467 0 68.497067l-12.4672 9.335467c-1.3824-34.6624-9.847467-67.822933-6.2208-102.741334 0.7168-0.213333 7.415467-4.104533 12.458667-6.229333z" fill="#E1EFC8" /><path d="M362.326042 654.011733l12.4416-18.670933v99.618133c-6.613333 0.298667-11.733333-12.612267-15.453867-18.773333-6.570667-10.871467-13.5168-14.2592-9.4464-31.035733 5.742933-8.840533 11.4688-20.420267 12.458667-31.138134z" fill="#F8FCEA" /><path d="M605.184708 485.870933c4.864 0.034133 6.818133 1.169067 6.229334 6.229334-0.7424 1.7664 0.733867 4.4544 0 6.229333-6.5792 15.9744-12.970667 22.434133-22.0928 37.2992-4.949333 8.064 1.518933 15.957333-15.266134 12.5184l6.2208-56.0384c8.712533-1.757867 16.9984-6.280533 24.9088-6.229333z" fill="#F7FBF1" /><path d="M194.185242 342.647467c10.606933-50.1504 28.928-74.4448 78.216533-93.0304 5.5808-16.861867 0.512-32.554667 5.5552-50.491734 17.134933-60.9536 104.277333-88.695467 158.830933-62.097066 25.130667-57.514667 106.120533-77.602133 162.304-52.9408 30.5152 13.397333 44.586667 35.310933 66.0224 58.5216 77.952-10.231467 142.378667 45.141333 133.4784 124.936533 23.714133 4.5568 40.448 20.821333 55.68 37.742933l-3.1232 18.688-25.1136-4.8128c-3.584 0.2048-18.500267 18.773333-21.589333 23.483734l-12.091733-53.290667c-22.647467-5.205333-40.004267-14.353067-61.8496-1.937067 1.681067 9.813333-5.265067 14.0032-7.0144 17.8688l-18.670934-37.384533c-5.12 40.635733-45.610667 62.549333-83.490133 43.895467l-15.607467 21.572266c16.196267 25.540267 47.8976 12.8512 74.180267 15.505067-0.503467 0.221867-0.221867 5.2992-8.925867 6.391467-10.9568 1.373867-23.3984-1.169067-34.6624-0.1536 10.1632 8.311467 7.2192 27.537067 9.224534 31.112533 4.608 8.200533 19.003733 13.960533 21.9136 24.917333 1.723733 17.442133-23.637333 20.5568-12.9024 36.650667-15.982933 4.616533-30.062933 20.352-43.144534 31.8464-1.757867 1.544533-6.3232 1.5104-6.229333 6.229333-7.9104-0.0512-16.196267 4.462933-24.9088 6.229334-5.179733 1.0496-9.890133 5.205333-18.679467 6.229333-6.766933-26.2912-9.992533-47.018667-31.419733-65.1008-33.032533-27.895467-43.502933-15.812267-76.5696-23.0656-5.2992-1.160533-57.762133-18.756267-60.4416-20.514133-4.701867-3.089067-7.074133-13.525333-12.032-19.106134-39.330133-44.279467-80.085333-45.533867-127.675733-11.170133l-59.264-16.725333z m308.9664-204.757334c-3.438933 1.024-17.9968 14.6432-19.575467 17.757867-21.691733 42.709333 57.813333 43.272533 65.416533 3.694933-12.765867-15.573333-23.748267-28.032-45.841066-21.444266z m-111.837867 37.597867c-5.2736 1.160533-32.4864 14.8224-37.589333 18.449067-30.1312 21.367467-35.054933 99.899733 8.797866 77.2864 8.977067-4.6336 13.6704-22.920533 24.832-31.2064 17.024-12.6464 42.487467-6.613333 55.4752-25.480534l-2.4832-21.5296c-13.2608-14.464-29.013333-21.922133-49.024-17.518933z" fill="#69A748" /><path d="M866.722842 460.962133c-22.6304 8.234667-30.199467 24.388267-50.082134 33.979734-33.262933 16.042667-69.7344 7.799467-105.591466 9.608533 3.5072-16.273067-7.296-11.8784-16.674134-17.450667-13.3632-7.944533-26.530133-12.253867-36.283733-26.120533l-9.2928-0.0256c-1.6896 15.624533-20.5568 35.771733-37.393067 37.376 0.733867-1.774933-0.7424-4.462933 0-6.229333 0.136533-0.324267 5.1712 1.134933 6.2208-3.131734l-6.2208-9.326933c13.0816-11.4944 27.1616-27.2384 43.144534-31.8464-10.743467-16.093867 14.626133-19.208533 12.9024-36.650667 49.7408-0.426667 85.461333 10.760533 118.442666-34.1248 8.465067-11.52 10.6496-22.306133 18.56-34.372266 3.080533-4.701867 18.005333-23.278933 21.589334-23.483734l25.1136 4.8128 3.1232-18.688c1.186133 1.322667 6.1696 1.7664 9.173333 6.126934 31.675733 45.909333 24.5248 100.957867 3.2768 149.5552z" fill="#62A446" /><path d="M561.596442 498.3296c-2.039467 0.238933-4.164267-0.1536-6.229334 0-16.392533 1.2288-33.365333-0.836267-49.8176 0-1.0496-5.461333-40.328533-51.140267-47.8464-54.903467-7.313067-3.6608-34.5088-12.4416-42.530133-13.474133-20.445867-2.6368-43.3152 9.1392-55.2448 5.521067-7.296-2.218667-16.759467-17.783467-26.427733-23.5264-41.762133-24.797867-82.747733-12.458667-114.397867 21.239466-5.367467 3.362133-9.7536-3.259733-12.4672-3.3536-10.606933-20.1216-21.128533-48.776533-18.577067-71.671466 0.759467-6.818133 5.256533-11.409067 6.126934-15.5136l59.264 16.725333c47.5904-34.372267 88.3456-33.109333 127.675733 11.170133 4.957867 5.5808 7.330133 16.017067 12.032 19.106134 2.679467 1.757867 55.1424 19.3536 60.4416 20.514133 33.0752 7.2448 43.537067-4.829867 76.5696 23.0656 21.418667 18.090667 24.6528 38.818133 31.419733 65.1008z" fill="#478C3C" /><path d="M804.455108 342.647467c-7.901867 12.066133-10.094933 22.852267-18.56 34.372266-32.981333 44.885333-68.701867 33.698133-118.442666 34.1248-2.909867-10.9568-17.3056-16.7168-21.9136-24.917333-2.005333-3.575467 0.938667-22.801067-9.224534-31.112533 11.264-1.015467 23.7056 1.527467 34.6624 0.1536 8.704-1.092267 8.4224-6.1696 8.925867-6.391467 9.130667-4.010667 28.689067-12.219733 34.286933-18.619733 7.005867-8.021333 6.212267-18.141867 9.301334-24.968534 1.749333-3.8656 8.695467-8.046933 7.0144-17.8688 21.845333-12.416 39.202133-3.268267 61.8496 1.937067l12.091733 53.290667z" fill="#81B74F" /><path d="M391.313775 175.488c20.010667-4.4032 35.7632 3.0464 49.024 17.518933l2.4832 21.5296c-12.987733 18.8672-38.4512 12.834133-55.4752 25.480534-11.153067 8.285867-15.8464 26.581333-24.832 31.2064-43.8528 22.613333-38.929067-55.918933-8.797867-77.2864 5.102933-3.618133 32.324267-17.288533 37.589334-18.449067z" fill="#92C357" /><path d="M723.499375 305.288533c-3.089067 6.826667-2.295467 16.9472-9.301333 24.968534-5.597867 6.4-25.156267 14.6176-34.286934 18.619733-26.282667-2.645333-57.984 10.043733-74.180266-15.505067l15.607466-21.572266c37.879467 18.653867 78.370133-3.259733 83.490134-43.895467l18.670933 37.384533z" fill="#4D913D" /><path d="M503.151642 137.890133c22.0928-6.5792 33.0752 5.870933 45.841066 21.444267-7.6032 39.5776-87.108267 39.0144-65.416533-3.694933 1.578667-3.106133 16.136533-16.725333 19.575467-17.757867z" fill="#94C459" /><path d="M611.414042 492.100267c0.5888-5.060267-1.365333-6.1952-6.229334-6.229334-0.1024-4.718933 4.462933-4.676267 6.229334-6.229333l6.2208 9.326933c-1.0496 4.266667-6.084267 2.807467-6.2208 3.131734z" fill="#ADCC6A" /><path d="M661.231642 604.194133c4.0704 53.870933-12.1344 103.0144-37.367467 149.4528-18.645333 3.421867-12.398933-9.5744-12.433067-21.742933-0.093867-35.968 8.482133-87.296 23.560534-119.714133 4.753067-10.222933 13.457067-13.2864 13.781333-14.225067 4.206933 1.962667 8.32 4.1216 12.458667 6.229333z" fill="#F8FAF3" /><path d="M723.499375 622.8736c-3.464533 17.134933 5.256533 27.588267 11.3408 41.864533 2.1504 5.060267 0.093867 11.844267 1.117867 14.173867l-31.121067 24.9088c-0.0768-20.010667 4.2752-39.210667 6.263467-59.144533 1.2032-12.032-7.210667-25.173333 12.407466-21.8112z" fill="#EEF7E3" /><path d="M816.905242 722.5088c0.324267 0.085333-1.7664 4.164267 3.771733 5.546667 6.903467 1.723733 14.1568 0.657067 21.137067 0.682666 0.0768 2.0736-0.1024 4.155733 0 6.229334l-80.9472 12.450133 18.670933-31.1296c6.971733 2.9952 28.484267 3.831467 37.367467 6.229333z" fill="#ECF5DC" /><path d="M841.814042 728.738133c-6.971733-0.0256-14.2336 1.041067-21.137067-0.682666-5.538133-1.3824-3.447467-5.461333-3.771733-5.546667l21.614933 0.238933 3.293867 5.9904z" fill="#A2C362" /></svg>