<?xml version="1.0" standalone="no"?><!DOCTYPE svg PUBLIC "-//W3C//DTD SVG 1.1//EN" "http://www.w3.org/Graphics/SVG/1.1/DTD/svg11.dtd"><svg t="1778769473354" class="icon" viewBox="0 0 1024 1024" version="1.1" xmlns="http://www.w3.org/2000/svg" p-id="3420" xmlns:xlink="http://www.w3.org/1999/xlink" width="256" height="256"><path d="M679.83 571.56c35.23-5.94 69.21-22.9 97.04-50.73 69.81-69.81 67.49-174.48-2.32-244.28-69.81-69.81-177.57-75.22-247.38-5.41-27.74 27.74-44.2 62.09-49.6 97.79-28.88 6.18-56.44 20.61-79.6 43.77-23.94 23.94-39.05 53.06-45.47 83.63-22.48 6.98-43.75 19.51-62.09 37.85-62.46 62.46-61.07 162.34 1.38 224.79 62.46 62.46 159.57 61.07 222.03-1.38 18.23-18.23 30.96-39.13 38.29-61.13 30.23-6.86 59.13-22.38 83.18-46.43 23.08-23.08 37.85-50.16 44.53-78.46z" fill="#F56766" p-id="3421"></path><path d="M574 357.67a21.85 24.51 0 1 0 43.7 0 21.85 24.51 0 1 0-43.7 0Z" p-id="3422"></path><path d="M685.91 357.67a21.85 24.51 0 1 0 43.7 0 21.85 24.51 0 1 0-43.7 0Z" p-id="3423"></path><path d="M652.33 475.15c-23.97 0-45.86-12.16-58.56-32.53-3.65-5.86-1.87-13.57 3.99-17.22 5.86-3.65 13.57-1.87 17.22 3.99 8.11 13 22.07 20.76 37.35 20.76s29.24-7.76 37.35-20.76c3.65-5.86 11.36-7.65 17.22-3.99 5.86 3.65 7.65 11.36 3.99 17.22-12.7 20.37-34.6 32.53-58.56 32.53z" p-id="3424"></path><path d="M651.29 586.46c-49.14 0-95.75-19.58-131.42-55.25s-56.36-83.9-56.79-134.35c-0.43-50.72 19.19-98.51 55.24-134.57 35.89-35.89 83.09-54.82 132.91-53.3 48.84 1.49 95.77 22.34 132.15 58.72s56.53 82.69 57.17 130.81c0.65 48.55-18.84 95.13-54.85 131.15s-83.36 56.36-132.8 56.79h-1.6z m-5.58-352.55c-41.09 0-79.89 16.25-109.7 46.07-31.28 31.28-48.29 72.71-47.92 116.68 0.37 43.85 17.94 85.36 49.47 116.89s72.18 48.28 115.13 47.92c42.85-0.37 83.82-17.94 115.34-49.47s48.09-71.39 47.53-113.14c-0.55-41.58-18.26-81.87-49.85-113.47-31.85-31.85-72.78-50.11-115.23-51.4-1.59-0.05-3.18-0.07-4.76-0.07z" p-id="3425"></path><path d="M515.95 713.03c-46.87 0-91.33-18.68-125.35-52.69-34.51-34.51-53.75-80.02-54.16-128.13-0.41-48.38 18.3-93.96 52.69-128.34 23.41-23.41 52.33-39.55 83.63-46.68 6.73-1.53 13.43 2.68 14.96 9.41 1.53 6.73-2.68 13.43-9.41 14.96-26.7 6.08-51.42 19.91-71.5 39.99-29.61 29.61-45.72 68.83-45.37 110.45 0.35 41.52 16.99 80.82 46.83 110.67 29.61 29.61 68.32 45.71 108.98 45.37 40.57-0.35 79.35-16.98 109.2-46.83 19.99-19.99 34.03-44.21 40.61-70.05 1.7-6.69 8.51-10.73 15.2-9.03 6.69 1.7 10.73 8.51 9.03 15.2-7.69 30.19-23.99 58.4-47.16 81.56-34.51 34.51-79.5 53.75-126.66 54.16h-1.53z" p-id="3426"></path><path d="M401.47 817.63c-44.32 0-86.35-17.66-118.51-49.82s-50.81-75.64-51.2-121.13c-0.39-45.74 17.3-88.83 49.81-121.34 18.49-18.49 40.05-31.93 64.06-39.94 6.55-2.18 13.63 1.35 15.81 7.9s-1.35 13.63-7.9 15.81c-20.3 6.77-38.57 18.18-54.29 33.9-27.73 27.73-42.82 64.47-42.49 103.45 0.33 38.89 15.91 75.7 43.87 103.67s63.96 42.82 102.07 42.49c38-0.33 74.32-15.91 102.28-43.87 15.42-15.42 26.84-33.06 33.95-52.44 2.38-6.48 9.56-9.81 16.04-7.43 6.48 2.38 9.81 9.56 7.43 16.04-8.37 22.81-21.74 43.5-39.75 61.5-32.63 32.63-75.15 50.81-119.74 51.2h-1.45z" p-id="3427"></path><path d="M227.77 832.27c-3.2 0-6.4-1.22-8.84-3.66-4.88-4.88-4.88-12.8 0-17.68l62.41-62.41c4.88-4.88 12.8-4.88 17.68 0 4.88 4.88 4.88 12.8 0 17.68l-62.41 62.41a12.463 12.463 0 0 1-8.84 3.66z" p-id="3428"></path></svg>