<?xml version="1.0" standalone="no"?><!DOCTYPE svg PUBLIC "-//W3C//DTD SVG 1.1//EN" "http://www.w3.org/Graphics/SVG/1.1/DTD/svg11.dtd"><svg t="1778769563901" class="icon" viewBox="0 0 1024 1024" version="1.1" xmlns="http://www.w3.org/2000/svg" p-id="4120" xmlns:xlink="http://www.w3.org/1999/xlink" width="256" height="256"><path d="M722.08 537.62s57.16-9.54 47.72-95.24c-5.06-40.39-42.19-56.71-76-63.12-15.28-2.9-23.42-19.89-16.1-33.61 3.88-7.27 6.4-16.2 6.4-27.13 0-47.62-38.08-66.71-57.16-76.25-18.13-9.07-79.55-61.15-93.85-98.98a8.987 8.987 0 0 0-8.45-5.83c-3.7 0.02-7 2.3-8.33 5.76-14.6 37.84-80.26 89.98-98.31 99.06-18.99 9.54-57.16 28.63-57.16 76.25 0 10.94 2.51 19.87 6.39 27.14 7.31 13.72-0.83 30.7-16.11 33.6-33.83 6.4-71.02 22.72-76.08 63.14-9.54 85.69 47.62 95.24 47.62 95.24h399.43z" fill="#F7F3E7" p-id="4121"></path><path d="M628.55 847.11a346.932 346.932 0 0 1-212.28 0c-25.64-8.24-44.13-30.65-47.36-57.39l-30.43-252.55h367.85L675.9 789.72c-3.22 26.74-21.72 49.15-47.36 57.39z" fill="#E89C4E" p-id="4122"></path><path d="M522.39 555.55c-60.45 0-120.88-3.62-180.9-10.87-38.17-0.37-70.85-27.45-77.86-64.66-2.49-13.21-2.83-28.17-1.02-44.46 0-0.06 0.01-0.11 0.02-0.17 4.83-38.57 34.62-64.11 86.16-73.87 3.33-0.63 6.09-2.77 7.58-5.86 1.48-3.09 1.42-6.58-0.18-9.58-5.21-9.78-7.85-20.89-7.85-33.02 0-55.22 44.8-77.74 63.93-87.36l0.12-0.06c16.98-8.53 79.38-59 92.27-92.39 3.21-8.31 11.03-13.71 19.93-13.76h0.11c8.88 0 16.95 5.58 20.1 13.91 12.93 34.21 72.47 84.58 87.75 92.22 19.17 9.59 64.07 32.04 64.07 87.43 0 12.13-2.65 23.24-7.87 33.02-1.6 2.99-1.67 6.48-0.18 9.58 1.48 3.1 4.25 5.24 7.58 5.87 51.48 9.77 81.25 35.31 86.07 73.85 0 0.06 0.01 0.12 0.02 0.18 1.8 16.32 1.43 31.31-1.08 44.54-7.07 37.16-39.74 64.2-77.85 64.57a1509.025 1509.025 0 0 1-180.91 10.87z m-178.53-35.77c118.49 14.36 238.66 14.35 357.15-0.01 0.5-0.06 1-0.09 1.5-0.09 26.45 0 49.19-18.61 54.07-44.24 2.05-10.76 2.32-23.22 0.8-37.03-3.43-27.06-25.61-44.66-65.91-52.31-11.24-2.13-20.52-9.29-25.47-19.64-4.95-10.34-4.7-22.06 0.68-32.15 3.27-6.12 4.92-13.27 4.92-21.25 0-36.86-25.94-52.92-50.25-65.07-11.42-5.71-32.59-22.54-51.49-40.93-15.45-15.03-35.02-36.52-45.23-57.39-20.71 40.65-83.12 89.31-101.03 98.31l-0.12 0.06c-24.27 12.2-50.16 28.29-50.16 65.02 0 7.98 1.65 15.14 4.92 21.26 5.37 10.09 5.61 21.8 0.66 32.14-4.96 10.34-14.24 17.49-25.47 19.61-40.36 7.64-62.56 25.25-65.99 52.33-1.53 13.79-1.28 26.23 0.75 36.97 4.84 25.67 27.58 44.29 54.08 44.29 0.53 0 1.06 0.03 1.59 0.1z" p-id="4123"></path><path d="M522.41 875.84c-37.38 0-74.38-5.8-109.96-17.23-30.19-9.7-52.15-36.31-55.94-67.79l-30.43-252.55c-0.83-6.85 4.06-13.08 10.92-13.91 6.86-0.83 13.08 4.06 13.91 10.92l30.43 252.55c2.63 21.82 17.85 40.26 38.77 46.98 66.94 21.51 137.7 21.51 204.63 0 20.92-6.72 36.14-25.16 38.77-46.98l30.43-252.55c0.83-6.85 7.05-11.75 13.91-10.92 6.85 0.83 11.74 7.05 10.92 13.91l-30.43 252.55c-3.79 31.48-25.75 58.09-55.94 67.79a359.093 359.093 0 0 1-109.96 17.23z" p-id="4124"></path><path d="M446 346.67a21.85 24.51 0 1 0 43.7 0 21.85 24.51 0 1 0-43.7 0Z" p-id="4125"></path><path d="M557.91 346.67a21.85 24.51 0 1 0 43.7 0 21.85 24.51 0 1 0-43.7 0Z" p-id="4126"></path><path d="M524.33 464.15c-23.97 0-45.86-12.16-58.56-32.53-3.65-5.86-1.87-13.57 3.99-17.22 5.86-3.65 13.57-1.87 17.22 3.99 8.11 13 22.07 20.76 37.35 20.76s29.24-7.76 37.35-20.76c3.65-5.86 11.36-7.65 17.22-3.99 5.86 3.65 7.65 11.36 3.99 17.22-12.7 20.37-34.59 32.53-58.56 32.53zM429.01 788.5a12.5 12.5 0 0 1-10.79-6.17c-3.5-5.95-1.51-13.61 4.44-17.11 74.59-43.85 123.19-89.14 150.82-119.41 29.93-32.8 42.4-55.52 42.52-55.75 3.29-6.06 10.86-8.33 16.93-5.05 6.07 3.28 8.34 10.84 5.08 16.91-0.54 1-13.59 25-45.26 59.86-28.87 31.78-79.61 79.26-157.42 125a12.44 12.44 0 0 1-6.32 1.73zM416.01 704.96a12.5 12.5 0 0 1-10.79-6.17c-3.5-5.95-1.51-13.61 4.44-17.11 70.32-41.34 95.1-85.65 95.35-86.09 3.3-6.04 10.88-8.29 16.94-5.01 6.05 3.28 8.32 10.82 5.06 16.89-1.1 2.04-27.79 50.57-104.68 95.77a12.44 12.44 0 0 1-6.32 1.73zM530.01 807.96a12.5 12.5 0 0 1-10.79-6.17c-3.5-5.95-1.51-13.61 4.44-17.11 70.32-41.34 95.1-85.65 95.35-86.09 3.3-6.04 10.88-8.29 16.94-5.01 6.05 3.28 8.32 10.82 5.06 16.89-1.1 2.04-27.79 50.57-104.68 95.77a12.44 12.44 0 0 1-6.32 1.73z" p-id="4127"></path><path d="M614.99 786.5c-2.15 0-4.33-0.56-6.32-1.73-32.65-19.2-63.2-40.23-90.79-62.54-5.37-4.34-6.2-12.21-1.86-17.58 4.34-5.37 12.21-6.2 17.58-1.86 26.63 21.53 56.15 41.86 87.74 60.43 5.95 3.5 7.94 11.16 4.44 17.11a12.5 12.5 0 0 1-10.79 6.17zM440.63 640.51c-3.69 0-7.34-1.62-9.8-4.74-17.09-21.56-24.53-35.29-24.84-35.86-3.27-6.08-0.99-13.66 5.09-16.93 6.07-3.27 13.65-0.99 16.92 5.07 0.13 0.24 6.95 12.66 22.42 32.19 4.29 5.41 3.38 13.27-2.03 17.56-2.3 1.82-5.04 2.7-7.76 2.7zM608.99 682.23c-2.15 0-4.33-0.56-6.32-1.73-39.93-23.47-54.09-49.23-54.68-50.31-3.27-6.08-0.99-13.66 5.09-16.93 6.06-3.25 13.6-1.01 16.89 5.02 0.28 0.5 12.21 21.18 45.36 40.67 5.95 3.5 7.94 11.16 4.44 17.11a12.5 12.5 0 0 1-10.79 6.17zM481.09 788.5c-2.15 0-4.33-0.56-6.32-1.73-15.41-9.06-28.52-19.48-38.97-30.98-8.03-8.84-11.53-15.18-11.91-15.87-3.27-6.08-0.99-13.66 5.09-16.93 6.05-3.25 13.59-1.01 16.89 5.01 0.27 0.48 11.21 19.38 41.57 37.22 5.95 3.5 7.94 11.16 4.44 17.11a12.5 12.5 0 0 1-10.79 6.17z" p-id="4128"></path></svg>