<?xml version="1.0" standalone="no"?><!DOCTYPE svg PUBLIC "-//W3C//DTD SVG 1.1//EN" "http://www.w3.org/Graphics/SVG/1.1/DTD/svg11.dtd"><svg t="1778769311065" class="icon" viewBox="0 0 1024 1024" version="1.1" xmlns="http://www.w3.org/2000/svg" p-id="1290" xmlns:xlink="http://www.w3.org/1999/xlink" width="256" height="256"><path d="M272.5 274m63.67 0l362.66 0q63.67 0 63.67 63.67l0 416.03q0 63.67-63.67 63.67l-362.66 0q-63.67 0-63.67-63.67l0-416.03q0-63.67 63.67-63.67Z" fill="#FDDCAF" p-id="1291"></path><path d="M518 302.53c120.83 0 223.34 41.47 259.53 98.97 9.05-14.38 13.97-29.77 13.97-45.76C791.5 275.8 669.05 211 518 211s-273.5 64.8-273.5 144.74c0 15.99 4.91 31.38 13.97 45.76 36.19-57.51 138.71-98.97 259.53-98.97z" fill="#E89C4E" p-id="1292"></path><path d="M443 499.67a21.85 24.51 0 1 0 43.7 0 21.85 24.51 0 1 0-43.7 0Z" p-id="1293"></path><path d="M554.91 499.67a21.85 24.51 0 1 0 43.7 0 21.85 24.51 0 1 0-43.7 0Z" p-id="1294"></path><path d="M521.33 617.15c-23.97 0-45.86-12.16-58.56-32.53-3.65-5.86-1.87-13.57 3.99-17.22 5.86-3.65 13.57-1.87 17.22 3.99 8.11 13 22.07 20.76 37.35 20.76s29.24-7.76 37.35-20.76c3.65-5.86 11.36-7.65 17.22-3.99 5.86 3.65 7.65 11.36 3.99 17.22-12.7 20.37-34.6 32.53-58.56 32.53z" p-id="1295"></path><path d="M698.83 830.01H336.17c-42 0-76.17-34.17-76.17-76.17V435.35c0-13.72-3.94-26.65-11.39-37.39-11.35-16.37-17.11-33.68-17.11-51.46 0-41.32 30.91-79.45 87.04-107.36C371.89 212.61 442.55 198 517.5 198s145.61 14.61 198.96 41.14c56.13 27.91 87.04 66.04 87.04 107.36 0 17.78-5.76 35.09-17.11 51.46-7.45 10.75-11.39 23.68-11.39 37.39v318.49c0 42-34.17 76.17-76.17 76.17zM517.5 223c-71.16 0-137.87 13.68-187.83 38.53-23.59 11.73-41.98 25.24-54.66 40.14-12.29 14.44-18.51 29.53-18.51 44.84 0 12.59 4.26 25.11 12.65 37.21 10.37 14.95 15.85 32.81 15.85 51.64v318.49c0 28.22 22.95 51.17 51.17 51.17h362.66c28.22 0 51.17-22.95 51.17-51.17V435.36c0-18.83 5.48-36.69 15.85-51.64 8.39-12.1 12.65-24.62 12.65-37.21 0-15.31-6.23-30.4-18.51-44.84-12.67-14.9-31.06-28.4-54.66-40.14C655.37 236.69 588.66 223 517.5 223z" p-id="1296"></path></svg>