<?xml version="1.0" standalone="no"?><!DOCTYPE svg PUBLIC "-//W3C//DTD SVG 1.1//EN" "http://www.w3.org/Graphics/SVG/1.1/DTD/svg11.dtd"><svg class="icon" width="256px" height="256.00px" viewBox="0 0 1024 1024" version="1.1" xmlns="http://www.w3.org/2000/svg"><path d="M518.203733 912v-6.4l-6.4 4.804267v1.5872h6.4c-12.117333 5.691733-20.113067 8.439467-32.008533 12.8-4.872533-5.486933-11.613867-10.359467-19.165867-9.6768-1.365333-8.704 0.7424-13.943467 7.927467-18.824534 17.6384 13.431467 18.9952 0.366933 17.646933-16.290133C616.448 813.755733 725.205333 698.487467 810.922667 588.663467c31.854933-40.814933 69.051733-88.866133 92.8-134.417067 7.8848-15.1296 13.184-24.669867 14.557866-41.4464 8.251733-4.590933 7.671467-14.404267 10.205867-20.1984 5.248-11.963733 5.956267-4.932267 5.794133-19.831467-0.0512-4.462933 8.157867-13.303467 11.2128-17.570133l4.7872 6.391467 3.208534-76.8c13.9264 106.018133-35.268267 219.997867-94.557867 307.054933-81.0752 119.04-209.749333 258.619733-340.718933 320.145067z" fill="#82B73E" /><path d="M639.829333 185.6c11.818667-5.802667 30.3872-14.250667 43.264-15.9488 22.340267-2.944 52.821333 7.0912 62.378667-22.459733l6.3232 1.809066 3.345067 17.314134c5.768533 0.725333 12.066133-0.7168 17.7408-0.008534 4.4032 0.546133 4.317867 3.182933 4.573866 3.293867-5.060267-0.315733-14.020267-1.160533-15.726933 5.0688-4.010667 14.626133 0.955733 51.882667-0.136533 70.263467-0.3072 5.128533-2.875733 8.7552-3.2768 12.7232-1.109333 10.973867 0.9472 18.926933-3.268267 30.336-5.5296 14.984533-39.278933 51.3536-51.268267 65.536-7.714133 9.122133-14.08 21.085867-25.540266 27.264 0.699733-2.218667-0.349867-5.819733 1.4336-9.6768 5.819733-12.603733 14.941867-24.9088 17.544533-39.552l-15.778133-8.3712c1.2288-32.145067-14.0544-57.6512-41.608534-73.6-0.785067-0.452267-2.346667 0.443733-3.2 0-0.2048-0.1024 0.162133-1.757867-3.2-3.2-24.3456-10.436267-56.5248-9.915733-80.017066 3.2-1.450667 0.810667-3.234133 0.750933-3.2 3.2-0.989867 0.290133-2.244267-0.3072-3.2 0-2.2784 0.733867-5.589333 4.1472-6.391467 3.2v-6.382934c8.6016 1.092267 8.490667-7.415467 12.817067-11.195733 20.130133-17.604267 63.274667-41.480533 86.391466-52.821333z" fill="#649E27" /><path d="M799.854933 272c-0.785067 0.6656-1.9456 2.048-3.2 3.2l-16 16c-0.7168 0.494933-2.4576-0.494933-3.2 0-6.869333 4.5824-8.0128 7.2192-12.8 12.8-27.050667 31.5392-51.8912 64.776533-76.8768 97.536-11.767467 15.428267-23.074133 31.291733-35.140266 46.464-17.262933 13.661867-35.908267 39.2192-51.1488 56.064-60.0576 66.397867-120.900267 133.853867-192.238934 188.5952-6.724267 5.162667-15.3856 9.275733-22.263466 14.5408-9.745067-1.988267-17.783467 7.330133-26.88-0.426667l-1.928534-2.773333c108.475733-85.751467 198.510933-177.570133 288.110934-283.136 5.000533-5.888 30.839467-36.590933 31.940266-40.064 11.460267-6.1696 17.826133-18.141867 25.540267-27.264 11.997867-14.1824 45.7472-50.551467 51.268267-65.536l6.4 6.4c10.513067-4.061867 17.544533-14.967467 25.685333-20.718933 2.594133-1.834667 11.3408-8.209067 12.7232-1.681067z" fill="#9ACE56" /><path d="M118.135467 652.8c-3.7376 4.096-6.007467 14.506667-6.536534 20.6592-3.720533 43.076267 10.325333 74.8032 51.345067 91.3408l-3.6864 12.16c-9.361067 1.339733-21.009067 6.058667-29.994667 6.971733-19.182933 1.937067-53.717333-4.0192-71.9872-11.0848-9.821867-3.797333-35.968-17.578667-41.7024-25.506133-4.061867-5.623467-1.3312-11.6224-6.263466-14.5408 6.843733-8.2688 12.398933-14.1824 22.4-19.2l6.365866 1.800533 84.855467-81.792-4.804267 19.2z" fill="#5D9920" /><path d="M687.837867 150.4c-15.5136-19.601067-25.1136-51.242667-4.7872-70.4 6.016-0.5888 6.382933 3.848533 8.123733 7.8592 9.1392 21.060267 14.2848 32.725333 36.701867 43.1104 11.400533-11.264 18.039467-26.248533 30.5152-36.437333 14.762667-12.049067 41.9584-29.474133 60.5184-20.7872 4.753067 21.128533-11.067733 21.597867-22.178134 30.327466-5.6832 4.462933-17.774933 14.5408-22.459733 19.1488-3.6352 3.575467-4.906667 9.463467-9.463467 12.7744 2.551467 2.389333 4.983467 6.528 8.302934 7.543467 3.072 0.9472 15.291733 3.242667 18.816 3.584 12.3136 1.2032 25.5232-1.1008 37.9392 0.469333 23.7824 12.714667 5.896533 50.696533-15.496534 47.726934-6.8864-16.136533-22.0928-19.857067-36.9152-25.728-0.264533-0.1024-0.170667-2.7392-4.573866-3.293867-5.674667-0.708267-11.972267 0.733867-17.7408 0.008533l-3.345067-17.314133-6.3232-1.809067c-9.557333 29.5424-40.0384 19.5072-62.378667 22.459734-12.868267 1.698133-31.4368 10.146133-43.264 15.9488l-10.862933-0.349867-1.937067-2.850133c20.420267-10.205867 37.9904-18.005333 60.808534-22.4 1.8944-0.366933 4.317867 0.221867 6.4 0v-4.7872c-1.058133-2.756267-5.614933-3.822933-6.4-4.8128z" fill="#96C04F" /><path d="M975.889067 179.2l-12.7488 30.208c19.208533 15.616 53.486933 8.2688 60.253866 39.0912 2.594133 11.818667-3.831467 16.256-5.9392 26.683733l-7.739733-0.2048c-13.499733-11.656533-29.354667-30.045867-44.962133-38.254933-9.070933-4.770133-19.3792-5.085867-17.134934 7.441067 2.397867 13.380267 4.061867 26.948267 5.853867 40.6272l-3.208533 76.8-4.7872-6.391467c-3.054933 4.2752-11.264 13.1072-11.2128 17.570133 0.162133 14.890667-0.546133 7.8592-5.794134 19.831467-2.5344 5.794133-1.954133 15.607467-10.205866 20.1984 0.853333-10.4448 4.386133-9.873067 5.9136-14.890667 1.501867-4.932267-1.262933-11.4176 3.6608-15.522133l-6.3744-3.191467c-4.8384 3.8656-6.2976 9.156267-9.6 14.404267 0.349867-16.1536 12.765867-31.684267 15.394133-47.010133 1.7408-10.197333 0.034133-20.983467 0.6656-31.325867 0.7424-12.0064 0.256-14.165333-0.196267-25.5232-1.1264-28.1856 0.861867-56.738133 0.145067-84.9408-0.0256-1.0752-2.5088-3.1744-2.628267-5.230933-0.238933-4.411733 3.848533-8.968533 2.628267-13.969067 5.060267-8.832 6.135467-12.782933 12.8-22.4 12.859733-8.285867 25.224533-8.8064 39.7056-6.0928 13.1072 8.209067-5.085867 11.8528-4.497067 22.0928z" fill="#8EBE4C" /><path d="M492.603733 880c1.348267 16.6656 0 29.730133-17.646933 16.290133-7.176533 4.881067-9.2928 10.120533-7.927467 18.824534 7.552-0.674133 14.293333 4.1984 19.165867 9.6768-69.265067 25.3952-122.7008 31.854933-196.770133 25.531733-16.810667-1.4336-35.933867-6.084267-52.872534-9.531733l-1.9968-2.850134-7.6032-0.349866c-1.006933-0.238933-2.2016 0.256-3.2 0l-1.9968-2.850134-7.6032-0.349866c-0.981333-0.290133-2.2272 0.298667-3.2 0l-1.885866-2.858667-4.514134-0.341333c-0.9728-0.3328-2.295467 0.349867-3.2 0 4.061867-10.282667 21.614933-6.1952 32.008534-6.4 28.117333-0.5632 55.4752-0.580267 83.217066-3.2l-19.063466 3.3536-3.345067 9.4464 27.136-0.059734c17.7664-4.1216 36.078933-7.185067 54.314667-6.161066l3.566933-6.749867c37.256533-5.102933 80.213333-23.662933 113.416533-41.4208z" fill="#8CBE49" /><path d="M9.3184 732.8c4.923733 2.909867 2.2016 8.917333 6.263467 14.5408 5.7344 7.927467 31.880533 21.7088 41.7024 25.506133 18.261333 7.0656 52.804267 13.021867 71.9872 11.0848 8.9856-0.904533 20.6336-5.623467 29.994666-6.971733l3.6864-12.16c5.290667 2.133333 16.964267 5.802667 22.4 6.4-9.198933 5.563733-4.744533 3.310933-3.370666 12.6208l-6.408534 1.8688 3.3792 17.5104c-28.253867 3.780267-57.7792 4.6848-86.4256 3.2-2.107733-0.110933-4.352 0.247467-6.4 0l-1.885866-2.8416-4.514134-0.3584c-9.8304-2.414933-19.336533-3.985067-28.8512-7.953067-21.307733-8.891733-65.1264-31.530667-46.276266-59.298133 1.544533-2.269867 4.215467-2.551467 4.7104-3.1488z" fill="#89BE40" /><path d="M290.9696 668.8c3.490133 12.0832 3.712 18.491733 8.951467 31.0528 2.722133 6.528 5.410133 18.261333 8.576 23.466667 3.490133 5.751467 10.120533-5.666133 14.481066 6.280533-9.1136 8.1152-24.2432 27.144533-28.808533 38.4l-14.626133 6.3488 1.826133 12.8512c-0.64 0.520533-2.5856-0.529067-3.2 0l-1.621333-9.617067c-9.216 2.833067-18.116267 6.442667-27.1872 9.617067l-24.439467-15.650133c-3.3536-0.759467-19.447467 9.386667-10.769067-3.549867 0.989867-0.2816 2.218667 0.290133 3.2 0 4.616533-0.238933 10.8288-1.954133 12.8-6.4 0.9216-0.375467 2.3296 0.392533 3.2 0 4.462933 0.622933 8.721067-1.8688 9.6-6.4 35.131733-19.729067 52.0192-44.407467 48.008534-86.4z" fill="#669A25" /><path d="M316.5696 486.4c-4.795733 4.497067-8.738133 10.717867-16 14.404267v1.5872c0.955733 0.8704 10.018133-2.304 12.8-3.191467v3.2c-13.312 2.082133-23.253333 13.678933-32.008533 22.4-4.334933 4.317867-7.739733 9.412267-12.8 12.8 1.015467-2.8416 6.408533-7.355733 1.604266-9.591467-8.9856 3.831467-13.806933 12.2368-20.881066 17.518934-23.185067 17.297067-51.182933 29.038933-71.936 49.672533l11.204266 3.2c-0.7424 0.110933-10.513067 2.952533-13.7472 3.8656-17.6384 4.983467-34.7648 16.384-45.3888 31.4112-1.5872 2.244267-10.973867 18.056533-11.281066 19.114667l4.804266-19.2-84.855466 81.792-6.365867-1.800534c9.130667-12.509867 21.384533-22.4256 32.068267-33.536 23.04-23.970133 45.354667-50.5344 71.8848-72.123733 28.714667-23.3728 61.559467-42.001067 91.281066-63.940267-3.677867 4.957867-5.333333 9.386667 3.293867 4.8896 14.395733-7.492267 32.085333-18.816 44.637867-28.970666 13.269333-10.7264 24.157867-28.1344 41.685333-33.527467z" fill="#81B23B" /><path d="M492.603733 291.2l12.8-4.804267-22.4 30.404267c-13.5424 14.336-27.426133 30.3616-41.608533 44.8-20.2496 20.616533-35.549867 35.0976-54.408533 57.6-20.113067 24.004267-47.035733 45.303467-70.408534 67.2-17.518933 5.393067-28.416 22.801067-41.685333 33.527467-12.561067 10.146133-30.242133 21.469867-44.637867 28.970666-8.6272 4.488533-6.971733 0.059733-3.293866-4.8896 16.597333-12.245333 33.672533-25.284267 49.672533-38.340266 81.706667-66.705067 144.247467-138.743467 215.978667-214.459734z" fill="#8ABB4B" /><path d="M214.152533 768c-8.6784 12.936533 7.415467 2.781867 10.769067 3.549867l24.439467 15.650133c-0.9472 0.3328-2.244267-0.324267-3.2 0l-4.514134 0.341333-1.885866 2.858667c-50.747733 16.4352-75.741867 19.601067-129.6128 19.191467-5.256533-0.042667-14.941867 2.3552-17.6128-3.191467 28.6464 1.476267 58.171733 0.580267 86.4256-3.2l-3.3792-17.5104 6.408533-1.8688c-1.3824-9.309867-5.8368-7.057067 3.370667-12.6208 8.3456 0.913067 20.6336-0.853333 28.808533-3.2z" fill="#74A72E" /><path d="M290.9696 777.6c-0.042667 0.170667 3.6608 0.6912 1.792 3.080533l-33.783467 43.3408c-0.3072 9.5744 3.438933 2.7648 5.870934-0.529066 3.882667-5.256533 6.587733-11.3664 13.312-13.892267-13.243733 21.845333-23.936 40.200533-43.144534 57.659733-7.7568 7.048533-24.490667 16.7936-30.754133 23.893334-2.525867 2.858667-0.674133 12.5696-9.301333 16.0512 0 0.955733 12.475733 9.6 15.0016 10.581333 6.596267 2.577067 18.184533 1.3824 23.389866 7.0144-10.3936 0.2048-27.946667-3.882667-32.008533 6.4-5.879467-2.295467-12.8512-3.9424-18.705067-6.8864-13.3376-25.480533 14.8736-34.312533 29.9776-47.453867 7.04-6.126933 18.210133-16.938667 23.995734-24.004266 12.7232-15.5392 29.9776-55.68 41.5488-65.655467 0.6144-0.529067 2.56 0.520533 3.2 0 3.3536-2.756267 8.311467-4.232533 9.6-9.6z" fill="#80B342" /><path d="M627.029333 182.4l1.937067 2.850133 10.862933 0.349867c-23.125333 11.3408-66.261333 35.217067-86.391466 52.821333-4.3264 3.780267-4.215467 12.288-12.8256 11.195734V256c0.810667 0.9472 4.1216-2.466133 6.408533-3.2-4.113067 7.825067-12.142933 12.501333-17.467733 19.336533-7.5776 9.745067-11.630933 21.358933-17.7408 31.863467l1.604266-19.2c-7.9104 5.009067-12.074667 15.095467-17.544533 20.855467-3.9936 4.1984-9.745067 7.842133-12.868267 11.136l22.4-30.404267-12.8 4.804267c43.912533-46.353067 76.381867-79.786667 134.4256-108.8z" fill="#7CAD3E" /><path d="M927.880533 204.8l-66.304 28.1088c-18.5088 13.124267-44.6976 24.610133-61.7216 39.0912-1.3824-6.528-10.129067-0.1536-12.7232 1.681067-8.1408 5.751467-15.172267 16.657067-25.685333 20.718933 17.6128-18.3808 38.007467-34.2016 59.707733-47.496533 13.474133-8.260267 31.453867-18.2528 45.858134-24.5504 27.5456-12.040533 44.194133-7.662933 60.859733-36.753067 1.2288 5.000533-2.8672 9.557333-2.628267 13.969067 0.110933 2.048 2.594133 4.155733 2.628267 5.230933z" fill="#7DAB4A" /><path d="M995.089067 163.2c1.058133-1.083733 6.852267-9.233067 6.4-9.591467-12.5184 4.189867-15.573333-14.1312-21.051734-15.778133-9.642667-2.901333-15.496533 4.881067-22.621866 8.814933-1.553067 0.853333-3.575467 0.0768-4.334934 0.554667 5.418667-11.6992 31.189333-24.507733 42.683734-21.973333 9.309867 2.048 17.3824 14.318933 24.516266 20.369066l-25.591466 17.604267z" fill="#435A25" /><path d="M953.480533 147.2c0.750933-0.477867 2.781867 0.298667 4.334934-0.554667 7.125333-3.933867 12.9792-11.716267 22.621866-8.814933 5.4784 1.646933 8.533333 19.968 21.051734 15.778133 0.452267 0.3584-5.341867 8.507733-6.4 9.591467-5.026133 5.128533-13.371733 11.306667-19.2 16-0.597333-10.24 17.604267-13.8752 4.497066-22.0928-14.481067-2.7136-26.837333-2.2016-39.7056 6.0928 4.445867-6.417067 2.107733-9.1904 12.8-16z" fill="#72973F" /><path d="M687.837867 150.4c0.785067 0.989867 5.333333 2.056533 6.391466 4.8128v4.7872c-2.0736 0.221867-4.497067-0.3584-6.391466 0v-9.6z" fill="#4D5342" /><path d="M223.752533 937.6c-4.770133-1.2032-7.662933-2.6368-9.6-3.2l7.6032 0.349867 1.9968 2.850133zM236.552533 940.8c-5.2224-1.058133-8.8832-3.029333-9.6-3.2l7.6032 0.349867 1.9968 2.850133zM210.952533 934.4c-4.846933-1.493333-6.024533-3.072-6.4-3.2l4.514134 0.341333 1.885866 2.858667z" fill="#80B342" /><path d="M246.161067 787.2c-0.375467 0.128-1.937067 1.757867-6.4 3.2l1.885866-2.858667 4.514134-0.341333z" fill="#669A25" /><path d="M86.126933 806.4c-7.074133-0.861867-6.016-3.106133-6.4-3.2l4.514134 0.3584 1.885866 2.8416z" fill="#74A72E" /><path d="M918.280533 412.8c-1.373867 16.776533-6.673067 26.3168-14.557866 41.4464-23.748267 45.559467-60.945067 93.602133-92.8 134.417067-85.717333 109.824-194.474667 225.092267-318.318934 291.336533-33.2032 17.757867-76.16 36.317867-113.416533 41.4208l-3.566933 6.749867c-18.235733-1.024-36.539733 2.039467-54.314667 6.161066l-27.136 0.059734 3.345067-9.4464 19.063466-3.3536c1.058133-0.1024 2.141867 0.068267 3.2 0 7.867733-0.4864 10.205867-2.6368 12.8-3.2 1.860267-0.401067 4.343467 0.264533 6.4 0l4.5056-0.341334c2.670933-0.7936 1.732267-2.807467 1.8944-2.858666 55.304533-16.452267 93.841067-33.271467 144.0256-60.8 106.24-58.2912 161.0752-115.285333 240.042667-204.8 9.216-5.589333 15.675733-14.276267 22.4-22.4 1.339733-1.6128 1.877333-4.753067 3.2-6.4 4.906667-6.1184 10.922667-12.526933 16-19.2 21.435733-28.168533 40.840533-58.385067 62.549333-86.263467 7.645867-9.813333 18.7136-17.024 23.867734-28.936533 14.6176-13.704533 19.5584-31.112533 28.808533-48 8.183467-14.941867 16.520533-30.370133 25.608533-44.8 3.310933-5.256533 4.770133-10.538667 9.6-14.404267l6.3744 3.191467c-4.923733 4.104533-2.167467 10.589867-3.6608 15.522133-1.527467 5.0176-5.060267 4.445867-5.9136 14.890667z" fill="#9ECE5C" /><path d="M518.203733 912l-6.4-0.008533 0.008534-1.5872 6.382933-4.804267 0.008533 6.4z" fill="#8CBE49" /><path d="M678.237867 380.8c-1.1008 3.473067-26.948267 34.176-31.940267 40.064-89.6 105.565867-179.643733 197.393067-288.110933 283.136-10.402133 8.226133-26.3936 17.749333-35.208534 25.6-4.360533-11.946667-10.990933-0.529067-14.481066-6.280533-3.157333-5.205333-5.845333-16.9472-8.576-23.466667-5.239467-12.552533-5.461333-18.961067-8.951467-31.0528-2.6368-9.1392-8.413867-28.637867-14.3872-35.3024-2.235733-2.500267-5.8624-2.338133-7.3216-3.797333-1.442133-1.442133-1.2544-5.026133-3.831467-7.2704-8.209067-7.150933-16.2816-10.359467-25.668266-14.429867-7.867733-3.413333-9.130667-5.111467-19.2-6.4l-1.937067-2.850133c-3.601067-0.861867-7.253333-0.247467-10.862933-0.349867-5.8624-0.162133-13.781333-0.785067-19.2 0l-11.204267-3.2c20.7616-20.642133 48.759467-32.384 71.936-49.672533 7.082667-5.282133 11.895467-13.687467 20.881067-17.518934 4.804267 2.244267-0.5888 6.749867-1.604267 9.591467-0.3328 0.9216 0.3072 2.2016 0 3.2-2.474667-0.017067-2.4064 1.706667-3.2 3.2-10.427733 19.720533-7.7312 44.151467 0 64 20.829867 53.461333 84.369067 73.3952 132.386133 41.156267 39.876267-26.769067 49.988267-86.058667 21.248-124.356267-16.9984-22.647467-57.335467-34.816-84.949333-32.128-8.0384 0.785067-13.559467 4.2496-20.667733 6.528-2.773333 0.896-11.844267 4.061867-12.8 3.191467v-1.5872c7.261867-3.6864 11.204267-9.9072 16-14.404267 23.381333-21.896533 50.295467-43.195733 70.408533-67.2l9.668267 1.655467c-3.191467 10.939733-12.023467 26.0608-3.268267 36.744533 0.4352 6.673067 2.432 16.452267 4.6336 22.673067 1.28 3.626667 4.565333 5.256533 4.9664 6.126933 1.706667 3.669333 1.425067 7.714133 4.881067 12.731733 14.336 20.821333 52.002133 37.5808 76.8768 35.396267 43.6224-3.822933 83.746133-40.7296 87.901866-85.051733 1.706667-18.218667-13.243733-43.656533-22.4256-59.067734 8.942933 0.128 15.4368 8.405333 24.004267 9.591467 19.592533 2.7136 45.1328-1.211733 62.336-11.272533 13.858133-8.106667 21.905067-21.742933 32.0768-33.527467 1.8432-2.133333 8.302933-3.6608 9.053867-8.5504 0.989867-7.022933 3.106133-13.098667 3.746133-20.2496 0.093867-1.0496-0.042667-2.141867 0-3.2l15.778133 8.3712c-2.602667 14.6432-11.7248 26.939733-17.544533 39.552-1.783467 3.857067-0.725333 7.458133-1.4336 9.6768z" fill="#57931C" /><path d="M633.429333 246.4l3.2 3.2c0.853333 0.443733 2.414933-0.452267 3.2 0 6.493867 9.361067 12.5184 18.056533 22.391467 24.004267l-6.519467 9.531733c6.2208 18.1504 5.572267 36.411733-4.753066 52.778667-14.762667 23.3984-45.431467 41.096533-73.6768 38.613333-16.810667-1.476267-35.336533-5.0176-49.373867-14.609067-4.625067-3.165867-7.2448-9.147733-12.885333-11.118933-5.495467-15.402667-9.642667-28.637867-3.2-44.8 6.109867-10.496 10.1632-22.1184 17.7408-31.863467 5.316267-6.843733 13.346133-11.511467 17.467733-19.336533 0.955733-0.3072 2.210133 0.290133 3.2 0 1.902933-0.5632 3.421867-0.853333 3.2-3.2 23.492267-13.115733 55.662933-13.636267 80.017067-3.2z m-76.817066 19.191467c-16.913067 2.466133-35.6096 22.818133-20.804267 38.391466 15.684267-11.613867 30.677333-15.138133 20.804267-38.391466z" fill="#B4D94B" /><path d="M681.437867 323.2c-0.042667 1.058133 0.093867 2.1504 0 3.2l-2.670934 2.039467-10.1376 26.760533c-10.180267 11.784533-18.2272 25.4208-32.0768 33.527467-17.2032 10.0608-42.743467 13.986133-62.336 11.272533-8.567467-1.186133-15.061333-9.463467-24.004266-9.591467 9.1904 15.4112 24.132267 40.849067 22.4256 59.067734-4.1472 44.322133-44.279467 81.2288-87.901867 85.051733-24.874667 2.176-62.532267-14.574933-76.8768-35.396267-3.456-5.0176-3.1744-9.0624-4.881067-12.731733l7.995734-3.2c9.540267 9.3696 21.154133 23.645867 35.217066 25.591467 21.230933 2.944 53.316267-2.6112 70.468267-15.931734 14.1056-10.9568 24.874667-35.4048 26.9312-52.949333 0.085333-0.768-0.1536-14.020267-0.3072-15.112533-2.4576-16.904533-15.470933-26.7776-9.207467-43.8528-6.314667 1.262933-8.183467-5.725867-9.472-6.5536h6.4c-8.192-9.250133-11.648-13.371733-16-25.6 5.632 1.962667 8.251733 7.953067 12.885334 11.118933 14.045867 9.591467 32.5632 13.1328 49.373866 14.609067 28.245333 2.4832 58.914133-15.214933 73.6768-38.613334 10.325333-16.366933 10.973867-34.628267 4.753067-52.778666l6.519467-9.531734c-9.873067-5.9392-15.8976-14.6432-22.391467-24.004266 27.554133 15.9488 42.837333 41.454933 41.608533 73.6z" fill="#97C33A" /><path d="M550.212267 252.8c-0.034133-2.449067 1.749333-2.389333 3.2-3.2 0.221867 2.346667-1.297067 2.6368-3.2 3.2z" fill="#7CAD3E" /><path d="M636.629333 249.6l-3.2-3.2c3.362133 1.442133 2.9952 3.0976 3.2 3.2z" fill="#97C33A" /><path d="M911.872 393.6c-9.079467 14.429867-17.416533 29.858133-25.608533 44.8l-6.408534 4.795733c3.848533-36.078933-11.229867-67.063467-41.685333-86.314666-17.749333-11.221333-32.469333-8.251733-52.718933-8.072534-5.256533 0.042667-14.941867-2.363733-17.6128 3.191467-1.1008 0.0512-2.338133-0.2304-3.2 0-5.666133-0.452267-13.1584 1.015467-16 6.4-0.9472 0.341333-2.269867-0.349867-3.2 0-8.968533 3.396267-13.0304 6.289067-19.2 12.8-3.182933 3.3536-15.3344 16.6144-16 19.2l-6.4 3.2-3.165867-1.877333c-11.374933 13.969067-17.399467 30.557867-25.984 46.336-10.043733-1.416533-14.933333 4.309333-22.058667 9.941333 12.066133-15.172267 23.381333-31.035733 35.140267-46.464 24.9856-32.759467 49.826133-66.005333 76.8768-97.536l12.8-12.8c0.7424-0.494933 2.4832 0.494933 3.2 0 7.970133-5.5552 10.410667-10.9056 16-16 1.2544-1.152 2.423467-2.5344 3.2-3.2 17.024-14.481067 43.2128-25.9584 61.7216-39.0912l66.304-28.1088c0.7168 28.202667-1.262933 56.7552-0.145067 84.9408 0.452267 11.357867 0.938667 13.508267 0.196267 25.5232-0.64 10.3424 1.0752 21.128533-0.6656 31.325867-2.619733 15.325867-15.035733 30.856533-15.394133 47.010133z" fill="#6CA72A" /><path d="M703.837867 393.6V396.8c-2.338133-0.238933-2.653867 1.288533-3.2 3.2-0.298667 1.041067 0.349867 2.346667 0 3.2l-3.2 3.2V409.6l-2.798934 1.911467c-7.543467 11.008-2.6112 23.031467-0.4096 33.288533 3.566933 16.6144 3.362133 18.7648 14.404267 31.991467 1.467733 1.757867 11.229867 8.174933 4.795733 9.608533-14.9248-8.183467-42.231467-8.021333-59.246933-6.331733-3.524267 0.349867-5.777067 2.628267-7.9616 3.131733-58.8544 13.508267-77.533867 80.9984-48.017067 129.6128L588.603733 614.4c-17.339733-8.951467-39.543467-6.536533-57.608533-3.2-4.002133 0.7424-7.594667-0.247467-12.945067 1.442133-6.0928 1.92-18.653867 10.24-23.918933 14.498134-61.678933 49.860267-23.099733 144.964267 51.345067 153.582933 36.5312 4.232533 87.697067-18.372267 96.9216-56.5504 5.4272-22.459733 4.138667-44.3136-5.777067-64.981333-1.339733-2.7904 0.213333-8.832-6.4-9.6v-3.2c0.1792 0.0256 0.2048-2.798933 3.165867-1.851734 23.790933 7.594667 42.9312 11.511467 68.795733 8.200534 18.773333-2.4064 30.856533-14.728533 43.264-27.144534 1.425067-1.4336 8.337067-11.170133 9.6-4.804266-1.322667 1.646933-1.860267 4.7872-3.2 6.4-9.378133 5.410133-15.470933 14.5408-22.4 22.4-78.967467 89.514667-133.802667 146.5088-240.042667 204.8l-19.2 6.4c-0.964267-4.292267 1.408-6.126933 3.191467-9.6 26.0096-32.878933 20.8896-90.606933-12.936533-116.6592-5.512533-4.2496-11.306667-5.632-15.863467-8.1408-3.8656-2.1248-7.125333-5.751467-12.757333-8.046934-14.72-6.007467-30.464-8.209067-44.8512-11.153066 6.877867-5.265067 15.5392-9.378133 22.263466-14.5408 71.330133-54.741333 132.181333-122.205867 192.238934-188.5952 15.240533-16.8448 33.885867-42.3936 51.1488-56.064 7.125333-5.640533 12.014933-11.357867 22.058666-9.941334 8.584533-15.7696 14.600533-32.3584 25.984-46.336l3.165867 1.877334z" fill="#5B9419" /><path d="M386.986667 707.2c14.378667 2.935467 30.1312 5.137067 44.8512 11.153067 5.640533 2.304 8.900267 5.922133 12.757333 8.046933-11.810133-2.389333-25.079467-11.204267-36.855467-12.7488-36.181333-4.753067-79.377067 13.166933-90.589866 50.1248-1.2288 4.0448-6.818133 35.4816-6.545067 37.358933 0.452267 3.012267 4.292267 6.6816 5.435733 10.606934 3.2768 11.246933 1.0496 13.866667 10.077867 25.1136 23.850667 29.7216 59.758933 30.728533 92.945067 16.008533 2.56-1.134933 14.1312-7.5776 15.266133-8.738133 1.442133-1.4592 1.570133-5.179733 3.652267-7.458134 3.234133-3.549867 8.081067-4.5056 11.374933-7.9104 5.768533-5.956267 17.732267-38.186667 17.0752-45.815466-1.066667-12.4416-14.711467-27.938133-12.535467-41.847467-0.384-1.749333-1.578667-2.628267-2.9696-3.5584-4.829867-3.234133-8.311467-0.059733-6.331733-11.136 4.5568 2.5088 10.350933 3.8912 15.863467 8.1408 33.826133 26.052267 38.946133 83.7888 12.936533 116.6592-15.035733 19.012267-60.8512 40.123733-84.932267 38.545067-48.896-3.2-99.925333-53.512533-84.667733-104.123734l-6.4256-1.621333-3.2 3.2c-0.4864 0.785067 0.494933 2.491733 0 3.2L278.1696 806.4c-0.4608 0.8192 0.469333 2.423467 0 3.2-6.724267 2.525867-9.429333 8.635733-13.312 13.892267-2.440533 3.3024-6.186667 10.103467-5.870933 0.529066l33.783466-43.3408c1.8688-2.389333-1.834667-2.909867-1.792-3.080533 0.503467-2.0736 2.3552-7.5264 3.2-9.6 4.565333-11.255467 19.6864-30.2848 28.808534-38.4 8.814933-7.850667 24.8064-17.373867 35.208533-25.6l1.928533 2.773333c9.088 7.7568 17.134933-1.5616 26.88 0.426667z" fill="#9BC43A" /><path d="M764.6464 304c4.7872-5.5808 5.930667-8.2176 12.8-12.8l-12.8 12.8zM780.654933 291.2l16-16c-5.589333 5.0944-8.029867 10.4448-16 16z" fill="#7DAB4A" /><path d="M239.752533 608c9.386667 4.0704 17.4592 7.2704 25.668267 14.429867 2.577067 2.2528 2.389333 5.828267 3.831467 7.2704 1.450667 1.4592 5.085867 1.297067 7.3216 3.797333 5.973333 6.664533 11.7504 26.171733 14.3872 35.3024 4.010667 41.992533-12.8768 66.670933-48.008534 86.4-3.029333 1.698133-8.763733 6.024533-9.6 6.4-0.878933 0.392533-2.2784-0.375467-3.2 0-4.309333 1.7664-12.091733 6.1952-12.8 6.4-0.981333 0.290133-2.218667-0.2816-3.2 0-8.1664 2.346667-20.462933 4.113067-28.808533 3.2-5.444267-0.597333-17.109333-4.266667-22.4-6.4-41.019733-16.529067-55.0656-48.264533-51.345067-91.3408 0.529067-6.152533 2.798933-16.5632 6.536534-20.6592-2.670933 9.070933 0.622933 48.2304 3.771733 58.624 5.367467 17.723733 27.067733 38.109867 45.883733 40.516267 35.029333 4.48 69.410133-9.045333 91.221334-36.6848 17.604267-22.306133 17.902933-58.376533 1.4592-81.578667-6.109867-8.618667-17.7664-14.139733-20.718934-25.685333z" fill="#9BC539" /><path d="M297.3696 784l6.4256 1.621333c-15.2576 50.6112 35.771733 100.923733 84.667733 104.123734 24.081067 1.570133 69.896533-19.541333 84.932267-38.545067-1.783467 3.473067-4.155733 5.307733-3.191467 9.6l19.2-6.4c-50.184533 27.528533-88.721067 44.347733-144.0256 60.8l-4.522666 0.401067-1.885867 2.798933c-2.056533 0.264533-4.539733-0.401067-6.4 0l-10.862933 0.349867-1.937067 2.850133c-1.058133 0.068267-2.141867-0.1024-3.2 0-27.741867 2.619733-55.099733 2.6368-83.217067 3.2-5.205333-5.632-16.7936-4.437333-23.389866-7.0144-2.525867-0.989867-15.010133-9.634133-15.0016-10.581333 8.6272-3.473067 6.775467-13.184 9.301333-16.0512 6.263467-7.099733 22.9888-16.836267 30.754133-23.893334 19.208533-17.4592 29.9008-35.8144 43.144534-57.659733 0.469333-0.776533-0.4608-2.3808 0-3.2 6.929067-3.6096 11.6224-9.770667 16-16 0.494933-0.708267-0.4864-2.414933 0-3.2 0.264533-0.426667 3.6096-0.571733 3.2-3.2z" fill="#6BA42A" /><path d="M294.1696 768c-0.8448 2.0736-2.696533 7.5264-3.2 9.6-1.288533 5.367467-6.2464 6.843733-9.6 9.6l-1.826133-12.8512 14.626133-6.3488z" fill="#ACD38B" /><path d="M233.352533 761.6c0.8448-0.375467 6.5792-4.701867 9.6-6.4-0.878933 4.5312-5.137067 7.022933-9.6 6.4zM230.152533 761.6c-1.979733 4.445867-8.183467 6.161067-12.8 6.4 0.708267-0.2048 8.490667-4.6336 12.8-6.4z" fill="#74A72E" /><path d="M207.752533 598.4l1.937067 2.858667c3.541333 1.083733 7.483733-0.085333 10.862933 0.341333 10.069333 1.288533 11.3408 2.986667 19.2 6.4 2.952533 11.5456 14.609067 17.066667 20.718934 25.685333 16.443733 23.1936 16.1536 59.264-1.4592 81.578667-21.8112 27.639467-56.192 41.173333-91.221334 36.6848-18.816-2.4064-40.5248-22.792533-45.883733-40.516267-3.1488-10.402133-6.442667-49.553067-3.771733-58.624 0.315733-1.066667 9.693867-16.8704 11.281066-19.114666 10.615467-15.0272 27.7504-26.427733 45.3888-31.4112 3.234133-0.913067 13.0048-3.7632 13.7472-3.8656 5.4272-0.785067 13.3376-0.162133 19.2 0z" fill="#BCDE4D" /><path d="M418.986667 524.8c-1.211733 12.663467 1.7152 27.758933 0 40.004267-0.4352 3.106133-6.340267 20.3008-7.876267 24.123733-7.893333 19.5328-21.137067 33.962667-40.260267 42.948267-14.779733 6.946133-46.5664 12.177067-61.824 7.662933-2.568533-0.759467-4.488533-4.266667-7.5008-5.3248-5.051733-1.774933-17.442133-2.116267-19.694933-4.48-0.810667-0.853333-0.0256-3.754667-1.1264-4.932267-1.5616-1.681067-5.632-1.339733-7.441067-3.831466-2.6368-3.6352-0.64-11.767467-7.9104-12.970667-7.7312-19.848533-10.427733-44.279467 0-64 2.3552 0.196267 2.619733-1.3056 3.2-3.2 0.3072-0.9984-0.3328-2.2784 0-3.2 5.0688-3.387733 8.465067-8.482133 12.8-12.8l-9.352533 26.794667c5.589333 5.060267 6.8096 15.931733 15.752533 14.813866 0.315733-19.652267 18.952533-29.934933 34.4064-37.76 5.128533-2.594133 6.485333 1.578667 10.3936-8.661333 3.003733-7.850667-7.714133-3.328-9.378133-4.9664l-3.268267-11.195733-6.536533-1.416534v-3.2c7.108267-2.286933 12.629333-5.751467 20.667733-6.528 27.613867-2.679467 67.950933 9.480533 84.949334 32.128z" fill="#B4D64E" /><path d="M313.3696 502.4l6.536533 1.416533 3.268267 11.195734c1.664 1.6384 12.381867-2.8928 9.378133 4.9664-3.908267 10.24-5.265067 6.0672-10.3936 8.661333-15.453867 7.816533-34.090667 18.107733-34.4064 37.76-8.942933 1.117867-10.1632-9.7536-15.752533-14.813867l9.352533-26.794666c8.7552-8.721067 18.688-20.317867 32.008534-22.4z" fill="#C1DF5E" /><path d="M511.803733 304c-6.442667 16.162133-2.286933 29.397333 3.2 44.8 4.360533 12.228267 7.808 16.349867 16 25.591467h-6.4c-21.614933-13.841067-49.527467-10.8288-73.617066-6.391467-3.959467 1.117867-2.986667 3.114667-3.2 3.2-0.964267 0.375467-2.389333-0.4096-3.2 0l-3.2 3.2h-3.2l-3.217067-1.621333 0.221867-2.9184 6.186666-8.251734c14.1824-14.4384 28.066133-30.464 41.608534-44.8 3.114667-3.3024 8.874667-6.9376 12.868266-11.136 5.469867-5.76 9.642667-15.8464 17.544534-20.855466l-1.604267 19.2z" fill="#5A9321" /><path d="M438.1952 374.4c-5.230933 9.045333-15.214933 12.228267-22.459733 20.744533-14.2336 16.7424-23.799467 40.354133-22.3488 62.455467-8.7552-10.683733 0.0768-25.8048 3.268266-36.744533l-9.668266-1.655467c18.858667-22.5024 34.158933-36.983467 54.408533-57.6l-6.186667 8.251733-0.221866 2.9184 3.217066 1.621334z" fill="#77A727" /><path d="M767.8464 352c2.670933-5.5552 12.356267-3.1488 17.6128-3.191467 20.241067-0.1792 34.961067-3.1488 52.718933 8.072534 30.455467 19.2512 45.533867 50.235733 41.685334 86.314666l6.408533-4.795733c-9.250133 16.887467-14.190933 34.295467-28.808533 48-5.111467 4.795733-18.2528 18.312533-22.4256 20.770133-1.860267 1.1008-19.6608 8.029867-20.778667 8.029867H763.050667c-0.554667 0-11.716267-8.157867-7.9872 1.578667s14.609067 22.101333 15.982933 32.0256c1.8688 13.508267 1.7408 37.768533-4.949333 49.442133l4.949333 3.3536c-5.077333 6.673067-11.093333 13.0816-16 19.2-1.262933-6.3744-8.174933 3.370667-9.6 4.804267-12.407467 12.424533-24.482133 24.738133-43.264 27.144533-25.856 3.319467-44.996267-0.605867-68.795733-8.200533-2.961067-0.9472-2.986667 1.877333-3.165867 1.851733-1.066667-0.1536-5.597867-2.4832-6.4-3.2-11.178667-9.9328-20.8384-21.376-35.208533-28.8l9.6-1.5872c-29.5168-48.6144-10.837333-116.096 48.017066-129.6128-3.140267 7.227733-22.792533 14.1568-25.0368 16.768-0.964267 1.117867-0.093867 4.3008-1.024 5.026133-2.116267 1.6384-7.3216-0.375467-10.8544 3.694934-0.6912 0.7936-10.2912 17.2032-10.589866 18.210133-3.421867 11.426133-2.133333 26.410667-6.869334 37.896533 2.5344 18.013867 12.629333 30.276267 22.2208 44.9536 24.9088 6.2464 42.4448 14.72 68.3008 7.185067 41.070933-11.972267 72.5504-48.298667 62.549334-93.218133-0.298667-1.3568-11.025067-21.794133-12.091734-23.108267-1.237333-1.527467-16.896-12.842667-19.396266-14.208 6.4256-1.425067-3.328-7.842133-4.795734-9.608533-11.042133-13.2352-10.837333-15.3856-14.404266-31.991467l3.2-35.2v-3.2c2.5344 0.273067 2.500267-1.518933 3.2-3.2 0.349867-0.853333-0.298667-2.158933 0-3.2l3.2-3.2v-3.2l6.4-3.2c-2.466133 21.563733-12.9024 49.4336-1.655467 70.4512 0.384 0.725333 8.328533 11.6224 8.900267 12.1088 2.619733 2.210133 8.0128-1.527467 5.572266 10.248533 14.8736-16.0768 27.093333 1.501867 40.5504 2.628267 2.619733 0.221867 23.620267-2.0224 28.253867-2.628267 4.4544-0.5888 29.576533-14.301867 33.4848-17.7152 11.5712-10.120533 21.3248-38.545067 18.705067-53.674666-4.181333-24.183467-23.808-42.171733-46.327467-49.672534-3.575467-1.194667-8.1664 0.119467-11.835733-0.964266-6.0416-1.792-5.077333-9.728-18.030934-9.173334z" fill="#9DC439" /><path d="M771.054933 601.6l-4.949333-3.3536c6.690133-11.682133 6.818133-35.9424 4.949333-49.442133-1.373867-9.924267-12.424533-22.741333-15.982933-32.0256s7.432533-1.578667 7.9872-1.578667h51.208533c1.117867 0 18.9184-6.929067 20.778667-8.029867 4.1728-2.466133 17.314133-15.982933 22.4256-20.770133-5.154133 11.912533-16.221867 19.1232-23.867733 28.936533-21.7088 27.8784-41.1136 58.0864-62.549334 86.263467z" fill="#60911C" /><path d="M332.5696 918.4c-2.594133 0.5632-4.932267 2.7136-12.8 3.2l1.937067-2.850133 10.862933-0.349867zM345.378133 915.2c-0.162133 0.0512 0.776533 2.065067-1.8944 2.858667l-4.5056 0.341333 1.885867-2.798933 4.522667-0.401067z" fill="#8CBE49" /><path d="M729.4464 649.6c6.9376-7.8592 13.021867-16.989867 22.4-22.4-6.724267 8.123733-13.184 16.810667-22.4 22.4z" fill="#9DC439" /><path d="M524.603733 374.4c1.297067 0.827733 3.157333 7.816533 9.472 6.5536-6.263467 17.066667 6.749867 26.948267 9.207467 43.8528 0.162133 1.092267 0.401067 14.344533 0.3072 15.112533-2.056533 17.536-12.8256 41.992533-26.9312 52.949334-17.152 13.320533-49.245867 18.875733-70.468267 15.931733-14.062933-1.954133-25.6768-16.221867-35.217066-25.591467l-7.995734 3.2c-0.4096-0.8704-3.6864-2.5088-4.9664-6.126933-2.193067-6.2208-4.189867-15.991467-4.6336-22.673067-1.450667-22.101333 8.1152-45.713067 22.3488-62.455466 7.2448-8.516267 17.2288-11.6992 22.459734-20.744534h3.2l3.2-3.2c0.810667-0.4096 2.235733 0.375467 3.2 0l3.2-3.2c24.0896-4.437333 52.002133-7.4496 73.617066 6.4z" fill="#B9DB52" /><path d="M265.361067 608c7.2704 1.194667 5.2736 9.326933 7.9104 12.970667 1.809067 2.500267 5.879467 2.158933 7.441066 3.831466 1.092267 1.1776 0.3072 4.078933 1.1264 4.932267 2.2528 2.363733 14.6432 2.7136 19.694934 4.48 3.003733 1.058133 4.923733 4.565333 7.5008 5.3248 15.2576 4.514133 47.044267-0.7168 61.824-7.662933 19.1232-8.9856 32.366933-23.415467 40.260266-42.948267 1.544533-3.822933 7.4496-21.0176 7.876267-24.123733 1.706667-12.245333-1.211733-27.332267 0-40.004267 28.740267 38.306133 18.628267 97.5872-21.248 124.356267-48.017067 32.238933-111.556267 12.296533-132.386133-41.156267z" fill="#98C238" /><path d="M668.629333 355.2l10.1376-26.760533 2.670934-2.039467c-0.64 7.1424-2.747733 13.226667-3.746134 20.2496-0.750933 4.898133-7.2192 6.4256-9.053866 8.5504z" fill="#649E27" /><path d="M556.612267 265.591467c9.873067 23.2448-5.111467 26.7776-20.804267 38.391466-14.805333-15.573333 3.8912-35.9168 20.804267-38.391466z" fill="#C5E46F" /><path d="M767.8464 352c12.9536-0.554667 11.989333 7.381333 18.030933 9.173333 3.669333 1.083733 8.251733-0.221867 11.835734 0.964267 22.519467 7.5008 42.146133 25.489067 46.327466 49.672533 2.619733 15.121067-7.133867 43.5456-18.705066 53.674667-3.908267 3.421867-29.038933 17.1264-33.4848 17.7152-4.642133 0.6144-25.634133 2.850133-28.253867 2.628267-13.457067-1.1264-25.6768-18.705067-40.5504-2.628267 2.440533-11.776-2.952533-8.029867-5.572267-10.248533-0.571733-0.4864-8.516267-11.383467-8.900266-12.1088-11.246933-21.0176-0.810667-48.887467 1.655466-70.4512 0.674133-2.5856 12.817067-15.8464 16-19.2l4.317867-0.469334c4.701867-4.488533 12.731733-6.1696 14.882133-12.330666 0.930133-0.349867 2.2528 0.341333 3.2 0 4.727467-1.698133 13.585067-5.76 16-6.4 0.861867-0.2304 2.0992 0.0512 3.2 0z" fill="#B8D94E" /><path d="M726.2464 371.2c6.1696-6.510933 10.24-9.403733 19.2-12.8-2.158933 6.161067-10.180267 7.842133-14.882133 12.330667l-4.317867 0.469333zM764.6464 352c-2.414933 0.64-11.272533 4.701867-16 6.4 2.8416-5.384533 10.333867-6.852267 16-6.4z" fill="#9DC439" /><path d="M588.6208 614.4c14.370133 7.424 24.021333 18.8672 35.208533 28.8-0.64 9.770667 4.010667 17.1008 3.345067 27.323733-1.911467 29.269333-25.890133 60.194133-51.490133 73.344-24.951467 12.817067-62.839467 13.8752-86.1952-3.157333-6.715733-4.898133-18.0736-21.376-18.7136-29.2608-0.2816-3.396267 2.4064-6.186667 2.525866-9.122133 0.256-6.3232-0.64-13.124267 0.145067-19.072 1.954133-14.813867 12.757333-36.445867 23.825067-46.574934 4.462933-4.087467 11.886933-4.864 13.960533-6.852266 1.4336-1.373867 1.6384-6.2208 5.188267-9.198934 7.022933-5.879467 16.477867 1.5616 14.583466-9.429333 18.065067-3.336533 40.2688-5.751467 57.608534 3.2z" fill="#BAD94F" /><path d="M713.437867 486.4c2.491733 1.365333 18.1504 12.680533 19.396266 14.208 1.066667 1.314133 11.784533 21.751467 12.091734 23.108267 10.001067 44.919467-21.486933 81.245867-62.549334 93.218133-25.856 7.534933-43.392-0.938667-68.3008-7.185067-9.591467-14.6688-19.677867-26.939733-22.2208-44.9536 4.736-11.485867 3.447467-26.4704 6.869334-37.896533 0.298667-1.006933 9.898667-17.416533 10.589866-18.210133 3.5328-4.0704 8.746667-2.056533 10.8544-3.694934 0.930133-0.7168 0.059733-3.899733 1.024-5.026133 2.244267-2.6112 21.896533-9.540267 25.0368-16.768 2.184533-0.503467 4.445867-2.781867 7.9616-3.131733 17.015467-1.6896 44.322133-1.851733 59.246934 6.331733z m-76.817067 25.591467c-1.3568-1.570133-21.0688 3.182933-21.981867 8.430933l-7.022933 28.3648 10.0096 20.625067c41.0368 5.8368 21.742933-33.408 19.003733-57.412267z" fill="#BBDF4F" /><path d="M531.012267 611.2c1.8944 10.990933-7.560533 3.549867-14.583467 9.429333-3.549867 2.9696-3.754667 7.825067-5.188267 9.198934-2.0736 1.988267-9.4976 2.7648-13.960533 6.852266-11.067733 10.129067-21.870933 31.761067-23.825067 46.574934-0.785067 5.947733 0.110933 12.7488-0.145066 19.072-0.119467 2.935467-2.807467 5.725867-2.525867 9.122133 0.648533 7.8848 11.997867 24.362667 18.7136 29.2608 23.355733 17.032533 61.243733 15.9744 86.1952 3.157333 25.6-13.149867 49.578667-44.074667 51.490133-73.344 0.6656-10.2144-3.985067-17.544533-3.345066-27.323733 0.802133 0.7168 5.333333 3.0464 6.4 3.2v3.2l6.4 9.6c9.915733 20.6592 11.204267 42.513067 5.777066 64.981333-9.216 38.178133-60.381867 60.7744-96.9216 56.5504-74.4448-8.618667-113.015467-103.722667-51.345066-153.582933 5.2736-4.258133 17.834667-12.5696 23.918933-14.498133 5.3504-1.6896 8.942933-0.708267 12.945067-1.442134z" fill="#9EC63C" /><path d="M694.237867 444.8c-2.2016-10.257067-7.1424-22.280533 0.4096-33.288533l2.798933-1.911467-3.2 35.2z" fill="#6CA72A" /><path d="M636.629333 659.2l-6.4-9.6c6.613333 0.768 5.060267 6.8096 6.4 9.6z" fill="#9DC439" /><path d="M700.637867 400c0.546133-1.911467 0.861867-3.438933 3.2-3.2l-3.2 3.2zM697.437867 406.4l3.2-3.2c-0.699733 1.681067-0.6656 3.473067-3.2 3.2z" fill="#6CA72A" /><path d="M444.5952 726.4c-1.979733 11.076267 1.501867 7.901867 6.331733 11.136 1.390933 0.930133 2.5856 1.8176 2.9696 3.5584-2.176 13.909333 11.4688 29.405867 12.535467 41.847467 0.657067 7.6288-11.3152 39.8592-17.0752 45.815466-3.293867 3.4048-8.1408 4.360533-11.374933 7.9104-2.082133 2.2784-2.210133 6.007467-3.652267 7.458134-1.143467 1.152-12.706133 7.594667-15.266133 8.738133-33.186133 14.711467-69.0944 13.704533-92.945067-16.008533-9.028267-11.246933-6.801067-13.866667-10.077867-25.1136-1.143467-3.925333-4.983467-7.594667-5.435733-10.606934-0.2816-1.877333 5.316267-33.314133 6.545067-37.358933 11.2128-36.957867 54.408533-54.869333 90.589866-50.1248 11.776 1.544533 25.053867 10.350933 36.855467 12.7488zM350.549333 739.5072c-6.033067 1.834667-27.323733 30.4128-26.9824 36.573867 22.109867 24.738133 34.2784-9.2928 50.372267-22.741334 3.805867-10.564267-16.7936-15.837867-23.389867-13.832533z" fill="#B5DA4C" /><path d="M278.161067 806.4l16-16c-4.3776 6.229333-9.070933 12.3904-16 16zM294.1696 787.2l3.2-3.2c0.4096 2.628267-2.935467 2.773333-3.2 3.2z" fill="#80B342" /><path d="M220.552533 601.6c-3.3792-0.4352-7.3216 0.7424-10.862933-0.341333l-1.937067-2.858667c3.6096 0.1024 7.261867-0.512 10.862934 0.349867l1.937066 2.850133zM265.361067 544c0.7936-1.493333 0.725333-3.217067 3.2-3.2-0.580267 1.8944-0.8448 3.396267-3.2 3.2z" fill="#81B23B" /><path d="M441.3952 374.4l3.2-3.2-3.2 3.2zM447.7952 371.2c0.213333-0.085333-0.759467-2.082133 3.2-3.2l-3.2 3.2z" fill="#77A727" /><path d="M636.6208 511.991467c2.7392 24.004267 22.033067 63.249067-19.003733 57.412266l-10.0096-20.625066 7.022933-28.3648c0.913067-5.248 20.625067-9.992533 21.981867-8.430934z" fill="#C4E56B" /><path d="M350.549333 739.5072c6.587733-2.005333 27.195733 3.2768 23.389867 13.832533-16.093867 13.448533-28.2624 47.470933-50.372267 22.741334-0.341333-6.161067 20.949333-34.7392 26.9824-36.573867z" fill="#C3E374" /></svg>