<?xml version="1.0" standalone="no"?><!DOCTYPE svg PUBLIC "-//W3C//DTD SVG 1.1//EN" "http://www.w3.org/Graphics/SVG/1.1/DTD/svg11.dtd"><svg class="icon" width="256px" height="256.00px" viewBox="0 0 1024 1024" version="1.1" xmlns="http://www.w3.org/2000/svg"><path d="M646.838246 975.274986c-1.663986 1.390922-3.703435 2.858642-5.768484 4.044766l-3.063441 1.749318c-0.614395 0.349864-1.851718 0.750927-2.483179 0.887459 0.068266-0.247465 0.819193-1.407988 1.211723-1.629852l2.585578-1.450655 5.640486-3.302372c0.383997-0.230398 1.681052-0.332797 1.868784-0.298664zM658.767745 966.340662l-1.860251 1.740785a42.610839 42.610839 0 0 1-3.58397 3.029308l-2.69651 2.013849c-0.375463 0.281598-1.51892 0.742394-1.851718 0.844793l-0.836259-2.047982c0.699727 0.230398 1.015458 0.332797 1.279989 0.435196 0.162132 0.059733 3.259706-1.885851 4.036232-2.508779l4.957825-3.959433 0.554662 0.460796z" fill="#F5EFC0" /><path d="M716.358723 798.235421v-5.401554l0.665594-0.563195 0.034133 5.410087-0.699727 0.554662zM715.863794 808.17667c0.034133-1.058124-0.136532-2.500245-0.230398-4.087432l0.725327-0.546128v4.095965l-0.494929 0.546129z" fill="#F3EAB2" /><path d="M632.237837 983.714381l-1.979717 0.86186 0.870393-1.638387 1.109324 0.776527z" fill="#F5EFC0" /><path d="M713.875544 832.692729c0.034133-0.588795-0.145065-1.663986-0.255998-2.764776l0.750927-0.546129v2.781843l-0.494929 0.537595zM715.198199 818.117919l-0.238931-3.430371 0.699727-0.597328c-0.034133 0.947192 0.017067 1.996783 0.042667 3.490104l-0.503463 0.546129zM714.549672 824.73973c0.0256-0.605862-0.153599-1.655453-0.255998-2.781843l0.776526-0.529062-0.042666 2.781843-0.477862 0.529062z" fill="#F3EAB2" /><path d="M634.012755 269.420707l1.860251 8.371129 1.356788 6.135415 1.279989 5.256489 2.653844 11.127372 1.066658 4.71036 1.450654 6.101282 1.57012 5.777017c0.324264 1.194657 0.708261 2.508779 0.83626 3.498637l0.426663 3.208506c0.44373 1.092257 0.853326 2.201581 1.20319 3.413305l1.510387 5.205289c1.945583 6.690077-0.435196 5.068757 1.809051 10.137514l0.802127 5.623419 0.836259 4.957825c0.247465 1.450654 0.554662 2.764777 0.913059 4.147164l0.767994 2.978108c1.587187 1.817585 2.730644 4.300764 2.440513 6.72421l-0.170666 1.407988c-2.184515 2.790376-0.853326 6.434079-0.401063 9.941249l1.527454 11.989232c0.187732 1.459188 0.307197 3.182906 0.31573 4.445829l0.034133 5.461287c0 1.314122 0.349864 2.687977 1.075191 3.967966l0.187732 15.735333 0.110932 28.569358c0.699727 2.961042 0.36693 5.657552 0.145066 8.66126-0.179198 2.321047-0.0512 4.795693-0.008533 7.142339l0.059732 3.908234 0.017067 4.966358 0.034133 3.310905 0.0256 3.729035 0.119465 2.961041c0.230398 5.930616-0.230398 3.08904-0.298664 8.482062l-0.401063 32.306926-0.921592 6.408479-0.119466 7.611668-0.093866 6.075682c-0.0256 1.62132-0.494929 3.618103-0.895992 5.137023l-0.127999 3.473037-0.546129 15.086806-0.861859 6.203681-0.34133 13.789749-0.998392 8.482062-0.196265 6.101281c-0.127999 3.933833-0.921592 7.560469-0.989858 8.763659l-0.614395 11.699101-0.83626 5.239422c-0.546129 3.438904-0.281598 6.638877-0.674127 10.000982l-0.563195 4.778626-0.085333 3.839968-0.281598 15.948664c-0.0256 1.305589-0.187732 2.74771-0.375463 3.993566l-0.648528 4.189831c-0.426663 2.764777 0.264531 12.398828-1.305589 17.262787l-0.358397 14.933207-0.998391 4.650627-0.383997 15.692667c-0.452263 0.972792-0.998392 2.517312-1.015458 3.404771l-0.238932 11.844166c-0.460796 1.843184-0.861859 3.839967-0.921592 5.657552l-0.494929 13.747084c-1.655453 5.316222-0.554662 5.853817-1.740785 13.661751-0.170665 1.109324-0.34133 2.397846-0.41813 3.558369l-0.639994 9.113523c-0.102399 1.407988-0.75946 3.327972-0.83626 4.76156-0.119466 2.346647-0.170665 4.488495-0.435196 6.570611l-0.930126 7.372737-1.032524 7.415404-0.494929 3.131707-0.631462 4.019165-0.571728 4.0277-0.725327 5.333288-0.699728 5.256488c-0.947192 7.099673-3.071974 13.823883-3.942366 19.054772l-0.776527 4.68476-0.793593 4.360497c-0.529062 2.892775-1.339722 5.657552-2.150382 8.516194l-3.404771 12.057498-2.099182 6.340213-2.150382 6.263413c-0.546129 1.587187-1.22879 3.19144-1.902917 4.770093l-1.67252 3.8997-2.756243 5.725818-1.93705 3.925301-2.244248 4.462895-1.655452 3.609569-4.095966 7.11674-4.053299 6.613277-3.950899 6.024482-3.55837 5.10289c-1.305589 1.868784-2.952508 3.686369-4.428763 5.427154l-3.310905 3.899701c-1.535987 1.809051-3.123174 3.498637-4.787159 5.239422l-4.573828 4.770093c-1.220256 1.279989-2.338113 2.559978-3.635169 3.677835l-6.101282 5.239422-3.805834 2.790377c-1.979717 1.450654-3.720502 2.918375-5.768485 4.24103l-3.498637 2.252781a54.595804 54.595804 0 0 1-4.701826 2.705044l-5.734352 2.909842-5.700218 2.875709c-1.314122 0.665594-2.585578 1.553053-3.404771 2.508779-1.945583-0.110932-4.556761 0.477863-6.707143 0.477862l-23.219003 0.0256-77.396677 0.085333c-1.194657 0-2.679444 0.273064-3.430371 0.162132-18.858507-2.875709-37.179418-11.084706-52.462488-23.082471l-7.14234-5.606353c-7.005807-5.49542-15.33427-14.796674-20.761423-22.041413-2.815976-3.763168-5.196756-7.645802-7.714068-11.630834-14.540677-23.039805-19.720366-52.641687-22.47661-79.495859l-1.774918-17.288387-1.271456-17.894248-1.032524-27.536833c-0.034133-0.827726-0.477863-2.423446-0.554662-2.892776 0.742394-1.715185 0.213332-3.942367 0.196265-6.118348l-0.315731-44.262024-0.127999-17.928381-0.315731-7.423937-0.042666-174.001724 0.221865-3.507171c0.264531-4.189831-0.0512-8.24313-0.085333-12.518293l-0.187731-23.227537 0.435196-4.932225 0.0256-99.659954 0.255997-8.004199 2.201582-0.725327 0.78506 3.404771c3.882634 1.868784 0.486396 0.802127 3.345038 5.256489l2.602645 4.061832c0.358397 0.989858 0.742394 2.005316 1.143457 2.815976l5.41862 11.059106c0.827726 5.043157 0.273064 1.467721 3.225573 7.748201l2.525845 5.367421 1.467721 3.123174 2.961042 6.33168c2.167448 4.642094 2.713577 7.50927 6.835142 9.122055 0.895992 0.349864 3.182906-1.578653 3.191439-2.687977l0.0256-16.537459 0.989858-4.565295 0.580262-13.226554c1.587187-3.53277 0.716794-6.476745 1.484787-12.29643 0.093866-0.73386 0.75946-2.32958 0.81066-3.012241l0.452263-7.116739 0.853326-3.464504 0.332797-7.022874 1.006925-2.35518 0.375464-6.348746 0.836259-2.269848 0.426663-7.057006a34.738905 34.738905 0 0 0 1.186123-4.744493l0.742394-4.189832 0.913059-5.162622 1.015458-5.922083 0.699728-4.104499 1.023991-6.485278c0.093866-0.597328 0.503462-1.860251 0.708261-2.628245l1.143456-4.181298c0.264531-0.972792 0.435196-3.327972 0.597329-4.326363-0.307197 1.919984 2.099182-6.340213 2.065049-6.041549 0.460796-4.514095 0.349864-8.942857 0.187732-13.158288l-1.390922-3.430371-1.356788-3.285305-2.815976-6.553545c-0.503462-1.160523-0.938659-2.577045-1.382389-3.857034l-1.20319-3.48157-1.373855-3.942367-1.382388-3.933833c-0.44373-1.254389-0.682661-2.705044-1.10079-4.232497l-0.674128-2.449046c-0.383997-1.399455-0.230398-4.573828-0.716794-5.973283l-0.802127-2.278381-0.537595-7.697001c-0.042666-0.580262-0.767993-2.184515-0.989858-2.739177l0.017066-19.891031 1.100791-2.645311 0.298664-11.605235c0.008533-0.358397 0.767993-1.698119 0.827726-1.834651l0.554662-6.348746c2.073582-4.113032 0-0.878926 2.124782-7.628735 0.213332-0.691194 0.230398-2.235714 0.170666-2.952509 0.247465-0.708261 0.750927-2.107715 1.194656-2.69651l6.101282-8.132198 5.555152-7.8762c0.119466-0.230398 1.860251 0.383997 1.860251 0.998392l0.042667 14.190813c0 0.699727-0.955725 2.449046-1.049591 3.071974-0.204798 1.373855-0.281598 3.933833-0.358397 5.785551-0.034133 0.75946-0.887459 2.551445-0.981325 3.336505-0.529062 4.403163 0.196265 6.835142-1.356789 9.301254l-0.281597 29.610416c-0.008533 1.143457 0.588795 2.542912 0.836259 3.626636 0.375463 1.655453 0.358397 3.677835 0.486396 5.802617 0.068266 1.169057 0.776527 2.69651 0.955725 4.053299l0.631462 4.829826 1.46772 4.863958 1.314123 3.814368c2.01385 5.845284-0.085333 2.116249 1.783451 7.082607l1.501854 4.002099c0.349864 0.930125 1.211723 2.047983 2.184515 3.362105l1.809051-2.261314 1.211723-4.189831c0.375463-1.305589 0.895992-2.739177 1.416522-3.967967l1.169056-2.74771 0.86186-2.926908 2.133315-4.804226 1.211723-2.756244 1.211723-2.72211c0.273064-0.622928 0.665594-2.099182 0.887459-2.781843 3.131707-5.700218 0.793593-2.833043 3.865567-9.096456l2.175982-4.445829 2.653844-5.375954 3.788768-7.449537c0.196265-0.39253 0.563195-1.117857 0.75946-1.416521l2.491712-3.908234 1.59572-2.645311 2.210115-3.652236 1.800518-2.978108c0.904526-1.493321 1.698119-3.217039 2.35518-4.966358 0.588795-0.998392 2.483179-2.764777 3.06344-3.839967l1.186124-2.210115 2.551445-3.626635 2.423446-3.455971 2.72211-3.626636 3.55837-4.625027 1.672519-2.38078c1.117857-1.59572 2.653844-3.097574 4.010633-4.488495l10.837241-11.110306c0.230398-0.230398 0.605862-0.78506 0.716794-1.049591 0.076799 0 0.964258-0.511996 1.22879-0.750927l2.807442-2.653844c1.17759-1.109324 2.35518-2.099182 3.686369-3.157307 5.973283-4.73596 5.486887-5.998882 14.276146-5.54662l4.29223 4.625028c1.629853 1.757852-3.566903 7.671402-4.454362 8.601527l-8.396729 8.840458-3.652236 4.138632-1.954116 2.252781c-0.981325 1.12639-2.141848 2.372247-3.020775 3.498637l-5.486887 7.074073-1.169056 1.698119-2.892776 4.215431-2.201581 3.208506-4.275164 6.246347c-2.107715 3.080507-3.293839 6.860742-5.461287 9.659651l-1.12639 1.826118-2.40638 4.061832-2.047983 3.694902c-0.307197 0.546129-0.597328 2.321047-0.904525 2.833043-0.622928 1.023991-1.851718 2.824509-2.363713 3.985033l-2.858643 6.493811-3.16584 7.304472-1.117857 2.815976-1.425054 3.797301-1.305589 3.455971-2.764777 7.202072c-0.375463 0.981325-0.83626 2.79891-1.100791 3.8741l-0.776526 3.114641-1.390922 4.642094-1.288522 4.206897c-0.520529 1.706652-1.083724 4.377563-1.058125 5.930617v0.520529l-0.964258 0.068266c-1.032525 0.068266 0.904526 2.713577-1.484788 4.727426l-0.162131 2.628245-0.034134 0.665594c-0.230398 0.034133-1.194657 0.844793-1.211723 1.254389l-0.059732 2.107716-0.145066 3.259705c-0.179198 0.0256-0.716794 0.085333-0.699727 0.093866s-0.162132 0.870393-0.221865 1.186124l-0.742394 3.754634-0.870392 4.223964-0.708261 3.430371-1.169057 6.630344-0.75946 3.891167-0.904526 4.130098c-0.537595 2.457579-0.44373 5.375954-0.418129 7.790868 0.008533 0.887459-0.213332 2.542912-0.127999 3.387704l-1.100791-0.076799-0.119466 7.842067c0 0.563195 0.042666 1.459188 0.068266 2.065049-0.682661 0.682661-1.271456 2.047983-1.297055 3.174373l-0.238932 11.272438c-0.597328 1.245856-1.075191 2.781843-1.092257 4.010632l-0.213331 15.905999c-0.469329 0.947192-1.015458 2.363713-1.023992 3.174373l-0.196265 29.345884-0.034133 33.151719 0.017067 33.817313 0.179198 46.39534c0 1.783452 0.75946 4.155698 1.143457 5.930616l0.119466 25.855781 1.228789 2.158915 0.059733 19.583834c0 0.597328 1.143457 2.35518 1.160524 2.926908l0.145065 5.742885 0.034133 16.545993c0 0.742394 0.708261 2.338113 1.041058 2.943975l0.469329 18.44891 1.075191 5.043157v5.46982l0.0512 20.539559 1.211723 1.305589 0.102399 6.67301 0.196265 9.719385 0.972792 4.249564 0.281597 15.223337c0.0256 1.17759 0.349864 4.881025 1.134924 4.582361l0.0512 3.310906 0.170665 10.538577 0.042666 2.858642 0.938659 2.124782 0.255998 15.7012c0.017067 1.058124 0.793593 3.080507 0.861859 4.130099l0.699727 10.15458 0.793594 2.389313 0.264531 8.396729 0.102399 5.299155 0.904526 3.063441 0.520528 11.451636 0.83626 3.498637 0.580262 14.96734 0.836259 4.078898 0.341331 6.587678 0.938659 3.609569c1.075191 4.155698 0.691194 9.250055 1.484787 13.704417l0.972792 5.444221 0.878926 6.937541 1.17759 5.589286c1.450654 6.860742 0.511996 5.05169 1.979716 12.58656 0.264531 1.339722 0.409597 3.336505 0.708261 4.471428l1.288522 4.795693 1.399455 5.222356 0.81066 3.379171c0.39253 1.62132 0.716794 3.106107 1.160523 4.607961l1.262923 4.249564 1.390921 4.437296 1.220257 4.010632 1.237323 4.68476c0.648528 2.449046 1.450654 4.582361 2.602644 6.801009 0.204798 0.622928 0.563195 2.32958 0.870393 3.003708l3.353571 7.423937c0.44373 0.972792 0.904526 2.321047 1.288523 3.319439l2.107715 5.49542c0.383997 0.998392 0.938659 2.440513 1.356789 3.276772l3.06344 6.092748 2.414913 4.991958 3.413305 5.836751 4.829825 7.611668 1.894384 2.833043 4.070366 5.853817 3.029307 4.223964c0.895992 1.245856 1.954117 2.483179 3.003708 3.58397l3.601036 3.797301 3.874101 4.044766 6.980207 6.937541c4.29223 4.275164 10.248446 10.052181 16.469194 10.709242l4.445829 0.46933c0.213332 0.0256 1.032525 1.083724 1.186123 0.930125l1.066658-1.049591c1.442121-1.425055 2.35518-3.541303 0.861859-5.239422l-5.375954-6.101282-5.828218-5.060224-2.32958-2.525845c-1.698119-1.843184-3.413304-3.660769-4.949291-5.580753-1.749318-2.175982-3.319439-4.095965-5.299155-6.075681-1.663986-1.663986-3.071974-3.618103-4.514095-5.512487l-2.585578-3.396238c-0.913059-1.194657-1.783452-2.662377-2.585578-4.027699l-2.687978-4.582361-3.012241-4.71036-2.995174-5.213823c-0.554662-0.964258-1.100791-1.996783-1.638386-3.054907l-1.919984-3.831434-4.138632-8.24313-0.622928-1.96265-2.090649-4.309297c-0.409597-0.844793-0.819193-2.269847-1.228789-3.268239l-2.457579-5.93915c-0.39253-0.938659-0.657061-3.131707-0.998392-4.070365l-1.279989-3.498637-1.373855-3.694902c-0.170665-0.469329-0.878926-1.919984-0.870393-2.508779l0.119466-19.728899 1.058124-4.676227 0.39253-7.261805c0.0512-0.938659 0.460796-2.77331 0.682661-3.865567l2.116249-10.28258c0.409597-1.971183 0.665594-4.104499 1.262922-5.939149l1.954117-6.015949c0.477863-1.467721 0.930125-3.11464 1.322656-4.607961l1.96265-7.492203c0.36693-1.399455 0.930125-3.50717 1.416521-4.667694l2.756243-6.570611 2.585578-5.828217 2.807443-6.536478c0.332797-0.767993 1.12639-1.996783 1.57012-2.884242l2.730644-5.427154c0.947192-1.885851 2.338113-3.9253 3.592503-5.742885l1.262922-1.834651c1.476254-2.141848 2.926909-4.147165 4.633561-6.135415l3.327972-3.857034 2.69651-3.225572 3.711969-4.428763c0.844793-1.006925 2.244248-2.005316 3.575436-3.003707l0.221865-3.763169c0.076799-1.220256-0.349864-3.652236 1.843184-4.172764 1.271456-0.298664-0.196265 3.882634 3.464504 6.169548l1.996783 3.157306c0.682661 1.083724 1.433588 2.338113 2.201581 3.276772l3.003708 3.703436c2.969575 3.660769 6.067149 8.507661 7.125273 13.192421 0.699727 3.08904 0.349864 14.736942-0.085332 18.346511-0.093866 0.81066-0.853326 2.602645-0.989859 3.370638l-0.776526 4.334897-1.066658 6.135414c-0.110932 0.657061-0.554662 2.030916-0.614395 2.815976l-0.580262 7.159406c-0.0512 0.588795-0.861859 2.269847-0.861859 2.926909l0.017067 25.608316c0.204798 0.44373 1.006925 1.894384 1.015458 2.32958l0.153598 8.345529 0.145066 20.607825-0.034133 10.666577c2.867176 8.439395 0.093866 11.699101 0.008533 17.800382l-0.076799 5.324755 1.023991 3.643702 0.503462 27.425901c0.861859 2.286914 1.15199 4.334897 1.109324 6.69861-0.153599 9.488986 0.913059 2.397846 1.356789 11.997765 0.0512 1.109324 0.41813 2.201581 1.15199 2.577044l0.230398 2.74771-0.034133 5.341822c0 0.853326 1.015458 2.38078 1.91145 3.45597l2.892776-3.50717c0.511996-0.622928 1.297056-1.885851 1.843184-2.74771l6.126882-9.753517 3.626636-5.427154 3.345038-5.503953c0.580262-0.955725 1.834651-2.491712 2.235714-3.336505 2.585578-5.44422 4.113032-7.517803 6.604744-12.851091l2.534379-5.427154c0.520529-1.109324 1.075191-2.389313 1.561586-3.660769l0.819193-2.158915c0.904526-2.389313 2.397846-4.607961 3.182907-6.946075l1.356788-4.044765 1.288523-3.285306 2.466112-6.195147 1.493321-3.874101 2.653844-7.167939 1.322655-3.9509 1.331189-4.036232c2.508779-7.628735 1.979717-3.421838 3.933833-11.101773l1.527454-6.033015 1.092257-4.087432 1.399455-5.239422 1.262923-4.78716 1.348255-5.162623 0.776527-3.609569 0.844793-3.592503 1.169056-4.625027 0.998392-3.660769 1.075191-5.341822 0.819193-3.566903 1.382388-6.041548 0.767994-3.387705 1.442121-6.749809 0.691194-3.618103 0.964258-5.401554 1.151991-6.067149 1.117857-5.486887 1.023991-5.427153 0.725327-4.198365 0.844793-5.538086 1.058124-6.894875 0.750927-4.155698 0.88746-4.932225 0.870392-6.126881 0.657061-2.559979c0.494929-1.919984 0.36693-5.145556 0.733861-7.313004l1.262922-7.492203 1.075191-7.381271 0.648528-4.070366 1.058124-7.782333c0.78506-5.768484 0.614395-7.782334 1.25439-11.724701l0.691194-4.241031 0.622928-5.009024 0.580262-2.278381 0.913059-7.901799 0.861859-7.355671 0.657061-4.889559 0.571729-4.991957 0.895992-7.441004 0.887459-7.099673c0.153599-1.245856 0.571728-2.705044 0.674128-4.027699l0.460796-5.896483c0.187732-2.431979 0.844793-4.881025 0.955725-7.406871l0.238931-5.222356 0.819193-2.440512 0.571729-12.108698c-0.102399 2.235714 1.339722-15.522002 0.878926-11.35777l0.298664-2.653844c0.034133 0.110932 0.460796-0.989858 0.486396-1.373855l0.401063-5.307688 0.494929-6.630344c-0.196265 2.645311 2.201581-17.015322 1.348255-12.63776l0.793594-4.036232 0.486396-9.156189c-0.162132 3.003708 2.397846-20.232362 1.339721-15.291604l0.767994-3.566903 0.546129-14.86494c0.170665-4.556761 0.691194-5.44422 0.819193-8.703926l0.657061-16.315595c0.110932-2.815976 0.827726-5.034624 0.904525-8.106598l0.409597-17.979581 0.452263-5.896483 0.290131-4.753027 0.136532-17.143321 0.315731-28.475492 0.085332-7.304471 0.059733-2.559978 0.213331-6.792476c0.298664-9.557252 0.78506-18.901173 0.042667-28.449892l-0.358397-4.582361-0.435196-17.697983c-0.017067-0.767993-0.204798-1.928517-0.290131-2.850109l-0.452263-4.753027-0.913059-9.173255-1.023991-7.893267c-0.307197-2.363713-0.913059-4.872492-1.501854-7.176472l-1.032525-4.061832-1.279989-4.804226c0.213332-1.96265 0.127999-4.326363-0.307197-6.468212l-0.827727-4.061832-1.006925-4.718894-0.861859-6.25488c-0.34133-0.964258-0.648528-1.928517-0.887459-2.892775l-0.73386-2.995175-1.041058-4.232497-0.844793-3.438904-0.83626-3.404772-1.484787-5.299155-1.314122-4.616494-1.314123-4.65916-0.836259-2.961042-0.827726-2.943975-1.049591-3.447437-1.365322-3.933834-1.365322-3.9253-1.15199-3.362104-1.399455-4.078899-1.254389-3.967966c-0.409597-1.305589-0.904526-2.781843-1.416522-3.993567l-2.517312-5.964749c-0.486396-1.143457-0.972792-2.74771-1.510387-3.839967l-2.662377-5.350355-1.023992-3.50717-2.602644-5.427154-1.578653-3.14024-1.305589-2.602645-2.440513-4.855425-1.578653-3.771702c-0.36693-0.878926-0.827726-2.158915-1.211723-2.850109l-5.427154-9.770584-2.295447-4.283697-1.17759-2.218647c-0.776527-1.220256-1.59572-2.466112-2.269848-3.677836l-1.681052-3.037841c-1.331189-1.766385-2.662377-3.592503-3.822901-5.461287l-1.791985-2.892775-2.022383-3.16584-5.162623-7.637269-3.319438-4.275163c-0.324264-0.41813-0.511996-1.894384-0.520529-2.286914l1.425054-1.160524 3.14024-2.005316 6.553545-4.889559 3.285305-2.414912 3.53277-0.042667 2.74771 3.012241c1.254389 4.121565 3.592503 5.964749 6.886342 11.04204l1.774918 2.739177 7.219139 12.19403 3.242639 5.410087 12.006298 21.119821c1.279989 2.244248 2.525845 4.548228 3.575437 6.835142l1.484787 3.217039 1.672519 3.908234c0.426663 0.989858 0.921592 2.201581 1.373855 3.08904l2.457579 4.812759 1.527454 3.140241 1.271456 2.72211 1.211723 2.781843 2.986641 6.869275 2.508779 6.25488 1.297056 3.455971 1.271456 3.404771c0.597328 1.59572 1.689586 3.635169 2.065049 5.239422 1.809051 7.739668 0.989858 2.449046 3.319438 9.011124l1.262923 3.55837 1.20319 3.48157c0.554662 1.587187 1.715185 3.524237 2.380779 5.222356l2.389314 6.109815 2.449045 6.092748 0.938659 2.210114c0.930125 1.17759 2.047983 3.208506 2.559978 4.829826 0.273064 0.844793 2.38078 1.527454 3.063441 1.049591 2.653844-1.868784 1.928517-7.773801 4.812759-12.066031l2.201582 3.054908z" fill="#FBF9DD" /><path d="M688.497626 462.869733l0.665594 2.099182 0.870393 3.225573c-2.35518 6.604744 0.776527 1.715185-0.708261 11.298037l-0.665594 4.300764c-0.162132 1.023991-0.0512 2.952508 0.110932 4.189831 0.861859 6.715676-0.332797 7.01434-0.682661 14.122547l-0.460796 9.616985-0.921592 5.478353-0.349864 11.255372c-0.170665 5.529553 0.554662 6.135415 0.477863 7.398337l-0.298664 4.718893c-0.085333 1.339722 0.179198 3.199973 0.401063 4.556762l0.86186 5.401554 0.187731 5.043157 0.614395 4.155698c0.110932 0.742394-0.076799 2.32958-0.068266 3.242639l0.0256 6.681543c0.0256 8.430862-1.092257 1.339722-0.255998 7.586069 0.093866 0.708261-0.196265 2.141848-0.273064 3.089041-0.631461 7.773801-0.73386 9.540186 1.553053 16.204662 2.466112 7.176472-1.373855 4.829826 1.373855 9.147656 1.732252 2.72211 0.631461 8.592994 1.134924 14.924674 0.179198 2.30398 0.41813 4.403163 0.042666 6.715676l-0.836259 5.230889c-0.085333 0.520529 0.332797 2.167448 0.409596 2.679444l-0.742394 3.891167c-1.160523 6.067149 1.245856 0.989858-0.34133 7.534869-0.776527 3.217039-0.639995 6.451145-0.998392 9.736451l-0.580261 5.341821-0.409597 5.375955-0.844793 3.302372c-0.563195 2.201581-0.972792 8.618594-1.57012 12.944957-0.187732 1.365322-0.36693 2.867176-0.358397 4.26663l0.0256 13.943348c0 0.964258-0.503462 2.858642-0.622928 3.891167l-0.537595 4.642094-0.49493 4.770093c-0.563195 5.375954 0.068266 6.118348-0.639994 12.56096-0.691194 6.314613-1.749318 8.046865-0.742394 12.475628 0.358397 1.59572 0.0512 3.080507 0 4.778626l-0.648528 18.227045-0.34133 4.846893-0.460796 4.599427-0.281598 7.108207-0.34133 6.818075-0.358397 14.57481-0.537596 3.976499-0.529062 6.058616c-0.170665 1.902917 0.093866 4.71036-0.264531 6.365812l-1.459188 6.67301c-0.238931 1.092257-0.264531 2.918375-0.460796 4.155698l-1.17759 7.313005c-0.221865 1.399455-0.383997 3.182906-0.477862 4.616494l-0.494929 7.167939-0.324264 4.087432-0.494929 6.655944-0.46933 6.246347c-0.0512 0.716794-1.058124 2.397846-1.186123 3.123173l-0.895992 5.085824-0.844793 4.727427-0.622928 4.078898c-0.230398 1.527454-0.39253 3.251172-0.733861 4.676227l-2.525845 10.581244c-0.247465 1.032525-0.554662 2.295447-0.887459 3.259706l-2.397846 6.801008-3.9765 10.120448c-0.409597 1.041058-1.12639 2.397846-1.62132 3.48157l-1.706652 3.737569-2.679444 6.015949c-0.981325 2.201581-1.450654 2.585578-3.029307 4.053299-2.705044 5.922083-2.073582 2.935442-5.683152 8.251663l-2.705044 3.9765-2.423446 3.652235c-1.476254 2.227181-4.727427 5.998882-6.655944 7.773801l-4.812759 4.445829-8.601527 7.944466-2.909842 2.577045c-0.793593 0.699727-2.01385 2.807443-2.926908 3.370638l-3.464504 2.116248c-1.186123 0.725327-3.327972 2.38078-4.462896 3.259706-2.107715 1.629853-2.636778-0.426663-4.778626 3.396238-0.511996 0.913059-0.955725 3.379171-0.725327 4.437296 0.085333 0.383997 1.501854 0.221865 1.945584 0.170665l3.541303-0.477863c0.34133-0.042666 1.023991-0.39253 1.17759-0.204798l0.793593 0.972792c0.221865 0.273064 1.510387-0.435196 1.211723-0.639995l-1.237323-0.870392c-0.605862-0.426663 0.580262-2.35518 1.262923-2.636778l2.090649-0.887459 1.96265 2.790376 4.522628-0.554662c0.691194-0.085333 2.491712 0.34133 3.174373 0.068266l3.131707-1.262922c1.54452-0.622928 3.071974-0.998392 4.940758-1.476255l0.563195 1.117858c-9.087923 3.771701-19.361969 7.492203-29.124019 8.738059-1.083724-0.247465-2.525845-0.477863-3.9765-0.477863l-50.969167 0.0256c-4.932225 0-9.412187-0.153599-13.934816-0.41813 0.819193-0.955725 2.090649-1.851718 3.404772-2.508778l5.700218-2.875709 5.734351-2.909842a54.595804 54.595804 0 0 0 4.701827-2.705044l3.498637-2.252781c2.047983-1.314122 3.788768-2.781843 5.768484-4.241031l3.805835-2.790376 6.101281-5.239422c1.297056-1.117857 2.414913-2.397846 3.635169-3.677836l4.573828-4.770093c1.663986-1.740785 3.251172-3.430371 4.78716-5.239422l3.310905-3.8997c1.476254-1.740785 3.123174-3.55837 4.428762-5.427154l3.55837-5.10289 3.9509-6.024482 4.053299-6.613277 4.095965-7.11674 1.655453-3.609569 2.244247-4.462896 1.937051-3.9253 2.756243-5.725818 1.672519-3.8997c0.674128-1.578653 1.356788-3.182906 1.902917-4.770093l2.150382-6.263414 2.099182-6.340213 3.404771-12.057497c0.802127-2.850109 1.62132-5.614886 2.150382-8.516195l0.793593-4.360496 0.776527-4.68476c0.870393-5.222356 2.986641-11.946565 3.942367-19.054772l0.699727-5.256489 0.725327-5.333288 0.571729-4.027699 0.631461-4.019166 0.494929-3.131707 1.032525-7.415403 0.930125-7.372738c0.264531-2.082116 0.315731-4.223964 0.435197-6.570611 0.068266-1.433588 0.73386-3.362105 0.836259-4.761559l0.639995-9.113523c0.085333-1.15199 0.255998-2.449046 0.418129-3.55837 1.186123-7.816467 0.085333-8.354062 1.740786-13.661751l0.494929-13.747083c0.068266-1.809051 0.460796-3.814368 0.921592-5.657552l0.238931-11.844166c0.017067-0.887459 0.563195-2.431979 1.015458-3.404771l0.383997-15.692667 0.998392-4.650627 0.358397-14.933207c1.57012-4.872492 0.878926-14.49801 1.305589-17.262787l0.648527-4.189831c0.196265-1.245856 0.358397-2.687977 0.375464-3.993566l0.281597-15.948665 0.085333-3.839967 0.563195-4.778627c0.401063-3.362105 0.127999-6.562078 0.674128-10.000981l0.836259-5.239423 0.614395-11.6991c0.059733-1.20319 0.861859-4.829826 0.989859-8.763659l0.196265-6.101282 0.998391-8.482061 0.34133-13.78975 0.86186-6.203681 0.546129-15.086805 0.127998-3.473037c0.401063-1.51892 0.870393-3.515704 0.895993-5.137023l0.093866-6.075682 0.119465-7.611669 0.921593-6.408479 0.401063-32.306926c0.068266-5.393021 0.529062-2.551445 0.298664-8.482061l-0.119466-2.961042-0.025599-3.729035-0.034134-3.310905-0.017066-4.966358-0.059733-3.908233c-0.034133-2.346647-0.162132-4.821292 0.008533-7.14234 0.230398-3.003708 0.554662-5.700218-0.145065-8.66126l-0.110932-28.569357c0.0512-4.855425 1.331189 8.413795 1.203189 4.821292 0.145065 4.232497 0.145065 8.840458 0.0256 13.115622-0.290131 10.615377 4.590894 9.173256 3.174373 20.573692l-0.281597 2.286914c-0.119466 0.998392-0.179198 2.594111 0 3.618103 1.57012 8.994057-2.065049 8.456462 1.006924 10.871374 1.877317-2.397846 3.746102-4.241031 6.314613-5.964749l0.759461-1.996783c0.725327-1.902917 0.170665-3.9253-0.964259-5.947683 0.401063-0.0512 1.57012-0.153599 1.843185 0.068266l2.67091 2.158915c6.715676-2.542912 4.138632 0.375463 10.333779-2.252781 0.639995-0.273064 2.167448-0.964258 2.346647-0.418129l0.699727 2.175981z" fill="#F5EFC0" /><path d="M718.833369 503.462455l0.162132 4.684761 0.153598 176.775033-0.375463 39.756463-0.221865 2.167448-0.383997 20.368894-0.247464 6.630344-0.39253 21.853681-0.102399 9.343921 0.281597 2.662377c0.068266 0.657061-0.614395 1.919984-0.657061 2.585578-0.819193 0.298664-1.331189 1.459188-1.416521 2.508779l-0.349864 4.258097-0.665594 12.791359c-0.034133 0.597328-0.546129 1.91145-0.503463 2.517311 0.162132 2.295447 0.017067 3.857034-0.622928 6.937542l-2.952508-3.703436c0.264531-0.358397-1.442121 0.699727-1.612786 1.134924l-1.843185 4.71036c-0.639995 1.629853-0.870393 3.362105-0.554662 5.000491 0.452263 2.35518 1.407988 7.441004-0.477862 9.05379l-0.563196 2.32958c-0.34133 1.416521-0.162132 3.080507 0.145066 4.642094l0.827726 4.232498c0.042666 0.213332 0.281598 0.853326 0.358397 1.092257 0.068266 0.213332 0.964258-0.179198 1.126391-0.36693l2.534378-3.174373c1.075191 1.510387 0.529062 8.959924 0.358397 10.163113l-0.563195 4.138632-0.725327 5.324755-0.639995 3.8997-0.665594 3.959433c-0.059733 0.332797 0.895992 1.740785 0.819193 1.390922-0.085333 0.486396-0.41813 1.382388-0.597328 1.868784l-0.776527-0.36693-0.819193 4.514095-1.288523 7.082606c-0.076799 0.41813-0.614395 1.117857-0.878926 1.356789s-1.433588-0.383997-1.433587-0.742394c-0.0512-4.019166-3.259706-4.872492-3.447438-4.505562l-0.716794 1.390922c-0.503462 0.972792-1.62132 2.457579-2.252781 3.498637-1.17759 1.93705 0.904526 4.949291 2.449046 6.289013l-1.740785 4.590894-1.928517-0.409596c-0.383997-0.085333-0.460796 1.612786-0.324264 1.98825 2.568512 7.261805-1.791985 5.179689-0.39253 9.599918 0.81066 2.559978-0.947192 1.501854-1.510387 8.089532-0.34133 3.9765-1.194657 5.905017-3.046374 9.087923l-1.322656 2.27838c-0.170665 0.290131-0.477863 0.878926-0.503462 0.870393-0.017067 0 0.674128 0.460796 0.73386 0.494929l-0.827726 1.20319c0.170665-0.008533-0.930125-0.913059-1.117857-0.665595-0.469329 0.639995-1.15199 1.638386-1.339722 2.099183l-1.689586 4.198364c-0.981325-0.469329-2.01385-0.904526-2.030916-1.20319-0.042666-0.657061-0.042666-1.971183 0-2.491712l0.179199-1.723719-3.387705 2.756244c-0.375463 0.307197-0.529062 1.971183-0.127999 2.261314l3.037841 2.227181-1.220256 1.59572c-0.665594 0.870393-1.297056 1.800518-1.817585 2.824509l-1.578653 3.080507c-1.134924 2.210115-3.814368 0.409597-6.30608 1.885851l-2.30398 1.373855-1.262923 0.750927c-0.375463 0.221865 2.628244 4.812759 1.356788 6.067148-0.904526 0.887459-1.919984 1.851718-2.559978 2.397847l-5.324755 4.556761c-0.0512-0.093866 0.281598 0.520529 0.375464 0.708261l-2.551445 2.338113-0.554662-0.460796-4.957825 3.959433c-0.776527 0.622928-3.8741 2.568512-4.036232 2.508779-0.264531-0.093866-0.588795-0.196265-1.279989-0.435196l0.836259 2.047982c-0.520529 0.44373-1.322655 0.972792-1.93705 1.314122-0.187732-0.034133-1.484787 0.076799-1.868784 0.298665l-5.640486 3.302372-2.585578 1.450654c-0.39253 0.221865-1.143457 1.382388-1.211723 1.629853-0.878926 0.73386-2.124782 1.245856-3.285305 1.757851l-1.109324-0.776526-0.870393 1.629853c-0.119466 0.230398-0.511996 0.529062-0.750927 0.631461l-0.563195-1.117857c-1.868784 0.486396-3.396238 0.853326-4.940758 1.476254l-3.131707 1.262922c-0.682661 0.273064-2.483179-0.153599-3.174373-0.068266l-4.522628 0.554662-1.96265-2.790376-2.090649 0.887459c-0.682661 0.290131-1.868784 2.218648-1.262923 2.636778l1.237323 0.870392c0.298664 0.204798-0.989858 0.913059-1.211723 0.639995l-0.793593-0.972792c-0.153599-0.187732-0.83626 0.162132-1.17759 0.204798l-3.541304 0.477863c-0.44373 0.059733-1.860251 0.213332-1.945583-0.170665-0.230398-1.058124 0.213332-3.524237 0.725327-4.437296 2.141848-3.822901 2.670911-1.766385 4.778626-3.396238 1.134924-0.878926 3.276772-2.534379 4.462896-3.259705l3.464504-2.116249c0.913059-0.554662 2.133315-2.662377 2.926908-3.370638l2.909842-2.577045 8.601527-7.944466 4.812759-4.445829c1.928517-1.774918 5.179689-5.555153 6.655944-7.773801l2.423446-3.652235 2.705044-3.9765c3.609569-5.316222 2.978108-2.32958 5.683152-8.251663 1.578653-1.467721 2.047983-1.843184 3.029307-4.053299l2.679444-6.015949 1.706652-3.737568c0.494929-1.083724 1.211723-2.440513 1.62132-3.481571l3.976499-10.120447 2.397847-6.801009c0.34133-0.955725 0.639995-2.227181 0.887459-3.259706l2.525845-10.581244c0.34133-1.425055 0.494929-3.148773 0.733861-4.676227l0.622928-4.078898 0.844793-4.727427 0.895992-5.085823c0.127999-0.73386 1.134924-2.414913 1.186123-3.123174l0.46933-6.246347 0.494929-6.655943 0.324264-4.087432 0.494929-7.16794c0.102399-1.433588 0.255998-3.217039 0.477862-4.616494l1.17759-7.313004c0.196265-1.237323 0.221865-3.063441 0.460796-4.155698l1.459188-6.673011c0.36693-1.655453 0.102399-4.462895 0.264531-6.365812l0.529062-6.058615 0.537596-3.9765 0.358397-14.57481 0.34133-6.818075 0.281598-7.108207 0.460796-4.599427 0.34133-4.846892 0.648528-18.227046c0.059733-1.698119 0.36693-3.182906 0-4.778626-0.998392-4.428762 0.0512-6.161014 0.742394-12.475627 0.708261-6.442612 0.076799-7.185006 0.639994-12.560961l0.49493-4.770092 0.537595-4.642094c0.119466-1.041058 0.622928-2.926909 0.622928-3.891167l-0.0256-13.943349c0-1.399455 0.170665-2.901309 0.358397-4.26663 0.597328-4.326363 1.006925-10.734842 1.57012-12.944957l0.844793-3.302372 0.409597-5.375954 0.580261-5.341822c0.358397-3.285305 0.221865-6.527945 0.998392-9.736451 1.587187-6.545011-0.819193-1.467721 0.34133-7.534869l0.742394-3.891167c-0.076799-0.511996-0.494929-2.158915-0.409597-2.679444l0.83626-5.230889c0.375463-2.312514 0.136532-4.420229-0.042666-6.715676-0.503462-6.340213 0.597328-12.202563-1.134924-14.924674-2.74771-4.31783 1.092257-1.971183-1.373855-9.147655-2.286914-6.664477-2.184515-8.430862-1.553053-16.204663 0.076799-0.947192 0.36693-2.38078 0.273064-3.08904-0.844793-6.246347 0.281598 0.844793 0.255998-7.586069l-0.0256-6.681544c0-0.913059 0.179198-2.500245 0.068266-3.242639l-0.614395-4.155698-0.187732-5.043157-0.861859-5.401554c-0.213332-1.365322-0.486396-3.217039-0.401063-4.556762l0.298664-4.718893c0.076799-1.262923-0.648528-1.860251-0.477863-7.398337l0.349864-11.255371 0.921592-5.478354 0.460796-9.616985c0.34133-7.11674 1.54452-7.40687 0.682661-14.122547-0.162132-1.237323-0.264531-3.16584-0.110932-4.189831l0.665594-4.300763c1.484787-9.574319-1.646919-4.693294 0.708261-11.298038 0.708261-0.059733 1.706652-0.853326 1.919984-1.655453 0.947192-3.58397 4.34343-2.210115 6.59621-1.663985l2.841576 0.68266c0.81066 0.196265 1.501854 2.141848 2.167448 2.82451 4.607961 4.718893 6.365813 3.891167 6.937542 4.940758l1.96265 3.601036c0.435196 0.802127 0.230398 2.628244-0.255998 3.694902-1.604253 3.498637 1.54452 2.090649 1.535987 6.024482l-0.0256 10.197247c0 1.59572 0.631461 3.310905 1.399455 5.452754l1.681052-3.541303 1.390922 3.53277c0.119466 0.307197 0.648528 1.245856 0.648528 1.186123z m-53.14515 449.813784c0.0512-0.213332-0.460796-0.614395-0.68266-0.674127s-0.802127 0.460796-0.733861 0.691194l0.315731 1.023991c0.059733 0.187732 0.742394 0.238931 0.802126 0.0512s0.238931-0.853326 0.298664-1.100791z" fill="#F3EAB2" /><path d="M531.502691 993.083902c4.514095 0.264531 9.00259 0.41813 13.934815 0.41813l50.969168-0.0256c1.459188 0 2.892775 0.230398 3.976499 0.477862l1.493321 2.918376c1.817585 3.549837 1.971183 8.285796 0.554662 12.074564-3.643702 9.762051-12.970557 14.566276-23.201936 14.754008l-12.936424 0.230398-59.340297-0.102399-62.924266 0.170665c-7.551936 0.017067-14.472411-2.269847-19.771565-7.671401s-8.072465-15.419603-2.346647-21.546484l-1.15199-0.947192c0.75946 0.110932 2.235714-0.153599 3.43037-0.162132l77.396677-0.085333 23.219003-0.0256c2.141848 0 4.753026-0.588795 6.707143-0.477862z" fill="#EDDDA7" /><path d="M717.024317 792.270672l-0.665594 0.554662v10.709242l-0.725327 0.546129c0.093866 1.587187 0.264531 3.037841 0.230398 4.087432l-0.204799 5.91355-0.699727 0.597328 0.238931 3.430371c0.059733 0.870393-0.127999 2.38078-0.145065 3.310905l-0.776527 0.529063c0.110932 1.12639 0.281598 2.175982 0.255998 2.781843l-0.179198 4.642094-0.750927 0.546128c0.110932 1.100791 0.290131 2.184515 0.255997 2.764777-0.255998 4.573828-1.066658 13.576418-1.604253 18.227045l-0.73386 6.33168-0.622928 4.599427-0.725327 4.514095-0.674128 3.993567-0.469329 2.756243c0.076799 0.349864-0.870393-1.058124-0.819193-1.390922l0.665594-3.959433 0.639995-3.8997 0.725327-5.324755 0.563195-4.138631c0.162132-1.20319 0.708261-8.66126-0.358397-10.163114l-2.534378 3.174373c-0.153599 0.196265-1.049591 0.588795-1.126391 0.36693-0.076799-0.230398-0.315731-0.870393-0.358397-1.092257l-0.827726-4.232498c-0.307197-1.57012-0.486396-3.234106-0.145066-4.642094l0.563196-2.32958c1.885851-1.604253 0.930125-6.690077 0.477862-9.05379-0.315731-1.638386-0.085333-3.370638 0.554662-5.000491l1.843185-4.71036c0.170665-0.435196 1.877317-1.493321 1.612786-1.134923l2.952508 3.703435c0.639995-3.08904 0.78506-4.642094 0.622928-6.937541-0.042666-0.597328 0.469329-1.919984 0.503463-2.517312l0.665594-12.791358 0.349864-4.258098c0.085333-1.049591 0.597328-2.210115 1.416521-2.508778-0.034133 0.494929-0.034133 1.450654-0.0256 1.988249z m-3.464504 33.740514l0.187732-3.839968c0.017067-0.332797-0.878926-1.015458-0.964258-0.75946l-0.409597 1.279989c-0.162132 0.511996-0.639995 1.740785-0.307197 2.022383l1.49332 1.288522zM708.465457 874.992104c-0.017067 0.78506-0.034133 2.466112-0.196265 3.268238l-0.699728 3.370639-0.844793 3.839967c-3.302372 15.052672-8.994057 32.247193-17.467585 44.628955-0.0512-0.034133-0.750927-0.494929-0.73386-0.494929 0.017067 0 0.332797-0.580262 0.503462-0.870393l1.322656-2.278381c1.851718-3.174373 2.705044-5.111423 3.046374-9.087923 0.563195-6.579144 2.32958-5.529553 1.510387-8.089531-1.399455-4.420229 2.952508-2.338113 0.39253-9.599919-0.127999-0.375463-0.059733-2.065049 0.324264-1.988249l1.928517 0.409596 1.740785-4.590894c-1.54452-1.348255-3.626636-4.351963-2.449046-6.289014 0.639995-1.049591 1.757852-2.525845 2.252781-3.498637l0.716794-1.390921c0.187732-0.36693 3.396238 0.486396 3.447437 4.505562 0 0.358397 1.169057 0.981325 1.433588 0.742393s0.802127-0.938659 0.878926-1.356788l1.288522-7.082607 0.819194-4.514095 0.776526 0.366931zM688.42936 931.303093c-2.858642 5.973283-11.332171 17.416386-16.204663 22.433943l-8.123664 8.354062-2.781843 1.91145c-0.102399-0.187732-0.426663-0.793593-0.375464-0.70826l5.324755-4.556762c0.639995-0.546129 1.655453-1.510387 2.559978-2.397846 1.271456-1.254389-1.732252-5.83675-1.356788-6.067148l1.262923-0.750927 2.30398-1.373855c2.483179-1.476254 5.171156 0.324264 6.30608-1.885851l1.578653-3.080507c0.529062-1.023991 1.160523-1.954117 1.817585-2.82451l1.220256-1.595719-3.037841-2.227182c-0.401063-0.290131-0.247465-1.954117 0.127999-2.261314l3.387705-2.756243-0.179199 1.723719c-0.0512 0.529062-0.0512 1.843184 0 2.491712 0.017067 0.298664 1.049591 0.73386 2.030916 1.20319l1.689586-4.198365c0.187732-0.460796 0.870393-1.459188 1.339722-2.099182 0.187732-0.255998 1.288522 0.657061 1.117857 0.665595z" fill="#F5EFC0" /><path d="M491.097701 334.853752c3.242639-0.657061 6.203681 1.612786 8.499127 4.130099l4.78716 5.239422 6.971674 7.594602 3.259706 3.490104 7.645801 7.534869 3.703436 3.53277 5.794084 5.341822 5.93915 5.46982 4.283697 3.652236 7.833533 6.715676 2.090649 1.817585 2.943975 2.466112 4.34343 3.566903 3.993566 3.242639 4.155698 3.370638c1.851718 1.501854 3.626636 3.370638 5.444221 5.009024l3.11464 2.82451 4.411696 3.746101c7.048474 5.981816 14.899074 15.394003 19.140104 23.6286l3.14024 6.101281 1.20319 2.43198c0.477863 0.964258 1.254389 2.252781 1.740785 2.978108l1.98825-0.383997-0.136532 17.143321-0.290131 4.753027-0.452263 5.896483-0.409597 17.979581c-0.068266 3.071974-0.78506 5.290622-0.904525 8.106598l-0.657061 16.315595c-0.127999 3.259706-0.657061 4.147165-0.819193 8.703926l-0.546129 14.86494-0.767994 3.566904c1.066658-4.940758-1.493321 18.286778-1.339722 15.291603l-0.486395 9.156189-0.793594 4.036233c0.861859-4.377563-1.54452 15.28307-1.348255 12.637759l-0.494929 6.630344-0.401063 5.307688c-0.0256 0.383997-0.452263 1.493321-0.486396 1.373855 0.230398-2.039449 0.119466-6.169548-0.255998-8.61006-0.529062-3.447437-4.283697-6.22928-6.570611-8.422329l-4.113032-3.9509-5.785551-5.427154c-1.54452-1.450654-3.199973-3.217039-4.829825-4.471428l-5.640486-4.34343-4.087432-3.029308-4.744493-3.370638-4.164231-2.986641-5.46982-3.848501-3.933834-2.833042-3.003708-2.158915-3.9253-2.815977-5.896483-4.147164-3.157307-2.440513-3.310905-2.167448-4.829825-3.276773-2.901309-2.312513-7.492203-5.247956c-1.459188-1.015458-4.044766-1.96265-5.990349-1.698119-1.100791 0.793593-2.662377 2.022383-3.857034 3.046375-1.834651 1.578653-2.431979 5.674619-1.17759 7.756734 1.22879 2.047983 3.063441 3.711969 4.770092 5.137023l4.770093 3.959433c6.041549 5.017557 6.741276 4.497029 10.325246 7.534869l3.652236 3.089041c1.058124 0.887459 2.252781 1.851718 3.353571 2.602644l3.148774 2.141849 4.198364 2.995174 5.683152 4.206898 3.413304 2.508779 3.148773 2.27838 3.003708 2.210115 5.000491 3.729035 2.952508 2.321047 3.319439 2.662377 3.345038 2.577045 4.39463 3.515704 3.916766 3.438904 2.047983 1.91145 5.785551 5.469821 3.48157 3.293838c1.681052 1.587187 3.199973 2.781843 5.555153 3.839968 3.404771 1.527454 4.76156-2.457579 5.555153-2.005317 0.469329-4.164231-0.981325 13.602018-0.878926 11.357771l-0.571728 12.108697-0.819193 2.440513-0.238932 5.222355c-0.110932 2.525845-0.75946 4.974891-0.955725 7.406871l-0.460796 5.896483c-0.102399 1.322655-0.520529 2.781843-0.674127 4.027699l-0.88746 7.099673-0.895992 7.441004-0.571728 4.991958-0.657062 4.889558-0.861859 7.355671-0.913059 7.9018-0.580262 2.27838-0.622928 5.009025-0.691194 4.24103c-0.639995 3.942367-0.469329 5.956216-1.254389 11.724701l-1.058125 7.782334-0.648527 4.070365-1.075191 7.381271-1.262923 7.492203c-0.36693 2.167448-0.238931 5.393021-0.73386 7.313005l-0.657061 2.559978-0.870393 6.126881-0.887459 4.932225-0.750927 4.155698-1.058124 6.894875-0.844793 5.538086-0.725327 4.198365-1.023992 5.427154-1.117857 5.486887-1.15199 6.067148-0.964259 5.401554-0.691194 3.618103-1.442121 6.749809-0.767993 3.387705-1.382389 6.041549-0.819193 3.566903-1.075191 5.341821-0.998391 3.660769-1.169057 4.625027-0.844793 3.592503-0.776526 3.60957-1.348256 5.162623-1.262922 4.787159-1.399455 5.239422-1.092258 4.087432-1.527453 6.033016c-1.945583 7.679935-1.416521 3.473037-3.933834 11.101772l-1.331188 4.036233-1.322656 3.950899-2.653844 7.16794-1.49332 3.8741-2.466113 6.195148-1.288522 3.285305-1.356789 4.044766c-0.78506 2.338113-2.278381 4.556761-3.182906 6.946074l-0.819193 2.158915c-0.477863 1.262923-1.041058 2.551445-1.561587 3.660769l-2.534378 5.427154c-2.491712 5.333288-4.019166 7.415404-6.604744 12.851091-0.401063 0.844793-1.655453 2.38078-2.235715 3.336505l-3.345038 5.503953-3.626636 5.427154-6.126881 9.753518c-0.546129 0.870393-1.322655 2.124782-1.843185 2.74771l-2.892775 3.50717c-0.887459-1.083724-1.91145-2.611178-1.911451-3.455971l0.034133-5.341821c0.631461 0.093866 1.757852 0.955725 1.937051 1.578653l0.426663 1.484787c0.110932 0.401063 1.706652 0.076799 1.93705-0.264531l3.097574-4.607961c0.78506-1.169057 1.467721-2.150382 2.150381-3.302372l3.464504-5.845283c1.314122-2.218648-3.626636-9.830317-7.031407-10.692176l-1.348255-4.445829c-1.356788-4.488495 1.655453-5.785551 2.705044-8.174864 0.895992-2.030916 1.655453-3.455971 3.063441-5.12849 2.978108-3.524237-0.571728-2.457579 3.609569-7.679935 1.006925-1.254389 1.553053-3.327972 2.133315-5.162623 1.578653-5.043157 2.892775-3.55837 4.249564-8.755125l1.655453-6.340213c0.81066-3.097574 0.938659-4.838359 0.580261-7.671402-0.230398-1.834651-0.008533-4.68476-0.426663-6.161014l-1.365321-4.821293-1.314122-4.65916c-0.819193-2.884242-1.672519-5.905017-2.730644-8.738059l-3.037841-8.132198-1.621319-3.985033-0.597329-3.16584-1.535987-4.155698c-0.537595-1.450654-0.827726-3.455971-1.083724-5.111423-0.742394-4.855425-0.597328-6.118348 0.0256-10.700709 0.187732-1.348255 0.349864-3.353572 0.648528-4.334897l1.245856-4.053299c0.34133-1.100791 0.947192-2.961042 1.407988-3.865567l2.69651-5.341821c1.493321-2.961042 2.935442-5.896483 4.189832-8.917258l2.653844-6.391413 2.423446-5.845283c0.563195-1.356788 0.819193-3.268239 1.17759-5.009025 0.179198-0.887459 1.032525-2.952508 1.023991-3.865567l-0.068266-8.038332c-0.017067-2.227181 0.0256-5.034624-0.34133-6.946074l-1.17759-6.126881c-3.831434-4.957825-1.134924-2.833043-3.327972-6.399946l-1.587187-2.577045c-2.158915-3.50717-4.428762-6.596211-7.449537-9.591385L497.147783 733.17784l-3.899701-6.562078c-2.431979-4.087432-3.370638-6.502345-4.002099-11.255371l-0.605862-4.590894c-0.085333-0.648528-0.895992-2.047983-1.075191-2.090649l-1.348255 3.131707c-1.271456 2.943975 0.657061 4.036232-1.817584 4.991957l0.153598-4.428762 1.62132-2.696511c0.520529-1.902917 1.220256-4.164231 1.186123-5.768484l-0.119465-5.427154 0.947192 1.134924c0.196265 0.230398 1.305589 1.612786 1.501853 1.348255 0.477863-0.657061 1.373855-2.466112 1.774919-3.148773 1.023991-1.749318 4.778626-7.543403 5.674618-8.610061l5.734352-6.775409 4.821292-5.802617 4.411696-5.57222c3.490104-4.411696 6.587677-7.987132 7.970066-13.943348 0.742394-3.199973 0.494929-9.804717-1.612787-13.021756-2.286914-3.490104-3.686369-4.906625-6.809542-7.526336-5.46982-4.590894-11.485769-9.890049-13.68735-16.61426l-1.17759-3.583969c-1.399455-4.258097 1.109324-13.439886 3.464504-17.527318l3.379171-5.870884 3.50717-6.758342c0.571728-1.100791 1.058124-3.012241 1.442121-4.428763 0.938659-3.490104 1.826118-4.113032-1.689585-8.729526l-3.174374-4.164231-2.705043-1.96265-7.611669-5.529553c-4.795693-3.48157-11.502836-10.291113-12.808425-16.076664l-1.041058-4.63356c-0.597328-2.645311-0.597328-6.493812-0.017066-9.13059l0.972792-4.403162c0.290131-1.322655 1.211723-3.16584 1.774918-4.565295l2.082116-5.222356c0.358397-0.887459 1.54452-2.457579 1.988249-3.421837l3.225573-6.946075c1.800518-3.865567 1.843184-6.417012 1.288522-10.649509-3.276772-4.701827-10.000982-9.932716-12.467094-13.303354l-2.858642-3.908234c-2.884242-3.942367-5.265022-7.569002-6.690077-12.228163l-1.604253-5.265022c-0.085333-2.815976-0.307197-6.246347 0.307198-9.096456l1.015458-4.718893c0 0.042666 1.134924 0 1.143457-0.264531l0.068266-2.449046c0.008533-0.34133 0.093866-1.006925 0.127999-1.356788 0.059733-0.017067 0.657061-0.725327 0.75946-0.972792l1.186123-2.909842c0.631461-2.961042 3.754635-7.50927 5.759951-10.163114l2.952509-3.908233c0.699727-0.921592 1.399455-2.363713 1.723718-3.336506 0.964258-0.597328 3.319439-0.81066 4.095965-0.051199l3.438905 3.362105 11.758833 11.400436 8.260197 7.679935 9.531652 8.866058c0.281598 0.264531 1.305589 0.904526 1.612787 1.160524l7.244738 5.998882 5.794084 4.795693 4.39463 3.55837 7.45807 5.768484 3.396238 2.653844 3.268239 2.594112 3.737568 2.926908 4.377563 3.037841 6.434078 4.693294 3.857034 2.833042 6.092749 4.556761 14.506543 11.272438c4.061832 3.157307 5.93915 6.613277 8.277263 5.666085 1.791985-0.725327 3.711969-5.418621 3.63517-5.043157 0.494929-2.40638 0.221865-9.872983-1.663986-11.963632l-4.189831-4.650627a46.557472 46.557472 0 0 0-5.870884-5.452754l-3.353571-2.611177-6.246347-4.881026-4.548229-3.413304-10.444711-7.611669-5.777018-4.71036-11.33217-8.507661-4.949291-3.711969-5.59782-4.351963-7.526336-6.365812-2.858642-2.491712-9.284188-7.970066-6.579144-5.96475c-3.396238-3.071974-6.536478-6.195147-9.685252-9.523119l-2.27838-2.406379-5.10289-5.435688-5.853817-6.809542c-0.426663-0.494929-1.12639-1.186123-1.62132-1.698119l-1.484787-1.527453c0.042666-3.234106-3.003708-8.652727-4.915159-11.8015l-4.198364-6.911942-1.254389-2.892775c-0.972792-2.252781-2.116249-4.65916-2.74771-7.03994-2.884242-10.820175-0.213332-20.684625 8.038332-27.980563l5.39302-4.770093c0.819193-0.725327 2.559978-1.62132 3.53277-1.817585z" fill="#EEF3A7" /><path d="M472.614657 108.850336c0.102399 0 0.358397 0.0512 0.597329 0.102399l6.732742 2.687978 0.307198 2.440512c0.981325 7.927399-2.099182 4.983424-1.638386 10.111914l-0.827727 2.124782 0.085333 17.834516c0.008533 2.158915-0.375463 4.121565-0.989858 6.118348-0.315731 1.023991-0.452263 3.353572-0.682661 4.454362-0.469329 2.252781-3.182906 4.633561-2.269847 6.801009 0.093866 2.636778-2.935442 6.826609-3.754635 10.402045l-1.194657 5.196756c-1.083724 4.71036-0.435196 8.763659 1.134924 13.354553l1.169057 3.413305c0.452263 1.314122 1.20319 3.106107 1.809051 4.215431l2.508779 4.607961 2.175981 4.002099c1.442121 2.653844 3.370638 7.227672 2.414913 10.052181-1.023991 3.029308-2.833043 6.382879-4.505562 8.848992l-4.223964 6.271947-2.184515 3.310905-2.30398 3.652236c-0.529062 0.83626-1.57012 2.278381-1.894384 3.037841l-4.386096 10.444711c-0.435196 1.023991-0.998392 2.807443-1.211723 3.771701l-1.092258 4.983425c-0.716794 3.276772-0.452263 7.09114-0.426663 10.350845-0.401063-0.0512-1.54452-1.373855-1.510387-2.099182l0.494929-9.770584c0.093866-1.860251 0.39253-4.829826 0.017067-6.527944-0.196265-0.870393-3.199973-1.041058-3.839968-0.383997L448.252197 257.70454l-4.155698 2.022383c-0.887459 0.426663-1.885851 2.628244-2.687977 3.182906l-4.991958 3.438905c-1.271456 2.005316-2.670911 3.447437-4.369029 4.974891l-5.256489 4.744493c-1.459188 1.314122-3.259706 2.568512-4.505562 3.993566l-4.078898 4.68476c-1.663986 1.91145-3.362105 3.541303-5.265022 5.393021-3.302372 3.217039 0.221865 1.365322-5.469821 5.734351l-3.566903 2.730644c-2.38078 1.826118-0.36693 2.517312-3.763168 6.502345-0.767993 0.904526-3.251172 2.449046-3.50717 3.618102l-1.604253 7.270339c0.83626 1.877317 1.058124 3.396238 0.827726 5.02609l-0.469329 3.276773-0.682661 4.206897c-0.281598 1.732252-0.938659 5.290622-0.0256 6.69861l2.423446 3.729035c2.602645 4.019166-0.358397 6.357279 0.86186 6.783943l2.056515 0.725327c3.003708 1.058124 0.614395 2.986641 3.157307 3.45597l2.01385 0.375464c0.39253 0.068266 0.742394-1.17759 1.006924-1.587187h4.044766c1.305589 0 3.48157-2.201581 4.29223-3.310905 1.476254-2.005316 2.986641-3.251172 4.991958-4.309297l3.157307-1.655452c2.389313-1.254389 5.299155-4.428762 5.973282-5.768485 2.431979-4.812759 3.071974-1.851718 4.881025-4.326363 0.691194-0.947192 1.945583-2.705044 2.884243-3.080507l3.50717-1.399455c1.262923-0.503462 2.594111-1.698119 3.805834-2.833043 5.896483-5.572219 1.169057 0.435196 5.96475-5.870883 1.98825-2.619711 4.283697-3.106107 7.901799-5.88795l5.640486-4.334897 3.967966-3.123173v-4.923692c0.238931 0.230398 0.955725 1.51892 1.109324 2.090649l1.186123 4.258097c1.322655 4.744493-0.708261 10.700709-3.037841 14.958807-0.989858 1.809051-2.72211 3.592503-4.002099 5.179689l-2.645311 3.293839-2.082116 2.594111c-2.619711 3.259706-7.705535 9.872983-8.58446 13.593485l-1.15199 4.846892c-0.554662 2.32958-0.708261 4.744493-0.708261 7.022874l-1.314122-0.127999-0.204798-2.841576c-0.093866-1.288522 0.571728-3.822901 1.425054-5.418621 0.162132-0.307197-1.15199-1.390922-1.467721-1.262922-3.413304 1.356788-8.157797 6.084215-10.726309 9.250055l-2.918375 3.601036-4.488495 5.606352c-3.848501 4.804226-1.237323 0.059733-5.96475 6.425546l-3.985032 5.367421-3.16584 4.130098-5.54662 6.869275-2.193048 2.559978-2.346647 2.969575c-1.348255 1.706652-2.670911 3.447437-3.805834 5.316222l-3.370638 5.546619c-1.672519 2.756243-3.404771 5.418621-4.829826 8.328463l-1.57012 3.199973c-1.971183 4.002099-4.155698 7.910333-4.445829 12.578027-0.085333 1.373855-0.383997 3.251172-1.10079 3.8741l-1.211723 1.049591c-0.221865 0.187732-1.092257-0.73386-1.17759-1.032524l-0.989859-3.703436c-0.44373-1.663986 0.102399-4.31783 0.162132-6.178081l0.452263-13.277754c0.0512-1.407988 1.399455-5.879417 1.868784-8.567394l0.930126-5.324754c0.179198-1.015458 1.075191-2.978108 1.561586-4.181298l2.508779-6.263414 3.293839-4.283697c-0.153599 0.204798 2.961042-5.478354 3.549836-8.004199 0.273064-1.169057-1.894384-2.943975-3.020774-3.097573-3.652236-0.503462-3.541303 2.952508-5.367421 5.12849-0.39253 0.469329-2.679444 0.179198-2.696511-0.605862l-0.307197-14.984406c-0.0256-1.075191-1.186123-3.208506-1.023991-4.155698l0.648528-3.771702c0.349864-2.039449 0.793593-4.300764-0.733861-5.410087-0.0256-0.605862-0.076799-1.501854-0.068266-2.065049 0.819193-0.238931 1.843184-1.59572 1.749318-2.474646l-0.537595-5.299155c-0.085333-0.844793 0.136532-2.500245 0.127999-3.387705 1.075191 0.895992 2.005316-4.334897 2.090649-5.247955l0.639994-6.809542c0.469329-5.034624 1.314122-4.403163 1.382389-10.564177l3.106107-4.241031-0.460796-5.777018c-0.059733-0.802127-0.290131-1.928517-0.264531-2.491712l0.145065-3.259706c0.0256 0.076799 1.169057-0.622928 1.186123-0.955725l0.085333-2.414913 0.034133-0.665594c0.290131-0.162132 1.049591-0.989858 1.211723-1.407988l1.143457-2.943975c0.273064-0.708261 0.281598-2.295447 0.273064-3.063441v-0.520529s1.169057-0.639995 1.382389-0.938658l3.157306-4.514095c4.360496-6.237814 2.423446-1.279989 5.307688-8.277263 0.452263-1.109324 2.500245-2.807443 3.106107-3.814368l3.481571-5.691685-1.783452-6.920475 2.449046 0.554662c0.409597 1.006925 1.109324 2.79891 1.868784 3.319439 1.450654 0.989858 4.036232-0.571728 4.650628-2.730644 0.665594-2.346647 3.438904-5.435687 5.085823-7.06554 0.401063-0.39253 0.213332-2.01385 0.085333-2.568511l-0.307198-1.314123c-0.085333-0.349864 2.670911-1.681052 2.952509-1.143457l0.878925 1.629853c0.273064 0.238931 0.989858 0.913059 0.913059 0.83626l3.771702-1.425055c0.793593-0.298664 1.96265-1.672519 2.892775-2.577045l-1.860251-4.701826c7.330071-4.36903 8.746592 1.51892 9.821784-2.995175 1.262923-5.273555 2.397846-4.556761-0.042667-7.987132-1.672519-2.346647-3.882634-3.319439-6.690076-1.954117-0.307197 0.145065-1.305589 0.708261-1.527454 0.452263l-1.092257-1.271456c-0.213332-0.247465-0.631461-1.186123-0.341331-1.314122l1.058125-0.46933 2.807442-1.322655 3.071974-1.527454c2.278381 1.254389 4.531162 0.674128 6.126882-1.12639l0.819193-0.921592c0.162132-0.187732 0.83626 0.537595 0.887459 0.776526l0.554662 2.926909c4.531162 1.834651 1.783452 5.341821 4.590894 5.700218 1.902917 0.247465 3.53277-1.211723 4.73596-2.77331l3.012241-3.916766c0.639995-0.827726 1.749318-1.604253 2.79891-2.517312 2.346647-2.047983 0.349864-2.926909 0.648528-6.382879 0.298664-3.379171 0.83626-6.971674-3.421838-8.260197l-4.454362-1.348255c-1.416521-5.213822 4.275164-4.73596 1.339722-6.399946l-2.918376-1.655453-3.362104 4.898092c-1.971183 2.875709-0.520529 5.529553 0.597328 6.229281 1.971183 1.237323 3.857034-1.390922 5.794084-0.153599 0.750927 0.477863 0.657061 3.217039-0.102399 3.694902-0.622928 0.401063-1.894384 0.631461-2.969575 0.725327l-2.961041 0.255998c-1.109324 1.365322-3.106107 2.278381-4.846893 2.141848-0.699727 0.136532-2.244248 0.597328-2.909842 0.631462l-5.78555 0.273064-1.126391 2.278381c-3.080507 0.827726-6.451145 0.307197-9.215922-1.186124 3.729035-5.870884-1.93705-0.102399 3.379172-9.087922 0.955725-1.612786 1.894384-3.626636 2.986641-5.085824l3.421838-4.556761 4.573827-6.084215c0.597328-0.802127 1.373855-1.757852 2.030917-2.517312l4.002099-4.642094c0.605862-0.699727 1.254389-1.467721 1.902917-2.116249l3.268239-3.251172c0.639995-0.631461 1.407988-2.619711 2.065049-3.447438 1.194657-0.588795 2.909842 0.870393 3.618103 2.175982 0.213332-0.145065 0.802127-0.546129 0.78506-0.537596-0.546129-1.860251-0.631461-3.720502 0.136532-4.701826l2.679444-3.404772 3.208506-4.181297c1.032525-1.348255 1.006925-5.427154 0.145065-6.946075-1.93705-3.404771-4.514095-5.316222-8.19193-6.186614l-6.596211 1.98825c-4.974891 4.915158-2.577045 1.527454-7.108206 6.545011l-2.551445 2.833043-1.681053 1.826117c-0.409597 0.44373-0.972792 1.484787-1.211723 2.03945-0.110932 0.264531-0.486396 0.81066-0.716793 1.049591l-10.837242 11.110306c-1.356788 1.390922-2.892775 2.892775-4.010633 4.488495l-1.672519 2.38078-3.558369 4.625027-2.722111 3.626636-2.423446 3.455971-2.551445 3.626636-1.186123 2.210114c-0.580262 1.083724-2.474646 2.850109-3.063441 3.839968-0.657061 1.749318-1.450654 3.473037-2.35518 4.966357l-1.800518 2.978108-2.210114 3.652236-1.59572 2.645311-2.491712 3.908234c-0.196265 0.298664-0.563195 1.023991-0.759461 1.416521l-3.788768 7.449537-2.653844 5.375954-2.175981 4.445829c-3.071974 6.263414-0.73386 3.396238-3.865567 9.096456-0.221865 0.674128-0.614395 2.158915-0.88746 2.781843l-1.211723 2.722111-1.211723 2.756243-2.133315 4.804226-0.861859 2.926908-1.169057 2.74771c-0.529062 1.237323-1.041058 2.670911-1.416521 3.967967l-1.211723 4.189831-1.809052 2.261314c-0.972792-1.314122-1.834651-2.431979-2.184515-3.362105l-1.501853-4.002099c-1.868784-4.974891 0.230398-1.237323-1.783452-7.082607l-1.314122-3.814368-1.467721-4.863958-0.631461-4.829826c-0.179198-1.356788-0.887459-2.875709-0.955726-4.053299-0.119466-2.133315-0.102399-4.147165-0.486395-5.802617-0.247465-1.083724-0.844793-2.483179-0.83626-3.626636l0.281598-29.610416c1.553053-2.466112 0.827726-4.898092 1.356788-9.301254 0.093866-0.78506 0.947192-2.577045 0.981325-3.336505 0.076799-1.851718 0.162132-4.411696 0.358397-5.785551 0.093866-0.631461 1.049591-2.372247 1.049591-3.071974l-0.042666-14.190813c0-0.605862-1.740785-1.22879-1.860251-0.998392 0.0512-0.068266 2.030916-3.959433 3.865567-6.451145 9.591385-13.00469 22.775273-23.739532 36.035961-32.887188 3.370638-2.321047 13.090022-7.500736 17.168921-9.31832 15.078272-6.732743 29.456817-11.024973 46.258808-10.64951l7.313004 0.162132z m-7.415403 57.172849c0.068266-0.648528-1.689586-0.085333-1.911451 0.426663s0.324264 1.22879 1.604253 2.457579c0 0.042666 0.204798-1.902917 0.307198-2.884242z m0.307197 18.235578l1.442121-3.976499c0.503462-1.399455 0.230398-4.31783 0.119466-6.118348l-0.136532-2.193048-0.0768-1.604254c-0.017067-0.34133-1.484787 0.247465-1.553053 0.588795-1.17759 5.700218-0.179198 7.099673-1.971184 8.26873-0.588795 0.383997-1.57012 1.117857-1.49332 1.638386 0.0512 0.383997 0.469329 1.553053 0.802126 1.749319l2.867176 1.646919z m-6.920475-8.994057l-1.271456-1.271456c-0.059733 0.895992 0.375463 1.322655 1.271456 1.271456z m3.729035 0.179199c-0.409597-1.20319-1.083724-1.689586-1.706652-1.169057l1.706652 1.169057z m-68.906082 172.47427l-1.373855 1.655453 1.868784 1.553053 1.373855-1.655453-1.868784-1.553053z m8.302863 17.672383l-0.204798-5.179689c-1.271456-0.358397-3.652236-0.042666-4.403163 0.742394l1.877318 6.442612c1.134924 0.179198 2.77331-1.023991 2.739176-2.005317z" fill="#FAF4A8" /><path d="M445.786085 352.730934l-1.868784 0.767994c-0.469329 0.196265-1.356788-0.708261-2.346647-1.450655l-3.447437 2.875709c-2.568512 2.141848-1.587187 3.362105-3.601037 5.589286l-4.812759 5.324755c-3.396238 3.763168-4.053299 3.635169-7.816467 8.021265l-3.14024 3.652236c-1.109324 1.288522-2.653844 2.739177-3.549836 4.095965-3.985033 6.015949-4.633561 4.898092-6.365813 7.705535l-1.535987 2.491712a75.980155 75.980155 0 0 0-3.53277 4.29223l-2.636778 3.490104c-0.750927 0.998392-1.62132 2.321047-2.286914 3.387704l-2.619711 4.189832-2.636777 5.393021-0.998392 2.423446c-0.614395 1.501854-2.35518 3.618103-2.69651 5.000491l-1.996783 7.978599c-0.34133 1.365322-0.716794 3.711969-0.78506 5.10289l-0.315731 6.664476-0.153599 3.549837-0.298664 7.884733c-0.034133 0.964258 0.657061 3.19144 1.604253 3.677836 1.348255 0.682661 3.310905-4.095965 6.229281-7.935933l1.698119-2.235715 3.50717-4.616494c0.631461-0.83626 5.486887-6.195147 6.630344-6.075681-0.452263 0.750927-1.22879 2.210115-1.817585 2.867175l-3.592503 3.967967c-4.044766 4.462895-0.110932 1.587187-4.479962 5.930616l-2.500245 4.369029c-0.563195 0.981325-1.407988 2.210115-1.851718 3.225573l-3.106107 6.954608c-0.930125 2.082116-2.295447 11.460169-1.12639 14.907607 0.153599 1.902917 0.622928 4.121565 2.406379 5.05169 0.938659 0.486396 2.72211-1.12639 3.276773-1.96265l4.889558-7.347138c4.078899-6.126881 2.32958-5.725818 8.917258-12.825491 4.29223-4.625027 0.998392-2.201581 5.631952-6.929008l4.625027-4.718893 5.538087-5.802617c1.356788-1.425055 6.886342-5.205289 7.01434-5.333288l3.9765-3.916767c1.041058-1.023991 2.073582-2.116249 3.182906-2.815976l3.396238-2.141849c3.268239-2.056516 6.638877-3.08904 10.444711-1.834651l4.607961 4.095965c3.14024 2.790376 4.531162 6.289013 3.788768 10.581244l-1.578653 9.181789-1.20319 6.835142-1.228789 1.314122 0.017066 3.413304c-1.425055 2.875709-3.891167 8.780726-3.916767 12.381762l-0.076799 10.402045c0 0.401063 0.827726 1.715185 0.972792 2.099182l3.353571 8.371129c0.81066 2.030916 1.868784 3.882634 3.285306 5.418621l3.242639 3.524237c0.827726 0.895992 2.065049 3.396238 2.261314 4.63356 1.868784 11.7759 1.663986 6.681543-0.520529 19.327836l-0.537595 0.716794c-0.102399-1.587187-0.255998-4.770093 0.196265-6.562077 0.401063-1.587187 1.791985-4.488495 0.767993-5.674619l-3.942366-4.556761c-0.725327-0.844793-3.251172-0.153599-4.036233 0.435196l-5.717285 4.275164c-2.542912 1.902917-4.881025 4.010633-7.082606 6.237813l-3.003708 3.037841-4.283697 4.445829-6.365813 6.758343-6.365812 6.843675-3.148774 3.473037-5.043157 5.57222-3.208506 3.541303-2.585578 2.653844c-0.83626 0.853326-1.96265 2.167448-2.636778 3.089041l-1.774918 2.431979-3.601036 4.932225-2.474646 3.53277-3.123173 4.68476c-0.315731 0.477863-0.913059 1.681052-1.245856 2.303981l-2.79891 5.162623c-2.005316 3.703435-1.459188 6.579144-4.548228 11.613768-2.517312-2.756243-2.261314-7.799401-3.601036-8.695393l-0.145066-5.742885c-0.017067-0.571728-1.160523-2.32958-1.160523-2.926908l-0.059733-19.583834-1.22879-2.158915-0.119465-25.855781c-0.39253-1.774918-1.134924-4.147165-1.143457-5.930616l-0.179199-46.39534-0.017066-33.817313 0.034133-33.151719 0.196265-29.345884c0-0.81066 0.554662-2.227181 1.023991-3.174373l0.213332-15.905999c0.017067-1.22879 0.486396-2.756243 1.092257-4.010632l0.238931-11.272438c0.0256-1.12639 0.605862-2.491712 1.297056-3.174373 1.51892 1.109324 1.083724 3.370638 0.733861 5.410087l-0.648528 3.771702c-0.162132 0.938659 0.998392 3.080507 1.023991 4.155698l0.307197 14.984406c0.017067 0.78506 2.30398 1.075191 2.696511 0.605862 1.826118-2.175982 1.715185-5.631952 5.367421-5.12849 1.117857 0.153599 3.293839 1.919984 3.020774 3.097573-0.588795 2.525845-3.703435 8.208997-3.549836 8.004199l-3.293839 4.283697-2.508779 6.263414c-0.477863 1.194657-1.382388 3.16584-1.561586 4.181298l-0.930126 5.324754c-0.469329 2.69651-1.826118 7.159406-1.868784 8.567394l-0.452263 13.277754c-0.059733 1.860251-0.614395 4.514095-0.162132 6.178081l0.989859 3.703436c0.076799 0.298664 0.955725 1.22879 1.17759 1.032524l1.211723-1.049591c0.716794-0.622928 1.023991-2.500245 1.10079-3.8741 0.281598-4.667694 2.474646-8.575927 4.445829-12.578027l1.57012-3.199973c1.433588-2.909842 3.157307-5.563686 4.829826-8.328463l3.370638-5.546619c1.134924-1.868784 2.457579-3.609569 3.805834-5.316222l2.346647-2.969575 2.193048-2.559978 5.54662-6.869275 3.16584-4.130098 3.985032-5.367421c4.727427-6.365813 2.116249-1.629853 5.96475-6.425546l4.488495-5.606352 2.918375-3.601036c2.568512-3.16584 7.313005-7.893266 10.726309-9.250055 0.315731-0.127999 1.629853 0.964258 1.467721 1.262922-0.853326 1.59572-1.51892 4.130098-1.425054 5.418621z" fill="#FBF6B1" /><path d="M305.618741 384.773329l-0.068266-44.415623 0.332797-18.815841 0.563195-14.096947 0.520529-10.854308-0.179199-0.648528c0.187732 0.110932 0.776527-1.373855 0.819193-1.894383l0.563196-8.200464c0.042666-0.665594 2.662377-14.079881 3.148773-15.982798l3.234106-12.603626 1.629853-5.742885c2.201581-7.790867 6.741276-19.31077 10.120447-26.751773 4.113032-9.062323 8.311396-16.554526 13.781217-24.746457l4.010632-6.007415c1.706652-2.551445 3.276772-5.12849 5.026091-7.313005 0.059733 0.716794 0.042666 2.261314-0.170665 2.952508-2.124782 6.749809-0.0512 3.50717-2.124782 7.628735l-0.554662 6.348747c-0.059733 0.136532-0.819193 1.476254-0.827727 1.834651l-0.298664 11.605235-1.10079 2.64531-0.017067 19.891032c0.221865 0.546129 0.947192 2.150382 0.989858 2.739177l0.537596 7.697001 0.802126 2.278381c0.486396 1.399455 0.332797 4.582361 0.716794 5.973282l0.674128 2.449046c0.41813 1.527454 0.657061 2.986641 1.100791 4.232498l1.382388 3.933833 1.373855 3.942366 1.20319 3.481571c0.44373 1.279989 0.878926 2.69651 1.382388 3.857034l2.815976 6.553544 1.356789 3.285306 1.390921 3.430371c0.162132 4.215431 0.273064 8.644193-0.187732 13.158288 0.034133-0.298664-2.372247 7.961532-2.065049 6.041549-0.162132 0.998392-0.332797 3.353572-0.597328 4.326363l-1.143457 4.181298c-0.213332 0.767993-0.614395 2.039449-0.708261 2.628244l-1.023991 6.485279-0.699727 4.104498-1.015458 5.922083-0.913059 5.162623-0.742394 4.189831a33.245585 33.245585 0 0 1-1.186123 4.744493l-0.426663 7.057007-0.83626 2.269847-0.375463 6.348747-1.006925 2.35518-0.332797 7.022873-0.853327 3.464504-0.452262 7.11674c-0.042666 0.682661-0.708261 2.286914-0.81066 3.012241-0.767993 5.811151 0.102399 8.763659-1.484788 12.296429l-0.580261 13.226555-0.989859 4.565294-0.025599 16.53746c0 1.109324-2.295447 3.037841-3.19144 2.687977-4.121565-1.612786-4.667694-4.479962-6.835142-9.122056l-2.961041-6.33168-1.467721-3.123173-2.525846-5.367421c-2.952508-6.28048-2.397846-2.705044-3.225572-7.748201l-5.418621-11.059106c-0.39253-0.81066-0.776527-1.826118-1.143457-2.815976l-2.602644-4.061833c-2.858642-4.454362 0.537595-3.387705-3.345039-5.256488l-0.78506-3.404771-2.201581 0.725327z" fill="#FAF8AD" /><path d="M652.581131 151.968904c3.251172 2.568512 6.417012 5.529553 9.34392 8.857525l5.273556 6.007415 5.640485 6.946075 3.754635 4.974891c3.686369 4.889559 6.690077 10.000982 9.86445 15.240404 4.488495 7.389804 8.447928 13.994548 11.792966 21.939014 2.867176 6.801009 5.393021 13.465486 7.48367 20.266495 0.204798 3.754635-1.416521 3.345038-2.082116 5.785551-1.279989 4.667694-2.525845 9.378054-3.473037 14.148146l-4.164231 20.974756-3.55837 16.870256-2.124782 8.132198c-1.075191 4.130098-2.790376 8.959924-4.539695 12.765759l-4.258097 9.258588-3.234106 6.715676-2.278381 4.420229c-0.947192 1.834651-2.022383 3.737568-3.071974 5.46982l-2.756243 4.531162-4.923691 8.413795-1.902918 3.276772-3.473037 5.734352-1.93705 3.53277c-0.349864 0.631461-0.989858 1.535987-1.339722 1.979716l0.170665-1.407988c0.290131-2.431979-0.844793-4.915158-2.440512-6.724209l-0.767994-2.978108c-0.358397-1.382388-0.665594-2.69651-0.913059-4.147165l-0.836259-4.957825-0.802127-5.623419c-2.244248-5.068757 0.127999-3.447437-1.809051-10.137514l-1.510387-5.205289c-0.349864-1.211723-0.75946-2.321047-1.20319-3.413304l-0.426663-3.208506 0.938658 1.023991c0.383997 0.41813 2.286914 1.459188 2.534379 0.964258 2.423446-4.829826 0.170665-2.338113 2.781843-7.202072l-0.36693-6.596211-0.614395-14.003081c-0.170665-3.805834-0.511996-7.475137-0.913059-11.246838l-0.622928-5.905016-0.503462-3.993566-0.716794-5.333288-0.819193-5.956217-0.716794-7.987132-0.657061-11.895366c-0.665594-12.057498-0.708261-23.773665-0.0256-35.779963l0.563195-9.941249 0.657061-8.601527 0.725327-7.731134 0.793594-7.11674 1.826118-14.856407 0.691194-5.512487 0.947192-0.75946z" fill="#F2F6A8" /><path d="M530.905363 136.139705c0.017067 0.39253 0.196265 1.868784 0.520529 2.286914l3.319438 4.275163 5.162623 7.637269 2.022383 3.16584 1.791985 2.892775c1.160523 1.868784 2.500245 3.686369 3.822901 5.461287l1.681052 3.037841c0.674128 1.211723 1.493321 2.449046 2.269847 3.677836l1.17759 2.218648 2.295448 4.283696 5.427154 9.770584c0.383997 0.691194 0.844793 1.96265 1.211723 2.850109l1.578653 3.771702 2.440513 4.855425 1.305589 2.602645 1.578653 3.14024 2.602644 5.427154 1.023992 3.50717 2.662377 5.350355c0.537595 1.083724 1.023991 2.69651 1.510387 3.839967l2.517312 5.96475c0.511996 1.20319 1.006925 2.687977 1.416522 3.993566l1.254389 3.967966 1.399455 4.078899 1.15199 3.362105 1.365322 3.9253 1.365321 3.933833 1.049592 3.447437 0.827726 2.943975 0.836259 2.961042 1.314123 4.65916 1.314122 4.616494 1.484787 5.299156 0.83626 3.404771 0.844793 3.438904 1.041057 4.232497 0.733861 2.995175c0.238931 0.972792 0.554662 1.93705 0.887459 2.892775l0.861859 6.254881 1.006925 4.718893 0.827727 4.061832c0.435196 2.141848 0.529062 4.505562 0.307197 6.468212-4.556761-8.499128-5.435687-9.07939-11.084706-16.622792l-2.01385-2.687978c-0.742394-0.989858-1.774918-2.40638-2.568511-3.225572l-6.903408-7.11674-4.932225-4.983424-5.649019-5.623419-3.029307-2.969575-6.451146-6.186614-5.768484-4.753027-8.652727-7.918866-11.869766-10.777508-4.676227-4.488496-4.326363-4.29223-3.319439-3.336505c-2.338113-2.35518-4.599428-4.701827-6.64741-7.261805l-0.938659-1.17759c-0.162132-0.196265-0.716794-0.639995-0.878925-0.887459l-2.559979-3.9765c-0.597328-0.921592-1.262923-2.022383-1.749318-2.961041l-1.93705-3.694902-2.167449-4.29223c-5.529553-10.973774-8.575927-20.351827-4.445829-32.545858 1.732252-5.119957 4.386096-9.830317 7.765268-13.934815l2.687977-3.268239c2.764777-3.353572 6.64741-7.253272 9.830317-9.309787l5.265022-3.404772 2.74771-1.93705c-1.083724 0.75946 5.393021-3.217039 4.206897-2.013849z" fill="#F7F8AB" /><path d="M636.854331 138.238887c-0.042666 2.440513-0.264531 5.145556-0.699728 7.9018l-3.609569 22.980071c-1.62132 10.333779-2.235714 20.522493-2.77331 30.941605l-0.503462 9.744984c-0.41813 8.038332-0.44373 15.897465-0.042667 23.89313l0.563196 11.46017c0.273064 5.623419 0.614395 11.306571 2.184514 16.716658l1.160524 3.993566c0.375463 1.288522 0.648528 2.500245 0.878926 3.549836l-2.201582-3.054907c-2.884242 4.29223-2.158915 10.197247-4.812759 12.066031-0.682661 0.477863-2.790376-0.196265-3.06344-1.049591-0.520529-1.62132-1.629853-3.660769-2.559979-4.829826l-0.938658-2.210114-2.449046-6.092749-2.389313-6.109814c-0.665594-1.706652-1.826118-3.635169-2.38078-5.222356l-1.20319-3.481571-1.262923-3.558369c-2.32958-6.570611-1.510387-1.279989-3.319438-9.011124-0.375463-1.604253-1.476254-3.643702-2.065049-5.239422l-" fill="#F4F8B0" /></svg>