<?xml version="1.0" standalone="no"?><!DOCTYPE svg PUBLIC "-//W3C//DTD SVG 1.1//EN" "http://www.w3.org/Graphics/SVG/1.1/DTD/svg11.dtd"><svg class="icon" width="256px" height="256.00px" viewBox="0 0 1024 1024" version="1.1" xmlns="http://www.w3.org/2000/svg"><path d="M914.919868 212.864l3.106133-2.9184 8.098133-5.1968c1.501867-0.964267 5.1456-3.2256 6.596267-4.736l26.683733-28.014933c9.992533 15.6672 19.7632 31.8976 14.6688 53.742933-1.4848 6.357333-6.331733 14.071467-11.665066 17.322667-10.2656-7.697067-27.5712-24.618667-39.739734-11.8016l-13.508266 14.2336c-2.065067 2.167467-1.988267 9.941333 0.324266 12.3136l32.785067 33.664c4.155733 4.266667 2.7648 14.984533-2.6112 16.0512-3.208533 0.64-12.023467-1.092267-14.353067 1.1776l-14.941866 14.549333-11.733334 11.4176c-2.602667 2.5344-7.8592 9.949867-8.234666 12.817067l11.3664 17.237333c1.186133 1.800533-3.208533 7.876267-5.384534 8.1408-12.2624 1.4848-17.134933-12.228267-23.5264-5.853867l-39.9616 39.850667c-4.906667 10.1632 20.718933 17.6128 13.226667 27.7248l-7.714133 10.402133-17.1264-14.395733c-1.4848-1.245867-5.486933-4.010667-6.997334-3.413333-2.013867 0.785067-5.154133 3.1744-7.3216 5.239466l-15.6672 14.890667-15.675733 15.368533 15.837867 16.443734c1.732267 1.800533 6.647467 8.2176 5.742933 10.1888-1.6896 3.703467-9.838933 8.635733-14.498133 10.3424l-26.197334-21.102934-24.994133 22.459734-13.252267 11.613866c-2.304 2.0224-3.5328 9.668267-1.3056 12.2112l17.664 20.138667c0.4608 3.566933-8.192 12.7232-11.6224 10.606933-23.261867-14.3104-20.7104-26.5472-32.554666-15.556266l-31.914667 29.5936c-2.0992 1.954133 0.648533 8.96 2.321067 10.581333l15.4624 15.0016c2.286933 2.218667 2.8416 9.745067 1.7664 11.921067l-23.8848 9.668266-76.885334 33.425067-78.592 33.954133c-2.875733-5.0176-6.946133-11.144533-11.281066-15.761066l-24.200534-25.710934c-3.447467-3.6608-10.4448-5.981867-13.806933-3.063466l-18.304 15.906133-17.2032 15.035733c2.363733 4.4288 4.744533 8.7552 6.971733 11.178667l25.045334 27.221333-18.551467 8.1664c-2.5344 1.117867-8.2432-1.041067-10.308267-3.387733l-17.1008-19.362133c-1.442133-1.629867-5.358933-4.548267-7.458133-4.872534-2.619733-0.4096-7.458133 2.9696-9.745067 4.949334l-29.090133 25.028266c-2.449067 2.107733-1.595733 9.1904 0.213333 12.049067l4.770134 7.517867c-12.782933 3.524267-26.333867 9.284267-40.0384 13.943466-53.0176 18.030933-87.697067 34.577067-136.8832 55.3216-0.034133-1.041067-2.030933-6.6048-3.438934-8.004266l-27.392-27.374934c-3.140267-3.490133-5.009067-8.1408-4.906666-11.9552 3.438933-5.5552 6.980267-11.374933 10.9312-16.0256 0.4864 0.2816 3.9424 2.6368 4.872533 3.6096l37.282133 39.3728 16.2304 1.6384c9.335467-8.183467 37.444267-20.155733 23.3984-35.3536l-39.8592-43.136c-8.021333-8.6784-14.4896-5.9392-14.1312-10.308266 14.967467-24.610133 30.754133-48.930133 48.2048-73.386667l10.402134-14.583467c2.423467 0.802133 8.465067-0.059733 10.632533-1.9456l28.279467-24.618666c1.570133-1.365333 5.188267-6.4512 4.104533-8.183467l-4.753067-7.5776c-1.220267-1.9456-2.7904-5.905067-3.242666-7.6288 3.413333-4.411733 8.5248-11.716267 11.5456-16.162133l10.001066 8.746666c2.0992 1.834667 5.589333 4.334933 7.586134 5.256534 1.9968 0.913067 6.690133-2.082133 8.951466-4.053334l29.064534-25.3184c1.9712-1.7152 1.92-10.043733 0.1536-11.869866l-18.1248-18.7392c-1.006933-1.041067-2.2016-6.5024-2.1248-6.775467l11.178666-16.1792c1.792 1.390933 4.9664 3.959467 6.954667 5.930667l19.703467 19.498666c1.442133 1.425067 3.8912 3.4304 5.213866 4.266667 1.757867 1.109333 6.903467-1.4336 8.644267-2.926933l29.457067-25.2672c2.807467-2.4064-0.017067-11.682133-2.645334-14.4128l-29.312-30.370134c-1.1008-1.143467-3.268267-5.725867-3.268266-5.9904 2.466133-5.538133 5.563733-11.5456 8.96-16.768 0.042667-0.162133 6.203733 0.110933 7.227733 1.1776l16.008533 16.6656 20.138667 20.957867c2.013867 2.090667 10.077867 6.724267 12.552533 4.701867l33.757867-27.6224c2.363733-1.937067-0.4864-10.427733-2.602667-12.612267l-22.775466-23.509333c-2.141867-2.218667-5.4016-9.173333-4.036267-11.656534 3.677867-6.7072 12.202667-13.7216 18.423467-7.560533l32.324266 32c2.8928 2.8672 12.023467-2.602667 14.993067-5.060267l24.413867-20.1984c3.0208-2.500267 2.414933-9.386667-0.3584-12.2112l-21.751467-22.144c-2.781867-2.824533-1.6128-12.0064 0.6656-14.737066 2.2784-2.730667 11.460267-6.186667 14.114133-3.703467l31.479467 29.533867c2.491733 0.384 9.5232-1.7664 11.630933-3.5072l28.7232-23.5776c1.604267-1.314133 2.244267-7.569067 0.699734-9.2672l-21.981867-24.183467c-2.466133-2.7136 0.827733-11.306667 3.345067-13.687467 2.0992-1.988267 10.624-4.770133 12.868266-2.594133l25.224534 24.388267c3.4048 3.285333 10.427733 4.096 13.3632 1.800533l18.013866-14.088533L661.454268 279.04c1.5616-1.271467 1.672533-7.4496 0.1536-9.088l-19.054934-20.5056c-4.590933-7.620267 9.122133-20.898133 15.2064-15.351467l27.963734 25.506134c1.8944 1.732267 10.496-3.1232 12.8256-4.949334l27.2128-21.4016c1.220267-0.964267 3.874133-4.369067 4.599466-5.691733 2.082133-3.805867-9.608533-11.255467-12.962133-20.010667-2.773333-7.236267 10.112-14.592 15.069867-10.6752l21.213866 16.785067c2.875733 2.269867 11.716267-3.925333 15.0528-6.280533l27.1872-19.234134c2.065067-1.4592 3.831467-8.618667 2.286934-10.1376l-11.306667-11.144533c-3.413333-3.362133-5.461333-13.7216-1.9968-17.390933l6.971733-7.364267c-0.2816-0.580267 1.194667 3.319467 1.6384 3.746133l23.0912 22.545067c3.114667 3.0464 11.818667 7.9872 15.3088 6.272l28.2112-13.9008c1.646933-0.810667 6.024533-1.6128 8.874667-2.193067l-19.549867 19.524267c-1.826133 1.826133-5.0432 6.331733-5.111466 8.738133s3.1488 6.903467 5.077333 8.874667l31.8976 32.554667c3.805867 3.882667 12.484267 4.522667 16.315733 0.930133l17.339734-16.298667z m-78.216534 69.1456l29.994667-26.6752c4.462933-3.968 0.554667-14.5408-2.781867-17.9968l-29.2352-30.276267c-6.144-6.357333-15.812267-17.041067-26.274133-9.0624l-26.325333 20.078934c-2.3552 1.792-5.870933 7.304533-6.1184 10.197333-0.247467 2.8928 2.653867 8.516267 5.6064 11.4944l42.760533 43.0592c1.800533 1.809067 10.359467 0.9728 12.3648-0.810667z m-62.967466 53.853867l32.512-28.4416c3.754667-3.285333 0.273067-14.421333-3.1232-17.860267l-42.811734-43.3664c-4.241067-4.3008-14.0032-6.929067-18.7136-3.319467l-25.122133 19.2512c-7.005867 5.367467-9.984 15.709867-2.961067 22.920534l46.353067 47.607466c2.414933 2.4832 11.204267 5.5552 13.8752 3.217067z m138.5472-31.854934c1.698133-0.699733 4.4544-7.202133 2.935466-9.224533-1.5104-2.0224-6.007467-4.736-8.533333-7.441067l-18.9696-20.343466-21.495467 18.474666-14.737066 13.149867c-2.116267 1.885867-2.1504 9.233067-0.068267 11.3152l20.437333 20.437333c9.813333 9.813333 36.266667-20.974933 40.430934-26.368z m-174.293334 61.755734c4.0704-3.4048 8.081067-10.154667 7.330134-13.482667-0.631467-2.773333-3.618133-7.8592-5.7856-10.146133l-31.223467-32.904534-11.784533-12.663466c-7.415467-7.9616-16.554667-8.6272-24.814934-1.962667l-19.8144 15.991467c-4.8384 3.908267-11.537067 14.088533-5.563733 20.3008l51.84 53.9136c2.167467 2.2528 10.564267 5.418667 12.919467 3.456l26.897066-22.510934z m89.838934 21.640533l28.0064-25.378133c3.2512-2.944 3.8912-12.458667 0.802133-15.658667l-21.947733-22.749867c-2.1248-2.2016-9.070933-3.191467-11.195734-1.288533l-30.6688 27.392c-2.065067 1.8432-4.736 5.674667-4.974933 7.850667-0.1792 1.629867 2.372267 5.248 3.566933 6.528l20.420267 21.845333c3.157333 3.3792 12.1088 4.974933 15.982933 1.4592z m-174.1312 50.884267l27.733333-25.284267c2.491733-2.2784 2.594133-12.689067 0.0512-15.342933l-45.986133-47.957334c-4.770133-4.974933-9.941333-9.3952-14.190934-10.0608-3.908267-0.605867-12.151467 2.773333-15.121066 5.256534L584.620134 362.922667c-3.754667 3.140267-7.253333 14.9248-3.805866 18.440533l30.301866 30.8736 25.966934 26.4704c3.003733 3.063467 12.7488 3.114667 16.622933-0.418133z m141.013333-18.286934c3.029333-2.688 6.6304-12.552533 3.643733-15.6928l-25.685333-27.025066c-1.28-1.348267-5.7088-3.6608-7.424-3.080534s-5.495467 2.816-6.8864 4.104534l-34.952533 32.349866 31.104 32.162134c3.3024 3.413333 13.056 1.288533 16.3072-1.604267l23.901866-21.213867z m-202.845867 70.058667l22.229334-18.926933c6.6816-5.691733 8.4992-15.522133 1.706666-22.6816l-48.1024-50.645334c-8.1664-8.6016-18.4064-7.304533-27.144533 0.221867l-20.9152 18.0224c-3.234133 2.7904-3.780267 13.627733-0.750933 16.7936l30.9248 32.298667 23.2192 24.2688c4.48 4.6848 13.201067 5.418667 18.816 0.64z m119.185067 5.794133l23.074133-20.7104c2.176-1.954133 5.435733-7.296 5.265067-10.052266s-3.0976-8.132267-5.009067-10.146134l-20.2752-21.333333c-2.397867-2.525867-4.906667-4.949333-6.826666-6.0672-1.92-1.117867-7.842133 1.6896-9.6 3.2256l-28.049067 24.465067c-2.414933 2.107733-5.000533 5.0688-5.538133 7.159466-0.529067 2.090667 2.056533 7.432533 3.575466 8.977067l24.746667 25.156267c5.009067 5.085867 13.1328 4.266667 18.628267-0.674134z m-182.101333 46.737067l23.432533-20.266667c5.128533-4.437333 8.1664-14.711467 2.6624-20.573866l-51.157333-54.3744c-5.649067-6.007467-15.761067-7.185067-22.417067-1.7408l-21.5552 17.6128c-8.576 7.005867-8.7808 16.785067-1.476267 24.448l51.157334 53.725866c5.085867 5.341867 13.3888 6.340267 19.3536 1.1776z m118.519466 11.298133l27.8272-24.379733c4.753067-4.164267 3.831467-13.986133-0.298666-18.167467L644.268134 480.273067c-3.328 0.9216-9.3184 4.0192-11.835733 6.280533l-26.743467 23.970133c-2.244267 2.013867-2.602667 9.361067-0.443733 11.6224l26.7264 28.0576c2.722133 2.858667 12.5696 6.2464 15.496533 3.6864zM466.262801 595.822933l26.052267-23.748266c4.4544-4.053333 3.7376-13.533867-0.529067-18.039467l-21.7856-23.048533-29.661867-31.402667c-4.471467-4.736-15.445333-6.562133-20.5568-2.0736l-26.811733 23.5264c-3.643733 3.2-0.861867 14.754133 2.423467 18.2016l20.2752 21.282133 32.622933 34.2272c3.6096 3.780267 13.7216 4.949333 17.954133 1.083734z m120.721067 11.682134l25.873066-22.2208c5.060267-4.352 7.3728-14.6944 2.218667-19.959467l-33.28-33.9712c-5.179733 3.285333-9.975467 6.5024-13.653333 9.745067l-25.053867 22.126933c-2.312533 2.048-2.653867 9.258667-0.512 11.4688l28.475733 29.44c3.626667 3.746133 12.552533 6.254933 15.9232 3.362133zM411.308134 640.878933l16.145067-14.856533c5.290667-4.872533 6.724267-14.344533 1.024-20.394667l-40.106667-42.581333-12.706133-13.508267c-3.447467-3.6608-14.958933-2.901333-18.8928 0.708267l-23.620267 21.632c-3.899733 3.575467-3.8144 14.916267 0.017067 18.944l50.909867 53.495467c1.774933 1.8688 8.098133 7.2448 10.5216 6.570666 4.3264-1.2032 13.192533-6.749867 16.7168-9.992533z m114.525867 20.625067l25.309867-21.700267c5.265067-4.514133 8.4736-13.806933 2.833066-19.592533l-32.034133-32.904533c-2.321067-2.389333-10.257067 0.989867-13.0048 3.3792l-27.605333 24.064c-1.988267 1.732267-4.778667 8.704-2.952534 10.624l31.931734 33.723733c2.4832 2.628267 12.322133 5.137067 15.522133 2.397867zM342.017468 697.489067l27.1104-23.645867-2.2528-14.7712-52.420267-55.296c-5.947733-6.272-17.322667-2.850133-22.980267 2.090667l-18.372266 16.059733c-4.855467 4.241067-6.869333 13.277867-4.974934 19.805867l51.8656 53.444266c5.717333 5.888 14.2336 9.1136 22.016 2.321067z m-58.0096 46.600533l20.292266-17.6128c3.575467-3.106133 1.117867-13.44-1.9456-16.648533l-24.4224-25.659734-27.409066-28.817066c-2.5856-2.722133-13.397333-2.2528-15.940267 0.187733l-22.792533 21.896533c-2.397867 2.304-1.578667 12.9792 0.768 15.4368l14.301866 14.976 36.573867 38.2976c5.794133 6.0672 14.506667 4.352 20.565333-2.065066z" fill="#FBAB01" /><path d="M691.773201 700.5184l-41.454933 32.273067-50.116267 39.031466-24.721067 19.285334-26.453333 20.676266-83.464533 65.297067c-1.442133 1.1264-4.0448 4.488533-4.5824 5.358933-3.694933 1.5616-9.890133 5.597867-14.139734 8.362667l-47.3088 30.7712c-24.4224 15.889067-50.688 26.180267-78.660266 33.655467-58.5216 15.6416-117.9136 6.135467-169.301334-22.877867l-3.1232-2.0992-2.944-0.093867-10.914133-9.198933c-7.3216-6.1696-15.069867-12.407467-21.6576-19.310933l-17.408-18.2528c-3.805867-3.985067-7.389867-8.174933-10.282667-11.6992 2.235733-0.8192 5.6832-3.473067 7.1936-5.486934l6.8096-9.122133 60.3648-35.848533 22.135467-12.945067c49.186133-20.753067 83.874133-37.290667 136.8832-55.3216 13.704533-4.6592 27.255467-10.4192 40.0384-13.943467l68.522667-18.8928c14.336-3.950933 30.148267-6.2208 45.994666-9.309866 75.665067-14.754133 143.266133-19.4304 218.606934-10.3168z" fill="#80B042" /><path d="M380.263868 411.707733c-3.396267 5.2224-6.493867 11.221333-8.96 16.768-1.245867 0.9472-4.727467 4.164267-5.9392 5.9904l-15.5136 23.3216-13.2864 19.959467-11.178667 16.1792-22.2464 30.993067c-5.085867 7.082667-9.2672 15.0784-13.252267 21.768533-3.0208 4.437333-8.132267 11.741867-11.5456 16.162133-12.3648 16-23.176533 33.3568-35.012266 49.9456l-10.402134 14.583467c-17.450667 24.456533-33.237333 48.776533-48.2048 73.386667l-12.970666 18.2272c-6.101333 8.584533-11.537067 17.2288-14.8224 25.949866-3.950933 4.6592-7.492267 10.4704-10.9312 16.0256l-9.847467 15.906134c-7.4496 12.040533-14.788267 24.106667-20.898133 36.957866l-19.566934 41.1904 3.541334 2.082134-6.8096 9.122133c-1.5104 2.0224-4.957867 4.676267-7.1936 5.486933-12.347733-15.044267-25.6512-30.907733-32.878934-50.005333l-3.0976-8.174933c-10.026667-26.478933-20.3008-81.5872-13.397333-111.2832 10.504533-45.149867 24.635733-81.322667 54.698667-114.466134l40.968533-45.1584 94.4896-100.5568c1.024-1.092267 4.0704-2.619733 5.102933-3.285333 18.286933-11.835733 17.834667-9.582933 35.805867-22.485333 20.061867-14.395733 15.095467-19.9936 25.4464-17.399467 4.002133 1.006933 8.849067 1.877333 9.992533 0.1024l4.48-6.920533 19.7376 5.128533c38.4512 10.001067 24.6784-3.285333 36.736 0.9728 4.4288 1.5616 13.482667 2.423467 16.708267 0.093867l11.793067-8.516267 5.085866-3.669333-16.64 25.6z" fill="#B2C64E" /><path d="M769.281468 144.170667l15.5904 5.265066c-3.473067 3.669333-1.425067 14.020267 1.9968 17.390934l11.306666 11.144533c1.544533 1.518933-0.221867 8.6784-2.286933 10.1376l-27.1872 19.234133c-3.336533 2.363733-12.177067 8.5504-15.0528 6.280534l-21.213867-16.785067c-4.957867-3.925333-17.834667 3.438933-15.069866 10.6752 3.3536 8.7552 15.044267 16.2048 12.962133 20.010667-0.725333 1.322667-3.370667 4.736-4.599467 5.691733l-27.2128 21.4016c-2.321067 1.826133-10.922667 6.6816-12.8256 4.949333l-27.963733-25.506133c-6.084267-5.546667-19.797333 7.7312-15.2064 15.351467l19.054933 20.5056c1.518933 1.6384 1.408 7.808-0.1536 9.088l-14.702933 11.997866-18.013867 14.088534c-2.935467 2.295467-9.9584 1.493333-13.3632-1.800534l-25.224533-24.388266c-2.244267-2.167467-10.769067 0.6144-12.868267 2.594133-2.517333 2.389333-5.8112 10.9824-3.345066 13.687467l21.981866 24.183466c1.544533 1.698133 0.904533 7.953067-0.699733 9.2672l-28.7232 23.5776c-2.116267 1.732267-9.147733 3.8912-11.630933 3.5072l-31.479467-29.533866c-2.645333-2.4832-11.835733 0.9728-14.114133 3.703466s-3.447467 11.904-0.6656 14.737067l21.751466 22.144c2.773333 2.824533 3.3792 9.710933 0.3584 12.2112l-24.413866 20.1984c-2.9696 2.4576-12.100267 7.927467-14.993067 5.060267l-32.324267-32c-6.2208-6.161067-14.7456 0.853333-18.423466 7.560533-1.365333 2.4832 1.8944 9.437867 4.036266 11.656533l22.775467 23.509334c2.116267 2.184533 4.9664 10.6752 2.602667 12.612266l-33.757867 27.6224c-2.474667 2.0224-10.5472-2.602667-12.552533-4.701866l-20.138667-20.957867-16.008533-16.6656c-1.024-1.066667-7.185067-1.339733-7.227734-1.1776l16.64-25.6c-0.059733-0.8704-0.3072-1.860267 0.110934-2.269867 0.682667-0.426667 2.602667-1.92 2.850133-2.824533 0.187733-0.682667 0.085333-2.082133 0.110933-2.756267 0.8448-0.4608 4.3776-3.797333 5.376-5.444266l8.379734-13.781334c0.622933-0.733867 1.732267-2.2016 2.628266-2.525866 3.643733-1.322667 10.4704-3.310933 15.061334-4.573867 0.981333-4.7872 4.548267-15.0528 8.490666-17.937067l23.3728-17.092266c8.661333-6.331733 21.0944-8.174933 31.624534-8.5248 1.860267-18.3296 32.119467-35.9168 48.477866-42.8032l19.072-1.5616c2.4064-8.362667 6.144-16.904533 12.637867-21.2224 20.036267-13.3376 36.957867-26.888533 57.6256-19.899734 1.476267-9.762133 6.877867-18.363733 15.624533-23.210666l23.517867-13.064534c7.594667-4.224 19.336533-9.352533 27.144533-8.413866l13.243734 1.578666c-0.2304-19.080533 44.928-35.515733 57.045333-35.6096z" fill="#FED232" /><path d="M694.759868 697.949867l-2.978134 2.577066c-75.3408-9.1136-142.941867-4.437333-218.606933 10.3168-15.8464 3.089067-31.658667 5.358933-45.994667 9.309867l0.196267-3.0208 18.551467-8.1664 17.032533-7.586133 17.774933-7.825067 17.962667-9.386667 78.592-33.954133 76.885333-33.425067 23.8848-9.668266 18.7136-8.482134c8.337067-3.780267 16-8.823467 23.3472-13.7984l1.9968 2.176c0.5888 0.648533 3.456-0.4608 4.676267-0.955733l73.4976-29.9776 18.747733-7.0912c36.932267-13.969067 74.368-26.325333 113.5616-37.154133 10.922667-3.012267 20.616533-4.3776 33.5104-5.2224-8.891733 7.2704-16.119467 12.535467-25.173333 18.56l-54.9376 36.539733-84.411733 58.487467-75.7248 54.6048-31.104 23.150933z" fill="#C8CF54" /><path d="M452.805734 286.976l-4.010666 7.688533-21.12 39.509334c-4.224 7.893333-8.046933 15.172267-11.3152 22.331733-0.896 0.324267-2.005333 1.792-2.628267 2.525867-1.578667 0.878933-6.0672 4.821333-7.150933 6.843733l-6.613334 12.381867c-0.0256 0.674133 0.0768 2.0736-0.110933 2.756266l-2.850133 2.824534c-0.418133 0.4096-0.162133 1.399467-0.110934 2.269866l-5.085866 3.669334-11.793067 8.516266c-3.217067 2.3296-12.279467 1.467733-16.708267-0.093866-12.0576-4.258133 1.7152 9.019733-36.736-0.9728l-19.7376-5.128534-4.48 6.920534c-1.152 1.774933-5.9904 0.896-9.992533-0.1024-10.350933-2.594133-5.393067 2.9952-25.4464 17.399466-17.9712 12.9024-17.518933 10.6496-35.805867 22.485334 1.015467-2.449067 3.191467-5.444267 5.930667-8.4224L366.081468 290.5344c24.021333-26.026667 44.945067-52.053333 66.269866-80.008533 17.902933-23.4752 30.7968-47.0784 47.36-74.6752 14.523733 46.5664-9.608533 112.1024-26.9056 151.133866z" fill="#A0C148" /><path d="M962.399334 243.054933l4.923734 14.5152c5.5296 16.290133-7.560533 50.414933-28.9792 58.0096 1.3056 7.406933 2.7136 20.061867-1.2288 26.658134-11.409067 19.080533-20.3776 35.310933-40.977067 40.9856-0.810667 7.483733-2.1504 17.698133-5.623467 21.998933-14.7968 18.304-28.014933 39.355733-49.152 43.0848-1.2288 5.700267-3.003733 17.6896-7.210666 22.2976l-21.410134 23.432533c-6.212267 6.792533-17.365333 11.682133-25.7792 14.5408-5.640533 19.968-37.162667 56.004267-57.053866 55.970134l-9.7792 20.2752c-7.3472 4.974933-15.018667 10.018133-23.3472 13.7984l-18.7136 8.482133c1.0752-2.176 0.520533-9.7024-1.7664-11.921067l-15.4624-15.0016c-1.672533-1.621333-4.4288-8.6272-2.321067-10.581333l31.914667-29.5936c11.8528-10.9824 9.301333 1.245867 32.554666 15.556267 3.438933 2.116267 12.091733-7.04 11.6224-10.606934l-17.664-20.138666c-2.2272-2.542933-0.989867-10.1888 1.3056-12.2112l13.252267-11.613867 24.994133-22.459733 26.197334 21.102933c4.6592-1.706667 12.808533-6.638933 14.498133-10.3424 0.896-1.9712-4.010667-8.388267-5.742933-10.1888l-15.837867-16.443733 15.675733-15.368534 15.6672-14.890666c2.176-2.065067 5.307733-4.4544 7.3216-5.239467 1.5104-0.5888 5.512533 2.176 6.997334 3.413333l17.1264 14.395734 7.714133-10.402134c7.492267-10.103467-18.133333-17.5616-13.226667-27.7248l39.9616-39.850666c6.391467-6.3744 11.264 7.338667 23.5264 5.853866 2.176-0.264533 6.570667-6.340267 5.384534-8.1408l-11.3664-17.237333c0.384-2.8672 5.632-10.282667 8.234666-12.817067l11.733334-11.4176 14.941866-14.549333c2.3296-2.269867 11.144533-0.5376 14.353067-1.1776 5.376-1.066667 6.766933-11.784533 2.6112-16.0512l-32.785067-33.664c-2.312533-2.372267-2.389333-10.1376-0.324266-12.3136l13.508266-14.2336c12.177067-12.817067 29.474133 4.104533 39.739734 11.8016z" fill="#FDBE05" /><path d="M769.281468 144.170667c-12.117333 0.085333-57.275733 16.520533-57.045334 35.6096l-13.243733-1.578667c-7.808-0.930133-19.541333 4.1984-27.144533 8.413867L648.330001 199.68c-8.738133 4.855467-14.139733 13.457067-15.624533 23.210667-20.667733-6.9888-37.5808 6.562133-57.6256 19.899733-6.493867 4.317867-10.231467 12.868267-12.637867 21.2224l-19.072 1.5616c-16.3584 6.8864-46.6176 24.4736-48.477867 42.8032-10.5216 0.349867-22.9632 2.193067-31.624533 8.5248L439.894801 333.994667c-3.9424 2.884267-7.509333 13.149867-8.490667 17.937066-4.590933 1.262933-11.4176 3.2512-15.061333 4.573867 3.268267-7.159467 7.099733-14.4384 11.3152-22.331733l21.12-39.509334 4.010667-7.688533 4.778666 0.017067L650.668134 157.405867l154.897067-101.376c26.026667-17.032533-36.983467 88.746667-36.3008 88.1408z" fill="#7CB13F" /><path d="M460.989201 882.440533c0.529067-0.8704 3.131733-4.232533 4.5824-5.358933l83.464533-65.297067 26.453334-20.676266 24.721066-19.285334 50.116267-39.031466 41.454933-32.273067 2.978134-2.577067c-0.392533 0.8448 3.754667 4.488533 6.0416 4.846934 38.408533 5.981867 77.866667 19.566933 110.779733 40.721066 6.9376 4.4544 11.5968 8.277333 16.648533 16.9984-39.168 1.877333-74.24 4.462933-111.5392 14.4896-81.911467 22.024533-154.4704 58.112-229.9136 95.854934-9.0368 4.522667-17.570133 8.106667-25.796266 11.588266z" fill="#207D3C" /><path d="M819.030801 548.974933l-18.747733 7.0912-73.4976 29.9776c-1.211733 0.494933-4.078933 1.604267-4.676267 0.955734l-1.9968-2.176 9.7792-20.2752c19.8912 0.042667 51.413333-35.9936 57.053867-55.970134 8.413867-2.8672 19.566933-7.748267 25.7792-14.5408l21.410133-23.432533c4.206933-4.608 5.981867-16.597333 7.210667-22.2976 21.137067-3.729067 34.363733-24.7808 49.152-43.0848 3.473067-4.3008 4.821333-14.5152 5.623466-21.998933 20.599467-5.674667 29.576533-21.905067 40.977067-40.9856 0.2304 1.314133 0.392533 4.113067 1.4848 3.848533l4.113067-1.006933 80.145066-19.5072 1.152 6.4256-29.141333 30.0544-93.627733 96.452266-88.0384 89.608534 5.8368 0.853333z" fill="#378A37" /><path d="M85.232401 871.714133c2.8928 3.524267 6.485333 7.714133 10.282667 11.6992l17.408 18.2528c6.587733 6.903467 14.336 13.141333 21.6576 19.310934l10.914133 9.198933-38.391467 32.017067c-13.815467 11.52-33.7408 9.608533-45.815466-3.0976l-21.8112-22.946134L11.094801 906.820267c-12.330667-12.740267-16.238933-34.568533-2.056533-47.982934l35.720533-33.792c2.645333-2.500267 4.5568-8.004267 4.497067-11.4944l3.0976 8.174934c7.227733 19.089067 20.539733 34.961067 32.878933 50.005333z" fill="#839E23" /><path d="M959.395601 171.997867c-4.352 1.3312-30.216533 27.861333-33.28 32.759466l-8.098133 5.1968c-0.913067 0.5888-2.286933 2.141867-3.106134 2.9184l-17.339733 16.298667c-3.831467 3.601067-12.509867 2.952533-16.315733-0.930133l-31.8976-32.554667c-1.928533-1.9712-5.1456-6.468267-5.077334-8.874667s3.285333-6.920533 5.111467-8.738133l19.549867-19.524267c-2.8416 0.580267-7.227733 1.3824-8.874667 2.193067l-28.2112 13.9008c-3.4816 1.7152-12.1856-3.2256-15.3088-6.272l-23.0912-22.545067c-0.443733-0.426667-1.92-4.3264-1.6384-3.746133 0.349867-7.8848 26.461867-15.240533 34.858667-17.194667 16.059733-3.7376 31.761067-1.527467 44.893866 7.8336 13.431467 9.5744 15.889067-6.664533 42.120534 1.425067 21.870933 6.741333 35.0976 21.265067 45.678933 37.8624z" fill="#FED339" /><path d="M151.570534 932.360533l-3.1232-2.0992 3.1232 2.0992z" fill="#839E23" /><path d="M528.948668 542.592c-5.973333 5.162667-14.267733 4.164267-19.3536-1.1776l-51.157334-53.725867c-7.296-7.662933-7.0912-17.442133 1.476267-24.448l21.5552-17.6128c6.656-5.435733 16.768-4.266667 22.417067 1.7408l51.157333 54.3744c5.512533 5.853867 2.466133 16.128-2.6624 20.573867l-23.432533 20.266667z" fill="#FED444" /><path d="M466.262801 595.822933c-4.241067 3.8656-14.353067 2.705067-17.954133-1.083733l-32.622934-34.2272-20.2752-21.282133c-3.285333-3.447467-6.0672-15.0016-2.423466-18.2016l26.811733-23.5264c5.111467-4.488533 16.085333-2.653867 20.5568 2.0736l29.661867 31.402666 21.7856 23.048534c4.258133 4.5056 4.974933 13.986133 0.529066 18.039466l-26.052266 23.748267z" fill="#FED646" /><path d="M653.697468 438.289067c-3.874133 3.5328-13.627733 3.4816-16.622934 0.418133l-25.966933-26.4704-30.301867-30.8736c-3.447467-3.5072 0.0512-15.300267 3.805867-18.440533l21.563733-18.0224c2.9696-2.4832 11.2128-5.870933 15.121067-5.256534 4.2496 0.6656 9.429333 5.085867 14.190933 10.0608l45.986134 47.957334c2.551467 2.653867 2.449067 13.064533-0.0512 15.342933l-27.733334 25.284267z" fill="#FED442" /><path d="M591.864934 490.0608c-5.614933 4.778667-14.336 4.036267-18.816-0.64l-23.2192-24.2688-30.9248-32.298667c-3.029333-3.165867-2.4832-14.0032 0.750934-16.7936l20.9152-18.0224c8.7296-7.5264 18.978133-8.823467 27.144533-0.221866l48.1024 50.645333c6.792533 7.150933 4.983467 16.989867-1.706667 22.6816l-22.229333 18.926933z" fill="#FED544" /><path d="M411.308134 640.878933c-3.524267 3.242667-12.381867 8.789333-16.7168 9.992534-2.423467 0.674133-8.746667-4.701867-10.5216-6.570667l-50.909866-53.495467c-3.831467-4.027733-3.9168-15.368533-0.017067-18.944l23.620267-21.632c3.9424-3.6096 15.453867-4.369067 18.8928-0.708266l12.706133 13.508266 40.106667 42.581334c5.7088 6.058667 4.2752 15.530667-1.024 20.394666l-16.145067 14.856534z" fill="#FED43F" /><path d="M342.017468 697.489067c-7.790933 6.792533-16.3072 3.566933-22.016-2.321067l-51.8656-53.444267c-1.8944-6.528 0.119467-15.556267 4.974933-19.805866l18.372267-16.059734c5.6576-4.9408 17.032533-8.362667 22.980266-2.090666l52.420267 55.296 2.2528 14.7712-27.1104 23.645866z" fill="#FED542" /><path d="M737.989734 365.764267l-26.897066 22.510933c-2.3552 1.9712-10.752-1.194667-12.919467-3.456l-51.84-53.9136c-5.973333-6.212267 0.725333-16.392533 5.563733-20.3008l19.8144-15.991467c8.260267-6.664533 17.399467-6.007467 24.814934 1.962667l11.784533 12.663467 31.223467 32.904533c2.167467 2.286933 5.154133 7.3728 5.7856 10.146133 0.750933 3.328-3.259733 10.077867-7.330134 13.482667z" fill="#FED541" /><path d="M773.735868 335.863467c-2.670933 2.338133-11.460267-0.733867-13.8752-3.217067l-46.353067-47.607467c-7.022933-7.210667-4.036267-17.553067 2.961067-22.920533l25.122133-19.2512c4.7104-3.6096 14.464-0.9728 18.7136 3.319467l42.811733 43.3664c3.396267 3.438933 6.869333 14.574933 3.1232 17.860266l-32.512 28.4416z" fill="#FED542" /><path d="M284.007868 744.0896c-6.058667 6.417067-14.7712 8.132267-20.565334 2.065067l-36.573866-38.2976-14.301867-14.976c-2.346667-2.4576-3.165867-13.1328-0.768-15.4368l22.792533-21.896534c2.542933-2.440533 13.346133-2.909867 15.940267-0.187733l27.409067 28.817067 24.4224 25.659733c3.054933 3.217067 5.521067 13.550933 1.9456 16.648533l-20.292267 17.6128z" fill="#FED236" /><path d="M836.703334 282.0096c-2.005333 1.783467-10.564267 2.619733-12.3648 0.810667l-42.760533-43.0592c-2.952533-2.978133-5.853867-8.6016-5.6064-11.4944 0.247467-2.8928 3.7632-8.405333 6.1184-10.197334l26.325333-20.078933c10.461867-7.978667 20.138667 2.705067 26.274134 9.0624l29.2352 30.276267c3.336533 3.456 7.2448 14.0288 2.781866 17.9968l-29.994666 26.6752z" fill="#FED94D" /><path d="M156.929468 744.942933c3.285333-8.721067 8.721067-17.373867 14.8224-25.949866l12.970666-18.2272c-0.3584 4.369067 6.109867 1.629867 14.1312 10.308266l39.8592 43.136c14.045867 15.197867-14.062933 27.170133-23.3984 35.3536l-16.2304-1.6384-37.282133-39.3728c-0.9216-0.9728-4.3776-3.328-4.872533-3.6096z" fill="#FED029" /><path d="M525.834001 661.504c-3.2 2.7392-13.038933 0.2304-15.522133-2.397867l-31.931734-33.723733c-1.826133-1.928533 0.964267-8.891733 2.952534-10.624l27.605333-24.064c2.747733-2.389333 10.683733-5.768533 13.0048-3.3792l32.034133 32.904533c5.632 5.7856 2.423467 15.086933-2.833066 19.592534l-25.309867 21.700266z" fill="#FECF26" /><path d="M586.983868 607.505067c-3.370667 2.8928-12.296533 0.384-15.9232-3.362134l-28.475734-29.44c-2.141867-2.218667-1.809067-9.4208 0.512-11.4688l25.053867-22.126933c3.677867-3.242667 8.4736-6.468267 13.653333-9.745067l33.28 33.9712c5.154133 5.265067 2.8416 15.607467-2.218666 19.959467l-25.873067 22.2208zM647.468134 553.890133c-2.926933 2.56-12.7744-0.827733-15.496533-3.6864l-26.7264-28.0576c-2.158933-2.261333-1.800533-9.608533 0.443733-11.6224l26.743467-23.970133c2.517333-2.261333 8.507733-5.358933 11.835733-6.280533l30.728534 31.069866c4.138667 4.181333 5.051733 14.0032 0.298666 18.167467l-27.8272 24.379733z" fill="#FED334" /><path d="M498.689468 684.16l-17.962667 9.386667-17.774933 7.825066-17.032534 7.586134-25.045333-27.221334c-2.2272-2.423467-4.608-6.749867-6.971733-11.178666l17.2032-15.035734 18.304-15.906133c3.362133-2.9184 10.359467-0.597333 13.806933 3.063467l24.200533 25.710933c4.343467 4.616533 8.405333 10.743467 11.281067 15.761067z" fill="#FECE20" /><path d="M711.050001 495.854933c-5.504 4.9408-13.627733 5.76-18.628267 0.674134l-24.746666-25.156267c-1.518933-1.544533-4.104533-6.877867-3.575467-8.977067 0.529067-2.090667 3.114667-5.051733 5.538133-7.159466l28.049067-24.465067c1.757867-1.536 7.68-4.343467 9.6-3.2256s4.4288 3.541333 6.826667 6.0672l20.2752 21.333333c1.911467 2.013867 4.8384 7.3984 5.009066 10.146134s-3.089067 8.098133-5.265066 10.052266l-23.074134 20.7104zM794.710801 420.002133l-23.901867 21.213867c-3.2512 2.884267-13.0048 5.0176-16.3072 1.604267l-31.104-32.162134 34.952534-32.349866c1.390933-1.288533 5.1712-3.524267 6.8864-4.104534s6.144 1.7408 7.424 3.080534l25.685333 27.025066c2.986667 3.140267-0.6144 13.0048-3.643733 15.6928z" fill="#FED43D" /><path d="M181.727334 808.311467l-22.135466 12.945066-60.3648 35.848534-3.541334-2.082134 19.566934-41.1904c6.109867-12.859733 13.44-24.925867 20.898133-36.957866l9.847467-15.906134c-0.1024 3.822933 1.7664 8.465067 4.906666 11.9552l27.392 27.374934c1.399467 1.399467 3.396267 6.9632 3.438934 8.004266z" fill="#FDC505" /><path d="M336.556134 477.7472l13.2864-19.959467 15.5136-23.3216c1.220267-1.826133 4.693333-5.0432 5.9392-5.9904 0 0.264533 2.167467 4.855467 3.268267 5.9904l29.312 30.370134c2.628267 2.722133 5.4528 11.997867 2.645333 14.4128l-29.457066 25.2672c-1.7408 1.493333-6.8864 4.036267-8.644267 2.926933-1.322667-0.827733-3.771733-2.8416-5.213867-4.266667l-19.703466-19.498666c-1.9968-1.9712-5.1712-4.548267-6.954667-5.930667z" fill="#FED741" /><path d="M827.828668 387.4048c-3.874133 3.515733-12.817067 1.92-15.982934-1.4592l-20.420266-21.845333c-1.194667-1.28-3.754667-4.898133-3.566934-6.528 0.238933-2.176 2.909867-6.007467 4.974934-7.850667l30.6688-27.392c2.1248-1.902933 9.070933-0.913067 11.195733 1.288533l21.947733 22.749867c3.089067 3.2 2.449067 12.7232-0.802133 15.658667l-28.0064 25.378133z" fill="#FED43C" /><path d="M906.685201 287.3344l5.469867 6.638933 0.119466 10.0352c-4.155733 5.393067-30.6176 36.181333-40.430933 26.368l-20.437333-20.437333c-2.0736-2.0736-2.039467-9.429333 0.068266-11.3152l14.737067-13.149867 21.495467-18.474666 18.9696 20.343466z" fill="#FED53C" /><path d="M289.878801 546.688c3.976533-6.690133 8.1664-14.685867 13.252267-21.768533l22.2464-30.993067c-0.085333 0.2816 1.117867 5.7344 2.1248 6.775467l18.1248 18.7392c1.7664 1.826133 1.8176 10.154667-0.1536 11.869866l-29.064534 25.3184c-2.261333 1.962667-6.954667 4.9664-8.951466 4.053334-1.9968-0.913067-5.4784-3.413333-7.586134-5.256534l-10.001066-8.746666z" fill="#FDD842" /><path d="M427.367868 717.124267l-0.196267 3.0208-68.522667 18.8928-4.770133-7.517867c-1.809067-2.858667-2.6624-9.941333-0.213333-12.049067l29.090133-25.028266c2.295467-1.9712 7.133867-5.358933 9.745067-4.949334 2.090667 0.3328 6.016 3.242667 7.458133 4.872534l17.1008 19.362133c2.065067 2.346667 7.773867 4.497067 10.308267 3.387733z" fill="#FDD22A" /><path d="M243.320934 612.795733c11.835733-16.5888 22.656-33.9456 35.012267-49.9456 0.452267 1.723733 2.0224 5.6832 3.242667 7.6288l4.753066 7.5776c1.083733 1.732267-2.5344 6.8096-4.104533 8.183467l-28.279467 24.618667c-2.167467 1.885867-8.209067 2.747733-10.632533 1.9456z" fill="#FBD840" /><path d="M912.283068 304.008533l-0.119467-10.0352-5.469867-6.638933c2.525867 2.7136 7.022933 5.418667 8.533334 7.441067 1.5104 2.0224-1.237333 8.5248-2.935467 9.224533zM926.115601 204.7488c3.063467-4.898133 28.919467-31.428267 33.28-32.759467l-26.683733 28.014934c-1.442133 1.518933-5.0944 3.780267-6.596267 4.736zM914.919868 212.864c0.8192-0.768 2.193067-2.3296 3.106133-2.9184l-3.106133 2.9184z" fill="#FDBE05" /><path d="M399.967334 378.248533l6.613334-12.381866c1.083733-2.0224 5.563733-5.9648 7.150933-6.843734l-8.379733 13.781334c-0.9984 1.646933-4.5312 4.974933-5.376 5.444266zM397.006268 383.837867l2.850133-2.824534c-0.247467 0.904533-2.167467 2.4064-2.850133 2.824534z" fill="#B2C64E" /></svg>