<?xml version="1.0" standalone="no"?><!DOCTYPE svg PUBLIC "-//W3C//DTD SVG 1.1//EN" "http://www.w3.org/Graphics/SVG/1.1/DTD/svg11.dtd"><svg t="1778769387970" class="icon" viewBox="0 0 1024 1024" version="1.1" xmlns="http://www.w3.org/2000/svg" p-id="1820" xmlns:xlink="http://www.w3.org/1999/xlink" width="256" height="256"><path d="M707.3 252.65l1.54-39.64c0.32-8.29 4.74-16 11.95-20.1 5.42-3.08 11.79-3.92 18.3-1.69 9.91 3.38 16.11 12.69 15.99 22.62 5.98-7.93 16.57-11.51 26.48-8.13s16.11 12.69 15.99 22.62c5.98-7.93 16.57-11.51 26.48-8.13 8.3 2.83 13.03 9.33 14.62 17.36 1.27 6.44-0.24 13.12-4 18.51l-23.18 33.19-104.19-36.61z" fill="#F56766" p-id="1821"></path><path d="M811.45 301.86c-1.38 0-2.78-0.23-4.14-0.71l-104.19-36.6c-5.18-1.82-8.56-6.8-8.35-12.28l1.54-39.63c0.5-12.77 7.24-24.12 18.04-30.36 8.84-5.1 19.05-6.09 28.74-2.79a36.073 36.073 0 0 1 18.71 14.65 36.113 36.113 0 0 1 23.76-0.16 36.105 36.105 0 0 1 18.71 14.64 36.113 36.113 0 0 1 23.76-0.16c11.81 4.03 20.11 13.62 22.76 26.32 2.05 9.81-0.13 20.23-5.97 28.59l-23.14 33.13a12.496 12.496 0 0 1-10.25 5.34z m-91.34-57.84l86.53 30.4 17.7-25.35c1.91-2.73 2.63-6.08 1.99-9.17-1.13-5.4-4.17-7.02-6.35-7.77-3.22-1.1-5.96-0.5-7.7 0.2-10.61 4.24-22.99 0.02-28.8-9.82-0.95-1.61-2.76-3.76-5.98-4.86-3.22-1.1-5.96-0.5-7.7 0.2-10.61 4.24-22.99 0.02-28.8-9.82-0.95-1.61-2.76-3.76-5.98-4.86-2.89-0.98-5.56-0.73-8.17 0.77-3.27 1.89-5.4 5.6-5.56 9.68l-1.18 30.41z" p-id="1822"></path><path d="M248.29 773.98l-37.74 12.21c-7.89 2.55-16.65 1.07-22.99-4.29-4.75-4.03-7.74-9.72-7.9-16.6-0.24-10.47 6.36-19.49 15.72-22.81-9.5-2.88-16.52-11.59-16.76-22.06-0.24-10.47 6.36-19.49 15.72-22.81-9.5-2.88-16.52-11.59-16.76-22.06-0.2-8.76 4.26-15.45 11.26-19.71 5.61-3.41 12.4-4.3 18.75-2.62l39.14 10.32 1.54 110.42z" fill="#F56766" p-id="1823"></path><path d="M202.88 799.93c-8.39 0-16.53-2.86-23.08-8.33-7.84-6.54-12.28-15.78-12.52-26.02-0.19-8.16 2.4-16.13 7.3-22.61a36.111 36.111 0 0 1-1.03-44.86 36.06 36.06 0 0 1-8.33-22.25c-0.29-12.48 5.86-23.57 16.87-30.43 8.5-5.3 19.04-6.85 28.9-4.25l39.07 10.3c5.43 1.43 9.23 6.3 9.31 11.91l1.54 110.42c0.08 5.48-3.43 10.38-8.65 12.07l-37.74 12.21a37.83 37.83 0 0 1-11.63 1.85z m-1.47-135.01c-2.18 0-4.31 0.58-6.11 1.71-4.68 2.92-5.16 6.33-5.1 8.64 0.08 3.4 1.59 5.77 2.84 7.16 7.64 8.5 7.94 21.58 0.7 30.42a10.934 10.934 0 0 0-2.5 7.28c0.08 3.4 1.59 5.77 2.84 7.16 7.64 8.5 7.94 21.58 0.7 30.42a10.934 10.934 0 0 0-2.5 7.28c0.07 3.05 1.23 5.47 3.54 7.4 2.9 2.42 7.11 3.14 11 1.88l28.96-9.37-1.28-91.7-29.89-7.88c-1.05-0.28-2.12-0.41-3.18-0.41z" p-id="1824"></path><path d="M704.29 297.01l-0.51 0.05c-13.27 1.37-24.75-9.16-24.52-22.5 0.19-11.56 9.2-21.07 20.73-21.83 26.28-1.72 70.9 2.17 109.67 37.18 9.1 8.22 10.35 22.06 2.89 31.79-8.43 10.99-24.49 12.35-34.66 2.94l-8.22-7.61-65.89-19.98" fill="#E2E2E2" p-id="1825"></path><path d="M793.9 343.42c-8.55 0-16.88-3.06-23.41-8.62l-7.22-4.29c-5.93-3.53-7.89-11.2-4.36-17.13 3.53-5.94 11.2-7.89 17.13-4.36l8.23 4.89c0.76 0.45 1.46 0.98 2.11 1.57 2.3 2.13 5.3 3.16 8.43 2.9 3.13-0.27 5.91-1.78 7.82-4.28 3.48-4.53 2.89-11.08-1.35-14.9-36.44-32.91-78.6-35.42-100.48-33.99-4.99 0.33-8.97 4.53-9.05 9.56-0.06 3.81 1.95 6.24 3.16 7.34 1.21 1.11 3.8 2.9 7.59 2.51l0.5-0.05c6.87-0.71 13.01 4.28 13.72 11.15 0.71 6.87-4.28 13.01-11.15 13.72l-0.51 0.05a34.754 34.754 0 0 1-27.05-8.96 34.726 34.726 0 0 1-11.25-26.18c0.3-17.95 14.54-32.92 32.42-34.09 25.82-1.69 75.6 1.31 118.86 40.38 13.84 12.5 15.78 33.88 4.43 48.68a36.137 36.137 0 0 1-25.54 13.97c-1.01 0.09-2.02 0.13-3.03 0.13z" p-id="1826"></path><path d="M292.29 753.73l0.25 0.45c6.46 11.67 1.27 26.36-11.08 31.38-10.71 4.36-22.99-0.2-28.21-10.52-11.89-23.5-25.8-66.07-8.79-115.47 3.99-11.6 16.24-18.17 28.11-15.12 13.42 3.45 20.97 17.69 16.29 30.73l-3.78 10.54 7.46 68.45" fill="#E2E2E2" p-id="1827"></path><path d="M273.2 799.67c-12.77 0-25.08-7.05-31.12-18.98-11.68-23.09-28.43-70.06-9.46-125.18 6.07-17.63 24.98-27.8 43.04-23.16 9.79 2.52 18.13 9.09 22.86 18.02 4.51 8.5 5.41 18.5 2.55 27.65l-1.12 8.32c-0.92 6.84-7.21 11.65-14.05 10.73-6.84-0.92-11.65-7.21-10.73-14.05l1.27-9.49c0.12-0.87 0.33-1.73 0.62-2.56 1.06-2.96 0.83-6.11-0.64-8.89s-3.96-4.73-7-5.52c-5.53-1.42-11.32 1.69-13.18 7.08-15.98 46.43-1.77 86.19 8.13 105.76 2.26 4.46 7.68 6.48 12.34 4.58 3.53-1.44 4.97-4.24 5.52-5.78 0.54-1.54 1.18-4.63-0.66-7.97l-0.24-0.44c-3.35-6.04-1.16-13.65 4.88-16.99 6.04-3.34 13.65-1.16 16.99 4.88l0.25 0.44a34.794 34.794 0 0 1 2.37 28.4 34.806 34.806 0 0 1-19.67 20.62 34.245 34.245 0 0 1-12.96 2.53z" p-id="1828"></path><path d="M751.44 308.04S651.57 260.03 593 357.01c0 0-22.09 45.13-37.45 100.83-15.36 55.69-62.42 126.75-164.2 146.92 0 0-114.27 4.8-108.51 111.39 0 0-1.92 122.91 193.97 114.27 0 0 212.21-3.84 315.92-243.9 0 0 107.55-206.45-41.29-278.47z" fill="#F56766" p-id="1829"></path><path d="M457.41 843.35c-67.29 0-117.91-16.09-150.68-47.94-34.88-33.9-36.35-73.65-36.39-78.93-1.74-33.48 7.23-61.3 26.65-82.69 32.89-36.21 84.49-40.93 92.77-41.46 43.26-8.72 79.29-27.7 107.12-56.4 27.92-28.8 40.76-60.17 46.62-81.41 15.5-56.17 37.35-101.11 38.27-103 0.16-0.33 0.34-0.65 0.53-0.97 33.26-55.07 79.18-66.77 111.84-66.89h0.53c34.51 0 61.07 12.58 62.19 13.12 0 0 0.02 0 0.03 0.01 38.59 18.67 64.55 47.44 77.16 85.51 12.87 38.85 11.65 86.09-3.64 140.41-10.62 37.73-24.4 65.29-26.37 69.16-24.27 56.06-56.44 104.15-95.63 142.92-31.52 31.19-67.6 56.43-107.22 75.02-66.35 31.13-119.79 33.01-123.96 33.11-6.75 0.3-13.36 0.44-19.81 0.44zM604 362.98c-2.37 4.93-22.38 47.35-36.4 98.18-6.63 24.05-21.17 59.56-52.77 92.16-31.61 32.61-72.34 54.05-121.06 63.7-0.63 0.12-1.26 0.2-1.9 0.23-0.46 0.02-48.54 2.58-76.48 33.47-14.76 16.32-21.51 38.1-20.07 64.75 0.02 0.29 0.02 0.58 0.02 0.87 0 1.29 0.19 33.64 29.24 61.56 30.85 29.64 81.88 43.11 151.68 40.03 0.11 0 0.22 0 0.32-0.01 17.73-0.38 64.63-7.39 115.06-31.25 36.85-17.44 70.41-41.06 99.74-70.21 36.73-36.5 66.97-81.89 89.87-134.9 0.12-0.28 0.25-0.55 0.39-0.82 0.56-1.07 55.78-108.92 28.65-190.65-10.41-31.36-32.03-55.17-64.26-70.78-0.77-0.36-23.82-10.97-52.66-10.65-37.62 0.42-67.68 18.69-89.37 54.32z" p-id="1830"></path><path d="M620 433.67a21.85 24.51 0 1 0 43.7 0 21.85 24.51 0 1 0-43.7 0Z" p-id="1831"></path><path d="M731.91 433.67a21.85 24.51 0 1 0 43.7 0 21.85 24.51 0 1 0-43.7 0Z" p-id="1832"></path><path d="M698.33 551.15c-23.97 0-45.86-12.16-58.56-32.53-3.65-5.86-1.87-13.57 3.99-17.22 5.86-3.65 13.57-1.87 17.22 3.99 8.11 13 22.07 20.76 37.35 20.76s29.24-7.76 37.35-20.76c3.65-5.86 11.36-7.65 17.22-3.99 5.86 3.65 7.65 11.36 3.99 17.22-12.7 20.37-34.6 32.53-58.56 32.53z" p-id="1833"></path></svg>