<?xml version="1.0" standalone="no"?><!DOCTYPE svg PUBLIC "-//W3C//DTD SVG 1.1//EN" "http://www.w3.org/Graphics/SVG/1.1/DTD/svg11.dtd"><svg class="icon" width="256px" height="256.00px" viewBox="0 0 1024 1024" version="1.1" xmlns="http://www.w3.org/2000/svg"><path d="M408.283067 89.78461c-6.177962 9.386406-14.702525 25.10437-20.300237 35.429416-9.215744 16.997928-15.828894 35.864604-25.57369 52.580941-3.618033 6.203561-6.408355 10.512775-12.62045 14.284403-9.497336 5.768373-20.684226 8.319769-30.804478 12.756979-132.152065 57.956791-141.939527 216.783316-55.499259 319.91432 24.157196 28.816267 58.016523 51.522836 72.428923 87.711699 6.067032 15.24011 8.908553 38.612262 5.776906 54.50942-0.477853 2.431932 1.527424 5.145457-2.594061 4.43721-37.349363-47.836539-106.382114-71.294021-152.477901-113.34512-83.419551-76.106687-100.357748-195.083651-9.599734-273.571073 3.148713-2.722058 19.31893-13.166568 19.796784-14.864654l-7.568857-33.176679C176.182843 122.944222 280.713275 28.943632 391.660595 80.159277c6.459554 2.986584 10.316514 7.184867 16.631005 9.633866z" fill="#51A235" /><path d="M692.691172 667.560571c-5.802506-17.629377-7.253132-43.424928-7.68832-62.77799 2.227138-1.066637 1.262898-4.940663 1.279965-7.048338 0.196261-21.938591 3.763096-42.793479 12.560718-63.02545 2.141807-4.915064 5.981701-9.01095 6.664348-14.472132 2.995117-1.450626 6.058498-8.4051 8.379501-11.477015 21.904459-28.901598 49.193301-55.260333 66.174163-87.558103 20.837822-39.644766 26.700059-91.406529 14.813455-134.456001-7.321397-26.529397-24.088931-53.639044-45.14008-71.439083-8.65256-7.312864-14.233205-6.101164-17.049127-18.824011-3.174312-14.310003-6.331558-35.932869-11.801272-49.048239 4.829733-2.363668 10.154385-4.368945 15.333974-5.802505 23.03936-6.374223 46.735769-4.761468 69.544736 2.26127 46.641905 14.361201 85.074972 55.072605 97.703955 102.141165 10.427444 38.876788 1.237299 78.53862-17.083259 113.660845-5.631844 10.8029-13.371362 20.615961-18.24376 31.811384 3.464437 10.154385 7.005672 20.155174 9.002416 30.744746 0.375456 2.005278-0.290125 4.309214 0.042666 6.36569 1.169034 7.219 3.259643 10.563973 2.602594 19.293331-6.852076 90.365492-115.939182 149.730244-175.619658 204.871113l-11.477015 14.787857z" fill="#5EAD3E" /><path d="M491.557555 1023.706419c-3.097514-0.221861-3.626566-1.254365-3.839893-1.279965l3.046315 0.145063 0.802111 1.143435z" fill="#BDE6A1" /><path d="M720.867457 147.434209c5.469715 13.123902 8.626961 34.738236 11.801272 49.048239 2.815922 12.714314 8.396567 11.502614 17.049127 18.824011 21.051149 17.791506 37.818684 44.901154 45.14008 71.439083 11.886603 43.049472 6.024366 94.811235-14.813455 134.456001-16.972329 32.306303-44.269704 58.656505-66.174164 87.558103-2.329535 3.071915-5.384384 10.026388-8.3795 11.477015-5.299053 2.568462-6.826477 5.913436-10.214117 10.973562l-1.715152 0.392522c-5.51238-2.687925-15.052382 6.382756-19.489592 10.384779-6.519286 5.89637-8.823222 10.145852-13.422561 16.682203-14.30147 20.30877-27.118181 42.733747-35.600079 66.250961-3.558301 9.855726-5.461182 20.035711-9.241343 29.831706-0.051199 0.145063-0.785045 0.281592-1.023972 0.921574-2.850054 7.423794-1.058104 15.615567-1.535957 23.414817l-9.036549-1.843149-3.771629-9.685065c-11.553813-86.892521-5.751307-169.706223 36.905642-248.142445 2.193006-4.027622 17.339252-27.382707 16.904064-29.208789-0.537585-2.278337-1.604222-1.604222-3.182845-0.631449-6.954474 4.266548-14.27587 11.27222-19.907714 17.253921-36.598451 38.842655-61.515092 87.976225-79.400462 137.741243-0.051199 0.13653-0.938641 0.691181-1.331163 1.81755-1.339696 3.848427-1.783417 10.034921-5.06866 12.270592 0.435188-2.17594-0.96424-3.865493-1.262898-5.785439-9.190145-58.357847-14.958518-118.917232-16.733402-178.000392-1.117836-37.306698 0.947174-74.835256 0.051199-112.150487-4.966262 4.283614-6.698481 12.714314-8.65256 18.883742-23.901203 75.321643-21.008484 157.222302-34.94303 234.088436-2.602594 14.378268-7.108069 28.457877-8.925619 42.96414-3.925224-3.071915-4.855332-9.906925-6.672882-14.429466-0.24746-0.614383-0.938641-0.767979-1.015438-0.947173-19.668787-48.63865-58.673571-129.788397-105.887194-156.095934-2.500197-1.390895-5.085725-3.063382-8.123508-2.75619l33.134014 46.93203c16.392078 31.71752 31.290865 64.23715 40.856465 98.779125 1.484759 5.358785 4.642004 24.447321 6.715547 27.237644l3.814294 25.010506c3.00365 29.951169 1.425027 58.170119-2.534329 87.728764l-3.106047 3.908159-5.862238 2.491664c0.71678-5.230788-1.237299-9.599734-2.832988-14.429466-0.204794-0.614383-0.955707-0.767979-1.015438-0.947174-10.342113-30.292492-25.641955-64.365147-45.532603-89.623112-3.865493-4.90653-7.730985-9.966657-13.396961-12.86791-0.290125 2.542863 1.160501 4.462809 1.339696 6.988606 1.54449 22.45911 0.204794 47.324553-2.594061 69.263144-1.493292 11.690342-3.72043 36.0182-8.993884 45.455805-0.076798 0.13653-0.913041 0.145063-1.126369 0.793578-0.571717 1.79195 0.648515 4.590806-0.793578 5.606245-2.517263-1.425027-3.600967-4.735869-5.136924-6.39129-3.72043-4.027622-3.029249-3.515636-5.75984-7.696853-0.093864-0.145063-0.802111-0.665582-1.279965-1.279964 4.121486 0.708247 2.116208-2.005278 2.594062-4.43721 3.131646-15.897159 0.290125-39.277843-5.776907-54.509421-14.4124-36.188862-48.271727-58.886899-72.428922-87.711698-86.440267-103.131004-76.652806-261.957528 55.499259-319.91432 10.111719-4.43721 21.307142-6.988606 30.804478-12.756979 6.212094-3.771629 9.002417-8.072309 12.62045-14.284404 9.744796-16.707803 16.357946-35.583012 25.57369-52.58094 5.597711-10.325047 14.122275-26.04301 20.300237-35.429417 0.383989-0.580251 3.242577-2.141807 4.428677-3.899625 54.074232-80.296438 139.328399-116.690094 224.830025-54.330225 39.235178 28.611472 63.87876 70.107921 81.422807 114.642151 0.35839 0.904508 1.860215 1.134902 1.90288 1.245832z" fill="#97DB6B" /><path d="M422.371209 661.160749c0.059732 0.170662 0.810644 0.332791 1.015438 0.947174 1.604222 4.8212 3.549768 9.198678 2.832989 14.429466l5.862237-2.491664 3.106047-3.908158c-0.324258 2.406333 0.349857 5.316119 0 7.68832-0.742379 5.068659-1.740752 10.350646-2.559929 15.376639-5.418516 33.219345-16.648071 73.222501-19.216533 106.330915-0.034132 0.426655 0.017066 0.85331 0 1.279965l-1.134902 0.802111c-0.435188 0.972773 0.025599 2.193006-0.145063 3.037782-0.426655 2.116208-0.836243 4.292148-1.279964 6.408356-0.025599 0.11093-1.015438 0.196261-1.297031 1.851682-0.315725 1.800483 0.196261 3.950824 0.017066 5.828105-0.230394 0.230394-1.629821 0.375456-1.279964 1.279964v5.128391c-0.162129 1.1861 0.076798 2.585528 0 3.839893l-1.143435 0.776512c-0.341324 1.442093-0.102397 2.901253-0.13653 4.351879-0.102397 3.822827 0.017066 7.705386 0 11.528214-0.017066 3.83136-0.034132 7.696853 0 11.528213 0.017066 1.706619-0.068265 3.421772 0 5.128391 0.042665 1.006905-0.187728 2.03941 0.145063 3.046316l1.143435 0.802111c0.11093 1.689553-0.162129 3.447371 0 5.128391-0.742379 2.431932 0.657048 2.884187 1.279964 3.839893 0.972773 7.005672 1.826083 13.550557 3.839894 20.496498 3.558301 12.279126 24.780112 58.485843 35.873137 62.77799-0.213327 1.919947 0.725313 3.327908 2.559929 3.839894 0.742379 3.626566 18.533886 17.88537 22.621239 20.300236 3.097514 1.826083 20.086909 8.379501 22.220183 7.884581h5.128391c0.904508 0.315725 3.336441 1.2117 3.839894 1.279965 6.0073 0.793578 14.480665-0.076798 20.496497-0.614383v-0.665582c0.85331-0.008533 1.706619 0.034132 2.559929 0 1.006905-0.042665 2.03941 0.187728 3.046316-0.145062l0.802111-1.143435c27.203512-3.046315 48.305859-23.116158 64.638206-43.612656 14.548929-18.252293 26.4014-45.635 28.850399-69.792196 2.517263-24.822778-0.349857-52.845466-3.814294-77.480516 4.522541 3.916691 0.537585 11.05036 7.048337 14.088142 0.930108 0.435188 0.366923-5.205189 3.199911-5.119858l-1.254365 7.602989c2.491664 0.085331 3.899625 1.297031 3.822827 3.925225l1.279965-7.68832c0.017066 0.11093 1.100769 0.298658 1.305564 1.843149 4.701736 35.634211 4.479876 73.111571-10.017856 106.663705-9.941057 23.022294-25.82115 44.235572-46.377379 58.682105-0.511986 2.841521 1.237299 1.877281 3.191378 1.919947 2.28687 0.042665 4.8212 0.187728 7.056871 0 1.058104 4.727335-1.851682 7.55179-2.568462 11.528213l3.848426 1.279964c-3.771629 0.290125-7.739518-0.204794-11.528213 0 0.24746 8.661093 1.254365 13.294564-5.742774 19.242133-10.08612 8.575762-34.94303 10.947963-48.066932 11.511147-9.821594 0.418122-20.897553 0.315725-30.744747 0-1.698086-0.051199-3.438838 0.119463-5.128391 0l-0.802111-1.143435-3.046315-0.145063c-8.15764-1.058104-13.772418-1.297031-21.802062-4.462809-7.423794-2.926852-12.59485-5.956101-16.025155-13.439627-2.124741-4.642004-1.126369-4.915064-0.614383-9.002417l1.279965-0.639982v-1.279964-1.279965l-1.279965-0.639982c-1.279964-0.034132-2.568462 0.051199-3.839893 0 0.264526-4.044688 0.025599-7.713919-1.279965-11.528213 3.822827 0.11093 7.705386-0.076798 11.528214 0v-1.919947c-0.324258-0.85331-1.228766-0.588784-1.279965-0.639982-3.131646-3.327908-7.713919-6.032899-10.91383-8.942686-21.426605-19.498125-42.776413-52.743069-45.455805-82.01159-0.085331-0.972773 0.221861-2.056476-0.13653-3.046315l-1.143435-0.802111c-0.11093-1.254365 0.162129-2.628194 0-3.839894l-0.136529-4.351879-1.143435-0.776512c-0.119463-1.689553 0.059732-3.430305 0-5.128391-0.042665-1.279964 0.025599-2.559929 0-3.839893-0.034132-1.877281 0.204794-3.771629-0.13653-5.64891l-1.143435-0.759445c-0.051199-6.382756-0.051199-12.833777 0-19.216534h0.665582c1.151968-3.088981 0.580251-6.86061 0.614383-10.248249 0.017066-2.124741-0.11093-4.292148 0-6.408355l1.143435-0.759446 0.136529-5.648909c2.440466-21.162079 6.348624-43.697987 10.290915-64.655272 4.693203-24.942241 13.379895-53.374518 15.385173-78.137565 0.315725-3.925224-0.332791-8.242971-0.059732-12.227927z" fill="#B0E394" /><path d="M665.786319 691.905496l12.142596 15.402239 8.328302 2.559929 1.45916 8.789089 9.463204 3.984956c3.191378-2.065009 1.066637-2.995117 0.913041-4.744401-0.230394-2.704992-0.435188-5.350251-0.281592-8.055243 6.468087 33.953191 15.555835 67.786918 19.216533 102.491021-3.6095-2.329535-2.303936-1.169034-2.551396 1.92848-1.996745 25.283565-4.283614 51.983624-11.852471 76.550408-0.742379 2.423399-1.288498 5.913436-3.532702 7.35553 0.341324-2.943918-0.059732-6.433955-0.162128-9.446138-4.087353-6.135296-8.891487-6.894742-15.683832-4.735869l-2.764723-2.431932c-1.143435-2.210072 0.290125-7.261665 0.674115-10.290915 0.588784-4.633471 2.030877-10.188517 2.542862-14.753723 6.186495-55.83205-8.934152-109.752687-17.910969-164.594898z" fill="#CAEDB7" /><path d="M660.657928 575.326332l2.594061 8.934152c7.184867-0.767979 15.973957 2.28687 21.74233-2.53433 0.127996 7.662721-0.170662 15.393706 0 23.056427 0.435188 19.34453 1.877281 45.148613 7.68832 62.77799 0.401056 1.220233-1.493292 3.515636-1.331163 5.700109 0.733846 9.830127 4.479876 26.222205 6.451021 36.572851-0.153596 2.704992 0.042665 5.350251 0.281592 8.055243 0.153596 1.749285 2.278337 2.687925-0.913041 4.744402l-9.463204-3.984956-1.45916-8.789089-8.328302-2.559929-12.142596-15.402239c-6.36569-38.91092-10.606639-77.531715-5.128391-116.579164z" fill="#C4EBAE" /><path d="M312.200401 820.012873l2.628193 8.26857-2.628193 1.979679 10.248248 2.568462c-2.611128 29.601312 5.64891 66.421623 21.947124 91.432129 8.319769 12.765512 28.782134 33.227878 42.102298 40.523675l0.708247 8.98535-3.268175 2.551396-0.102398-2.389267c-0.529052-0.648515-3.660698 0.051199-5.025993-0.170662-7.517658-1.237299-28.986929-21.008484-34.618773-27.519236-28.227483-32.639094-39.542369-83.214757-33.074282-125.325588 0.093864-0.588784 1.049571-0.776512 1.07517-0.887442z" fill="#B0E391" /><path d="M340.385218 672.688962c2.730591 4.181217 2.03941 3.669231 5.75984 7.696853 1.527424 1.655421 2.619661 4.974795 5.136924 6.39129 1.442093-1.015438 0.221861-3.814294 0.793578-5.606245 0.204794-0.657048 1.049571-0.665582 1.126369-0.793578 0.025599 4.283614-0.546118 9.198678-1.331163 13.405495-6.374223 34.362779-16.579806 68.145308-22.971096 102.576353-2.013811 10.845566-5.580645 26.589129-6.451021 36.470454l-10.248248-2.568462 2.628193-1.979679-2.628193-8.26857c2.790323-18.056032 5.53798-36.15473 9.266942-54.15103 5.776906-27.928825 15.043849-57.018151 18.644816-85.117637 0.349857-2.713525 0.349857-5.350251 0.273059-8.055244z" fill="#A5E083" /><path d="M717.027563 812.324553c2.696458 25.565157 3.541235 50.660994-2.832988 75.961625-8.609894 34.183584-27.715497 58.562641-54.816612 79.059139l-2.406333-1.433561-1.442093-8.823221c9.019483-6.323024 22.399378-21.648466 28.765068-30.804479 4.377478-6.297425 13.968679-21.017017 14.787856-28.125086 2.244204-1.442093 2.781789-4.93213 3.532702-7.355529 7.568857-24.558252 9.855726-51.266844 11.852471-76.550408 0.24746-3.097514-1.058104-4.258015 2.551396-1.92848z" fill="#ACE18D" /><path d="M655.53807 957.088535l1.442093 8.823221 2.406334 1.433561c-22.006856 16.639538-38.543997 23.440416-66.617885 25.624888l-3.848426-1.279964c0.71678-3.976423 3.626566-6.800878 2.568462-11.528213 8.055243-0.665582 16.357946-2.952451 24.344924-5.128391 13.94308-3.797228 27.877626-9.642399 39.713031-17.936569z" fill="#BCE7A1" /><path d="M435.18792 978.87353c2.773256 0.383989 4.957729 1.160501 8.968284 1.279964 1.305564 3.822827 1.54449 7.492059 1.279965 11.528214-10.137319-0.392522-17.30512 0.870376-27.519236-1.305564-13.123902-2.807389-28.398145-8.678159-39.098648-16.631005 1.365295 0.221861 4.496942-0.477853 5.025993 0.170662l0.102398 2.389267 3.268176-2.551396-0.708247-8.98535c13.746818 7.526191 33.296142 11.954868 48.681315 14.088142zM449.276062 995.521601c0.153596-1.228766-0.102397-2.585528 0-3.839893l1.279965 0.639982v2.559929l-1.279965 0.639982z" fill="#BDE6A1" /><path d="M467.212631 543.301621c0.068265 0.170662 0.767979 0.324258 1.015438 0.947173 1.809016 4.522541 2.747657 11.357551 6.672882 14.429467 1.81755-14.506264 6.323024-28.585873 8.925619-42.964141 13.934547-76.866133 11.041827-158.766793 34.94303-234.088436 1.962612-6.169429 3.686298-14.600128 8.65256-18.883742 0.895975 37.315231-1.169034 74.843789-0.051199 112.150487 1.766351 59.074627 7.543257 119.642546 16.733402 178.000392 0.298658 1.919947 1.698086 3.6095 1.262899 5.78544 3.293775-2.235671 3.728963-8.422166 5.068659-12.270593 0.392522-1.134902 1.279964-1.689553 1.331163-1.81755-0.008533 4.496942 1.843149 8.080842 5.034527 11.058893l-1.083703 7.381129c0.750912 2.491664 3.950824 2.722058 4.778534 3.566834 2.090609 2.133274 1.109303 7.620055 1.715152 10.461576 0.49492 2.312469 3.054849 4.061754 3.455904 5.512381 2.653793 9.531469 1.79195 25.897948 1.399428 35.634211-0.375456 9.403472 0.60585 25.744352 4.121485 34.431044 0.819177 2.022344 3.020716 3.012183 4.232416 4.735868 1.006905 1.425027 2.474598 14.506264 3.208445 18.576551 1.314097 7.219 1.783417 22.109253 4.112952 27.911759 0.870376 2.167407 4.21535 5.128391 4.701736 6.83501 0.750912 2.636727-0.554651 5.53798 0.785045 8.174707 1.254365 2.466065 8.90002 7.432327 9.557068 9.693597v2.329535c-2.781789 2.884187-4.701736 4.778534-5.085725 9.03655-0.767979 8.447766-0.870376 26.307536 0.085331 34.610239 0.486386 4.249482 3.549768 10.205583 3.848426 14.182006 0.238927 3.14018-2.602594 6.425422-2.628194 8.917086-0.017066 2.338068 3.131646 5.495314 3.660699 7.884581 1.134902 5.162523-0.13653 9.207211-2.28687 13.755352 0.733846 1.57009 3.199911 2.594061 3.660698 4.121485 0.921574 3.029249-3.669231 9.36934 0.887442 10.615172 2.764723 0.759446 4.130019-0.870376 6.954474 2.013811 2.576995 2.628194 2.440466 6.869143 3.780162 10.205583l-1.220233 1.399428c-4.471343 0.409589-7.278731 4.32628-6.271826 8.737891 0.503453 2.201539 3.302308 4.172684 2.3978 7.244599l-5.128391-5.128391c-3.216977-3.088981-7.560323 9.94959-7.730985 12.23646-0.153596 2.099142 1.169034 3.455904 1.305563 5.085726 0.622916 7.568857-1.254365 13.763885-5.75984 19.81385-2.133274 2.858587-5.811039 2.781789-6.809411 7.278731-1.390895 6.288892 3.012183 8.601361 2.261271 11.195423-3.635099 2.747657-4.752935 6.331558-6.997139 9.70213-0.981306 1.467693-3.191378 2.628194-3.83136 3.85696-1.254365 2.406333-1.663954 7.364062-1.962613 10.205583l-8.302703 3.874026c-0.913041 6.911808 0.11093 12.432722-5.102791 17.953635-4.095886 4.343346-10.512775 2.918319-13.926014 5.085726-1.228766 0.776512-0.972773 2.303936-2.030877 3.268176-1.902881 1.740752-14.591595 3.797228-17.16859 3.012183-1.245832-0.383989-1.843149-2.099142-3.984956-2.414867-5.819572-0.85331-11.135691-0.221861-16.656604 0.110931-4.394545 0.264526-16.58834-6.596084-19.873582-9.702131-2.227138-2.107675-2.50873-5.674509-5.751307-8.336835-2.261271-1.851682-7.304331-3.174312-8.149107-4.019089-0.486386-0.486386-1.382362-3.797228-2.739124-5.589178-5.102792-6.732613-13.567623-10.435977-18.013366-15.299842-0.511986-0.563184-6.741146-12.475387-7.065404-13.439627-1.271431-3.83136-0.13653-7.978445-0.819178-11.989-1.595689-9.429072-12.142596-25.377429-11.263687-33.526536 2.15034-19.993045-3.029249-40.028756-1.356762-60.29486 0.477853-5.793973 6.084098-17.569646 6.101164-19.148269s-2.090609-4.445743-2.244205-6.468087c-0.051199-0.657048 2.346602-10.504242 2.815922-12.560718 1.092236-4.8212 5.427049-8.251504 6.177962-15.607033 0.418122-4.07882-1.612755-6.732613-1.279964-10.179984 0.230394-2.423399 2.218605-5.171056 2.559928-7.748052 1.032505-7.850449-0.947174-13.977212 1.894348-22.442044 0.776512-2.312469 2.901253-4.377478 3.25111-6.997139 0.733846-5.478248-2.380734-14.600128-1.314097-21.810594 0.35839-2.448999 2.687925-2.901253 2.687925-6.374223 0-5.358785-4.505475-6.945941-5.128391-9.138947s2.141807-5.264921 1.109303-8.720824c-2.551396-4.198283-6.911808-1.160501-7.68832 2.491664l2.542863 12.654582-5.017461 3.353507c0.349857-2.372201-0.324258-5.281987 0-7.68832 3.959357-29.558646 5.53798-57.777596 2.534329-87.728765l-3.814294-25.010506c4.138552 5.546513 2.346602 6.519286 4.019089 11.997534 0.435188 1.43356 2.568462 2.559929 3.507102 4.181217 2.030877 3.49857 1.041038 8.481898 7.048338 6.72408 1.083703-0.315725 6.715547-4.54814 7.048338-5.75984 1.32263-4.7956 0.60585-8.422166 3.933757-13.780951 0.71678-1.151968 2.201539-1.109303 3.302309-2.01381 2.986584-2.440466 1.390895-5.051593 2.082075-8.191773 0.477853-2.17594 3.174312-4.275081 2.363668-7.244599z" fill="#F5FDEF" /><path d="M422.371209 661.160749c-0.273059 3.984956 0.375456 8.302703 0.059732 12.227927-2.005278 24.754513-10.69197 53.195323-15.385173 78.137565-3.942291 20.957285-7.850449 43.493193-10.290915 64.655272-0.102397 0.85331-1.109303 3.285242-1.279964 6.408355-0.11093 2.116208 0.017066 4.283614 0 6.408356h-0.665582c-1.151968 3.088981-0.588784 6.86061-0.614383 10.248248-0.051199 6.382756-0.051199 12.833777 0 19.216534 0.017066 2.124741-0.093864 4.283614 0 6.408355 0.042665 1.006905-0.196261 2.03941 0.145063 3.046316l1.143435 0.802111c0.059732 1.698086-0.119463 3.438838 0 5.128391 0.204794 2.832988 1.245832 4.838266 1.279965 5.128391 0.162129 1.2117-0.11093 2.594061 0 3.839893 0.085331 0.972773-0.221861 2.047943 0.145062 3.046315l1.143435 0.802112c2.679392 29.268521 24.0292 62.513465 45.455805 82.01159 3.199911 2.909786 7.782184 5.614777 10.91383 8.942685v0.665581c-6.143829 1.382362-12.867909 0.273059-19.216533 0.614383-15.385173-2.141807-34.934497-6.561951-48.681315-14.088142-13.328697-7.295797-33.791062-27.766696-42.102298-40.523675-16.306747-25.010506-24.558252-61.830817-21.947124-91.432129 0.870376-9.881326 4.43721-25.616356 6.451021-36.470454 6.391289-34.431044 16.596873-68.213573 22.971095-102.576353 0.776512-4.206817 1.348229-9.12188 1.331163-13.405494 5.273454-9.437605 7.492059-33.765463 8.993884-45.455805 2.807389-21.938591 4.138552-46.795501 2.594061-69.263144-0.170662-2.525797-1.629821-4.445743-1.339696-6.988606 5.657443 2.89272 9.531469 7.961379 13.396962 12.867909 19.890648 25.257966 35.19049 59.33062 45.532602 89.623112z" fill="#F5FDEF" /><path d="M600.448399 667.560571c5.802506 43.629722 15.6241 86.969319 21.776462 130.67584 3.464437 24.63505 6.331558 52.657738 3.814295 77.480516-2.448999 24.157196-14.30147 51.539903-28.8504 69.792196-16.34088 20.487965-37.443227 40.566341-64.638205 43.612656-0.947174 0.102397-2.047943-0.238927-3.046316 0.136529l-0.802111 1.143435c-0.85331 0.034132-1.706619-0.008533-2.559929 0-6.792345 0.093864-13.900414-0.580251-20.496498 0.614383v0.665582c-0.511986-0.068265-2.935385-0.96424-3.839893-1.279965-4.360412-1.527424-2.158873-0.682648-5.128391 0-2.133274 0.49492-19.122669-6.067032-22.220183-7.884581-4.087353-2.406333-21.870326-16.673671-22.621239-20.300236-0.213327-1.049571 0.324258-3.47297-0.025599-3.822828s-1.902881 0.230394-2.53433-0.017066c-11.084492-4.292148-32.306303-50.498865-35.873137-62.77799 3.976423-1.339696 1.757818-2.815922 1.561556-4.744402-0.750912-7.483526-1.365295-9.531469-5.409983-15.752096-0.366923-2.653793-1.262898-3.626566-1.279964-3.839894-0.162129-1.68102 0.11093-3.438838 0-5.128391-0.085331-1.271431 0.042665-2.568462 0-3.839893-0.051199-1.706619 0.034132-3.421772 0-5.128391-0.076798-3.822827-0.042665-7.705386 0-11.528213 0.042665-3.83136-0.076798-7.696853 0-11.528214 0.034132-1.698086-0.102397-3.430305 0-5.128391 0.076798-1.262898-0.162129-2.653793 0-3.839893 0.264526-1.902881 1.843149-0.307191 0-5.128391-0.349857-0.904508 1.049571-1.049571 1.279964-1.279964 0.401056-0.401056 1.689553-0.49492 1.32263-1.843149l-0.042665-5.845171c0.443721-2.107675 0.85331-4.283614 1.279964-6.408356l1.143435-0.802111c0.332791-0.998372 0.093864-2.03941 0.145063-3.046315 0.017066-0.426655-0.034132-0.85331 0-1.279965 3.36204-0.82771 2.124741-3.592434 2.636726-5.691575 1.655421-6.817944 3.071915-15.888626 7.509125-20.718358-0.844777-5.111325-0.639982-13.69562 0.102397-19.071471 0.520519-3.754562 4.599339-7.773651 5.119858-11.536746 0.648515-4.676137-0.366923-10.418911 0.0256-15.342508 0.682648-8.533096 3.583901-18.465621 4.872398-27.203511 0.435188-2.926852-0.520519-4.18975-1.058104-6.766746 0.819177-5.017461 1.81755-10.307981 2.559929-15.37664l5.01746-3.353507-2.542862-12.654582c0.776512-3.652165 5.136924-6.689948 7.68832-2.491664 1.032505 3.455904-1.706619 6.621683-1.109303 8.720825s5.128391 3.780162 5.128391 9.138946c0 3.47297-2.321002 3.925224-2.687925 6.374223-1.066637 7.210467 2.047943 16.332347 1.314097 21.810595-0.349857 2.619661-2.474598 4.693203-3.25111 6.997139-2.841521 8.473365-0.861843 14.591595-1.894348 22.442043-0.341324 2.576995-2.321002 5.324652-2.559929 7.748052-0.332791 3.447371 1.689553 6.101164 1.279965 10.179984-0.750912 7.355529-5.085725 10.785834-6.177962 15.607034-0.460787 2.056476-2.858587 11.90367-2.815922 12.560718 0.153596 2.022344 2.261271 4.923597 2.244205 6.468087s-5.623311 13.345763-6.101164 19.148268c-1.672487 20.266104 3.49857 40.301815 1.356762 60.29486-0.878909 8.15764 9.667998 24.105998 11.263687 33.526536 0.682648 4.010555-0.452254 8.15764 0.819178 11.989 0.315725 0.955707 6.544885 12.876443 7.065403 13.439627 4.445743 4.855332 12.910575 8.567229 18.013367 15.299842 1.356762 1.79195 2.252737 5.111325 2.739124 5.589179 0.844777 0.844777 5.89637 2.167407 8.149107 4.019088 3.25111 2.662326 3.524169 6.22916 5.751307 8.336835 3.285242 3.106047 15.479037 9.966657 19.873582 9.702131 5.520913-0.332791 10.837033-0.96424 16.656604-0.11093 2.15034 0.315725 2.739124 2.030877 3.984956 2.414866 2.576995 0.785045 15.257176-1.271431 17.16859-3.012183 1.058104-0.96424 0.802111-2.491664 2.030877-3.268176 3.421772-2.158873 9.830127-0.742379 13.926014-5.085726 5.213722-5.520913 4.18975-11.041827 5.102791-17.953635l8.302703-3.874025c0.298658-2.841521 0.708247-7.807783 1.962612-10.205584 0.639982-1.228766 2.858587-2.389267 3.831361-3.856959 2.244204-3.36204 3.36204-6.954474 6.997139-9.702131 0.750912-2.594061-3.660698-4.90653-2.261271-11.195423 0.998372-4.496942 4.676137-4.420144 6.809411-7.278731 4.514008-6.049965 6.391289-12.23646 5.75984-19.81385-0.13653-1.629821-1.450626-2.986584-1.305563-5.085725 0.162129-2.295403 4.514008-15.333974 7.730985-12.236461l5.128391 5.128391c0.904508-3.071915-1.894347-5.034527-2.3978-7.244599-1.006905-4.411611 1.800483-8.328302 6.271826-8.73789l1.220233-1.399428c-1.339696-3.336441-1.203167-7.57739-3.780162-10.205584-2.824455-2.884187-4.18975-1.254365-6.954474-2.01381-4.556674-1.245832 0.034132-7.57739-0.887442-10.615172-0.460787-1.518891-2.926852-2.551396-3.660698-4.121486 2.158873-4.54814 3.430305-8.592828 2.28687-13.755351-0.529052-2.389267-3.677765-5.546513-3.660699-7.884582 0.017066-2.491664 2.858587-5.776906 2.628194-8.917085-0.298658-3.976423-3.36204-9.941057-3.848427-14.182007-0.955707-8.302703-0.85331-26.162474-0.08533-34.610239 0.383989-4.258015 2.303936-6.143829 5.094258-9.036549v-2.329536c-0.657048-2.261271-8.29417-7.227533-9.557068-9.693597-1.348229-2.636727-0.034132-5.53798-0.785045-8.174707-0.486386-1.698086-3.83136-4.667604-4.701736-6.83501-2.329535-5.802506-2.807389-20.692759-4.112952-27.911758-0.742379-4.061754-2.201539-17.142991-3.208445-18.576551-1.2117-1.715152-3.413239-2.704992-4.232416-4.735869-3.515636-8.678159-4.496942-25.027572-4.121485-34.431044 0.383989-9.736263 1.245832-26.102742-1.399428-35.634211-0.401056-1.450626-2.960984-3.199911-3.455904-5.51238-0.60585-2.832988 0.375456-8.319769-1.715152-10.461577-0.82771-0.844777-4.027622-1.07517-4.778534-3.566834l1.083703-7.381128c-3.199911-2.978051-5.051593-6.553418-5.034527-11.058893 17.893903-49.765019 42.802012-98.907121 79.400463-137.741244 5.631844-5.973168 12.95324-12.987373 19.907714-17.253921 1.578623-0.972773 2.64526-1.646888 3.182845 0.631449 0.426655 1.826083-14.711058 25.172635-16.904065 29.20879-42.656949 78.436223-48.459455 161.249924-36.905642 248.142445z m-9.915458 238.26112c0-0.878909-0.708247-1.587156-1.587156-1.587156s-1.587156 0.708247-1.587156 1.587156 0.708247 1.587156 1.587156 1.587156 1.587156-0.708247 1.587156-1.587156z" fill="#F9FCF3" /><path d="M660.657928 558.669727l2.568462 0.648516c-2.235671 5.145457-1.851682 10.871165-2.568462 16.008089-5.478248 39.047449-1.245832 77.668244 5.128391 116.579164 8.976817 54.850744 24.097464 108.771381 17.910969 164.594898-0.503453 4.565207-1.954079 10.120252-2.542862 14.753723-2.986584 3.899625-2.815922 9.659465-4.155618 14.420933-8.18324 29.021061-25.368896 61.12257-48.988507 80.398835-3.763096 3.071915-9.241343 4.93213-12.193795 8.942685-7.986978 2.17594-16.289681 4.462809-24.344924 5.128391-2.235671 0.187728-4.770001 0.042665-7.056871 0-1.954079-0.042665-3.703364 0.921574-3.191378-1.919946 20.556229-14.437999 36.427789-35.65981 46.377379-58.682105 14.489198-33.552135 14.719591-71.029495 10.017855-106.663706-0.204794-1.54449-1.288498-1.732219-1.305563-1.843148-5.717175-43.083604-16.153152-87.267978-20.522097-130.010258-0.162129-1.578623-1.1861-3.037782-1.314097-5.094259-0.460787-7.167801 0.324258-14.16494 1.339696-21.196211 3.780162-9.795995 5.683042-19.975979 9.241343-29.831706 8.481898-23.517214 21.298609-45.942191 35.600079-66.250961z" fill="#F7FDF2" /><path d="M467.212631 543.301621c0.810644 2.969518-1.885814 5.068659-2.363668 7.244599-0.699714 3.148713 0.904508 5.751307-2.082075 8.191772-1.100769 0.895975-2.585528 0.85331-3.302309 2.013811-3.319375 5.358785-2.602594 8.985351-3.933757 13.780951-0.332791 1.220233-5.964634 5.444116-7.048338 5.75984-6.0073 1.757818-5.017461-3.234044-7.048337-6.72408-0.938641-1.612755-3.071915-2.747657-3.507103-4.181217-1.672487-5.478248 0.119463-6.451021-4.019089-11.997534-2.073542-2.781789-5.230788-21.878859-6.715546-27.237644-9.565601-34.550508-24.464388-67.070138-40.856466-98.779125l-33.134014-46.93203c3.037782-0.307191 5.623311 1.365295 8.123508 2.75619 47.222156 26.307536 86.218407 107.448751 105.887194 156.095934z" fill="#FAFCF3" /><path d="M636.321537 811.044589l-1.279965 7.68832c0.076798-2.628194-1.339696-3.848427-3.822827-3.925225l1.254365-7.602989c-2.832988-0.076798-2.269804 5.555046-3.199911 5.119858-6.510753-3.046315-2.525797-10.179984-7.048338-14.088142-6.152363-43.697987-15.973957-87.037584-21.776462-130.67584l3.771629 9.685065 9.036549 1.843149c0.477853-7.79925-1.305564-15.999556 1.535957-23.414817 0.24746-0.639982 0.972773-0.785045 1.023972-0.921574-1.006905 7.031271-1.800483 14.028411-1.339696 21.196211 0.127996 2.056476 1.151968 3.507103 1.314097 5.094259 4.368945 42.74228 14.804922 86.926654 20.522097 130.010258z" fill="#A5DE86" /><path d="M705.49935 520.236661c-0.674115 5.469715-4.522541 9.557068-6.664348 14.472132-8.797622 20.231972-12.364457 41.086859-12.560718 63.02545-0.017066 2.107675 0.947174 5.981701-1.279965 7.048338-0.170662-7.662721 0.127996-15.393706 0-23.056427-5.768373 4.8212-14.557463 1.757818-21.74233 2.53433l-2.594061-8.934152c0.71678-5.136924 0.332791-10.862632 2.568462-16.008089l-2.568462-0.648516c4.599339-6.536352 6.903275-10.777301 13.422561-16.682203 4.428677-4.010555 13.968679-13.072704 19.489592-10.384779l1.715152-0.392522c3.387639-5.060126 4.915064-8.4051 10.214117-10.973562z" fill="#AEE78B" /><path d="M413.411458 799.516375c2.568462-33.108414 13.798017-73.111571 19.216533-106.330915 0.529052 2.585528 1.484759 3.848427 1.058104 6.766746-1.288498 8.737891-4.18975 18.678948-4.872398 27.203511-0.392522 4.93213 0.622916 10.666371-0.025599 15.342508-0.520519 3.754562-4.599339 7.773651-5.119858 11.536746-0.742379 5.375851-0.947174 13.960146-0.102397 19.071471-4.43721 4.829733-5.862237 13.900414-7.509125 20.718358-0.511986 2.099142 0.725313 4.863865-2.636727 5.691575zM413.411458 895.599042c-2.013811-6.945941-2.86712-13.490826-3.839894-20.496498 4.044688 6.220627 4.659071 8.26857 5.409983 15.752096 0.196261 1.92848 2.406333 3.404705-1.561556 4.744402z" fill="#F5FDEF" /><path d="M454.404453 977.593565c0.051199 0.051199 0.955707-0.213327 1.279965 0.639983v1.919946c-3.822827-0.076798-7.705386 0.11093-11.528214 0-4.010555-0.119463-6.195028-0.895975-8.968284-1.279964 6.348624-0.341324 13.072704 0.767979 19.216533-0.614383v-0.665582z" fill="#D0F0BE" /><path d="M526.142195 990.401743v0.665582c-6.024366 0.537585-14.489198 1.407961-20.496498 0.614383v-0.665582c6.596084-1.194634 13.704153-0.520519 20.496498-0.614383z" fill="#D0EFBD" /><path d="M408.283067 845.637762h-1.279965c0.017066-3.83136-0.102397-7.705386 0-11.528214h1.279965c-0.076798 3.83136 0.042665 7.696853 0 11.528214z" fill="#D1F0BF" /><path d="M408.283067 857.165975h-1.279965c-0.034132-3.83136-0.017066-7.696853 0-11.528213h1.279965c-0.042665 3.822827-0.076798 7.705386 0 11.528213z" fill="#F5FDEF" /><path d="M394.194924 839.229406c0.025599-3.387639-0.537585-7.159268 0.614383-10.248249h0.665582c-0.034132 3.387639 0.537585 7.159268-0.614383 10.248249h-0.665582z" fill="#D0F0BE" /><path d="M409.563031 818.732909c0.170662-1.885814-0.332791-4.027622-0.017066-5.828105 0.290125-1.663954 1.279964-1.740752 1.297031-1.851682l0.042665 5.845171c0.366923 1.339696-0.921574 1.442093-1.32263 1.843149z" fill="#F5FDEF" /><path d="M395.474889 864.854295h-1.279965c-0.093864-2.116208 0.017066-4.283614 0-6.408355l1.143435 0.759445c0.349857 1.877281 0.102397 3.771629 0.13653 5.64891zM395.474889 822.581335c0.170662-3.123113 1.1861-5.546513 1.279964-6.408355l-0.136529 5.648909-1.143435 0.759446z" fill="#D0F0BE" /><path d="M449.276062 958.377032c0.631449 0.24746 2.193006-0.324258 2.53433 0.017066s-0.187728 2.773256 0.025599 3.822828c-1.843149-0.511986-2.773256-1.919947-2.559929-3.839894z" fill="#F5FDEF" /><path d="M408.283067 862.294366h-1.279965c-0.068265-1.698086 0.017066-3.421772 0-5.128391h1.279965c0.034132 1.706619-0.051199 3.421772 0 5.128391z" fill="#D1F0BF" /><path d="M396.754853 878.942437c-0.034132-0.281592-1.07517-2.295403-1.279964-5.128391l1.143435 0.776512 0.136529 4.351879z" fill="#D0F0BE" /><path d="M408.283067 825.141264v-5.128391c1.843149 4.812666 0.264526 3.216977 0 5.128391z" fill="#D1F0BF" /><path d="M408.283067 834.109548h-1.279965c0.034132-1.442093-0.204794-2.909786 0.13653-4.351879l1.143435-0.776512c-0.102397 1.689553 0.034132 3.421772 0 5.128391z" fill="#D0F0BE" /><path d="M501.805804 990.401743h-5.128391c2.969518-0.682648 0.759446-1.527424 5.128391 0z" fill="#F5FDEF" /><path d="M408.283067 866.134259l-1.143435-0.802111c-0.332791-0.998372-0.102397-2.030877-0.145063-3.046315h1.279965c0.042665 1.279964-0.085331 2.568462 0 3.839893z" fill="#D0F0BE" /><path d="M395.474889 868.694188l-1.143435-0.802111c-0.332791-0.998372-0.093864-2.03941-0.145063-3.046315h1.279965c0.025599 1.279964-0.042665 2.568462 0 3.839893z" fill="#D1F0BF" /><path d="M409.563031 875.102544c-0.622916-0.955707-2.030877-1.407961-1.279964-3.839894 0.025599 0.221861 0.913041 1.1861 1.279964 3.839894zM398.034818 886.630757l-1.143435-0.802111c-0.366923-0.989839-0.051199-2.065009-0.145063-3.046315l1.143435 0.802111c0.366923 0.989839 0.051199 2.073542 0.13653 3.046315z" fill="#D0F0BE" /><path d="M532.550551 989.121779l-0.802111 1.143435c-0.998372 0.332791-2.03941 0.102397-3.046316 0.145062l0.802111-1.143435c0.998372-0.375456 2.099142-0.034132 3.046316-0.136529zM412.12296 804.644766c0.170662-0.844777-0.290125-2.065009 0.145063-3.037782l1.134902-0.802111c-0.051199 1.006905 0.196261 2.047943-0.145063 3.046315l-1.143435 0.802111z" fill="#F5FDEF" /><path d="M699.090994 898.15897c-0.819177 7.108069-10.410378 21.836194-14.787856 28.125086-6.36569 9.156013-19.745585 24.481454-28.765068 30.804479-11.835405 8.29417-25.769951 14.139341-39.713031 17.936568 2.952451-4.010555 8.430699-5.87077 12.193795-8.942685 23.619611-19.276265 40.805267-51.377774 48.988507-80.398835 1.339696-4.761468 1.169034-10.521308 4.155618-14.420933-0.383989 3.020716-1.81755 8.080842-0.674115 10.290915l2.764723 2.431932c6.792345-2.158873 11.596478-1.399428 15.683832 4.735869 0.102397 3.012183 0.503453 6.50222 0.162128 9.446138z" fill="#D6F1C3" /><path d="M588.945785 905.821691m-1.587156 0a1.587156 1.587156 0 1 0 3.174312 0 1.587156 1.587156 0 1 0-3.174312 0Z" fill="#F5FDEF" /></svg>