<?xml version="1.0" standalone="no"?><!DOCTYPE svg PUBLIC "-//W3C//DTD SVG 1.1//EN" "http://www.w3.org/Graphics/SVG/1.1/DTD/svg11.dtd"><svg class="icon" width="256px" height="256.00px" viewBox="0 0 1024 1024" version="1.1" xmlns="http://www.w3.org/2000/svg"><path d="M693.430025 469.546667c8.763733 10.914133 32.477867 16.1024 26.112 39.125333-23.799467-4.898133-43.963733 14.523733-52.189867 35.848533 2.2272 7.560533 34.432 15.4112 42.538667 16.213334 29.4656 2.9184 64.273067-17.058133 91.306666-13.098667 10.453333 1.527467 39.808 31.172267 59.818667 38.024533 8.746667 2.9952 50.346667 11.613867 54.152533 7.790934 4.334933-25.489067-13.6192-42.222933-26.026666-61.960534 5.9904-12.8256 26.205867-12.168533 32.5632-16.290133 31.5904 13.192533 48.008533 30.2592 65.220266 58.7008-12.586667 4.241067 0.785067 16.2048-0.964266 27.8016-16.196267 107.3408-63.675733 195.8912-168.516267 236.433067-93.320533 36.087467-151.816533 14.4128-234.6752-26.376534-3.626667-1.783467-25.489067-12.433067-26.2912-3.063466-30.967467-49.169067-42.402133-104.157867-32.605867-163.0464 2.8672-17.237333 22.493867-70.869333 33.5104-87.150934 5.367467-7.936 27.741867-36.5568 33.066667-41.9328 7.2192-7.287467 33.066667-16.238933 42.376533-26.103466l60.612267-20.906667z m-40.0896 92.2624c-12.680533-12.680533-41.8304-7.799467-54.4256 5.623466-35.140267 37.4528-15.4368 99.242667 35.771733 68.3776 20.087467-12.1088 35.8912-56.7552 18.653867-73.992533z" fill="#EF4F43" /><path d="M986.916958 573.9008c6.818133 11.255467 16.853333 28.305067 22.792533 39.168 17.800533 32.571733 16.887467 96.477867 8.584534 132.437333-47.146667 204.1856-280.3712 236.3392-427.861334 114.0224-10.752-17.527467-22.929067-33.322667-33.954133-50.824533 0.810667-9.3696 22.664533 1.271467 26.2912 3.063467 82.858667 40.797867 141.354667 62.464 234.6752 26.376533 104.840533-40.541867 152.32-129.092267 168.516267-236.433067 1.749333-11.588267-11.6224-23.560533 0.964266-27.8016z" fill="#DE2F25" /><path d="M797.775625 430.4128c9.1392-13.559467 27.0592-51.191467 33.723733-57.531733 3.362133-3.2 20.667733-9.693867 25.0368-4.753067l19.2 25.7536c-8.4224 10.734933-53.051733 67.165867-45.329067 75.665067l88.029867-17.015467 48.904533 3.976533c-0.4864 26.103467-19.712 33.015467-36.215466 45.508267-5.230933 3.959467-8.328533 12.4672-9.429334 13.184-6.357333 4.1216-26.564267 3.464533-32.5632 16.290133 12.407467 19.746133 30.3616 36.471467 26.026667 61.960534-3.805867 3.822933-45.405867-4.795733-54.152533-7.790934-20.010667-6.852267-49.365333-36.497067-59.818667-38.024533-27.0336-3.959467-61.8496 16.017067-91.306667 13.098667-8.106667-0.802133-40.311467-8.6528-42.538666-16.213334 8.226133-21.333333 28.3904-40.7552 52.189866-35.848533 6.365867-23.022933-17.348267-28.2112-26.112-39.125333-8.567467-10.6752-18.926933-38.254933-22.8608-52.232534-1.8688-6.647467 2.6624-12.16 6.613334-13.013333 4.462933-0.964267 50.798933 14.523733 59.9296 18.304 18.909867 7.816533 37.674667 18.0736 50.884266 33.8944h3.234134c-2.8672-14.634667 0.759467-17.5104 6.536533-26.077867z" fill="#83B250" /><path d="M653.340425 561.809067c17.237333 17.245867 1.4336 61.883733-18.653867 73.992533-51.208533 30.865067-70.903467-30.916267-35.771733-68.3776 12.586667-13.422933 41.745067-18.304 54.4256-5.623467z" fill="#FBA89F" /><path d="M458.643891 208.674133l12.0064 0.776534 7.406934 25.070933-45.474134 36.113067c0.162133 20.0192 66.2528 18.4064 81.4848 16.298666 13.858133-1.92 30.1312-17.322667 39.005867-17.476266 2.525867-0.042667 27.784533 4.343467 28.765867 5.435733 1.578667 1.757867-0.238933 7.671467 2.048 10.3168 11.810133 13.636267 96.6656 43.255467 103.04 17.979733-0.093867-21.76-30.165333-34.500267-32.776534-52.0448-1.902933-12.782933 17.7152-16.2816 26.24-16.375466 21.239467-0.238933 68.616533 41.019733 81.3568 58.862933 25.2672 35.396267 23.406933 59.4176 29.5168 97.664l0.708267 22.135467 5.8112 3.950933c0.042667 4.343467-0.0256 8.695467 0 13.047467-5.777067 8.576-9.403733 11.4432-6.536533 26.0864h-3.234134c-13.218133-15.829333-31.982933-26.0864-50.884266-33.902934-9.1392-3.780267-55.4752-19.259733-59.9296-18.304-3.950933 0.853333-8.482133 6.365867-6.613334 13.013334 3.925333 13.9776 14.293333 41.565867 22.8608 52.232533l-60.612266 20.906667c-9.309867 9.864533-35.157333 18.816-42.376534 26.103466-5.3248 5.376-27.6992 33.9968-33.066666 41.9328-11.016533 16.2816-30.6432 69.9136-33.5104 87.150934-4.309333 0.273067-8.763733-0.401067-13.047467 0-14.216533-10.052267-12.0064-5.0944-13.073067-22.5536-3.106133-50.8928 3.968-72.388267-23.0656-120.6528-6.587733-11.758933-21.358933-24.5248-25.898666-32.955734-3.5584-6.613333-1.962667-16.0256-3.985067-18.6624-1.134933-1.4848-13.312-3.6096-18.756267-7.3472-21.410133-14.702933-38.920533-33.5872-67.643733-33.629866l-4.096-5.495467c7.330133-20.3776 29.056-34.824533 26.077867-58.692267l-71.7312 6.510934c10.0352-78.190933 72.098133-135.159467 150.007466-143.479467z" fill="#BC2224" /><path d="M458.643891 208.674133c-11.921067-24.814933-32.290133-41.1648-26.077866-71.7312 16.7168 6.724267 35.729067 4.317867 52.5056 9.437867 23.9616 7.3216 49.578667 30.1824 71.389866 42.7264 0.827733-27.921067 13.2608-67.5072 32.477867-88.174933 16.989867-18.2784 31.104-1.646933 45.2864 13.1072-16.725333 26.146133-39.1424 49.7152-45.124267 81.5872 43.904-23.1936 88.584533-20.7104 136.9344-19.5584 3.84 30.404267-32.059733 38.3488-45.6448 58.692266-8.5248 0.093867-28.142933 3.592533-26.24 16.375467 2.619733 17.544533 32.682667 30.2848 32.776534 52.0448-6.3744 25.275733-91.229867-4.343467-103.04-17.979733-2.295467-2.645333-0.477867-8.567467-2.048-10.3168-0.981333-1.092267-26.231467-5.4784-28.765867-5.435734-8.874667 0.1536-25.147733 15.5648-39.005867 17.476267-15.240533 2.107733-81.322667 3.720533-81.4848-16.298667l45.474134-36.113066-7.406934-25.070934-12.0064-0.776533z" fill="#4B8939" /><path d="M797.775625 417.373867l-5.8112-3.950934-0.708267-22.135466c0.3584 2.2272 6.365867 9.659733 6.519467 26.0864z" fill="#83B250" /><path d="M354.289758 404.3264l4.096 5.495467c28.7232 0.042667 46.225067 18.926933 67.643733 33.629866 5.128533 63.4112 16.477867 135.3216-9.642666 195.797334-3.217067 7.441067-22.3232 49.024-24.4224 50.935466-1.9712 1.800533-7.825067 0.3072-9.9584 2.3808-3.208533 3.131733-3.413333 10.658133-7.867734 15.121067-11.460267 11.460267-22.126933 16.349867-31.5648 24.388267-1.8432 1.570133 0.298667 7.150933-5.504 11.52-17.826133 13.431467-82.653867 40.4992-104.6784 44.270933-45.038933 7.714133-73.8816 0.7424-117.521066-3.882667-10.069333-1.066667-29.1072-6.9888-34.500267 5.12-12.4672-10.564267-25.378133-19.712-35.592533-32.887466-63.598933-82.048-62.446933-236.1344 22.826666-302.702934 8.567467-6.690133 43.8016-28.8768 51.8912-29.627733 9.992533-0.9216 20.957867 9.412267 32.631467 6.528 4.599467 28.859733-32.1024 28.416-38.775467 55.8848-4.573867 26.88 57.079467 13.2352 73.233067 7.944533 25.1392-8.251733 37.7088-30.165333 65.6384-23.7056 7.304533 1.6896 13.7472 8.968533 21.6576 10.922667 18.2528 4.514133 97.783467 19.626667 93.064533-8.209067l-45.243733-46.097066 20.736-21.563734 11.844267-1.262933zM105.466291 598.980267c16.3584-32.785067 27.921067-67.6352-15.240533-81.954134-37.597867 6.638933-47.6672 36.983467-41.642667 72.362667l21.9136 17.390933 34.961067-7.790933z" fill="#DA3A43" /><path d="M426.029491 443.460267c5.444267 3.7376 17.621333 5.8624 18.756267 7.3472 2.0224 2.6368 0.426667 12.049067 3.985067 18.6624 4.539733 8.439467 19.310933 21.1968 25.898666 32.955733 27.0336 48.264533 19.959467 69.76 23.0656 120.6528 1.066667 17.467733-1.134933 12.501333 13.073067 22.5536-4.206933 0.392533-8.6016-0.7424-12.808533 0.1536-7.8592 100.718933-100.224 190.574933-199.304534 201.873067-88.567467 10.094933-151.8592-2.2016-218.325333-58.538667 5.393067-12.1088 24.430933-6.186667 34.500267-5.12 43.639467 4.616533 72.482133 11.5968 117.521066 3.882667 22.024533-3.771733 86.852267-30.839467 104.6784-44.270934 5.802667-4.369067 3.6608-9.949867 5.504-11.52 9.437867-8.0384 20.104533-12.928 31.5648-24.388266 4.4544-4.4544 4.650667-11.989333 7.867734-15.121067 2.133333-2.082133 7.9872-0.5888 9.9584-2.3808 2.0992-1.911467 21.205333-43.4944 24.4224-50.935467 26.120533-60.475733 14.7712-132.386133 9.642666-195.797333z" fill="#C82D39" /><path d="M119.503625 423.893333l-39.0912-55.4496c6.903467-10.3168 12.066133-9.019733 22.621866-9.898666 40.302933-3.362133 76.5696 16.128 114.295467 26.205866-1.194667-22.536533-1.467733-89.6 23.552-97.2032l35.131733 5.9392c8.430933 7.970133-35.575467 71.9872-26.052266 91.264l58.692266-32.605866 71.7312-6.510934c2.9696 23.867733-18.756267 38.314667-26.077866 58.692267l-11.844267 1.262933-20.736 21.563734 45.243733 46.097066c4.718933 27.835733-74.811733 12.7232-93.064533 8.209067-7.9104-1.954133-14.353067-9.233067-21.6576-10.922667-27.9296-6.459733-40.4992 15.4624-65.6384 23.7056-16.1536 5.2992-77.806933 18.944-73.233067-7.944533 6.673067-27.4688 43.374933-27.025067 38.775467-55.8848-11.6736 2.875733-22.638933-7.458133-32.631467-6.528z" fill="#7CB250" /><path d="M105.466291 598.980267l-34.961066 7.790933-21.9136-17.390933c-6.033067-35.370667 4.0448-65.7152 41.642666-72.362667 43.1616 14.318933 31.598933 49.169067 15.240534 81.954133z" fill="#F17576" /></svg>