<?xml version="1.0" standalone="no"?><!DOCTYPE svg PUBLIC "-//W3C//DTD SVG 1.1//EN" "http://www.w3.org/Graphics/SVG/1.1/DTD/svg11.dtd"><svg class="icon" width="256px" height="256.00px" viewBox="0 0 1024 1024" version="1.1" xmlns="http://www.w3.org/2000/svg"><path d="M418.602667 608c-2.491733 10.709333-3.584 25.326933-3.5584 38.263467 58.939733 12.424533 42.9824 11.050667 90.1632 33.092266-1.271467 6.1184-1.629867 13.9776-1.032534 23.364267l3.234134 51.106133c0.136533 2.218667 10.248533 5.922133 11.0848 4.164267l14.148266-29.815467c6.007467-1.698133 13.8496-3.7632 22.075734-5.512533l142.506666-30.301867 34.722134-7.099733 13.474133 11.298133c12.765867 16.1792 23.005867 34.798933 31.496533 53.870934 0.324267 2.705067 1.8688 17.3824-1.314133 20.872533-19.805867 21.76-81.8688 53.333333-111.7184 66.013867-43.912533 18.653867-103.936 36.3008-151.048533 38.6304l-1.834667-28.0576 0.7424-69.751467c-4.224 1.245867-13.149867 6.493867-14.08 9.3696l-25.207467 77.866667c-39.953067 15.394133-118.766933-3.9424-163.447466-21.2736-12.808533-4.9664-73.1136-25.890133-63.624534-39.0656 8.712533-10.453333 17.604267-22.929067 25.463467-34.0224l29.602133-24.695467 32.597334-28.4416c-4.4032 7.8336-2.747733 18.901333 4.846933 26.333867 6.272 6.144 17.706667 12.7744 23.995733 12.381866 6.289067-0.401067 16.878933-6.468267 24.106667-12.757333 8.379733-7.304533 10.504533-21.563733 8.157867-31.2064l-6.997334-28.706133-30.336 16.1024-14.1312 7.722666 4.420267-11.409066 20.027733-14.165334 36.804267-27.306666c8.832-6.5536-1.0752-44.782933 8.6016-47.3856 1.783467 0.170667 4.5568 0.494933 6.0416 0.5376z" fill="#FEA098" /><path d="M228.565333 347.8528c6.340267 4.360533 15.104 9.924267 23.918934 15.163733l84.846933 50.397867c15.232 9.045333 31.7696 34.0992 41.412267 51.396267 9.582933 17.169067-23.662933 63.069867-35.7376 67.566933-7.748267 2.884267-25.762133-2.013867-34.8672-3.2-68.5824-8.951467-63.445333 3.797333-123.3408-1.408l-33.6128-3.6096c-13.969067-1.501867-32.938667 1.237333-46.788267 2.901333l-22.8096-1.544533c-4.821333-8.3712-12.5696-30.071467-10.077867-40.917333l14.08-61.201067c1.783467-7.765333 5.009067-16.768 8.302934-20.693333l2.628266 26.436266c2.184533 6.408533 23.159467 8.8832 30.088534 6.007467 6.929067-2.875733 16.7168-13.047467 20.778666-20.2752l8.610134-15.291733c10.0864-17.92 17.8688-35.5584 25.659733-55.893334l-22.775467-23.159466c-5.367467-5.461333-22.382933-4.078933-28.381866 0.324266-10.7008-12.270933-23.509333-23.6544-37.256534-31.872 5.504-13.141333 22.7072-22.971733 36.5056-28.689066l12.501334-9.949867c-0.1024 7.168 3.524267 17.6384 8.465066 22.801067 28.757333 29.994667 57.745067 69.998933 77.841067 74.709333z" fill="#FDA9A0" /><path d="M951.7824 500.224c-5.512533-5.12-7.0912 13.2608-4.590933 16.273067l0.2304 5.819733-30.1824 42.043733L829.781333 682.581333l-29.149866 35.797334c-5.128533 6.2976 7.150933 28.535467 14.114133 34.372266l93.090133-94.208 26.359467-28.535466 35.831467-40.277334 45.917866-52.215466-4.573866 34.176c-6.442667 11.281067-13.585067 25.2928-22.468267 36.437333-58.146133 72.977067-97.655467 114.1248-164.693333 179.037867-4.2752 4.138667-15.3856 10.487467-19.7888 12.817066l-9.941334-1.2544-8.610133-33.518933c-1.092267-4.241067-7.3728-13.3632-8.951467-14.779733-8.482133-19.072-18.722133-37.691733-31.496533-53.870934l-5.154133-13.371733c-1.117867-2.901333 3.037867-10.734933 5.0176-13.201067 11.153067 4.906667 19.089067 10.555733 34.176 21.077334l9.890133-21.418667c20.317867-44.0064 40.251733-84.3776 63.726933-127.189333 9.088-16.580267 62.523733-112.085333 76.8768-111.488 6.434133 6.528 21.290667 20.352 21.393067 30.0544l0.418133 39.2192z" fill="#F93B3B" /><path d="M477.815467 391.842133l12.817066 18.210134c4.829867 6.8608 22.562133 9.361067 31.4368 9.105066l-10.299733 20.9152c-5.009067-2.295467-17.041067-1.0752-21.794133 1.6896l-25.335467 14.72c-6.0416 3.5072-13.7216 12.5952-19.421867 20.983467l51.541334 1.3824 9.181866 5.512533-33.9456-0.349866-3.498666 5.8112c-11.895467-4.292267-37.930667-6.382933-49.911467-4.2496l-15.940267 42.077866-13.166933 9.915734 13.627733 2.235733-10.077866 6.673067c-3.9168 2.594133-6.050133 15.3344-4.053334 14.336l68.7872-1.143467 5.1712 5.922133-69.674666 0.9216 1.7408 11.3152 17.544533 29.636267c-9.668267 2.602667 0.2304 40.832-8.6016 47.3856l-36.804267 27.306667-20.027733 14.165333 7.8336-18.645333-12.279467-2.414934 15.104-9.890133c7.0912-4.642133 22.493867-18.926933 22.6304-28.1856 0.4096-29.0304-16.1024-64.392533-43.741866-73.8304-26.564267-9.070933-58.171733-11.050667-86.144-8.618667l-48.674134 4.224c-21.0432 1.826133-41.463467 1.4848-59.989333 1.450667l5.060267-5.333333 64.836266-1.083734c2.090667-2.833067 4.096-12.433067 0.8704-13.858133l-16.315733-7.202133-11.4944-5.1712c59.895467 5.205333 54.7584-7.543467 123.3408 1.408 9.105067 1.186133 27.1104 6.0928 34.8672 3.2 12.074667-4.497067 45.320533-50.397867 35.7376-67.566934-9.6512-17.297067-26.180267-42.350933-41.412267-51.396266l15.496534 0.7936-9.1648-20.949334c16.554667 19.968 56.029867 65.655467 89.1904 43.630934l40.746666-27.067734c3.4816-2.312533 4.471467-15.633067 4.206934-17.9712z" fill="#FD8780" /><path d="M130.5088 320.861867L100.974933 383.146667c-2.491733 5.256533-5.512533 14.856533-7.074133 19.566933-3.285333 3.925333-6.510933 12.928-8.302933 20.693333l-14.08 61.201067c-2.491733 10.845867 5.256533 32.5376 10.077866 40.917333l22.8096 1.544534-20.881066 8.064c-18.722133 7.236267-84.113067 29.866667-71.594667 52.736C-4.445867 583.688533 0.682667 507.4176 3.2512 491.963733c6.382933-38.4768 16.017067-74.350933 31.863467-109.44 7.261867-16.085333 44.032-93.269333 58.129066-93.5168 13.7472 8.2176 26.555733 19.601067 37.256534 31.872z" fill="#FD8D88" /><path d="M65.809067 592.878933c26.077867 72.32 81.245867 145.9712 140.100266 194.756267l-31.240533 37.700267c-2.773333 3.3536-4.9152 15.061333-4.821333 17.809066C105.813333 791.492267 54.980267 727.8336 20.8128 647.765333c-6.203733-14.532267-2.542933-34.235733 2.0992-48.554666 5.205333-1.4336 14.020267-4.608 19.336533-7.458134l16.802134-9.019733c-0.298667 1.7152-1.5616 6.2464 0.170666 6.8864 1.826133 0.6656 4.6336 2.218667 6.5792 3.259733z" fill="#FD8584" /><path d="M472.482133 865.365333c-1.4848 4.590933-2.816 14.327467-4.369066 20.258134l-5.649067 21.632c-0.981333 3.771733-4.292267 8.234667-9.045333 16.802133l2.816 7.620267 11.6736-8.593067c1.0752-0.7936 4.096-0.4096 5.435733 0 1.493333 0.4608 4.2496 1.493333 5.777067 1.8432-14.344533 33.4848-259.652267-24.6016-269.149867-67.831467l-19.669333-2.432c-2.7648-0.341333-10.538667-5.4528-10.862934-6.382933l31.4112-1.809067 34.56-41.454933c-9.489067 13.184 50.816 34.0992 63.624534 39.0656 44.680533 17.3312 123.4944 36.667733 163.447466 21.2736z" fill="#FD8081" /><path d="M1011.370667 571.690667l4.573866-34.176-45.917866 52.215466-35.831467 40.277334-26.359467 28.535466-93.090133 94.208c-6.9632-5.8368-19.2512-28.074667-14.114133-34.372266l29.149866-35.797334 87.458134-118.2208 30.1824-42.043733 9.224533-2.235733c15.675733-3.805867 35.822933-6.528 51.054933 1.220266 6.843733 3.4816 16.085333 18.773333 15.872 25.975467s-8.533333 17.9968-12.202666 24.4224z" fill="#FD706C" /><path d="M794.487467 798.72c-10.487467 9.173333-23.0656 21.7856-36.155734 29.585067-80.827733 48.162133-123.281067 61.841067-215.005866 82.747733l-45.4656 10.359467 2.440533 8.285866-21.162667-4.778666-0.315733-6.528c0.981333-0.8448 3.191467-0.1792 5.0176 0.0256l5.9904-5.435734c-0.324267-1.570133-1.1008-3.447467-0.366933-4.266666 0.648533 0.068267 5.154133-4.1216 5.7344-6.391467l12.0576-47.1552c0.401067-1.5616 3.9424-7.8848 3.771733-7.296l1.834667 28.0576c47.104-2.3296 107.127467-19.976533 151.048533-38.6304 29.8496-12.680533 91.912533-44.253867 111.7184-66.013867 3.182933-3.490133 1.6384-18.167467 1.314133-20.872533 1.570133 1.416533 7.8592 10.538667 8.951467 14.779733l8.610133 33.518934z" fill="#FD8384" /><path d="M929.9712 430.9504c-14.353067-0.597333-67.7888 94.907733-76.8768 111.488-23.4752 42.811733-43.400533 83.182933-63.726933 127.189333l-9.890134 21.418667c-15.0784-10.5216-23.022933-16.162133-34.176-21.077333l0.2816-6.084267c28.433067-58.9568 105.6-199.2192 154.461867-243.328 7.560533-6.826667 23.978667 4.360533 29.917867 10.3936z" fill="#FC7773" /><path d="M429.917867 110.122667l-6.272 10.0608 11.690666 17.1008-13.294933-8.1408-19.84 7.790933-5.444267 5.640533c-4.053333 0.3072-14.250667 0.776533-18.781866 2.577067l-84.7616 33.5872c-25.7792 10.2144-48.546133 24.789333-69.742934 38.8352l-16.042666 10.632533-23.765334 15.965867 1.442134 6.818133-23.9616-25.2928-13.0304 3.396267C196.548267 184.789333 354.4576 100.6336 418.986667 113.322667l10.939733-3.208534z" fill="#FC9590" /><path d="M804.4288 799.9744c3.933867 30.7968-3.729067 38.519467-35.328 56.2944-68.778667 38.698667-140.9792 62.2848-219.008 75.6736-17.8688 3.063467-35.8912 3.601067-49.809067-2.244267l-2.440533-8.285866 45.4656-10.359467c91.7248-20.906667 134.178133-34.5856 215.005867-82.747733 13.090133-7.799467 25.668267-20.411733 36.155733-29.585067l9.941333 1.2544z" fill="#FA6064" /><path d="M511.778133 440.081067c10.308267 4.718933 27.0592 10.973867 38.4 11.605333l4.8384 0.273067 10.8288 5.717333c21.5296 8.917333 41.463467 22.519467 59.153067 37.418667l23.022933 32.2816c1.8176 2.551467 4.3264 6.7584 5.572267 8.789333s-10.1376 1.544533-12.475733 0.5376l-32.3584-13.986133-14.933334-6.2208c-19.242667-8.0128-36.983467-15.1808-54.459733-21.3248l-0.042667-5.265067c0.580267 0.128-4.957867-5.538133-6.485333-5.538133h-26.862933l-9.181867-5.512534-51.541333-1.3824c5.700267-8.379733 13.380267-17.467733 19.421866-20.983466l25.335467-14.72c4.753067-2.7648 16.785067-3.985067 21.794133-1.6896z" fill="#FC7A70" /><path d="M184.8064 527.7696l11.4944 5.1712 16.315733 7.202133c3.2256 1.425067 1.220267 11.025067-0.8704 13.858134l-64.836266 1.083733-5.060267 5.333333c-30.395733-0.0512-55.441067 7.6288-82.798933 22.314667l-16.802134 9.019733c-5.316267 2.858667-14.1312 6.024533-19.336533 7.458134l-10.9824-11.3664c-12.526933-22.869333 52.864-45.499733 71.594667-52.736l20.881066-8.064c13.8496-1.664 32.8192-4.4032 46.788267-2.901334l33.6128 3.6096z" fill="#FC5551" /><path d="M745.301333 669.9776c-1.979733 2.474667-6.135467 10.308267-5.0176 13.201067l5.154134 13.371733-13.474134-11.298133-34.722133 7.099733-142.506667 30.301867c-8.2176 1.749333-16.068267 3.8144-22.075733 5.512533l2.56-14.020267c1.024-5.589333 0.170667-16.964267-0.9216-22.920533l21.4528-3.968 36.8896-6.1184 38.237867-5.538133c12.5952-1.826133 25.2928-3.5328 38.161066-4.744534 32.247467-3.029333 64.836267 0.315733 76.552534-6.971733l-0.2816 6.084267z" fill="#FC8983" /><path d="M462.9504 565.589333c42.948267-0.571733 97.5104 75.9552 70.417067 74.402134-2.261333-0.128-7.4496-1.186133-9.3952-2.269867l-50.363734-28.040533c-0.059733-0.887467-8.516267-5.922133-11.3152-5.947734l-38.8608-0.3584-4.8384 4.6336c-1.476267-0.042667-4.258133-0.366933-6.0416-0.5376l-17.544533-29.636266-1.7408-11.3152 69.674667-0.9216z" fill="#F87569" /><path d="M527.837867 511.658667c25.489067 15.931733 54.434133 46.856533 63.744 74.069333 1.2544 3.6608-5.546667 15.726933-9.096534 15.402667-28.433067-2.6368-60.501333-75.835733-179.362133-61.320534l-13.627733-2.235733 13.166933-9.915733 4.599467 5.12 54.894933 1.9456c9.890133 0.349867 25.856 2.2784 33.8688 0.571733 5.2992-1.1264 12.885333-19.985067 9.207467-23.9616-2.6624-2.875733-11.682133-7.611733-15.9488-10.069333l-10.496-6.033067c7.227733 1.262933 16.529067 3.805867 24.789333 7.0144l24.260267 9.412267z" fill="#FA7E75" /><path d="M185.105067 251.008c-0.136533 2.013867-0.776533 4.2752 0.1024 5.179733l5.632 5.777067 26.461866 43.178667c23.125333 37.7344 16.4352 15.2576 22.203734 39.586133 0.708267 2.9696-8.379733 2.7648-10.9312 3.131733-20.096-4.7104-49.0752-44.706133-77.841067-74.709333-4.9408-5.154133-8.567467-15.633067-8.465067-22.801067l-0.196266-5.0176c2.193067-3.165867 5.000533-11.127467 6.050133-16.221866l13.0304-3.396267 23.9616 25.2928z" fill="#FB5851" /><path d="M270.8736 771.003733c-7.8592 11.093333-16.750933 23.569067-25.463467 34.0224l-34.56 41.454934-31.4112 1.809066c-2.6624-1.271467-7.466667-3.421867-9.582933-5.137066-0.1024-2.747733 2.039467-14.455467 4.821333-17.809067l31.240534-37.700267 15.5392-12.245333c9.454933-7.4496 19.805867-14.190933 29.1072-19.063467 7.261867 3.293867 15.317333 8.951467 20.309333 14.6688z" fill="#FC5251" /><path d="M534.2976 691.2256c1.092267 5.9648 1.937067 17.339733 0.9216 22.920533l-2.56 14.020267-14.148267 29.815467c-0.836267 1.757867-10.948267-1.937067-11.0848-4.164267l-3.234133-51.106133c-0.597333-9.378133-0.2304-17.245867 1.032533-23.364267 10.3936 1.783467 23.7056 2.517333 29.0816 11.861333z" fill="#FC7264" /><path d="M608.733867 522.709333l32.3584 13.986134c2.3296 1.006933 13.7216 1.501867 12.475733-0.5376s-3.754667-6.237867-5.572267-8.789334l-23.022933-32.2816 24.234667 20.420267c4.334933 3.652267 9.181867 14.583467 10.308266 19.7888 0.904533 4.164267-8.567467 16.290133-12.2624 14.165333l-30.702933-17.629866c-2.1504-1.237333-7.970133-8.7296-7.825067-9.130667z" fill="#F29892" /><path d="M505.9584 484.369067h5.435733v5.435733l-17.083733 2.158933 17.732267 7.338667c5.674667 2.346667 13.303467 8.772267 15.786666 12.3648l-24.260266-9.412267c-8.260267-3.208533-17.570133-5.742933-24.789334-7.0144-2.816-1.621333-7.2192-4.3008-10.2656-5.4016l3.498667-5.8112 33.9456 0.349867z" fill="#F9DCDE" /><path d="M473.617067 609.672533l-55.022934-1.672533 4.8384-4.6336 38.8608 0.3584c2.7904 0.0256 11.255467 5.0688 11.3152 5.947733zM539.298133 489.898667l-22.4768-0.1024h-5.435733v-5.435734h21.4272c1.527467-0.008533 7.057067 5.666133 6.485333 5.5296z" fill="#FD8780" /><path d="M539.298133 489.898667l0.0512 5.265066-18.269866 0.5888-4.258134-5.956266 22.4768 0.1024z" fill="#F9DCDE" /><path d="M142.062933 245.333333c0.5376-6.263467 2.5088-12.987733 6.050134-16.221866-1.0496 5.102933-3.857067 13.056-6.050134 16.221866z" fill="#FDA9A0" /><path d="M947.182933 516.497067c-2.500267-3.012267-0.913067-21.393067 4.590934-16.273067 0.0512 4.4544-2.884267 14.404267-4.590934 16.273067z" fill="#FD706C" /><path d="M565.828267 457.6768l-10.8288-5.717333 10.8288 5.717333z" fill="#FDC4B2" /><path d="M511.018667 847.880533c0.170667-0.5888-3.3792 5.7344-3.771734 7.296l-12.0576 47.1552-5.7344 6.391467c-0.725333 0.810667 0.042667 2.696533 0.366934 4.266667l-5.9904 5.435733c-1.826133-0.213333-4.0448-0.8704-5.0176-0.0256l-5.461334 4.693333c-1.3312-0.4096-4.360533-0.7936-5.435733 0l-5.444267-15.829333 5.649067-21.632c1.544533-5.930667 2.875733-15.6672 4.369067-20.258133l25.207466-77.866667c0.930133-2.8672 9.856-8.123733 14.08-9.3696l-0.7424 69.751467z" fill="#FC5353" /><path d="M333.073067 717.858133c2.2528-2.978133 6.4768-8.3968 9.642666-10.120533l14.1312-7.722667 30.336-16.1024 6.997334 28.706134c2.346667 9.634133 0.221867 23.901867-8.157867 31.2064-7.227733 6.2976-17.8176 12.3648-24.106667 12.757333-6.289067 0.401067-17.723733-6.237867-23.995733-12.381867-7.594667-7.432533-9.2416-18.500267-4.846933-26.333866z" fill="#FEADAB" /><path d="M347.136 696.328533l-4.420267 11.409067c-3.157333 1.723733-7.389867 7.1424-9.642666 10.120533l-32.597334 28.4416-29.602133 24.695467c-5.000533-5.725867-13.047467-11.383467-20.309333-14.6688l13.952-13.661867 61.1072-58.026666c3.319467-3.157333 13.346133-6.929067 17.066666-9.3696l12.279467 2.414933-7.8336 18.645333z" fill="#FC7671" /><path d="M93.892267 402.705067c1.5616-4.7104 4.5824-14.3104 7.074133-19.566934L130.500267 320.853333c5.9904-4.4032 23.005867-5.7856 28.381866-0.324266l22.775467 23.159466c-7.790933 20.3264-15.5648 37.973333-25.659733 55.893334l-8.610134 15.291733c-4.0704 7.227733-13.8496 17.399467-20.778666 20.2752-6.929067 2.875733-27.904 0.392533-30.088534-6.007467l-2.628266-26.436266z" fill="#FEB9B9" /><path d="M343.671467 393.250133l9.1648 20.949334-15.496534-0.7936-84.846933-50.397867c-8.814933-5.239467-17.578667-10.8032-23.918933-15.163733 2.551467-0.366933 11.639467-0.162133 10.9312-3.131734-5.76-24.32 0.9216-1.851733-22.203734-39.586133l12.842667 12.049067c5.316267 4.983467 19.063467 10.402133 27.9552 14.378666 51.191467 22.894933 53.376 22.8608 85.572267 61.696z" fill="#FC7670" /><path d="M342.6816 675.268267c-3.720533 2.440533-13.738667 6.212267-17.066667 9.3696l-61.1072 58.026666-13.952 13.661867c-9.301333 4.872533-19.643733 11.613867-29.1072 19.063467l-15.5392 12.245333c-58.862933-48.7936-114.0224-122.436267-140.100266-194.756267l20.48-5.026133c21.623467 32.401067 77.3888 23.364267 85.239466 13.44 5.265067-6.664533 7.560533-24.968533 7.739734-32.896l-43.2384-2.8672c-4.872533-0.324267-18.269867 3.029333-22.980267 4.48l-47.232 22.869333c-1.9456-1.032533-4.753067-2.5856-6.5792-3.259733s-0.469333-5.162667-0.170667-6.8864c27.349333-14.685867 52.4032-22.365867 82.798934-22.314667 18.525867 0.034133 38.946133 0.375467 59.989333-1.450666l48.674133-4.224c27.972267-2.432 59.579733-0.452267 86.144 8.618666 27.639467 9.437867 44.151467 44.8 43.741867 73.8304-0.128 9.258667-15.530667 23.534933-22.6304 28.1856l-15.104 9.890134z" fill="#FEA59C" /><path d="M435.336533 137.2928c6.434133 9.403733 23.082667 29.5168 20.224 40.541867l-14.865066 57.233066c-15.266133 58.794667 4.736 110.788267 37.12 156.782934 0.256 2.338133-0.725333 15.650133-4.206934 17.9712l-40.746666 27.067733c-33.160533 22.033067-72.6272-23.6544-89.1904-43.630933-32.196267-38.8352-34.3808-38.801067-85.572267-61.696-8.891733-3.976533-22.638933-9.3952-27.9552-14.378667l-12.842667-12.049067-26.461866-43.178666c-1.169067-1.902933-4.010667-4.4288-5.632-5.777067-0.878933-0.904533-0.2304-3.165867-0.1024-5.179733l-1.442134-6.818134 23.765334-15.965866 16.042666-10.632534-8.7296 13.4656c-3.848533 5.930667 6.8352 20.770133 12.5184 27.281067 8.695467 9.9584 22.613333 9.250133 32.648534 2.730667 50.901333-33.066667 88.0128-49.152 145.220266-68.795734 13.764267-4.727467 22.033067-16.384 19.4816-31.146666-1.800533-10.402133-17.800533-19.3024-27.8528-18.542934l5.444267-5.640533 19.84-7.790933 13.294933 8.1408z" fill="#FEA69C" /><path d="M468.514133 489.8304c3.054933 1.1008 7.458133 3.7888 10.2656 5.4016l10.496 6.033067c4.266667 2.449067 13.294933 7.1936 15.9488 10.069333 3.677867 3.976533-3.908267 22.8352-9.207466 23.9616-8.0128 1.706667-23.9872-0.221867-33.8688-0.571733l-54.894934-1.9456-4.599466-5.12 15.940266-42.077867c11.972267-2.133333 38.016-0.0512 49.911467 4.2496z" fill="#FC6D63" /><path d="M467.9168 923.0848l-11.6736 8.593067-2.816-7.620267c4.753067-8.576 8.064-13.0304 9.045333-16.802133l5.444267 15.829333zM489.454933 908.7232l5.7344-6.391467c-0.580267 2.269867-5.077333 6.4512-5.7344 6.391467zM483.831467 918.4256l5.9904-5.435733-5.9904 5.435733zM479.1296 924.928c-1.527467-0.341333-4.283733-1.3824-5.777067-1.8432l5.461334-4.693333 0.315733 6.528z" fill="#FA6064" /><path d="M396.757333 142.583467c10.052267-0.759467 26.043733 8.132267 27.8528 18.542933 2.56 14.762667-5.7088 26.4192-19.4816 31.146667-57.207467 19.643733-94.318933 35.720533-145.220266 68.795733-10.043733 6.519467-23.953067 7.2192-32.648534-2.730667-5.6832-6.510933-16.366933-21.3504-12.5184-27.281066l8.7296-13.4656c21.188267-14.045867 43.9552-28.6208 69.742934-38.8352l84.7616-33.5872c4.5312-1.792 14.728533-2.269867 18.781866-2.577067z" fill="#FDBAB8" /><path d="M190.839467 261.956267l-5.632-5.777067c1.621333 1.348267 4.471467 3.874133 5.632 5.777067z" fill="#FC9590" /><path d="M65.809067 592.878933l47.232-22.869333c4.7104-1.4592 18.116267-4.804267 22.980266-4.48l43.2384 2.8672c-0.1792 7.927467-2.474667 26.231467-7.739733 32.896-7.842133 9.924267-63.616 18.961067-85.239467-13.44l-20.48 5.026133z" fill="#FDBABA" /><path d="M719.121067 423.108267l3.9424-7.722667c7.159467-14.0288-57.147733-18.321067-75.1616-17.1008l-88.635734 5.981867c-7.867733 0.529067-23.6032-3.438933-30.813866-5.998934l-36.565334-56.6784c-14.301867-22.1696-16.1792-79.351467-11.409066-105.5232l9.0624-49.7408 8.567466-15.744c2.1504-3.362133 12.1344-5.3248 18.2016-5.998933l33.390934-3.746133 65.0752-4.2752 49.160533-2.619734c33.706667-1.792 63.607467-20.317867 54.997333-43.716266 31.4112 10.666667 31.8464 40.2432 23.9104 55.936l-13.7984 27.272533c11.6736 11.323733 23.364267 22.075733 30.208 31.957333 5.9136 8.541867 5.9136 36.9664-0.7936 44.936534l-30.165333 35.8144 15.1808 11.170133c8.5248 6.272 26.350933 18.466133 26.120533 28.219733-0.981333 41.9328-26.2656 61.738667-50.474666 77.585067z" fill="#FDD6C8" /><path d="M718.933333 110.225067c8.6016 23.3984-21.2992 41.915733-54.997333 43.716266l-49.160533 2.619734-65.0752 4.2752-33.390934 3.746133c-6.058667 0.682667-16.0512 2.645333-18.2016 5.998933l-8.567466 15.744c10.026667-22.203733-6.528-57.966933-20.343467-77.405866-3.438933-4.8384-20.8896-3.908267-26.632533-2.312534l-12.637867 3.515734c1.442133-2.312533 6.929067-10.385067 10.222933-10.7264l81.3568-8.362667c30.711467-3.157333 57.856-2.039467 87.441067 0.494933l52.053333 4.445867c16.196267 1.3824 43.588267 9.378133 57.9328 14.250667z" fill="#FDAFA6" /><path d="M719.121067 423.108267c-15.018667 9.8304-33.2288 20.3776-55.133867 20.258133l-81.698133-0.452267-50.039467-1.083733 12.637867 5.282133 5.282133 4.565334c-11.332267-0.631467-28.091733-6.8864-38.4-11.605334l10.299733-20.9152c2.850133-5.794133 5.290667-13.9264 6.3744-20.8896 7.2192 2.56 22.946133 6.536533 30.813867 5.998934l88.635733-5.981867c18.013867-1.220267 82.321067 3.072 75.1616 17.1008l-3.9424 7.722667z" fill="#FDC4B2" /><path d="M489.540267 186.325333l-9.0624 49.7408c-4.770133 26.171733-2.8928 83.3536 11.409066 105.5232l36.565334 56.6784c-1.083733 6.9632-3.524267 15.095467-6.3744 20.8896-8.8832 0.247467-26.606933-2.2528-31.4368-9.105066l-12.817067-18.210134c-32.375467-45.994667-52.386133-97.988267-37.12-156.782933l14.865067-57.233067c2.858667-11.016533-13.789867-31.1296-20.224-40.541866l-11.690667-17.1008 6.272-10.0608 12.637867-3.515734c5.751467-1.595733 23.1936-2.5344 26.632533 2.312534 13.815467 19.438933 30.370133 55.210667 20.343467 77.405866z" fill="#FC7A70" /></svg>