<?xml version="1.0" standalone="no"?><!DOCTYPE svg PUBLIC "-//W3C//DTD SVG 1.1//EN" "http://www.w3.org/Graphics/SVG/1.1/DTD/svg11.dtd"><svg class="icon" width="256px" height="256.00px" viewBox="0 0 1024 1024" version="1.1" xmlns="http://www.w3.org/2000/svg"><path d="M474.538667 265.309867l18.2016 17.416533c-0.657067 1.792-1.826133 3.5072-1.962667 5.4784-1.314133 18.432-8.2944 31.6416-10.8544 49.8432-5.4016 4.608-7.9872 1.595733-12.834133 0.674133-27.409067-5.2224-54.843733-12.177067-82.850134-14.088533-67.6864-4.616533-152.3456-3.080533-216.004266 20.949333-17.757867 6.698667-36.096 13.9776-53.8368 21.589334-25.5232 10.948267-58.0096 23.620267-82.500267 36.027733-4.642133 2.346667-6.690133 7.1936-9.924267 8.968533-1.834667 1.006933-5.666133-2.3296-8.072533 2.670934-1.450667 6.186667 5.845333 4.522667 9.3696 3.976533 7.637333-1.186133 14.3104-1.664 21.5552-2.688 36.855467-5.179733 76.526933-24.558933 113.698133-34.466133 30.3104-8.081067 59.357867-11.767467 90.990934-16.768 20.795733-3.285333 40.96-9.019733 62.088533-8.192 17.8432 0.699733 36.206933 0.836267 53.896533 2.807466 16.375467 1.834667 52.0192 4.386133 62.72 16.955734 0.9728 1.134933 0.1792 3.592533 0.785067 4.3264 1.0496 1.28 16.3584-1.390933 18.6112 5.742933-22.920533-3.643733-40.098133-5.077333-63.4112-5.265067-3.882667-0.034133-7.1168-2.525867-10.171733-2.2784-3.217067 0.256-11.118933 2.7904-14.088534 4.736-8.763733 5.742933-8.234667 18.944-17.390933 24.362667-0.136533-0.3584-3.370667-2.389333-3.1232-4.923733-21.742933-7.338667-22.1952 3.003733-18.423467 21.085866-7.2192-2.346667-4.4032-17.416533-5.640533-18.602666l-14.2336-5.418667c-7.2704 7.671467-18.321067 8.072533-26.888533 13.627733-7.569067 4.898133-32.750933 28.544-39.492267 35.9424-10.231467 11.229867-24.3712 36.736-34.9696 41.8048 4.369067-7.022933 3.191467-4.241067-2.773333-6.6304-11.204267-4.48-21.666133-4.821333-33.032534-7.3984-32.810667-7.4496-64.904533-15.274667-97.629866-20.898133-20.5312-3.5328-38.314667-6.775467-58.692267-11.409067-6.417067-1.4592-1.783467-3.822933-7.2192 3.242667-2.688-34.756267 7.799467-62.941867 24.661333-92.526933 80.4096-141.0816 318.856533-181.870933 449.4592-90.658134z" fill="#C36430" /><path d="M757.393067 429.627733c44.859733-2.321067 97.2544 2.909867 137.386666 24.2432 97.467733 51.8144 155.733333 170.180267 117.2224 277.512534-7.645867 21.2992-20.138667 42.2912-31.018666 61.917866-3.157333-2.397867-4.923733-2.397867-8.081067 0 3.959467-6.4 6.016-12.706133 8.584533-19.703466 0.981333-2.6624 4.292267-4.599467 4.369067-5.845334 0.1024-1.570133-3.797333-5.563733-4.445867-8.558933-1.015467-4.676267 0.8192-11.144533-1.6128-14.532267l-9.4976-2.6368c2.133333-12.859733-4.9408-21.8624-8.285866-33.629866l5.230933-8.388267c-4.753067-25.898667 6.6304-58.862933-3.643733-84.701867-1.194667-2.9952-3.959467-4.7104-4.164267-5.188266-19.310933-45.960533-37.188267-75.025067-80.708267-101.128534-82.4576-49.4592-165.546667-23.893333-229.649066 38.485334-1.5616 1.518933-4.932267 1.288533-6.3232 3.1744-2.858667 3.882667-0.247467 19.5328 1.493333 24.439466-7.133867-5.504-6.4768-16.913067-9.3184-24.354133-7.099733-18.5856-20.292267-34.4064-28.398933-51.072 12.706133 3.959467 12.1856-0.930133 20.1472-8.132267 5.981867-5.418667 11.451733-10.9312 17.5616-16.110933 11.5968-9.8304 33.834667-20.522667 48.196266-24.686933 2.440533-7.517867 21.896533-10.743467 30.7712-13.533867 2.602667-0.8192 4.096-3.874133 6.272-4.497067 6.272-1.809067 20.718933-2.705067 27.904-3.072z" fill="#CD7A46" /><path d="M894.779733 453.879467c-40.132267-21.333333-92.526933-26.564267-137.386666-24.2432l18.6624-5.589334c0.725333-7.2192 2.141867-14.097067 2.884266-21.3504 6.340267-1.877333 15.300267-9.079467 20.258134-13.4144 40.823467-35.7376 75.042133-79.044267 111.616-117.2736 5.367467-5.6064 11.8528-12.629333 17.578666-17.595733 9.1904-7.978667 14.7968-18.747733 22.792534-25.506133 12.407467-10.478933 15.556267-14.216533 24.285866-27.016534 2.577067-3.771733 9.5232-9.2672 13.585067-12.0064 4.608 23.133867 0.264533 43.409067-2.645333 66.048-5.828267 45.2864-22.980267 88.192-43.562667 128.8448l-48.0768 69.111467z" fill="#95BC4B" /><path d="M980.983467 793.301333c-21.4528 38.690133-63.479467 82.312533-105.019734 101.060267-61.346133 27.6736-143.530667 22.0672-201.949866-10.939733-17.160533-9.693867-32.477867-24.285867-46.481067-35.549867-1.5104-1.211733-10.180267-6.340267-11.349333-6.007467-18.005333 20.394667-36.1216 41.762133-59.895467 56.1152-3.4304 2.0736-7.381333 2.158933-9.019733 3.080534-3.362133-12.928 11.1872-8.456533 16.324266-11.9552l2.850134-9.2672c23.6544-5.998933 30.7968-38.587733 53.563733-40.832-3.8144-6.4512 12.125867-32.887467 16.802133-37.12 1.4848-1.348267 4.317867-0.162133 4.736-0.494934l28.2368 26.990934c62.4896 47.0528 121.4208 55.082667 195.3536 34.9696 13.2352-3.601067 20.1728-5.1712 33.083734-11.3664 7.620267-3.652267 11.793067-5.845333 19.054933-10.564267 18.312533-11.895467 44.305067-29.815467 55.611733-48.110933 3.157333-2.397867 4.923733-2.397867 8.081067 0z" fill="#B65F34" /><path d="M956.740267 176.4096c3.191467-0.119467 13.764267-2.0736 13.4656 2.688-17.186133-3.447467-24.277333 16.520533-35.037867 22.877867-15.291733 9.0368-21.538133 12.9024-35.054933 26.9056-9.216 9.5488-21.845333 29.303467-31.266134 36.087466-11.869867 8.541867-5.649067 5.137067-13.1072 13.832534-2.568533 2.9952-19.089067 14.122667-24.32 18.773333-14.114133 12.561067-28.4928 26.1376-38.954666 41.856l-16.213334 14.762667c-2.5344-23.645867-3.925333-44.791467-11.332266-68.138667-2.730667-8.6016-7.3728-20.881067-12.910934-27.502933v-1.339734c6.050133 1.194667 7.236267-0.324267 10.769067-2.696533 54.382933-36.565333 110.1056-63.1808 175.104-75.426133 4.369067-0.827733 7.6288-2.6368 8.081067-2.696534 3.396267-0.392533 7.2448 0.128 10.7776 0z" fill="#90B843" /><path d="M188.987733 510.446933c-2.0224 5.777067-2.491733 15.325867-5.282133 19.933867-1.501867 2.4832-4.010667 0.733867-5.5808 3.242667-2.372267 3.780267-6.280533 22.306133-8.541867 28.8-6.5024 18.722133-14.592 34.935467-12.919466 55.773866-0.0512-0.136533-2.141867 0.631467-2.397867-1.5872-0.6912-5.905067 0.836267-13.636267-0.520533-18.389333-1.732267-6.075733-9.796267-3.3792-14.1824-4.667733-2.218667-0.657067-3.694933-3.592533-6.289067-4.48-22.3232-7.645867-42.069333-14.472533-59.076267-29.934934l-8.951466 2.346667-12.296534-16.008533c-9.4464-1.408 1.6128 10.5216-1.339733 13.457066H43.52l1.3312-5.341866-9.3952-5.435734c-1.792-2.705067-2.0736-4.369067-2.696533-5.384533l8.081066-10.769067-10.794666 1.442134-8.064-9.5232c-11.648-24.772267-15.249067-40.226133-18.858667-67.345067 4.770133 1.646933 6.929067 6.7072 10.8032 9.3952 35.370667 24.576 71.108267 36.770133 114.551467 44.3904 16.8704 2.961067 34.3808 2.7648 51.182933 7.5264l9.335467-7.432533z" fill="#C15F2E" /><path d="M989.064533 189.8752c-4.061867 2.7392-11.016533 8.234667-13.585066 12.0064-8.7296 12.791467-11.886933 16.529067-24.285867 27.016533-7.995733 6.7584-13.602133 17.527467-22.792533 25.506134-5.725867 4.9664-12.2112 11.989333-17.578667 17.595733-36.573867 38.229333-70.801067 81.544533-111.616 117.2736-4.957867 4.343467-13.917867 11.537067-20.258133 13.4144 1.988267-19.310933-0.6912-29.824-2.696534-48.4864l16.213334-14.762667c10.4704-15.726933 24.840533-29.303467 38.954666-41.856 5.230933-4.650667 21.751467-15.786667 24.32-18.773333 7.458133-8.695467 1.237333-5.290667 13.1072-13.832533 9.4208-6.784 22.058667-26.538667 31.266134-36.087467 13.5168-14.0032 19.7632-17.8688 35.054933-26.9056 10.760533-6.365867 17.851733-26.333867 35.037867-22.877867 0.298667-4.7616-10.274133-2.798933-13.4656-2.688 1.885867-4.283733 11.067733-3.217067 14.813866-2.688 8.3456 1.1776 15.9232 8.209067 17.5104 16.1536z" fill="#7DA939" /><path d="M0.418133 448.4864c5.435733-7.074133 0.802133-4.701867 7.2192-3.242667 20.3776 4.6336 38.161067 7.8848 58.692267 11.409067 32.725333 5.623467 64.8192 13.457067 97.629867 20.898133 11.3664 2.577067 21.828267 2.9184 33.032533 7.3984 5.9648 2.389333 7.1424-0.392533 2.773333 6.6304-3.438933 1.646933-9.4976 15.2064-10.7776 18.858667l-9.335466 7.432533c-16.802133-4.7616-34.312533-4.565333-51.182934-7.5264-43.4432-7.620267-79.1808-19.8144-114.551466-44.3904-3.874133-2.696533-6.033067-7.7568-10.8032-9.3952-0.256-1.8944-2.397867-4.3008-2.696534-8.081066z" fill="#AC4D1D" /><path d="M35.438933 548.164267l9.3952 5.435733-1.3312 5.333333h8.0896c2.952533-2.935467-8.106667-14.865067 1.339734-13.457066l12.296533 16.008533 8.951467-2.346667c17.006933 15.4624 36.753067 22.289067 59.076266 29.934934 2.594133 0.887467 4.0704 3.831467 6.289067 4.48 4.394667 1.297067 12.458667-1.399467 14.1824 4.667733 1.3568 4.753067-0.170667 12.484267 0.520533 18.389333 0.256 2.218667 2.346667 1.450667 2.397867 1.5872 0.392533 1.024-3.362133 14.813867-2.696533 21.546667-28.475733-10.760533-56.32-25.813333-79.5136-45.7472-3.037867-2.6112-4.795733-6.357333-6.690134-8.132267l2.773334-3.968-2.773334-8.1664-8.081066 4.0448c-11.332267-11.648-15.445333-16.349867-24.2432-29.636266z m26.9312 18.850133c0.768-5.290667-3.140267-8.891733-8.072533-8.072533l8.072533 8.072533zM21.973333 523.912533l8.064 9.5232 10.794667-1.442133-8.081067 10.769067c-4.565333-7.466667-6.468267-9.693867-10.7776-18.858667z" fill="#AC4F1E" /><path d="M67.7632 585.873067c-3.1232-2.926933-5.188267-5.102933-8.081067-8.081067l8.081067-4.0448 2.773333 8.1664-2.773333 3.968z" fill="#C15F2E" /><path d="M945.962667 176.4096c-0.452267 0.0512-3.712 1.8688-8.081067 2.696533l1.672533-2.397866 6.408534-0.298667z" fill="#7DA939" /><path d="M959.4368 610.116267c3.037867 19.822933 6.946133 37.614933 5.504 58.0352-2.8928 40.951467-17.8944 68.266667-40.5248 100.906666-9.002667 5.469867-14.916267 14.976-22.852267 21.597867-16.7936 14.0032-54.536533 34.107733-76.049066 37.0944-12.8256 1.783467-26.837333 1.851733-39.893334 3.2256-15.104 1.5872-38.306133-7.893333-52.471466-13.431467-12.1856-9.122133-21.546667-9.736533-18.321067-27.758933 1.1008-6.1696 6.4256-11.502933 7.1168-14.429867 2.056533-8.7808 1.544533-27.170133 12.714667-30.336-1.493333-17.979733 11.477333-19.106133 20.155733-28.381866 21.111467-22.536533 48.298667-45.448533 65.826133-71.560534 3.0976-4.616533 8.482133-12.066133 10.820267-16.119466 1.911467-3.310933 7.9104-25.898667 6.7584-26.922667-3.652267-1.1008-22.673067-1.2288-23.995733 0.366933-0.6144 0.7424 0.1792 3.191467-0.7936 4.317867-1.7152 1.979733-10.052267 4.590933-12.356267 6.6816-1.134933 1.032533-1.006933 4.2752-3.208533 6.126933-5.085867 4.266667-12.8512 9.856-18.6112 12.501334l-0.3328 7.688533c-12.9792-2.397867-8.891733 2.594133-13.380267 6.775467-12.561067 11.716267-35.447467 31.7952-48.5888 40.379733-3.677867 2.4064-31.163733 16.341333-34.013867 17.169067-5.085867 1.467733-11.716267-0.170667-17.1264 0.384v-63.3088c-4.437333-20.420267-7.901867-38.485333-16.162133-57.915734-0.64-1.5104-4.8896-6.6816-5.384533-8.081066-1.7408-4.9152-4.352-20.565333-1.493334-24.439467 1.390933-1.885867 4.7616-1.655467 6.3232-3.1744 64.1024-62.3872 147.191467-87.953067 229.649067-38.485333 43.52 26.112 61.397333 55.168 80.708267 101.128533z" fill="#FCE7B5" /><path d="M479.931733 338.039467c-2.141867 15.223467-1.7408 31.854933-2.679466 47.2576-0.443733 7.210667 0.469333 5.162667-5.4016 9.3184-10.794667-4.369067-10.862933-5.956267-24.2432-8.081067-2.2528-7.133867-17.5616-4.462933-18.6112-5.742933-0.605867-0.7424 0.187733-3.191467-0.785067-4.3264-10.7008-12.5696-46.336-15.121067-62.72-16.955734-17.6896-1.979733-36.0448-2.107733-53.896533-2.807466-21.128533-0.827733-41.2928 4.906667-62.088534 8.192-31.624533 4.992-60.680533 8.686933-90.990933 16.768-37.1712 9.9072-76.842667 29.2864-113.698133 34.466133-7.2448 1.015467-13.9264 1.493333-21.5552 2.688-3.524267 0.546133-10.820267 2.210133-9.3696-3.976533 2.4064-5.000533 6.2464-1.664 8.072533-2.670934 3.234133-1.774933 5.282133-6.621867 9.924267-8.968533 24.490667-12.407467 56.977067-25.079467 82.500266-36.027733 17.7408-7.6032 36.087467-14.882133 53.8368-21.589334 63.658667-24.029867 148.317867-25.565867 216.004267-20.949333 28.014933 1.911467 55.441067 8.866133 82.850133 14.088533 4.846933 0.9216 7.432533 3.933867 12.834134-0.674133z" fill="#A84C21" /><path d="M649.642667 583.185067c8.2688 19.4304 11.7248 37.495467 16.162133 57.915733v63.3088c5.410133-0.554667 12.040533 1.092267 17.1264-0.384 2.858667-0.827733 30.344533-14.762667 34.013867-17.169067 13.1328-8.584533 36.0192-28.663467 48.5888-40.379733 4.488533-4.181333 0.401067-9.173333 13.380266-6.775467l0.3328-7.688533c5.751467-2.645333 13.525333-8.234667 18.6112-12.501333 2.210133-1.851733 2.0736-5.0944 3.208534-6.126934 2.304-2.082133 10.641067-4.701867 12.356266-6.6816 0.9728-1.1264 0.1792-3.575467 0.7936-4.317866 1.322667-1.595733 20.343467-1.467733 23.995734-0.366934 1.143467 1.024-4.855467 23.611733-6.7584 26.922667-2.338133 4.053333-7.722667 11.502933-10.820267 16.119467-17.527467 26.112-44.706133 49.032533-65.826133 71.560533-8.686933 9.2672-21.649067 10.402133-20.155734 28.381867-11.1616 3.157333-10.6496 21.5552-12.714666 30.336-0.6912 2.935467-6.007467 8.260267-7.1168 14.429866-3.2256 18.0224 6.135467 18.6368 18.321066 27.758934-17.2032-6.715733-26.641067-15.172267-43.067733-22.9376L656.213333 763.6736c2.048-12.654933 3.054933-25.105067 4.189867-37.7344 2.210133-24.618667 3.925333-49.058133 2.6368-74.026667l-13.4144-68.753066z" fill="#FAD49E" /><path d="M447.598933 386.525867c13.3888 2.1248 13.448533 3.712 24.2432 8.081066 1.143467 0.4608 3.584-0.631467 5.230934 0.119467l0.324266 7.7568c12.842667 3.797333 25.9072 8.328533 37.486934 15.0784 6.673067 3.8912 3.8144 4.078933 13.533866 6.673067 17.262933 18.116267 39.7312 34.210133 55.202134 51.131733 6.0928 6.664533 10.3168 19.1488 20.232533 21.597867 0.930133 1.826133 2.602667 2.500267 2.696533 2.696533 8.098133 16.657067 21.2992 32.4864 28.398934 51.072 2.8416 7.441067 2.184533 18.850133 9.3184 24.354133 0.494933 1.399467 4.744533 6.570667 5.384533 8.081067l13.4144 68.753067c1.288533 24.968533-0.426667 49.408-2.6368 74.026666-3.089067 1.8944-3.976533 9.053867-4.7616 12.7488-3.626667 17.1008-10.513067 34.013867-13.661867 48.290134-0.861867 3.8912 0.128 13.943467-0.4352 14.3872-0.426667 0.3328-3.2512-0.861867-4.736 0.494933-4.667733 4.241067-20.616533 30.6688-16.802133 37.12-22.775467 2.244267-29.917867 34.833067-53.563733 40.832l-2.850134 9.2672c-5.137067 3.498667-19.6864-0.9728-16.324266 11.9552-77.866667 43.52-167.569067 43.451733-246.075734-0.418133-97.800533-54.647467-136.7552-154.615467-147.2256-260.8896-0.6656-6.741333 3.089067-20.5312 2.696534-21.546667-1.672533-20.8384 6.417067-37.060267 12.919466-55.773867 2.2528-6.493867 6.1696-25.028267 8.541867-28.8 1.578667-2.5088 4.078933-0.759467 5.5808-3.242666 2.7904-4.608 3.259733-14.1568 5.282133-19.933867 1.28-3.652267 7.330133-17.211733 10.7776-18.858667 10.5984-5.0688 24.7296-30.574933 34.9696-41.8048 6.741333-7.3984 31.9232-31.035733 39.492267-35.9424 8.567467-5.546667 19.618133-5.947733 26.888533-13.627733l14.2336 5.418667c1.237333 1.186133-1.578667 16.264533 5.640534 18.602666 10.538667 50.628267 46.574933 117.102933 71.492266 164.224 41.275733 78.0544 89.659733 150.408533 123.008 231.389867l4.3008 0.776533c0.290133 9.378133 7.1424 15.616 10.7776 23.057067 3.2768 6.7072 2.2016 16.5888 11.3152 19.6608-0.426667-5.6832 0.7168-11.904-0.034133-17.467733-2.295467-16.8704-11.716267-49.2288-16.776533-66.7392-20.189867-69.9136-61.047467-152.337067-97.6128-214.877867-26.3424-45.056-50.4832-94.532267-78.148267-137.361067-3.524267-5.4528-4.872533-13.883733-6.775467-18.816 9.1648-5.410133 8.635733-18.619733 17.390934-24.362666 2.961067-1.9456 10.862933-4.48 14.088533-4.736 3.0464-0.247467 6.289067 2.2528 10.171733 2.2784 23.313067 0.1792 40.490667 1.6128 63.4112 5.265066zM396.970667 806.212267c-1.7664-1.7408-4.8896-9.5488-7.406934-12.791467-61.6448-79.112533-91.4432-137.122133-114.466133-235.741867-2.730667-11.6992-4.608-27.5456-8.029867-37.768533-1.2032-3.6096-1.621333-7.227733-6.690133-6.766933-2.952533 2.961067-6.152533 4.744533-6.801067 9.361066-1.8688 13.192533-0.964267 42.589867-0.059733 56.746667 5.7856 89.915733 65.262933 192.887467 130.7136 254.506667 29.7216 27.972267 52.6848 43.9296 89.540267 61.312 8.823467 4.164267 20.881067 11.9552 29.405866 13.7472 2.363733 0.494933 4.8896-2.491733 7.364267-2.056534 2.491733 0.4352 9.745067 11.2384 9.7792 1.032534-2.218667-4.718933-8.4224-3.0464-10.385067-4.565334-0.776533-0.605867 0.392533-3.396267-2.013866-4.992-9.915733-6.562133-24.695467-11.818667-36.0192-20.1472-28.654933-21.0688-50.4576-47.735467-74.939734-71.876266z m-102.510934-10.624c-1.450667-1.911467-6.749867-11.3152-9.770666-15.8208-10.8288-16.162133-22.980267-35.490133-31.624534-51.882667-14.506667-27.502933-25.813333-68.642133-33.979733-98.013867-4.736-17.024-5.282133-28.612267-3.677867-45.841066 0.452267-4.846933-3.012267-15.4368-2.286933-23.867734 0.529067-6.101333 8.285867-26.9824-6.613333-22.775466-5.700267 1.6128-3.456 12.398933-4.48 17.0752-1.1264 5.1712-6.792533 10.427733-7.645867 16.597333-3.754667 27.153067 0.529067 66.4832 7.5264 92.1344 9.915733 36.3008 22.997333 79.010133 42.368 111.1808 5.981867 9.9328 15.402667 20.164267 17.902933 29.312l4.369067 0.7936c17.7664 36.514133 63.479467 74.820267 102.135467 87.927467 2.978133 1.006933 6.724267 0.128 9.745066 1.032533 9.0624 2.730667 19.720533 13.934933 26.0608-1.809067-4.6336-7.517867-12.7232-9.1904-18.7904-13.550933-21.632-15.530667-49.015467-36.437333-66.0992-55.04-6.997333-7.611733-11.707733-17.194667-17.348266-23.1424-2.747733-2.8928-7.3216-3.703467-7.790934-4.3264z" fill="#D06C36" /><path d="M320.989867 424.2432c-3.7632-18.090667-3.319467-28.424533 18.423466-21.085867-0.247467 2.5344 2.986667 4.565333 3.1232 4.923734 1.902933 4.932267 3.2512 13.3632 6.775467 18.816 27.656533 42.8288 51.805867 92.305067 78.148267 137.361066 36.565333 62.5408 77.422933 144.964267 97.6128 214.877867 5.060267 17.5104 14.481067 49.8688 16.776533 66.7392 0.759467 5.563733-0.384 11.784533 0.034133 17.467733-9.1136-3.080533-8.0384-12.9536-11.3152-19.6608-3.626667-7.432533-10.478933-13.6704-10.7776-23.057066l-4.3008-0.776534c-33.348267-80.989867-81.732267-153.335467-123.008-231.389866-24.917333-47.121067-60.9536-113.595733-71.492266-164.224z" fill="#A94B1F" /><path d="M396.970667 806.212267c24.482133 24.1408 46.2848 50.816 74.939733 71.876266 11.323733 8.328533 26.112 13.585067 36.0192 20.1472 2.4064 1.595733 1.237333 4.386133 2.013867 4.992 1.954133 1.518933 8.1664-0.145067 10.385066 4.565334-0.034133 10.197333-7.287467-0.597333-9.7792-1.032534-2.466133-0.4352-5.000533 2.551467-7.364266 2.056534-8.5248-1.792-20.5824-9.582933-29.405867-13.7472-36.855467-17.390933-59.818667-33.339733-89.540267-61.312-65.4592-61.610667-124.936533-164.590933-130.7136-254.506667-0.913067-14.1568-1.809067-43.554133 0.059734-56.746667 0.657067-4.616533 3.848533-6.4 6.801066-9.361066 5.0688-0.452267 5.4784 3.165867 6.690134 6.766933 3.421867 10.222933 5.2992 26.069333 8.029866 37.768533 23.0144 98.6112 52.821333 156.629333 114.466134 235.741867 2.525867 3.242667 5.649067 11.050667 7.406933 12.791467z" fill="#AD5021" /><path d="M294.459733 795.588267c0.469333 0.622933 5.051733 1.425067 7.790934 4.3264 5.649067 5.947733 10.359467 15.530667 17.348266 23.1424 17.092267 18.602667 44.475733 39.5008 66.0992 55.04 6.0672 4.360533 14.1568 6.024533 18.7904 13.550933-6.340267 15.744-16.9984 4.539733-26.0608 1.809067-3.0208-0.913067-6.7584-0.0256-9.745066-1.032534-38.656-13.1072-84.3776-51.421867-102.135467-87.927466l-4.369067-0.7936c-2.5088-9.147733-11.9296-19.387733-17.902933-29.312-19.370667-32.170667-32.452267-74.88-42.368-111.1808-7.005867-25.6512-11.2896-64.981333-7.5264-92.1344 0.853333-6.1696 6.519467-11.426133 7.645867-16.597334 1.015467-4.676267-1.220267-15.4624 4.48-17.0752 14.8992-4.215467 7.133867 16.674133 6.613333 22.775467-0.725333 8.430933 2.730667 19.0208 2.286933 23.867733-1.604267 17.2288-1.058133 28.817067 3.677867 45.841067 8.1664 29.371733 19.473067 70.510933 33.979733 98.013867 8.644267 16.392533 20.795733 35.720533 31.624534 51.882666 3.0208 4.5056 8.32 13.9008 9.770666 15.8208z" fill="#B05222" /><path d="M733.149867 817.544533c14.173867 5.5296 37.376 15.018667 52.471466 13.431467 13.056-1.373867 27.067733-1.442133 39.893334-3.2256 21.512533-2.986667 59.255467-23.0912 76.049066-37.0944 7.936-6.621867 13.8496-16.128 22.852267-21.597867-0.3584 0.520533-0.256 3.601067-2.568533 6.792534-11.485867 15.8464-33.732267 23.4752-40.32 43.426133-0.648533 3.822933 9.5744 9.258667 3.959466 17.262933l-22.8864 8.098134-0.145066 10.624h10.786133l-8.081067 8.081066c-73.9328 20.104533-132.864 12.074667-195.3536-34.9696l-28.2368-26.990933c0.571733-0.443733-0.418133-10.496 0.4352-14.3872 3.1488-14.276267 10.0352-31.189333 13.661867-48.290133 0.785067-3.694933 1.672533-10.8544 4.7616-12.7488-1.134933 12.629333-2.1504 25.079467-4.189867 37.7344l33.860267 30.916266c16.418133 7.765333 25.864533 16.213333 43.067733 22.9376z" fill="#E4AD7A" /><path d="M611.925333 98.286933l10.2144 15.36c15.300267 105.019733 16.8192 215.031467 22.229334 322.602667 0.648533 12.970667-0.708267 26.2144-0.119467 39.176533-6.109867 5.179733-11.579733 10.692267-17.5616 16.110934-7.9616 7.210667-7.4496 12.100267-20.1472 8.132266-0.093867-0.196267-1.7664-0.861867-2.696533-2.696533-5.3504-10.564267-23.432533-31.189333-33.629867-40.533333-5.393067-4.9408-13.533867-8.3712-17.152-11.050667-6.3744-4.736-11.682133-17.6896-24.644267-21.154133-7.108267-7.458133-18.722133-14.583467-29.243733-16.7168l-0.802133-4.2752-18.176-10.257067c-0.375467-5.2224-0.699733-10.624-0.2048-15.837867 3.054933-32.187733 12.424533-69.998933 21.495466-101.077333 9.335467-31.982933 33.7152-80.213333 51.592534-108.689067 13.218133-21.060267 38.852267-56.516267 58.8544-69.102933z" fill="#97C049" /><path d="M762.786133 254.532267c-3.5328 2.3808-4.727467 3.8912-10.7776 2.696533v1.339733c5.538133 6.613333 10.180267 18.901333 12.910934 27.502934 7.406933 23.3472 8.797867 44.4928 11.332266 68.138666 2.005333 18.6624 4.676267 29.184 2.696534 48.4864-0.7424 7.253333-2.158933 14.139733-2.884267 21.3504l-18.6624 5.589334c-7.185067 0.375467-21.640533 1.262933-27.904 3.072-2.176 0.631467-3.669333 3.677867-6.272 4.497066-8.866133 2.798933-28.322133 6.024533-30.7712 13.533867-14.3616 4.155733-36.599467 14.856533-48.196267 24.686933-0.5888-12.970667 0.768-26.205867 0.119467-39.176533-5.410133-107.5712-6.929067-217.582933-22.229333-322.602667l-10.2144-15.36c17.885867-11.255467 22.007467-10.231467 40.337066 1.416534 35.652267 22.647467 68.992 80.0256 86.8096 117.922133 4.420267 9.3952 7.7312 21.6832 12.356267 30.7456 2.901333 5.6832 4.8384 6.997333 11.349333 6.161067z" fill="#789E35" /><path d="M501.4784 276.078933c-9.070933 31.069867-18.440533 68.8896-21.495467 101.077334-0.494933 5.2224-0.170667 10.624 0.2048 15.837866l18.176 10.257067 0.802134 4.2752c10.5216 2.1248 22.135467 9.250133 29.243733 16.7168-9.719467-2.594133-6.8608-2.781867-13.533867-6.673067-11.5712-6.749867-24.644267-11.281067-37.486933-15.0784l-0.324267-7.7568c-1.6384-0.759467-4.078933 0.341333-5.230933-0.119466 5.870933-4.155733 4.957867-2.0992 5.4016-9.3184 0.9472-15.394133 0.546133-32.034133 2.679467-47.2576 2.56-18.2016 9.531733-31.4112 10.8544-49.8432 0.136533-1.9712 1.314133-3.6864 1.962666-5.4784l-18.2016-17.416534 3.6352 0.392534c6.852267 4.9152 14.4384 10.811733 23.304534 10.385066z" fill="#A58233" /><path d="M528.418133 424.2432c12.962133 3.456 18.269867 16.418133 24.644267 21.154133 3.618133 2.688 11.7504 6.109867 17.152 11.050667 10.205867 9.344 28.279467 29.969067 33.629867 40.533333-9.915733-2.449067-14.139733-14.933333-20.232534-21.597866-15.4624-16.9216-37.9392-33.015467-55.202133-51.131734z" fill="#CD7A46" /><path d="M959.4368 610.116267c0.2048 0.477867 2.9696 2.193067 4.164267 5.188266 10.274133 25.838933-1.109333 58.8032 3.643733 84.701867l-5.230933 8.388267c3.336533 11.767467 10.410667 20.770133 8.285866 33.629866l9.4976 2.6368c2.432 3.396267 0.597333 9.856 1.6128 14.532267 0.648533 2.9952 4.548267 6.997333 4.445867 8.558933-0.0768 1.245867-3.387733 3.1744-4.369067 5.845334-2.568533 6.997333-4.625067 13.303467-8.584533 19.703466-11.3152 18.295467-37.2992 36.215467-55.611733 48.110934-7.261867 4.718933-11.434667 6.912-19.054934 10.564266-12.919467 6.1952-19.857067 7.765333-33.083733 11.3664l8.081067-8.072533h-10.786134l0.145067-10.632533 22.8864-8.098134c5.614933-8.004267-4.608-13.44-3.959467-17.262933 6.587733-19.959467 28.8256-27.579733 40.32-43.426133 2.312533-3.191467 2.210133-6.272 2.568534-6.792534 22.6304-32.631467 37.632-59.946667 40.5248-100.906666 1.442133-20.420267-2.466133-38.212267-5.504-58.0352z" fill="#D79461" /><path d="M62.370133 567.0144l-8.072533-8.072533c4.932267-0.8192 8.840533 2.781867 8.072533 8.072533z" fill="#C15F2E" /></svg>