<?xml version="1.0" standalone="no"?><!DOCTYPE svg PUBLIC "-//W3C//DTD SVG 1.1//EN" "http://www.w3.org/Graphics/SVG/1.1/DTD/svg11.dtd"><svg t="1778769444854" class="icon" viewBox="0 0 1024 1024" version="1.1" xmlns="http://www.w3.org/2000/svg" p-id="2889" xmlns:xlink="http://www.w3.org/1999/xlink" width="256" height="256"><path d="M269.76 672.38s-38.91 5.66-51.3 33.82c-14.51 32.98 9.23 56.73 9.23 56.73 109.49 98.94 300.78 98.94 300.78 98.94 270.43 0 340.35-94.98 340.35-94.98 10.55-15.83 13.64-41.43 9.22-54.06-4.58-13.07-15.23-21.01-25.88-25.81-14.27-6.43-23.02-14.76-36.4-6.64-9.18 5.57-28.21 21.52-36.1 24.61 0 0-260.57 112.5-465.56 0l-44.34-32.61z" fill="#CFD768" p-id="2890"></path><path d="M270.23 659.31c26.18-67.44 114.8-288.58 245.4-446.07 13.64-16.44 39.16-15.46 51.39 2.05 54.25 77.68 186.75 276.13 247.92 444.36 14.68 35.78-37.28 45.32-37.28 45.32s-260.57 112.5-465.56 0c0 0-52.87-15.67-41.87-45.67z" fill="#F56766" p-id="2891"></path><path d="M462 501.67a21.85 24.51 0 1 0 43.7 0 21.85 24.51 0 1 0-43.7 0Z" p-id="2892"></path><path d="M573.91 501.67a21.85 24.51 0 1 0 43.7 0 21.85 24.51 0 1 0-43.7 0Z" p-id="2893"></path><path d="M540.33 619.15c-23.97 0-45.86-12.16-58.56-32.53-3.65-5.86-1.87-13.57 3.99-17.22 5.86-3.65 13.57-1.87 17.22 3.99 8.11 13 22.07 20.76 37.35 20.76s29.24-7.76 37.35-20.76c3.65-5.86 11.36-7.64 17.22-3.99 5.86 3.65 7.65 11.36 3.99 17.22-12.7 20.37-34.59 32.53-58.56 32.53z" p-id="2894"></path><path d="M525.47 874.36s0.02 0 0 0c-2 0-49.78-0.14-111.79-12.61-36.52-7.34-70.37-17.47-100.61-30.09-38.17-15.93-70.72-35.94-96.75-59.46l-0.46-0.44c-1.22-1.22-29.59-30.26-11.84-70.6 6.83-15.52 19.74-26.31 37.35-31.2 7.32-2.04 13.37-7.67 16.16-15.07 24.61-65.15 115.2-290.12 247.47-449.63 9.03-10.89 22.31-16.8 36.42-16.22 14.07 0.58 26.77 7.54 34.84 19.09 54.45 77.98 187.76 277.66 249.42 447.24 2.79 7.68 8.95 13.59 16.48 15.79 22.99 6.73 38.44 19.7 44.68 37.52 6.12 17.48 1.26 47.31-10.62 65.12l-0.33 0.48c-3.01 4.09-76.85 100.07-350.42 100.07z m-292.05-120.4c30.07 27.06 86.46 63.34 184.67 83.18 59.67 12.05 106.91 12.23 107.38 12.23 74.85 0 181.38-7.84 263.85-45.2 46.48-21.05 64.5-42.31 66.33-44.57 8.5-13.09 10.46-34.46 7.59-42.64-4.37-12.49-17.7-18.74-28.1-21.79-15.13-4.43-27.45-16.11-32.96-31.24-60.65-166.8-192.54-364.3-246.42-441.47-3.56-5.1-9.16-8.17-15.37-8.43-6.24-0.26-12.14 2.36-16.15 7.2-129.8 156.52-219.06 378.27-243.33 442.5-5.6 14.83-17.89 26.17-32.86 30.33-10.28 2.86-17.4 8.64-21.16 17.18-10.28 23.36 4.55 40.59 6.52 42.73z" p-id="2895"></path><path d="M522.91 767.48c-18.36 0-36.32-0.86-53.82-2.6-60.58-6-115.76-22.47-164.01-48.94-6.05-3.32-8.27-10.92-4.94-16.97 3.32-6.05 10.92-8.27 16.97-4.94 45.17 24.79 97.01 40.25 154.07 45.94 45.98 4.59 95.45 2.89 147.01-5.05 88.29-13.59 152.87-41.14 153.51-41.41 6.34-2.73 13.69 0.19 16.43 6.53 2.73 6.34-0.18 13.69-6.52 16.43-2.72 1.17-67.66 28.92-158.95 43.06-34.21 5.3-67.59 7.96-99.76 7.96z" p-id="2896"></path></svg>