<?xml version="1.0" standalone="no"?><!DOCTYPE svg PUBLIC "-//W3C//DTD SVG 1.1//EN" "http://www.w3.org/Graphics/SVG/1.1/DTD/svg11.dtd"><svg class="icon" width="256px" height="256.00px" viewBox="0 0 1024 1024" version="1.1" xmlns="http://www.w3.org/2000/svg"><path d="M584.629666 114.346667c13.0304 4.053333 27.869867 11.886933 40.149333 18.525866 2.833067 1.536 5.546667 4.283733 9.2672 6.178134 4.2752 5.504 12.194133 7.2448 15.445334 13.892266-9.787733-6.929067-21.102933-15.197867-31.8976-21.376-9.130667-5.2224-20.974933-11.613867-31.419734-12.586666 10.897067 11.707733 25.344 22.468267 35.541334 34.705066 9.924267 11.904 22.7072 31.291733 28.561066 45.5424 1.6128 3.908267 7.662933 21.0432 6.8608 23.876267-0.708267 2.4832-15.2832 5.1712-18.5088 6.203733-53.384533 17.2032-105.984 54.894933-128.9216 107.3152-3.950933 9.019733-11.042133 27.460267 3.370667 30.6432 15.957333 3.524267 17.450667-14.370133 23.893333-25.002666 35.3792-58.410667 101.768533-100.6336 171.938134-93.576534 13.610667 1.373867 28.381867 7.953067 40.9344 13.149867 2.6112 1.083733 4.9408-0.3584 4.8896 3.4816 88.0384 39.901867 130.730667 158.4128 97.877333 247.381333-1.493333 4.053333-12.5952 23.748267-10.0352 26.120534 20.360533 7.236267 42.7776 16.836267 59.426133 30.907733 49.450667 41.8048 62.677333 123.383467 20.846934 175.274667-36.8128 45.6704-116.881067 34.816-162.7136 9.770666-9.531733-5.205333-18.8672-11.4432-27.255467-18.286933l10.8032 27.784533c-6.4768-9.898667-9.984-16.068267-13.9008-27.784533-6.0672-18.167467-9.0112-33.288533-9.2672-52.488533-0.1792-13.550933 0.349867-25.787733 3.413333-39.04l12.032-31.965867c-6.912-0.341333-13.994667 0.4352-20.9152 0.068267-3.0976-0.162133-6.178133-1.3312-9.966933-1.6128-32.298667-2.389333-54.562133-7.816533-83.387733-23.159467-11.067733-5.888-24.618667-14.865067-33.9712-23.159467-2.781867-2.466133-7.714133-10.0608-10.769067-11.613866-5.768533-2.944-28.535467 5.461333-36.386133 6.929066-17.664 3.310933-35.4048 4.206933-53.2224 1.595734-0.503467-0.0768-1.041067 0.085333-1.544534 0-0.085333-0.017067 0.384-1.2032-0.913066-1.373867-2.261333-0.3072-4.548267-0.247467-6.8096-0.170667-8.5248 0.315733-5.0432 0.836267-9.233067 5.4272-1.501867 1.646933-3.712 2.798933-4.667733 3.831467l0.776533-7.714133c-0.9984 1.083733-2.030933 2.107733-3.319467 2.858666-29.329067 17.2288-60.270933 39.278933-94.301866 46.208-30.088533 6.126933-60.757333-0.759467-89.173334-10.5216-27.682133 7.637333-54.528 18.577067-82.286933 25.915734-45.4912 12.023467-78.498133 4.369067-116.1472-22.075734-24.064-16.904533-56.6784-46.600533-71.867733-71.7312-1.6384-2.705067-1.365333-7.057067-4.650667-9.250133l-0.7424 14.634667 7.688533 37.853866c-2.6112-1.698133-3.490133-5.998933-4.2496-8.866133-14.020267-52.599467-1.706667-96.469333 22.784-142.421333 10.999467-10.6496 17.749333-22.075733 30.08-32.452267 16.059733-13.508267 32.682667-23.697067 52.5824-30.7968 5.5808-17.0496 12.808533-32.085333 22.0672-47.36 0.4352-0.7168 0.034133-1.698133 0.273067-2.082133 4.224-6.801067 12.663467-14.532267 15.445333-21.614934 2.858667-1.655467 5.512533-4.48 7.748267-6.920533 30.609067-33.339733 65.399467-50.688 110.045867-59.7504l1.109333-1.262933 37.102933-2.2784 21.5808-33.2288c11.076267-10.530133 21.666133-22.775467 32.426667-33.962667l19.5072-13.687467c61.9008-40.456533 135.918933-46.685867 205.952-24.9088zM286.065399 330.7264c-9.258667 2.0224-12.6976 15.9488-4.949333 21.418667 2.176 1.536 5.230933 2.3808 7.825067 2.986666 12.484267 2.909867 24.977067 2.4576 37.845333 6.929067 30.122667 10.4704 49.723733 34.244267 62.506667 62.557867 4.215467 9.344 5.435733 26.146133 19.797333 22.920533 9.173333-2.065067 10.24-12.373333 8.490667-20.334933-0.4864-2.218667-6.8352-16.443733-8.302934-19.490134-22.4256-46.583467-60.654933-73.437867-112.597333-77.320533-2.986667-0.221867-7.799467-0.290133-10.624 0.324267z m-64.861866 9.258667c-1.339733 0.298667-10.1888 5.563733-11.793067 6.7328-4.642133 3.3792-7.748267 9.378133-6.024533 15.2064 0.341333 1.152 5.794133 6.6048 6.946133 6.9376 7.2704 2.1248 19.387733-3.933867 23.773867-9.8048 4.744533-6.357333 4.343467-13.141333-1.536-18.602667-2.449067-1.2544-8.516267-1.109333-11.3664-0.477867z" fill="#4BBD70" /><path d="M649.482999 152.9344c13.115733 9.284267 30.2592 29.550933 39.338667 43.264 2.773333 4.189867 10.581333 21.085867 13.124267 22.391467 16.580267 1.723733 33.297067-0.546133 49.902933 2.594133 52.957867 10.018133 113.834667 48.605867 135.4496 98.474667 7.2704 16.776533 13.9776 34.116267 18.8416 51.4048 11.7248 41.6512 5.8112 88.405333-11.869867 127.701333-3.293867 7.3216-10.180267 16.554667-12.475733 23.04-0.571733 1.621333-0.989867 2.9696-0.674133 4.7104 4.445867 2.133333 8.874667 0.9216 13.090133 1.578667 22.8352 3.541333 56.507733 17.109333 71.850667 34.696533l10.794666 6.9632c4.829867 4.616533 11.502933 10.0864 15.445334 15.4368 37.649067 51.1232 43.997867 125.781333 6.912 179.037867-1.655467 2.3808-12.2368 16.341333-13.090134 17.015466-1.9456 1.553067-1.4336 0.512-4.565333 3.882667-21.060267 22.7072-53.358933 40.7808-84.266667 45.474133-3.584 0.546133-9.0624-1.536-11.5456 1.578667-21.341867 0-39.9616-0.5632-60.6208-6.5536-15.0784-4.369067-29.1328-13.013333-42.8288-20.48-2.3296-1.271467-1.911467-3.447467-6.1952-3.84-13.5936-12.9024-21.888-20.949333-32.426666-37.051733l-10.8032-27.784534c8.388267 6.843733 17.723733 13.0816 27.255466 18.286934 45.824 25.045333 125.892267 35.899733 162.7136-9.770667 41.8304-51.8912 28.612267-133.4784-20.846933-175.274667-16.648533-14.071467-39.0656-23.671467-59.426133-30.907733-2.56-2.3808 8.541867-22.075733 10.0352-26.120533 32.8448-88.968533-9.838933-207.479467-97.877334-247.381334 0.0512-3.84-2.2784-2.397867-4.8896-3.4816-12.552533-5.188267-27.323733-11.776-40.9344-13.149866-70.178133-7.0656-136.558933 35.157333-171.938133 93.576533-6.442667 10.641067-7.936 28.526933-23.893333 25.002667-14.404267-3.182933-7.313067-21.623467-3.370667-30.6432 22.9376-52.411733 75.5456-90.103467 128.9216-107.3152 3.2256-1.041067 17.800533-3.720533 18.5088-6.203734 0.802133-2.833067-5.248-19.959467-6.8608-23.876266-5.8624-14.250667-18.6368-33.6384-28.561067-45.5424-10.205867-12.2368-24.644267-22.997333-35.541333-34.705067 10.4448 0.9728 22.289067 7.364267 31.419733 12.586667 10.794667 6.178133 22.109867 14.446933 31.8976 21.376z" fill="#299646" /><path d="M10.165666 575.931733l-7.688533-37.853866 0.7424-14.634667c3.2768 2.193067 3.012267 6.545067 4.650666 9.250133C23.050999 557.824 55.673933 587.52 79.737933 604.424533c37.649067 26.453333 70.656 34.0992 116.1472 22.075734 27.758933-7.338667 54.6048-18.2784 82.286933-25.915734 28.416 9.770667 59.093333 16.648533 89.173333 10.5216 34.030933-6.929067 64.9728-28.9792 94.301867-46.208 1.288533-0.759467 2.321067-1.774933 3.319467-2.858666l-0.776534 7.714133c-14.6688 15.931733-28.407467 30.839467-47.872 41.685333l-2.082133 0.2304c-2.2272 1.877333-4.608 3.1232-7.185067 4.4032-33.442133 16.674133-66.730667 27.076267-104.2688 24.7296-8.157867-0.512-16.3328-0.938667-24.482133-1.373866-45.073067 40.712533-105.531733 53.674667-163.566933 36.539733-7.9872-2.3552-17.1264-4.744533-22.724267-11.246933l-20.061867-8.4992c-23.697067-15.889067-45.508267-38.135467-57.1392-64.836267-1.6128-3.703467-3.6096-11.255467-4.6336-15.4368z" fill="#289645" /><path d="M286.065399 330.7264c2.824533-0.6144 7.637333-0.546133 10.624-0.324267 51.950933 3.882667 90.171733 30.737067 112.597334 77.320534 1.467733 3.0464 7.816533 17.262933 8.302933 19.490133 1.749333 7.9616 0.682667 18.269867-8.490667 20.334933-14.3616 3.2256-15.581867-13.576533-19.797333-22.920533-12.782933-28.3136-32.384-52.078933-62.506667-62.557867-12.868267-4.471467-25.3696-4.027733-37.845333-6.929066-2.594133-0.605867-5.649067-1.442133-7.825067-2.986667-7.748267-5.469867-4.309333-19.396267 4.949334-21.418667z" fill="#299746" /><path d="M221.203533 339.985067c2.858667-0.631467 8.917333-0.776533 11.3664 0.477866 5.879467 5.4528 6.280533 12.245333 1.536 18.602667-4.386133 5.879467-16.503467 11.9296-23.773867 9.8048-1.152-0.341333-6.6048-5.7856-6.946133-6.9376-1.723733-5.828267 1.3824-11.8272 6.024533-15.2064 1.6128-1.169067 10.453333-6.434133 11.793067-6.7328z" fill="#2A9748" /><path d="M705.077666 611.438933l4.6336 4.625067c-1.860267 0-3.652267 0.776533-5.179733 1.774933-7.5008 4.8896-18.005333 11.332267-24.157867 16.759467-0.7936-4.727467 1.723733-21.888-1.476267-23.995733-11.272533-1.399467-22.3488-4.753067-32.938666-8.7552-7.620267-2.884267-15.138133-7.8592-21.9904-10.436267-2.013867-0.759467-2.7136 0.213333-2.304 2.210133l-6.144 19.362134v-6.178134l6.178133-18.525866c28.8256 15.3344 51.0976 20.770133 83.387733 23.159466z" fill="#DBE7DC" /><path d="M485.796599 562.039467l-6.8096-0.170667-0.913066-1.373867c2.261333-0.085333 4.548267-0.145067 6.8096 0.170667 1.288533 0.1792 0.827733 1.365333 0.913066 1.373867z" fill="#A8DD6A" /><path d="M887.298466 319.6672c2.6112 0.699733 3.362133 3.473067 4.4032 5.632 5.316267 10.965333 9.565867 22.510933 12.817067 34.2784 16.8448 5.6832 31.7696 11.912533 46.0288 22.6816 11.101867 8.388267 26.2144 25.335467 32.494933 37.76 14.293333 28.279467 16.648533 70.690133 5.461333 100.4032-4.7616 12.6464-14.472533 25.480533-22.306133 36.411733-1.4336 4.7104 4.317867 5.998933 6.8352 8.277334 1.681067 1.518933 2.730667 3.6096 3.831467 4.6592l-10.794667-6.9632c-15.342933-17.578667-49.006933-31.146667-71.850667-34.696534-4.215467-0.657067-8.644267 0.554667-13.090133-1.578666-0.315733-1.749333 0.1024-3.089067 0.674133-4.7104 2.286933-6.485333 9.173333-15.709867 12.475734-23.04 17.672533-39.296 23.594667-86.050133 11.869866-127.701334-4.864-17.28-11.579733-34.628267-18.8416-51.4048z" fill="#44AC63" /><path d="M407.033933 616.072533c-1.237333 2.321067-4.923733 4.7872-7.176534 5.947734-27.588267 14.267733-69.230933 23.7312-100.224 21.905066-4.138667-0.247467-8.362667-2.756267-13.056-1.6128l28.5952 58.632534c11.451733 29.866667 25.2928 61.073067 32.853334 92.202666 1.083733 4.462933 2.850133 10.6496 0.324266 14.344534-7.278933 3.6608-13.6192 8.994133-20.078933 13.892266-0.5632 0.1536-1.339733-0.1536-2.133333 0.1792s-0.750933 1.211733-0.955734 1.365334l-28.945066 10.427733c-60.654933 15.291733-118.656-3.2768-160.930134-46.737067-2.3552-2.423467-4.864-5.265067-7.790933-6.920533-2.474667-6.468267-7.825067-11.0336-11.502933-17.058133-10.359467-16.964267-20.6592-44.2624-22.434134-64.0256-0.7936-8.849067 1.1008-19.362133 0.017067-27.8528-0.298667-2.346667-1.245867-1.826133-1.5872-2.218667-2.6112-2.986667-4.206933-2.030933-6.638933-3.4048-4.7616-2.679467-8.9856-5.9648-13.44-8.951467l20.061866 8.4992c5.597867 6.5024 14.737067 8.891733 22.724267 11.246934 58.0352 17.134933 118.493867 4.181333 163.566933-36.539734 8.149333 0.4352 16.3328 0.861867 24.482134 1.373867 37.538133 2.346667 70.826667-8.055467 104.2688-24.7296z" fill="#43A963" /><path d="M430.201933 648.490667c-0.1792-0.418133 0.093867-1.271467-0.2304-2.0992-0.861867-2.184533-4.0448-3.413333-2.850134-7.159467h35.515734c2.304 2.193067-9.6512 32.221867-11.5712 37.060267l-5.418667-1.5616c-4.232533-8.7552-11.281067-16.768-15.445333-26.24z" fill="#FAFCF8" /><path d="M356.072866 827.562667c-0.059733-0.1536-0.904533-0.324267-1.2544-1.092267-1.058133-2.389333-1.288533-6.365867-2.551467-8.226133-1.527467-2.2528-10.692267-1.902933-13.704533-1.237334-2.816 0.622933-5.563733 3.114667-10.2912 4.3776 6.459733-4.898133 12.791467-10.231467 20.078933-13.892266 7.125333 0.682667 6.912 14.1312 7.722667 20.0704z" fill="#E9F0E5" /><path d="M986.131533 781.252267v1.544533c-5.154133 5.777067-10.385067 11.8528-16.187734 17.015467-5.4784 4.872533-16.196267 8.6272-14.711466 16.9472-13.184-1.5104-24.311467 6.621867-36.6592 10.427733-8.260267 2.542933-16.708267 3.797333-25.105067 5.009067h-7.722667c2.4832-3.114667 7.9616-1.032533 11.5456-1.578667 30.907733-4.701867 63.2064-22.766933 84.266667-45.474133 3.131733-3.3792 2.6112-2.3296 4.565333-3.882667z" fill="#DEE7DE" /><path d="M127.524599 779.707733c2.926933 1.664 5.435733 4.5056 7.790934 6.920534 42.274133 43.460267 100.2752 62.020267 160.930133 46.737066l28.945067-10.427733c-3.4816 2.6624-6.869333 4.386133-10.811734 6.178133-24.6784 11.2128-64.529067 14.301867-91.1104 9.258667-12.253867-2.321067-25.1392-7.125333-36.599466-12.040533-3.157333-1.3568-17.194667-9.5744-18.218667-9.5744h-36.292267c0.162133-6.946133-0.187733-13.943467-0.068266-20.906667 0.068267-3.797333 2.432-4.138667 0.068266-8.430933-1.792-3.2512-3.063467-3.626667-4.6336-7.722667z" fill="#E7EBE8" /><path d="M587.718733 565.128533c-0.750933 5.76-2.935467 11.972267-4.9664 17.416534-35.310933 94.7456-70.519467 223.752533-58.376534 324.5568 0.452267 3.746133-1.220267 8.123733 1.5104 10.837333 2.193067 1.467733 40.772267 0.9216 47.232 0.776533 18.568533-0.4096 35.2256-0.750933 53.9136 0 8.4736 0.341333 17.066667-0.375467 25.531734-0.0768-0.8192-3.165867 1.271467-5.930667 1.518933-8.516266 2.269867-23.253333 5.0176-40.2944 13.141333-62.506667 1.2288-3.370667 2.8672-8.362667 5.418667-10.786133-5.922133 15.453867-15.522133 46.4384-16.955733 62.557866-0.401067 4.5568 1.314133 18.218667-1.5104 20.104534l-2.3296 0.750933-277.819734-0.238933c-6.3232-1.826133-3.5584-13.781333-3.985066-19.1744-1.3056-16.4096-4.616533-37.307733-8.149334-53.6064-0.4608-2.133333-0.9472-6.212267-2.730666-7.304534-0.7168-5.623467-1.109333-7.441067-3.089067-12.347733-0.810667-5.9392-0.597333-19.387733-7.722667-20.0704 2.5344-3.694933 0.759467-9.8816-0.324266-14.344533-7.560533-31.1296-21.4016-62.336-32.853334-92.202667l-28.5952-58.632533c4.701867-1.143467 8.917333 1.365333 13.056 1.6128 30.984533 1.826133 72.635733-7.637333 100.224-21.905067 2.2528-1.160533 5.9392-3.6352 7.176534-5.947733 2.568533-1.28 4.957867-2.525867 7.185066-4.4032l2.082134-0.2304-7.560534 6.929066 11.357867 16.298667c3.2512 4.6592 5.205333 10.999467 10.103467 13.824 4.164267 9.472 11.2128 17.4848 15.445333 26.24 0.631467 1.3056 1.066667 4.488533 1.5872 6.161067h4.5568c2.065067-8.3712 6.152533-16.136533 8.968533-24.2432 9.4208-27.0592 19.3024-56.064 27.8016-83.3536 0.529067-1.6896 1.271467-4.462933 1.595734-6.161067 0.887467-4.650667-0.4352-2.619733-2.816-5.0944 17.8176 2.602667 35.5584 1.706667 53.2224-1.595733 7.850667-1.467733 30.609067-9.873067 36.386133-6.929067 3.054933 1.5616 7.9872 9.147733 10.769067 11.613867z" fill="#A8DD6A" /><path d="M621.689933 588.279467l-6.178134 18.525866c-12.416 49.024-21.026133 101.1456-24.772266 151.995734-0.494933 6.698667 1.518933 20.770133 3.874133 27.136 2.816 7.611733 14.378667 19.328 23.04 16.7424 4.701867-1.399467 18.4832-21.794133 22.536533-26.871467 11.204267-14.0032 22.126933-28.1856 34.039467-41.617067l46.301867-50.2016c0.256 19.2 3.2 34.321067 9.2672 52.488534-2.653867 0.776533-3.549867 3.080533-4.923734 5.12-19.874133 29.448533-39.424 61.832533-52.215466 95.232-2.551467 2.423467-4.189867 7.424-5.418667 10.786133-8.132267 22.203733-10.871467 39.253333-13.141333 62.506667-0.256 2.594133-2.346667 5.3504-1.518934 8.516266-8.465067-0.3072-17.058133 0.418133-25.531733 0.0768-18.688-0.750933-35.345067-0.4096-53.9136 0-6.459733 0.145067-45.0304 0.6912-47.232-0.776533-2.730667-2.7136-1.058133-7.0912-1.5104-10.837333-12.1344-100.804267 23.0656-229.8112 58.376533-324.5568 2.030933-5.444267 4.215467-11.656533 4.9664-17.416534 9.352533 8.2944 22.903467 17.271467 33.9712 23.159467z" fill="#80AC49" /><path d="M615.511799 612.983467c0 1.015467 0.085333 2.082133 0 3.089066-1.774933 1.092267-2.269867 5.179733-2.730666 7.304534-7.022933 32.776533-11.1616 65.518933-15.829334 98.414933-0.9728 6.843733-4.2752 13.576533-3.054933 20.872533 5.973333-5.256533 8.669867-14.0032 12.5952-20.599466 17.0752-28.706133 45.789867-62.574933 70.792533-84.3776 1.373867-1.194667 2.269867-2.363733 3.089067-3.089067 6.161067-5.4272 16.6656-11.869867 24.157867-16.759467 1.527467-0.9984 3.319467-1.783467 5.179733-1.774933l-4.6336-4.625067c3.7888 0.2816 6.877867 1.442133 9.966933 1.6128 6.920533 0.375467 13.994667-0.4096 20.9152-0.068266l-12.032 31.965866c-3.063467 13.2608-3.592533 25.4976-3.413333 39.04l-46.301867 50.2016c-11.912533 13.431467-22.8352 27.613867-34.039466 41.617067-4.053333 5.0688-17.834667 25.463467-22.536534 26.871467-8.661333 2.5856-20.224-9.130667-23.04-16.7424-2.3552-6.3744-4.369067-20.437333-3.874133-27.136 3.746133-50.850133 12.356267-102.9632 24.772267-151.995734v6.178134z" fill="#A8DC6B" /><path d="M465.717666 920.192c-2.8928 2.807467-9.2416 1.527467-13.124267 1.544533-9.258667 0.034133-18.5344 0.0768-27.793066 0-2.542933-0.0256-7.210667 1.134933-8.4992-1.536 16.375467-0.426667 33.032533-0.196267 49.416533 0zM359.161933 839.918933c0.068267 0.503467-0.0768 1.041067 0 1.544534l-1.297067-0.9728c-1.408-4.309333-1.2288-8.7808-1.792-12.919467 1.979733 4.906667 2.372267 6.724267 3.089067 12.347733z" fill="#EDEDED" /></svg>