<?xml version="1.0" standalone="no"?><!DOCTYPE svg PUBLIC "-//W3C//DTD SVG 1.1//EN" "http://www.w3.org/Graphics/SVG/1.1/DTD/svg11.dtd"><svg class="icon" width="256px" height="256.00px" viewBox="0 0 1024 1024" version="1.1" xmlns="http://www.w3.org/2000/svg"><path d="M847.347053 192.268865c8.541822 5.828236 17.117778 12.313536 21.683087 24.038275 12.467135 32.076633 14.003127 73.847082 10.470346 108.133837-9.036753 87.756343-31.820634 165.14474-63.939934 247.089913-8.260224 21.06869-17.25431 40.601389-26.75186 61.081282-50.107472 108.022904-146.704303 255.819468-245.579521 322.123122l-2.116256-3.063451 10.094881-20.266561c9.489017-19.063367 9.437818-28.441452 17.843107-43.690439 2.252788-1.339726 7.219162-4.659176 9.087953-6.801031l25.5316-29.260648c2.867185-3.285316 5.725837-6.664499 8.132224-8.695421l-2.918385 6.818098c-0.494931 0.281599 3.182917-0.580264 4.070379-1.169061l4.872508-3.251183c1.117861-0.750929 4.147178 2.039456 5.614904 3.24265 8.311423 6.852231 16.426581-3.720514 20.343361-8.712488l10.692211-13.619129 13.823928-17.612708c6.493833-8.268757 13.550863-16.341248 19.1999-25.139069l16.042583-24.994004 12.040471-19.063367 7.884759-13.559396 15.709784-27.007859 8.422357-15.48792c9.207419-16.921512 16.742313-33.98809 24.140674-51.71173l8.20049-19.660698 14.24206-35.626481 5.879436-15.735385 9.57435-26.043598c17.365243-47.265887 23.756676-59.374624 33.715024-111.077821 1.732258-9.011153 2.46612-17.049511 3.874113-27.852655l-6.860764 1.032528-5.196773 7.304495c0.290132-6.673032 1.023995-13.875128 2.440521-21.307622l2.764785-14.489525c1.595725-8.371156 2.269855-15.786584 2.397855-24.567338-6.894897 8.610088-10.111947 28.595051-14.327392 39.748059l-17.450576 46.199226-21.09429 51.651998c-6.135435 15.027122-13.047399 29.252114-21.000424 43.570973l-30.557708 55.00558-12.228203 23.748143c-1.544525 2.995184-2.781852 7.611694-4.070379 13.072999 5.06024-4.667709 9.446351-9.429284 13.550863-15.317254l12.979133-18.585503c19.396166-27.784389 35.950746-56.985303 47.521885-88.99367 2.833052-7.842092 4.991974-16.051116 8.191958-23.415344l7.987158-18.346572c0.836262-1.91999 5.341839-5.393039 6.579166-5.768503-0.358398 2.278388-1.27146 7.227696-2.210122 9.830349l-12.697534 35.012084-9.326885 25.727866-5.845303 15.342854-9.070886 22.203617-4.087445 9.941282-14.190859 33.36516c-8.055425 18.935368-16.298582 36.718742-26.180131 53.350122l0.0768-5.316239-26.709194 32.742229-25.275602 29.439847c-4.607976 5.367439-14.728457 11.212742-21.546554 10.009548-3.037851-0.537597-2.073589-8.081025-0.836263-10.37648 7.415428-13.772728 13.815395-26.20573 19.87403-40.080858l32.545964-74.444412 7.671427-19.396165 12.134336-29.277715c0.665597-1.612792-2.798919-6.690098-3.967979-5.845303-9.096486 6.613299-9.821816 13.055932-12.509801 19.660698l-22.894815 56.225841-11.656472 27.656389-11.161542 27.221191c-2.969585 7.236229-6.314634 14.250592-9.762083 21.742821l-16.494847 35.916612c-0.981328 2.133322 5.316239 7.978625 7.611694 7.475162l18.491637-4.002113c-1.817591 4.445844-4.334911 10.598345-7.18503 14.694324l-24.217473 34.781685-14.003127 19.532698-22.382817 30.14811-11.656473 14.387125c-5.435705 6.715698-11.289541 12.706067-17.271377 17.791907 1.288527-6.570632 2.687986-14.429792 3.455982-21.776953l4.556777-43.502707c1.288527-12.313536 1.570125-24.789204 1.629858-36.411543l2.175989-1.99679-0.119466-19.694831c12.040471-16.759379 23.705477-33.006761 34.611019-50.576803l29.235048-47.086688c9.727949-15.667118 19.1231-30.532108 30.301709-45.516563 3.097584-4.155712 21.486821-20.54816 22.451083-27.835588l-24.080941 12.305002c-3.86558 1.97119-10.734877 8.601555-13.132732 12.287936l-17.885773 27.460124-25.574267 40.908587-8.627155 13.397263c-3.310916 5.13704-6.783965 9.975415-10.564212 15.052722l-12.211136 16.366848c-1.092261 1.459192-5.555171 4.053312-6.647432 4.428777l-1.518926-36.701676-1.16906-22.502282c3.379182-3.370649 7.970092-8.22609 10.811677-12.740201l33.655291-53.563454c9.941282-15.820718 19.831363-30.165176 31.547569-44.714434 5.145573-6.391433 10.077814-14.472458 14.03726-21.759886l19.344966-35.652081c2.730652-5.026107 5.751437-10.018081 8.874621-14.608991l26.888393-39.577394 16.674046-24.516139c6.451166-9.480484 17.151911-8.063958 15.940184-12.603668l-1.681058-6.348766c-0.69973-2.636786-9.65115-3.583981-11.861271-1.527459-4.48851 4.164245-10.521545 11.306608-14.344459 16.571647l-30.805173 42.436045c-5.290639 7.295962-10.777544 15.172188-15.300187 22.997214l-13.738595 23.773743c-11.101809 19.216967-22.647349 37.273406-34.773152 55.816243l-13.055932 19.976429-15.155121 23.184946-25.480401 37.887802c-0.844796 1.254393-3.208517 3.643714-3.729047 4.104512l-3.131717-25.830265-1.723725-16.528981 0.622931-14.378591 16.469247-23.355612 23.63721-33.689425 44.654701-66.670586 34.124622-51.506932 28.211053-40.806187 8.038359-11.101809 16.494847-23.398278c5.768503-8.174891 10.018081-15.607385 15.240454-24.499072-6.109835-2.978118-29.900644 27.690522-33.416359 32.358231l-30.480908 40.516056-29.149715 42.180047-19.780164 27.809988-43.656306 65.27966-20.923624 31.521969-8.703955 12.501269c-1.117861 1.604258-4.556776 4.454377-5.862369 5.350372l-3.643715-19.234033-3.822913-22.766815 0.64853-14.020194c-0.136533-1.237327 0.657063-5.990369 1.706658-7.389828l10.308213-13.695929 14.668723-21.179623L607.433636 432.64308l35.046218-45.926161 39.995525-50.158672c5.239439-6.570632 10.666611-13.371664 16.136449-19.413232l22.434017-24.755071 21.572154-23.807876 13.772728-14.924722 33.28836-33.527293c2.892785-2.918385 5.145573-7.227696 5.350372-10.666611 13.832461-7.509294 35.28515-21.683087 52.300528-17.186043zM660.783758 567.008247c13.397264 0.827729 23.620144-13.175398 32.315565-22.613216 13.235131-14.361525 18.850035-24.88307 27.050526-42.564045l-0.750929-6.911964-14.617524 18.474571c-3.421849 4.326377-8.183424 9.335418-12.296469 13.354597l-19.490032 19.029234c-0.67413 0.665597-20.343361 20.735892-12.211137 21.239356z" fill="#F1972D" /><path d="M847.347053 192.268865c-17.023911-4.497043-38.4766 9.67675-52.300527 17.186044-38.834998 21.085757-63.069538 38.834998-97.339227 68.564976-4.130112 3.583981-8.823421 7.466628-12.603667 11.187142l-29.926244 29.542246c-9.105019 8.985553-17.808974 18.218572-26.35933 27.775856l-18.235638 20.386027-15.010055 18.056439-11.929538 14.259126-11.946605 14.370058-8.209023 10.427679-16.016984 20.531093 10.32528 46.719757c3.430382 15.513519 0.034133 20.010562 4.266644 21.879353l3.822914 22.766814 3.643714 19.234034 1.450659 10.393545c2.133322 15.257521-1.527459 18.969501 3.029318 21.503888l1.723724 16.528981 3.131717 25.830265 0.836262 13.602063c0.170666 2.756252 1.24586 5.70877 1.32266 7.270362l1.169061 22.502283 1.518925 36.701675 0.196266 26.419063-0.119466 24.089474c-0.059733 11.622339-0.341332 24.098008-1.629858 36.411544l-4.556777 43.502707c-0.767996 7.347162-2.167455 15.197788-3.455982 21.776953l-5.102906 26.035064c-8.396756 15.248987-8.345557 24.627072-17.843107 43.69044l-10.094881 20.266561 2.116255 3.06345-5.981835 5.939169c-5.145573 5.102907-9.59995 11.110342-14.506591 16.955645-24.678271 29.431313-57.173036 44.552301-95.931234 45.712829l-21.751353 0.64853-2.295455-2.355188 30.472375-0.605863c103.73066-61.303147 100.684276-299.774439 90.051797-403.633098-3.76318-36.804075-7.807959-71.969758-15.138054-107.749839l-11.707673-57.155969c-10.734877-52.41146-24.729471-102.800531-43.263774-153.112802l-11.818605-32.0681c-11.067676-30.028644-23.560411-58.572495-38.220601-87.031013l-26.547062-51.558132c-10.188747-19.788697-44.620568-71.235896-60.407152-86.860347l-9.907148-9.804749c-4.531176-4.48851-11.903938-8.183424-17.30551-10.231414-8.098091-7.099696-19.618031-11.170075-30.702774-10.632478-1.928523 0.093866-5.401572 0.59733-7.517827 0.887462 22.143885-16.042583 46.898956-15.965784 71.270029-0.674129 8.917287 5.589304 17.749241 11.374874 25.369467 18.047906 33.851557 29.653179 61.653012 69.69137 83.85663 108.748233 48.085083 84.573426 74.265213 160.613563 103.18453 253.780012 54.664249-64.810329 106.92211-117.528988 173.831628-165.400739l35.925146-21.333222c18.261238-10.84581 38.988597-18.389238 59.861021-22.36575 17.049511-3.251183 31.206237 1.126394 43.289375 9.378084z" fill="#CE6418" /><path d="M258.268522 11.209542c-0.375465 0.72533-3.942379 4.266644-4.155712 5.845303l-1.723725 12.851133c-1.715191 5.11144-3.046384 9.437818-4.241044 14.361525l-2.687986 11.084742c-0.67413 20.821225-12.962066 7.313029-7.697027 28.17692-6.613299 10.92261-12.8426 23.082546-16.989778 35.788614l-7.65436 23.449477c-1.211727 3.711981-5.222373 10.359413-6.024502 14.148193l-3.993579 18.858569c-0.989862 4.667709-1.467726 9.113553-2.355188 14.08846l-2.850118 15.95725-4.027713 22.690015-1.570125 22.348684-4.710375 14.216459c-8.149291 24.584405-6.690098 11.007943-10.27408 26.197197-0.964262 4.095979-1.834657 8.174891-2.508787 12.450068l-4.189845 26.538529c-0.767996 4.838375-1.484792 11.912471-1.621325 16.55458l-0.767996 26.154531-4.590909 6.775431-2.082123 22.775348c-0.486397 5.341839 0.785063 10.84581 3.19145 15.726852-6.997297 27.408924 7.842092 20.727359-3.387715 38.630198l1.604258 8.831954-4.753042 6.758365 6.707165 8.35409 0.631463 40.797654c0.0256 1.407993-3.345049 5.870903-2.41492 6.655966l4.607976 3.891179c0.0256 6.519433-0.093866 13.917794 0.460797 21.401489l1.757858 23.628677c3.336516 44.927766 25.326801 134.834498 43.912304 176.374548l8.925821 19.950829c4.659176 10.410612 12.919399 32.417964 22.510816 35.814214 4.556776-10.478879 2.406387-14.651657-1.023995-26.453196-5.913569-20.334827-11.042076-39.713926-15.001522-60.697284-3.157317-16.750846-3.899713-32.810496-7.039963-49.834407 0.57173-1.97119 3.959446-7.406895 3.771714-9.881548l-1.049595-14.028727-1.331193-17.006845c-0.247465-3.208517 1.186127-7.842092 3.694914-9.292752 3.199983 9.412218 9.565817 33.996623 17.621242 39.82486 3.037851 17.561509 7.227696 10.018081 8.994086 23.850542l2.414921 18.875635c1.390926 1.288527 6.638899 5.256506 7.586094 7.227696l7.773826 16.162049 8.388223 1.058128 0.733863 19.114567c0.742396 19.447365 4.46291 38.280334 11.36634 56.601305l13.456997 35.720347c4.582376 12.159937 16.281515 43.775772 10.470345 54.894648 1.97119 2.175989 7.423961 6.920497 10.871411 9.395151 2.193055 1.570125 9.966881-4.241045 9.378084-7.142363-2.781852-13.704462-5.939169-26.760394-10.129014-39.492061l-7.236229-22.007352c-14.16526-43.050442-19.626564-49.84294-21.759887-97.654958-0.62293-13.98606 1.621325-39.74806 1.092261-42.529912 8.319957 3.81438 3.677848 5.350372 11.357808 23.71401 0.981328 2.338121 7.833559 6.050102 9.702349 4.428777 3.276783-2.841585 8.823421-10.555678 9.497551-14.78819l5.094373-31.974233c-0.503464-5.247973-0.57173-9.67675-0.221865-14.498058l1.860257-25.471867 3.677847-13.004733c0.657063 2.090656 1.407993 5.802636 1.868791 9.429285l7.338628 57.292501 4.326378 37.990202 8.055424 66.542587c4.377577 36.138478 13.038865 71.03963 27.451591 104.089058l12.885266 29.542246c6.835164 15.675652 13.747128 41.66805 4.701842 59.639156-4.078912 8.115158-21.981752 26.862793-29.516646 25.122003-53.324522-15.991383-99.26775-74.691878-126.514541-122.947627-55.022647-97.458692-86.561682-228.683609-98.849619-340.017429-8.968487-81.245444-10.043681-129.048928-6.007435-209.970106 4.061846-81.441709 21.444155-186.81076 55.295712-261.16984 7.500761-16.469248 16.750846-31.564636 27.255325-46.412558 6.297567-8.90022 15.069788-15.632985 23.125212-21.478288 2.116256-0.290132 5.589304-0.793596 7.517828-0.887462z" fill="#F39B30" /><path d="M402.762702 1021.644812c-2.312521 0.042666-26.538528-4.753042-26.316663-7.55196 7.534894 1.732258 25.429201-17.015378 29.516647-25.122003 9.045286-17.971106 2.133322-43.963504-4.701843-59.639156l10.009548 2.670919c2.713586 0.72533 5.418638-8.055425 4.155712-10.828743-17.100711-37.623271-29.072915-75.016143-34.858485-115.668731l-4.104512-28.85105-1.553059-14.549257c2.858652-1.399459 6.852231-0.895995 10.478879 1.092261 15.948717 8.763688-2.090656 7.167963 17.168977 13.943394l13.943394 4.915174 1.587192 14.13966c2.61972 0.921595 8.507689-0.298665 10.649545-2.628253l5.990368 16.162049c6.178101 16.648447 10.419146 24.447873 24.610006 34.116089 5.717304 3.899713 17.271377 0.426664 20.624959-6.340234 5.21384-10.530078 7.935959-22.178018 9.693816-33.766224 7.935959-52.257861 10.79461-109.533296 7.048497-162.166622-4.002112-56.242907-20.582293-136.421689-35.703281-191.333403l-9.139152-33.177428-16.81058-53.196522-3.643714-12.723134c5.435705 0.827729-11.852738-55.500511-13.815395-61.763945-12.364736-39.389662-24.951337-77.157998-42.333646-114.363138l-19.652164-42.086181-13.909261-28.842516c-5.973302-12.390335-27.408924-46.600291-36.036079-56.985303l-14.173793-17.040978c-1.467726-1.766391-2.670919-6.050102-2.500253-8.217557 5.401572 2.039456 12.774333 5.742903 17.305509 10.231413l9.907149 9.804749c15.786584 15.624452 50.209872 67.071651 60.407152 86.860347l26.547062 51.558132c14.651657 28.458518 27.152925 57.00237 38.220601 87.031013l11.818605 32.0681c18.534303 50.312271 32.528897 100.701342 43.263774 153.112803l11.707673 57.155968c7.330095 35.78008 11.374874 70.945764 15.138054 107.749839 10.632478 103.867192 13.678862 342.32995-90.051798 403.633098l-30.472374 0.605864z" fill="#EB8924" /><path d="M611.794147 842.957743c0.204799-0.486397 0.127999-1.484792 0.145066-2.193055 2.440521-1.757858 5.657571-4.718909 7.372761-7.18503l13.51673-19.387632 14.574857-20.915091c19.208433-27.562523 36.223811-55.406645 53.384256-84.291828l34.45742-57.983698c9.881549-16.63138 18.133239-34.414754 26.180131-53.350122l14.190859-33.365159 4.087445-9.941282 9.070886-22.203618 5.845303-15.342853 9.326885-25.727866 12.697534-35.012084c0.947195-2.602653 1.851724-7.551961 2.210122-9.830349l11.861271-30.702774 4.445844-11.51994 5.196773-7.304495 6.860764-1.032528c-1.407993 10.803144-2.141856 18.850035-3.874113 27.852655-9.958348 51.711731-16.341248 63.820468-33.715024 111.077822L800.055566 560.642413l-5.879436 15.735385-14.242059 35.626481-8.20049 19.660698c-7.398361 17.723641-14.933256 34.790219-24.140675 51.71173l-8.422356 15.48792-15.709785 27.007859-7.884759 13.559396-12.04047 19.063368-16.042583 24.994003c-5.649037 8.797821-12.7146 16.870312-19.1999 25.139069l-13.823928 17.612708-10.692211 13.619129c-3.925313 5.000507-12.031937 15.564719-20.343361 8.712488-1.467726-1.203194-4.497043-3.993579-5.614904-3.24265l-4.872508 3.251183c-0.887462 0.59733-4.56531 1.450659-4.070379 1.169061l2.918385-6.818098z" fill="#F5A743" /><path d="M562.062139 513.171727c-4.232511-1.86879-0.844796-6.374367-4.266644-21.879352l-10.32528-46.719757 16.016984-20.531093 8.209023-10.427679 11.946605-14.370059 11.929538-14.259125 15.010055-18.05644 18.235638-20.386027c8.550355-9.557284 17.25431-18.790302 26.35933-27.775855l29.926244-29.542246c3.771714-3.720514 8.473556-7.60316 12.603667-11.187142 34.269688-29.738512 58.504229-47.479219 97.339227-68.564976-0.204799 3.438915-2.449054 7.748226-5.350372 10.666611l-33.28836 33.527292-13.772729 14.924722-21.572154 23.807876-22.434016 24.755071c-5.478371 6.041569-10.89701 12.8426-16.13645 19.413232l-39.995525 50.158672-35.046217 45.926161-18.047906 24.260141-14.668724 21.179623-10.308213 13.695928c-1.058128 1.399459-1.84319 6.152501-1.706657 7.389828l-0.64853 14.020194z" fill="#E5801F" /><path d="M735.245237 650.992876l-34.45742 57.983698c-17.160444 28.885183-34.175822 56.729305-53.384256 84.291828l-14.574857 20.915091-13.51673 19.387632c-2.431987 1.988256-5.265039 4.761575-7.372761 7.185029-0.017067 0.708263 0.059733 1.715191-0.145066 2.193056-2.406387 2.030923-5.256506 5.410105-8.132224 8.695421l-25.531601 29.260648c-1.86879 2.141856-6.835164 5.461305-9.087952 6.801031l5.102906-26.035065c5.981836-5.094373 11.827138-11.084742 17.271377-17.791907l11.656473-14.387125 22.382816-30.14811 14.003127-19.532698 24.217474-34.781685c2.850118-4.095979 5.358905-10.24848 7.18503-14.694324l-18.491637 4.002113c-2.295455 0.494931-8.593022-5.341839-7.611694-7.475161l16.494847-35.916613c3.438915-7.492228 6.792498-14.506591 9.762083-21.74282l11.161542-27.221192 11.656472-27.656389 22.894814-56.225841c2.687986-6.604766 3.413316-13.047399 12.509802-19.660697 1.169061-0.853329 4.642109 4.223978 3.967979 5.845303l-12.134337 29.277714-7.671426 19.396165-32.545964 74.444413c-6.067168 13.875128-12.458602 26.299596-19.87403 40.080858-1.237327 2.295455-2.201589 9.847415 0.836262 10.376479 6.818098 1.203194 16.938578-4.633576 21.546555-10.009548l25.275602-29.439847 26.709194-32.742229-0.0768 5.316239z" fill="#E07F1C" /><path d="M581.03164 650.293146c-0.0768-1.553059-1.151994-4.505577-1.322659-7.270362l-0.836263-13.602062c0.529064-0.460798 2.892785-2.850118 3.729048-4.104512l25.4804-37.887803 15.155121-23.184946 13.055932-19.976429c12.125804-18.542837 23.671343-36.599276 34.773153-55.816243l13.738595-23.773743c4.522643-7.825026 10.009548-15.709785 15.300187-22.997213l30.805173-42.436046c3.822913-5.265039 9.855949-12.407402 14.344458-16.571647 2.210122-2.056523 11.161542-1.100794 11.861272 1.527459l1.681058 6.348767c1.203194 4.548243-9.497551 3.123184-15.940184 12.603668L726.182884 427.668173l-26.888393 39.577393c-3.11465 4.582376-6.143968 9.57435-8.87462 14.608991l-19.344966 35.652081c-3.959446 7.287429-8.883154 15.368453-14.03726 21.759887-11.707672 14.549258-21.606287 28.893716-31.547569 44.714433l-33.655292 53.563455c-2.841585 4.522643-7.432495 9.369551-10.811677 12.7402z" fill="#E07D1A" /><path d="M574.008744 587.061476c-4.56531-2.534387-0.904529-6.237834-3.029318-21.503888l-1.450659-10.393546c1.305593-0.887462 4.744509-3.737581 5.86237-5.350372l8.703954-12.501269 20.923625-31.521969 43.656305-65.27966 19.780164-27.809988 29.149715-42.180047 30.480908-40.516056c3.515715-4.667709 27.306524-35.336349 33.416359-32.358231-5.222373 8.891687-9.480484 16.324182-15.240454 24.499072l-16.494847 23.398278-8.038358 11.101809-28.211053 40.806188-34.124623 51.506931-44.6547 66.670586-23.637211 33.689425-16.469247 23.355612-0.62293 14.378591z" fill="#E07C19" /><path d="M835.17005 404.005362l-4.445843 11.51994-11.861272 30.702774c-1.237327 0.366931-5.742903 3.848513-6.579166 5.768503l-7.987158 18.346571c-3.199983 7.355695-5.358905 15.564719-8.191957 23.415345-11.562606 32.008367-28.12572 61.209281-47.521886 88.99367l-12.979133 18.585503c-4.104512 5.887969-8.490622 10.641011-13.550862 15.317254 1.288527-5.452772 2.525854-10.069281 4.070378-13.072999l12.228203-23.748143 30.557708-55.00558c7.953025-14.318859 14.864989-28.543851 21.000424-43.570973l21.09429-51.651998 17.450576-46.199226c4.215445-11.153009 7.432495-31.146504 14.327392-39.74806-0.127999 8.772221-0.793596 16.196182-2.397854 24.567339l-2.764786 14.489525c-1.416526 7.432495-2.150389 14.63459-2.440521 21.307622z" fill="#E5861E" /><path d="M583.787893 759.997108l0.119466-24.089474-0.196266-26.419063c1.092261-0.375465 5.555171-2.961051 6.647432-4.428777l12.211137-16.366848c3.780247-5.068774 7.261829-9.907148 10.564211-15.052721l8.627155-13.397264 25.574267-40.908587 17.885774-27.460123c2.397854-3.686381 9.267152-10.316746 13.132731-12.287936l24.080941-12.305003c-0.972795 7.287429-19.353499 23.68841-22.451083 27.835588-11.178608 14.992989-20.57376 29.857978-30.301708 45.516563l-29.235048 47.086688c-10.905543 17.570042-22.570549 33.825957-34.61102 50.576804l0.119466 19.69483-2.175989 1.99679z" fill="#DC791B" /><path d="M660.783758 567.008247c-8.132224-0.503464 11.528473-20.57376 12.211137-21.239356l19.490032-19.029234c4.113045-4.010646 8.87462-9.02822 12.296469-13.354598l14.617524-18.47457 0.750929 6.911964c-8.200491 17.672441-13.806861 28.20252-27.050526 42.564045-8.695421 9.437818-18.918301 23.432411-32.315565 22.613216z" fill="#E4821D" /><path d="M288.971295 21.84202c-0.179199 2.167455 1.023995 6.451166 2.500254 8.217557l14.173792 17.040978c8.635688 10.376479 30.062777 44.594968 36.036079 56.985303l13.909261 28.842516 19.652165 42.086181c17.373776 37.20514 29.960377 74.973476 42.333646 114.363138 1.962656 6.254901 19.2511 62.591674 13.815395 61.763945l-6.126902-10.692211c-1.262927-2.201589-2.858652-4.428777-5.444238-8.174891l2.679452 16.477781 2.124789 12.023404c-2.150389 5.418638-6.024502 10.538612-10.74341 15.760985l5.717303 9.966881c-6.894897 0.281599-16.520447-4.838375-15.23192-10.521545l4.044779-17.774841-7.953026-2.193055c-15.001522-4.130112 0.614397-1.32266-9.591416-20.855358l-10.606879-20.292161c-2.133322-4.078912-4.275178-7.543427-7.833559-8.550356-1.254393-5.401572-3.566915-12.270869-5.478371-18.542836l-11.093276-36.496877c-6.826631-22.476683-17.783374-65.646591-32.332631-79.34252l3.08905 15.590319 5.981836 30.173709c0.631463 3.19145 0.989862 8.866087 1.228793 11.605273 8.712488 15.607385 4.957841 13.644729 14.096994 34.175822 6.655965 14.958855 8.746621 30.421175 12.689 45.149632-5.273573 12.407402 5.333306 17.919907-2.901318 23.278812l-5.521038 3.592514c-2.380788 1.544525 1.774924 8.772221 2.756252 10.239947 0.639997 0.964262-2.926918 2.508787-4.241044 3.182917l-9.787683 5.043173-2.645319 42.470179c-0.691196 11.101809-3.123184 24.635605-0.844796 35.558215l6.041569 28.927849-12.680468 12.262336c0.67413 0.102399-2.64532-0.409598-3.83998-0.588796-1.646925-4.360511-3.379182-9.59995-7.714093-13.474064-3.81438-3.404782-10.359413 0.981328-12.177003 4.650643-2.389321 4.829842-4.300778 7.67996-7.099696 11.067676-2.713586-6.809565-4.787175-12.518335-5.128507-18.431904l-3.532781-62.21621c-1.544525-27.280925-2.039456-53.452522-4.991974-80.673713l-2.039457-18.832968-2.952517-26.470263-9.062353-109.106631c-0.443731-5.316239-5.751437-37.017407-8.311424-18.662303l-2.935451 21.060157c-2.201589 15.829251-0.930128 58.27383 0.682663 74.418812l4.898108 48.946945 2.107722 18.073506 3.703448 24.797738c6.724232 45.064299-3.532782 48.72508 1.681058 92.415518l4.155711 34.815819c1.672525 14.028727 7.517828 53.315989 16.528981 62.463675 0.520531 0.520531 2.969585-2.559987 3.131717-3.404783l4.804241-25.378001c0.972795-5.128507 3.507182-9.591417 7.654361-14.58339 3.660781 3.831447 8.038358 10.043681 8.345556 13.627662l4.41171 51.293599c0.827729 9.634083 4.360511 19.959363 6.212235 28.586518l8.405289 39.193396c1.109328 5.154106 1.314126 12.748734 1.587192 17.655375l-3.677847 13.004732-1.860257 25.471867c-0.349865 4.821308-0.290132 9.250085 0.221865 14.498058l-5.094373 31.974234c-0.67413 4.232511-6.220768 11.946604-9.497551 14.788189-1.877324 1.629858-8.729555-2.082122-9.702349-4.428777-7.67996-18.372171-3.046384-19.89963-11.357808-23.714009l-6.886364-35.822747-13.235131-69.734037c-4.113045-21.683087-4.957841-42.478712-20.181228-57.923965-1.237327-1.254393-8.27729-1.800524-9.10502-0.213332l-4.804241 9.147685c-6.4853 12.356202-11.665006 9.480484-15.163655 13.098599l-9.608483 9.941281c-1.86879 1.937057-3.464515 9.00262-2.662386 11.613807l2.457587 8.055424c-2.747719 11.212742-2.841585 30.540641 8.183424 35.669148 0.0768 0.537597 0 1.604258-0.0256 2.269855-2.500254 1.450659-3.942379 6.084235-3.694914 9.292751l1.331193 17.006845 1.049595 14.028727c0.187732 2.483187-3.199983 7.910359-3.771714 9.881549l-5.981835-32.435031-11.229808-84.240628-1.97119-21.410022-3.19145-43.56244c-1.570125-21.418555-4.070379-42.555512-11.289541-63.009805-7.321562-20.735892-7.449561-14.148193-5.589305-38.485133l2.090656-27.383324 2.030923-26.95666c0.844796-11.195675 1.27146-21.904953 1.527459-33.28836l0.238932-10.82021c-4.044779-8.627155-9.139152 36.061679-9.395151 38.655799l-2.457588 24.362539-0.861862 9.454885-2.295454 39.04833-2.457588 41.429117-1.425059 24.277207-1.826124 10.538612-0.426664 53.640254-4.607976-3.89118c-0.921595-0.776529 2.440521-5.239439 2.414921-6.655965l-0.631464-40.797655-6.707165-8.354089 4.753042-6.758365-1.604258-8.831954c11.238341-17.894307-3.609581-11.212742 3.387715-38.630199-2.406387-4.881041-3.677848-10.385013-3.19145-15.726851l2.082123-22.775348 4.590909-6.775432 0.767996-26.15453c0.136533-4.642109 0.853329-11.716206 1.621325-16.554581l4.189845-26.538528c0.67413-4.275178 1.544525-8.35409 2.508787-12.450069 3.575448-15.197788 2.124789-1.621325 10.27408-26.197197l4.710375-14.216459 1.570125-22.348683 4.027713-22.690016 2.850118-15.95725c0.887462-4.974907 1.365326-9.420751 2.355188-14.08846l3.993579-18.858568c0.802129-3.78878 4.812775-10.436212 6.024502-14.148193l7.65436-23.449478c4.147178-12.706067 10.376479-24.866004 16.989778-35.788614-5.265039-20.863891 7.022897-7.364228 7.697027-28.17692l2.687986-11.084742c1.19466-4.915174 2.525854-9.250085 4.241045-14.361525l1.723724-12.851133c0.213332-1.578658 3.780247-5.119973 4.155712-5.845303 11.084742-0.54613 22.604682 3.524248 30.702773 10.632478z m-62.933006 487.737193c16.119383-47.009888 5.128507-57.505834 3.071984-96.323765-0.59733-11.332208-0.776529-22.476683-0.59733-33.245694l0.494931-30.907572 0.486397-31.300104c0.307198-19.916696 1.32266-39.142196 4.326378-58.913826l4.744508-31.240371 2.781853-16.674046c0.383998-2.303988-1.134927-6.698632-3.012251-7.441028-1.877324-0.750929-7.278895 2.875718-7.688494 5.171173l-7.022896 39.679793-4.932241 36.727275c-3.524248 26.214263 0.878929 51.583731-3.31945 78.053994-0.853329 5.367439-2.338121 11.938071-1.911456 16.511914l2.653852 28.859583 4.684776 35.199817c4.906641 36.846741-4.718909 36.821142 1.34826 67.77138 0.469331 0.307198 1.279993-0.162132 3.899713-1.928523z" fill="#F49E34" /><path d="M431.40042 351.133105l3.643714 12.723133 16.810579 53.196523 9.139153 33.177427c15.120988 54.911714 31.709702 135.090496 35.70328 191.333404 3.746114 52.633326 0.887462 109.908761-7.048496 162.166622-1.757858 11.588206-4.479977 23.236146-9.693816 33.766224-3.353583 6.766898-14.907656 10.239947-20.62496 6.340234-14.190859-9.668216-18.431904-17.467642-24.610005-34.116089l-5.990369-16.162049-1.902923-12.185537c-0.221866-1.442126-1.698124-4.403177-2.184522-4.949308-0.059733-1.083728-0.204799-3.26825-0.477864-4.317844l-7.304495-28.79985-0.059733-2.082122-0.068267-3.618115c-0.017067-0.853329-0.802129-1.092261-1.79199-1.553058l-6.758365-49.365076c-2.329588-16.998311-17.894307-104.259724-31.334237-111.786085-20.130028 8.473556-16.947112 63.146338-15.018589 80.485981l10.291147 92.372852c0.238932 2.158922 1.22026 6.126901 1.84319 7.483694l0.947195 6.843698 1.553059 14.549258 4.104512 28.851049c5.794103 40.661122 17.757774 78.053993 34.858485 115.668731 1.262927 2.773319-1.442126 11.554073-4.155712 10.828744l-10.009548-2.67092-12.885266-29.542246c-14.412725-33.049428-23.074013-67.950579-27.45159-104.089058l-8.055425-66.542586-4.326377-37.990202-7.338629-57.292502c-0.460798-3.618114-1.22026-7.338628-1.86879-9.429284-0.273065-4.898108-0.477864-12.501268-1.587192-17.655375l-8.405289-39.193396c1.612792-2.577053 3.976513-7.987158 5.469838-11.750339 0.657063-1.527459 4.283711-2.184522 6.297567-2.227188l0.520531 4.497043 1.629858 2.372255c0.981328 7.509294 2.943985 13.900728 7.73116 22.382816L366.931422 551.187529c0.870395-1.723724 5.973302-6.092768 7.825026-5.563704 8.593022 2.457587 16.392448 19.310833 19.1999 27.255325l18.926835 53.691453c7.662893 21.734287 7.423961-24.592939 4.010646-41.975248l-7.466628-38.007268-12.7658-62.062611-7.70556-40.405122-8.985553-45.789629-4.770109-24.123607c-0.392531-1.99679-0.486397-6.732765-0.537597-8.40529l9.531684-4.428777c9.642616 27.699056 23.381212 80.61398 28.475585 111.33382l16.127916 97.219761c3.694914 22.271884 4.573843 44.168303 4.710375 66.644986 0.213332 34.081956-13.849528 27.033459-2.252788 90.068864l10.367946 56.32824c2.406387 13.098598 7.637294 35.489948 21.435622 42.461646 11.801539-7.995692 14.173793-44.466968 14.958855-58.27383l2.602653-46.13096c2.175989-38.638732-1.015461-100.428277-8.268757-139.195008l-12.433002-66.363388-25.821732-118.843114c-2.798919-12.885266-5.657571-24.746538-9.454884-35.848347l-2.124789-12.023404-2.679453-16.477781c2.585587 3.746114 4.181312 5.973302 5.444239 8.174891l6.126901 10.692211z" fill="#DE7518" /><path d="M222.240976 672.343165c3.14025 17.023911 3.874113 33.083561 7.039963 49.834407 3.959446 20.983357 9.087953 40.362456 15.001522 60.697284 3.430382 11.801539 5.589304 15.974317 1.023995 26.453195-9.591417-3.387716-17.85164-25.403601-22.510816-35.814213l-8.925821-19.950829c-18.594036-41.54005-40.575789-131.438249-43.912304-176.374549l-1.757858-23.628676c-0.554664-7.483694-0.435198-14.882056-0.460797-21.401489l0.426664-53.640254 1.826124-10.538612 1.425059-24.277207 2.457587-41.429117 2.295455-39.04833 0.861862-9.454884 2.457587-24.36254c0.264532-2.602653 5.358905-47.282954 9.395152-38.655799l-0.238933 10.820211c-0.255999 11.383407-0.682663 22.092685-1.527458 33.28836L185.087036 361.816782l-2.090656 27.383324c-1.860257 24.33694-1.732258 17.749241 5.589304 38.485133 7.227696 20.454293 9.719416 41.59125 11.289542 63.009805l3.19145 43.56244 1.971189 21.410022 11.229809 84.240628 5.981835 32.435031z" fill="#FAB151" /><path d="M298.357913 696.023042c0.537597 2.773319-1.715191 28.543851-1.092261 42.529911 2.133322 47.812018 7.594627 54.595982 21.759886 97.654958l7.236229 22.007352c4.189845 12.723134 7.347162 25.779066 10.129014 39.492061 0.588797 2.901318-7.185029 8.721021-9.378084 7.142363-3.447449-2.474654-8.90022-7.219162-10.87141-9.395151 5.81117-11.118875-5.887969-42.734711-10.470346-54.894647l-13.456996-35.720348c-6.903431-18.312438-10.623945-37.15394-11.366341-56.601305l-0.733863-19.114567-0.716796-33.057961c-0.042666-1.988256-1.126394-6.169568-1.809057-7.321562l-0.537598-9.173285c-0.119466-2.005323-1.19466-6.229301-1.860257-7.458095L265.709549 612.695476l-2.995184-18.969502-5.265039-33.595558c-0.409598-2.611186-2.670919-7.227696-4.130112-9.105019-1.501859-1.937057-3.950913-2.986651-8.055425-3.993579l-1.126394-5.555172 4.804242-9.147685c0.836262-1.587192 7.876226-1.041061 9.105019 0.213332 15.231921 15.43672 16.068183 36.240878 20.181228 57.923965l13.235131 69.734037 6.886364 35.822747z" fill="#E4811D" /><path d="M253.319214 551.03393c1.459192 1.877324 3.720514 6.493833 4.130112 9.105019l5.265039 33.595559 2.995184 18.969501 9.480484 59.41729c0.349865 2.193055 1.29706 6.126901 1.860257 7.458095l0.537598 9.173285c0.127999 2.201589 1.049595 6.212234 1.809057 7.321562l0.716796 33.057961-8.388223-1.058127-7.773826-16.16205c-0.947195-1.97119-6.203701-5.939169-7.586094-7.227695l-2.414921-18.875635c-1.766391-13.832461-5.956236-6.289034-8.994086-23.850543 0.017067-0.938662 0.264532-4.590909 0.153599-6.246367l-3.908246-59.536757 1.160527-11.861271 2.124789-21.776954c0.54613-5.555171 3.720514-11.306608 8.849021-11.502873z" fill="#F49E34" /><path d="M241.19341 596.175028l3.908247 59.536757c0.110933 1.655458-0.136533 5.316239-0.153599 6.246367-8.063958-5.828236-14.429792-30.412642-17.621242-39.824859 0.017067-0.665597 0.102399-1.723724 0.0256-2.269855l-3.532782-25.634c-1.151994-8.337023-0.332798-15.453786 1.851724-24.174807l9.267152 16.418048c0.59733 1.066661 2.269855 3.524248 3.327982 5.16264l2.926918 4.548243z" fill="#E88B23" /><path d="M414.939706 736.0527c0.204799 1.484792 1.425059 4.56531 1.860257 5.171173l0.059733 2.082122c-10.999409 5.751437 1.203194 28.484118 7.304495 28.79985 0.264532 1.049595 0.418131 3.234116 0.477864 4.317844l0.187732 3.566915c0.042666 0.733863 0.793596 0.844796 1.99679 1.382393l1.902923 12.185537c-2.141856 2.321055-8.038358 3.549848-10.649544 2.628253l-1.587192-14.13966-13.943394-4.915175c-19.2511-6.783965-1.22026-5.18824-17.168977-13.943394-3.626648-1.988256-7.620227-2.500254-10.478879-1.092261l-0.947195-6.843697c-0.307198-2.227188-1.24586-6.135435-1.84319-7.483695l-10.291147-92.372852c-1.928523-17.339643-5.11144-72.012425 15.018589-80.485981 13.43993 7.526361 29.013182 94.77924 31.334236 111.786085l6.758365 49.365076z" fill="#F5922B" /><path d="M611.939213 840.764688c2.107722-2.423454 4.949308-5.196773 7.372761-7.18503-1.715191 2.46612-4.940774 5.418638-7.372761 7.18503z" fill="#F1972D" /><path d="M424.633522 360.775721c3.797314 11.101809 6.655965 22.971614 9.454884 35.848347l25.821732 118.843114 12.433002 66.363388c7.261829 38.766731 10.453279 100.556276 8.268757 139.195008l-2.602653 46.13096c-0.776529 13.806861-3.157317 50.278138-14.958856 58.27383-13.798328-6.963164-19.029234-29.363047-21.435621-42.461646l-10.367946-56.32824c-11.59674-63.035405 2.46612-55.995442 2.252788-90.068864-0.136533-22.476683-1.015461-44.381636-4.710376-66.644986l-16.127916-97.219761c-5.094373-30.71984-18.832969-83.634764-28.475585-111.33382-0.682663-4.846908-1.612792-11.332208-2.918384-16.972711l-8.831954-38.084069c3.558381 1.006928 5.700237 4.471443 7.833559 8.550356l10.606878 20.292161c10.205814 19.532698-5.410105 16.725246 9.591417 20.855358l7.953025 2.193055-4.044779 17.774841c-1.288527 5.674637 8.32849 10.803144 15.231921 10.521545l-5.717304-9.966881c4.727442-5.222373 8.601555-10.342346 10.743411-15.760985z" fill="#F19129" /><path d="M374.654049 365.801828c0.0512 1.672525 0.145066 6.4085 0.537597 8.40529l4.770108 24.123607 8.985554 45.789629 7.705559 40.405122 12.765801 62.062611 7.466627 38.007268c3.413316 17.382309 3.652248 63.709535-4.010645 41.975248l-18.926835-53.691453c-2.798919-7.944492-10.606878-24.797738-19.1999-27.255325-1.851724-0.529064-6.95463 3.83998-7.825026 5.563704l-15.940184 31.667035c-4.787175-8.473556-6.741298-14.873523-7.731159-22.382816l-1.629859-2.372255-0.52053-4.497043-4.403177-38.237668-1.587192-12.893799c-1.29706-10.564212-4.667709-20.633493-8.157824-29.875044 1.19466 0.179199 4.51411 0.691196 3.83998 0.588796l12.680467-12.262336-6.041568-28.927849c-2.278388-10.92261 0.153599-24.456406 0.844795-35.558215l2.64532-42.470179 9.787682-5.043173c1.314126-0.67413 4.881041-2.218655 4.241045-3.182917-0.981328-1.467726-5.128507-8.695421-2.756253-10.239947l5.521038-3.592514c8.234624-5.358905-2.372254-10.87141 2.901318-23.278812l5.956236 22.254817 8.081025 34.926751z" fill="#F3942B" /><path d="M326.961497 472.604472c3.490115 9.233019 6.860764 19.302299 8.157824 29.875044l1.587192 12.8938 4.403177 38.237667c-2.013856 0.042666-5.640504 0.69973-6.297567 2.227189-1.493326 3.76318-3.86558 9.173286-5.469838 11.750338-1.851724-8.627155-5.384505-18.952435-6.212235-28.586517l-4.41171-51.2936c-0.307198-3.575448-4.684776-9.796216-8.345557-13.627662-4.147178 4.991974-6.690098 9.463417-7.65436 14.583391l-4.804241 25.378001c-0.162132 0.844796-2.61972 3.933846-3.131717 3.404782-9.011153-9.147686-14.856456-48.434948-16.528981-62.463675l-4.155712-34.815818c-5.21384-43.690439 5.043174-47.35122-1.681058-92.415519l-3.703447-24.797738-2.107722-18.073505-4.898108-48.946945c-1.612792-16.144983-2.884252-58.589562-0.682663-74.418813l2.935451-21.060157c2.559987-18.363638 7.867692 13.346064 8.311424 18.662303l9.062352 109.106632 2.952518 26.470262 2.039456 18.832968c2.952518 27.221192 3.447449 53.401322 4.991974 80.673714l3.532782 62.216209c0.332798 5.913569 2.414921 11.622339 5.128507 18.431904 2.790385-3.387716 4.710375-6.237834 7.099696-11.067676 1.809057-3.669314 8.362623-8.055425 12.177003-4.650642 4.334911 3.874113 6.067168 9.113553 7.714093 13.474063z" fill="#E78621" /><path d="M226.038289 509.579213c-2.611186 1.774924-3.430382 2.244255-3.899713 1.928523-6.067168-30.941706 3.558381-30.924639-1.348259-67.77138l-4.684776-35.199817-2.653853-28.859583c-0.418131-4.573843 1.058128-11.144475 1.911457-16.511914 4.206911-26.470262-0.196266-51.83973 3.319449-78.053994l4.932241-36.727275 7.022897-39.679793c0.409598-2.295455 5.81117-5.922102 7.688493-5.171173 1.877324 0.742396 3.396249 5.145573 3.012251 7.441028l-2.781852 16.674046-4.744508 31.240371c-3.003718 19.77163-4.019179 38.99713-4.326378 58.913826l-0.486397 31.300104-0.494931 30.907572c-0.170666 10.769011 0 21.913486 0.59733 33.245694 2.047989 38.817931 13.047399 49.313876-3.071984 96.323765z" fill="#E48521" /><path d="M372.435394 306.316271l8.831954 38.084069c1.305593 5.640504 2.235722 12.125804 2.918384 16.972711l-9.531683 4.428777-8.081025-34.926751-5.956236-22.254818c-3.942379-14.728457-6.033035-30.190776-12.689-45.149631-9.139152-20.531093-5.384505-18.568437-14.096993-34.175822-0.238932-2.739186-0.59733-8.413823-1.228794-11.605273l-5.981835-30.17371-3.089051-15.590318c14.549258 13.704462 25.506 56.87437 32.332632 79.34252l11.093275 36.496876c1.902923 6.271967 4.223978 13.141265 5.478372 18.542837z" fill="#E6861F" /><path d="M253.319214 551.03393c-5.128507 0.196266-8.30289 5.947702-8.849021 11.502873L242.345404 584.313757l-1.160527 11.861271-2.926918-4.548243c-1.058128-1.638391-2.722119-4.095979-3.327983-5.16264l-9.267151-16.418047c-2.184522 8.712488-3.003718 15.837784-1.851724 24.174807l3.532782 25.634c-11.025009-5.128507-10.939676-24.456406-8.183424-35.669148l-2.457588-8.055424c-0.802129-2.611186 0.793596-9.67675 2.662386-11.613807l9.608484-9.941281c3.498648-3.618114 8.678355-0.750929 15.163654-13.098599l1.126394 5.555172c4.104512 1.006928 6.553566 2.056523 8.055425 3.993579z" fill="#F39B30" /><path d="M424.164191 772.105845c-6.101302-0.315732-18.303905-23.056947-7.304495-28.79985l7.304495 28.79985zM373.962852 755.244066c-0.614397-1.356793-1.595725-5.324772-1.84319-7.483694 0.59733 1.356793 1.527459 5.256506 1.84319 7.483694zM416.799963 741.223873c-0.435198-0.605864-1.655458-3.686381-1.860257-5.171173 0.989862 0.452264 1.774924 0.69973 1.79199 1.553058l0.068267 3.618115zM426.826577 781.372997c-1.203194-0.537597-1.962656-0.64853-1.99679-1.382393l-0.187732-3.566915c0.486397 0.54613 1.962656 3.507182 2.184522 4.949308z" fill="#EB8924" /><path d="M343.260079 560.480281l-1.629858-2.372254 1.629858 2.372254z" fill="#E78621" /><path d="M277.05029 679.570861c-0.554664-1.32266-1.510392-5.265039-1.860257-7.458095 0.657063 1.228794 1.740791 5.452772 1.860257 7.458095zM279.396945 696.065708c-0.750929-1.100794-1.681058-5.119973-1.809057-7.321562 0.682663 1.151994 1.766391 5.333306 1.809057 7.321562z" fill="#F39B30" /></svg>