<?xml version="1.0" standalone="no"?><!DOCTYPE svg PUBLIC "-//W3C//DTD SVG 1.1//EN" "http://www.w3.org/Graphics/SVG/1.1/DTD/svg11.dtd"><svg class="icon" width="256px" height="256.00px" viewBox="0 0 1024 1024" version="1.1" xmlns="http://www.w3.org/2000/svg"><path d="M450.005333 398.1312s-10.257067 47.812267-81.493333 90.683733c-71.236267 42.871467-107.229867 68.309333-132.420267 116.138667-25.1904 47.829333-55.330133 148.701867 53.8112 249.070933 97.314133 77.8496 212.9408 70.024533 257.783467 70.408534 44.842667 0.384 178.1504-33.518933 232.0896-121.0368 53.930667-87.517867 38.9376-182.417067-32.750933-250.786134-47.8976-43.562667-93.7984-58.461867-129.621334-91.460266-35.8144-32.9984-53.376-63.0272-53.879466-107.298134l-61.568 19.336534-37.4016-25.693867s-12.552533 49.2544-14.5408 50.6368z" fill="#B47991" /><path d="M552.1664 321.2288c1.698133-1.783467 13.397333-12.5696 15.214933-10.6496-0.674133 4.778667-1.015467 9.6256-1.544533 14.421333-1.7152 15.342933-3.473067 30.08-1.4592 45.627734 1.442133 11.153067 6.058667 25.472 10.615467 35.780266l1.834666 12.612267c15.163733 30.208 35.0464 59.0592 54.4768 86.263467-9.975467-7.202133-20.778667-17.245867-28.945066-26.589867-23.4752-26.88-38.493867-58.9824-44.074667-94.370133l-1.553067-22.024534c-2.653867-0.3584-1.476267 3.473067-1.518933 5.3248-0.085333 3.5328-0.034133 7.082667 0.034133 10.615467 2.517333 10.4448 3.720533 21.205333 6.4256 31.607467 3.976533 15.274667 11.264 33.28 19.413334 46.762666-2.141867 4.0448-7.611733-0.119467-9.668267 0.2048-2.978133 0.469333-6.638933 5.2224-9.591467 5.666134-1.4336 0.213333-4.411733-1.544533-7.406933-1.416534-3.293867 0.136533-6.306133 2.397867-9.873067 1.629867l-2.756266-7.202133c-0.597333-1.066667-0.042667-2.594133-0.290134-3.447467-4.616533-16.110933-8.849067-32.622933-9.1648-49.408l-3.012266-12.962133c-1.152 6.1696 1.032533 11.835733 1.5872 17.425066 0.290133 2.961067-0.4096 6.144-0.034134 9.1648 1.664 13.226667 5.307733 26.5728 9.096534 38.818134 3.626667 11.6992 7.5264 23.662933 12.177066 34.986666-1.570133 4.8384-6.391467 2.321067-9.6768 3.2512-4.130133 1.169067-8.994133 6.9632-11.562666 9.693867-6.519467 6.929067-8.7552 2.773333-15.982934 2.2016-4.181333-0.3328-8.7552 0.3584-13.0048 0.068267-2.321067-4.104533-9.796267-15.0016-10.4448-19.242667-0.256-1.664 1.783467-3.822933 1.408-5.845333 0.1536-1.4848-1.2032-3.345067-2.4832-3.712-10.461867-3.003733-12.629333 11.357867-17.160533 17.621333-0.520533 2.304-0.631467 4.471467 0.477867 6.656 0.7168 1.399467 13.098667 13.44 15.232 15.197867 1.7152 1.408 4.906667 3.5584 6.877866 4.539733v6.084267c-4.9152-1.826133-15.172267-6.468267-19.268266-7.364267-4.8128-1.0496-11.963733-0.443733-17.262934-1.757867 9.454933-22.161067 20.181333-45.218133 26.6752-68.411733 2.901333-10.3424 5.691733-21.239467 5.282134-31.982933l-2.688 8.721066c-3.652267 21.435733-10.9312 42.496-19.831467 62.318934-3.549867 7.901867-9.130667 15.9488-12.484267 23.2704-4.565333 0.878933-4.343467-1.1264-6.365866-3.524267-8.328533-9.890133-22.510933-13.1584-34.730667-16.247467 19.447467-20.471467 35.694933-45.2864 43.767467-72.6272 4.7872-16.213333 8.311467-36.096 7.978666-52.872533-0.034133-1.8432 1.134933-5.674667-1.518933-5.3248 0.256 18.133333-3.899733 36.036267-7.936 53.632-0.221867 0.7936-1.152 0.989867-1.194667 1.134933-8.917333-1.681067-13.892267 9.309867-3.0464 9.130667-3.84 10.282667-6.621867 16.2816-12.177066 25.856l-0.1024-2.909867c-5.435733-2.295467-9.591467-3.8912-15.744-3.336533l-0.896-1.3568c25.181867-30.976 36.2496-64.571733 31.931733-104.1664-0.315733-2.926933-4.036267-16.290133-3.012267-17.527467 3.8144 2.193067 8.9344 4.753067 12.168534 7.6032 1.954133 1.723733 4.266667 5.845333 6.784 7.671467l12.996266 21.230933c1.450667-11.118933 5.8112-21.4528 10.376534-31.530666 0.554667-1.220267 0.0256-2.8928 0.2816-3.456 0.0768-0.170667 1.8944-0.64 2.824533-2.449067 1.3312-2.5856 2.901333-5.213867 3.328-8.1408 8.285867-1.8688 9.898667 7.637333 15.1552 12.117333l12.936533 34.986667c4.309333-6.852267 6.161067-14.754133 10.129067-21.819733 2.875733-5.111467 7.901867-11.9552 11.938133-16.213334z" fill="#B47991" /><path d="M667.844267 893.184c-0.119467-3.285333-0.7936-5.333333 2.466133-7.424 5.76-3.694933 13.678933-4.9664 18.107733-10.8032l3.780267-12.194133c64.0512-63.061333 80.682667-160.324267 42.615467-241.8688l15.675733-6.391467c5.930667-4.957867 13.866667-6.7584 20.394667-10.0352 4.514133-2.269867 8.234667-5.486933 12.637866-7.901867 50.986667 82.525867 31.214933 184.669867-39.534933 248.746667-23.552 21.333333-47.4624 35.003733-76.1344 47.880533z" fill="#C26661" /><path d="M290.3808 584.388267c-17.877333 26.120533-29.1072 57.642667-31.931733 89.019733-0.401067 4.497067 0.6656 13.4656 1.774933 17.937067s4.0448 13.4912 10.359467 10.180266c-0.2048 2.048-1.390933 3.712-1.493334 5.341867-0.477867 7.697067 0.341333 14.5152 1.518934 22.033067 0.981333 0.2048 2.1248-0.162133 3.0208 0.008533-1.646933 1.066667-3.515733 3.720533-4.565334 4.565333-5.111467 4.096-10.2656 6.2208-16.8192 6.766934-2.781867 2.414933-2.261333 6.186667-3.2256 8.951466-1.902933 5.495467-19.6096 9.105067-24.098133 14.711467-25.5232-68.906667-13.038933-135.876267 33.4848-191.6672l15.291733 2.210133 16.6656 9.966934z" fill="#D09998" /><path d="M632.832 776.055467l6.8608 7.611733 6.8352-3.0464c2.833067 3.037867-6.186667 16.580267-8.430933 19.703467-3.464533 4.821333-12.535467 11.776-11.1872 18.807466 0.256 1.348267 1.800533 2.653867 2.193066 4.002134 1.092267 3.6864 1.774933 9.719467 3.652267 12.834133 1.7408 2.884267 5.794133 4.992 8.507733 11.52 3.1744 7.6288 5.026133 11.1872 9.147734 18.235733 1.0496 1.792 2.619733 3.575467 3.652266 5.4784l22.912-0.8448c-4.5568 4.386133-9.437867 9.582933-14.429866 13.7216-7.0144 5.819733-15.095467 10.564267-22.101334 15.940267-2.141867 1.646933-2.449067 2.688 0.759467 2.2784l29.6192-20.599467c6.3488-7.150933 14.600533-12.288 21.376-18.952533l-3.780267 12.194133c-4.4288 5.8368-12.356267 7.108267-18.107733 10.8032-3.259733 2.090667-2.5856 4.138667-2.466133 7.424-28.398933 12.7488-48.580267 18.449067-79.146667 24.337067-3.2 0.110933-7.671467-6.289067-8.942933-8.558933-2.7136-4.8384-3.592533-11.008-5.461334-15.837867-1.3312-3.456-3.933867-9.915733-6.912-12.1088 13.576533-23.0912 25.838933-47.5648 33.4848-73.019733l9.924267-7.5776c6.434133-7.995733 16.059733-16.5632 22.0416-24.3712z" fill="#BD6465" /><path d="M526.293333 281.6768c-0.571733 2.312533-0.8704 4.9152-1.518933 7.6032v-82.141867c-0.810667-0.853333-20.061867 2.6112-23.2704 3.362134-4.8128 1.1264-10.6496 2.952533-14.779733 5.768533 0.708267-57.412267 3.0976-124.2368 17.058133-179.9424 1.493333-5.947733 9.557333-32.776533 13.320533-35.362133 8.046933-5.5296 7.893333 14.378667 9.258667 18.244266l-0.068267 262.468267z" fill="#75AD59" /><path d="M276.6848 757.802667c-3.319467 1.3312-0.938667 5.0944-0.392533 7.236266 11.1616 43.562667 32.9728 75.5456 65.834666 105.326934-0.631467 2.5856-4.923733 0.315733-6.724266-0.128-8.064-2.005333-16.0256-4.386133-24.081067-6.340267-2.1504-0.520533-5.930667-2.926933-7.2448 0.392533-37.691733-26.973867-62.8736-56.456533-79.146667-100.394666 4.48-5.6064 22.186667-9.216 24.098134-14.711467 0.955733-2.756267 0.4352-6.536533 3.2256-8.951467 6.5536-0.546133 11.716267-2.670933 16.8192-6.766933-1.3824 9.890133 2.722133 16.477867 7.611733 24.337067z" fill="#D39E9C" /><path d="M479.112533 263.424c-8.2944 0.6656-16.571733 4.010667-24.3456 6.843733-2.286933 0.836267-3.4304 3.0208-6.0928 0.759467-10.658133-31.445333-24.2176-61.713067-35.780266-92.7744-4.266667-11.4688-13.960533-35.1744-12.9792-46.472533 1.3568-15.547733 16.682667 0.5632 21.393066 6.1184 26.2144 30.882133 45.474133 87.125333 57.8048 125.525333z" fill="#8DC165" /><path d="M342.135467 870.365867c11.025067 9.992533 21.777067 19.1488 34.2528 27.374933 4.565333 0.145067 1.322667-1.6384-0.247467-2.798933-5.802667-4.3008-12.6464-9.2672-18.056533-13.9008-2.602667-2.2272-4.736-5.742933-6.818134-7.637334l32.657067 4.6336c22.485333-0.162133 44.859733 0.887467 66.884267-3.054933l0.913066-3.089067h1.518934c0.9728 2.423467 1.3056 3.985067 2.773333 7.074134 0.375467 0.785067 0.068267 1.672533 0.273067 2.056533-1.4336 2.423467-4.1984 0.725333-5.8624 4.0192-2.747733 5.435733 0.8192 11.1872-0.196267 17.2544 3.396267-0.298667 8.200533 1.860267 11.332267 1.621333 3.1488-0.238933 5.239467-3.515733 8.388266-3.0976 3.063467 8.644267 11.357867 15.325867 16.776534 22.801067-7.953067-0.187733-13.661867-0.7168-21.307734-1.518933-58.9568-6.203733-112.938667-23.176533-161.3312-57.8048 1.314133-3.319467 5.0944-0.913067 7.2448-0.392534 8.064 1.954133 16.0256 4.343467 24.081067 6.340267 1.800533 0.443733 6.0928 2.7136 6.724267 0.128z" fill="#C68384" /><path d="M381.704533 515.933867c-16.8192 15.325867-36.974933 30.958933-51.771733 47.889066-4.360533 4.983467-6.929067 12.680533-13.6704 16 0.2048-0.324267-0.008533-1.706667 0.776533-2.9696 1.681067-2.696533 9.326933-11.946667 9.685334-13.192533 1.288533-4.394667 0.6656-11.844267-4.932267-12.6208-6.3744 1.083733-26.965333 26.862933-31.402667 33.348267l-16.6656-9.966934-15.291733-2.210133c28.6464-34.3552 54.254933-48.349867 91.323733-71.492267l16.2816 5.7856c5.290667 2.9952 11.409067 4.923733 15.675734 9.429334z" fill="#C78F9A" /><path d="M486.724267 216.260267c4.130133-2.816 9.9584-4.642133 14.779733-5.768534 3.208533-0.750933 22.459733-4.215467 23.2704-3.362133v82.141867c-2.781867 11.562667-4.7104 23.441067-7.611733 34.986666-5.256533-4.471467-6.877867-13.9776-15.1552-12.117333-0.418133 2.926933-1.988267 5.5552-3.328 8.1408-0.930133 1.809067-2.747733 2.2784-2.824534 2.449067l-9.130666-42.589867c0.196267-21.265067-0.264533-42.624 0-63.889067z" fill="#66A34D" /><path d="M562.824533 269.508267l-3.7888 4.548266-25.130666-16.725333c9.2928-33.8176 23.0912-83.8656 43.4176-112.529067 1.885867-2.6624 7.3216-10.001067 10.5984-9.1648 2.363733 1.570133 2.141867 2.833067 2.338133 5.290667 0.375467 4.6848 0.392533 12.100267-0.0768 16.7424-3.285333 32.392533-19.6096 78.2848-27.357867 111.837867z" fill="#8EC267" /><path d="M751.556267 557.0048l-5.316267 7.620267c-11.639467 6.135467-23.586133 16.503467-37.2992 15.197866-12.9024-16.247467-35.968-37.6064-51.746133-51.720533 2.9184-2.688 8.362667-0.4608 10.769066-2.193067 1.1264-0.810667 0.9984-2.816 1.723734-3.566933 1.655467-1.723733 5.623467-2.901333 8.021333-6.4512 2.722133-4.036267 1.322667-7.432533 3.848533-10.606933 27.323733 17.143467 46.455467 28.3904 70.016 51.720533z" fill="#AA5B65" /><path d="M681.540267 505.284267c-2.517333 3.1744-1.1264 6.570667-3.848534 10.606933-2.397867 3.549867-6.365867 4.727467-8.021333 6.4512-0.7168 0.750933-0.597333 2.756267-1.723733 3.566933-2.397867 1.732267-7.842133-0.494933-10.769067 2.193067-5.000533-4.471467-13.457067-9.3952-18.261333-13.687467-2.0736-1.860267-5.845333-6.656-7.611734-9.130666-19.4304-27.204267-39.313067-56.055467-54.4768-86.263467l-1.834666-12.612267c20.864 47.172267 64.861867 72.721067 106.538666 98.875734z" fill="#A76174" /><path d="M533.905067 257.339733l25.130666 16.725334 3.7888-4.548267c-3.959467 17.1264-8.234667 34.269867-10.658133 51.720533-4.0448 4.258133-9.070933 11.101867-11.938133 16.213334-3.976533 7.0656-5.819733 14.967467-10.129067 21.819733l-12.936533-34.986667c2.901333-11.5456 4.821333-23.424 7.611733-34.986666 0.648533-2.688 0.955733-5.290667 1.518933-7.6032 1.8688-7.586133 5.5296-16.768 7.611734-24.337067z" fill="#99CC69" /><path d="M783.5136 596.5568c-4.4032 2.414933-8.123733 5.640533-12.637867 7.901867-6.528 3.2768-14.464 5.085867-20.394666 10.0352l-15.675734 6.391466c-0.64-1.373867-3.7888-4.616533-4.565333-6.084266-5.947733-11.204267-13.508267-25.1648-21.307733-34.986667 13.7216 1.3056 25.659733-9.053867 37.2992-15.197867l5.316266-7.620266c13.627733 13.4912 21.76 23.04 31.965867 39.552z" fill="#B96462" /><path d="M479.112533 263.424c0.068267 0.2048 0.9472 0.418133 1.186134 1.152 2.013867 6.306133 4.5568 12.663467 4.906666 19.3792l1.518934-3.797333 9.130666 42.589866c-0.247467 0.5632 0.273067 2.235733-0.2816 3.456-4.565333 10.077867-8.925867 20.411733-10.376533 31.530667l-12.996267-21.230933c-2.517333-1.826133-4.829867-5.947733-6.784-7.671467-4.010667-19.643733-10.3168-38.8608-16.7424-57.8048 2.6624 2.261333 3.805867 0.0768 6.0928-0.759467 7.773867-2.833067 16.0512-6.178133 24.3456-6.843733z" fill="#9ACC6A" /><path d="M424.32 442.914133l0.896 1.3568c6.152533-0.554667 10.308267 1.0496 15.744 3.336534l0.1024 2.909866c-16.315733 28.125867-35.754667 43.895467-59.357867 65.408-4.2752-4.5056-10.385067-6.434133-15.675733-9.429333l-16.2816-5.7856c25.915733-16.187733 55.133867-33.8944 74.581333-57.8048z" fill="#B87F92" /><path d="M486.724267 923.605333c4.548267 0.110933 9.147733-0.0512 13.696 0 12.1344 0.145067 24.388267 0.162133 36.5312 0 7.517867-0.1024 14.728533 0.776533 21.956266-1.629866 0.554667 0.0512 1.5616 2.116267 2.397867 3.1488 2.773333 3.4048 7.739733 9.719467 1.518933 12.168533-4.3008 0.853333-8.046933-1.467733-12.177066-1.518933-0.9984-0.017067-1.9968-0.110933-2.986667 0.034133l-3.106133 7.569067c-1.442133-0.9472-8.2176-2.269867-10.658134-3.0464-0.0768-0.0256-0.136533-1.1264-0.9216-1.373867l-2.824533-0.119467c-2.432 0.708267-2.013867 4.087467-2.346667 4.5312-0.6656 0.896-4.744533 3.5584-6.084266 4.565334-1.271467-1.9712-8.2432-6.161067-9.890134-9.122134-2.295467 0.878933-1.937067 4.096-2.286933 4.5568-0.759467 1.015467-4.027733 1.783467-4.565333 4.565334-5.0688-0.503467-6.852267-5.794133-10.658134-9.130667-0.170667-0.1536 0-1.28-0.8192-1.4848h-1.348266c-2.244267 2.986667-6.3744 3.285333-8.482134 6.050133l-4.471466-0.085333c0.128-1.732267-1.339733-3.191467-1.621334-4.471467-0.2816-1.3056 0.196267-3.114667 0-4.565333-5.316267-0.256-9.762133 3.933867-15.214933 3.0464-0.3072-0.366933-1.7408-0.503467-2.3552-1.442133l-0.597333-2.176 5.9904-11.588267c7.645867 0.802133 13.354667 1.3312 21.307733 1.518933z" fill="#95555B" /><path d="M588.6976 917.521067c-6.826667 1.314133-14.3872 3.5328-22.033067 4.616533-2.858667 0.401067-6.203733-1.9456-5.367466 2.9952-0.836267-1.032533-1.8432-3.089067-2.397867-3.1488-7.227733 2.4064-14.4384 1.527467-21.956267 1.629867l12.3648-19.601067 4.394667-0.221867-0.904533-3.0464 3.805866-1.655466c-1.8432-2.773333 0.068267-2.688 0.128-2.858667 4.932267-3.089067 7.6544-10.112 10.658134-15.214933 2.9696 2.193067 5.572267 8.6528 6.912 12.1088 1.8688 4.829867 2.747733 10.999467 5.461333 15.837866 1.271467 2.269867 5.742933 8.669867 8.942933 8.558934z" fill="#BD6E70" /><path d="M504.9856 947.9424c0.546133-2.781867 3.805867-3.541333 4.565333-4.565333 2.961067 7.9872 2.389333 16.827733 3.072 25.070933 0.128 1.578667 1.365333 3.089067 1.4592 4.625067 1.117867 19.072-3.182933 37.6576-17.476266 50.926933-8.618667-2.158933 0.878933-11.656533 3.072-16.708267 1.783467-4.104533 4.7872-13.303467 5.2736-17.553066 1.416533-12.4416-2.167467-30.498133 0.034133-41.796267z" fill="#DEDAE6" /><path d="M462.370133 937.2928c5.4528 0.887467 9.9072-3.3024 15.214934-3.0464 0.196267 1.450667-0.2816 3.259733 0 4.565333l-15.9488 13.7216c-10.752 5.666133-17.655467 15.880533-26.658134 23.552-1.749333 1.4848-2.440533 2.935467-5.333333 2.269867-2.133333-1.851733-2.542933-1.800533-1.595733-4.625067 1.211733-3.6096 17.3568-19.293867 21.341866-22.784 4.1472-3.6352 10.077867-6.203733 13.7472-10.615466l0.733867-0.759467c-1.006933-0.401067-1.134933-1.8176-1.5104-2.2784z" fill="#DCD9E6" /><path d="M494.336 938.820267l-18.500267 43.118933c-4.445867 4.8384-5.4528 13.457067-13.457066 11.648-0.682667-6.596267 4.992-11.170133 7.9104-17.194667 4.386133-9.045333 8.004267-25.915733 13.397333-33.006933 2.0992-2.7648 6.237867-3.063467 8.482133-6.050133h1.348267c0.8192 0.2048 0.648533 1.3312 0.8192 1.4848z" fill="#DDD9E7" /><path d="M521.728 947.9424c1.348267-0.9984 5.4272-3.669333 6.084267-4.565333 5.905067 17.5104 15.9488 33.698133 20.6336 51.6608 0.529067 2.048 0.529067 4.0192-1.6128 4.616533-4.266667 1.194667-5.768533-3.566933-7.1424-6.545067-5.5808-12.0576-10.308267-25.275733-15.701334-37.546666-0.887467-2.0224-1.595733-6.587733-2.269866-7.6288z" fill="#DFD9E6" /><path d="M526.293333 525.064533c-6.724267 4.437333-3.899733 13.952-6.792533 21.3504-1.979733 5.085867-10.299733 11.1872-12.279467 15.112534-1.7408 3.464533 0.401067 8.3712-2.9952 12.219733-0.904533 1.024-10.1888 8.064-11.349333 8.430933-5.154133 1.655467-11.656533-0.853333-15.138133 4.642134l-7.7568 37.111466c2.730667-1.6128 5.8624-1.416533 8.704-2.7136 4.471467-2.039467 7.3472-8.1408 14.122666-6.417066v4.565333l-5.572266-1.365333-3.5584 3.6352 9.130666 2.286933 4.573867-10.6496c4.036267-0.256 11.921067 0.5632 15.7696 1.732267 3.370667 1.024 5.367467 3.8656 13.149867 5.870933l-17.783467 8.968533c-6.784-3.1488-8.1664 1.194667-12.654933 1.681067-2.679467 0.290133-5.597867-0.324267-8.337067 0.034133-8.149333 1.0752-15.010133 6.954667-24.1664 4.309334-2.594133-0.750933-6.391467-5.358933-8.6016-6.613334-2.6368-1.501867-6.621867-1.544533-9.1136-3.054933-2.517333-1.518933-2.4064-4.138667-3.319467-5.051733s-4.539733-1.3312-6.638933-3.259734c-2.423467-2.2272-7.1424-8.7808-6.792533-12.228266l-3.037867 4.565333c6.161067-30.045867 17.5872-58.641067 29.653333-86.7328 1.024-2.3808 3.310933-4.855467 3.831467-6.058667 5.2992 1.314133 12.450133 0.708267 17.262933 1.757867 4.087467 0.896 14.344533 5.538133 19.268267 7.364267 0.238933 0.093867 0.827733 1.467733 1.8944 1.851733 3.831467 1.365333 7.8592 2.048 11.895467 0.520533 4.497067-9.2672 7.1168-30.856533 19.575466-15.121066-0.8704 3.7376-2.295467 7.441067-2.9184 11.229866z" fill="#C0828D" /><path d="M581.085867 456.610133c15.351467 25.386667 36.974933 42.504533 57.838933 62.370134 2.389333 2.2784 5.213867 6.8352 7.611733 9.130666v1.518934c-7.031467-1.2544-11.656533 1.066667-17.8176 2.730666-8.840533 2.3808-6.656 2.2272-13.576533 6.203734-5.981867 3.438933-9.966933 2.0224-15.010133 3.2512-5.828267 1.425067-11.298133 4.9408-17.527467 4.539733-11.989333-28.151467-27.895467-54.698667-38.050133-83.6608 3.566933 0.768 6.5792-1.493333 9.873066-1.629867 2.9952-0.128 5.973333 1.6384 7.406934 1.416534 2.944-0.443733 6.613333-5.1968 9.591466-5.666134 2.048-0.324267 7.517867 3.84 9.668267-0.2048z" fill="#B67688" /><path d="M587.178667 576.776533c-7.765333-0.896-16.546133 1.408-15.223467 10.6496-6.690133-3.6096-7.790933-1.262933-10.6496 4.565334-4.539733-1.024-0.930133-4.104533-2.176-6.075734-1.152-1.826133-4.360533-2.8672-3.968-6.075733l-6.656 1.4336c-2.807467-2.9952-4.4544-6.314667-7.722667-9.088-6.5024-5.5296-11.52-4.957867-12.936533-15.9744-1.1008-8.541867-2.8672-23.108267-1.544533-31.1552 0.622933-3.780267 2.048-7.492267 2.9184-11.229867-12.458667-15.735467-15.0784 5.845333-19.575467 15.121067-4.027733 1.527467-8.055467 0.8448-11.895467-0.520533-1.066667-0.384-1.655467-1.757867-1.8944-1.851734v-6.084266c4.599467 2.286933 6.033067 2.056533 8.9344-2.466134 1.672533-5.7088-0.768-6.946133-2.577066-10.683733-0.375467-0.776533-0.059733-1.6896-0.273067-2.056533 4.241067 0.290133 8.823467-0.401067 13.0048-0.068267 7.227733 0.580267 9.463467 4.736 15.982933-2.2016 2.568533-2.730667 7.432533-8.5248 11.562667-9.693867 3.293867-0.930133 8.1152 1.5872 9.6768-3.2512 12.381867 30.114133 24.900267 55.1424 35.003733 86.7072z" fill="#BB7984" /><path d="M456.285867 511.368533c-12.1088 26.478933-25.275733 55.748267-33.4848 83.6608-7.0656-2.2528-5.896533-4.420267-6.084267-10.6496-0.375467-12.1344-1.169067-23.057067-5.7856-34.525866-5.060267-12.552533-14.190933-22.5792-24.6528-30.882134 9.506133-9.019733 19.925333-17.911467 28.919467-27.383466 12.2112 3.089067 26.3936 6.357333 34.730666 16.247466 2.0224 2.397867 1.800533 4.4032 6.365867 3.524267z" fill="#BB8190" /><path d="M544.554667 462.6944c10.154667 28.962133 26.0608 55.509333 38.050133 83.6608 11.997867 28.177067 23.662933 61.738667 28.919467 91.272533 9.634133 54.101333 5.1968 117.614933-10.658134 170.368-7.645867 25.454933-19.908267 49.928533-33.4848 73.019734-2.9952 5.102933-5.717333 12.117333-10.658133 15.214933 2.065067-6.109867 7.296-13.576533 10.658133-19.771733 11.5712-21.384533 17.2032-36.309333 24.354134-59.323734 26.069333-83.882667 22.1696-156.859733-4.565334-240.341333-10.103467-31.5648-22.6304-56.584533-35.003733-86.7072-4.650667-11.323733-8.5504-23.287467-12.177067-34.986667l0.162134-2.1504 1.3568-0.887466c0.247467 0.853333-0.3072 2.3808 0.290133 3.447466l2.756267 7.202134z" fill="#994F50" /><path d="M415.189333 491.5968c-8.994133 9.472-19.413333 18.363733-28.919466 27.383467-36.718933 34.833067-65.5104 57.813333-88.277334 104.96-5.674667 11.758933-8.558933 19.012267-12.177066 31.940266-6.024533 21.563733-10.8544 52.241067-7.611734 74.538667-1.4848-1.083733-2.8672-1.194667-4.565333-1.518933-0.896-0.170667-2.039467 0.187733-3.0208-0.008534-1.1776-7.517867-1.9968-14.336-1.518933-22.033066 0.1024-1.621333 1.297067-3.293867 1.493333-5.341867 0.0512-0.503467-0.0512-1.024 0-1.518933 2.909867-0.768 3.6096-4.667733 4.241067-7.176534 4.2752-17.058133 5.956267-37.717333 11.306666-54.109866 2.56-7.842133 8.4224-17.032533 11.613867-24.900267 1.134933-2.7904 2.474667-4.770133 1.7664-8.123733 5.230933-8.925867 11.2896-17.152 16.7424-25.856 6.741333-3.319467 9.309867-11.016533 13.6704-16 14.7968-16.930133 34.961067-32.5632 51.771733-47.889067 23.6032-21.512533 43.042133-37.282133 59.357867-65.408 5.5552-9.5744 8.337067-15.581867 12.177067-25.856 1.297067-3.464533 1.962667-5.435733 3.0464-9.130667 0.042667-0.145067 0.9728-0.341333 1.194666-1.134933 4.036267-17.595733 8.192-35.498667 7.936-53.632 2.653867-0.3584 1.4848 3.4816 1.518934 5.3248 0.3328 16.776533-3.191467 36.6592-7.978667 52.872533-8.072533 27.3408-24.32 52.1472-43.767467 72.6272z" fill="#99575B" /><path d="M459.323733 517.4528c-0.520533 1.211733-2.807467 3.6864-3.831466 6.058667-12.066133 28.0832-23.483733 56.6784-29.653334 86.7328-3.8656 13.448533-5.674667 27.264-7.611733 41.070933-0.2304 1.664-1.271467 3.959467-1.518933 7.6032-0.034133 0.503467 0.042667 1.015467 0 1.518933-4.130133-1.706667-5.179733-4.898133-4.565334-9.130666 0.136533-1.493333-0.1536-3.072 0-4.565334l1.3568-0.896c0.477867-2.218667 0.017067-4.497067 0.162134-6.7072 0.913067-14.0544 5.137067-30.523733 9.130666-44.117333 8.209067-27.912533 21.376-57.181867 33.4848-83.6608 3.345067-7.3216 8.9344-15.377067 12.484267-23.2704 8.900267-19.822933 16.1792-40.8832 19.831467-62.318933l2.688-8.721067c0.4096 10.752-2.3808 21.640533-5.282134 31.982933-6.493867 23.1936-17.220267 46.250667-26.6752 68.411734z" fill="#945158" /><path d="M501.9392 505.284267c0.2048 0.366933-0.110933 1.28 0.273067 2.056533 1.809067 3.7376 4.2496 4.974933 2.577066 10.683733-2.909867 4.5312-4.343467 4.7616-8.9344 2.466134-1.9712-0.981333-5.162667-3.131733-6.877866-4.539734-2.133333-1.749333-14.5152-13.7984-15.232-15.197866-1.117867-2.184533-1.006933-4.352-0.477867-6.656 4.539733-6.272 6.7072-20.625067 17.160533-17.621334 1.28 0.366933 2.6368 2.2272 2.4832 3.712 0.375467 2.0224-1.664 4.1728-1.408 5.845334 0.64 4.241067 8.123733 15.138133 10.4448 19.242666z" fill="#B06D83" /><path d="M631.313067 505.284267c1.757867 2.466133 5.5296 7.2704 7.611733 9.130666v4.565334c-20.864-19.8656-42.487467-36.983467-57.838933-62.370134-8.157867-13.482667-15.445333-31.488-19.413334-46.762666-2.705067-10.402133-3.908267-21.162667-6.4256-31.607467-0.068267-3.5328-0.110933-7.082667-0.034133-10.615467 0.042667-1.8432-1.134933-5.674667 1.518933-5.3248l1.553067 22.024534c5.5808 35.387733 20.599467 67.490133 44.074667 94.370133 8.1664 9.352533 18.9696 19.387733 28.945066 26.589867z" fill="#92505E" /><path d="M541.5168 452.0448l-1.3568 0.887467-0.162133 2.1504c-3.797333-12.245333-7.441067-25.591467-9.096534-38.818134-0.375467-3.012267 0.324267-6.203733 0.034134-9.1648-0.546133-5.589333-2.7392-11.255467-1.5872-17.425066l3.012266 12.962133c0.315733 16.785067 4.548267 33.297067 9.1648 49.408z" fill="#9B5C6F" /><path d="M456.285867 415.5392c-1.083733 3.694933-1.749333 5.6576-3.0464 9.130667-10.845867 0.1792-5.870933-10.811733 3.0464-9.130667z" fill="#B87F92" /><path d="M734.813867 620.893867c38.0672 81.536 21.435733 178.807467-42.615467 241.8688-6.766933 6.664533-15.018667 11.8016-21.376 18.952533l-29.6192 20.599467c-3.2 0.4096-2.901333-0.631467-0.759467-2.2784 7.005867-5.384533 15.086933-10.120533 22.101334-15.940267 4.992-4.138667 9.873067-9.335467 14.429866-13.7216 57.540267-55.3728 83.131733-127.6928 63.9232-206.882133-3.438933-14.165333-8.797867-29.525333-15.223466-42.589867 2.491733-1.0496 4.821333-3.208533 4.565333-6.084267 0.776533 1.467733 3.925333 4.7104 4.565333 6.084267z" fill="#934746" /><path d="M316.253867 579.822933c-5.4528 8.712533-11.511467 16.930133-16.7424 25.856-13.013333 22.229333-21.2224 41.9584-25.821867 67.746134l-3.0976 26.564266c-0.0512 0.503467 0.0512 1.015467 0 1.518934-6.314667 3.310933-9.216-5.572267-10.359467-10.180267s-2.184533-13.44-1.774933-17.937067c2.824533-31.377067 14.045867-62.8992 31.931733-89.019733 4.437333-6.485333 25.0368-32.264533 31.402667-33.348267 5.6064 0.785067 6.2208 8.234667 4.932267 12.6208-0.366933 1.245867-8.0128 10.504533-9.685334 13.192534-0.785067 1.2544-0.571733 2.6368-0.776533 2.9696z" fill="#DFB9B9" /><path d="M278.203733 730.4192c0.128 0.887467 1.2032 2.013867 1.518934 3.0464l0.0512 11.349333c2.756267 7.074133 2.978133 14.916267 4.514133 22.109867-2.176-1.314133-5.589333-4.096-6.877867-6.109867-0.802133-1.2544-0.520533-2.670933-0.725333-3.012266-4.8896-7.8592-8.994133-14.446933-7.611733-24.337067 1.0496-0.8448 2.9184-3.498667 4.565333-4.565333 1.698133 0.3328 3.089067 0.4352 4.565333 1.518933z" fill="#CEA8A9" /><path d="M673.928533 689.348267l2.824534-0.238934 0.247466-2.781866 2.244267-0.017067c2.688 2.048 4.548267 6.391467 8.3712 6.084267-0.128-1.595733-0.034133-3.1232 0.7424-4.573867 2.269867-4.258133 5.546667-3.0464 2.4064-11.195733 2.2784-3.2768 5.802667-5.495467 8.234667-8.6016 1.544533-1.979733 1.9456-4.9664 3.780266-6.869334 3.822933-3.950933 12.586667-5.085867 16.7936-7.552 3.8912-2.2784 3.498667-6.0672 10.436267-2.048 1.373867 5.76 5.3504 9.8816 10.88 11.938134 19.208533 79.189333-6.391467 151.509333-63.9232 206.882133l-22.912 0.8448c-1.032533-1.902933-2.602667-3.6864-3.652267-5.4784-4.1216-7.057067-5.9648-10.606933-9.147733-18.235733-2.7136-6.528-6.766933-8.635733-8.507733-11.52-1.877333-3.106133-2.56-9.147733-3.652267-12.834134-0.401067-1.348267-1.937067-2.653867-2.193067-4.002133-1.339733-7.04 7.722667-13.986133 11.1872-18.807467 2.244267-3.131733 11.264-16.674133 8.430934-19.703466l-6.8352 3.0464-6.8608-7.611734c15.6928-20.48 29.653333-49.5872 37.333333-74.496l3.7632-12.2112z" fill="#C2635F" /><path d="M675.447467 608.725333c2.9696 19.268267 2.2784 45.277867 0.0256 64.674134-0.6144 5.2736-1.2032 10.658133-1.544534 15.9488l-3.7632 12.2112c-7.671467 24.9088-21.640533 54.016-37.333333 74.496-5.981867 7.808-15.598933 16.375467-22.0416 24.3712l-9.924267 7.5776c15.8464-52.753067 20.283733-116.266667 10.658134-170.368-0.827733-4.6336 2.3296-2.926933 5.316266-3.0464 12.270933-0.494933 12.1088-4.104533 20.0448-5.8368 2.7136-0.597333 5.1968 0.034133 8.200534-0.930134 3.925333-1.2544 13.525333-10.350933 16.733866-13.7472 1.0752-1.134933 1.143467-2.986667 1.7152-3.549866 2.193067-2.167467 8.823467-1.8432 11.912534-1.792z" fill="#CA7975" /><path d="M284.296533 766.9248c1.783467 8.362667 4.5312 13.678933 7.611734 21.2992 15.368533 38.0416 29.431467 57.9328 59.357866 85.188267 2.082133 1.8944 4.215467 5.4016 6.818134 7.637333 5.410133 4.6336 12.253867 9.608533 18.056533 13.9008 1.570133 1.160533 4.8128 2.944 0.247467 2.798933-12.475733-8.226133-23.227733-17.3824-34.2528-27.374933-32.861867-29.781333-54.673067-61.764267-65.834667-105.326933-0.546133-2.141867-2.935467-5.905067 0.392533-7.236267 0.213333 0.341333-0.068267 1.757867 0.725334 3.012267 1.288533 2.0224 4.7104 4.795733 6.877866 6.109866z" fill="#9E5F62" /><path d="M291.908267 766.9248c5.853867-2.696533 9.412267-2.176 15.7952-1.3312l13.866666 14.848c6.0928-5.179733 14.344533-1.792 21.367467-2.824533 3.003733-0.443733 3.549867-3.456 7.543467-3.1488 1.194667 0.093867 21.1456 7.185067 22.621866 7.9104 2.926933 1.442133 2.773333 5.1456 6.613334 7.082666 3.217067 1.621333 7.4496 2.7136 10.6496 0.4608l2.056533 0.4864c4.087467 3.754667 3.908267 9.6 6.237867 13.585067 1.134933 1.9456 3.626667 3.268267 4.155733 5.000533 0.4864 1.5616-0.213333 4.309333 0.366933 4.923734 0.8704 0.930133 7.082667 3.242667 8.2944 6.237866l-0.853333 4.573867c6.690133-1.834667 11.707733-0.5632 16.7424-6.084267l24.354133 53.239467-0.913066 3.089067c-22.016 3.950933-44.398933 2.8928-66.884267 3.054933l-32.657067-4.6336c-29.9264-27.246933-43.989333-47.138133-59.357866-85.188267 4.5568 1.169067 3.370667-4.5312 3.106133-6.912-0.4096-3.754667-2.030933-10.658133-3.106133-14.3872z" fill="#D5A0A0" /><path d="M501.9392 864.2816c0.145067 2.158933 2.491733 6.186667 3.822933 7.586133 1.322667 1.390933 3.2256 1.681067 4.5312 3.072 3.362133 3.575467 6.698667 13.969067 3.584 18.013867-0.349867 0.452267-2.414933 0.426667-3.584 1.6896-2.875733 3.089067-1.501867 7.739733-2.986666 10.743467-1.032533 2.082133-4.983467 3.729067-6.203734 7.492266-1.169067 3.601067-0.6144 7.0656-0.682666 10.7264-4.548267-0.0512-9.147733 0.110933-13.696 0-5.418667-7.4752-13.713067-14.1568-16.776534-22.801066-3.1488-0.418133-5.239467 2.850133-8.388266 3.0976-3.131733 0.238933-7.944533-1.911467-11.332267-1.621334 1.015467-6.0672-2.551467-11.810133 0.196267-17.2544 1.664-3.293867 4.437333-1.595733 5.8624-4.0192 1.442133 2.730667 4.4288 6.954667 6.331733 9.642667 1.1264 1.595733 2.978133 4.778667 2.7904 0.256-4.4032-5.265067-6.468267-12.245333-10.6496-17.501867 10.350933-0.059733 22.2208-2.363733 32.4096-4.881066 3.908267-0.964267 7.953067-3.165867 11.733333-4.2496 0.853333-0.247467 2.210133 0.247467 3.0464 0z" fill="#C47C7D" /><path d="M416.708267 660.445867c-0.827733 9.105067-1.297067 18.184533-1.518934 27.383466-0.0256 1.015467 0.017067 2.030933 0 3.0464-2.7648 2.850133-1.5104 9.105067-1.518933 12.928-0.017067 5.0688-0.042667 10.1376 0 15.2064 0.0256 2.500267-1.1264 7.099733 1.518933 8.3712 1.570133 54.545067 18.167467 95.121067 38.050134 144.512h-1.518934l-24.354133-53.239466c-2.901333-12.817067-7.6288-25.250133-10.658133-38.033067-1.1776-4.9664-1.962667-10.1888-3.0464-15.214933-1.194667-5.538133-1.698133-11.1872-3.0464-16.733867 1.092267-4.642133-1.339733-8.797867-1.5872-12.859733-0.349867-5.742933-1.4592-15.4112-1.4592-19.84v-27.383467c0-5.102933 1.083733-15.8208 1.518933-22.058667 0.2304-3.2512 2.730667-11.869867 3.0464-15.214933-0.6144 4.232533 0.4352 7.424 4.565333 9.130667z" fill="#9A5B5F" /><path d="M454.7584 873.403733c4.181333 5.256533 6.2464 12.2368 10.6496 17.501867 0.187733 4.5312-1.664 1.348267-2.7904-0.256-1.902933-2.688-4.8896-6.912-6.331733-9.642667-0.2048-0.384 0.1024-1.271467-0.273067-2.056533-1.467733-3.089067-1.800533-4.650667-2.773333-7.074133 1.416533-0.3072 1.169067 1.083733 1.518933 1.518933z" fill="#9F595D" /><path d="M657.186133 528.1024c15.778133 14.114133 38.843733 35.473067 51.746134 51.720533 7.799467 9.821867 15.36 23.7824 21.307733 34.986667 0.247467 2.875733-2.082133 5.034667-4.565333 6.084267-6.3488-12.919467-14.318933-23.876267-22.826667-34.986667-17.937067-23.415467-35.4304-37.819733-56.311467-57.8048-2.389333-2.286933-5.213867-6.852267-7.611733-9.130667v-4.565333c4.804267 4.292267 13.269333 9.216 18.261333 13.687467z" fill="#8B474D" /><path d="M567.389867 876.450133c-3.3536 6.203733-8.593067 13.6704-10.658134 19.771734-0.059733 0.170667-1.9712 0.085333-0.128 2.858666l-3.805866 1.655467 0.904533 3.0464-4.394667 0.221867-12.3648 19.601066c-12.1344 0.162133-24.388267 0.145067-36.5312 0 0.068267-3.6608-0.477867-7.1168 0.682667-10.7264 1.220267-3.7632 5.1712-5.410133 6.203733-7.492266 1.493333-3.003733 0.110933-7.645867 2.986667-10.743467 1.1776-1.262933 3.242667-1.245867 3.584-1.6896 3.114667-4.053333-0.2304-14.4384-3.584-18.013867-1.3056-1.399467-3.217067-1.681067-4.5312-3.072-1.322667-1.399467-3.669333-5.435733-3.822933-7.586133 19.976533-5.930667 36.804267-14.5152 54.792533-24.337067 1.749333-0.955733 5.051733-1.518933 7.611733-3.0464 0.5888 10.5216 1.442133 20.497067 1.527467 31.1808 0.017067 2.500267-1.117867 7.108267 1.518933 8.3712z" fill="#C17577" /><path d="M425.838933 610.244267l3.037867-4.565334c-0.349867 3.447467 4.369067 10.001067 6.792533 12.228267 2.0992 1.928533 5.742933 2.363733 6.638934 3.259733s0.802133 3.5328 3.319466 5.051734c2.491733 1.5104 6.4768 1.553067 9.1136 3.054933 2.210133 1.2544 6.007467 5.8624 8.6016 6.613333 9.156267 2.645333 16.017067-3.234133 24.1664-4.309333 2.7392-0.3584 5.6576 0.256 8.337067-0.034133l4.539733 6.920533 3.6096-0.622933c2.218667 0.4352 8.610133 10.811733 9.4208 13.405866 1.809067 5.7344 1.92 9.736533 6.0416 15.2576 2.542933 3.4048 7.6032 3.106133 8.277334 5.418667 1.134933 3.933867-2.568533 9.2672-6.101334 10.6752-0.452267 5.3504-0.605867 12.8768-1.6896 17.92-0.64 2.978133-4.010667 5.0176-4.386133 7.842133-0.503467 3.780267 2.065067 6.715733 1.629867 10.641067-0.315733 2.824533-3.080533 5.009067-2.8672 7.364267 0.452267 4.949333 6.2208 11.409067 7.1424 15.7184 0.580267 2.688-0.452267 6.1184 0.938666 8.183466l8.516267 2.133334 8.891733 13.969066-4.3264 13.312c2.7904 1.4592 2.4576 5.819733 3.208534 6.784 0.4096 0.529067 1.988267 0.4096 2.7648 0.964267 4.138667 2.952533 3.054933 22.391467 4.8128 28.7232 3.072 3.413333 4.411733 7.722667 6.673066 11.588267 2.6368 4.497067 6.434133 4.855467 3.771734 12.202666-17.988267 9.821867-34.816 18.4064-54.792534 24.337067-0.836267 0.247467-2.193067-0.247467-3.0464 0-0.119467-6.946133 5.7344-15.726933 6.152534-21.998933s-2.730667-20.386133-5.819734-26.248534c-3.9936-7.5776-14.6944-10.666667-16.802133-18.193066-1.032533-3.712-0.349867-8.4224-3.234133-11.9808-1.041067-1.28-7.253333-4.829867-8.6784-5.026134-2.065067-0.290133-3.669333 2.449067-6.664534 0.605867-3.694933-2.2784-3.746133-7.483733-5.9904-10.769067-2.0224-2.961067-12.450133-11.4176-16.017066-14.421333s-13.1328-7.3216-12.714667-12.603733c0.452267-5.725867 3.2512-9.173333 2.747733-16.9984-0.443733-6.869333-0.017067-3.805867 1.339734-9.3952 0.878933-3.618133-2.6368-17.5104-5.085867-20.317867-3.191467-3.6608-10.2656-4.5312-12.945067-9.1136 0.2304-9.198933 0.699733-18.2784 1.518934-27.383467 0.042667-0.503467-0.034133-1.015467 0-1.518933l1.3568-0.896 0.162133-6.7072c1.937067-13.806933 3.746133-27.6224 7.611733-41.070933z" fill="#CB8C8C" /><path d="M561.297067 655.880533c0.136533 0.1536 0.017067 2.193067 1.442133 3.831467 7.432533 8.516267 11.895467 6.877867 16.119467 20.445867 3.259733 10.4704-1.732267 9.6512-1.8688 14.481066-0.238933 8.379733 11.255467 17.800533 11.101866 28.936534-0.085333 6.033067-7.8848 31.214933-10.8288 37.265066-0.657067 1.3568-2.807467 2.030933-3.541333 4.061867-5.6832 15.6672-9.890133 45.5936-9.3952 62.114133 0.085333 2.9952-0.452267 5.717333 1.527467 8.362667-0.955733 0.605867-1.3824 1.442133-1.518934 1.518933-2.56 1.518933-5.8624 2.090667-7.611733 3.0464 2.670933-7.3472-1.1264-7.7056-3.771733-12.202666-2.261333-3.857067-3.601067-8.174933-6.673067-11.588267-1.757867-6.331733-0.674133-25.770667-4.8128-28.7232-0.776533-0.554667-2.3552-0.4352-2.7648-0.964267-0.750933-0.9728-0.418133-5.3248-3.208533-6.784l4.3264-13.312-8.891734-13.969066-8.516266-2.133334c-1.390933-2.0736-0.3584-5.495467-0.938667-8.183466-0.930133-4.309333-6.690133-10.769067-7.1424-15.7184-0.213333-2.3552 2.551467-4.539733 2.8672-7.364267 0.4352-3.9168-2.1248-6.8608-1.629867-10.641067 0.375467-2.816 3.746133-4.855467 4.386134-7.842133 1.083733-5.0432 1.2288-12.5696 1.6896-17.92 3.541333-1.408 7.2448-6.7328 6.101333-10.6752-0.6656-2.312533-5.725867-2.0224-8.277333-5.418667-4.130133-5.512533-4.232533-9.5232-6.0416-15.2576-0.8192-2.594133-7.210667-12.970667-9.4208-13.405866l-3.6096 0.622933-4.539734-6.920533c4.488533-0.4864 5.870933-4.829867 12.654934-1.681067l17.783466-8.968533c14.907733 3.857067 20.266667 18.6112 28.893867 29.687466 1.706667 2.193067 4.804267 3.805867 6.1184 5.2992z" fill="#C98686" /><path d="M526.293333 525.064533c-1.322667 8.046933 0.443733 22.621867 1.544534 31.1552 1.416533 11.016533 6.434133 10.4448 12.936533 15.9744 3.268267 2.773333 4.9152 6.0928 7.722667 9.088l6.656-1.4336c-0.392533 3.208533 2.816 4.2496 3.968 6.075734 1.245867 1.962667-2.363733 5.051733 2.176 6.075733 3.054933 5.162667-0.554667 8.772267-6.016 9.207467-1.015467 3.848533 0.699733 7.9616 0.853333 11.323733 0.341333 7.492267 2.6112 11.8784 2.082133 19.7376-0.1024 1.553067-1.467733 3.0464-1.476266 4.599467-0.017067 4.829867 4.949333 13.405867 4.548266 19.012266-1.3056-1.4848-4.4032-3.106133-6.1184-5.2992-8.6272-11.076267-13.986133-25.838933-28.893866-29.687466-7.7824-2.013867-9.770667-4.846933-13.149867-5.870934-3.848533-1.169067-11.733333-1.979733-15.7696-1.732266-1.237333 0.0768-2.5088-0.1536-3.7632 0.042666l-0.802133 1.476267c-6.775467-1.723733-9.6512 4.3776-14.122667 6.417067-2.8416 1.297067-5.9648 1.092267-8.704 2.7136l7.7568-37.111467c3.4816-5.495467 9.992533-2.986667 15.138133-4.642133 1.160533-0.375467 10.4448-7.406933 11.349334-8.430934 3.396267-3.848533 1.2544-8.7552 2.9952-12.219733 1.9712-3.925333 10.2912-10.026667 12.279466-15.112533 2.884267-7.3984 0.068267-16.913067 6.792534-21.3504z" fill="#C17F84" /><path d="M497.373867 613.290667l-4.573867 10.6496-9.130667-2.286934 3.5584-3.6352 5.572267 1.365334v-4.565334l0.810667-1.476266c1.245867-0.196267 2.525867 0.034133 3.7632-0.042667z" fill="#CB8C8C" /><path d="M646.536533 529.621333c0.4352 1.0496 1.032533 2.0224 1.518934 3.0464l-4.565334 3.805867v2.269867l6.741334 1.467733 0.861866-1.467733c9.378133 18.773333 16.887467 36.864 21.307734 57.8048 0.802133 3.797333 2.500267 8.6528 3.0464 12.168533-3.089067-0.042667-9.710933-0.375467-11.912534 1.792-0.571733 0.5632-0.64 2.414933-1.7152 3.549867-3.208533 3.396267-12.808533 12.4928-16.733866 13.7472-3.012267 0.955733-5.495467 0.3328-8.200534 0.930133-7.927467 1.7408-7.765333 5.341867-20.0448 5.8368-2.986667 0.119467-6.144-1.5872-5.316266 3.0464-5.256533-29.533867-16.9216-63.086933-28.919467-91.272533 6.229333 0.392533 11.690667-3.1232 17.527467-4.539734 5.0432-1.2288 9.028267 0.1792 15.010133-3.2512 6.929067-3.976533 4.744533-3.822933 13.576533-6.203733 6.161067-1.664 10.7776-3.985067 17.8176-2.730667z m-14.830933 6.058667a1.885867 1.885867 0 1 0-3.772587 0.000853 1.885867 1.885867 0 0 0 3.772587-0.000853z" fill="#BF767C" /><path d="M702.848 585.9072c-4.590933 1.134933-11.784533 1.245867-15.761067 3.259733-2.6624 1.348267-1.885867 3.498667-3.4304 4.4288-2.4832 1.501867-8.1408 2.730667-11.246933 2.961067-4.420267-20.9408-11.9296-39.031467-21.307733-57.8048-1.006933-2.0224-2.065067-4.0448-3.0464-6.084267-0.4864-1.024-1.092267-1.9968-1.518934-3.0464v-1.518933c20.8896 19.976533 38.3744 34.389333 56.311467 57.8048z" fill="#B16168" /><path d="M587.178667 576.776533c26.734933 83.490133 30.634667 156.458667 4.565333 240.341334-8.789333 5.922133-16.955733 12.654933-25.873067 18.2528-1.979733-2.645333-1.442133-5.367467-1.527466-8.362667-0.494933-16.529067 3.712-46.446933 9.3952-62.114133 0.733867-2.030933 2.884267-2.7136 3.541333-4.061867 2.944-6.050133 10.743467-31.232 10.8288-37.265067 0.1536-11.136-11.3408-20.5568-11.101867-28.936533 0.136533-4.829867 5.128533-4.0192 1.8688-14.481067-4.224-13.559467-8.686933-11.921067-16.119466-20.445866-1.425067-1.6384-1.314133-3.677867-1.442134-3.831467 0.401067-5.614933-4.573867-14.1824-4.548266-19.012267 0-1.553067 1.373867-3.0464 1.476266-4.599466 0.520533-7.8592-1.7408-12.253867-2.082133-19.7376-0.1536-3.362133-1.8688-7.483733-0.853333-11.323734 5.461333-0.443733 9.0624-4.0448 6.016-9.207466 2.858667-5.828267 3.959467-8.174933 10.6496-4.565334-1.322667-9.2416 7.458133-11.537067 15.223466-10.6496z" fill="#C67877" /><path d="M416.708267 584.388267l-3.362134 18.696533c-2.3552 8.96-7.893333 19.3536-8.814933 28.458667-6.647467-1.425067-15.744-0.1792-15.274667-9.079467-7.825067 1.928533-14.1824-3.191467-20.7872-4.317867-3.0976-0.529067-6.007467 0.1024-8.814933-0.324266-7.842133-1.186133-12.706133-5.367467-18.449067-10.538667-5.1968 2.414933-11.255467 3.720533-16.8704 4.189867-4.846933 0.401067-6.3744-4.2496-11.861333 3.3792-4.1728 5.802667-2.269867 7.296-10.4448 10.8544-2.901333 1.262933-4.548267 3.072-4.0448-1.7664 22.7584-47.146667 51.5584-70.126933 88.277333-104.96 10.461867 8.302933 19.601067 18.3296 24.6528 30.882133 4.616533 11.4688 5.410133 22.391467 5.7856 34.525867z" fill="#CA99A1" /><path d="M422.801067 595.037867c-3.9936 13.585067-8.2176 30.062933-9.130667 44.117333l-1.3568 0.896c-0.529067 2.210133 0.0512 4.514133-0.162133 6.7072-0.1536 1.493333 0.136533 3.063467 0 4.565333-0.315733 3.345067-2.816 11.963733-3.0464 15.214934 0.631467-12.2624-5.853867-22.3488-4.565334-34.986667 0.9216-9.105067 6.459733-19.498667 8.814934-28.458667l3.362133-18.696533c0.196267 6.229333-0.981333 8.3968 6.084267 10.6496z" fill="#C68A93" /><path d="M567.389867 876.450133c-2.6368-1.262933-1.501867-5.870933-1.518934-8.3712-0.0768-10.683733-0.938667-20.6592-1.527466-31.1808 0.136533-0.085333 0.5632-0.9216 1.518933-1.518933 8.917333-5.6064 17.083733-12.330667 25.873067-18.2528-7.150933 23.0144-12.782933 37.9392-24.354134 59.323733z" fill="#C06969" /><path d="M297.992533 623.940267c-0.503467 4.8384 1.152 3.0208 4.0448 1.7664 8.183467-3.549867 6.280533-5.051733 10.4448-10.8544 5.486933-7.620267 7.0144-2.978133 11.861334-3.3792 5.614933-0.469333 11.6736-1.774933 16.8704-4.189867 5.742933 5.1712 10.606933 9.352533 18.449066 10.538667 2.798933 0.426667 5.7088-0.2048 8.814934 0.324266 6.6048 1.1264 12.962133 6.2464 20.7872 4.317867-0.469333 8.900267 8.6272 7.6544 15.274666 9.079467-1.288533 12.637867 5.1968 22.724267 4.565334 34.986666-0.4352 6.237867-1.518933 16.955733-1.518934 22.058667v27.383467c0 4.437333 1.1008 14.1056 1.4592 19.84 0.247467 4.061867 2.679467 8.226133 1.5872 12.859733-0.034133-0.128-1.1008-0.085333-1.553066-2.193067-0.341333-1.629867 0.2048-3.669333 0.034133-5.418666-3.165867-0.170667-6.519467 0.443733-9.642667-0.247467-3.3536-0.7424-6.306133-4.881067-9.6256-5.589333-2.798933-0.597333-5.640533 0.008533-8.593066-0.5376-3.712-0.6912-6.954667-3.959467-9.386667-4.3008-2.8416-0.4096-6.1952 0.657067-8.977067-0.1536-6.024533-1.757867-14.020267-17.8176-18.6624-20.898134-5.3248-3.5328-12.552533-6.647467-18.816-4.770133l-0.085333-4.48c-5.0432-1.792-8.482133-0.298667-13.5168-0.196267-0.989867-5.6576-7.0144-7.816533-10.692267-11.4432 0.443733-6.954667 2.926933-11.946667 5.9392-17.954133-0.119467-0.529067-6.7584-7.441067-7.483733-7.808-2.6368-1.322667-6.912-0.238933-7.517867-0.861867-1.1264-1.169067-1.425067-6.724267-6.229333-5.947733 3.6096-12.928 6.5024-20.181333 12.177067-31.940267z" fill="#CD979A" /><path d="M285.815467 655.880533c4.804267-0.776533 5.102933 4.778667 6.229333 5.947734 0.597333 0.622933 4.881067-0.4608 7.517867 0.861866 0.725333 0.366933 7.3728 7.278933 7.483733 7.808-3.012267 6.007467-5.495467 10.999467-5.9392 17.954134 3.677867 3.626667 9.7024 5.794133 10.692267 11.4432 5.034667-0.1024 8.465067-1.595733 13.5168 0.196266l0.085333 4.48c6.263467-1.885867 13.4912 1.2288 18.816 4.770134 4.642133 3.080533 12.6464 19.140267 18.6624 20.898133 2.781867 0.810667 6.144-0.256 8.977067 0.1536 2.432 0.349867 5.674667 3.6096 9.386666 4.3008 2.944 0.554667 5.794133-0.059733 8.593067 0.5376 3.319467 0.708267 6.272 4.846933 9.6256 5.589333 3.1232 0.6912 6.4768 0.068267 9.642667 0.247467 0.1792 1.7408-0.375467 3.7888-0.034134 5.418667 0.443733 2.107733 1.518933 2.065067 1.553067 2.193066 1.348267 5.538133 1.8432 11.1872 3.0464 16.733867-3.319467-2.432-3.447467-0.759467-4.6336 2.218667-0.964267 2.414933-1.732267 4.957867-1.527467 7.620266l2.730667 1.1776c0.366933 3.387733 3.5584 3.746133 6.468267 4.1984 3.029333 12.782933 7.7568 25.216 10.658133 38.033067-5.034667 5.521067-10.052267 4.2496-16.7424 6.084267l0.853333-4.573867c-1.220267-2.9952-7.424-5.307733-8.2944-6.237867-0.580267-0.6144 0.119467-3.362133-0.366933-4.923733-0.5376-1.732267-3.0208-3.054933-4.155733-5.000533-2.3296-3.985067-2.158933-9.8304-6.237867-13.585067l-2.056533-0.4864c-3.191467 2.2528-7.424 1.160533-10.6496-0.4608-3.84-1.937067-3.6864-5.640533-6.613334-7.082667-1.476267-0.725333-21.418667-7.816533-22.621866-7.9104-3.9936-0.3072-4.548267 2.705067-7.543467 3.1488-7.022933 1.032533-15.274667-2.346667-21.367467 2.824534l-13.866666-14.848c-6.382933-0.8448-9.9328-1.365333-15.7952 1.3312-3.106133-10.752-8.7296-22.442667-12.177067-33.467734-0.324267-1.032533-1.390933-2.1504-1.518933-3.0464-3.242667-22.2976 1.578667-52.9664 7.611733-74.538666z" fill="#D29D9D" /><path d="M270.600533 699.997867l3.0976-26.564267c4.599467-25.787733 12.808533-45.5168 25.821867-67.746133 0.708267 3.362133-0.631467 5.333333-1.7664 8.123733-3.191467 7.867733-9.053867 17.058133-11.613867 24.900267-5.3504 16.392533-7.031467 37.051733-11.306666 54.109866-0.631467 2.5088-1.3312 6.4-4.241067 7.176534z" fill="#BC8F95" /><path d="M416.708267 658.926933c0.256-3.652267 1.288533-5.947733 1.518933-7.6032l-0.162133 6.7072-1.3568 0.896zM412.142933 646.749867c0.221867-2.193067-0.366933-4.497067 0.162134-6.7072l1.3568-0.896c-0.145067 2.218667 0.315733 4.488533-0.162134 6.7072l-1.3568 0.896z" fill="#9A5B5F" /><path d="M702.848 585.9072c8.516267 11.1104 16.477867 22.0672 22.826667 34.986667 6.4256 13.064533 11.784533 28.433067 15.223466 42.589866-5.5296-2.056533-9.4976-6.178133-10.88-11.938133-6.9376-4.0192-6.545067-0.238933-10.436266 2.048-4.206933 2.466133-12.970667 3.601067-16.7936 7.552-1.834667 1.902933-2.235733 4.8896-3.780267 6.869333-2.432 3.106133-5.956267 5.3248-8.234667 8.6016 3.140267 8.149333-0.136533 6.9376-2.4064 11.195734-0.776533 1.450667-0.878933 2.978133-0.7424 4.573866-3.822933 0.3072-5.691733-4.036267-8.3712-6.084266l-2.244266 0.017066-0.247467 2.781867-2.824533 0.238933c0.349867-5.290667 0.938667-10.666667 1.544533-15.9488 2.2528-19.396267 2.944-45.405867-0.0256-64.674133-0.546133-3.515733-2.244267-8.3712-3.0464-12.168533 3.106133-0.221867 8.772267-1.450667 11.246933-2.961067 1.544533-0.930133 0.759467-3.080533 3.4304-4.4288 3.985067-2.013867 11.170133-2.1248 15.761067-3.259733z" fill="#BB6665" /><path d="M291.908267 766.9248c1.0752 3.729067 2.696533 10.632533 3.106133 14.3872 0.264533 2.3808 1.450667 8.081067-3.106133 6.912-3.080533-7.620267-5.828267-12.936533-7.611734-21.2992-1.527467-7.1936-1.757867-15.035733-4.514133-22.109867l-0.0512-11.349333c3.447467 11.025067 9.070933 22.715733 12.177067 33.467733z" fill="#DEBAB8" /><path d="M415.189333 687.8208c2.679467 4.5824 9.7536 5.461333 12.945067 9.1136 2.449067 2.807467 5.9648 16.699733 5.085867 20.317867-1.3568 5.589333-1.783467 2.525867-1.339734 9.3952 0.503467 7.825067-2.295467 11.272533-2.747733 16.9984-0.418133 5.282133 9.019733 9.506133 12.714667 12.603733s13.994667 11.460267 16.017066 14.421333c2.244267 3.285333 2.295467 8.490667 5.9904 10.769067 2.9952 1.8432 4.599467-0.887467 6.664534-0.605867 1.425067 0.196267 7.637333 3.746133 8.6784 5.026134 2.884267 3.5584 2.2016 8.2688 3.234133 11.9808 2.0992 7.534933 12.808533 10.624 16.802133 18.193066 3.089067 5.8624 6.263467 19.712 5.819734 26.248534s-6.272 15.0528-6.152534 21.998933c-3.780267 1.0752-7.825067 3.285333-11.733333 4.2496-10.1888 2.517333-22.050133 4.821333-32.4096 4.881067-0.349867-0.4352-0.1024-1.834667-1.518933-1.518934-19.882667-49.390933-36.48-89.966933-38.050134-144.512-0.349867-12.023467-0.247467-24.4736 0-36.5056 0.017067-1.015467-0.0256-2.030933 0-3.0464z" fill="#D09899" /><path d="M413.661867 765.405867c1.083733 5.0176 1.8688 10.24 3.0464 15.214933-2.909867-0.452267-6.101333-0.810667-6.468267-4.1984l-2.730667-1.1776c-0.2048-2.6624 0.5632-5.205333 1.527467-7.620267 1.186133-2.9696 1.314133-4.650667 4.6336-2.218666z" fill="#D5A0A0" /><path d="M415.189333 727.3728c-2.6368-1.262933-1.493333-5.870933-1.518933-8.3712-0.042667-5.0688-0.017067-10.1376 0-15.2064 0.008533-3.822933-1.245867-10.077867 1.518933-12.928-0.247467 12.032-0.349867 24.482133 0 36.5056z" fill="#CB8C8C" /><path d="M651.101867 538.752l-0.861867 1.467733-6.741333-1.467733v-2.269867l4.565333-3.805866c0.9728 2.039467 2.030933 4.061867 3.0464 6.084266z" fill="#B67688" /><path d="M629.819733 535.68m-1.885866 0a1.885867 1.885867 0 1 0 3.771733 0 1.885867 1.885867 0 1 0-3.771733 0Z" fill="#B67688" /></svg>