<?xml version="1.0" standalone="no"?><!DOCTYPE svg PUBLIC "-//W3C//DTD SVG 1.1//EN" "http://www.w3.org/Graphics/SVG/1.1/DTD/svg11.dtd"><svg class="icon" width="256px" height="256.00px" viewBox="0 0 1024 1024" version="1.1" xmlns="http://www.w3.org/2000/svg"><path d="M737.05856 734.327467l0.128-3.473067c0.034133-0.836267 1.024-1.134933 2.005333-1.501867l-2.133333 4.974934z" fill="#EE7D06" /><path d="M268.868693 757.026133c0.136533 2.7648 0.0768 6.852267-0.136533 9.540267l-1.553067 18.9696-1.92 19.3024c-0.904533 9.122133 0.887467 22.272 2.2016 29.8752 1.757867 10.222933 13.3376 19.618133 13.508267 40.576 0.034133 3.976533 0.597333 10.274133-0.042667 13.098667l-2.824533 12.484266c-3.345067 1.160533-9.728 2.850133-13.243733 2.747734l-18.781867-0.529067-15.0528-18.048c-2.773333-3.328-10.513067-8.0896-12.9024-11.451733l-6.6816-9.386667c2.756267 0.810667 27.460267-1.570133 26.043733-9.301333l-2.7136-14.7968c-2.039467-11.101867-15.223467-8.4992-16.7424-14.7712-0.657067-2.7136 1.416533-7.765333 3.447467-11.477334 2.628267-4.804267-1.28-13.457067-6.212267-16.119466-6.664533-3.592533-10.914133-7.1424-15.479466-13.4144-7.799467-10.7264-11.144533 4.130133-26.3936-4.949334-2.449067 0.2304-9.5744 1.911467-12.373334 1.373867-4.736-0.904533-9.6-8.832-11.613866-12.714667l-2.722134-5.256533c-0.733867-1.416533-7.3472-0.324267-7.8336 1.1776l-5.768533 17.655467c-2.372267 7.278933-16.964267 21.640533-14.711467 38.3744 1.3568 10.052267 25.378133 9.5488 32.708267 23.031466l-4.744533 16.2304c-0.554667 1.8944 2.218667 5.7856 3.6608 6.971734l5.435733 4.471466c-0.512 0.0256-5.3504-0.366933-6.357333-1.28l-12.714667-11.460266c-4.565333-4.113067-8.157867 3.899733-24.388267-5.7344-4.872533-2.8928-10.2144-6.314667-14.685866-8.3456l-25.710934-11.6736 7.2448-10.615467c1.877333-2.747733 8.2432-10.026667 5.888-15.726933-0.4608-1.109333-3.703467-1.450667-4.616533-0.6656l-12.177067 10.410666c-6.331733 5.418667-20.164267 6.647467-27.579733 3.780267-21.248-8.226133-14.557867-32.9216-20.701867-53.998933l-3.746133-12.842667c-0.503467-1.732267-1.629867-4.369067-1.9456-4.573867-0.0512-0.5632-0.0768-1.6384-0.1024-2.312533-0.247467-4.215467-1.297067-8.405333-2.286933-11.511467l-5.947734-21.998933c-2.218667-8.2176 0.290133-19.4048 3.6096-26.6752l2.2528-3.0208c1.220267-1.6384 5.1712-3.746133 7.253334-3.285333l20.770133 4.6336 13.3632 2.816c2.8928 0.6144 6.0416 7.236267 7.441067 10.427733 6.144 13.994667 11.921067 2.824533 17.109333 15.4368 1.450667 3.524267 7.108267 10.888533 10.4192 9.728 18.235733-6.417067 7.637333-31.7952 17.988267-35.524267 4.309333-1.553067 11.221333 3.6096 15.709866 7.825067 13.6448 12.834133 40.337067 10.5728 58.427734 9.6256 2.141867-0.110933 7.125333-5.026133 8.0896-6.784l5.853866-10.6496c3.362133-6.1184-6.8096-12.928-12.4928-13.533867-30.301867-3.217067-55.662933-32.725333-44.834133-44.245333l10.811733-11.502933c1.5616-1.664 5.2992-5.649067 7.236267-4.906667l11.357867 4.3776c13.124267 5.051733 19.857067 6.135467 32.093866 17.1264 2.8928 2.594133 13.576533 4.462933 15.633067 1.2032 2.218667-3.515733 4.309333-9.4976 6.186667-14.148267s15.547733-2.875733 18.286933 2.176l13.1584 24.251734c4.258133 7.850667 3.4304 17.826133 2.0992 26.7264-1.536 10.2656-0.674133 20.138667 0.5376 30.779733 1.5104 13.2864-6.843733 14.5152 4.189867 23.8592 3.4816 2.952533 9.847467 10.043733 10.0608 14.301867l0.6912 13.858133z m-49.143466-0.1024l0.861866-18.8416c0.221867-4.821333-5.76-15.829333-11.2128-15.172266-5.7856 0.699733-10.581333 1.800533-15.7184 3.438933-9.634133 3.072-12.2112 26.7008-1.834666 33.373867 3.8144 2.449067 7.4752 3.908267 12.0832 5.640533 5.4272 2.048 15.5136-1.774933 15.8208-8.439467z" fill="#F5950D" /><path d="M266.778027 388.462933c0.802133 3.370667 1.117867 3.310933 2.116266 0.042667 0.8448 0.520533 2.3552 1.604267 3.037867 2.338133 2.3552 2.517333 6.9376 5.563733 10.5472 6.784 2.628267 0.887467 5.9904 1.911467 9.6256 2.884267l25.489067 6.843733 0.085333 3.703467c0.017067 0.896 2.218667 0.64 5.358933 0.699733l3.8144 2.901334c-2.602667 0-8.4224-0.238933-11.323733 0.221866l-16.708267 2.688c-8.362667 1.348267-13.405867 18.56-21.4016 10.658134l-12.612266-12.458667c-4.1472-4.096-13.525333-3.618133-18.875734-2.133333l-14.609066-3.8656c-3.933867-1.041067-13.499733-0.3328-17.467734 0.776533-32.008533 8.9344-19.464533-1.9968-41.8048 6.050133-3.003733 1.083733-9.309867 6.766933-9.514666 9.173334 2.389333 3.780267 7.7824 9.0368 7.953066 12.322133 0.597333 11.989333-7.662933 29.021867-18.6624 35.2256l-16.503466 9.309867c-11.5456 6.510933-17.664-10.4704-29.994667 0.384-2.500267 2.2016-3.447467 7.944533-2.517333 10.683733l3.5328 10.4192c11.844267 10.837333 30.0544 1.4848 40.0384 6.903467 24.746667 13.431467 28.074667-2.107733 35.643733 6.3488l-0.861867 12.578133c12.322133 0.878933 22.306133 1.2544 32.836267 4.625067 5.751467 1.8432 10.760533 3.217067 16.128 1.6896l18.517333-5.2736c1.595733-0.452267 5.751467-4.0192 7.048534-4.846934l11.357866-2.4832c1.476267-0.324267 6.340267 0.042667 6.4256 1.578667s-0.1536 5.1712-0.750933 6.596267l-3.370667 8.0384c-1.7408 4.1472-4.130133 7.739733-8.192 10.5216-12.2624 8.3968-1.536 12.919467-8.832 18.397866l-4.155733 3.114667-6.1184 1.8432c2.7136 8.004267 5.367467 12.885333 10.666667 16.452267l13.166933 8.8576c0.221867-0.187733-1.749333 3.3024-2.551467 4.4032l-5.76 7.9104c-17.8688-4.1216 0.085333-3.447467-25.531733-9.5232-7.773867-1.8432-16.256-3.080533-25.2672-3.2l-12.330667-0.162134c-21.290667-0.2816-16.5888-17.851733-38.7584-24.200533-6.203733-1.774933-15.812267-5.435733-20.881066-5.1968l-25.617067 1.220267c-2.039467 0.093867-6.997333-2.500267-7.338667-3.2768L96.00896 554.666667c-6.101333-4.2496-6.715733-8.123733-12.424533-8.610134l-4.5568-1.911466c-11.6736-10.6752-29.0048-3.7632-49.954134-10.692267-7.389867-2.449067-28.032-13.8752-24.507733-21.9136 10.683733-19.182933 25.617067-20.795733 43.204267-29.3632l27.511466-13.397333c5.3504-2.602667 12.9792-4.334933 18.1504-7.227734 25.258667-14.1312 39.133867-39.509333 43.0336-42.8288 10.948267-9.309867 25.582933-13.303467 38.980267-17.160533l23.176533-6.664533 19.950934-5.597867c3.080533-0.861867 10.0864-4.6592 13.627733-4.795733l23.150933-0.904534c3.208533-0.128 9.7792 3.080533 11.4176 4.846934z" fill="#FDAC1A" /><path d="M83.59296 546.0736l8.029867 10.9824c3.217067 4.4032 5.649067 8.567467 10.24 9.984 0.341333 0.776533 5.290667 3.370667 7.338666 3.2768l25.617067-1.220267c5.0688-0.238933 14.677333 3.421867 20.881067 5.1968 22.1696 6.3488 17.476267 23.918933 38.7584 24.200534l12.330666 0.162133c9.0112 0.119467 17.493333 1.348267 25.2672 3.2 6.1696 11.810133 8.558933 2.048 23.8336 18.0992 3.2 3.370667 7.586133 5.469867 13.243734 5.853867s11.093333-4.522667 11.963733-9.1136l1.467733-7.765334c12.8-10.615467 19.677867-27.246933 18.8928-13.098666l-1.501866 26.914133-0.554667 32.750933c-2.0736-0.8704-7.125333-3.5072-8.823467-5.444266l-16.2816-18.594134c-3.447467 2.3296-7.799467 5.358933-7.816533 7.415467l-0.110933 13.943467-7.466667-1.8432c-0.3584 1.954133-1.408 6.357333-0.1024 6.135466l7.1424-1.2288 1.297067 18.3296c1.7408 24.541867 13.6448 16.5888 5.870933 41.480534-1.757867 5.623467-0.034133 15.837867 5.486933 18.312533 2.5856 1.160533 7.944533 2.466133 10.734934 3.217067 1.826133 0.494933 3.968 5.674667 2.850133 7.0912-5.649067 7.133867-10.487467 6.3232-7.697067 13.371733l5.2224 13.218133 10.538667 27.639467c0.682667 1.792 3.882667 1.348267 5.7088 0.315733-5.256533 7.978667-9.9328 28.526933-5.085867 36.753067l-6.2208 1.698133-4.957866 12.731734c-2.824533 7.261867-3.259733 15.4112-1.245867 23.150933l-1.655467 13.696c-0.247467 2.013867-5.9136 15.573333-8.695466 13.969067l2.824533-12.484267c0.64-2.824533 0.0768-9.122133 0.042667-13.098667-0.170667-20.957867-11.7504-30.344533-13.508267-40.576-1.3056-7.6032-3.106133-20.753067-2.2016-29.8752l1.92-19.3024 1.553067-18.9696 5.802666-0.750933c-1.1776-3.456-3.268267-7.1936-5.666133-8.789333l-0.6912-13.858134c-0.213333-4.2496-6.5792-11.349333-10.0608-14.301866-11.0336-9.344-2.670933-10.5728-4.189867-23.8592-1.211733-10.641067-2.0736-20.5056-0.5376-30.779734 1.3312-8.900267 2.158933-18.875733-2.0992-26.7264l-13.1584-24.251733c-2.7392-5.051733-16.401067-6.8608-18.286933-2.176s-3.968 10.632533-6.186667 14.148267c-2.065067 3.268267-12.740267 1.399467-15.633066-1.2032-12.2368-10.990933-18.978133-12.074667-32.093867-17.1264l-11.357867-4.3776c-1.928533-0.7424-5.666133 3.234133-7.236266 4.906666L136.516693 628.906667c-10.8288 11.52 14.532267 41.019733 44.834134 44.245333 5.6832 0.605867 15.863467 7.415467 12.4928 13.533867l-5.853867 10.6496c-0.9728 1.757867-5.947733 6.673067-8.0896 6.784-18.090667 0.9472-44.782933 3.208533-58.427733-9.6256-4.48-4.215467-11.400533-9.378133-15.709867-7.825067-10.350933 3.729067 0.247467 29.1072-17.988267 35.524267-3.3024 1.160533-8.968533-6.203733-10.4192-9.728-5.188267-12.6208-10.965333-1.442133-17.109333-15.4368-1.399467-3.191467-4.548267-9.813333-7.441067-10.427734l-13.3632-2.816-20.770133-4.6336c-2.082133-0.4608-6.033067 1.646933-7.253333 3.285334l-2.2528 3.0208c0.989867-13.371733 9.250133-15.633067 2.773333-34.884267l-0.290133-30.088533c9.1392 9.966933-5.3248-0.2816 7.330133 18.619733l16.674133 24.900267 11.050667 1.3056c24.951467 2.952533 31.1296 29.9264 39.364267 20.437333 7.304533-8.413867 15.675733-15.496533 24.951466-21.700267l3.618134-18.551466-7.3728-7.517867c-4.6592-4.753067-11.1872-13.960533-8.106667-21.051733 1.800533-4.155733 9.9072-11.997867 7.2192-16.597334-2.926933-5.009067-8.405333-9.668267-12.356267-13.115733L76.11776 571.562667c-3.2512-2.8416-12.5952-5.6576-16.247467-3.5328l-14.071466 8.200533c-12.014933 7.005867 9.454933 9.864533-0.349867 32.6912-8.174933-1.3312-2.8928-5.5552-9.6768-14.549333-4.1984-5.563733-9.7536-13.7984-15.2064-17.826134 16.605867 8.6016 22.596267-9.7536 41.6512-11.639466l14.404267-1.425067 6.818133-1.629867-7.748267-7.953066 3.310934-9.745067 4.5568 1.911467z m214.212267 279.901867l-7.3728-7.338667 1.024 9.6 6.3488-2.261333z" fill="#EA6C08" /><path d="M155.418027 870.698667c15.214933 12.5184 31.9232 6.6048 31.872 0.631466-0.017067-2.030933-1.8176-6.084267-3.0976-7.748266l-2.5856-3.3536c-0.708267-0.9216 1.169067-4.48 2.244266-4.9152 2.6112-1.066667 10.077867-1.467733 12.484267-0.0512l15.095467 8.942933 6.6816 9.386667c2.389333 3.362133 10.129067 8.123733 12.9024 11.451733l15.0528 18.048 18.781866 0.529067c3.5072 0.1024 9.898667-1.5872 13.243734-2.747734 2.781867 1.6128 8.448-11.946667 8.695466-13.969066l1.655467-13.696c-2.013867-7.739733-1.578667-15.889067 1.245867-23.150934l4.957866-12.731733 6.2208-1.698133c1.3312 2.261333 2.602667 6.698667 4.232534 11.127466 1.365333 3.712 8.917333 7.68 11.588266 10.7264l15.274667 17.425067c2.944 3.362133 5.230933 6.4768 6.272 9.838933-21.700267 9.762133-32.785067 23.722667-58.3936 33.544534-10.794667 4.138667-23.517867-0.0768-34.210133-2.423467-20.676267-4.539733-29.704533-2.295467-47.581867-10.589867-23.4752-10.888533-25.472-5.879467-54.801067-16.776533-4.343467-1.6128-11.707733-8.900267-16.0256-9.813333-26.427733-5.589333-34.679467 0.0256-54.280533-6.135467l-17.416533-5.4784c-7.7056-2.423467-15.496533-4.5824-22.519467-8.354133-24.6784-13.243733-23.3728-34.090667-20.369067-61.585067l1.8432-16.8448c0.520533-4.753067 1.262933-11.323733 0.896-15.5648l-1.450666-16.759467c0.315733 0.196267 1.442133 2.8416 1.9456 4.573867l3.746133 12.842667c6.144 21.077333-0.546133 45.781333 20.701867 53.998933 7.415467 2.875733 21.248 1.6384 27.579733-3.780267l12.177067-10.410666c0.913067-0.785067 4.164267-0.443733 4.616533 0.6656 2.3552 5.700267-4.010667 12.9792-5.888 15.726933l-7.2448 10.615467 25.710933 11.6736c4.471467 2.030933 9.813333 5.4528 14.685867 8.3456 16.238933 9.634133 19.831467 1.621333 24.388267 5.7344l12.714666 11.460266c1.015467 0.913067 5.845333 1.314133 6.357334 1.28z" fill="#E76B04" /><path d="M11.68256 620.4928l-3.208533-20.6592c-0.3328-2.158933-1.083733-5.213867-1.4336-6.801067l-1.536-9.898666-2.824534-12.987734c4.010667 0.802133 14.327467 3.754667 17.928534 6.417067 5.4528 4.027733 11.008 12.2624 15.2064 17.826133 6.784 8.994133 1.501867 13.218133 9.6768 14.549334 9.8048-22.826667-11.665067-25.685333 0.349866-32.6912l14.071467-8.200534c3.652267-2.1248 12.996267 0.6912 16.247467 3.5328l17.902933 15.650134c3.950933 3.447467 9.4208 8.106667 12.356267 13.115733 2.688 4.599467-5.410133 12.4416-7.2192 16.597333-3.072 7.0912 3.456 16.298667 8.106666 21.051734l7.3728 7.517866-3.618133 18.551467c-9.275733 6.203733-17.646933 13.294933-24.951467 21.700267-8.2432 9.489067-14.4128-17.4848-39.364266-20.437334l-11.050667-1.3056-16.674133-24.900266c-12.654933-18.8928 1.809067-8.6528-7.330134-18.619734z" fill="#F5950D" /><path d="M79.03616 544.170667l-3.310933 9.745066 7.748266 7.953067-6.818133 1.629867-14.404267 1.425066c-19.054933 1.885867-25.045333 20.241067-41.6512 11.639467-3.592533-2.653867-13.917867-5.614933-17.928533-6.417067l2.824533 12.987734 1.536 9.898666-2.619733-2.466133C2.611627 582.263467 0.62336 573.448533 0.52096 565.188267L0.000427 522.939733c-0.042667-3.4304 3.157333-8.840533 4.573866-11.374933-3.524267 8.0384 17.117867 19.464533 24.507734 21.9136 20.957867 6.929067 38.280533 0.0256 49.954133 10.692267z" fill="#E76B03" /><path d="M280.78976 390.852267c0.6656 1.7408 1.348267 4.590933 1.681067 6.766933-3.618133-1.220267-8.192-4.266667-10.5472-6.784l8.866133 0.017067z" fill="#FDBE29" /><path d="M13.815893 745.6512l-2.1248-1.655467-0.162133-9.856c0.989867 3.0976 2.039467 7.296 2.286933 11.511467z" fill="#E76B04" /><path d="M266.778027 388.462933c0.8448-0.0768 1.6384-0.256 2.116266 0.042667-0.9984 3.268267-1.314133 3.328-2.116266-0.042667zM326.84416 414.6432c0.580267 0 1.664-0.213333 2.244267-0.162133l4.1216 11.2128 16.9216 0.6656c0.759467 0.4864 1.8432 1.834667 2.4576 2.551466l0.657066 6.144c0.221867 2.090667 4.309333 4.642133 6.212267 4.744534 8.132267 8.183467 5.538133-7.893333 33.041067 1.024l15.684266 5.085866 14.2336 4.497067c2.363733 0.7424 8.157867 1.425067 11.076267 1.851733 8.866133 4.4032 8.567467 17.476267 1.595733 24.064l-13.073066 12.3392-17.749334 17.646934c-2.005333 1.988267-6.0672 5.256533-8.6016 7.057066l-14.890666 10.538667c-10.3424 2.3552-18.6368 5.853867-27.511467 11.562667-5.589333 3.601067-14.549333 6.664533-19.498667 10.641066-7.125333 5.742933-12.885333 10.862933-20.1728 15.5904-2.594133 1.681067-9.7536 4.155733-11.153066 6.6304l-11.3152 20.087467c-5.4272 2.807467-8.917333 6.126933-9.9072 10.606933l-2.926934 13.303467c-4.6848 2.619733-15.863467 2.065067-20.693333-0.930133l5.76-7.9104c0.802133-1.1008 2.773333-4.590933 2.551467-4.4032l-13.166934-8.8576c-5.2992-3.566933-7.953067-8.448-10.666666-16.452267l6.1184-1.8432-2.116267 9.198933c14.5152 2.2272 33.365333-6.016 39.688533-17.066666l6.2208-10.88c9.6512-2.176 25.053867-1.442133 29.090134-12.680534-6.843733-11.195733-19.2-13.550933-31.104-7.381333-4.650667 2.4064-6.690133 6.647467-8.311467 13.5168l-17.4592 5.265067c-8.567467 2.5856-6.5792 17.757867-7.773867 18.321066l-8.226133 1.698134 4.155733-3.114667c7.296-5.4784-3.4304-10.0096 8.832-18.397867 4.0704-2.781867 6.459733-6.3744 8.192-10.5216l3.370667-8.0384c0.597333-1.425067 0.836267-5.060267 0.750933-6.596266s-4.949333-1.8944-6.4256-1.578667l-11.357866 2.4832c-1.3056 0.827733-5.4528 4.394667-7.048534 4.846933l-18.517333 5.2736c-5.367467 1.527467-10.376533 0.1536-16.128-1.6896-10.5216-3.3792-20.5056-3.746133-32.836267-4.625066l0.861867-12.578134c-7.5776-8.456533-10.897067 7.082667-35.643733-6.3488-9.984-5.418667-28.194133 3.933867-40.0384-6.903466l-3.5328-10.4192c-0.930133-2.7392 0.017067-8.490667 2.517333-10.683734 12.330667-10.8544 18.449067 6.126933 29.994667-0.384l16.503466-9.309866c10.990933-6.203733 19.259733-23.236267 18.6624-35.2256-0.162133-3.293867-5.563733-8.5504-7.953066-12.322134 0.2048-2.4064 6.510933-8.0896 9.514666-9.173333 22.331733-8.046933 9.796267 2.884267 41.8048-6.050133 3.976533-1.109333 13.533867-1.8176 17.467734-0.776534l14.609066 3.8656c5.358933-1.4848 14.728533-1.962667 18.875734 2.133334l12.612266 12.458666c7.995733 7.901867 13.038933-9.309867 21.4016-10.658133l16.708267-2.688c2.901333-0.469333 8.721067-0.2304 11.323733-0.221867z" fill="#FDBE29" /><path d="M299.392427 655.505067l0.384 52.881066 1.4336 18.858667c1.032533 13.576533-0.4352 25.762133 0.443733 39.671467 0.810667 12.868267 9.3696 24.251733 4.292267 31.957333-1.826133 1.024-5.026133 1.467733-5.7088-0.315733l-10.538667-27.639467-5.2224-13.218133c-2.7904-7.048533 2.048-6.237867 7.697067-13.371734 1.117867-1.416533-1.024-6.596267-2.850134-7.0912-2.7904-0.750933-8.149333-2.056533-10.734933-3.217066-5.521067-2.474667-7.2448-12.689067-5.486933-18.312534 7.7824-24.8832-4.130133-16.938667-5.870934-41.480533l-1.297066-18.3296-7.1424 1.2288c-1.3056 0.221867-0.256-4.181333 0.1024-6.135467l7.466666 1.8432 0.110934-13.943466c0.017067-2.065067 4.369067-5.085867 7.816533-7.415467l16.2816 18.594133c1.698133 1.937067 6.749867 4.573867 8.823467 5.444267z" fill="#E76B04" /><path d="M257.59616 611.396267c4.829867 2.9952 16.008533 3.549867 20.693333 0.930133 1.194667-0.6656 3.140267-2.440533 4.2752-3.387733l-1.467733 7.765333c-0.8704 4.590933-6.3232 9.4976-11.963733 9.1136s-10.0352-2.4832-13.243734-5.853867c-15.266133-16.0512-17.655467-6.289067-23.8336-18.0992 25.617067 6.084267 7.662933 5.410133 25.531734 9.5232z" fill="#F5950D" /><path d="M350.131627 426.350933l-16.9216-0.6656-4.1216-11.2128c1.237333 0.093867 4.317867 1.024 5.4016 1.723734l15.6416 10.146133zM359.45856 439.790933c-1.902933-0.1024-5.981867-2.653867-6.212267-4.744533l-0.657066-6.144 11.281066 4.821333-4.4032 6.0672z" fill="#FDAC1A" /><path d="M211.430827 864.213333l-15.095467-8.942933c-2.397867-1.425067-9.864533-1.024-12.484267 0.0512-1.0752 0.4352-2.952533 4.002133-2.244266 4.9152l2.5856 3.3536c1.28 1.664 3.080533 5.717333 3.0976 7.748267 0.0512 5.9648-16.657067 11.886933-31.872-0.631467l-5.435734-4.471467c-1.442133-1.186133-4.215467-5.0688-3.6608-6.971733l4.744534-16.2304c-7.338667-13.482667-31.351467-12.9792-32.708267-23.031467-2.261333-16.733867 12.330667-31.095467 14.711467-38.3744l5.768533-17.655466c0.4864-1.501867 7.099733-2.602667 7.8336-1.1776l2.722133 5.256533c2.013867 3.874133 6.877867 11.810133 11.613867 12.714667 2.798933 0.5376 9.924267-1.143467 12.373333-1.373867 15.249067 9.079467 18.594133-5.777067 26.3936 4.949333 4.565333 6.272 8.814933 9.821867 15.479467 13.4144 4.932267 2.6624 8.840533 11.3152 6.212267 16.119467-2.030933 3.712-4.104533 8.763733-3.447467 11.477333 1.518933 6.272 14.702933 3.669333 16.7424 14.7712l2.7136 14.7968c1.416533 7.739733-23.287467 10.112-26.043733 9.301334zM219.725227 756.923733c-0.3072 6.673067-10.385067 10.496-15.8208 8.439467-4.599467-1.7408-8.2688-3.191467-12.0832-5.640533-10.368-6.664533-7.799467-30.301867 1.834666-33.373867 5.137067-1.6384 9.9328-2.747733 15.7184-3.438933 5.4528-0.657067 11.434667 10.350933 11.2128 15.172266l-0.861866 18.8416z" fill="#FAAC1D" /><path d="M268.73216 766.5664c0.221867-2.688 0.273067-6.775467 0.136533-9.540267 2.397867 1.595733 4.488533 5.333333 5.666134 8.789334l-5.802667 0.750933z" fill="#E76B04" /><path d="M101.862827 567.048533c-4.590933-1.416533-7.022933-5.5808-10.24-9.984l-8.029867-10.9824c5.7088 0.477867 6.3232 4.360533 12.424533 8.610134l5.845334 12.3648z" fill="#F5950D" /><path d="M297.805227 825.975467l-6.3488 2.261333-1.024-9.6 7.3728 7.338667z" fill="#E76B04" /><path d="M248.192427 571.921067l8.226133-1.698134c1.194667-0.571733-0.7936-15.735467 7.773867-18.321066l17.4592-5.265067c1.621333-6.869333 3.669333-11.1104 8.311466-13.5168 11.904-6.1696 24.251733-3.805867 31.104 7.381333-4.036267 11.2384-19.438933 10.504533-29.090133 12.680534l-6.2208 10.88c-6.314667 11.042133-25.173333 19.285333-39.688533 17.066666l2.116266-9.198933z" fill="#FAD56A" /><path d="M366.148693 423.5776l2.5856 2.397867c8.610133 0.8704 17.877333 3.601067 26.453334 7.5008l13.192533 5.9904c14.370133 6.528 61.0048 10.4192 48.5632 34.952533l-7.825067 15.428267c-0.981333 1.937067-0.913067 7.150933 0.119467 7.552-1.425067 1.595733-4.949333 5.188267-6.9888 6.382933-33.723733 19.754667-29.960533 6.954667-64.392533 31.044267-3.643733 2.551467-8.405333 5.504-12.817067 8.046933l-43.451733 25.0624c-2.2784 1.314133-4.693333 7.8336-4.1728 9.966933s3.2512 5.572267 5.12 6.775467l16.648533 10.6496c10.350933 6.621867 35.5328 6.1184 46.984533 14.3616l24.192 17.425067c3.106133 2.235733 11.025067 4.718933 15.044267 6.109866l29.9008 10.368c3.003733 1.041067 7.3728 1.851733 10.018133 2.158934a121.821867 121.821867 0 0 0 13.5936 6.144l13.909334 5.265066c2.747733 1.041067 7.790933 5.905067 8.558933 8.874667l4.292267 16.631467 4.360533 16.9472 2.107733 2.517333c0.2816 6.289067 0.1024 14.446933-1.186133 21.009067l-5.410133 27.5712c-1.732267 8.8064-0.7936 22.442667 1.2032 30.8224l3.012266 12.654933c0.964267 4.061867 2.850133 11.118933 4.548267 15.2832 1.109333 2.722133 6.715733 8.516267 4.744533 10.794667l-7.483733 8.669866c-4.974933 5.768533-12.1344 14.848-10.666667 22.903467l3.396267 18.653867c0.955733 5.265067 2.798933 10.965333 3.293867 16.162133l1.6384 17.0752c2.747733 28.7232 2.321067 28.117333-13.5424 46.993067l16.469333 0.938666c-5.8624 10.180267-41.693867-4.625067-52.573867-9.5232-17.450667-7.8592-8.0896-9.557333-45.986133-23.662933L383.027627 907.093333c-24.593067-9.156267-28.125867-20.522667-44.7744-22.331733-1.032533-3.362133-3.319467-6.4768-6.272-9.838933l-15.274667-17.425067c-2.670933-3.0464-10.231467-7.005867-11.588267-10.7264-1.621333-4.4288-2.901333-8.874667-4.232533-11.127467-4.855467-8.226133-0.1792-28.7744 5.085867-36.753066 5.077333-7.7056-3.4816-19.089067-4.292267-31.957334-0.878933-13.909333 0.5888-26.103467-0.443733-39.671466l-1.4336-18.858667-0.384-52.881067 0.554666-32.750933 1.501867-26.914133c0.7936-14.148267-6.0928 2.4832-18.8928 13.098666-1.134933 0.9472-3.080533 2.722133-4.2752 3.387734l2.926933-13.303467c0.981333-4.48 4.48-7.790933 9.9072-10.606933l11.3152-20.087467c1.399467-2.4832 8.558933-4.957867 11.153067-6.6304 7.287467-4.718933 13.047467-9.847467 20.1728-15.5904 4.9408-3.985067 13.9008-7.048533 19.498667-10.641067 8.874667-5.7088 17.169067-9.216 27.511466-11.562666l14.890667-10.538667c2.5344-1.792 6.596267-5.060267 8.6016-7.057067l17.749333-17.646933 13.073067-12.3392c6.971733-6.587733 7.2704-19.6608-1.595733-24.064-2.909867-0.426667-8.712533-1.109333-11.076267-1.851733l-14.2336-4.497067-15.684267-5.085867c-27.4944-8.9088-24.900267 7.159467-33.041066-1.024l4.4032-6.0672-11.281067-4.821333c-0.605867-0.7168-1.698133-2.056533-2.4576-2.551467l-15.6416-10.146133c-1.083733-0.699733-4.155733-1.629867-5.4016-1.723733-0.580267-0.042667-1.664 0.162133-2.244267 0.162133l-3.8144-2.901333c-3.1488-0.059733-5.341867 0.196267-5.358933-0.699734l-0.085333-3.703466c13.226667 3.549867 36.565333 11.767467 48.5632 16.2304z" fill="#F9AA20" /><path d="M622.967893 630.135467c1.425067 5.384533-17.109333 17.826133-17.373866 12.151466-0.170667-3.6608-2.4576-12.6976-5.512534-12.6464l-27.332266 0.443734c-12.177067 11.0336-31.3088 14.660267-36.48 17.3824l-18.286934 9.6256c-2.7136 1.425067-6.980267 8.3712-5.3504 11.392 3.4304 6.3232 11.895467 5.640533 17.8944 3.464533l23.3216-8.465067c2.9184-1.058133 10.026667-0.878933 13.312-0.571733 3.515733 7.936 9.403733 16.085333 16.759467 18.090667 3.396267 0.930133 11.392-2.824533 14.4384-4.642134l17.262933-10.299733 15.479467 10.069333c12.066133 7.850667 25.1904-15.342933 40.7296 9.5232l0.759467 14.208c0.145067 2.7648 4.855467 6.4256 7.953066 7.6288 8.260267 1.536 15.650133 1.655467 21.4528-3.618133l15.633067-14.208c2.491733-2.261333 8.96-4.9664 12.279467-6.724267 0.964267-1.390933 4.352-7.389867 4.360533-9.608533l0.068267-22.792533 2.491733 0.213333c0.128 4.514133-0.0512 12.8-0.349867 18.3808l-0.494933 9.4208c-3.959467 13.201067 3.703467 11.835733 3.541333 36.923733l-0.068266 9.736534c0 1.041067-0.187733 3.114667-0.273067 4.155733-0.981333 0.366933-1.979733 0.6656-2.005333 1.501867l-0.128 3.473066-0.3584 20.795734c-0.093867 5.341867-1.322667 11.4688-2.2016 15.761066l-0.1536 4.8896-5.717334-4.1216c-1.322667-0.955733-6.493867 1.271467-7.022933 2.7904-5.888 16.853333-1.066667 16.878933-7.168 27.2896-1.169067 1.9968-8.1152 3.857067-10.4448 3.524267-4.957867-0.699733-13.550933-8.209067-14.8736-12.936533l-4.283733-15.325867c-1.5104-5.393067-4.2752-11.4176-7.364267-15.940267l-29.2864 10.112c-6.391467 2.210133-11.1872 9.053867-14.626133 15.240534-11.118933 20.002133-1.937067 26.589867-12.023467 30.916266-2.389333 1.024-5.12 1.902933-5.435733 0.853334l-1.629867-5.435734c-2.269867-7.543467-4.5568-15.709867-8.021333-21.9648l-7.671467-13.841066c-4.5568-8.2176-6.894933-4.6336-34.295467-7.2704-4.7104-0.452267-13.4144 5.162667-14.5152 10.845866-3.310933 17.2032 17.024 20.48 13.184 30.660267-0.938667 2.500267-4.642133 6.587733-7.534933 8.234667-14.856533 8.456533-13.610667-4.667733-28.3648 0.3072-12.3648-9.6256-12.381867-23.825067-17.5104-25.557334l-3.012267-12.654933c-1.9968-8.379733-2.935467-22.007467-1.2032-30.8224l5.410134-27.5712c1.288533-6.5536 1.4592-14.72 1.186133-21.009067-0.3072-6.912-0.6912-15.317333-1.425067-22.459733-0.682667-6.587733-7.517867-13.474133-0.913066-20.138667 17.851733-18.005333 0.8448-18.5088 10.717866-28.117333 5.8624-5.700267 15.505067-15.675733 23.227734-13.986133l21.4016 4.667733c6.4512 1.408 11.989333 1.143467 18.2784-2.440533 8.917333-5.0944 22.2464 7.0144 27.989333 15.522133 1.245867 0.418133 5.256533 1.851733 4.189867 1.476267l7.3728-6.5024z" fill="#FCD54F" /><path d="M734.507093 770.884267c9.514667 22.2976 2.978133 49.339733-11.392 70.2464-10.897067 15.8464-25.198933 14.165333-39.1936 24.789333l-18.7136 14.208c-12.1088 9.1904-26.385067 12.680533-41.096533 15.104-7.3472 5.7856-16.085333 13.047467-24.712533 16.853333l-19.319467 8.533334-33.8944 18.594133c-3.1488 1.723733-24.183467 11.357867-26.897067 10.513067l-4.829866 1.885866c-0.6656 0.034133-1.723733 0.085333-2.312534 0.0512l-16.469333-0.938666c15.863467-18.884267 16.290133-18.269867 13.5424-46.993067l-1.6384-17.0752c-0.494933-5.1968-2.338133-10.897067-3.293867-16.162133l-3.396266-18.653867c-1.467733-8.055467 5.691733-17.134933 10.666666-22.903467l7.483734-8.669866c1.9712-2.2784-3.6352-8.072533-4.744534-10.794667-1.698133-4.1728-3.584-11.221333-4.548266-15.2832 5.128533 1.732267 5.1456 15.931733 17.5104 25.557333 14.754133-4.974933 13.508267 8.149333 28.3648-0.3072 2.884267-1.646933 6.587733-5.7344 7.534933-8.234666 3.831467-10.180267-16.503467-13.457067-13.184-30.660267 1.092267-5.691733 9.8048-11.306667 14.5152-10.845867 27.400533 2.6368 29.738667-0.9472 34.295467 7.2704l7.671466 13.841067c3.464533 6.254933 5.76 14.4128 8.021334 21.9648l1.629866 5.435733c0.315733 1.041067 3.0464 0.170667 5.435734-0.853333 10.0864-4.3264 0.904533-10.914133 12.023466-30.916267 3.438933-6.186667 8.2432-13.038933 14.626134-15.240533l29.2864-10.112c3.089067 4.522667 5.8624 10.5472 7.364266 15.940267l4.283734 15.325866c1.322667 4.727467 9.915733 12.2368 14.8736 12.936534 2.3296 0.324267 9.275733-1.536 10.4448-3.524267 6.109867-10.410667 1.28-10.436267 7.168-27.2896 0.529067-1.5104 5.700267-3.746133 7.022933-2.7904l5.717333 4.1216 0.1536-4.8896z" fill="#FDC534" /><path d="M739.149227 585.890133l0.119466 25.6768-1.860266 18.670934c-0.3072 3.054933-1.2032 7.133867-1.877334 10.7776-0.443733 2.423467 1.2288 7.296 1.297067 9.728l-2.491733-0.213334c-6.178133-2.4064-16.170667-1.570133-23.031467-0.0512-1.851733-0.597333-5.973333-4.539733-7.304533-6.613333l-4.6336-7.236267 9.984-11.076266c5.742933-7.5008 0.187733-21.154133-5.870934-26.734934l-9.045333-8.337066c-12.8512-11.835733-26.530133-0.802133-37.384533 8.3456-13.824 11.648-13.533867 1.9712-18.978134 10.5728l-9.344 14.779733c-1.109333 1.757867-4.334933 4.6848-5.777066 5.956267l-7.3728 6.5024c1.058133 0.375467-2.944-1.0496-4.189867-1.476267-5.742933-8.4992-19.063467-20.608-27.989333-15.522133-6.289067 3.592533-11.818667 3.848533-18.2784 2.440533l-21.4016-4.667733c-7.722667-1.681067-17.365333 8.285867-23.227734 13.986133-9.873067 9.6 7.133867 10.112-10.717866 28.117333-6.613333 6.664533 0.2304 13.550933 0.913066 20.138667 0.7424 7.1424 1.117867 15.547733 1.425067 22.459733l-2.107733-2.517333-4.360534-16.9472-4.292266-16.631467c-0.768-2.961067-5.8112-7.8336-8.558934-8.874666l-13.909333-5.265067a121.821867 121.821867 0 0 1-13.5936-6.144c-5.6832-4.625067-13.0048-21.4272-7.253333-22.587733l5.026133-1.015467 13.764267-2.773333c3.9424-0.7936 9.361067-1.015467 14.532266-1.322667l9.216-6.6304 1.664-5.435733-12.893866 3.464533c-8.388267 2.2528-24.149333 3.464533-33.262934 1.006933-0.896 0.128-3.037867 0.4608-3.2256 0.426667-0.247467-0.042667-5.358933-9.1392-2.397866-11.076267 5.3504-3.515733 13.252267-5.597867 19.874133-7.586133l20.974933-6.2976c8.567467-2.568533 16.298667 9.710933 25.634134 0.622933 11.1616-10.871467 7.901867-1.399467 26.0864-8.814933 4.386133-8.9088 0.8448-19.515733-8.439467-22.852267s-22.493867-10.350933-29.474133-10.402133l-27.6992-0.213333c-29.277867-0.221867-14.3872-7.253333-37.367467-6.161067-3.0464 9.130667-34.210133 31.488-41.403733 22.391467-6.784-8.576-5.700267-24.891733 4.949333-32.2816 27.9296-19.3792 41.5744-0.315733 46.1568-8.226134 5.205333-8.977067-4.864-10.0864 2.474667-15.5136 12.091733-8.951467 16.3328-10.5216 31.325866-8.584533 22.203733 2.8672 9.6512-5.649067 27.153067 3.618133l13.482667-7.748266c5.3248-3.054933 3.8144 15.940267 15.266133 15.684266 10.624-0.238933 16.580267-5.794133 21.777067-13.781333l22.101333 4.753067c3.012267 0.648533 9.582933 5.239467 11.118933 6.314666l2.5856 18.432 9.284267-3.234133c19.899733-6.920533 21.930667-9.053867 42.692267-6.698667 7.381333 0.836267 15.419733 1.109333 21.896533 2.594134 26.9312 6.161067 11.9296-4.181333 32.836267 8.2176l13.184 7.816533-7.022934 7.739733 4.241067 14.6944c3.447467 11.9552 21.000533-1.4336 23.424 17.4336 0.6656 5.1968 1.553067 10.333867 1.570133 14.173867z m-38.587734-38.186666c-0.571733-6.8096-6.9888-10.888533-11.7504-10.564267l-11.835733 0.802133c-5.026133 4.573867-3.899733 13.7984 3.080533 17.271467 3.712 1.851733 10.402133 3.515733 14.5408 3.857067 2.6624 0.221867 6.289067-7.5264 5.973334-11.3664z" fill="#FDCE3E" /><path d="M741.470293 585.890133h-2.312533c-0.017067-3.84-0.904533-8.977067-1.570133-14.173866-2.414933-18.8672-19.968-5.4784-23.424-17.4336l-4.241067-14.6944 7.022933-7.739734-13.184-7.816533c-20.906667-12.3904-5.905067-2.048-32.836266-8.2176-6.4768-1.4848-14.5152-1.749333-21.896534-2.594133-20.753067-2.363733-22.784-0.221867-42.692266 6.698666l-9.284267 3.234134-2.5856-18.432c-1.536-1.0752-8.106667-5.666133-11.118933-6.314667l-22.101334-4.753067c-5.1968 7.9872-11.153067 13.5424-21.777066 13.781334-11.4432 0.256-9.941333-18.747733-15.266134-15.684267l-13.482666 7.748267c-17.501867-9.2672-4.9408-0.750933-27.153067-3.618134-15.0016-1.937067-19.234133-0.375467-31.325867 8.584534-7.338667 5.435733 2.730667 6.545067-2.474666 15.5136-4.5824 7.9104-18.2272-11.153067-46.1568 8.226133-10.6496 7.389867-11.733333 23.697067-4.949334 32.2816 7.1936 9.096533 38.357333-13.2608 41.403734-22.391467 22.980267-1.092267 8.0896 5.9392 37.367466 6.161067l27.6992 0.213333c6.980267 0.0512 20.5568 7.202133 29.474134 10.402134s12.8256 13.943467 8.439466 22.852266c-18.184533 7.415467-14.9248-2.056533-26.0864 8.814934-9.335467 9.096533-17.066667-3.191467-25.634133-0.622934L470.349227 592.213333c-6.621867 1.988267-14.523733 4.0704-19.874134 7.586134-2.952533 1.9456 2.158933 11.0336 2.397867 11.076266 0.187733 0.034133 2.3296-0.3072 3.2256-0.426666 9.122133 2.4576 24.8832 1.245867 33.262933-1.006934l12.893867-3.464533-1.664 5.435733-9.216 6.6304c-5.1712 0.298667-10.589867 0.529067-14.532267 1.322667l-13.764266 2.773333-5.026134 1.015467c-5.751467 1.160533 1.570133 17.954133 7.253334 22.587733-2.645333-0.3072-7.005867-1.109333-10.018134-2.158933l-29.9008-10.368c-4.0192-1.390933-11.938133-3.874133-15.044266-6.109867l-24.192-17.425066c-11.451733-8.2432-36.6336-7.739733-46.984534-14.3616l-16.648533-10.6496c-1.877333-1.194667-4.599467-4.6336-5.12-6.775467s1.8944-8.661333 4.1728-9.966933l43.451733-25.0624c4.411733-2.542933 9.173333-5.495467 12.817067-8.046934 34.432-24.0896 30.6688-11.2896 64.392533-31.044266 2.039467-1.194667 5.563733-4.7872 6.9888-6.382934 5.162667-2.0992 10.990933-5.0944 16.443734-8.4736l24.576-15.240533c3.2-1.979733 8.132267-4.292267 11.733333-6.263467l9.6512-5.265066c3.0464-1.664 6.792533-3.0976 9.7536-3.754667l2.295467-4.283733 19.106133 1.732266 7.278933-6.306133c3.985067-3.456 8.465067-4.8128 15.4624-4.445867l-4.565333 8.6784-2.7136 5.162667c-0.674133 1.288533 8.311467 7.031467 11.921067 8.260267 21.777067 7.406933 43.298133 15.172267 64.520533 23.7312 6.587733 2.653867 13.380267 5.742933 19.6352 7.825066l26.965333 8.951467 25.454934 9.156267c20.394667 7.338667 34.0736 19.7888 34.3808 42.990933l0.341333 26.043733z" fill="#FDBE29" /><path d="M734.34496 650.530133l-0.068267 22.792534c0 2.218667-3.396267 8.209067-4.360533 9.608533-3.319467 1.749333-9.787733 4.462933-12.279467 6.724267l-15.633066 14.208c-5.802667 5.2736-13.192533 5.154133-21.4528 3.618133-3.0976-1.211733-7.808-4.864-7.953067-7.6288l-0.759467-14.208c-15.5392-24.8576-28.663467-1.672533-40.7296-9.5232l-15.479466-10.069333-17.262934 10.299733c-3.0464 1.8176-11.042133 5.572267-14.4384 4.642133-7.355733-2.005333-13.2352-10.154667-16.759466-18.090666-3.285333-0.3072-10.3936-0.4864-13.312 0.571733l-23.3216 8.465067c-5.9904 2.176-14.464 2.858667-17.8944-3.464534-1.6384-3.0208 2.6368-9.9584 5.3504-11.392l18.286933-9.6256c5.1712-2.722133 24.302933-6.3488 36.48-17.3824l27.332267-0.443733c3.0464-0.0512 5.333333 8.9856 5.512533 12.6464 0.264533 5.674667 18.798933-6.766933 17.373867-12.151467 1.442133-1.271467 4.6592-4.1984 5.777066-5.956266l9.344-14.779734c5.435733-8.6016 5.1456 1.0752 18.978134-10.5728 10.862933-9.147733 24.533333-20.189867 37.384533-8.3456l9.045333 8.337067c6.058667 5.5808 11.613867 19.234133 5.870934 26.734933l-9.984 11.076267 4.6336 7.236267c1.322667 2.065067 5.4528 6.016 7.304533 6.613333 6.8608-1.5104 16.853333-2.3552 23.031467 0.0512z" fill="#FDE981" /><path d="M700.561493 547.703467c0.324267 3.84-3.310933 11.579733-5.973333 11.3664-4.138667-0.341333-10.8288-2.005333-14.5408-3.857067-6.980267-3.473067-8.1152-12.6976-3.080533-17.271467l11.835733-0.802133c4.770133-0.324267 11.178667 3.754667 11.7504 10.564267z" fill="#FAE393" /><path d="M794.948693 263.645867c1.7152 0.264533 4.9152 1.245867 7.330134 2.082133 13.226667 4.608 25.659733 8.098133 39.6288 11.153067 6.331733 1.3824 14.557867 4.334933 19.293866 8.0896l13.312 10.564266c29.303467 23.253333 35.012267 10.5728 59.2128 21.128534l5.828267 7.1168c2.833067 3.447467 1.339733 14.404267-1.9712 17.416533l-10.564267 9.6c3.0976 3.421867 8.388267 6.8096 12.672 6.8608l10.9312 0.136533 6.365867 0.085334c1.792 0.0256 1.2032 5.2224 0.4608 7.125333l-6.306133 16.0512c-2.414933 6.144-9.1136 15.607467-9.0624 21.384533l0.110933 12.16c-9.873067 6.3488-16.034133 10.3936-24.2944 16.469334l-11.886933 8.738133c-12.612267 9.275733-27.357867 30.011733-41.873067 32.196267-5.751467-4.565333-14.976-8.183467-22.4256-9.915734l-32.494933-7.560533c-13.824-3.217067-6.024533 1.911467-26.641067 5.469867l-5.205333 0.896c-1.0496 0.1792-0.9472-2.619733-1.339734-5.418667l7.893334-5.026133-4.8896-6.212267c-35.3792 3.831467-33.3312-12.3136-45.7984-14.395733l-14.907734-2.491734c-3.601067-0.605867-9.540267-7.406933-13.218133-9.181866-10.769067-5.213867-22.9376-6.468267-34.4064-8.0896-12.740267-5.7344-48.443733-2.005333-56.430933-19.0976-2.312533-4.957867 1.732267-13.653333 5.5808-16.503467l15.991466-11.844267 14.267734-9.924266c5.1456-3.575467 10.786133-9.4208 14.72-14.472534l9.198933-11.8016 7.364267-6.050133-4.701867-5.290667 12.177067-6.050133c2.397867-1.194667 8.814933-2.491733 11.0336-3.217067l6.4256-9.7536c1.595733-1.954133 7.790933-5.742933 10.282666-6.075733l20.548267-2.747733c3.217067-0.426667 8.686933-2.628267 10.990933-4.1216l20.4032-13.201067c3.9936-2.5856 11.5968-8.5504 15.931734-7.8848l10.461866 1.604267z m9.898667 175.342933c14.532267 4.394667-2.3296-8.209067 41.617067 8.507733 7.5776 2.884267 11.2128 4.804267 19.524266 10.001067l6.673067-9.386667c1.954133-2.747733 7.1168-7.296 10.461867-10.3168 2.747733-2.4832 2.747733-12.0064 0.597333-15.445333-5.469867-8.738133-17.8432-14.865067-28.424533-11.9808-4.778667 1.3056-12.1088 4.906667-16.008534 4.983467l-14.173866 0.2816c-4.0704 0.0768-10.146133 1.152-13.730134 2.286933l-18.8672 5.9904c-2.858667 0.904533-10.752-0.3072-13.602133 0.093867l-4.8128 0.674133c-11.5968 1.629867 17.4336 10.2912 15.044267 9.5744l15.701333 4.744533z" fill="#FDC02D" /><path d="M1012.480427 644.215467l1.262933-12.305067c0.1024-1.015467 0.290133-4.343467-0.571733-4.104533l-4.4544 1.262933-6.997334 10.112-2.338133-7.7824c-3.882667-2.952533-7.850667-7.790933-8.439467-12.040533l-2.338133-17.0496c-0.529067-3.84-9.275733-23.8848-13.7728-18.218667l-14.634667 18.423467-8.917333 3.874133-3.874133 16.273067c-0.298667 1.2544-3.140267 4.352-4.061867 5.1456-5.1968 4.48-3.703467-20.497067-16.674133-18.670934-6.161067 0.8704-12.962133 5.717333-17.6384 9.821867-20.002133 17.544533-25.8816-3.9168-36.206934 7.901867-8.2688 9.472-0.136533 13.457067-6.272 16.9472l-0.733866-12.049067c-1.2032-19.746133-12.3392-37.8112 2.978133-71.338667l2.158933-2.286933c0.034133 1.1776 1.152 3.524267 1.792 5.0432 28.928 14.933333 5.870933 33.911467 13.371734 44.253867 4.744533-3.2768 7.210667-4.898133 8.9088-6.493867l12.279466-11.537067c5.179733-4.864 10.171733-9.540267 15.991467-14.3104 12.381867-10.1376 14.097067-6.843733 16.418133-26.530133l1.553067-13.1072c0.887467-7.492267 3.524267-0.964267 21.034667-9.463467 7.7824-3.780267 5.367467 18.158933 14.865066 19.84l17.860267 3.157334c7.355733-7.560533 1.109333-13.5424 7.1168-19.072 2.244267-2.065067 6.843733-5.7088 6.0672-7.816534s-2.858667-5.947733-4.3776-8.4992l-6.8608-11.511466-11.153067-5.853867c-6.570667 4.437333-13.8496 5.717333-21.384533 5.0176l-11.3664 2.414933c-6.562133 1.390933-13.943467-8.149333-15.018667-14.600533-4.3008-25.821867 3.5072-7.185067-0.930133-33.015467l-1.885867-10.973866c-3.191467-0.375467-12.023467-1.8432-14.446933 0.384-11.5712 10.641067-9.463467 19.165867-15.214933 26.436266l-9.3184 11.784534-10.4704-0.042667c3.524267-7.04 4.718933-13.943467 4.087466-23.697067l11.8528-14.7968 4.266667-5.3248 11.886933-8.738133c8.2688-6.075733 14.421333-10.120533 24.2944-16.469333l-0.110933-12.16c-0.0512-5.768533 6.647467-15.240533 9.0624-21.384534l6.306133-16.0512c0.7424-1.902933 1.3312-7.099733-0.4608-7.125333l-6.365866-0.085333-10.9312-0.136534c-4.283733-0.0512-9.5744-3.438933-12.672-6.8608l10.564266-9.6c3.310933-3.012267 4.804267-13.969067 1.9712-17.416533l-5.828266-7.1168 21.077333 9.1904 41.412267 16.964267c18.7904 7.697067 23.714133 23.645867 23.492266 43.716266l-0.648533 58.402134c-0.145067 13.3632-6.4768 22.775467-1.851733 39.492266 2.628267 9.480533 8.260267 22.135467 6.4256 31.530667l-6.929067 35.498667c-1.7152 8.8064-1.416533 18.440533-0.119467 27.392l2.090667 14.429866c1.902933 13.115733 1.134933 34.491733-3.037867 48.341334l-3.165866 2.6112z" fill="#F59D11" /><path d="M1012.480427 644.215467c-3.797333 11.101867-13.627733 20.130133-24.738134 26.120533l-25.7024 13.8496c-10.7264 5.777067-16 15.5904-34.363733 30.088533l-10.513067 8.2944 0.017067-4.471466-29.9776 0.034133c-18.525867 0.0256-16.477867-21.666133-20.565333-41.770667-0.503467-2.4832-1.5872-5.922133-2.491734-7.236266l-0.119466-2.312534 0.955733-8.7296 1.5616-14.276266c6.135467-3.490133-1.988267-7.4752 6.272-16.9472 10.3168-11.818667 16.196267 9.642667 36.206933-7.901867 4.6848-4.104533 11.477333-8.96 17.6384-9.821867 12.970667-1.826133 11.477333 23.150933 16.674134 18.670934 0.9216-0.7936 3.771733-3.899733 4.061866-5.1456l3.874134-16.273067 8.917333-3.874133 14.634667-18.423467c4.497067-5.6576 13.243733 14.378667 13.7728 18.218667l2.338133 17.0496c0.580267 4.2496 4.548267 9.096533 8.439467 12.040533l2.338133 7.7824 6.997333-10.112 4.4544-1.262933c0.861867-0.247467 0.674133 3.089067 0.571734 4.104533l-1.262934 12.305067z" fill="#FAAD21" /><path d="M865.818027 631.748267l0.733866 12.049066c-4.778667 6.237867-6.8864 16.477867-2.525866 23.0144l0.119466 2.312534c0.648533 2.193067 1.92 5.947733 2.491734 7.236266 4.087467 20.104533 2.039467 41.796267 20.565333 41.770667l29.9776-0.034133-0.017067 4.471466c-6.263467 8.465067-32.366933 27.511467-42.845866 33.3056-13.457067 7.432533-28.945067 1.5616-40.704-1.937066l-21.888-6.510934c-36.693333-10.914133-14.097067-10.871467-58.564267-23.022933-3.848533-1.0496-10.112-0.2048-13.678933 0.7936l0.068266-9.736533c0.162133-25.088-7.5008-23.714133-3.541333-36.923734 0.443733 0.042667 3.3792-3.182933 3.421867-4.522666l0.418133-14.276267 3.182933 7.748267 19.857067 10.325333c10.973867 5.700267 10.299733 7.799467 30.3616-0.699733 6.724267-2.850133 16.5632-14.165333 15.982933-27.178667 1.476267-1.314133 8.874667-1.5616 11.460267-0.494933l14.114133 5.794133c3.0464-1.672533 7.799467-9.284267 10.922667-11.426133l12.5184-8.584534c1.672533-1.143467 5.768533-2.850133 7.586133-3.473066z" fill="#EE7D06" /><path d="M676.69376 315.093333l4.701867 5.290667-7.364267 6.050133-9.198933 11.8016c-3.933867 5.051733-9.5744 10.897067-14.72 14.472534l-14.267734 9.924266-15.991466 11.844267c-3.84 2.850133-7.893333 11.5456-5.5808 16.503467 7.9872 17.092267 43.690667 13.3632 56.430933 19.0976 11.4688 1.621333 23.637333 2.875733 34.4064 8.0896 3.677867 1.783467 9.617067 8.584533 13.218133 9.181866l14.907734 2.491734c12.4672 2.082133 10.4192 18.2272 45.7984 14.395733l4.8896 6.212267-7.893334 5.026133c0.392533 2.798933 0.290133 5.597867 1.339734 5.418667l5.205333-0.896c20.625067-3.5584 12.817067-8.686933 26.641067-5.469867l32.494933 7.560533c7.4496 1.732267 16.674133 5.3504 22.4256 9.915734l5.973333 4.744533c6.254933 4.9664 5.486933 15.735467 3.7376 23.415467 0.9728 6.536533 3.549867 17.8176 1.134934 21.9136l-3.669334 6.229333c-1.6896 2.8672-0.836267 11.682133-0.725333 15.624533l0.375467 14.190934-2.158934 2.286933c-15.317333 33.518933-4.189867 51.592533-2.978133 71.338667-1.8176 0.622933-5.9136 2.3296-7.586133 3.473066l-12.5184 8.584534c-3.1232 2.141867-7.876267 9.7536-10.922667 11.426133l-14.114133-5.794133c-2.5856-1.058133-9.984-0.8192-11.460267 0.494933 0.580267 13.013333-9.250133 24.328533-15.982933 27.178667-20.061867 8.4992-19.387733 6.4-30.3616 0.699733l-19.857067-10.325333-3.182933-7.748267-0.418134 14.276267c-0.042667 1.348267-2.978133 4.565333-3.421866 4.522666l0.494933-9.4208c0.290133-5.572267 0.477867-13.858133 0.349867-18.3808-0.068267-2.432-1.7408-7.304533-1.297067-9.728 0.6656-3.643733 1.570133-7.722667 1.877333-10.7776l1.860267-18.670933c0.145067 0.213333 2.397867-3.959467 2.389333-5.060267l-0.196266-20.616533-0.341334-26.043733c-0.3072-23.202133-13.986133-35.652267-34.3808-42.990934l-25.454933-9.156266-26.965333-8.951467c-6.254933-2.0736-13.047467-5.162667-19.6352-7.825067-21.213867-8.558933-42.743467-16.324267-64.520534-23.7312-3.6096-1.2288-12.603733-6.971733-11.921066-8.260266l2.7136-5.162667 4.565333-8.6784c-7.005867-0.3584-11.477333 0.9984-15.4624 4.445867l-7.278933 6.306133-19.106134-1.732267c-0.4096-5.819733 8.789333 0.5888 17.2288-5.137066 1.6128-1.092267 2.116267-6.971733 1.297067-9.019734l-8.567467-21.393066c-2.158933-5.384533 1.979733-15.1808 1.928534-20.181334 0.341333 0.264533 1.4848 1.117867 1.672533 1.399467l13.0304 18.7904c3.387733 4.881067 8.661333 5.9904 13.713067 2.824533 2.3296-1.4592 8.0896-1.92 11.2384-1.4848 6.562133 0.904533-0.401067-4.983467 11.7248-18.824533 8.576-9.787733-0.554667-26.8288 12.663466-34.978133 23.483733-14.464 26.564267-17.006933 46.8992-35.080534l9.6512-8.584533 10.0096-2.0224 10.5216-5.3504zM577.562027 432.930133c-1.348267-3.84-1.979733-5.9648-2.551467-5.691733l-3.037867 1.425067c-3.328 1.5616-5.316267 11.741867-1.8688 13.627733 4.036267 2.2016 8.576-6.161067 7.458134-9.352533z" fill="#F3910E" /><path d="M870.963627 558.122667l-0.375467-14.190934c-0.1024-3.9424-0.964267-12.757333 0.725333-15.624533l3.669334-6.229333c2.414933-4.087467-0.170667-15.368533-1.134934-21.9136 1.749333-7.68 2.517333-18.449067-3.7376-23.415467l-5.973333-4.744533c14.5152-2.184533 29.2608-22.920533 41.873067-32.196267l-4.266667 5.3248-11.8528 14.7968c0.631467 9.7536-0.5632 16.6656-4.087467 23.697067l10.4704 0.042666 9.3184-11.784533c5.751467-7.261867 3.6352-15.786667 15.214934-26.436267 2.423467-2.2272 11.255467-0.768 14.446933-0.384l1.885867 10.973867c4.437333 25.8304-3.370667 7.202133 0.930133 33.015467 1.0752 6.4512 8.456533 15.991467 15.018667 14.600533l11.3664-2.414933c7.534933 0.6912 14.813867-0.580267 21.384533-5.0176l11.153067 5.853866 6.8608 11.511467c1.518933 2.551467 3.601067 6.382933 4.3776 8.4992s-3.822933 5.751467-6.0672 7.816533c-6.007467 5.5296 0.2304 11.511467-7.1168 19.072l-17.860267-3.157333c-9.4976-1.681067-7.082667-23.620267-14.865067-19.84-17.5104 8.4992-20.1472 1.962667-21.034666 9.463467l-1.553067 13.1072c-2.3296 19.694933-4.036267 16.401067-16.418133 26.530133-5.819733 4.7616-10.811733 9.437867-15.991467 14.3104l-12.279467 11.537067c-1.698133 1.595733-4.164267 3.217067-8.9088 6.493866-7.5008-10.3424 15.556267-29.320533-13.371733-44.253866-0.631467-1.518933-1.757867-3.8656-1.792-5.0432z" fill="#FAAD21" /><path d="M804.84736 438.9888l-15.701333-4.744533c2.389333 0.725333-26.641067-7.936-15.044267-9.5744l4.8128-0.674134c2.850133-0.401067 10.743467 0.8192 13.602133-0.093866l18.8672-5.9904c3.584-1.134933 9.659733-2.2016 13.730134-2.286934l14.173866-0.2816c3.8912-0.0768 11.229867-3.6864 16.008534-4.983466 10.581333-2.884267 22.954667 3.242667 28.424533 11.9808 2.1504 3.438933 2.1504 12.962133-0.597333 15.445333-3.345067 3.0208-8.507733 7.569067-10.461867 10.3168l-6.673067 9.386667c-8.311467-5.1968-11.946667-7.1168-19.524266-10.001067-43.938133-16.7168-27.0848-4.113067-41.617067-8.507733z" fill="#FCD654" /><path d="M864.026027 666.811733c-4.369067-6.536533-2.2528-16.776533 2.525866-23.0144l-1.5616 14.276267-0.955733 8.7296zM866.637227 676.360533c-0.580267-1.288533-1.8432-5.0432-2.491734-7.236266 0.904533 1.3056 1.988267 4.753067 2.491734 7.236266z" fill="#F3910E" /><path d="M739.277227 611.566933l-0.119467-25.6768h2.312533l0.196267 20.616534c0.008533 1.109333-2.244267 5.282133-2.389333 5.060266z" fill="#F9B73D" /><path d="M498.449493 280.021333c7.534933 0.341333 16.0768 1.390933 22.954667 4.445867 0.8704 3.234133 5.981867 10.427733 6.178133 14.148267l1.578667 29.9264 1.962667 18.824533 2.816 30.088533c0.674133 7.176533 1.553067 14.685867 1.621333 20.9408 0.0512 5.000533-4.087467 14.7968-1.928533 20.181334l8.567466 21.393066c0.8192 2.048 0.315733 7.927467-1.297066 9.019734-8.439467 5.725867-17.629867-0.682667-17.2288 5.137066l-2.295467 4.283734c-2.952533 0.648533-6.7072 2.090667-9.7536 3.754666l-9.6512 5.265067c-3.601067 1.962667-8.541867 4.2752-11.733333 6.263467l-24.576 15.240533c-5.4528 3.3792-11.281067 6.3744-16.443734 8.4736-1.032533-0.4096-1.1008-5.614933-0.119466-7.552l7.825066-15.428267c12.4416-24.533333-34.184533-28.424533-48.5632-34.952533l-13.192533-5.9904c-8.576-3.8912-17.834667-6.6304-26.453333-7.5008-0.1536-0.375467-1.6896-2.065067-2.5856-2.397867-11.989333-4.462933-35.336533-12.680533-48.5632-16.2304l-25.489067-6.843733c-3.6352-0.9728-6.997333-2.005333-9.6256-2.884267-0.3328-2.176-1.015467-5.026133-1.681067-6.766933 0.162133-0.759467 1.442133-5.333333 1.493334-7.048533l1.160533-36.497067c0.085333-2.7648 0.622933-6.468267 0.878933-9.258667l1.681067-18.295466c0.5888-6.434133 1.629867-13.755733-0.298667-19.498667-3.054933-9.088-6.126933-18.628267-6.391466-27.869867-0.571733-19.8912-1.194667-38.8352 0.042666-58.606933l0.7936-12.629333 3.5584 3.9936 23.236267 7.3728c4.8896 1.553067 13.329067 3.217067 17.262933 3.754666 9.122133-13.704533 4.2752-3.677867 22.715734-10.9312l12.475733-4.906666c4.522667-1.783467 13.730133-1.408 17.041067 1.4336 1.092267 0.938667 1.860267 6.442667 0.5376 7.0144l-6.186667 2.696533c-3.712 1.621333-10.0608 7.6032-12.689067 11.758933-3.362133 5.316267 14.958933 14.9504 23.5264 15.803734l19.797334 1.954133c9.130667 0.904533 21.7088 3.498667 30.293333 5.6832 2.6112 0.6656 8.311467 4.488533 10.5728 5.845333l21.7088 12.945067 13.354667 7.8592c6.3744 3.754667 14.2848 6.280533 21.085866 6.596267z" fill="#F07D09" /><path d="M500.43776 75.8016c0.827733 0.110933 5.009067 0.913067 6.340267 1.527467 16.443733 7.620267 34.218667 16.221867 51.780266 21.051733 9.463467 2.602667 20.693333 2.363733 28.125867 7.748267l11.938133 8.6528c2.696533 1.954133 12.279467-0.059733 15.701334 1.024l25.745066 8.1152c5.6832 1.792 14.173867 4.8896 18.013867 7.611733 1.28 0.904533 3.7632 3.054933 5.358933 3.857067l9.4976 4.778666c1.9968 1.006933 8.558933 0.324267 10.820267 1.109334l14.958933 5.162666c1.698133 7.108267 5.956267 10.103467 12.834134 11.144534l5.230933 11.630933c2.389333 2.688 5.4016 11.8784 2.1248 13.3888l-11.323733 5.2224c-7.765333-11.946667 2.952533-12.023467-2.2784-23.722667-12.381867 1.4592-5.307733 26.427733-11.776 23.876267l-10.9824-4.334933c-5.700267 5.845333-12.0576 10.222933-18.5344 15.112533-9.745067 7.355733-25.335467 28.859733-40.5504 25.489067l3.217066-13.4656 13.303467-3.328c6.3232-1.578667 15.5648-10.205867 19.208533-16.290134 1.902933-3.182933 4.642133-10.231467 7.466667-9.8048l12.1344 1.8176 5.3248-9.736533c1.109333-2.0224 2.295467-8.874667 0.170667-10.018133-8.849067-4.770133-25.088-13.627733-33.194667-5.137067-10.026667 10.487467 2.346667 7.3216-15.095467 22.920533l-10.410666 9.309867c-6.792533 6.075733-24.507733 3.2768-26.282667 12.672-2.696533 14.3104 3.6864 17.237333-3.9424 20.462933-19.9424 8.439467-14.711467 15.223467-23.159467 28.142934-0.904533 1.3824-2.4832 3.3024-1.792 3.541333l4.036267 1.408-12.987733 15.991467c-31.633067 1.5872-20.522667 20.4032-40.064 11.733333-6.8864-3.054933-15.428267-4.096-22.954667-4.445867-0.6912-0.5888-3.857067-2.688-5.546667-3.566933l-10.5728-5.521067c-0.7424-13.9008-13.969067-17.425067-11.861333-19.7376l2.781867-3.0464 9.122133-10.018133c2.474667-2.722133 8.413867-7.825067 11.118933-10.478933 1.083733-1.058133-0.1792-6.912-1.732266-6.852267l-4.855467 0.170667-15.889067 0.4096-18.6112 0.315733c2.670933-12.3136 8.448-11.5456 14.779734-29.457067l-0.878934-6.852266c-0.170667-1.3056-6.8352-0.256-7.714133 0.733866-10.222933 11.537067-26.641067 11.0592-38.365867-1.194666l-8.9344-9.335467-13.277866 7.1424c-4.206933 2.261333-10.743467 5.623467-14.813867 7.406933-4.189867-3.6864-8.661333-9.770667-9.838933-14.2848-4.642133-17.851733 21.9904-12.475733 14.5152-26.299733l-6.289067-11.630933 9.984-8.797867 12.817067-12.714667c3.2-3.1744 13.8752-3.669333 18.500266-4.983466 13.201067-3.746133 22.4512-4.078933 23.509334-11.741867s6.408533-15.573333 13.1584-12.9536c7.765333 3.003733 13.858133 4.9664 21.3248 6.929067l1.851733-10.9568c5.1712-3.012267 11.844267-5.768533 17.698133-6.877867z" fill="#FDC333" /><path d="M794.948693 263.645867l-10.461866-1.604267c-4.3264-0.6656-11.938133 5.307733-15.931734 7.8848l-20.4032 13.201067c-2.304 1.493333-7.773867 3.694933-10.990933 4.1216l-20.548267 2.747733c-2.491733 0.3328-8.686933 4.1216-10.282666 6.075733l-6.4256 9.7536c-2.218667 0.725333-8.644267 2.030933-11.0336 3.217067L676.69376 315.093333l-10.5216 5.3504-10.0096 2.0224-9.6512 8.584534c-20.3264 18.0736-23.415467 20.616533-46.8992 35.080533-13.218133 8.1408-4.087467 25.181867-12.663467 34.978133-12.125867 13.841067-5.162667 19.720533-11.7248 18.824534-3.1488-0.4352-8.9088 0.017067-11.2384 1.4848-5.051733 3.165867-10.325333 2.056533-13.713066-2.824534l-13.0304-18.7904c-0.196267-0.2816-1.339733-1.134933-1.672534-1.399466-0.068267-6.254933-0.955733-13.7728-1.621333-20.9408l-2.816-30.088534-1.962667-18.824533-1.578666-29.9264c-0.196267-3.720533-5.307733-10.9056-6.178134-14.148267 19.541333 8.6784 8.430933-10.1376 40.064-11.733333l12.987734-15.991467c1.792-0.298667 6.365867-1.6384 8.4224-2.9184l12.9024-8.029866c3.1232-1.9456 7.168-4.343467 9.6512-6.3232l11.869866-9.454934c1.8432-1.467733 4.898133-4.590933 6.161067-5.777066 15.214933 3.370667 30.805333-18.133333 40.5504-25.489067 6.4768-4.8896 12.834133-9.2672 18.5344-15.112533l10.9824 4.334933c6.468267 2.551467-0.605867-22.417067 11.776-23.876267 5.2224 11.690667-5.486933 11.767467 2.2784 23.722667l11.323733-5.2224c3.2768-1.5104 0.264533-10.709333-2.1248-13.3888l-5.230933-11.630933c-6.877867-1.041067-11.136-4.036267-12.834133-11.144534l-14.958934-5.162666c-2.261333-0.776533-8.823467-0.1024-10.820266-1.109334l-9.4976-4.778666c-1.595733-0.802133-4.078933-2.952533-5.358934-3.857067 0.4352 0.0512 3.3024 0.477867 4.155734 0.7424l26.837333 8.174933c8.388267 2.551467 18.935467 5.521067 25.301333 11.477334 13.320533 12.458667 9.1392 40.081067 6.7328 56.3712L719.360427 220.202667l-2.926934 21.3248c-0.733867 5.367467 11.4176 32.443733 11.4176 32.443733 3.217067 4.616533 15.044267 4.573867 20.3008 1.851733l28.074667-14.532266c6.084267-3.1488 14.532267-2.56 18.7136 2.363733z" fill="#F9B73D" /><path d="M500.43776 75.8016c-5.853867 1.109333-12.526933 3.874133-17.698133 6.877867l-1.851734 10.9568c-7.466667-1.9712-13.559467-3.925333-21.3248-6.929067-6.7584-2.619733-12.0832 5.111467-13.1584 12.9536s-10.299733 7.995733-23.509333 11.741867c-4.625067 1.314133-15.300267 1.800533-18.500267 4.983466l-12.817066 12.714667-9.984 8.797867 6.289066 11.630933c7.4752 13.824-19.165867 8.456533-14.5152 26.299733 1.1776 4.514133 5.649067 10.5984 9.838934 14.2848 4.0704-1.783467 10.606933-5.1456 14.813866-7.406933l13.277867-7.1424 8.9344 9.335467c11.716267 12.253867 28.142933 12.731733 38.365867 1.194666 0.878933-0.989867 7.552-2.048 7.714133-0.733866l0.878933 6.852266c-6.331733 17.911467-12.1088 17.143467-14.779733 29.457067l18.6112-0.315733 15.889067-0.4096 4.855466-0.170667c1.553067-0.0512 2.807467 5.802667 1.732267 6.852267-2.705067 2.645333-8.644267 7.7568-11.118933 10.478933l-9.122134 10.018133-2.781866 3.0464c-2.116267 2.312533 11.118933 5.8368 11.861333 19.7376l10.5728 5.521067c1.6896 0.878933 4.855467 2.978133 5.546667 3.566933-6.801067-0.315733-14.711467-2.8416-21.085867-6.596266l-13.354667-7.8592-21.7088-12.945067c-2.261333-1.348267-7.9616-5.179733-10.5728-5.845333-8.593067-2.184533-21.162667-4.778667-30.293333-5.6832l-19.797333-1.954134c-8.576-0.8448-26.888533-10.478933-23.5264-15.803733 2.619733-4.155733 8.977067-10.1376 12.689066-11.758933l6.186667-2.696534c1.322667-0.580267 0.5632-6.075733-0.5376-7.0144-3.3024-2.833067-12.509867-3.208533-17.041067-1.4336l-12.475733 4.906667c-18.440533 7.253333-13.5936-2.781867-22.715733 10.9312-3.933867-0.5376-12.373333-2.2016-17.262934-3.754667l-23.236266-7.3728-3.5584-3.9936 0.3072-4.1728 2.517333-4.957866c1.783467-2.594133 5.998933-7.739733 8.891733-9.326934l10.615467-5.819733c10.3424-5.674667 19.106133-12.842667 28.7488-19.694933l20.625067-14.660267c8.021333-5.700267 6.801067-13.508267 30.2848-26.564267l18.1248-10.069333c10.112-5.614933 20.334933-10.606933 29.738666-17.058133 23.9872-16.452267 40.6272-27.997867 70.434134-13.013334z m-83.626667 149.512533l-5.179733-6.417066c-0.682667-0.836267-5.512533 2.619733-4.718933 3.396266l6.8864 6.698667c0.8192-0.2816 2.389333-2.2528 3.003733-3.6864z" fill="#F9AF1E" /><path d="M280.45696 196.974933c0.110933-1.536 1.646933-3.694933 2.517333-4.957866l-2.517333 4.957866z" fill="#F07D09" /><path d="M368.734293 425.975467l-2.5856-2.397867c0.896 0.3328 2.432 2.0224 2.5856 2.397867z" fill="#FDAC1A" /><path d="M623.462827 224.238933c-1.262933 1.186133-4.3264 4.317867-6.161067 5.777067l-11.869867 9.454933c-2.491733 1.979733-6.536533 4.386133-9.6512 6.3232l-12.9024 8.029867c-2.056533 1.28-6.6304 2.628267-8.4224 2.9184l-4.036266-1.408c-0.6912-0.238933 0.887467-2.158933 1.792-3.541333 8.448-12.919467 3.217067-19.712 23.159466-28.142934 7.620267-3.2256 1.237333-6.161067 3.9424-20.462933 1.774933-9.3952 19.490133-6.596267 26.282667-12.672l10.410667-9.309867c17.442133-15.598933 5.0688-12.4416 15.095466-22.920533 8.1152-8.482133 24.354133 0.375467 33.194667 5.137067 2.1248 1.143467 0.938667 7.995733-0.170667 10.018133l-5.3248 9.736533-12.1344-1.8176c-2.824533-0.426667-5.563733 6.6304-7.466666 9.8048-3.643733 6.0928-12.885333 14.711467-19.208534 16.290134l-13.303466 3.328-3.217067 13.4656z" fill="#FDDB5E" /><path d="M416.811093 225.314133c-0.622933 1.425067-2.184533 3.396267-3.003733 3.6864l-6.8864-6.698666c-0.7936-0.776533 4.036267-4.241067 4.718933-3.396267l5.179734 6.417067z" fill="#FDC333" /><path d="M577.562027 432.930133c1.117867 3.191467-3.421867 11.554133-7.458134 9.352534-3.447467-1.885867-1.4592-12.066133 1.8688-13.627734l3.037867-1.425066c0.571733-0.264533 1.2032 1.851733 2.551467 5.691733z" fill="#F9B73D" /></svg>