<?xml version="1.0" standalone="no"?><!DOCTYPE svg PUBLIC "-//W3C//DTD SVG 1.1//EN" "http://www.w3.org/Graphics/SVG/1.1/DTD/svg11.dtd"><svg t="1778769462251" class="icon" viewBox="0 0 1024 1024" version="1.1" xmlns="http://www.w3.org/2000/svg" p-id="3243" xmlns:xlink="http://www.w3.org/1999/xlink" width="256" height="256"><path d="M729.24 534.46c-8.12-3.6-10.79-13.89-5.05-20.67 10.29-12.15 16.51-27.83 16.51-44.9 0-27.21-15.81-50.9-38.69-62.35-7.53-3.77-9.71-13.54-4.43-20.1 9.6-11.94 15.36-27.08 15.36-43.51 0-38.33-31.36-69.7-69.7-69.7-6.48 0-12.08-4.67-13.09-11.07-8.13-51.57-52.77-91.01-106.63-91.01s-98.5 39.44-106.63 91.01c-1.01 6.4-6.61 11.07-13.09 11.07-38.33 0-69.7 31.36-69.7 69.7 0 16.42 5.76 31.56 15.36 43.51 5.28 6.56 3.1 16.33-4.43 20.1-22.88 11.46-38.69 35.14-38.69 62.35 0 17.07 6.22 32.75 16.51 44.9 5.74 6.78 3.07 17.07-5.05 20.67-24.46 10.84-41.64 35.38-41.64 63.75 0 38.33 31.36 69.7 69.7 69.7l177.66 126.88 177.66-126.88c38.33 0 69.7-31.36 69.7-69.7 0-28.37-17.18-52.9-41.64-63.75z" fill="#FFDB53" p-id="3244"></path><path d="M447 420.67a21.85 24.51 0 1 0 43.7 0 21.85 24.51 0 1 0-43.7 0Z" p-id="3245"></path><path d="M558.91 420.67a21.85 24.51 0 1 0 43.7 0 21.85 24.51 0 1 0-43.7 0Z" p-id="3246"></path><path d="M525.33 538.15c-23.97 0-45.86-12.16-58.56-32.53-3.65-5.86-1.87-13.57 3.99-17.22 5.86-3.65 13.57-1.87 17.22 3.99 8.11 13 22.07 20.76 37.35 20.76s29.24-7.76 37.35-20.76c3.65-5.86 11.36-7.65 17.22-3.99 5.86 3.65 7.65 11.36 3.99 17.22-12.7 20.37-34.6 32.53-58.56 32.53z" p-id="3247"></path><path d="M701.19 679.61c-6.9 0-12.5-5.6-12.5-12.5s5.6-12.5 12.5-12.5c31.54 0 57.2-25.66 57.2-57.2 0-22.57-13.43-43.11-34.21-52.32-7.5-3.33-13.07-10.06-14.9-18.02-1.81-7.9 0.15-15.98 5.37-22.15 8.74-10.32 13.55-23.4 13.55-36.83 0-21.75-12.18-41.36-31.78-51.18-7-3.51-11.97-9.9-13.64-17.55-1.66-7.62 0.18-15.48 5.06-21.56 8.25-10.26 12.6-22.6 12.6-35.68 0-31.54-25.66-57.2-57.2-57.2-12.76 0-23.46-9.09-25.43-21.62-3.5-22.2-14.86-42.56-31.98-57.33-17.3-14.92-39.42-23.13-62.3-23.13s-45 8.22-62.3 23.13c-17.12 14.77-28.48 35.13-31.98 57.33-1.98 12.53-12.67 21.62-25.43 21.62-31.54 0-57.2 25.66-57.2 57.2 0 13.08 4.36 25.42 12.6 35.68 4.88 6.07 6.73 13.93 5.06 21.56-1.67 7.65-6.64 14.05-13.64 17.55-19.6 9.82-31.78 29.43-31.78 51.18 0 13.43 4.81 26.51 13.55 36.83 5.23 6.17 7.19 14.25 5.37 22.15-1.83 7.96-7.4 14.7-14.9 18.02-20.78 9.21-34.21 29.75-34.21 52.32 0 31.54 25.66 57.2 57.2 57.2 6.9 0 12.5 5.6 12.5 12.5s-5.6 12.5-12.5 12.5c-45.32 0-82.2-36.87-82.2-82.2 0-32.45 19.26-61.96 49.08-75.17 0.45-0.2 0.61-0.52 0.66-0.76 0.06-0.24 0-0.31-0.09-0.41-12.55-14.83-19.47-33.64-19.47-52.98 0-31.27 17.47-59.45 45.59-73.53 0.1-0.05 0.33-0.17 0.41-0.53 0.07-0.32-0.06-0.48-0.13-0.57-11.68-14.54-18.12-32.77-18.12-51.34 0-45.32 36.87-82.2 82.2-82.2 0.36 0 0.7-0.24 0.74-0.52 4.42-28.04 18.75-53.74 40.35-72.37 21.83-18.83 49.76-29.2 78.63-29.2s56.79 10.37 78.63 29.2c21.6 18.63 35.93 44.33 40.35 72.37 0.04 0.28 0.38 0.52 0.74 0.52 45.32 0 82.2 36.87 82.2 82.2 0 18.57-6.43 36.8-18.12 51.34-0.07 0.09-0.2 0.24-0.13 0.57 0.08 0.36 0.31 0.48 0.41 0.53 28.12 14.08 45.59 42.26 45.59 73.53 0 19.34-6.91 38.15-19.47 52.98-0.09 0.1-0.14 0.17-0.09 0.41 0.05 0.24 0.21 0.56 0.66 0.76 29.81 13.21 49.08 42.72 49.08 75.17 0 45.32-36.87 82.2-82.2 82.2z" p-id="3248"></path><path d="M259.02 618.07c-16.97 0-29.22 16.37-24.32 32.62 37.4 124.08 152.56 214.46 288.83 214.46s251.43-90.38 288.83-214.46c4.9-16.25-7.35-32.61-24.32-32.62-91.54 0-173.56 40.78-228.87 105.17-18.67 21.73-52.6 21.73-71.28 0-55.32-64.39-137.33-105.17-228.87-105.17z" fill="#879D4B" p-id="3249"></path><path d="M523.53 877.65c-68.91 0-134.32-21.9-189.16-63.32a315.297 315.297 0 0 1-68.31-70.81c-19.22-27.45-33.84-57.57-43.44-89.55-3.45-11.47-1.32-23.58 5.84-33.2 7.18-9.65 18.19-15.2 30.22-15.2h0.33c92.11 0 179.25 40.23 239.09 110.38 6.39 7.49 15.65 11.78 25.43 11.78s19.04-4.29 25.43-11.78c59.83-70.15 146.98-110.38 239.09-110.38h0.32c12.03 0 23.04 5.55 30.22 15.2 7.16 9.63 9.29 21.73 5.84 33.2-9.6 31.97-24.21 62.1-43.44 89.55a315.29 315.29 0 0 1-68.31 70.81c-54.84 41.42-120.25 63.32-189.16 63.32zM258.7 630.57c-4.04 0-7.75 1.87-10.17 5.12-2.4 3.22-3.11 7.27-1.96 11.1 17.5 58.29 54.04 110.71 102.87 147.6 50.46 38.12 110.66 58.27 174.09 58.27s123.62-20.15 174.09-58.27c48.83-36.89 85.37-89.31 102.87-147.6 1.15-3.83 0.44-7.88-1.96-11.1-2.42-3.25-6.12-5.12-10.17-5.12h-0.32c-84.78 0-164.99 37.03-220.07 101.6-11.14 13.06-27.34 20.56-44.45 20.56s-33.3-7.49-44.45-20.56C423.99 667.6 343.78 630.57 259 630.57h-0.32z" p-id="3250"></path></svg>