<?xml version="1.0" standalone="no"?><!DOCTYPE svg PUBLIC "-//W3C//DTD SVG 1.1//EN" "http://www.w3.org/Graphics/SVG/1.1/DTD/svg11.dtd"><svg t="1778769510734" class="icon" viewBox="0 0 1024 1024" version="1.1" xmlns="http://www.w3.org/2000/svg" p-id="3598" xmlns:xlink="http://www.w3.org/1999/xlink" width="256" height="256"><path d="M699.42 675.3c54.27-64.68 88.5-153.04 88.5-231.09C787.92 299.95 670.97 183 526.71 183S265.5 299.95 265.5 444.21c0 78.22 34.38 166.8 88.86 231.51-12.18 4.33-24.06 11.69-34.33 21.97-30.62 30.62-35.46 75.42-10.82 100.07 24.65 24.65 69.45 19.8 100.07-10.82 1.03-1.03 2.02-2.08 2.99-3.14 1.4 24.91 14.03 46.33 34.97 54.66 28.68 11.41 62.91-5.71 80.25-38.64 17.34 32.93 51.57 50.05 80.25 38.64 20.94-8.33 33.57-29.76 34.97-54.66 0.97 1.06 1.96 2.11 2.99 3.14 30.62 30.62 75.42 35.46 100.07 10.82 24.65-24.65 19.8-69.45-10.82-100.07-10.62-10.62-22.94-18.13-35.53-22.39z" fill="#8D87C7" p-id="3599"></path><path d="M465.91 854.52c-7.91 0-15.77-1.44-23.29-4.44-18.2-7.24-31.84-22.55-38.49-42.47-13.95 9.93-29.73 16.15-45.79 17.89-22.74 2.46-43.33-4.26-57.98-18.9-14.65-14.65-21.36-35.24-18.9-57.98 2.35-21.73 12.9-42.95 29.72-59.77 3.67-3.67 7.62-7.1 11.72-10.18 6.12-4.6 7.51-13 3.15-19.12-45.74-64.33-73.06-144.83-73.06-215.34s28.47-141.85 80.17-193.54c51.7-51.7 120.43-80.17 193.54-80.17s141.85 28.47 193.54 80.17c51.7 51.7 80.17 120.43 80.17 193.54s-27.11 150.4-72.52 214.58c-4.38 6.2-2.92 14.65 3.33 19.25 4.41 3.25 8.64 6.88 12.56 10.81 16.82 16.82 27.37 38.05 29.72 59.77 2.46 22.74-4.26 43.33-18.9 57.98-14.65 14.65-35.24 21.36-57.98 18.9-16.06-1.74-31.85-7.96-45.79-17.88-6.65 19.91-20.28 35.22-38.48 42.46-7.52 2.99-15.38 4.44-23.29 4.44-22.26 0-44.91-11.44-61.58-32.06-16.67 20.61-39.32 32.06-61.58 32.06z m-55.26-80.7c1.61 0 3.24 0.27 4.82 0.83 5.29 1.86 8.96 6.48 9.57 12.06 2.12 19.3 12.14 34.31 26.81 40.14 19.2 7.64 42.65-1.57 58.35-22.92 4.03-5.48 10.49-8.76 17.27-8.76s13.24 3.27 17.27 8.76c15.7 21.35 39.15 30.56 58.35 22.92 14.67-5.84 24.7-20.84 26.81-40.14 0.61-5.58 4.28-10.21 9.57-12.06 5.28-1.85 11.01-0.55 14.98 3.4l0.02 0.02 0.03 0.03c25.7 25.7 62.66 30.55 82.39 10.82 19.73-19.73 14.88-56.69-10.82-82.39-3.03-3.04-6.3-5.84-9.7-8.35-17.33-12.75-21.25-36.4-8.92-53.83 42.53-60.12 67.93-134.94 67.93-200.14s-25.87-128.89-72.85-175.86S593.1 195.5 526.67 195.5s-128.89 25.87-175.86 72.85c-46.98 46.98-72.85 109.43-72.85 175.86s25.58 140.59 68.43 200.85c12.27 17.26 8.53 40.81-8.52 53.61a84.92 84.92 0 0 0-9.05 7.86c-25.7 25.7-30.55 62.66-10.82 82.39s56.7 14.88 82.39-10.82c2.8-2.8 6.46-4.28 10.22-4.28z" p-id="3600"></path><path d="M449 472.67a21.85 24.51 0 1 0 43.7 0 21.85 24.51 0 1 0-43.7 0Z" p-id="3601"></path><path d="M560.91 472.67a21.85 24.51 0 1 0 43.7 0 21.85 24.51 0 1 0-43.7 0Z" p-id="3602"></path><path d="M527.33 590.15c-23.97 0-45.86-12.16-58.56-32.53-3.65-5.86-1.87-13.57 3.99-17.22 5.86-3.65 13.57-1.87 17.22 3.99 8.11 13 22.07 20.76 37.35 20.76s29.24-7.76 37.35-20.76c3.65-5.86 11.36-7.65 17.22-3.99 5.86 3.65 7.65 11.36 3.99 17.22-12.7 20.37-34.59 32.53-58.56 32.53z" p-id="3603"></path></svg>