<?xml version="1.0" standalone="no"?><!DOCTYPE svg PUBLIC "-//W3C//DTD SVG 1.1//EN" "http://www.w3.org/Graphics/SVG/1.1/DTD/svg11.dtd"><svg class="icon" width="256px" height="256.00px" viewBox="0 0 1024 1024" version="1.1" xmlns="http://www.w3.org/2000/svg"><path d="M736.989867 818.158933l6.510933-6.510933c-1.339733 4.9408-3.985067 4.48-6.510933 6.510933z" fill="#F1E6D7" /><path d="M275.012267 317.141333l-6.997334 19.0208c-33.809067 11.1616-67.601067 22.3744-100.369066 36.283734C112.042667 396.040533 21.6576 437.7088 31.061333 510.660267c1.211733 9.4208 6.016 14.481067 9.7024 21.205333 49.9968 90.948267 212.573867 123.682133 307.387734 136.695467 110.4128 15.163733 230.792533 17.092267 341.6064-0.110934 76.305067-11.844267 260.992-58.6496 291.234133-136.584533 2.286933 0.256 2.986667-1.160533 3.2512-3.2512 0.136533-1.0496-0.042667-2.176 0-3.2512 17.2288-17.6384 9.847467-49.527467-0.469333-69.4784-10.197333-19.712-38.3488-41.344-56.891734-53.717333-8.669867-5.7856-20.778667-12.6976-30.472533-16.699734-21.230933-17.390933-48.170667-23.005867-68.232533-37.504-12.040533-8.695467-8.738133-12.032-9.847467-24.311466 6.050133 3.515733-0.989867 7.3728 7.893333 9.924266 70.826667 20.334933 187.281067 66.747733 196.992 151.1936 2.986667 25.966933-2.9952 40.738133-9.685333 63.36l-9.796267 8.106667c-69.000533 80.1792-177.8688 107.4688-277.691733 132.224-40.533333 52.753067-91.195733 93.678933-152.695467 120.593067-8.430933 3.6864-32.5632 14.6176-39.688533 15.616-24.064 3.362133-54.826667-2.474667-79.709867 0-44.194133-3.780267-83.712-7.825067-127.761066-17.015467-10.9056-2.2784-22.570667-7.048533-33.314134-8.9856-10.368-1.8688-8.430933 1.698133-8.098133 9.736533-2.773333-4.181333-3.84-7.517867-6.306133-11.5968C144.529067 765.824 31.701333 662.664533 2.346667 526.3616c-12.424533-57.659733 26.4704-101.9648 71.108266-132.6336 46.208-31.744 110.276267-56.021333 164.829867-69.410133 12.032-2.952533 25.1904-2.295467 36.736-7.185067z" fill="#F6F2E6" /><path d="M1013.5296 548.130133c-37.0432 125.2864-137.531733 214.331733-262.135467 250.350934-8.891733 2.568533-1.851733 6.391467-7.893333 9.924266 0.4608-5.563733 2.346667-10.820267-4.932267-9.8304-13.1072 1.783467-31.291733 11.374933-45.610666 12.970667-78.523733 13.730133-160.1024 19.882667-239.0016 13.1328 24.8832-2.474667 55.645867 3.362133 79.709866 0 7.133867-0.9984 31.2576-11.9296 39.688534-15.616 61.4912-26.9056 112.162133-67.84 152.695466-120.593067 99.822933-24.7552 208.699733-52.0448 277.691734-132.224l9.796266-8.106666z" fill="#F1E6D7" /><path d="M453.947733 824.661333c78.907733 6.749867 160.477867 0.597333 239.0016-13.1328 14.318933-1.595733 32.503467-11.1872 45.610667-12.970666 7.278933-0.989867 5.393067 4.2752 4.932267 9.8304-0.093867 1.1264 0.238933 2.363733 0 3.2512l-6.510934 6.510933c-10.094933 8.106667-20.232533 10.999467-32.443733 14.728533-93.824 28.689067-199.125333 28.066133-294.621867 14.651734-29.312-4.113067-109.192533-15.044267-125.149866-39.1424-0.3328-8.029867-2.269867-11.605333 8.098133-9.736534 10.752 1.937067 22.417067 6.7072 33.314133 8.9856 44.040533 9.1904 83.5584 13.2352 127.761067 17.015467z" fill="#E9DBCA" /><path d="M275.012267 317.141333c8.686933-14.276267 23.287467-22.997333 38.912-27.784533 32.631467-9.992533 74.24-3.456 102.152533-21.469867 36.539733-23.586133-1.041067-46.1312-4.386133-72.797866-1.501867-11.989333 3.805867-16.9728 6.596266-27.537067l9.378134 0.119467c9.173333 21.888 42.4192 35.259733 64.4864 41.301333 46.3616 12.706133 91.246933 1.152 135.227733 11.170133 11.298133 2.577067 28.663467 8.832 38.024533 15.650134-4.573867-1.322667-13.687467-0.443733-19.524266-3.2512-6.971733 19.328 15.735467 30.702933 26.094933 43.861333 35.541333 45.1328 8.482133 86.050133-27.648 118.869333l-37.4784 25.9584c13.9008-2.722133 29.354667-8.925867 42.350933-14.574933 11.3152-4.9152 29.431467-12.586667 38.903467-19.6608 9.378133-7.005867 34.184533-33.297067 37.666133-43.665067 3.780267-11.264 4.061867-25.608533 0.878934-37.0176-5.802667-20.846933-25.4976-44.296533-41.728-57.4976 6.365867-0.7168 8.567467 5.700267 14.5664 6.587734 14.651733 2.167467 33.408 0.0768 48.827733 3.217066 32.1024 6.545067 53.768533 22.1696 66.7392 52.010667l0.3584 7.739733 2.8928 2.0224c0.0768 1.0752-0.093867 2.176 0 3.2512 1.109333 12.288-2.193067 15.616 9.847467 24.311467 20.061867 14.498133 47.0016 20.113067 68.232533 37.504 12.8256 10.504533 10.6496 12.8512 17.928533 22.741333 11.7504 15.957333 28.228267 28.987733 40.635734 45.585067-12.6464-8.6528-3.729067 7.569067-3.310934 11.434667 8.507733 79.837867-123.4688 129.271467-184.4224 147.310933-6.365867 1.885867-14.4896 2.304-20.48 3.925333l6.272-17.5104c-6.357333-17.834667-41.4208-1.527467-45.0816 9.685334-2.6624 8.149333 7.927467 16.247467 16.042667 14.327466-54.442667 13.422933-114.321067 15.069867-170.734933 19.575467-44.842667 3.575467-94.5152-2.645333-140.023467-6.493867-89.6-7.5776-186.939733-23.7056-267.3408-67.754666-38.519467-21.102933-76.9536-52.5056-69.3248-101.486934-5.742933 5.4016-18.500267 14.148267-22.766933 19.524267 20.565333-27.9808 45.832533-53.9904 74.973866-73.053867 7.1424-4.676267 18.167467-7.7568 24.277334-14.762666 5.009067-5.742933 5.956267-19.6352 14.6176-26.052267 32.768-13.909333 66.56-25.122133 100.369066-36.283733l6.997334-19.0208z m152.917333 16.256c33.928533 11.246933 71.569067 9.147733 102.033067-10.1888 13.952-8.866133 25.5232-18.261333 21.179733-36.573866-8.328533-11.2128-20.974933-21.418667-35.370667-21.538134 2.602667 17.314133-3.1232 29.5168-16.418133 40.516267-14.378667 11.895467-37.504 21.563733-56.098133 21.981867l-15.317334 5.8112z m185.4464-32.529066c-2.005333 9.105067-13.7472 19.925333-21.0944 26.094933-37.5552 31.547733-101.486933 48.9984-149.5808 52.130133-37.6064 2.449067-134.280533 4.215467-162.8672-19.601066-5.768533-4.804267-14.8736-25.642667-22.766933-13.1328-9.207467 14.583467 21.8368 38.7584 33.1008 45.090133 45.482667 25.591467 144.085333 28.7232 194.619733 19.968 38.971733-6.749867 121.796267-34.389333 139.8272-71.645867 3.780267-7.816533 7.330133-17.570133 3.387733-25.890133-1.442133-3.037867-11.4432-17.2544-14.6176-13.013333z m71.560533 214.724266c13.858133-28.842667-24.029867-21.486933-37.572266-9.924266l-1.348267 11.434666c1.8176 6.485333 19.950933 6.058667 25.9072 5.000534l-4.736 12.868266c17.3056 0.878933 34.397867 0.290133 51.234133-3.7888 41.975467-10.1632 93.115733-37.8368 117.6576-74.2912 9.122133-13.559467 18.8672-33.809067 18.244267-50.3296-0.443733-11.707733-11.9808-24.362667-19.712-32.6656-28.663467-1.621333-16.196267 17.7664-20.061867 35.4304-9.565867 43.6736-90.845867 91.1104-129.604266 106.2656z m83.234134-139.665066c-13.073067 2.244267-47.061333 39.68-60.603734 50.056533-6.656 5.0944-15.744 11.648-22.673066 16.366933-3.626667 2.466133-20.795733 5.102933-14.677334 14.728534 4.8128 7.5776 14.498133 4.471467 22.1696 2.525866 20.539733-5.213867 57.088-27.0592 70.6816-43.178666 1.9712-2.338133 12.253867-15.726933 12.544-16.733867 1.860267-6.3488 2.133333-25.412267-7.4496-23.765333z m-510.839467 26.018133c-2.747733 0.785067-5.614933 4.744533-5.2736 7.9104-0.341333 4.983467 2.8416 13.0048 6.656 16.290133 1.902933 1.6384 25.1136 11.2128 27.690667 11.4432 12.347733 1.1008 14.609067-7.364267 6.536533-16.384-1.7152-1.911467-19.857067-17.314133-21.0944-17.9456-4.027733-2.048-10.333867-2.517333-14.5152-1.314133z m-57.489067 44.996267c4.352-8.721067 3.643733-16.008533-4.864-22.109867-18.525867-5.376-36.599467 14.933333-21.9392 21.930667 10.410667 4.957867 16.273067 2.679467 26.8032 0.1792z m-59.562666 3.8656c-2.875733 0.827733-5.717333 4.5568-5.2992 7.8336-1.1008 14.353067 19.524267 24.183467 31.172266 14.779733 7.5264-18.705067-8.968533-27.485867-25.873066-22.621867z m462.3872 0.4096c-9.6512 1.390933-25.344 6.784-33.860267 11.690666-3.592533 2.065067-8.2944 3.456-7.492267 8.7552 1.211733 4.0704 17.621333 7.1424 21.751467 7.492267 3.566933 0.298667 7.594667-2.577067 12.279467-2.747733 12.663467-0.477867 28.859733 4.096 36.0192-9.506134 8.900267-16.913067-17.408-17.3056-28.689067-15.675733z m-188.8768 3.080533c-6.5536 1.4592-17.2288 9.207467-14.916267 17.066667 9.634133 18.312533 36.5312 14.481067 38.5792-5.888-6.9632-9.105067-11.4432-13.892267-23.662933-11.178667z m-28.168534 28.757333c7.338667-17.408-22.6304-26.811733-26.018133-14.626133-3.4816 12.509867 17.339733 16.392533 26.018133 14.626133z m84.590934 16.2816c-28.0832-10.9312-57.326933-4.48-86.357334-6.3744-17.544533-1.143467-36.983467-7.8848-55.108266-6.7072l-40.712534-9.7024c-1.7408 9.642667 2.705067 5.051733 7.415467 7.1168 42.5728 18.5856 108.535467 33.774933 153.693867 25.4976 8.686933-1.5872 16.6144 2.244267 21.0688-9.8304z m-253.764267 19.515734l19.515733-11.409067c3.131733-10.845867-26.717867-8.866133-34.082133-8.046933-8.7808 0.981333-23.1936 4.411733-24.584533 14.498133-3.157333 22.929067 29.047467 26.5984 45.661866 24.465067 1.681067-9.070933-1.655467-12.868267-6.510933-19.5072z m581.282133-5.9648c-11.630933 2.4832-16.0768 9.531733-5.3504 17.262933 11.332267 8.1664 32.4352 7.662933 42.205867-3.191467-4.164267-15.104-23.645867-16.896-36.855467-14.071466z m-520.8064 25.762133c-4.3776 1.262933-6.237867 6.4-4.8896 10.8288 3.242667 10.709333 33.442133 22.161067 41.9072 9.915733 4.992-17.937067-24.354133-24.3968-37.0176-20.744533z m124.893867 6.306133c-11.101867-3.242667-22.894933-7.671467-30.916267 3.072l-1.220266 11.144534c11.7248 18.466133 35.182933 5.3248 32.136533-14.216534z m392.576 0.375467c-3.2256 0.776533-17.2032 7.1424-20.1216 9.173333-22.280533 15.505067 8.7296 30.685867 23.022933 19.771734 9.685333-7.389867 17.7408-19.643733 6.229334-29.2608-3.089067-0.546133-6.101333-0.4096-9.1392 0.315733z m-181.248 16.017067c-21.000533-4.795733-38.690133 12.074667-22.724267 30.865066l20.898134 1.0496c15.6416-8.8832 5.8112-19.208533 1.826133-31.914666z m103.739733 28.5184c1.348267-1.399467 4.898133-9.9584 2.3552-12.4928-14.609067-14.762667-35.456-11.195733-47.223466 5.12 3.140267 13.252267 22.186667 17.348267 33.595733 13.969066 0.622933-0.187733 10.820267-6.126933 11.272533-6.596266z m-363.793066 3.8144c-1.109333 25.591467 52.881067 34.517333 44.0832 3.080533-13.5168-8.388267-29.2864-8.046933-44.0832-3.080533z" fill="#FBCE78" /><path d="M665.4208 235.8016c7.1168 2.048 13.8496 8.3968 19.524267 13.013333 16.2304 13.2096 35.925333 36.6592 41.728 57.4976 3.1744 11.409067 2.901333 25.762133-0.878934 37.0176-3.4816 10.376533-28.288 36.6592-37.666133 43.665067-9.472 7.074133-27.588267 14.737067-38.903467 19.6608-12.996267 5.649067-28.450133 11.8528-42.350933 14.574933l37.4784-25.9584c36.130133-32.8192 63.189333-73.736533 27.648-118.869333-10.359467-13.1584-33.066667-24.533333-26.094933-43.861333 5.8368 2.807467 14.9504 1.937067 19.524266 3.2512z" fill="#F2BB57" /><path d="M818.3296 320.392533l-2.8928-2.0224-0.3584-7.739733c1.4848 3.4048 2.688 2.141867 3.2512 9.762133z" fill="#F6F2E6" /><path d="M954.965333 453.777067c15.914667 21.2992 30.3872 44.228267 29.277867 71.5776-0.042667 1.0752 0.136533 2.2016 0 3.2512-2.432-0.136533-2.568533 1.493333-3.2512 3.2512-30.242133 77.934933-214.929067 124.740267-291.234133 136.584533-110.813867 17.2032-231.1936 15.274667-341.6064 0.110933-94.813867-13.021867-257.3824-45.7472-307.387734-136.695466-2.082133-14.3104 4.087467-34.295467 13.013334-45.550934 4.266667-5.376 17.024-14.122667 22.766933-19.524266-7.637333 48.981333 30.7968 80.384 69.3248 101.486933 80.401067 44.049067 177.7408 60.177067 267.3408 67.754667 45.508267 3.848533 95.1808 10.069333 140.023467 6.493866 56.4224-4.5056 116.292267-6.152533 170.734933-19.575466 7.68-1.8944 15.2064-4.471467 22.775467-6.510934 5.9904-1.6128 14.114133-2.039467 20.48-3.925333 60.945067-18.039467 192.9216-67.473067 184.4224-147.310933-0.4096-3.874133-9.326933-20.087467 3.310933-11.434667z" fill="#EEB659" /><path d="M613.376 300.868267c3.1744-4.241067 13.175467 9.975467 14.6176 13.013333 3.950933 8.32 0.401067 18.0736-3.387733 25.890133-18.0224 37.256533-100.855467 64.896-139.8272 71.645867-50.5344 8.7552-149.137067 5.623467-194.619734-19.968-11.264-6.340267-42.308267-30.506667-33.1008-45.090133 7.893333-12.509867 17.006933 8.328533 22.766934 13.1328 28.586667 23.816533 125.2608 22.050133 162.8672 19.601066 48.093867-3.131733 112.0256-20.5824 149.5808-52.130133 7.3472-6.178133 19.0976-16.989867 21.0944-26.094933z" fill="#EFB753" /><path d="M671.9232 522.103467c3.370667-0.605867 8.900267-4.898133 13.013333-6.510934 38.749867-15.1552 120.0384-62.600533 129.604267-106.2656 3.874133-17.664-8.6016-37.051733 20.061867-35.4304 7.739733 8.311467 19.2768 20.9664 19.712 32.6656 0.622933 16.512-9.122133 36.770133-18.244267 50.3296-24.541867 36.4544-75.682133 64.128-117.6576 74.2912-16.836267 4.078933-33.92 4.667733-51.234133 3.7888l4.736-12.868266z" fill="#F0B95C" /><path d="M53.7856 486.314667c-8.925867 11.255467-15.104 31.240533-13.013333 45.550933-3.694933-6.715733-8.490667-11.784533-9.7024-21.205333-9.403733-72.951467 80.989867-114.619733 136.584533-138.2144-8.661333 6.417067-9.6 20.309333-14.6176 26.052266-6.109867 7.005867-17.134933 10.0864-24.277333 14.762667-29.149867 19.063467-54.408533 45.073067-74.973867 73.053867z" fill="#E1D3C2" /><path d="M427.9296 333.397333l15.317333-5.8112c18.594133-0.4096 41.719467-10.077867 56.098134-21.981866 13.294933-10.999467 19.0208-23.202133 16.418133-40.516267 14.404267 0.119467 27.042133 10.333867 35.370667 21.538133 4.352 18.312533-7.2192 27.716267-21.179734 36.573867-30.464 19.345067-68.104533 21.444267-102.033066 10.1888z" fill="#F2BB56" /><path d="M768.170667 375.927467c9.591467-1.646933 9.309867 17.416533 7.4496 23.765333-0.290133 1.006933-10.5728 14.395733-12.544 16.733867-13.602133 16.119467-50.1504 37.956267-70.6816 43.178666-7.671467 1.9456-17.3568 5.051733-22.1696-2.525866-6.1184-9.6256 11.050667-12.2624 14.677333-14.728534 6.929067-4.718933 16.017067-11.272533 22.673067-16.366933 13.550933-10.376533 47.530667-47.812267 60.603733-50.056533z" fill="#FCDD99" /><path d="M984.251733 525.354667c1.109333-27.349333-13.3632-50.269867-29.277866-71.5776-12.398933-16.597333-28.8768-29.627733-40.635734-45.585067-7.278933-9.8816-5.102933-12.2368-17.928533-22.741333 9.693867 4.002133 21.802667 10.9056 30.472533 16.699733 18.542933 12.381867 46.6944 34.005333 56.891734 53.717333 10.3168 19.950933 17.698133 51.831467 0.469333 69.4784z" fill="#DCCEBE" /><path d="M470.212267 499.336533c-4.4544 12.074667-12.381867 8.2432-21.0688 9.8304-45.1584 8.277333-111.121067-6.912-153.693867-25.4976-4.718933-2.056533-9.156267 2.5344-7.415467-7.1168l40.712534 9.7024c18.1248-1.1776 37.563733 5.563733 55.108266 6.7072 29.0304 1.8944 58.274133-4.5568 86.357334 6.3744z" fill="#F2BE61" /><path d="M216.448 518.852267c4.864 6.638933 8.192 10.436267 6.510933 19.5072-16.6144 2.133333-48.8192-1.536-45.661866-24.465067 1.390933-10.0864 15.7952-13.5168 24.584533-14.498133 7.364267-0.8192 37.213867-2.798933 34.082133 8.046933l-19.515733 11.409067z" fill="#FCE6BA" /><path d="M602.666667 451.217067c11.281067-1.629867 37.589333-1.237333 28.689066 15.675733-7.159467 13.610667-23.355733 9.0368-36.0192 9.506133-4.6848 0.1792-8.712533 3.054933-12.279466 2.747734-4.130133-0.349867-20.539733-3.421867-21.751467-7.492267-0.802133-5.2992 3.899733-6.690133 7.492267-8.7552 8.516267-4.898133 24.209067-10.299733 33.860266-11.690667z" fill="#FAE4B5" /><path d="M746.752 616.448c-7.560533 2.039467-15.086933 4.616533-22.775467 6.510933-8.106667 1.911467-18.705067-6.178133-16.042666-14.327466 3.6608-11.2128 38.724267-27.52 45.0816-9.685334l-6.272 17.5104zM716.885333 589.866667c-0.452267 0.469333-10.6496 6.408533-11.272533 6.596266-11.409067 3.3792-30.455467-0.7168-33.595733-13.969066 11.776-16.315733 32.6144-19.874133 47.223466-5.12 2.542933 2.5344-1.006933 11.0848-2.3552 12.4928z" fill="#F9E7BA" /><path d="M257.3312 401.9456c4.181333-1.2032 10.487467-0.733867 14.5152 1.314133 1.237333 0.631467 19.3792 16.0256 21.0944 17.9456 8.072533 9.019733 5.802667 17.4848-6.536533 16.384-2.568533-0.2304-25.787733-9.8048-27.690667-11.4432-3.8144-3.285333-6.997333-11.306667-6.656-16.290133-0.341333-3.165867 2.5344-7.125333 5.2736-7.9104z" fill="#F8E7BF" /><path d="M794.3936 545.3312c3.0464-0.725333 6.050133-0.8704 9.1392-0.315733 11.511467 9.617067 3.456 21.870933-6.229333 29.2608-14.293333 10.9056-45.303467-4.266667-23.022934-19.771734 2.9184-2.030933 16.887467-8.3968 20.1216-9.173333z" fill="#F8E6BB" /><path d="M613.1456 561.348267c3.985067 12.706133 13.824 23.031467-1.826133 31.914666L590.421333 592.213333c-15.965867-18.7904 1.723733-35.6608 22.724267-30.865066z" fill="#F8E1B7" /><path d="M353.092267 593.681067c14.7968-4.9664 30.5664-5.2992 44.0832 3.080533 8.797867 31.4368-45.192533 22.5024-44.0832-3.080533z" fill="#F8E9BD" /><path d="M684.936533 515.592533c-4.113067 1.604267-9.642667 5.905067-13.013333 6.510934-5.956267 1.066667-24.0896 1.4848-25.9072-5.000534l1.348267-11.434666c13.5424-11.562667 51.4304-18.9184 37.572266 9.924266z" fill="#F5E3B7" /><path d="M797.730133 512.887467c13.2096-2.824533 32.6912-1.032533 36.855467 14.071466-9.7792 10.8544-30.882133 11.349333-42.205867 3.191467-10.7264-7.7312-6.280533-14.779733 5.3504-17.262933z" fill="#FAE7BE" /><path d="M413.789867 454.2976c12.219733-2.722133 16.699733 2.065067 23.662933 11.178667-2.056533 20.3776-28.945067 24.200533-38.5792 5.888-2.312533-7.8592 8.362667-15.607467 14.916267-17.066667z" fill="#FAE8BC" /><path d="M276.923733 538.6496c12.663467-3.652267 42.001067 2.816 37.0176 20.744533-8.465067 12.245333-38.664533 0.7936-41.9072-9.915733-1.339733-4.4288 0.512-9.565867 4.8896-10.8288z" fill="#F8EABD" /><path d="M140.279467 450.807467c16.904533-4.864 33.399467 3.9168 25.873066 22.621866-11.648 9.403733-32.273067-0.426667-31.172266-14.779733-0.418133-3.2768 2.423467-7.005867 5.2992-7.8336z" fill="#F9E6B8" /><path d="M199.842133 446.941867c-10.538667 2.491733-16.392533 4.778667-26.8032-0.1792-14.6688-6.9888 3.413333-27.298133 21.9392-21.930667 8.507733 6.101333 9.216 13.3888 4.864 22.109867z" fill="#F9DFAF" /><path d="M401.8176 544.955733c3.0464 19.541333-20.411733 32.682667-32.136533 14.216534l1.220266-11.144534c8.021333-10.743467 19.8144-6.314667 30.916267-3.072z" fill="#F8E7B0" /><path d="M385.621333 483.054933c-8.6784 1.7664-29.499733-2.116267-26.018133-14.626133 3.387733-12.1856 33.3568-2.781867 26.018133 14.626133z" fill="#FBE1AF" /><path d="M980.992 531.857067c0.682667-1.757867 0.8192-3.396267 3.2512-3.2512-0.264533 2.090667-0.964267 3.5072-3.2512 3.2512z" fill="#DCCEBE" /></svg>