<?xml version="1.0" standalone="no"?><!DOCTYPE svg PUBLIC "-//W3C//DTD SVG 1.1//EN" "http://www.w3.org/Graphics/SVG/1.1/DTD/svg11.dtd"><svg class="icon" width="256px" height="256.00px" viewBox="0 0 1024 1024" version="1.1" xmlns="http://www.w3.org/2000/svg"><path d="M523.713423 24.934387c26.76052-1.143466 12.074661 3.771731 3.626665 14.967459-51.413307 68.095965 8.900262 181.282041 56.729571 238.532146 60.450103 72.354097 203.972163 172.987645 295.099584 185.139106-31.539184-2.713599-18.184524 0.110933-22.826655 18.53439-5.393064 21.375989-26.461853 79.743959-52.80424 79.786626-4.497064-2.525865-36.607981-14.429859-41.599979-15.121059-15.752525-2.184532-32.972783 0.904533-48.844775 0.315734-10.854394 22.493855-3.063465 40.16638 11.229861 59.980769 4.565331 6.33173 28.987719 34.047983 33.834649 38.007447-15.982925 21.324789-36.991981 42.751978-56.593038 60.842636-10.487461 9.676795-26.692253 20.24959-38.058647 29.576518-20.386123 16.733858-39.91038 47.487976-71.72263 45.713044-17.476258-8.328529-83.430358-28.040519-102.254882-30.045852-79.05276-8.430929-69.521031 38.203714-56.567437 98.116217-13.141327 9.873062-26.68372 7.116796-41.574379 7.594663-101.367415 3.276798-179.054842-0.110933-270.745463-46.941843-16.230392-8.294396-72.08103-42.948245-81.407958-54.698639-3.865598-4.872531-11.212794-19.83999-14.668793-26.956786-0.247467-0.503466-4.659198-0.8704-6.289063-5.128531-2.909865-7.611729-6.886396-27.09332-8.686929-36.625048-64.383967-339.891027 205.294829-595.515431 514.124538-661.588997zM377.443631 154.700721c-9.139195 2.065066-49.467708 19.81439-57.745037 25.437854-20.642123 14.037326-55.364239 57.813304-53.46984 82.841558 29.653318 91.289554 144.528993 37.375981 180.804175-23.569055 30.182385-50.696508-14.967459-97.032484-69.597831-84.710357zM274.13915 471.125094c3.157332-33.06665-19.345057-68.206899-41.361045-90.973821-13.76426-14.233593-79.402626-60.441569-94.754086-45.14131-2.773332 34.329583 26.239987 73.992496 48.981309 98.474617 22.894922 24.644254 52.095974 42.094912 87.133822 37.640514zM130.46349 622.40395c-7.953063 32.47785 34.653849 80.699692 64.255967 83.345025 9.642662 0.861866 24.149321-2.269866 26.513053-11.571195 5.785597-22.758388-63.231968-79.163693-90.76902-71.77383z" fill="#B48598" /><path d="M1015.30144 463.573098c-42.248512 301.636113-232.004149 535.509061-547.959188 559.957048-28.151452 2.175999-45.201044-6.74133-68.078899-8.200529-76.484228-4.889598-130.056467 1.663999-204.168429 8.191996-59.229837 5.222397-131.660733-32.827717-153.710855-88.959955-25.386654-64.6229-14.591993-138.248463-16.810659-206.293228 3.447465 7.108263 10.803195 22.084255 14.668793 26.956786 9.326929 11.750394 65.169034 46.404243 81.407959 54.698639 91.682087 46.83091 169.378047 50.227174 270.745462 46.941843 14.899192-0.477866 28.433052 2.269866 41.574379-7.594663l9.471995 13.525326c8.234662 5.043197 24.908787 16.930125 32.24745 23.953055 26.999453 25.855987 51.592507 63.846368 90.734888 68.283699 33.860249 3.831465 53.29064-10.879994 58.154637-44.159978l12.450127-1.843199c10.956794-46.06291-12.125861-75.938095-28.663452-115.541275-1.416533-2.133332-13.823993-11.443194-15.573326-12.27946 31.81225 1.774932 51.336507-28.979185 71.72263-45.713044 11.366394-9.326929 27.571186-19.899723 38.058648-29.576518 19.601057-18.090657 40.610113-39.509313 56.593038-60.842636 1.638399 1.339733 29.610652 18.594124 35.054915 21.666123 38.903447 21.922122 90.171687 26.589853 77.175427-31.829317-4.002131-18.005324-50.047975-63.598901-66.858632-73.02823 26.333853-0.042667 47.411176-58.402104 52.80424-79.786626 4.642131-18.414924-8.712529-21.247989 22.826655-18.534391 31.778117 4.241065 86.963156 0.64 113.305542-19.037857 11.195728-8.362662 15.283192-26.35092 19.037857-26.359453l3.780265 45.39731z" fill="#9C637B" /><path d="M1015.30144 463.573098l-3.780265-45.397311c-3.763198 0.008533-7.850663 17.996791-19.037857 26.359454-26.342387 19.677857-81.535959 23.278921-113.305542 19.037857-91.12742-12.15146-234.640947-112.785009-295.099583-185.139106-47.829309-57.250104-108.151412-170.43618-56.729571-238.532146 8.447996-11.195728 23.133855-16.110925-3.626665-14.967459 0.657066-0.136533 1.339733-5.81973 10.990927-7.603196C625.388038 0.546133 696.351202 21.068789 775.907429 63.914634c135.074065 72.738096 245.725742 198.476699 246.928941 358.049952 0.093867 12.287994 5.435731 35.404782-7.543463 41.617045zM649.452026 116.633541c-25.258654 7.38133-30.156785 38.894914-25.958387 61.909302 10.666661 58.478904 64.401034 113.245809 114.295409 142.80526 41.881579 24.814921 86.331689 46.01171 136.354064 35.097582 66.0565-14.412793 18.500257-107.076212-6.51093-142.250594-38.323181-53.913573-151.654323-117.017541-218.180156-97.56155z" fill="#D8B4CB" /><path d="M591.783789 781.209203c1.749332 0.836266 14.165326 10.146128 15.573325 12.27946 16.546125 39.60318 39.62878 69.486898 28.663452 115.541275l-12.450127 1.843199c-4.872531 33.279983-24.294388 47.991442-58.154637 44.159978-39.14238-4.428798-63.735434-42.419178-90.734887-68.283699-7.338663-7.02293-24.004254-18.909857-32.24745-23.953055l-9.471995-13.525326c-12.953593-59.90397-22.485322-106.547146 56.567437-98.116217 18.824524 2.005332 84.778624 21.717322 102.254882 30.045852z" fill="#885A3D" /><path d="M377.443631 154.700721c54.630372-12.322127 99.771683 34.013849 69.597831 84.710357-36.275182 60.945036-151.150856 114.858608-180.804174 23.569055-1.894399-25.028254 32.819183-68.804232 53.469839-82.841558 8.277329-5.631997 48.605842-23.381321 57.745037-25.437854z" fill="#D5A6B7" /><path d="M803.538348 561.885581c16.810658 9.420795 62.856501 55.014372 66.858632 73.02823 12.99626 58.410637-38.271981 53.751439-77.175427 31.829317-5.452797-3.071998-33.416516-20.32639-35.054915-21.666123-4.846931-3.959465-29.269318-31.684251-33.83465-38.007447-14.293326-19.81439-22.084255-37.486914-11.229861-59.980769 15.871992 0.5888 33.09225-2.508799 48.844775-0.315734 4.991997 0.6912 37.102914 12.595194 41.599979 15.121059z" fill="#8D5C3F" /><path d="M274.13915 471.125094c-35.037849 4.454398-64.238901-12.99626-87.133822-37.640514-22.741322-24.482121-51.75464-64.145034-48.981309-98.474617 15.351459-15.300259 80.989825 30.907718 94.754086 45.14131 22.015989 22.766922 44.518377 57.907171 41.361045 90.973821z" fill="#936040" /><path d="M130.46349 622.40395c27.537053-7.389863 96.546084 49.015442 90.76902 71.77383-2.363732 9.301329-16.870391 12.43306-26.513053 11.571195-29.602118-2.645332-72.20903-50.867174-64.255967-83.345025z" fill="#8E5C45" /><path d="M649.452026 116.633541c66.525833-19.45599 179.848442 43.647978 218.180156 97.56155 25.002654 35.174382 72.56743 127.837802 6.51093 142.250594-50.022375 10.914128-94.472485-10.282661-136.354064-35.097582-49.885841-29.567985-103.628747-84.326357-114.295409-142.80526-4.198398-23.014388 0.699733-54.519439 25.958387-61.909302z" fill="#C493BB" /></svg>